<svg height="189.76" width="216.84" viewBox="0 0 222 192" xmlns="http://www.w3.org/2000/svg">
  <defs>
    <clipPath id="LCmeter0-LCD-8pinlcd-PIC_COMP-board_svg__V">
      <path d="m178 82h1.98v2h-1.98z" />
    </clipPath>
    <clipPath id="LCmeter0-LCD-8pinlcd-PIC_COMP-board_svg__a">
      <path d="m178 157h1.98v1h-1.98z" />
    </clipPath>
    <clipPath id="LCmeter0-LCD-8pinlcd-PIC_COMP-board_svg__c">
      <path d="m178 155h1.98v2h-1.98z" />
    </clipPath>
    <clipPath id="LCmeter0-LCD-8pinlcd-PIC_COMP-board_svg__d">
      <path d="m178 153h1.98v2h-1.98z" />
    </clipPath>
    <clipPath id="LCmeter0-LCD-8pinlcd-PIC_COMP-board_svg__e">
      <path d="m178 151h1.98v2h-1.98z" />
    </clipPath>
    <clipPath id="LCmeter0-LCD-8pinlcd-PIC_COMP-board_svg__f">
      <path d="m178 150h1.98v2h-1.98z" />
    </clipPath>
    <clipPath id="LCmeter0-LCD-8pinlcd-PIC_COMP-board_svg__g">
      <path d="m178 148h1.98v2h-1.98z" />
    </clipPath>
    <clipPath id="LCmeter0-LCD-8pinlcd-PIC_COMP-board_svg__h">
      <path d="m178 147h1.98v1h-1.98z" />
    </clipPath>
    <clipPath id="LCmeter0-LCD-8pinlcd-PIC_COMP-board_svg__i">
      <path d="m178 145h1.98v2h-1.98z" />
    </clipPath>
    <clipPath id="LCmeter0-LCD-8pinlcd-PIC_COMP-board_svg__j">
      <path d="m178 143h1.98v2h-1.98z" />
    </clipPath>
    <clipPath id="LCmeter0-LCD-8pinlcd-PIC_COMP-board_svg__k">
      <path d="m178 142h1.98v2h-1.98z" />
    </clipPath>
    <clipPath id="LCmeter0-LCD-8pinlcd-PIC_COMP-board_svg__l">
      <path d="m178 140h1.98v2h-1.98z" />
    </clipPath>
    <clipPath id="LCmeter0-LCD-8pinlcd-PIC_COMP-board_svg__m">
      <path d="m178 138h1.98v2h-1.98z" />
    </clipPath>
    <clipPath id="LCmeter0-LCD-8pinlcd-PIC_COMP-board_svg__n">
      <path d="m178 137h1.98v2h-1.98z" />
    </clipPath>
    <clipPath id="LCmeter0-LCD-8pinlcd-PIC_COMP-board_svg__o">
      <path d="m178 135h1.98v2h-1.98z" />
    </clipPath>
    <clipPath id="LCmeter0-LCD-8pinlcd-PIC_COMP-board_svg__p">
      <path d="m178 134h1.98v1h-1.98z" />
    </clipPath>
    <clipPath id="LCmeter0-LCD-8pinlcd-PIC_COMP-board_svg__q">
      <path d="m178 132h1.98v2h-1.98z" />
    </clipPath>
    <clipPath id="LCmeter0-LCD-8pinlcd-PIC_COMP-board_svg__r">
      <path d="m178 130h1.98v2h-1.98z" />
    </clipPath>
    <clipPath id="LCmeter0-LCD-8pinlcd-PIC_COMP-board_svg__s">
      <path d="m178 129h1.98v2h-1.98z" />
    </clipPath>
    <clipPath id="LCmeter0-LCD-8pinlcd-PIC_COMP-board_svg__t">
      <path d="m178 127h1.98v2h-1.98z" />
    </clipPath>
    <clipPath id="LCmeter0-LCD-8pinlcd-PIC_COMP-board_svg__u">
      <path d="m178 125h1.98v2h-1.98z" />
    </clipPath>
    <clipPath id="LCmeter0-LCD-8pinlcd-PIC_COMP-board_svg__v">
      <path d="m178 124h1.98v2h-1.98z" />
    </clipPath>
    <clipPath id="LCmeter0-LCD-8pinlcd-PIC_COMP-board_svg__w">
      <path d="m178 122h1.98v2h-1.98z" />
    </clipPath>
    <clipPath id="LCmeter0-LCD-8pinlcd-PIC_COMP-board_svg__x">
      <path d="m178 121h1.98v2h-1.98z" />
    </clipPath>
    <clipPath id="LCmeter0-LCD-8pinlcd-PIC_COMP-board_svg__y">
      <path d="m178 119h1.98v2h-1.98z" />
    </clipPath>
    <clipPath id="LCmeter0-LCD-8pinlcd-PIC_COMP-board_svg__z">
      <path d="m178 117h1.98v2h-1.98z" />
    </clipPath>
    <clipPath id="LCmeter0-LCD-8pinlcd-PIC_COMP-board_svg__A">
      <path d="m178 116h1.98v2h-1.98z" />
    </clipPath>
    <clipPath id="LCmeter0-LCD-8pinlcd-PIC_COMP-board_svg__B">
      <path d="m178 114h1.98v2h-1.98z" />
    </clipPath>
    <clipPath id="LCmeter0-LCD-8pinlcd-PIC_COMP-board_svg__C">
      <path d="m178 113h1.98v1h-1.98z" />
    </clipPath>
    <clipPath id="LCmeter0-LCD-8pinlcd-PIC_COMP-board_svg__D">
      <path d="m178 111h1.98v2h-1.98z" />
    </clipPath>
    <clipPath id="LCmeter0-LCD-8pinlcd-PIC_COMP-board_svg__E">
      <path d="m178 109h1.98v2h-1.98z" />
    </clipPath>
    <clipPath id="LCmeter0-LCD-8pinlcd-PIC_COMP-board_svg__F">
      <path d="m178 108h1.98v2h-1.98z" />
    </clipPath>
    <clipPath id="LCmeter0-LCD-8pinlcd-PIC_COMP-board_svg__G">
      <path d="m178 106h1.98v2h-1.98z" />
    </clipPath>
    <clipPath id="LCmeter0-LCD-8pinlcd-PIC_COMP-board_svg__H">
      <path d="m178 104h1.98v2h-1.98z" />
    </clipPath>
    <clipPath id="LCmeter0-LCD-8pinlcd-PIC_COMP-board_svg__I">
      <path d="m178 103h1.98v2h-1.98z" />
    </clipPath>
    <clipPath id="LCmeter0-LCD-8pinlcd-PIC_COMP-board_svg__J">
      <path d="m178 101h1.98v2h-1.98z" />
    </clipPath>
    <clipPath id="LCmeter0-LCD-8pinlcd-PIC_COMP-board_svg__K">
      <path d="m178 100h1.98v1h-1.98z" />
    </clipPath>
    <clipPath id="LCmeter0-LCD-8pinlcd-PIC_COMP-board_svg__L">
      <path d="m178 98h1.98v2h-1.98z" />
    </clipPath>
    <clipPath id="LCmeter0-LCD-8pinlcd-PIC_COMP-board_svg__M">
      <path d="m178 96h1.98v2h-1.98z" />
    </clipPath>
    <clipPath id="LCmeter0-LCD-8pinlcd-PIC_COMP-board_svg__N">
      <path d="m178 95h1.98v2h-1.98z" />
    </clipPath>
    <clipPath id="LCmeter0-LCD-8pinlcd-PIC_COMP-board_svg__O">
      <path d="m178 93h1.98v2h-1.98z" />
    </clipPath>
    <clipPath id="LCmeter0-LCD-8pinlcd-PIC_COMP-board_svg__P">
      <path d="m178 91h1.98v2h-1.98z" />
    </clipPath>
    <clipPath id="LCmeter0-LCD-8pinlcd-PIC_COMP-board_svg__Q">
      <path d="m178 90h1.98v2h-1.98z" />
    </clipPath>
    <clipPath id="LCmeter0-LCD-8pinlcd-PIC_COMP-board_svg__R">
      <path d="m178 88h1.98v2h-1.98z" />
    </clipPath>
    <clipPath id="LCmeter0-LCD-8pinlcd-PIC_COMP-board_svg__S">
      <path d="m178 87h1.98v1h-1.98z" />
    </clipPath>
    <clipPath id="LCmeter0-LCD-8pinlcd-PIC_COMP-board_svg__T">
      <path d="m178 85h1.98v2h-1.98z" />
    </clipPath>
    <clipPath id="LCmeter0-LCD-8pinlcd-PIC_COMP-board_svg__U">
      <path d="m178 83h1.98v2h-1.98z" />
    </clipPath>
    <clipPath id="LCmeter0-LCD-8pinlcd-PIC_COMP-board_svg__b">
      <path d="m178 156h1.98v2h-1.98z" />
    </clipPath>
    <clipPath id="LCmeter0-LCD-8pinlcd-PIC_COMP-board_svg__W">
      <path d="m178 80h1.98v2h-1.98z" />
    </clipPath>
    <clipPath id="LCmeter0-LCD-8pinlcd-PIC_COMP-board_svg__X">
      <path d="m178 78h1.98v2h-1.98z" />
    </clipPath>
    <clipPath id="LCmeter0-LCD-8pinlcd-PIC_COMP-board_svg__Y">
      <path d="m178 77h1.98v2h-1.98z" />
    </clipPath>
    <clipPath id="LCmeter0-LCD-8pinlcd-PIC_COMP-board_svg__Z">
      <path d="m178 75h1.98v2h-1.98z" />
    </clipPath>
    <clipPath id="LCmeter0-LCD-8pinlcd-PIC_COMP-board_svg__aa">
      <path d="m178 74h1.98v1h-1.98z" />
    </clipPath>
    <clipPath id="LCmeter0-LCD-8pinlcd-PIC_COMP-board_svg__ab">
      <path d="m178 72h1.98v2h-1.98z" />
    </clipPath>
    <clipPath id="LCmeter0-LCD-8pinlcd-PIC_COMP-board_svg__ac">
      <path d="m178 70h1.98v2h-1.98z" />
    </clipPath>
    <clipPath id="LCmeter0-LCD-8pinlcd-PIC_COMP-board_svg__ad">
      <path d="m178 69h1.98v2h-1.98z" />
    </clipPath>
    <clipPath id="LCmeter0-LCD-8pinlcd-PIC_COMP-board_svg__ae">
      <path d="m178 67h1.98v2h-1.98z" />
    </clipPath>
    <clipPath id="LCmeter0-LCD-8pinlcd-PIC_COMP-board_svg__af">
      <path d="m178 65h1.98v2h-1.98z" />
    </clipPath>
    <clipPath id="LCmeter0-LCD-8pinlcd-PIC_COMP-board_svg__ag">
      <path d="m178 64h1.98v2h-1.98z" />
    </clipPath>
    <clipPath id="LCmeter0-LCD-8pinlcd-PIC_COMP-board_svg__ah">
      <path d="m178 62h1.98v2h-1.98z" />
    </clipPath>
    <clipPath id="LCmeter0-LCD-8pinlcd-PIC_COMP-board_svg__ai">
      <path d="m178 61h1.98v1h-1.98z" />
    </clipPath>
    <clipPath id="LCmeter0-LCD-8pinlcd-PIC_COMP-board_svg__aj">
      <path d="m178 59h1.98v2h-1.98z" />
    </clipPath>
    <clipPath id="LCmeter0-LCD-8pinlcd-PIC_COMP-board_svg__ak">
      <path d="m178 57h1.98v2h-1.98z" />
    </clipPath>
    <clipPath id="LCmeter0-LCD-8pinlcd-PIC_COMP-board_svg__al">
      <path d="m178 56h1.98v2h-1.98z" />
    </clipPath>
    <clipPath id="LCmeter0-LCD-8pinlcd-PIC_COMP-board_svg__am">
      <path d="m178 54h1.98v2h-1.98z" />
    </clipPath>
    <clipPath id="LCmeter0-LCD-8pinlcd-PIC_COMP-board_svg__an">
      <path d="m178 52h1.98v2h-1.98z" />
    </clipPath>
    <clipPath id="LCmeter0-LCD-8pinlcd-PIC_COMP-board_svg__ao">
      <path d="m178 51h1.98v2h-1.98z" />
    </clipPath>
    <clipPath id="LCmeter0-LCD-8pinlcd-PIC_COMP-board_svg__ap">
      <path d="m178 49h1.98v2h-1.98z" />
    </clipPath>
    <clipPath id="LCmeter0-LCD-8pinlcd-PIC_COMP-board_svg__aq">
      <path d="m178 48h1.98v1h-1.98z" />
    </clipPath>
    <clipPath id="LCmeter0-LCD-8pinlcd-PIC_COMP-board_svg__ar">
      <path d="m178 46h1.98v2h-1.98z" />
    </clipPath>
    <clipPath id="LCmeter0-LCD-8pinlcd-PIC_COMP-board_svg__as">
      <path d="m178 44h1.98v2h-1.98z" />
    </clipPath>
    <clipPath id="LCmeter0-LCD-8pinlcd-PIC_COMP-board_svg__at">
      <path d="m178 43h1.98v2h-1.98z" />
    </clipPath>
    <clipPath id="LCmeter0-LCD-8pinlcd-PIC_COMP-board_svg__au">
      <path d="m178 41h1.98v2h-1.98z" />
    </clipPath>
    <clipPath id="LCmeter0-LCD-8pinlcd-PIC_COMP-board_svg__av">
      <path d="m178 40h1.98v1h-1.98z" />
    </clipPath>
    <clipPath id="LCmeter0-LCD-8pinlcd-PIC_COMP-board_svg__aw">
      <path d="m178 38h1.98v2h-1.98z" />
    </clipPath>
    <clipPath id="LCmeter0-LCD-8pinlcd-PIC_COMP-board_svg__ax">
      <path d="m178 36h1.98v2h-1.98z" />
    </clipPath>
    <clipPath id="LCmeter0-LCD-8pinlcd-PIC_COMP-board_svg__ay">
      <path d="m178 35h1.98v2h-1.98z" />
    </clipPath>
    <clipPath id="LCmeter0-LCD-8pinlcd-PIC_COMP-board_svg__az">
      <path d="m178 33h1.98v2h-1.98z" />
    </clipPath>
    <clipPath id="LCmeter0-LCD-8pinlcd-PIC_COMP-board_svg__aA">
      <path d="m178 31h1.98v2h-1.98z" />
    </clipPath>
    <clipPath id="LCmeter0-LCD-8pinlcd-PIC_COMP-board_svg__aB">
      <path d="m178 30h1.98v2h-1.98z" />
    </clipPath>
    <clipPath id="LCmeter0-LCD-8pinlcd-PIC_COMP-board_svg__aC">
      <path d="m178 28h1.98v2h-1.98z" />
    </clipPath>
    <clipPath id="LCmeter0-LCD-8pinlcd-PIC_COMP-board_svg__aD">
      <path d="m178 26h1.98v2h-1.98z" />
    </clipPath>
    <clipPath id="LCmeter0-LCD-8pinlcd-PIC_COMP-board_svg__aE">
      <path d="m178 25h1.98v2h-1.98z" />
    </clipPath>
    <clipPath id="LCmeter0-LCD-8pinlcd-PIC_COMP-board_svg__aF">
      <path d="m178 23h1.98v2h-1.98z" />
    </clipPath>
    <clipPath id="LCmeter0-LCD-8pinlcd-PIC_COMP-board_svg__aG">
      <path d="m178 22h1.98v2h-1.98z" />
    </clipPath>
    <clipPath id="LCmeter0-LCD-8pinlcd-PIC_COMP-board_svg__aH">
      <path d="m178 20h1.98v2h-1.98z" />
    </clipPath>
    <clipPath id="LCmeter0-LCD-8pinlcd-PIC_COMP-board_svg__aI">
      <path d="m178 18h1.98v2h-1.98z" />
    </clipPath>
    <clipPath id="LCmeter0-LCD-8pinlcd-PIC_COMP-board_svg__aJ">
      <path d="m178 17h1.98v2h-1.98z" />
    </clipPath>
    <clipPath id="LCmeter0-LCD-8pinlcd-PIC_COMP-board_svg__aK">
      <path d="m178 15h1.98v2h-1.98z" />
    </clipPath>
    <clipPath id="LCmeter0-LCD-8pinlcd-PIC_COMP-board_svg__aL">
      <path d="m178 14h1.98v1h-1.98z" />
    </clipPath>
    <clipPath id="LCmeter0-LCD-8pinlcd-PIC_COMP-board_svg__aM">
      <path d="m178 12h1.98v2h-1.98z" />
    </clipPath>
    <clipPath id="LCmeter0-LCD-8pinlcd-PIC_COMP-board_svg__aN">
      <path d="m178 10h1.98v2h-1.98z" />
    </clipPath>
    <clipPath id="LCmeter0-LCD-8pinlcd-PIC_COMP-board_svg__aO">
      <path d="m178 9h1.98v2h-1.98z" />
    </clipPath>
    <clipPath id="LCmeter0-LCD-8pinlcd-PIC_COMP-board_svg__aP">
      <path d="m178 7h1.98v2h-1.98z" />
    </clipPath>
    <clipPath id="LCmeter0-LCD-8pinlcd-PIC_COMP-board_svg__aQ">
      <path d="m178 5h1.98v2h-1.98z" />
    </clipPath>
  </defs>
  <path d="M108.381 90.378h17.998m.001 0V72.38m-17.999-45h-8.999m0 17.998h9m-.001 45h-8.999m0-62.998v17.998m0 0h-8.999M126.38 72.38h18.002M63.454 45.378h18.003m-63.003 9.004v-36m0-.001h36.001m0 0v9m0-.001v17.998m8.999 0h-8.999m80.928 18.003h-9.004m.001 0V45.378m0 0h9.003m0 0h9m-.001 45h9m-.001 0v-45m0 0h-8.999M90.383 63.381h17.998m0-8.999v9m27.002-9h9m53.998 62.998h-8.999m-90 0v-8.999m0 0v-8.999m0 0h36.001m0 0v-9.004M27.458 162.307h-9.004m0 0v17.998m80.928 0h90m0 0v-8.999m0 0v-18.003m-90 27.002H18.454m89.927-53.999h-8.999m0 0v-8.926m98.999 0h9m-17.999 35.923v-8.999m0 0h17.998m0 0V117.38M90.383 99.382h9m81 0h17.998m-8.999 17.998h-8.999m-90-17.998h-8.926m0 0v-36m-8.999-.001h9m-18.004 0h9.004m8.999-45V9.455m0 0h53.926m-53.926 8.926h-8.999" fill="none" stroke="#00007f" strokeLinecap="round" strokeWidth="4.5" />
  <path d="M.456.456v.225m0 1.797v.225m0 1.801v.225m0 1.801v.225m0 1.802v.225m0 1.796v.225m0 1.802v.224m0 1.802v.225m0 1.797v.23m0 1.797v.224m0 1.801v.225m0 1.802v.224m0 1.797v.225m0 1.802v.224m0 1.802v.225m0 1.797v.229m0 1.797v.224m0 1.802v.225m0 1.802v.297m0 1.802v.225m0 1.797v.23m0 1.796v.225m0 1.801v.225m0 1.802v.224m0 1.797v.225m0 1.802v.224m0 1.802v.225m0 1.797v.229m0 1.797v.224m0 1.802v.225m0 1.802v.224m0 1.797v.225m0 1.802v.224m0 1.802v.224m0 1.802v.225m0 1.797v.224m0 1.802v.225m0 1.801v.225m0 1.797v.225m0 1.801v.225m0 1.801v.298m0 1.802v.225m0 1.802v.224m0 1.797v.225m0 1.801v.225m0 1.801v.225m0 1.802v.225m0 1.797v.224m0 1.802v.225m0 1.801v.225m0 1.797v.225m0 1.802v.224m0 1.802v.224m0 1.802v.225m0 1.796v.225m0 1.802v.224m0 1.802v.225m0 1.797v.23m0 1.796v.225m0 1.801v.225m0 1.802v.224m0 1.797v.225m0 1.802v.298m0 1.801v.225m0 1.801v.225m0 1.802v.225m0 1.796v.225m0 1.802v.224m0 1.802v.225m0 1.797v.23m0 1.797v.224m0 1.801v.225m0 1.802v.224m0 1.797v.225m0 1.802v.224m0 1.802v.225m0 1.797v.229m0 1.797v.224m0 1.802v.225m0 1.802v.224m0 1.797v.225m0 1.801v.225m0 1.801v.225m0 1.802v.225m0 1.797v.302m0 1.724v.298m0 1.802v.224m0 1.802v.225m0 1.797v.229m0 1.797v.224m0 1.802v.225m0 1.802v.224m0 1.797v.225m0 1.802v.224m0 0h.225m1.802 0h.224m1.797 0h.225m1.801 0h.303m1.797 0h.225m1.802 0h.224m1.802 0h.225m1.796 0h.225m1.801 0h.225m1.802 0h.225m1.802 0h.224m1.797 0h.303m1.797 0h.224m1.802 0h.225m1.801 0h.225m1.797 0h.23m1.796 0h.225m1.802 0h.224m1.802 0h.225m1.797 0h.302m1.798 0h.229m1.796 0h.225m1.802 0h.224m1.802 0h.225m1.797 0h.224m1.802 0h.225m1.801 0h.225m1.797 0h.303m1.801 0h.225m1.797 0h.224m1.802 0h.225m1.802 0h.224m1.797 0h.23m1.796 0h.225m1.802 0h.298m1.728 0h.298m1.802 0h.224m1.797 0h.225m1.801 0h.225m1.802 0h.225m1.801 0h.225m1.797 0h.224m1.802 0h.298m1.801 0h.225m1.802 0h.225m1.802 0h.224m1.797 0h.225m1.801 0h.225m1.802 0h.224m1.798 0h.224m1.802 0h.302m1.797 0h.225m1.802 0h.224m1.802 0h.225m1.797 0h.224m1.802 0h.224m1.802 0h.225m1.802 0h.224m1.797 0h.303m1.797 0h.224m1.802 0h.225m1.801 0h.225m1.797 0h.23m1.796 0h.225m1.802 0h.224m1.802 0h.225m1.796 0h.303m1.797 0h.23m1.796 0h.225m1.802 0h.224m1.802 0h.225m1.797 0h.224m1.802 0h.225m1.801 0h.225m1.797 0h.303m1.801 0h.225m1.797 0h.224m1.802 0h.225m1.802 0h.224m1.798 0h.229m1.796 0h.225m1.802 0h.224m1.802 0h.298m1.802 0h.224m1.798 0h.224m1.802 0h.224m1.802 0h.225m1.801 0h.225m1.797 0h.224m1.802 0h.225m1.802 0h.297m1.802 0h.225m1.802 0h.224m1.797 0h.225m1.801 0h.225m1.802 0h.224m1.797 0h.225m1.801 0h.225m1.802 0h.298m1.802 0h.224m1.802 0h.225m1.796 0h.225m1.801 0h.225m1.802 0h.225m1.802 0h.224m1.797 0h.225" fill="none" stroke="#00007f" strokeLinecap="round" strokeWidth=".9" />
  <path d="M214.28.456h-.225m-1.797 0h-.224m-1.802 0h-.225m-1.802 0h-.224m-1.801 0h-.226m-1.796 0h-.225m-1.802 0h-.224m-1.802 0h-.298m-1.802 0h-.224m-1.802 0h-.225m-1.797 0h-.224m-1.802 0h-.225m-1.801 0h-.225m-1.797 0h-.224m-1.802 0h-.225m-1.802 0h-.297m-1.803 0h-.224m-1.802 0h-.224m-1.797 0h-.225m-1.801 0h-.225m-1.802 0h-.224m-1.802 0h-.225m-1.797 0h-.224m-1.802 0h-.298m-1.802 0h-.224m-1.802 0h-.225m-1.796 0h-.23m-1.797 0h-.224m-1.802 0h-.225m-1.801 0h-.225m-1.797 0h-.225m-1.801 0h-.303m-1.797 0h-.225m-1.801 0h-.225m-1.801 0h-.225m-1.797 0h-.225m-1.802 0h-.224m-1.802 0h-.225m-1.796 0h-.23m-1.797 0h-.303m-1.796 0h-.225m-1.802 0h-.224m-1.802 0h-.225m-1.797 0h-.23m-1.796 0h-.225m-1.802 0h-.224m-1.802 0h-.224m-1.797 0h-.303m-1.797 0h-.224m-1.802 0h-.225m-1.802 0h-.224m-1.802 0h-.225m-1.796 0h-.225m-1.802 0h-.224m-1.802 0h-.225m-1.797 0h-.302m-1.802 0h-.225m-1.797 0h-.224m-1.802 0h-.225m-1.801 0h-.225m-1.797 0h-.224m-1.802 0h-.225m-1.802 0h-.224m-1.801 0h-.299m-1.801 0h-.225m-1.797 0h-.225m-1.801 0h-.225m-1.802 0h-.224m-1.802 0h-.225m-1.797 0h-.224m-1.802 0h-.298m-1.728 0h-.298m-1.802 0h-.225m-1.796 0h-.23m-1.797 0h-.224m-1.803 0h-.224m-1.802 0h-.224m-1.797 0h-.225m-1.801 0h-.303m-1.797 0h-.225m-1.802 0h-.224m-1.802 0h-.224m-1.797 0h-.225m-1.802 0h-.224m-1.802 0h-.225m-1.796 0h-.23m-1.797 0h-.303m-1.796 0h-.225m-1.802 0h-.224m-1.802 0h-.225m-1.797 0h-.23m-1.796 0h-.225m-1.801 0h-.225m-1.801 0h-.225m-1.797 0h-.303m-1.797 0h-.224m-1.802 0h-.225m-1.802 0h-.224m-1.801 0h-.226m-1.796 0h-.225m-1.802 0h-.224m-1.802 0H8.63m-1.797 0h-.302m-1.802 0h-.225m-1.797 0h-.224m-1.802 0H.456" fill="none" stroke="#00007f" strokeLinecap="round" strokeWidth=".9" />
  <path d="M135.383 99.382h9m-.001 0h9m-.001 0v17.998m0 0h17.998m9.004 0h-9.004M27.458 54.382V27.38m0 0h9m-9 27.002l-4.502 4.497m0 .001v8.998m0 0l-4.502 4.502m89.927 36.001h17.998m.001 0h18.002m-18.002 17.925v-8.926m0 0h-18m36.002 0H126.38m-62.926 53.926v-8.999m143.926-53.926V90.378M54.455 162.307h9M207.38 90.378h-8.999m0 80.928v-18.003m8.999 0h-8.999m0-44.922h9m-99-27.001h9m-.001 0v-45m0 0v-9m18.003 0H117.38m18.003 0h9m-.001 0V9.455M54.455 126.306V81.379m35.928.001h17.998m53.999 27.001v-81m36.001 81h-8.999M108.381 36.38h9m53.999 72.001h18.002m-27.002 0h9M45.456 162.307h9m143.925-98.926H171.38m0 8.999h27.001m0 9H171.38m-35.997 0h9m26.997 80.927h-63m17.404 0H108.38m.001-18.003H45.456m0 0v-17.998m0 0V72.38m0 0H27.458m143.922 89.927v-9.004m-80.997 9.004h9m-9 8.999v-8.999M153.381 36.38v-18m0 .001V9.455m0 26.925h-8.999m0 0h-8.999m0-17.999h-36m71.997 125.923h9.003m0 27.002h-72.002M171.38 54.382h27.001m-17.998-9.004h17.998m-27.001 0h9.003m8.999-26.997V36.38m8.999 0h-8.999m0 0H171.38m-98.922 98.925h17.925m-17.925 0V72.38m0 0H54.455m0 0v-8.999M27.458 117.38h9m-.001 0v-36m0-17.999h-8.999m0 45H9.455m0 0v-45m0 0h9m9.003 89.922h98.921m9.004-26.997v8.999m0 0h-9.004m.001 0v17.998m36-143.848v8.926m0 0h9m0-8.926h9.003m0 0V27.38m-72.002 107.925h9m-.001 0v9m54-17.999h27.001m0 8.999H171.38m-35.997 8.999h9" fill="none" stroke="#00007f" strokeLinecap="round" strokeWidth="4.5" />
  <path d="m99.382 45.378v45m8.999-35.996h27.002m45 45v17.998m-107.92-98.999v45m134.92 89.922v-44.922m-152.92 17.925v36.001m0-80.927h35.928m71.997-54h-17.998m-36.001 116.92v18.003m27.002-143.93h17.998m-116.92 62.999v-18" fill="none" stroke="#7f0000" strokeLinecap="round" strokeWidth="4.5" />
  <path d="M65.705 51.228l-.15-.674-.299-.6-.527-.523-.596-.303-.679-.146m2.251 8.55v-6.304m-2.251 8.55l.68-.074.595-.376.527-.449.298-.674.151-.673m-4.497 0l.074.673.297.674.528.45.6.375.747.074m-2.246-8.55v6.304" fill="none" stroke="#7d7d7d" strokeLinecap="round" strokeWidth=".45" />
  <path d="M63.454 48.982l-.747.146-.6.303-.528.522-.297.601-.074.674" fill="none" stroke="#7d7d7d" strokeLinecap="round" strokeWidth=".45" />
  <path d="M61.658 53.03h3.598v.898h-3.598zm0 1.801h3.598v.899h-3.598zm0 0" fill="#7d7d7d" stroke="#7d7d7d" strokeLinecap="round" strokeWidth=".15" />
  <path d="M65.705 51.228l-.15-.674-.299-.6-.527-.523-.596-.303-.679-.146m-6.748 2.246l-.151-.674-.298-.6-.527-.523-.6-.303-.675-.146m2.251 8.55v-6.304m-2.251 8.55l.674-.074.6-.376.528-.449.298-.674.151-.673m-4.502 0l.079.673.297.674.528.45.6.375.747.074m-2.251-8.55v6.304m2.251-8.55l-.747.146-.6.303-.528.522-.297.601-.079.674" fill="none" stroke="#7d7d7d" strokeLinecap="round" strokeWidth=".45" />
  <path d="M52.659 53.03h3.598v.898H52.66zm0 1.801h3.598v.899H52.66zm0 0" fill="#7d7d7d" stroke="#7d7d7d" strokeLinecap="round" strokeWidth=".15" />
  <path d="M56.706 51.228l-.151-.674-.298-.6-.527-.523-.6-.303-.675-.146" fill="none" stroke="#7d7d7d" strokeLinecap="round" strokeWidth=".45" />
  <path d="M90.159 40.881h-.68m.001-.678v.678m0 0h-.674m.674 0v.674m3.603 3.823a7.203 7.203 0 01-14.404 0 7.202 7.202 0 017.202-7.197 7.202 7.202 0 017.202 7.197zm0 0" fill="none" stroke="#7d7d7d" strokeLinecap="round" strokeWidth=".6" />
  <path d="M84.08 42.532h.903v5.698h-.904zm0 0" fill="#7d7d7d" stroke="#7d7d7d" strokeLinecap="round" strokeWidth=".15" />
  <path d="M90.159 58.88h-.68m.001-.675v.674m0 .001h-.674m.674 0v.673m3.603 3.828a7.202 7.202 0 01-7.202 7.197 7.202 7.202 0 01-7.202-7.197 7.203 7.203 0 0114.404 0zm0 0" fill="none" stroke="#7d7d7d" strokeLinecap="round" strokeWidth=".6" />
  <path d="M84.08 60.53h.903v5.698h-.904zm0 0" fill="#7d7d7d" stroke="#7d7d7d" strokeLinecap="round" strokeWidth=".15" />
  <path d="M98.933 114.23l-.752.152-.674.298-.527.523-.45.678-.224.674-.073.825m12.597-3.15h-9.897m12.597 3.15v-.825l-.224-.674-.45-.678-.6-.523-.674-.298-.752-.151m-6 1.347v3.604m6 1.348l.752-.225.674-.298.6-.527.45-.674.225-.674v-.752m-12.598 3.15h9.897" fill="none" stroke="#7d7d7d" strokeLinecap="round" strokeWidth=".375" />
  <path d="M96.233 117.38l.073.752.225.674.449.674.527.527.674.298.752.225" fill="none" stroke="#7d7d7d" strokeLinecap="round" strokeWidth=".375" />
  <path d="M102.532 115.354h.898v4.053h-.898zm1.801 0h.899v4.053h-.899zm0 0" fill="#7d7d7d" stroke="#7d7d7d" strokeLinecap="round" strokeWidth=".15" />
  <path d="M98.933 105.232l-.752.146-.674.303-.527.522-.45.68-.224.673-.073.825m12.597-3.149h-9.897m12.597 3.149v-.825l-.224-.674-.45-.679-.6-.522-.674-.303-.752-.146m-6 1.348v3.598m6 1.352l.752-.15.674-.377.6-.522.45-.6.225-.753v-.747m-12.598 3.149h9.897" fill="none" stroke="#7d7d7d" strokeLinecap="round" strokeWidth=".375" />
  <path d="M96.233 108.381l.073.747.225.752.449.6.527.523.674.376.752.152" fill="none" stroke="#7d7d7d" strokeLinecap="round" strokeWidth=".375" />
  <path d="M102.532 106.355h.898v4.048h-.898zm1.801 0h.899v4.048h-.899zm0 0" fill="#7d7d7d" stroke="#7d7d7d" strokeLinecap="round" strokeWidth=".15" />
  <path d="M199.729 157.805h-.899m0-.898v.898m0 0h-.898m.898 0v.898m4.053-5.4c0 4.97-4.033 9.004-9.004 9.004-4.97 0-8.999-4.033-8.999-9.004a8.998 8.998 0 019-8.999c4.97 0 9.003 4.028 9.003 9zm-15.752-48.071h4.502m1.797 1.797l-.073-.6-.303-.45-.371-.45-.527-.224-.523-.073m-4.502 0l-.6.073-.45.225-.449.449-.224.45-.079.6m8.101 11.699v-11.7m-6.299 13.502h4.502m-6.303-1.802v-11.7m6.303 13.502l.523-.152.527-.224.371-.376.303-.523.073-.527m-8.1 0l.078.527.224.523.45.376.449.224.6.152" fill="none" stroke="#7d7d7d" strokeLinecap="round" strokeWidth=".6" />
  <path d="m192.08 111.76h-5.4m5.4 2.251h-5.4" fill="none" stroke="#7d7d7d" strokeLinecap="round" strokeWidth="1.125" />
  <path d="M79.88 168.606h-4.95m0 5.4h5.175m0 0l1.128-.224m0 0l.898-.68m0 .001l.225-.899m-9.673-1.572v1.572m9.673 0v-1.572m-3.599.674h-1.352m-2.475 1.348v-2.7m0-.001l2.475 1.353m0 0H73.58m3.825 0l-2.476 1.348m2.476 0v-1.348m0 0v-1.353" fill="none" stroke="#7d7d7d" strokeLinecap="round" strokeWidth=".45" />
  <path d="M79.656 168.83h1.352v4.952h-1.352zm-13.951 2.1h7.203v.752h-7.203zm16.578 0h5.85v.752h-5.85zm0 0" fill="#7d7d7d" stroke="#7d7d7d" strokeLinecap="round" strokeWidth=".15" />
  <path d="M74.93 168.606l-1.124.224m0 0l-.898.674m0 0l-.225.899m7.422-1.797l1.128.224m0 0l.898.674m0 0l.225.899m-7.426 3.603l-1.124-.224m0 0l-.898-.68m0 .001l-.225-.899M41.633 25.803l-.6.151-.528.376-.376.45-.073.6m0 0v.523l.225.527.376.376.449.298.527.078m2.022-3.379l-.6.151-.523.376-.376.45-.074.6" fill="none" stroke="#7d7d7d" strokeLinecap="round" strokeWidth=".45" />
  <path d="M42.082 27.38l.074.6.224.523.45.376.454.225.595.078m2.027-3.379l-.523.078-.527.225-.376.298-.298.527-.078.45" fill="none" stroke="#7d7d7d" strokeLinecap="round" strokeWidth=".45" />
  <path d="M44.104 27.38l.078.6.225.523.449.376.449.225.6.078m2.027-3.379l-.6.151-.528.376-.371.45-.078.6" fill="none" stroke="#7d7d7d" strokeLinecap="round" strokeWidth=".45" />
  <path d="M46.355 27.38v.523l.224.527.376.376.45.298.527.078m0 0V27.38m1.572 0l-.146-.6-.303-.45-.522-.376-.601-.15m1.572 1.576h4.951m-17.998 0h3.599m82.275 80.552v18.823m8.101-18.374v18.823" fill="none" stroke="#7d7d7d" strokeLinecap="round" strokeWidth=".45" />
  <path d="M120.53 107.932v18.823m11.699.449v-18.823m-11.699 18.374l.151 1.348.376 1.28.6 1.122.899.977 1.123.674 1.201.522 1.275.151 1.352-.073 1.201-.376 1.123-.674.977-.903.747-1.05.527-1.196.147-1.353" fill="none" stroke="#7d7d7d" strokeLinecap="round" strokeWidth=".9" />
  <path d="M122.331 126.755l.074.977.302.971.523.826.679.674.82.527.976.298h.977l.977-.147.82-.376.825-.6.6-.826.377-.898.151-.977m0-18.823l-.078-1.05-.371-1.05-.6-.825-.753-.752-.971-.449-1.055-.151-1.05.078-.972.298-.903.6-.674.826-.449.976-.225 1.05" fill="none" stroke="#7d7d7d" strokeLinecap="round" strokeWidth=".45" />
  <path d="M132.229 108.381l-.073-1.274-.298-1.128-.6-1.123-.753-.903-.971-.748-1.128-.6-1.202-.298h-1.196l-1.201.225-1.128.449-1.05.674-.825.825-.674 1.05-.376 1.2-.224 1.202" fill="none" stroke="#7d7d7d" strokeLinecap="round" strokeWidth=".9" />
  <path d="m129.53 116.48v1.797m0 0h-6.304m0 0v-1.797m0 0h6.304m0 3.149h-3.155m1e-3 0h-3.15m6.304-4.501h-3.155m1e-3 0h-3.15m3.15 4.501v2.251m0-6.752v-2.252" fill="none" stroke="#7d7d7d" strokeLinecap="round" strokeWidth=".45" />
  <path d="M125.48 47.63l.377-.074.298-.151.151-.298.073-.376m.001-2.701l-.074-.302-.151-.298-.298-.225-.376-.073m-7.197 0l-.303.073-.298.225-.225.298-.078.303m0 2.699l.078.377.225.298.298.151.303.073" fill="none" stroke="#7d7d7d" strokeLinecap="round" strokeWidth=".6" />
  <path d="M125.48 47.63l.377-.074.298-.151.151-.298.073-.376m.001-2.701l-.074-.302-.151-.298-.298-.225-.376-.073m-7.197 0l-.303.073-.298.225-.225.298-.078.303m0 2.699l.078.377.225.298.298.151.303.073m8.096-3.599v2.7m-8.096.9h7.197m-7.197-4.498h7.197m-8.101.898v2.7" fill="none" stroke="#7d7d7d" strokeLinecap="round" strokeWidth=".6" />
  <path d="M116.033 44.93h1.347v.898h-1.347zm10.347 0h1.352v.898h-1.353zm0 0" fill="#7d7d7d" stroke="#7d7d7d" strokeLinecap="round" strokeWidth=".15" />
  <path d="M125.48 38.63l.377-.073.298-.151.151-.303.073-.371m.001-2.7l-.074-.303-.151-.298-.298-.225-.376-.078m-7.197 0l-.303.078-.298.225-.225.298-.078.303m0 2.7l.078.37.225.304.298.151.303.073" fill="none" stroke="#7d7d7d" strokeLinecap="round" strokeWidth=".6" />
  <path d="M125.48 38.63l.377-.073.298-.151.151-.303.073-.371m.001-2.7l-.074-.303-.151-.298-.298-.225-.376-.078m-7.197 0l-.303.078-.298.225-.225.298-.078.303m0 2.7l.078.37.225.304.298.151.303.073m8.096-3.598v2.7m-8.096.898h7.197m-7.197-4.502h7.197m-8.101.904v2.7" fill="none" stroke="#7d7d7d" strokeLinecap="round" strokeWidth=".6" />
  <path d="M116.033 35.93h1.347v.898h-1.347zm10.347 0h1.352v.898h-1.353zm0 0" fill="#7d7d7d" stroke="#7d7d7d" strokeLinecap="round" strokeWidth=".15" />
  <path d="M118.284 88.132l-.303.073-.298.152-.225.298-.078.376m0 2.699l.078.299.225.302.298.225.303.073m7.196.001l.377-.074.298-.225.151-.302.073-.298m.001-2.701l-.074-.375-.151-.298-.298-.152-.376-.073" fill="none" stroke="#7d7d7d" strokeLinecap="round" strokeWidth=".6" />
  <path d="M118.284 88.132l-.303.073-.298.152-.225.298-.078.376m0 2.699l.078.299.225.302.298.225.303.073m7.196.001l.377-.074.298-.225.151-.302.073-.298m.001-2.701l-.074-.375-.151-.298-.298-.152-.376-.073m-8.101 3.598v-2.7m8.1-.898h-7.196m7.196 4.498h-7.196m8.096-.9v-2.7" fill="none" stroke="#7d7d7d" strokeLinecap="round" strokeWidth=".6" />
  <path d="M126.38 89.93h1.352v.898h-1.353zm-10.347 0h1.347v.898h-1.347zm0 0" fill="#7d7d7d" stroke="#7d7d7d" strokeLinecap="round" strokeWidth=".15" />
  <path d="M125.48 29.631l.377-.078.298-.146.151-.303.073-.376m.001-2.7l-.074-.298-.151-.298-.298-.23-.376-.073m-7.197.001l-.303.073-.298.229-.225.298-.078.298m0 2.7l.078.376.225.303.298.146.303.078" fill="none" stroke="#7d7d7d" strokeLinecap="round" strokeWidth=".6" />
  <path d="M125.48 29.631l.377-.078.298-.146.151-.303.073-.376m.001-2.7l-.074-.298-.151-.298-.298-.23-.376-.073m-7.197.001l-.303.073-.298.229-.225.298-.078.298m0 2.7l.078.376.225.303.298.146.303.078m8.096-3.603v2.7m-8.096.903h7.197m-7.197-4.501h7.197m-8.101.898v2.7" fill="none" stroke="#7d7d7d" strokeLinecap="round" strokeWidth=".6" />
  <path d="M116.033 26.931h1.347v.898h-1.347zm10.347 0h1.352v.898h-1.353zm0 0" fill="#7d7d7d" stroke="#7d7d7d" strokeLinecap="round" strokeWidth=".15" />
  <path d="M125.48 65.632l.377-.078.298-.151.151-.298.073-.376m.001-2.7l-.074-.298-.151-.303-.298-.225-.376-.073m-7.197 0l-.303.073-.298.225-.225.303-.078.298m0 2.7l.078.376.225.298.298.151.303.078" fill="none" stroke="#7d7d7d" strokeLinecap="round" strokeWidth=".6" />
  <path d="M125.48 65.632l.377-.078.298-.151.151-.298.073-.376m.001-2.7l-.074-.298-.151-.303-.298-.225-.376-.073m-7.197 0l-.303.073-.298.225-.225.303-.078.298m0 2.7l.078.376.225.298.298.151.303.078m8.096-3.603v2.7m-8.096.903h7.197m-7.197-4.502h7.197m-8.101.899v2.7" fill="none" stroke="#7d7d7d" strokeLinecap="round" strokeWidth=".6" />
  <path d="M116.033 62.932h1.347v.898h-1.347zm10.347 0h1.352v.898h-1.353zm0 0" fill="#7d7d7d" stroke="#7d7d7d" strokeLinecap="round" strokeWidth=".15" />
  <path d="M118.284 79.128l-.303.078-.298.147-.225.303-.078.376m0 2.7l.078.298.225.298.298.229.303.073m7.196 0l.377-.073.298-.23.151-.297.073-.298m.001-2.7l-.074-.376-.151-.303-.298-.147-.376-.078" fill="none" stroke="#7d7d7d" strokeLinecap="round" strokeWidth=".6" />
  <path d="M118.284 79.128l-.303.078-.298.147-.225.303-.078.376m0 2.7l.078.298.225.298.298.229.303.073m7.196 0l.377-.073.298-.23.151-.297.073-.298m.001-2.7l-.074-.376-.151-.303-.298-.147-.376-.078m-8.101 3.604v-2.7m8.1-.904h-7.196m7.196 4.502h-7.196m8.096-.898v-2.7" fill="none" stroke="#7d7d7d" strokeLinecap="round" strokeWidth=".6" />
  <path d="M126.38 80.93h1.352v.898h-1.353zm-10.347 0h1.347v.898h-1.347zm0 0" fill="#7d7d7d" stroke="#7d7d7d" strokeLinecap="round" strokeWidth=".15" />
  <path d="m59.783 165.91v-70.127m0 0h34.35m0 0v70.127m0 0h-34.35" fill="none" stroke="#7d7d7d" strokeLinecap="round" strokeWidth=".75" />
  <path d="M93.533 163.88v14.848m9.897 1.128l1.426-.825 1.274-1.05 1.05-1.275.825-1.425.528-1.5.297-1.65v-1.65l-.297-1.577-.528-1.573-.825-1.425-1.05-1.275-1.274-1.05-1.426-.825m-4.048 17.998v-18.901m4.048.903l-1.274-.527-1.348-.298-1.426-.078m0 0l-1.352.151-1.348.303-1.274.45m0-.001l-.977.523-.898.6m1.875 15.977l1.274.449 1.348.298 1.352.151m0 0l1.426-.073 1.348-.303 1.274-.522m-9.897-1.128l.971.679.977.522" fill="none" stroke="#7d7d7d" strokeLinecap="round" strokeWidth=".45" />
  <path d="M178.132 161.404l.073.376.152.298.298.15.376.079m2.699 0l.304-.078.297-.151.225-.298.073-.376m.001-7.198l-.074-.302-.225-.298-.297-.225-.303-.078m-2.701 0l-.375.078-.298.225-.152.298-.073.302" fill="none" stroke="#7d7d7d" strokeLinecap="round" strokeWidth=".6" />
  <path d="M178.132 161.404l.073.376.152.298.298.15.376.079m2.699 0l.304-.078.297-.151.225-.298.073-.376m.001-7.198l-.074-.302-.225-.298-.297-.225-.303-.078m-2.701 0l-.375.078-.298.225-.152.298-.073.302m3.598 8.101h-2.7m-.898-8.101v7.198m4.498-7.198v7.198m-.9-8.101h-2.7" fill="none" stroke="#7d7d7d" strokeLinecap="round" strokeWidth=".6" />
  <path d="M179.93 151.955h.902v1.348h-.903zm0 10.352h.902v1.348h-.903zm0 0" fill="#7d7d7d" stroke="#7d7d7d" strokeLinecap="round" strokeWidth=".15" />
  <path d="M13.957 79.578h17.998m-17.998 0V47.18m17.998 0H13.957m4.497 29.702h9.004m-9.004 0v-13.5m0-.001V61.58m0-1.802V57.98m9.004 1.798h-9.004m9.004 0v1.801m0-3.599h-9.004m0 0v-1.8m0 0v-1.798m0 0V49.88m9.004 6.3h-9.004m0 5.4h9.004m-9.004 0v-1.802m9.004-9.898h-9.004m9.004 0v4.502m0 0v1.797m0 .001v1.8m0 1.798V57.98m0 3.6v1.801m0 0v13.501m4.497 2.696V47.18M18.454 63.381h9.004m0-8.999h-9.004" fill="none" stroke="#7d7d7d" strokeLinecap="round" strokeWidth=".6" />
  <path d="M37.58 99.382H17.331m0 0v26.924m0 0h20.25m-.001 0v-1.05m0 0h3.374m0 0v-24.75m0-.001H37.58m0 0v-1.123m0 44.922H17.331m0 0v27.002m0 0h20.25m-.001 0v-1.128m0 0h3.374m0 0v-24.746m0 0H37.58m0 0v-1.128" fill="none" stroke="#7d7d7d" strokeLinecap="round" strokeWidth=".9" />
  <path d="M47.707 140.705l-.078-.302-.224-.298-.298-.225-.303-.073m-2.7 0l-.371.073-.303.225-.146.298-.079.302m0 7.198l.079.376.146.302.303.147.37.078m2.701 0l.303-.078.298-.147.224-.302.078-.376" fill="none" stroke="#7d7d7d" strokeLinecap="round" strokeWidth=".6" />
  <path d="M47.707 140.705l-.078-.302-.224-.298-.298-.225-.303-.073m-2.7 0l-.371.073-.303.225-.146.298-.079.302m0 7.198l.079.376.146.302.303.147.37.078m2.701 0l.303-.078.298-.147.224-.302.078-.376m-3.603-8.096h2.7m.903 8.096v-7.198m-4.502 7.198v-7.198m.899 8.101h2.7" fill="none" stroke="#7d7d7d" strokeLinecap="round" strokeWidth=".6" />
  <path d="M45.007 148.806h.899v1.348h-.899zm0-10.352h.899v1.353h-.899zm0 0" fill="#7d7d7d" stroke="#7d7d7d" strokeLinecap="round" strokeWidth=".15" />
  <path d="M184.88 17.107l-.073-.376-.225-.303-.302-.225h-.298m-7.202 0h-.371l-.303.225-.152.303-.073.376m8.101 3.525h.298l.302-.23.225-.297.073-.376m-8.999 0l.073.376.152.298.303.23h.37m8.101-3.526v2.622m-8.1.903h7.202m-7.202-4.429h7.202m-8.101.904v2.622" fill="none" stroke="#7d7d7d" strokeLinecap="round" strokeWidth=".45" />
  <path d="M174.534 17.932h1.347v.898h-1.347zm10.346 0h1.353v.898h-1.353zm0 0" fill="#7d7d7d" stroke="#7d7d7d" strokeLinecap="round" strokeWidth=".15" />
  <path d="M181.73 40.881l.304-.078.297-.146.225-.303.073-.376m.001-7.198l-.074-.302-.225-.298-.297-.225-.303-.073m-3.599 8.096l.073.376.152.303.298.146.376.078m-.001-8.999l-.375.073-.298.225-.152.298-.073.303m3.598 8.1h-2.7m-.898-8.101v7.198m4.498-7.198v7.198m-.9-8.096h-2.7" fill="none" stroke="#7d7d7d" strokeLinecap="round" strokeWidth=".45" />
  <path d="M179.93 30.53h.902v1.352h-.903zm0 10.351h.902v1.348h-.903zm0 0" fill="#7d7d7d" stroke="#7d7d7d" strokeLinecap="round" strokeWidth=".15" />
  <path d="M193.88 103.88h9.003m0 0V31.881m0 .001h-9.004m.001 0v71.997m-71.998 41.778l.073.37.225.303.303.152.298.073m7.202 0l.37-.073.304-.152.151-.302.073-.371m-8.101-3.604l-.297.078-.303.225-.225.298-.073.302m8.999 0l-.073-.302-.151-.298-.303-.225-.371-.078m-8.101 3.604v-2.7m8.101-.904h-7.202m7.202 4.502h-7.202m8.1-.898v-2.7" fill="none" stroke="#7d7d7d" strokeLinecap="round" strokeWidth=".45" />
  <path d="m130.88 143.86h1.348v0.898h-1.348zm-10.351 0h1.352v0.898h-1.352zm0 0" fill="#7d7d7d" stroke="#7d7d7d" strokeLinecap="round" strokeWidth=".15" />
  <path d="M105.305 126.453l-.825.678-.6.825-.45.899-.298.976-.151.972m-.001 0l.152 1.275.45 1.2.673 1.05.904.826m8.623-4.351l-.152-1.196-.376-1.128-.674-1.05-.825-.825m0 8.476l.825-.825.674-1.05.376-1.127.152-1.275" fill="none" stroke="#7d7d7d" strokeLinecap="round" strokeWidth=".6" />
  <path d="M103.806 125.33l-.898.898-.752.976-.523 1.202-.303 1.2-.15 1.197m0 0l.15 1.353.376 1.2.523 1.197.752 1.05.976.903 1.05.674m10.576-6.377l-.078-1.196-.298-1.201-.527-1.128-.747-1.05-.903-.899m-1.05 11.778l1.05-.752.903-.899.674-.976.522-1.201.376-1.201.078-1.275" fill="none" stroke="#7d7d7d" strokeLinecap="round" strokeWidth=".9" />
  <path d="m200.63 175.8h-4.502m0 0-2.25-2.246m0 0v-4.502m0 0 2.25-2.25m6.753 6.752v-4.502m-2.251 6.748 2.251-2.246m0-4.502-2.25-2.25m-4.503-1e-3h4.502m-6.752 6.753-2.247 2.246m0 0h-4.502m0 0-2.25-2.246m-1e-3 0v-4.502m0 0 2.251-2.25m0-1e-3h4.502m0 0 2.246 2.251" fill="none" stroke="#7d7d7d" strokeLinecap="round" strokeWidth=".6" />
  <path d="M102.756 24.006v-2.25m0-.001h2.251m0 0V15.08m0 0h-2.25m-.001 0v-2.25m0 0H78.083m0 0v2.25m0 0h-2.25m-.001 0v6.675m0 0h2.251m0 0v2.251m0 0h24.673m-2.251-7.276v3.375m0 0h-6.972m0 0V16.73m0 0v-1.425m0 0h-6.304m0 0v1.426m0 3.374h-6.9m.001 0V16.73m0 0h6.899m0 0v3.375m0 0v1.426m0-.001h6.304m0 0v-1.425m0-3.375h6.972m4.502 5.025v2.251m0 0h-2.25m-24.674 0h-2.25m-.001 0v-2.25m0-6.676v-2.25m0 0h2.251m26.924 2.25v-2.25m0 0h-2.25" fill="none" stroke="#7d7d7d" strokeLinecap="round" strokeWidth=".45" />
  <path d="M155.632 31.882h-6.753m6.753 0l.073.747.376.6.45.528.673.298.68.073.673-.073.674-.298.449-.527.376-.6.073-.748M148.88 157.805h18.002m0-125.923h-6.753m6.753 0v125.923M148.88 32.331v125.474" fill="none" stroke="#7d7d7d" strokeLinecap="round" strokeWidth=".6" />
  <path d="m63.454 63.381v-7.578m0-10.425v7.652m-8.999 10.351v-7.578m0-10.425v7.652" fill="none" stroke="#7f7f00" strokeLinecap="round" strokeWidth=".3" />
  <path d="m90.383 45.378h-2.402m-1e-3 0v-3.15m0 1e-3h-1.347m0 0v6.299m0 0h1.348m-1e-3 0v-3.15m-6.523 0h2.398m0 0v3.15m0 0h1.352m0 0v-6.3m0 1e-3h-1.352m0 0v3.15m6.528 18.002h-2.402m-1e-3 0v-3.15m0 1e-3h-1.347m0 0v6.299m0-1e-3h1.348m-1e-3 0v-3.149m-6.523 0h2.398m0 0v3.15m0-1e-3h1.352m0 0v-6.298m0 0h-1.352m0 0v3.15" fill="none" stroke="#7f7f00" strokeLinecap="round" strokeWidth=".6" />
  <path d="m108.38 117.38h-3.076m-5.923 0h3.15m5.849-8.999h-3.076m-5.923 0h3.15" fill="none" stroke="#7f7f00" strokeLinecap="round" strokeWidth=".3" />
  <path d="m199.73 153.3h-3.15m1e-3 0v-4.497m0 0h-1.797m0 0v8.999m0 0h1.796m1e-3 0v-4.502m-4.947 0h-3.603" fill="none" stroke="#7f7f00" strokeLinecap="round" strokeWidth=".6" />
  <path d="m191.18 148.81h1.8v8.999h-1.8zm0 0" fill="#7f7f00" stroke="#7f7f00" strokeLinecap="round" strokeWidth=".15" />
  <path d="m189.38 117.38v-3.374m0-5.625v3.374" fill="none" stroke="#7f7f00" strokeLinecap="round" strokeWidth=".6" />
  <path d="m63.454 171.31h3.15m23.779 0h-3.153" fill="none" stroke="#7f7f00" strokeLinecap="round" strokeWidth=".45" />
  <path d="m108.38 45.378h7.652m19.35 0h-7.651m-19.351-8.998h7.652m19.35 0h-7.651m7.651 53.998h-7.651m-19.351 0h7.652m-7.652-62.998h7.652m19.35 0h-7.651m-19.351 36.001h7.652m19.35 0h-7.651m7.651 17.999h-7.651m-19.351 0h7.652m64.35 62.924v7.651m0 19.351v-7.651" fill="none" stroke="#7f7f00" strokeLinecap="round" strokeWidth=".9" />
  <path d="M19.582 124.128H35.33m-15.748-22.5H35.33m-15.748 22.5v-22.5m15.748 22.5v-1.123m0 0v-20.249m0 0v-1.128m3.378 1.128v20.25m-3.378-.001h3.378m-3.378-20.249h3.378" fill="none" stroke="#7f7f00" strokeLinecap="round" strokeWidth=".225" />
  <path d="m26.633 107.56h1.65v1.65h-1.65zm0 8.999h1.65v1.65h-1.65zm0 0" fill="#7f7f00" stroke="#7f7f00" strokeLinecap="round" strokeWidth=".15" />
  <path d="M19.582 169.055H35.33m-15.748-22.5H35.33m-15.748 22.5v-22.5m15.748 22.5v-1.123m0 0v-20.254m0 0v-1.123m3.378 1.123v20.254m-3.378 0h3.378m-3.378-20.254h3.378" fill="none" stroke="#7f7f00" strokeLinecap="round" strokeWidth=".225" />
  <path d="m26.633 152.48h1.65v1.65h-1.65zm0 9.004h1.65v1.65h-1.65zm0 0" fill="#7f7f00" stroke="#7f7f00" strokeLinecap="round" strokeWidth=".15" />
  <path d="m45.456 162.31v-12.153m0-23.848v12.148" fill="none" stroke="#7f7f00" strokeLinecap="round" strokeWidth=".9" />
  <path d="M168.454 3.68V1.652m0 .001h1.05m0 0l.303.376m0 0v.674m0 0l-.303.302m0 0h-1.05m3.301-.976l-.298-.376m0 0h-.673m0 0l-.303.376m-.001 0v1.274m0 0l.304.376m0 .001h.673m0 0l.298-.377m0 0v-.6m0 0h-.6m1.275-1.05v2.026m0 .001h1.049m0 0l.303-.377m0 0V2.03m0-.001l-.303-.376m0 0h-1.05M159.455 3.68V1.652m0 .001h1.05m0 0l.303.376m0 0v.674m0 0l-.303.302m0 0h-1.05m3.375-.976l-.372-.376m0 0h-.678m0 0l-.298.376m0 0v1.274m0 0l.298.376m0 .001h.678m0 0l.371-.377m.001 0v-.6m0 0h-.674m2.627-.674l-.303-.376m0 0h-.674m0 0l-.376.376m0 0v1.274m0 0l.376.376m0 .001h.674m0 0l.303-.377m-32.251-1.65v1.352m0 0l.6.674m0 .001l.674-.675m0 0V1.653m2.026.376l-.376-.376m0 0h-.6m0 0l-.376.376m0 0v.302m0 0l.376.372m0 0h.6m0 0l.376.302m0 0v.298m0 0l-.376.376m0 .001h-.6m0 0l-.376-.377m3.3-1.274l-.297-.376m0 0h-.679m0 0l-.298.376m0 0v.302m0 0l.298.372m0 0h.679m0 0l.298.302m-.001 0v.298m0 0l-.297.376m0 .001h-.679m0 0l-.298-.377m5.024-1.65v1.352m0 0l.601.674m0 .001l.674-.675m0 0V1.653m.674 0v2.026m0 .001h.976m0 0l.376-.377m0 0V2.03m0-.001l-.376-.376m0 0h-.976m2.026 0v2.026m0 .001h.977m0 0l.298-.377m0 0V2.03m0-.001l-.298-.376m0 0h-.977m4.951 0v1.352m0 0l.674.674m0 .001l.674-.675m0 0V1.653m.679 2.027V1.652m0 .001h.971m0 0l.376.376m0 0v.674m0 0l-.376.302m0 0h-.971m1.948.675V1.652m0 .001h1.05m-.001 0l.304.376m0 0v.674m0 0l-.303.302m-.001 0h-1.049" fill="none" stroke="#7f7f00" strokeLinecap="round" strokeWidth=".225" />
  <path d="m171.38 18.381h3.154m14.848 0h-3.15m-5.849 8.999v3.15m0 14.848v-3.15m-45 102.08h-3.154m-14.849 0h3.15m-7.647-19.048h-9.004" fill="none" stroke="#7f7f00" strokeLinecap="round" strokeWidth=".9" />
  <path d="M104.93 135.007l1.049.674 1.201.376 1.201.146m0 0l.977-.073.971-.224.904-.45.747-.6m-3.599-9.376l-.898.074-.977.225-.825.376-.752.6m6.904-.073l-1.05-.679-1.127-.449-1.275-.073m-2.251 5.322l.152.752.297.6.528.523.6.303.674.073m-3.598-2.251l.146.977.376.825.527.752.747.596.904.375.898.079m2.251-3.604l-.078-.674-.298-.6-.527-.523-.596-.303-.752-.146m3.599 2.246l-.073-.898-.376-.899-.601-.678-.747-.596-.825-.376-.977-.152" fill="none" stroke="#7f7f00" strokeLinecap="round" strokeWidth=".6" />
  <path d="M105.007 137.18l1.05.45 1.201.302 1.123.073m0 0l1.348-.073 1.28-.376 1.195-.6" fill="none" stroke="#7f7f00" strokeLinecap="round" strokeWidth=".9" />
  <path d="m197.48 170.4h1.797v1.801h-1.797zm-9.004 0h1.802v1.801h-1.802zm0 0" fill="#7f7f00" stroke="#7f7f00" strokeLinecap="round" strokeWidth=".15" />
  <path d="M192.605 136.58h-1.948m0 .673v-1.347m0-.674l1.948-1.28m-1.948.001l1.948 1.279m0-6.978h-1.948m0 0v-.976m0 0l.297-.371m0 0h.68m-.001 0l.298.37m0 .001v.976m0-.674l.674-.673m-1.948-.679l1.948-1.275m-1.948 0l1.948 1.275m-1.948-5.996h1.274m0 0l.674-.679m0 0l-.674-.6m0 0h-1.274m.297-2.022l-.297.298m0 0v.674m0 0l.297.376m0 0h.303m0 0l.376-.376m0 0v-.674m0 0l.298-.298m0 0h.376m0 0l.298.298m0 0v.674m0 0l-.298.376m-1.353-3.301l-.297.303m0-.001v.674m0 0l.297.303m0 0h.303m0 0l.376-.303m0 0v-.673m0-.001l.298-.302m0 0h.376m0 0l.298.303m0-.001v.674m0 0l-.298.303m-1.65-5.029h1.274m0 0l.674-.674m0 0l-.674-.6m0-.001h-1.274m0-.673h1.948m0 0v-.977m0 0l-.298-.371m0 0h-1.353m0 0l-.297.371m0 0v.977m0-2.027h1.948m0 0v-.971m0 0l-.298-.303m0 0h-1.353m0 0l-.297.303m0 0v.971" fill="none" stroke="#7f7f00" strokeLinecap="round" strokeWidth=".225" />
  <path d="m135.38 126.31h9" fill="none" stroke="#7f7f00" strokeLinecap="round" strokeWidth=".15" />
  <path d="M12.082 9.455a2.624 2.624 0 01-2.627 2.623 2.62 2.62 0 01-2.622-2.623 2.624 2.624 0 115.25 0zm0 0" fill="none" stroke="#7d7d7d" strokeLinecap="round" strokeWidth=".15" />
  <path d="M12.082 9.455a2.624 2.624 0 01-2.627 2.623 2.62 2.62 0 01-2.622-2.623 2.624 2.624 0 115.25 0zm0 0" fill="#fff" fillRule="evenodd" stroke="#000" strokeLinecap="square" strokeWidth=".075" />
  <path d="M210.007 9.455a2.624 2.624 0 01-2.627 2.623 2.62 2.62 0 01-2.622-2.623 2.624 2.624 0 115.25 0zm0 0" fill="none" stroke="#7d7d7d" strokeLinecap="round" strokeWidth=".15" />
  <path d="M210.007 9.455a2.624 2.624 0 01-2.627 2.623 2.62 2.62 0 01-2.622-2.623 2.624 2.624 0 115.25 0zm0 0" fill="#fff" fillRule="evenodd" stroke="#000" strokeLinecap="square" strokeWidth=".075" />
  <path d="m210.01 180.3a2.624 2.624 0 1 1-5.249 0 2.624 2.624 0 1 1 5.25 0zm0 0" fill="none" stroke="#7d7d7d" strokeLinecap="round" strokeWidth=".15" />
  <path d="m210.01 180.3a2.624 2.624 0 1 1-5.249 0 2.624 2.624 0 1 1 5.25 0zm0 0" fill="#fff" fillRule="evenodd" stroke="#000" strokeLinecap="square" strokeWidth=".075" />
  <path d="M12.082 180.305a2.624 2.624 0 11-5.249 0 2.624 2.624 0 115.25 0zm0 0" fill="none" stroke="#7d7d7d" strokeLinecap="round" strokeWidth=".15" />
  <path d="M12.082 180.305a2.624 2.624 0 11-5.249 0 2.624 2.624 0 115.25 0zm0 0" fill="#fff" fillRule="evenodd" stroke="#000" strokeLinecap="square" strokeWidth=".075" />
  <path d="M63.454 63.381v-3.603m0 0l3.604 3.603m0 0l-3.604 3.599m0 0l-3.598-3.599m0 0l3.598-3.603m0-14.4V41.78m0 0l3.604 3.598m0 0l-3.604 3.604m0 0l-3.598-3.604m0 0l3.598-3.598m-8.999 21.601v-3.603m0 0l3.6 3.603m-.001 0l-3.599 3.599m0 0l-3.598-3.599m0 0l3.598-3.603m0-14.4V41.78m0 0l3.6 3.598m-.001 0l-3.599 3.604m0 0l-3.598-3.604m0 0l3.598-3.598m27.002 3.598V41.78m0 0l3.526 3.598m0 0l-3.526 3.604m0 0l-3.603-3.604m0 0l3.603-3.598m8.926 3.598V41.78m0 0l3.599 3.598m0 0l-3.599 3.604m0 0l-3.603-3.604m0 0l3.603-3.598m-8.926 21.601v-3.603m0 0l3.526 3.603m0 0l-3.526 3.599m0 0l-3.603-3.599m0 0l3.603-3.603m8.926 3.603v-3.603m0 0l3.599 3.603m0 0l-3.599 3.599m0 0l-3.603-3.6m0 .001l3.603-3.603m17.998 57.602v-3.598m0 0l3.599 3.598m0 0l-3.599 3.599m0 0l-3.598-3.599m0 0l3.598-3.598m-8.999 3.598v-3.598m0 0l3.599 3.598m-.001 0l-3.598 3.599m0 0l-3.598-3.599m0 0l3.598-3.598m8.999-5.401v-3.603m0 0l3.599 3.603m0 0l-3.599 3.599m0 0l-3.598-3.599m0 0l3.598-3.603m-8.999 3.603v-3.603m0 0l3.599 3.603m-.001 0l-3.598 3.599m0 0l-3.598-3.599m0 0l3.598-3.603m90 48.525v-3.599m0 0h3.599m-.001 0v7.203m0 0h-7.196m0 0v-7.203m0 0h3.598m8.999 3.599v-3.599m0 0h3.599m0 0v7.203m0 0h-7.197m0 0v-7.203m0 0h3.598m-5.473-41.323a3.527 3.527 0 01-3.526 3.526 3.527 3.527 0 01-3.525-3.526 3.524 3.524 0 013.525-3.525 3.524 3.524 0 013.526 3.525zm-7.124 3.599l7.197-7.202m-.073 12.602a3.524 3.524 0 01-3.526 3.526 3.524 3.524 0 01-3.525-3.526 3.524 3.524 0 013.525-3.525 3.524 3.524 0 013.526 3.525zm-7.124 3.599l7.197-7.197m-99.072 57.524a3.53 3.53 0 01-3.526 3.525 3.527 3.527 0 01-3.525-3.525 3.524 3.524 0 013.525-3.525 3.527 3.527 0 013.526 3.525zm-7.129 3.599l7.202-7.202m-27.002 3.603a3.527 3.527 0 01-3.526 3.525 3.53 3.53 0 01-3.525-3.525 3.527 3.527 0 013.525-3.525 3.524 3.524 0 013.526 3.525zm-7.124 3.599l7.202-7.202M54.455 27.38v-3.598m0 0l3.6 3.598m-.001 0l-3.599 3.599m0 0l-3.598-3.599m0 0l3.598-3.598M36.457 27.38v-3.598m0 0l3.599 3.598m0 0l-3.599 3.599m0 0l-3.603-3.599m0 0l3.603-3.598m93.448 84.599a3.527 3.527 0 01-3.526 3.526 3.53 3.53 0 01-3.525-3.526 3.527 3.527 0 013.525-3.525 3.524 3.524 0 013.526 3.525zm-7.125 3.599l7.203-7.202m-.078 21.528a3.527 3.527 0 01-3.526 3.525 3.53 3.53 0 01-3.525-3.525 3.527 3.527 0 013.525-3.525 3.524 3.524 0 013.526 3.525zm-7.125 3.599l7.203-7.124m-21.602-77.403V41.78m0 0h3.599m0 0v7.202m0 0h-7.197m0 0V41.78m0 0h3.598m27.002 3.598V41.78m0 0h3.599m0 0v7.202m0 0h-7.202m0 0V41.78m0 0h3.603m-27.002-5.4v-3.6m0 0h3.599m0 0v7.198m0 0h-7.197m0 0V32.78m0 0h3.598m27.002 3.6v-3.6m0 0h3.599m0 0v7.198m0 0h-7.202m0 0V32.78m0 0h3.603m0 57.598V86.78m0 0h3.599m0 0v7.202m0 0h-7.202m0 0V86.78m0 0h3.603m-27.002 3.598V86.78m0 0h3.599m0 0v7.202m0 0h-7.197m0 0V86.78m0 0h3.598m0-59.4v-3.598m0 0h3.599m0 0v7.197m0 0h-7.197m0 0v-7.197m0 0h3.598m27.002 3.598v-3.598m0 0h3.599m0 0v7.197m0 0h-7.202m0 0v-7.197m0 0h3.603m-27.002 39.599v-3.603m0 0h3.599m0 0v7.202m0 0h-7.197m0 0v-7.202m0 0h3.598m27.002 3.603v-3.603m0 0h3.599m0 0v7.202m0 0h-7.202m0 0v-7.202m0 0h3.603m0 21.602v-3.6m0 0h3.599m0 0v7.198m0 0h-7.202m0 0V77.78m0 0h3.603m-27.002 3.6v-3.6m0 0h3.599m0 0v7.198m0 0h-7.197m0 0V77.78m0 0h3.598M86.78 165.906l7.202-7.203m0 0H86.78m0 0l7.202 7.203m0 0H86.78m0-27.002l7.202-7.198m0 0H86.78m0 0l7.202 7.198m0 0H86.78m0-17.925l7.202-7.197m0 0H86.78m0 0l7.202 7.197m0 0H86.78m0-17.999l7.202-7.201m0 0H86.78m0 0l7.202 7.202m0-.001H86.78m-26.924 0l7.202-7.201m0 0h-7.202m0 0l7.202 7.202m0-.001h-7.202m0 17.999l7.202-7.197m0 0h-7.202m0 0l7.202 7.197m0 0h-7.202m0 17.925l7.202-7.198m0 0h-7.202m0 0l7.202 7.198m0 0h-7.202m0 27.002l7.202-7.203m0 0h-7.202m0 0l7.202 7.203m0 0h-7.202m39.526-3.599v-3.604m0 0h3.599m-.001 0v7.203m0 0h-7.196m0 0v-7.203m0 0h3.598m0 21.602v-3.599m0 0h3.599m-.001 0v7.198m0 0h-7.196m0 0v-7.198m0 0h3.598m8.999-5.4v-3.603m0 0h3.599m0 0v7.202m0 0h-7.197m0 0v-7.202m0 0h3.598m72.002-23.399v-3.599m0 0h3.599m0 0v7.198m0 0h-7.202m0 0v-7.198m0 0h3.603m0 30.601v-3.603m0 0h3.599m0 0v7.202m0 0h-7.202m0 0v-7.202m0 0h3.603M21.98 54.382a3.526 3.526 0 01-7.05 0 3.527 3.527 0 013.524-3.525 3.524 3.524 0 013.526 3.525zm-7.124 3.598l7.202-7.201m-.078 12.602a3.527 3.527 0 01-3.526 3.526 3.53 3.53 0 01-3.525-3.526 3.527 3.527 0 013.525-3.525 3.524 3.524 0 013.526 3.525zm-7.124 3.599l7.202-7.202M21.98 72.38a3.524 3.524 0 01-3.526 3.526 3.527 3.527 0 01-3.525-3.526 3.527 3.527 0 013.525-3.525 3.524 3.524 0 013.526 3.525zm-7.124 3.599l7.202-7.197m8.921-14.4a3.523 3.523 0 11-7.046-.005 3.523 3.523 0 017.046.005zm-7.124 3.598l7.202-7.201m-.078 12.602a3.526 3.526 0 01-3.52 3.526 3.527 3.527 0 01-3.526-3.526 3.524 3.524 0 117.046 0zm-7.124 3.599l7.202-7.202m-.078 12.602a3.523 3.523 0 11-7.046 0 3.524 3.524 0 117.046 0zm-7.124 3.599l7.202-7.197m-.078 39.599a3.526 3.526 0 01-3.52 3.526 3.527 3.527 0 01-3.526-3.526 3.524 3.524 0 117.046 0zm-7.124 3.599l7.202-7.202m-.078 12.602a3.523 3.523 0 11-7.046 0 3.524 3.524 0 117.046 0zm-7.124 3.599l7.202-7.197m-.078 39.521a3.523 3.523 0 11-7.046 0 3.527 3.527 0 013.525-3.525 3.526 3.526 0 013.52 3.525zm-7.124 3.604l7.202-7.203m-.078 12.603a3.523 3.523 0 11-7.046-.005 3.523 3.523 0 017.046.005zm-7.124 3.599l7.202-7.203m14.399-32.397v-3.525m0-.001l3.599 3.526m0 0l-3.599 3.599m0 0l-3.598-3.599m0 0l3.598-3.525m0 39.526v-3.604m0 0l3.599 3.604m0 0l-3.599 3.599m0 0l-3.598-3.599m0 0l3.598-3.604M162.38 9.455V5.857m0 0l3.599 3.598m0 0l-3.599 3.6m0-.001l-3.598-3.599m0 0l3.598-3.598m-26.997 3.598V5.857m0 0l3.599 3.598m0 0l-3.599 3.6m0-.001l-3.603-3.599m0 0l3.603-3.598m8.999 3.598V5.857m0 0l3.599 3.598m-.001 0l-3.598 3.6m0-.001l-3.598-3.599m0 0l3.598-3.598m8.999 3.598V5.857m0 0l3.599 3.598m0 0l-3.599 3.6m0-.001l-3.598-3.599m0 0l3.598-3.598m17.999 3.598V5.857m0 0l3.603 3.598m0 0l-3.604 3.6m.001-.001l-3.6-3.599m0 0l3.6-3.598m18.002 12.524v-3.525m0 0l3.599 3.525m-.001 0l-3.598 3.599m0 0l-3.598-3.599m0 0l3.598-3.525m-18.002 3.525v-3.525m0 0l3.603 3.525m0 0l-3.604 3.599m.001 0l-3.6-3.599m0 0l3.6-3.525m9.003 30.522V41.78m0 0l3.599 3.598m0 0l-3.599 3.604m0 0l-3.603-3.604m0 0l3.603-3.598m0-14.4v-3.598m0 0l3.599 3.598m0 0l-3.599 3.599m0 0l-3.603-3.599m0 0l3.603-3.598m14.4 34.198l7.197-7.201m0 0h-7.197m0 0l7.197 7.202m0-.001h-7.197m0 9l7.197-7.202m0 0h-7.197m0 0l7.197 7.202m0 0h-7.197m0 8.999l7.197-7.197m0 0h-7.197m0 0l7.197 7.197m0 0h-7.197m0 8.999l7.197-7.197m0-.001h-7.197m0 0l7.197 7.198m0 0h-7.197m0 9.004l7.197-7.202m0 0h-7.197m0 0l7.197 7.202m0 0h-7.197m0 8.998l7.197-7.201m0 0h-7.197m0 0l7.197 7.202m0-.001h-7.197m0-53.998l7.197-7.202m0 0h-7.197m0 0l7.197 7.202m0 0h-7.197m0-9.004l7.197-7.197m0-.001h-7.197m0 0l7.197 7.198m0 0h-7.197M117.38 144.304v-3.599m0 0l3.599 3.6m0-.001l-3.599 3.599m0 0l-3.598-3.599m0 0l3.598-3.599m18.003 3.599v-3.599m0 0l3.599 3.6m0-.001l-3.599 3.599m0 0l-3.603-3.599m0 0l3.603-3.599m-23.476-5.4a3.524 3.524 0 01-3.526 3.525 3.524 3.524 0 01-3.525-3.525 3.524 3.524 0 013.525-3.525 3.524 3.524 0 013.526 3.525zm-7.124 3.599l7.197-7.198m-.073-5.4a3.527 3.527 0 01-3.526 3.525 3.527 3.527 0 01-3.525-3.525 3.524 3.524 0 013.525-3.525 3.524 3.524 0 013.526 3.525zm-7.124 3.599l7.197-7.124m89.927 48.525a3.527 3.527 0 01-3.526 3.525 3.527 3.527 0 01-3.525-3.525 3.524 3.524 0 013.525-3.525 3.524 3.524 0 013.526 3.525zm-7.124 3.599l7.197-7.202m-9.072 3.603a3.527 3.527 0 01-3.526 3.525 3.527 3.527 0 01-3.525-3.525 3.524 3.524 0 013.525-3.525 3.524 3.524 0 013.526 3.525zm-7.124 3.599l7.197-7.202m5.4-59.322v-3.603m0 0l3.599 3.603m0 0l-3.599 3.599m0 0l-3.598-3.599m0 0l3.598-3.603m0 12.602v-3.598m0 0l3.599 3.598m0 0l-3.599 3.599m0 0l-3.598-3.599m0 0l3.598-3.598m0 12.524v-3.525m0-.001l3.599 3.526m0 0l-3.599 3.599m0 0l-3.598-3.599m0 0l3.598-3.525m0 12.524v-3.599m0 0l3.599 3.599m0 0l-3.599 3.599m0 0l-3.598-3.599m0 0l3.598-3.599M81.457 18.381v-3.525m0 0h3.526m0 0v7.124m0 0h-7.13m.001 0v-7.124m0 0h3.603m17.925 3.525v-3.525m0 0h3.599m-.001 0v7.124m0 0h-7.196m0 0v-7.124m0 0h3.598m48.526 21.524a3.524 3.524 0 01-3.526 3.525 3.524 3.524 0 01-3.525-3.526 3.524 3.524 0 013.525-3.525 3.524 3.524 0 013.526 3.525zm-7.124 3.598l7.197-7.197m-.073 12.597a3.524 3.524 0 01-3.526 3.526 3.524 3.524 0 01-3.525-3.526 3.527 3.527 0 013.525-3.525 3.527 3.527 0 013.526 3.525zm-7.124 3.604l7.197-7.202m-.073 12.602a3.523 3.523 0 01-3.526 3.52 3.523 3.523 0 110-7.045 3.524 3.524 0 013.526 3.525zm-7.124 3.598l7.197-7.201m-.073 12.602a3.527 3.527 0 01-3.526 3.526 3.527 3.527 0 01-3.525-3.526 3.524 3.524 0 013.525-3.525 3.524 3.524 0 013.526 3.525zm-7.124 3.599l7.197-7.202m-.073 12.602a3.524 3.524 0 01-3.526 3.526 3.524 3.524 0 01-3.525-3.526 3.524 3.524 0 013.525-3.525 3.524 3.524 0 013.526 3.525zm-7.124 3.599l7.197-7.197m-.073 12.598a3.524 3.524 0 01-3.526 3.525 3.524 3.524 0 01-3.525-3.526 3.524 3.524 0 013.525-3.525 3.524 3.524 0 013.526 3.525zm-7.124 3.598l7.197-7.197m-.073 12.597a3.524 3.524 0 01-3.526 3.526 3.524 3.524 0 01-3.525-3.526 3.527 3.527 0 013.525-3.525 3.527 3.527 0 013.526 3.525zm-7.124 3.604l7.197-7.202m-.073 12.602a3.523 3.523 0 01-3.526 3.52 3.523 3.523 0 110-7.045 3.524 3.524 0 013.526 3.525zm-7.124 3.598l7.197-7.201m-.073 12.602a3.527 3.527 0 01-3.526 3.526 3.527 3.527 0 01-3.525-3.526 3.524 3.524 0 013.525-3.525 3.524 3.524 0 013.526 3.525zm-7.124 3.599l7.197-7.202m-.073 12.602a3.524 3.524 0 01-3.526 3.526 3.524 3.524 0 01-3.525-3.526 3.524 3.524 0 013.525-3.525 3.524 3.524 0 013.526 3.525zm-7.124 3.599l7.197-7.197m-.073 12.524a3.527 3.527 0 01-3.526 3.525 3.527 3.527 0 01-3.525-3.525 3.524 3.524 0 013.525-3.525 3.524 3.524 0 013.526 3.525zm-7.124 3.599l7.197-7.124m-.073 12.524a3.524 3.524 0 01-3.526 3.525 3.524 3.524 0 01-3.525-3.525 3.524 3.524 0 013.525-3.525 3.524 3.524 0 013.526 3.525zm-7.124 3.599l7.197-7.198m-.073 12.598a3.524 3.524 0 01-3.526 3.525 3.524 3.524 0 01-3.525-3.525 3.524 3.524 0 013.525-3.525 3.524 3.524 0 013.526 3.525zm-7.124 3.599l7.197-7.198m-.073 12.598a3.524 3.524 0 01-3.526 3.525 3.524 3.524 0 01-3.525-3.525 3.527 3.527 0 013.525-3.525 3.527 3.527 0 013.526 3.525zm-7.124 3.604l7.197-7.203m26.924 3.599a3.524 3.524 0 01-3.526 3.525 3.527 3.527 0 01-3.525-3.525 3.53 3.53 0 013.525-3.525 3.527 3.527 0 013.526 3.525zm-7.125 3.604l7.203-7.203m-.078-5.4a3.524 3.524 0 01-3.526 3.525 3.527 3.527 0 01-3.525-3.525 3.527 3.527 0 013.525-3.525 3.524 3.524 0 013.526 3.525zm-7.125 3.599l7.203-7.198m-.078-5.4a3.524 3.524 0 01-3.526 3.525 3.527 3.527 0 01-3.525-3.525 3.527 3.527 0 013.525-3.525 3.524 3.524 0 013.526 3.525zm-7.125 3.599l7.203-7.198m-.078-5.4a3.527 3.527 0 01-3.526 3.525 3.53 3.53 0 01-3.525-3.525 3.527 3.527 0 013.525-3.525 3.524 3.524 0 013.526 3.525zm-7.125 3.599l7.203-7.124m-.078-5.401a3.524 3.524 0 01-3.526 3.526 3.527 3.527 0 01-3.525-3.526 3.527 3.527 0 013.525-3.525 3.524 3.524 0 013.526 3.525zm-7.125 3.599l7.203-7.197m-.078-5.401a3.527 3.527 0 01-3.526 3.526 3.53 3.53 0 01-3.525-3.526 3.527 3.527 0 013.525-3.525 3.524 3.524 0 013.526 3.525zm-7.125 3.599l7.203-7.202m-.078-5.396a3.526 3.526 0 01-7.05 0 3.527 3.527 0 013.524-3.525 3.524 3.524 0 013.526 3.525zm-7.125 3.598l7.203-7.201m-.078-5.401a3.524 3.524 0 01-3.526 3.526 3.527 3.527 0 01-3.525-3.526 3.53 3.53 0 013.525-3.525 3.527 3.527 0 013.526 3.525zm-7.125 3.604l7.203-7.202m-.078-5.4a3.524 3.524 0 01-3.526 3.525 3.527 3.527 0 01-3.525-3.526 3.527 3.527 0 013.525-3.525 3.524 3.524 0 013.526 3.525zm-7.125 3.598l7.203-7.197m-.078-5.401a3.524 3.524 0 01-3.526 3.526 3.527 3.527 0 01-3.525-3.526 3.527 3.527 0 013.525-3.525 3.524 3.524 0 013.526 3.525zm-7.125 3.599l7.203-7.197m-.078-5.401a3.527 3.527 0 01-3.526 3.526 3.53 3.53 0 01-3.525-3.526 3.527 3.527 0 013.525-3.525 3.524 3.524 0 013.526 3.525zm-7.125 3.599l7.203-7.202m-.078-5.396a3.526 3.526 0 01-7.05 0 3.527 3.527 0 013.524-3.525 3.524 3.524 0 013.526 3.525zm-7.125 3.598l7.203-7.201m-.078-5.401a3.524 3.524 0 01-3.526 3.526 3.527 3.527 0 01-3.525-3.526 3.53 3.53 0 013.525-3.525 3.527 3.527 0 013.526 3.525zm-7.125 3.604l7.203-7.202m-.078-5.4a3.524 3.524 0 01-3.526 3.525 3.527 3.527 0 01-3.525-3.526 3.527 3.527 0 013.525-3.525 3.524 3.524 0 013.526 3.525zm-7.125 3.598l7.203-7.197M95.784 41.78l7.197 7.202m-7.197 0l7.197-7.202m-7.197 45l7.197 7.202m-7.197 0l7.197-7.202m1.802-36.001l7.197 7.202m-7.197-.001l7.197-7.201m19.8 0l7.202 7.202m-7.202-.001l7.202-7.201m37.798 45l7.202 7.202m-7.202-.001l7.202-7.201m-7.202 18.003l7.202 7.197m-7.202 0l7.202-7.197M68.855 59.778l7.202 7.202m-7.202 0l7.202-7.202m-7.202-44.922l7.202 7.124m-7.202 0l7.202-7.124m109.727 89.922l7.197 7.202m-7.197 0l7.197-7.202m10.801 0l7.197 7.202m-7.197 0l7.197-7.202m-7.197 44.926l7.197 7.203m-7.197 0l7.197-7.203M50.857 122.78l7.197 7.125m-7.197 0l7.197-7.124m-7.197 35.922l7.197 7.203m-7.197 0l7.197-7.203M50.857 77.78l7.197 7.198m-7.197 0l7.197-7.197m28.726-.001l7.202 7.198m-7.202 0l7.202-7.197m64.8-53.999l7.197 7.197m-7.197 0l7.197-7.197m-25.195 0l7.197 7.197m-7.197 0l7.197-7.197m-43.198 116.923l7.197 7.198m-7.197 0l7.197-7.198m-7.197 17.998l7.197 7.203m-7.197 0l7.197-7.203m37.803-143.847l7.197 7.124m-7.197 0l7.197-7.124m-25.2 0l7.202 7.124m-7.202 0l7.202-7.124M32.854 77.78l7.202 7.198m-7.202 0l7.202-7.197m-7.202-18.003l7.202 7.202m-7.202 0l7.202-7.202" fill="none" stroke="#7f7f7f" strokeLinecap="round" strokeWidth=".15" />
  <g clipPath="url(#LCmeter0-LCD-8pinlcd-PIC_COMP-board_svg__a)" transform="matrix(1.25 0 0 1.25 -7.195 -7.395)">
    <path d="m178.62 157.36h0.238" fill="none" stroke="#00007f" strokeLinecap="round" strokeWidth=".72" />
  </g>
  <g clipPath="url(#LCmeter0-LCD-8pinlcd-PIC_COMP-board_svg__b)" transform="matrix(1.25 0 0 1.25 -7.195 -7.395)">
    <path d="M178.86 157.36v-.18" fill="none" stroke="#00007f" strokeLinecap="round" strokeWidth=".72" />
  </g>
  <g clipPath="url(#LCmeter0-LCD-8pinlcd-PIC_COMP-board_svg__c)" transform="matrix(1.25 0 0 1.25 -7.195 -7.395)">
    <path d="m178.86 155.74v-0.18" fill="none" stroke="#00007f" strokeLinecap="round" strokeWidth=".72" />
  </g>
  <g clipPath="url(#LCmeter0-LCD-8pinlcd-PIC_COMP-board_svg__d)" transform="matrix(1.25 0 0 1.25 -7.195 -7.395)">
    <path d="m178.86 154.12v-0.18" fill="none" stroke="#00007f" strokeLinecap="round" strokeWidth=".72" />
  </g>
  <g clipPath="url(#LCmeter0-LCD-8pinlcd-PIC_COMP-board_svg__e)" transform="matrix(1.25 0 0 1.25 -7.195 -7.395)">
    <path d="M178.86 152.5v-.18" fill="none" stroke="#00007f" strokeLinecap="round" strokeWidth=".72" />
  </g>
  <g clipPath="url(#LCmeter0-LCD-8pinlcd-PIC_COMP-board_svg__f)" transform="matrix(1.25 0 0 1.25 -7.195 -7.395)">
    <path d="m178.86 150.88v-0.18" fill="none" stroke="#00007f" strokeLinecap="round" strokeWidth=".72" />
  </g>
  <g clipPath="url(#LCmeter0-LCD-8pinlcd-PIC_COMP-board_svg__g)" transform="matrix(1.25 0 0 1.25 -7.195 -7.395)">
    <path d="m178.86 149.26v-0.184" fill="none" stroke="#00007f" strokeLinecap="round" strokeWidth=".72" />
  </g>
  <g clipPath="url(#LCmeter0-LCD-8pinlcd-PIC_COMP-board_svg__h)" transform="matrix(1.25 0 0 1.25 -7.195 -7.395)">
    <path d="M178.86 147.64v-.18" fill="none" stroke="#00007f" strokeLinecap="round" strokeWidth=".72" />
  </g>
  <g clipPath="url(#LCmeter0-LCD-8pinlcd-PIC_COMP-board_svg__i)" transform="matrix(1.25 0 0 1.25 -7.195 -7.395)">
    <path d="M178.86 146.02v-.18" fill="none" stroke="#00007f" strokeLinecap="round" strokeWidth=".72" />
  </g>
  <g clipPath="url(#LCmeter0-LCD-8pinlcd-PIC_COMP-board_svg__j)" transform="matrix(1.25 0 0 1.25 -7.195 -7.395)">
    <path d="m178.86 144.4v-0.238" fill="none" stroke="#00007f" strokeLinecap="round" strokeWidth=".72" />
  </g>
  <g clipPath="url(#LCmeter0-LCD-8pinlcd-PIC_COMP-board_svg__k)" transform="matrix(1.25 0 0 1.25 -7.195 -7.395)">
    <path d="m178.86 142.78v-0.242" fill="none" stroke="#00007f" strokeLinecap="round" strokeWidth=".72" />
  </g>
  <g clipPath="url(#LCmeter0-LCD-8pinlcd-PIC_COMP-board_svg__l)" transform="matrix(1.25 0 0 1.25 -7.195 -7.395)">
    <path d="m178.86 141.1v-0.18" fill="none" stroke="#00007f" strokeLinecap="round" strokeWidth=".72" />
  </g>
  <g clipPath="url(#LCmeter0-LCD-8pinlcd-PIC_COMP-board_svg__m)" transform="matrix(1.25 0 0 1.25 -7.195 -7.395)">
    <path d="M178.86 139.48v-.18" fill="none" stroke="#00007f" strokeLinecap="round" strokeWidth=".72" />
  </g>
  <g clipPath="url(#LCmeter0-LCD-8pinlcd-PIC_COMP-board_svg__n)" transform="matrix(1.25 0 0 1.25 -7.195 -7.395)">
    <path d="M178.86 137.86v-.18" fill="none" stroke="#00007f" strokeLinecap="round" strokeWidth=".72" />
  </g>
  <g clipPath="url(#LCmeter0-LCD-8pinlcd-PIC_COMP-board_svg__o)" transform="matrix(1.25 0 0 1.25 -7.195 -7.395)">
    <path d="m178.86 136.24v-0.18" fill="none" stroke="#00007f" strokeLinecap="round" strokeWidth=".72" />
  </g>
  <g clipPath="url(#LCmeter0-LCD-8pinlcd-PIC_COMP-board_svg__p)" transform="matrix(1.25 0 0 1.25 -7.195 -7.395)">
    <path d="m178.86 134.62v-0.18" fill="none" stroke="#00007f" strokeLinecap="round" strokeWidth=".72" />
  </g>
  <g clipPath="url(#LCmeter0-LCD-8pinlcd-PIC_COMP-board_svg__q)" transform="matrix(1.25 0 0 1.25 -7.195 -7.395)">
    <path d="M178.86 133v-.18" fill="none" stroke="#00007f" strokeLinecap="round" strokeWidth=".72" />
  </g>
  <g clipPath="url(#LCmeter0-LCD-8pinlcd-PIC_COMP-board_svg__r)" transform="matrix(1.25 0 0 1.25 -7.195 -7.395)">
    <path d="m178.86 131.38v-0.18" fill="none" stroke="#00007f" strokeLinecap="round" strokeWidth=".72" />
  </g>
  <g clipPath="url(#LCmeter0-LCD-8pinlcd-PIC_COMP-board_svg__s)" transform="matrix(1.25 0 0 1.25 -7.195 -7.395)">
    <path d="m178.86 129.76v-0.184" fill="none" stroke="#00007f" strokeLinecap="round" strokeWidth=".72" />
  </g>
  <g clipPath="url(#LCmeter0-LCD-8pinlcd-PIC_COMP-board_svg__t)" transform="matrix(1.25 0 0 1.25 -7.195 -7.395)">
    <path d="M178.86 128.14v-.18" fill="none" stroke="#00007f" strokeLinecap="round" strokeWidth=".72" />
  </g>
  <g clipPath="url(#LCmeter0-LCD-8pinlcd-PIC_COMP-board_svg__u)" transform="matrix(1.25 0 0 1.25 -7.195 -7.395)">
    <path d="M178.86 126.52v-.18" fill="none" stroke="#00007f" strokeLinecap="round" strokeWidth=".72" />
  </g>
  <g clipPath="url(#LCmeter0-LCD-8pinlcd-PIC_COMP-board_svg__v)" transform="matrix(1.25 0 0 1.25 -7.195 -7.395)">
    <path d="m178.86 124.9v-0.18" fill="none" stroke="#00007f" strokeLinecap="round" strokeWidth=".72" />
  </g>
  <g clipPath="url(#LCmeter0-LCD-8pinlcd-PIC_COMP-board_svg__w)" transform="matrix(1.25 0 0 1.25 -7.195 -7.395)">
    <path d="m178.86 123.28v-0.18" fill="none" stroke="#00007f" strokeLinecap="round" strokeWidth=".72" />
  </g>
  <g clipPath="url(#LCmeter0-LCD-8pinlcd-PIC_COMP-board_svg__x)" transform="matrix(1.25 0 0 1.25 -7.195 -7.395)">
    <path d="M178.86 121.66v-.18" fill="none" stroke="#00007f" strokeLinecap="round" strokeWidth=".72" />
  </g>
  <g clipPath="url(#LCmeter0-LCD-8pinlcd-PIC_COMP-board_svg__y)" transform="matrix(1.25 0 0 1.25 -7.195 -7.395)">
    <path d="M178.86 120.04v-.18" fill="none" stroke="#00007f" strokeLinecap="round" strokeWidth=".72" />
  </g>
  <g clipPath="url(#LCmeter0-LCD-8pinlcd-PIC_COMP-board_svg__z)" transform="matrix(1.25 0 0 1.25 -7.195 -7.395)">
    <path d="m178.86 118.42v-0.184" fill="none" stroke="#00007f" strokeLinecap="round" strokeWidth=".72" />
  </g>
  <g clipPath="url(#LCmeter0-LCD-8pinlcd-PIC_COMP-board_svg__A)" transform="matrix(1.25 0 0 1.25 -7.195 -7.395)">
    <path d="M178.86 116.8v-.179" fill="none" stroke="#00007f" strokeLinecap="round" strokeWidth=".72" />
  </g>
  <g clipPath="url(#LCmeter0-LCD-8pinlcd-PIC_COMP-board_svg__B)" transform="matrix(1.25 0 0 1.25 -7.195 -7.395)">
    <path d="M178.86 115.18V115" fill="none" stroke="#00007f" strokeLinecap="round" strokeWidth=".72" />
  </g>
  <g clipPath="url(#LCmeter0-LCD-8pinlcd-PIC_COMP-board_svg__C)" transform="matrix(1.25 0 0 1.25 -7.195 -7.395)">
    <path d="m178.86 113.56v-0.18" fill="none" stroke="#00007f" strokeLinecap="round" strokeWidth=".72" />
  </g>
  <g clipPath="url(#LCmeter0-LCD-8pinlcd-PIC_COMP-board_svg__D)" transform="matrix(1.25 0 0 1.25 -7.195 -7.395)">
    <path d="m178.86 111.94v-0.18" fill="none" stroke="#00007f" strokeLinecap="round" strokeWidth=".72" />
  </g>
  <g clipPath="url(#LCmeter0-LCD-8pinlcd-PIC_COMP-board_svg__E)" transform="matrix(1.25 0 0 1.25 -7.195 -7.395)">
    <path d="M178.86 110.32v-.18" fill="none" stroke="#00007f" strokeLinecap="round" strokeWidth=".72" />
  </g>
  <g clipPath="url(#LCmeter0-LCD-8pinlcd-PIC_COMP-board_svg__F)" transform="matrix(1.25 0 0 1.25 -7.195 -7.395)">
    <path d="M178.86 108.7v-.18" fill="none" stroke="#00007f" strokeLinecap="round" strokeWidth=".72" />
  </g>
  <g clipPath="url(#LCmeter0-LCD-8pinlcd-PIC_COMP-board_svg__G)" transform="matrix(1.25 0 0 1.25 -7.195 -7.395)">
    <path d="m178.86 107.08v-0.238" fill="none" stroke="#00007f" strokeLinecap="round" strokeWidth=".72" />
  </g>
  <g clipPath="url(#LCmeter0-LCD-8pinlcd-PIC_COMP-board_svg__H)" transform="matrix(1.25 0 0 1.25 -7.195 -7.395)">
    <path d="m178.86 105.4v-0.18" fill="none" stroke="#00007f" strokeLinecap="round" strokeWidth=".72" />
  </g>
  <g clipPath="url(#LCmeter0-LCD-8pinlcd-PIC_COMP-board_svg__I)" transform="matrix(1.25 0 0 1.25 -7.195 -7.395)">
    <path d="m178.86 103.78v-0.18" fill="none" stroke="#00007f" strokeLinecap="round" strokeWidth=".72" />
  </g>
  <g clipPath="url(#LCmeter0-LCD-8pinlcd-PIC_COMP-board_svg__J)" transform="matrix(1.25 0 0 1.25 -7.195 -7.395)">
    <path d="M178.86 102.16v-.18" fill="none" stroke="#00007f" strokeLinecap="round" strokeWidth=".72" />
  </g>
  <g clipPath="url(#LCmeter0-LCD-8pinlcd-PIC_COMP-board_svg__K)" transform="matrix(1.25 0 0 1.25 -7.195 -7.395)">
    <path d="M178.86 100.54v-.18" fill="none" stroke="#00007f" strokeLinecap="round" strokeWidth=".72" />
  </g>
  <g clipPath="url(#LCmeter0-LCD-8pinlcd-PIC_COMP-board_svg__L)" transform="matrix(1.25 0 0 1.25 -7.195 -7.395)">
    <path d="M178.86 98.922v-.184" fill="none" stroke="#00007f" strokeLinecap="round" strokeWidth=".72" />
  </g>
  <g clipPath="url(#LCmeter0-LCD-8pinlcd-PIC_COMP-board_svg__M)" transform="matrix(1.25 0 0 1.25 -7.195 -7.395)">
    <path d="M178.86 97.3v-.179" fill="none" stroke="#00007f" strokeLinecap="round" strokeWidth=".72" />
  </g>
  <g clipPath="url(#LCmeter0-LCD-8pinlcd-PIC_COMP-board_svg__N)" transform="matrix(1.25 0 0 1.25 -7.195 -7.395)">
    <path d="M178.86 95.68v-.18" fill="none" stroke="#00007f" strokeLinecap="round" strokeWidth=".72" />
  </g>
  <g clipPath="url(#LCmeter0-LCD-8pinlcd-PIC_COMP-board_svg__O)" transform="matrix(1.25 0 0 1.25 -7.195 -7.395)">
    <path d="M178.86 94.059v-.18" fill="none" stroke="#00007f" strokeLinecap="round" strokeWidth=".72" />
  </g>
  <g clipPath="url(#LCmeter0-LCD-8pinlcd-PIC_COMP-board_svg__P)" transform="matrix(1.25 0 0 1.25 -7.195 -7.395)">
    <path d="M178.86 92.441v-.18" fill="none" stroke="#00007f" strokeLinecap="round" strokeWidth=".72" />
  </g>
  <g clipPath="url(#LCmeter0-LCD-8pinlcd-PIC_COMP-board_svg__Q)" transform="matrix(1.25 0 0 1.25 -7.195 -7.395)">
    <path d="M178.86 90.82v-.18" fill="none" stroke="#00007f" strokeLinecap="round" strokeWidth=".72" />
  </g>
  <g clipPath="url(#LCmeter0-LCD-8pinlcd-PIC_COMP-board_svg__R)" transform="matrix(1.25 0 0 1.25 -7.195 -7.395)">
    <path d="M178.86 89.2v-.18" fill="none" stroke="#00007f" strokeLinecap="round" strokeWidth=".72" />
  </g>
  <g clipPath="url(#LCmeter0-LCD-8pinlcd-PIC_COMP-board_svg__S)" transform="matrix(1.25 0 0 1.25 -7.195 -7.395)">
    <path d="M178.86 87.578v-.18" fill="none" stroke="#00007f" strokeLinecap="round" strokeWidth=".72" />
  </g>
  <g clipPath="url(#LCmeter0-LCD-8pinlcd-PIC_COMP-board_svg__T)" transform="matrix(1.25 0 0 1.25 -7.195 -7.395)">
    <path d="M178.86 85.96v-.179" fill="none" stroke="#00007f" strokeLinecap="round" strokeWidth=".72" />
  </g>
  <g clipPath="url(#LCmeter0-LCD-8pinlcd-PIC_COMP-board_svg__U)" transform="matrix(1.25 0 0 1.25 -7.195 -7.395)">
    <path d="M178.86 84.34v-.18" fill="none" stroke="#00007f" strokeLinecap="round" strokeWidth=".72" />
  </g>
  <g clipPath="url(#LCmeter0-LCD-8pinlcd-PIC_COMP-board_svg__V)" transform="matrix(1.25 0 0 1.25 -7.195 -7.395)">
    <path d="M178.86 82.719v-.18" fill="none" stroke="#00007f" strokeLinecap="round" strokeWidth=".72" />
  </g>
  <g clipPath="url(#LCmeter0-LCD-8pinlcd-PIC_COMP-board_svg__W)" transform="matrix(1.25 0 0 1.25 -7.195 -7.395)">
    <path d="M178.86 81.102v-.18" fill="none" stroke="#00007f" strokeLinecap="round" strokeWidth=".72" />
  </g>
  <g clipPath="url(#LCmeter0-LCD-8pinlcd-PIC_COMP-board_svg__X)" transform="matrix(1.25 0 0 1.25 -7.195 -7.395)">
    <path d="M178.86 79.48v-.18" fill="none" stroke="#00007f" strokeLinecap="round" strokeWidth=".72" />
  </g>
  <g clipPath="url(#LCmeter0-LCD-8pinlcd-PIC_COMP-board_svg__Y)" transform="matrix(1.25 0 0 1.25 -7.195 -7.395)">
    <path d="M178.86 77.86v-.18" fill="none" stroke="#00007f" strokeLinecap="round" strokeWidth=".72" />
  </g>
  <g clipPath="url(#LCmeter0-LCD-8pinlcd-PIC_COMP-board_svg__Z)" transform="matrix(1.25 0 0 1.25 -7.195 -7.395)">
    <path d="M178.86 76.238v-.18" fill="none" stroke="#00007f" strokeLinecap="round" strokeWidth=".72" />
  </g>
  <g clipPath="url(#LCmeter0-LCD-8pinlcd-PIC_COMP-board_svg__aa)" transform="matrix(1.25 0 0 1.25 -7.195 -7.395)">
    <path d="M178.86 74.621v-.18" fill="none" stroke="#00007f" strokeLinecap="round" strokeWidth=".72" />
  </g>
  <g clipPath="url(#LCmeter0-LCD-8pinlcd-PIC_COMP-board_svg__ab)" transform="matrix(1.25 0 0 1.25 -7.195 -7.395)">
    <path d="M178.86 73v-.18" fill="none" stroke="#00007f" strokeLinecap="round" strokeWidth=".72" />
  </g>
  <g clipPath="url(#LCmeter0-LCD-8pinlcd-PIC_COMP-board_svg__ac)" transform="matrix(1.25 0 0 1.25 -7.195 -7.395)">
    <path d="M178.86 71.379v-.238" fill="none" stroke="#00007f" strokeLinecap="round" strokeWidth=".72" />
  </g>
  <g clipPath="url(#LCmeter0-LCD-8pinlcd-PIC_COMP-board_svg__ad)" transform="matrix(1.25 0 0 1.25 -7.195 -7.395)">
    <path d="M178.86 69.7v-.18" fill="none" stroke="#00007f" strokeLinecap="round" strokeWidth=".72" />
  </g>
  <g clipPath="url(#LCmeter0-LCD-8pinlcd-PIC_COMP-board_svg__ae)" transform="matrix(1.25 0 0 1.25 -7.195 -7.395)">
    <path d="M178.86 68.078v-.18" fill="none" stroke="#00007f" strokeLinecap="round" strokeWidth=".72" />
  </g>
  <g clipPath="url(#LCmeter0-LCD-8pinlcd-PIC_COMP-board_svg__af)" transform="matrix(1.25 0 0 1.25 -7.195 -7.395)">
    <path d="M178.86 66.46v-.179" fill="none" stroke="#00007f" strokeLinecap="round" strokeWidth=".72" />
  </g>
  <g clipPath="url(#LCmeter0-LCD-8pinlcd-PIC_COMP-board_svg__ag)" transform="matrix(1.25 0 0 1.25 -7.195 -7.395)">
    <path d="M178.86 64.84v-.18" fill="none" stroke="#00007f" strokeLinecap="round" strokeWidth=".72" />
  </g>
  <g clipPath="url(#LCmeter0-LCD-8pinlcd-PIC_COMP-board_svg__ah)" transform="matrix(1.25 0 0 1.25 -7.195 -7.395)">
    <path d="M178.86 63.219v-.18" fill="none" stroke="#00007f" strokeLinecap="round" strokeWidth=".72" />
  </g>
  <g clipPath="url(#LCmeter0-LCD-8pinlcd-PIC_COMP-board_svg__ai)" transform="matrix(1.25 0 0 1.25 -7.195 -7.395)">
    <path d="M178.86 61.602v-.18" fill="none" stroke="#00007f" strokeLinecap="round" strokeWidth=".72" />
  </g>
  <g clipPath="url(#LCmeter0-LCD-8pinlcd-PIC_COMP-board_svg__aj)" transform="matrix(1.25 0 0 1.25 -7.195 -7.395)">
    <path d="M178.86 59.98v-.18" fill="none" stroke="#00007f" strokeLinecap="round" strokeWidth=".72" />
  </g>
  <g clipPath="url(#LCmeter0-LCD-8pinlcd-PIC_COMP-board_svg__ak)" transform="matrix(1.25 0 0 1.25 -7.195 -7.395)">
    <path d="M178.86 58.36v-.18" fill="none" stroke="#00007f" strokeLinecap="round" strokeWidth=".72" />
  </g>
  <g clipPath="url(#LCmeter0-LCD-8pinlcd-PIC_COMP-board_svg__al)" transform="matrix(1.25 0 0 1.25 -7.195 -7.395)">
    <path d="M178.86 56.738v-.18" fill="none" stroke="#00007f" strokeLinecap="round" strokeWidth=".72" />
  </g>
  <g clipPath="url(#LCmeter0-LCD-8pinlcd-PIC_COMP-board_svg__am)" transform="matrix(1.25 0 0 1.25 -7.195 -7.395)">
    <path d="M178.86 55.121v-.18" fill="none" stroke="#00007f" strokeLinecap="round" strokeWidth=".72" />
  </g>
  <g clipPath="url(#LCmeter0-LCD-8pinlcd-PIC_COMP-board_svg__an)" transform="matrix(1.25 0 0 1.25 -7.195 -7.395)">
    <path d="M178.86 53.5v-.18" fill="none" stroke="#00007f" strokeLinecap="round" strokeWidth=".72" />
  </g>
  <g clipPath="url(#LCmeter0-LCD-8pinlcd-PIC_COMP-board_svg__ao)" transform="matrix(1.25 0 0 1.25 -7.195 -7.395)">
    <path d="M178.86 51.879v-.18" fill="none" stroke="#00007f" strokeLinecap="round" strokeWidth=".72" />
  </g>
  <g clipPath="url(#LCmeter0-LCD-8pinlcd-PIC_COMP-board_svg__ap)" transform="matrix(1.25 0 0 1.25 -7.195 -7.395)">
    <path d="M178.86 50.262v-.184" fill="none" stroke="#00007f" strokeLinecap="round" strokeWidth=".72" />
  </g>
  <g clipPath="url(#LCmeter0-LCD-8pinlcd-PIC_COMP-board_svg__aq)" transform="matrix(1.25 0 0 1.25 -7.195 -7.395)">
    <path d="M178.86 48.64v-.18" fill="none" stroke="#00007f" strokeLinecap="round" strokeWidth=".72" />
  </g>
  <g clipPath="url(#LCmeter0-LCD-8pinlcd-PIC_COMP-board_svg__ar)" transform="matrix(1.25 0 0 1.25 -7.195 -7.395)">
    <path d="M178.86 47.02v-.18" fill="none" stroke="#00007f" strokeLinecap="round" strokeWidth=".72" />
  </g>
  <g clipPath="url(#LCmeter0-LCD-8pinlcd-PIC_COMP-board_svg__as)" transform="matrix(1.25 0 0 1.25 -7.195 -7.395)">
    <path d="M178.86 45.398v-.18" fill="none" stroke="#00007f" strokeLinecap="round" strokeWidth=".72" />
  </g>
  <g clipPath="url(#LCmeter0-LCD-8pinlcd-PIC_COMP-board_svg__at)" transform="matrix(1.25 0 0 1.25 -7.195 -7.395)">
    <path d="M178.86 43.781v-.18" fill="none" stroke="#00007f" strokeLinecap="round" strokeWidth=".72" />
  </g>
  <g clipPath="url(#LCmeter0-LCD-8pinlcd-PIC_COMP-board_svg__au)" transform="matrix(1.25 0 0 1.25 -7.195 -7.395)">
    <path d="M178.86 42.16v-.18" fill="none" stroke="#00007f" strokeLinecap="round" strokeWidth=".72" />
  </g>
  <g clipPath="url(#LCmeter0-LCD-8pinlcd-PIC_COMP-board_svg__av)" transform="matrix(1.25 0 0 1.25 -7.195 -7.395)">
    <path d="M178.86 40.54v-.18" fill="none" stroke="#00007f" strokeLinecap="round" strokeWidth=".72" />
  </g>
  <g clipPath="url(#LCmeter0-LCD-8pinlcd-PIC_COMP-board_svg__aw)" transform="matrix(1.25 0 0 1.25 -7.195 -7.395)">
    <path d="M178.86 38.922v-.184" fill="none" stroke="#00007f" strokeLinecap="round" strokeWidth=".72" />
  </g>
  <g clipPath="url(#LCmeter0-LCD-8pinlcd-PIC_COMP-board_svg__ax)" transform="matrix(1.25 0 0 1.25 -7.195 -7.395)">
    <path d="M178.86 37.3v-.179" fill="none" stroke="#00007f" strokeLinecap="round" strokeWidth=".72" />
  </g>
  <g clipPath="url(#LCmeter0-LCD-8pinlcd-PIC_COMP-board_svg__ay)" transform="matrix(1.25 0 0 1.25 -7.195 -7.395)">
    <path d="M178.86 35.68v-.239" fill="none" stroke="#00007f" strokeLinecap="round" strokeWidth=".72" />
  </g>
  <g clipPath="url(#LCmeter0-LCD-8pinlcd-PIC_COMP-board_svg__az)" transform="matrix(1.25 0 0 1.25 -7.195 -7.395)">
    <path d="M178.86 34v-.18" fill="none" stroke="#00007f" strokeLinecap="round" strokeWidth=".72" />
  </g>
  <g clipPath="url(#LCmeter0-LCD-8pinlcd-PIC_COMP-board_svg__aA)" transform="matrix(1.25 0 0 1.25 -7.195 -7.395)">
    <path d="M178.86 32.379v-.18" fill="none" stroke="#00007f" strokeLinecap="round" strokeWidth=".72" />
  </g>
  <g clipPath="url(#LCmeter0-LCD-8pinlcd-PIC_COMP-board_svg__aB)" transform="matrix(1.25 0 0 1.25 -7.195 -7.395)">
    <path d="M178.86 30.762v-.184" fill="none" stroke="#00007f" strokeLinecap="round" strokeWidth=".72" />
  </g>
  <g clipPath="url(#LCmeter0-LCD-8pinlcd-PIC_COMP-board_svg__aC)" transform="matrix(1.25 0 0 1.25 -7.195 -7.395)">
    <path d="M178.86 29.14v-.18" fill="none" stroke="#00007f" strokeLinecap="round" strokeWidth=".72" />
  </g>
  <g clipPath="url(#LCmeter0-LCD-8pinlcd-PIC_COMP-board_svg__aD)" transform="matrix(1.25 0 0 1.25 -7.195 -7.395)">
    <path d="M178.86 27.52v-.18" fill="none" stroke="#00007f" strokeLinecap="round" strokeWidth=".72" />
  </g>
  <g clipPath="url(#LCmeter0-LCD-8pinlcd-PIC_COMP-board_svg__aE)" transform="matrix(1.25 0 0 1.25 -7.195 -7.395)">
    <path d="M178.86 25.898v-.18" fill="none" stroke="#00007f" strokeLinecap="round" strokeWidth=".72" />
  </g>
  <g clipPath="url(#LCmeter0-LCD-8pinlcd-PIC_COMP-board_svg__aF)" transform="matrix(1.25 0 0 1.25 -7.195 -7.395)">
    <path d="M178.86 24.281v-.18" fill="none" stroke="#00007f" strokeLinecap="round" strokeWidth=".72" />
  </g>
  <g clipPath="url(#LCmeter0-LCD-8pinlcd-PIC_COMP-board_svg__aG)" transform="matrix(1.25 0 0 1.25 -7.195 -7.395)">
    <path d="M178.86 22.66v-.18" fill="none" stroke="#00007f" strokeLinecap="round" strokeWidth=".72" />
  </g>
  <g clipPath="url(#LCmeter0-LCD-8pinlcd-PIC_COMP-board_svg__aH)" transform="matrix(1.25 0 0 1.25 -7.195 -7.395)">
    <path d="M178.86 21.04v-.18" fill="none" stroke="#00007f" strokeLinecap="round" strokeWidth=".72" />
  </g>
  <g clipPath="url(#LCmeter0-LCD-8pinlcd-PIC_COMP-board_svg__aI)" transform="matrix(1.25 0 0 1.25 -7.195 -7.395)">
    <path d="M178.86 19.422v-.184" fill="none" stroke="#00007f" strokeLinecap="round" strokeWidth=".72" />
  </g>
  <g clipPath="url(#LCmeter0-LCD-8pinlcd-PIC_COMP-board_svg__aJ)" transform="matrix(1.25 0 0 1.25 -7.195 -7.395)">
    <path d="M178.86 17.8v-.179" fill="none" stroke="#00007f" strokeLinecap="round" strokeWidth=".72" />
  </g>
  <g clipPath="url(#LCmeter0-LCD-8pinlcd-PIC_COMP-board_svg__aK)" transform="matrix(1.25 0 0 1.25 -7.195 -7.395)">
    <path d="M178.86 16.18V16" fill="none" stroke="#00007f" strokeLinecap="round" strokeWidth=".72" />
  </g>
  <g clipPath="url(#LCmeter0-LCD-8pinlcd-PIC_COMP-board_svg__aL)" transform="matrix(1.25 0 0 1.25 -7.195 -7.395)">
    <path d="M178.86 14.559v-.18" fill="none" stroke="#00007f" strokeLinecap="round" strokeWidth=".72" />
  </g>
  <g clipPath="url(#LCmeter0-LCD-8pinlcd-PIC_COMP-board_svg__aM)" transform="matrix(1.25 0 0 1.25 -7.195 -7.395)">
    <path d="M178.86 12.941v-.18" fill="none" stroke="#00007f" strokeLinecap="round" strokeWidth=".72" />
  </g>
  <g clipPath="url(#LCmeter0-LCD-8pinlcd-PIC_COMP-board_svg__aN)" transform="matrix(1.25 0 0 1.25 -7.195 -7.395)">
    <path d="M178.86 11.32v-.18" fill="none" stroke="#00007f" strokeLinecap="round" strokeWidth=".72" />
  </g>
  <g clipPath="url(#LCmeter0-LCD-8pinlcd-PIC_COMP-board_svg__aO)" transform="matrix(1.25 0 0 1.25 -7.195 -7.395)">
    <path d="M178.86 9.7v-.18" fill="none" stroke="#00007f" strokeLinecap="round" strokeWidth=".72" />
  </g>
  <g clipPath="url(#LCmeter0-LCD-8pinlcd-PIC_COMP-board_svg__aP)" transform="matrix(1.25 0 0 1.25 -7.195 -7.395)">
    <path d="M178.86 8.078v-.18" fill="none" stroke="#00007f" strokeLinecap="round" strokeWidth=".72" />
  </g>
  <g clipPath="url(#LCmeter0-LCD-8pinlcd-PIC_COMP-board_svg__aQ)" fill="none" stroke="#00007f" strokeLinecap="round" strokeWidth="12" transform="matrix(1.25 0 0 1.25 -7.195 -7.395)">
    <path d="m178.86 6.46v-0.179h-0.239" strokeWidth=".72" />
  </g>
</svg>
