<?xml version="1.0" standalone="no"?>
<!DOCTYPE svg PUBLIC "-//W3C//DTD SVG 1.1//EN" "http://www.w3.org/Graphics/SVG/1.1/DTD/svg11.dtd" >
<svg xmlns="http://www.w3.org/2000/svg" xmlns:xlink="http://www.w3.org/1999/xlink" version="1.1">
<metadata>
Created by FontForge 20170731 at Thu Apr 13 00:14:42 2017
 By Aleksey,,,
Copyright (c) 2017, Thor Arisland
</metadata>
<defs>
<font id="Borgen" horiz-adv-x="1088" >
  <font-face 
    font-family="Borgen"
    font-weight="400"
    font-stretch="normal"
    units-per-em="2048"
    panose-1="2 0 5 9 0 0 0 0 0 0"
    ascent="1626"
    descent="-422"
    x-height="815"
    cap-height="1227"
    bbox="22 -408 1066 1993"
    underline-thickness="98"
    underline-position="-246"
    unicode-range="U+0020-2122"
  />
<missing-glyph 
d="M68 0v1365h544v-1365h-544zM136 68h408v1229h-408v-1229z" />
    <glyph glyph-name=".notdef" 
d="M68 0v1365h544v-1365h-544zM136 68h408v1229h-408v-1229z" />
    <glyph glyph-name=".null" horiz-adv-x="0" 
 />
    <glyph glyph-name="nonmarkingreturn" 
 />
    <glyph glyph-name="space" unicode=" " 
 />
    <glyph glyph-name="exclam" unicode="!" 
d="M594 104v-102h-100v102h100zM594 1227v-918h-100v918h100z" />
    <glyph glyph-name="quotedbl" unicode="&#x22;" 
d="M696 1626v-407h-102v407h102zM494 1626v-407h-102v407h102z" />
    <glyph glyph-name="numbersign" unicode="#" 
d="M392 922l50 305h102l-50 -305h202l52 305h102l-50 -305h152l-26 -103h-144l-66 -407h186l-28 -103h-178l-50 -307h-102l50 307h-202l-52 -307h-102l52 307h-154l26 103h144l68 407h-188l28 103h178zM476 819l-68 -407h204l68 407h-204z" />
    <glyph glyph-name="dollar" unicode="$" 
d="M340 666h428q75 0 129.5 -54t54.5 -129v-143q0 -75 -54.5 -128.5t-129.5 -53.5h-174v-154h-100v154h-174q-75 0 -129.5 53.5t-54.5 128.5v72h102v-52q0 -41 30.5 -71.5t71.5 -30.5h408q41 0 71.5 30.5t30.5 71.5v103q0 41 -30.5 70.5t-71.5 29.5h-428q-75 0 -129.5 55
t-54.5 130v143q0 75 54.5 128.5t129.5 53.5h174v154h100v-154h174q75 0 129.5 -53.5t54.5 -128.5v-72h-102v51q0 41 -30.5 72t-71.5 31h-408q-41 0 -71.5 -31t-30.5 -72v-102q0 -41 30.5 -71.5t71.5 -30.5z" />
    <glyph glyph-name="percent" unicode="%" 
d="M186 4h-50v51l766 1172h50v-51zM722 463q95 0 162.5 -67.5t67.5 -162.5t-67.5 -162t-162.5 -67t-161.5 67t-66.5 162t66.5 162.5t161.5 67.5zM722 371q-57 0 -96.5 -40.5t-39.5 -97.5t39.5 -97t96.5 -40t97.5 40t40.5 97t-40.5 97.5t-97.5 40.5zM368 1227q95 0 160.5 -67
t65.5 -163t-65.5 -162.5t-160.5 -66.5q-96 0 -164 67t-68 162t68.5 162.5t163.5 67.5zM368 1135q-57 0 -98.5 -40.5t-41.5 -97.5t41.5 -97t98.5 -40t95.5 40t38.5 97t-38.5 97.5t-95.5 40.5z" />
    <glyph glyph-name="ampersand" unicode="&#x26;" 
d="M378 639q-136 154 -140 332v10q0 33 7 63.5t27.5 64.5t53 59t89 41.5t129.5 17.5h4q159 0 230.5 -71.5t71.5 -180.5q0 -47 -19 -91t-49 -77.5t-66.5 -63.5t-73 -50t-66.5 -35t-49 -22l-19 -7q210 -299 292 -422q50 59 50 180v25l102 -2v-4q0 -22 -2 -48.5t-9.5 -72.5
t-26 -90t-46.5 -72q18 -22 39 -52t33 -49l12 -20h-102q-28 49 -44 78q-7 -3 -31.5 -15.5t-37 -18t-39 -16t-47 -15.5t-49.5 -9t-58 -4q-100 0 -175 17.5t-118.5 45t-70 69.5t-35.5 83t-9 92q0 100 102 217q34 38 69 66.5t53 37.5zM238 309q0 -18 1 -29.5t4 -32t12 -34.5
t22.5 -32.5t36.5 -30.5t54 -23.5t76 -17t100 -5.5q119 0 174 48q-36 44 -106.5 148.5t-123.5 183.5t-56 79q-39 0 -73 -24.5t-55.5 -59.5t-37 -73t-22 -63.5t-6.5 -33.5zM544 1141q-112 0 -155.5 -43t-48.5 -127v-15q0 -61 29 -133t85 -133q6 2 16.5 6t41 17.5t58.5 28.5
t62 40t58.5 52t41 63t16.5 74q0 98 -54.5 134t-149.5 36z" />
    <glyph glyph-name="quotesingle" unicode="'" 
d="M494 1219v407h100v-407h-100z" />
    <glyph glyph-name="parenleft" unicode="(" 
d="M902 1227v-103h-104q-138 0 -255 -67.5t-185 -184t-68 -254.5v-6q0 -138 68 -254.5t185 -184t255 -67.5h104v-102h-106q-165 0 -305.5 81.5t-222.5 221.5t-82 305v6q0 165 82 305.5t222.5 222t305.5 81.5h106z" />
    <glyph glyph-name="parenright" unicode=")" 
d="M186 1227h108q165 0 305 -81.5t221.5 -222t81.5 -305.5v-6q0 -165 -81.5 -305t-221.5 -221.5t-305 -81.5h-108v102h106q138 0 255 67.5t185 184t68 254.5v6q0 138 -68 254.5t-185 184t-255 67.5h-106v103z" />
    <glyph glyph-name="asterisk" unicode="*" 
d="M494 1307v319h100v-319l278 159l52 -88l-279 -159l279 -160l-52 -88l-278 159v-319h-100v319l-279 -159l-51 88l278 160l-278 159l51 88z" />
    <glyph glyph-name="plus" unicode="+" 
d="M136 569h358v357h100v-357h358v-100h-358v-358h-100v358h-358v100z" />
    <glyph glyph-name="comma" unicode="," 
d="M521 4q-34 7 -56 36t-22 64q0 42 29.5 72.5t70.5 30.5t72 -31t31 -72v-51q0 -39 -21 -69.5t-51 -45t-59.5 -23.5t-50.5 -11l-21 -2q-2 4 0 51q40 0 78 51z" />
    <glyph glyph-name="hyphen" unicode="-" 
d="M136 414v102h816v-102h-816z" />
    <glyph glyph-name="period" unicode="." 
d="M544 207q41 0 72 -31t31 -72t-31 -71.5t-72 -30.5t-71.5 30.5t-30.5 71.5t30.5 72t71.5 31z" />
    <glyph glyph-name="slash" unicode="/" 
d="M138 6l710 1221h102l-710 -1221h-102z" />
    <glyph glyph-name="zero" unicode="0" 
d="M952 817v-405q0 -169 -119.5 -289.5t-288.5 -120.5t-288.5 120.5t-119.5 289.5v405q0 169 119.5 289.5t288.5 120.5t288.5 -120.5t119.5 -289.5zM850 817q0 128 -89.5 217.5t-216.5 89.5t-216.5 -89.5t-89.5 -217.5v-405q0 -128 89.5 -218t216.5 -90t216.5 90t89.5 218
v405zM800 768v-102l-510 -203v100z" />
    <glyph glyph-name="one" unicode="1" 
d="M136 104h458v969l-458 -135v100l560 189v-1123h256v-102h-816v102z" />
    <glyph glyph-name="two" unicode="2" 
d="M136 2v307q0 343 408 357q139 5 222 53.5t84 148.5v11q0 74 -20.5 123.5t-63 75.5t-94.5 36t-128 10q-139 0 -222.5 -73.5t-83.5 -233.5h-102q0 410 408 410q66 0 122.5 -10t110 -35.5t91.5 -65.5t61 -103t23 -145q0 -169 -99.5 -235.5t-308.5 -69.5q-306 -3 -306 -254
v-205h714v-102h-816z" />
    <glyph glyph-name="three" unicode="3" 
d="M442 563v103h102q95 0 154.5 11t93 37.5t45.5 62t13 91.5v11q0 74 -20.5 123.5t-63 75.5t-94.5 36t-128 10q-139 0 -222.5 -73.5t-83.5 -233.5h-102q0 410 408 410q66 0 122.5 -10t110 -35.5t91.5 -65.5t61 -103t23 -145q0 -37 -4.5 -68t-11.5 -52.5t-18.5 -40.5
t-21 -30.5t-25.5 -22.5t-25 -16t-25 -13t-21 -11q3 -2 21 -11t25.5 -13.5t24.5 -17t25.5 -23.5t21 -30.5t18.5 -41t11 -52t5 -65.5q0 -82 -23 -145t-60.5 -102.5t-91.5 -65t-110.5 -35.5t-122.5 -10q-408 0 -408 410h102q0 -161 84 -234.5t222 -73.5q76 0 128 10t94.5 36.5
t63 76t20.5 123.5v10q-1 56 -12.5 91t-43.5 62t-90.5 38.5t-149.5 11.5h-112z" />
    <glyph glyph-name="four" unicode="4" 
d="M136 512l256 715h102l-220 -613h576v613h102v-1225h-102v510h-714z" />
    <glyph glyph-name="five" unicode="5" 
d="M186 717v510h716v-103h-612v-307q20 2 96 2q16 0 67.5 -1t90.5 -1q98 0 170 -21t117.5 -58.5t72.5 -96t37.5 -125.5t10.5 -156q0 -82 -23 -145t-60.5 -102.5t-91.5 -65t-110.5 -35.5t-122.5 -10q-408 0 -408 410h102q0 -161 84 -234.5t222 -73.5q76 0 128 10t94.5 36.5
t63 76t20.5 123.5v10q-3 184 -72.5 269t-233.5 88q-20 0 -60 1t-60 1z" />
    <glyph glyph-name="six" unicode="6" 
d="M628 2h-166q-135 0 -230.5 96.5t-95.5 231.5v487q0 169 119.5 289.5t288.5 120.5q156 0 272.5 -103.5t135.5 -255.5h-106q-19 110 -104 183t-198 73q-127 0 -216.5 -89.5t-89.5 -217.5v-139q93 90 224 90h166q135 0 229.5 -96.5t94.5 -231.5v-110q0 -135 -94.5 -231.5
t-229.5 -96.5zM604 666h-120q-101 0 -173.5 -71.5t-72.5 -172.5v-72q0 -101 72.5 -173.5t173.5 -72.5h120q101 0 173.5 72.5t72.5 173.5v72q0 101 -72.5 172.5t-173.5 71.5z" />
    <glyph glyph-name="seven" unicode="7" 
d="M238 1124v-153h-102v256h816v-103l-208 -510h106v-102h-148l-208 -510h-102l208 510h-106v102h148l208 510h-612z" />
    <glyph glyph-name="eight" unicode="8" 
d="M294 633q-50 40 -79 99t-29 126v74q0 123 87.5 209t210.5 86h120q123 0 210.5 -86t87.5 -209v-74q0 -67 -28 -126t-78 -99q71 -37 113.5 -107.5t42.5 -154.5v-72q0 -123 -86.5 -210t-209.5 -87h-224q-123 0 -209.5 87t-86.5 210v72q0 84 43.5 154.5t114.5 107.5zM646 563
h-204q-85 0 -144.5 -60t-59.5 -145v-49q0 -85 59.5 -145t144.5 -60h204q85 0 144.5 60t59.5 145v49q0 85 -59.5 145t-144.5 60zM594 1124h-100q-85 0 -144.5 -59.5t-59.5 -144.5v-50q0 -85 59.5 -144.5t144.5 -59.5h100q85 0 145.5 59.5t60.5 144.5v50q0 85 -60.5 144.5
t-145.5 59.5z" />
    <glyph glyph-name="nine" unicode="9" 
d="M462 1227h166q135 0 229.5 -96.5t94.5 -231.5v-487q0 -169 -119.5 -289.5t-288.5 -120.5q-156 0 -272.5 103t-135.5 255h106q19 -110 104 -183t198 -73q127 0 216.5 90t89.5 218v202q-106 -102 -222 -102h-166q-163 0 -244.5 87t-81.5 230v111q0 105 97.5 196t228.5 91z
M484 614h120q102 0 174 68t72 168v70q0 76 -74 140t-172 64h-120q-99 0 -172.5 -63.5t-73.5 -140.5v-70q0 -109 59 -172.5t187 -63.5z" />
    <glyph glyph-name="colon" unicode=":" 
d="M544 207q41 0 72 -31t31 -72t-31 -71.5t-72 -30.5t-71.5 30.5t-30.5 71.5t30.5 72t71.5 31zM544 717q41 0 72 -31t31 -72t-31 -71.5t-72 -30.5t-71.5 30.5t-30.5 71.5t30.5 72t71.5 31z" />
    <glyph glyph-name="semicolon" unicode=";" 
d="M521 4q-34 7 -56 36t-22 64q0 42 29.5 72.5t70.5 30.5t72 -31t31 -72v-51q0 -39 -21 -69.5t-51 -45t-59.5 -23.5t-50.5 -11l-21 -2q-2 4 0 51q40 0 78 51zM543 717q41 0 72 -31t31 -72t-31 -71.5t-72 -30.5t-70.5 30.5t-29.5 71.5q0 42 29.5 72.5t70.5 30.5z" />
    <glyph glyph-name="less" unicode="&#x3c;" 
d="M136 459l816 356v-100l-700 -305l700 -308v-102l-816 358v101z" />
    <glyph glyph-name="equal" unicode="=" 
d="M952 307v-102h-816v102h816zM952 815v-100h-816v100h816z" />
    <glyph glyph-name="greater" unicode="&#x3e;" 
d="M952 459v-101l-816 -358v102l700 308l-700 305v100z" />
    <glyph glyph-name="question" unicode="?" 
d="M594 156v-154h-100v154h100zM238 868h-102q0 176 114.5 267.5t293.5 91.5q64 0 122 -13t110.5 -41t91.5 -69.5t61.5 -102t22.5 -133.5q0 -34 -5.5 -67t-20.5 -68t-37 -60.5t-58.5 -42t-82.5 -16.5q-51 0 -88 -37t-51.5 -81t-14.5 -84v-154h-100v154q0 127 69.5 216
t184.5 89q102 0 102 157q0 110 -83.5 180t-222.5 70q-130 0 -218 -72t-88 -184z" />
    <glyph glyph-name="at" unicode="@" 
d="M785 106q-98 -106 -241 -106q-136 0 -234 98t-98 234t98 234t234 98q139 0 241 -109v33v6v4h7h6h63h6h6v-4v-6v-350v-156q7 -4 15 -2t12 6q78 116 78 246q0 180 -127 307t-307 127t-307 -127t-127 -307t127 -307t307 -127q21 0 61 4l6 2h9v-6v-7v-65v-4v-6h-7l-6 -2
q-40 -4 -63 -4q-106 0 -203 41t-167 111t-111 167t-41 203t41 203t111 167t167 111t203 41t203 -41t167 -111t111 -167t41 -203q0 -183 -117 -326v-2h-2v-2q-24 -14 -59 -14q-45 0 -82 32q-21 19 -21 86zM544 575q-100 0 -172 -71.5t-72 -171.5t72 -172t172 -72q99 0 170 72
t71 172t-70.5 171.5t-170.5 71.5z" />
    <glyph glyph-name="A" unicode="A" 
d="M952 2h-102l-150 510h-312l-150 -510h-102l358 1225h100zM416 614h256l-128 439z" />
    <glyph glyph-name="B" unicode="B" 
d="M136 1227h400q109 0 186.5 -78.5t77.5 -187.5v-132q0 -98 -60 -167q92 -19 152 -92t60 -169v-133q0 -109 -78.5 -187.5t-187.5 -78.5h-550v1225zM238 104h428q75 0 129.5 55t54.5 130v92q0 75 -54.5 128.5t-129.5 53.5h-428v-459zM238 666h274q75 0 129.5 54.5
t54.5 129.5v90q0 75 -54.5 129.5t-129.5 54.5h-274v-458z" />
    <glyph glyph-name="C" unicode="C" 
d="M948 360q-19 -152 -134 -256t-270 -104q-168 0 -288 121.5t-120 290.5v407q0 169 119.5 288.5t288.5 119.5t288.5 -119.5t119.5 -288.5h-102q0 127 -89 216t-217 89t-217 -89t-89 -216v-407q0 -128 89.5 -218t216.5 -90q113 0 198 73t104 183h102z" />
    <glyph glyph-name="D" unicode="D" 
d="M136 1227h408q169 0 288.5 -119.5t119.5 -288.5v-407q0 -169 -119.5 -289.5t-288.5 -120.5h-408v1225zM238 104h306q127 0 216.5 90t89.5 218v407q0 127 -89 216t-217 89h-306v-1020z" />
    <glyph glyph-name="E" unicode="E" 
d="M136 2v1225h816v-103h-714v-407h510v-103h-510v-510h714v-102h-816z" />
    <glyph glyph-name="F" unicode="F" 
d="M136 2v1225h816v-103h-714v-407h510v-103h-510v-612h-102z" />
    <glyph glyph-name="G" unicode="G" 
d="M952 614v-202q0 -169 -119.5 -289.5t-288.5 -120.5t-288.5 120.5t-119.5 289.5v407q0 169 119.5 288.5t288.5 119.5t288.5 -119.5t119.5 -288.5h-102q0 127 -89 216t-217 89t-217 -89t-89 -216v-407q0 -128 89.5 -218t216.5 -90t216.5 90t89.5 218v100h-306v102h408z" />
    <glyph glyph-name="H" unicode="H" 
d="M850 2v510h-612v-510h-102v1225h102v-613h612v613h102v-1225h-102z" />
    <glyph glyph-name="I" unicode="I" 
d="M136 104h358v1020h-358v103h816v-103h-358v-1020h358v-102h-816v102z" />
    <glyph glyph-name="J" unicode="J" 
d="M952 1227v-815q0 -169 -119.5 -289.5t-288.5 -120.5t-288.5 120.5t-119.5 289.5h102q0 -128 89.5 -218t216.5 -90t216.5 90t89.5 218v815h102z" />
    <glyph glyph-name="K" unicode="K" 
d="M136 2v1225h102v-613h230q32 0 78.5 31t92 80.5t77.5 123t32 148.5v230h102v-230q0 -120 -63.5 -228.5t-156.5 -180.5q143 -50 232.5 -176t89.5 -283v-127h-102v127q0 158 -112 270.5t-270 112.5h-230v-510h-102z" />
    <glyph glyph-name="L" unicode="L" 
d="M136 1227h102v-1123h714v-102h-816v1225z" />
    <glyph glyph-name="M" unicode="M" 
d="M136 1227h102l306 -561l306 561h102v-1225h-102v1020l-256 -459h-100l-256 459v-1020h-102v1225z" />
    <glyph glyph-name="N" unicode="N" 
d="M238 1022v-1020h-102v1225h102l612 -1020v1020h102v-1225h-102z" />
    <glyph glyph-name="O" unicode="O" 
d="M952 819v-407q0 -169 -119.5 -289.5t-288.5 -120.5t-288.5 120.5t-119.5 289.5v407q0 169 119.5 288.5t288.5 119.5t288.5 -119.5t119.5 -288.5zM850 819q0 127 -89 216t-217 89t-217 -89t-89 -216v-407q0 -128 89.5 -218t216.5 -90t216.5 90t89.5 218v407z" />
    <glyph glyph-name="P" unicode="P" 
d="M622 1227q136 0 233 -97.5t97 -234.5q0 -78 -45 -154.5t-122.5 -127t-162.5 -50.5h-384v-561h-102v1225h486zM622 666q95 0 161.5 67t66.5 162t-66.5 162t-161.5 67h-384v-458h384z" />
    <glyph glyph-name="Q" unicode="Q" 
d="M752 59q-94 -57 -208 -57q-169 0 -288.5 120.5t-119.5 289.5v407q0 169 119.5 288.5t288.5 119.5t288.5 -119.5t119.5 -288.5v-407q0 -159 -110 -279l110 -131h-152zM776 213q74 87 74 199v407q0 127 -89 216t-217 89t-217 -89t-89 -216v-407q0 -128 89.5 -218t216.5 -90
q75 0 140 35l-140 170h152z" />
    <glyph glyph-name="R" unicode="R" 
d="M238 2h-102v1225h486q136 0 233 -97.5t97 -234.5q0 -92 -62.5 -179.5t-157.5 -127.5q101 -65 160.5 -173.5t59.5 -234.5v-178h-102v178q0 158 -112 270.5t-270 112.5h-230v-561zM622 1124h-384v-458h384q95 0 161.5 67t66.5 162t-66.5 162t-161.5 67z" />
    <glyph glyph-name="S" unicode="S" 
d="M136 870q0 82 21 145t57 102.5t89.5 64.5t111.5 35t129 10q181 0 294.5 -89t113.5 -268h-102q0 68 -23.5 118.5t-66 79.5t-96.5 42.5t-120 13.5q-69 0 -119.5 -10t-95.5 -35.5t-68 -75.5t-23 -124v-9q0 -30 9 -52.5t21.5 -38t37.5 -27t45 -17.5t58 -10t63 -5t72 -3
q406 -14 408 -357v-8q0 -85 -21.5 -148t-57 -101t-90 -61.5t-111 -31.5t-128.5 -8t-129.5 10t-111 37.5t-89 72.5t-57 118.5t-21.5 171.5h102q0 -87 23.5 -149t66.5 -95.5t96 -48.5t120 -15q53 0 94 5.5t82.5 21.5t68.5 43t44 73.5t17 108.5q0 255 -306 258q-65 1 -106 3
t-89 8t-76.5 17t-57.5 29.5t-44.5 45.5t-25 65t-9.5 88z" />
    <glyph glyph-name="T" unicode="T" 
d="M494 2v1122h-359v103h817v-103h-358v-1122h-100z" />
    <glyph glyph-name="U" unicode="U" 
d="M952 1227v-815q0 -169 -119.5 -289.5t-288.5 -120.5t-288.5 120.5t-119.5 289.5v815h102v-815q0 -128 89.5 -218t216.5 -90t216.5 90t89.5 218v815h102z" />
    <glyph glyph-name="V" unicode="V" 
d="M136 1227h102l306 -1049l306 1049h102l-358 -1225h-100z" />
    <glyph glyph-name="W" unicode="W" 
d="M694 291l156 936h102l-204 -1225h-102l-102 545l-102 -545h-102l-204 1225h102l156 -936l100 528h100z" />
    <glyph glyph-name="X" unicode="X" 
d="M494 614l-358 613h102l306 -525l306 525h102l-358 -613l358 -612h-102l-306 524l-306 -524h-102z" />
    <glyph glyph-name="Y" unicode="Y" 
d="M494 614l-358 613h102l306 -525l306 525h102l-358 -613v-612h-100v612z" />
    <glyph glyph-name="Z" unicode="Z" 
d="M136 2v102l714 1020h-714v103h816v-103l-714 -1020h714v-102h-816z" />
    <glyph glyph-name="bracketleft" unicode="[" 
d="M902 1124h-612v-1018h612v-102h-716v1223h716v-103z" />
    <glyph glyph-name="backslash" unicode="\" 
d="M950 6h-102l-710 1221h102z" />
    <glyph glyph-name="bracketright" unicode="]" 
d="M186 1124v103h716v-1223h-716v102h614v1018h-614z" />
    <glyph glyph-name="asciicircum" unicode="^" 
d="M544 1626l358 -356h-102l-256 256l-254 -256h-104z" />
    <glyph glyph-name="underscore" unicode="_" 
d="M136 -104v102h816v-102h-816z" />
    <glyph glyph-name="grave" unicode="`" 
d="M544 1219l-102 407h102l101 -407h-101z" />
    <glyph glyph-name="a" unicode="a" 
d="M604 715h-120q-101 0 -173.5 -72.5t-72.5 -173.5v-123q0 -101 72.5 -172.5t173.5 -71.5h120q77 0 148 43.5t98 110.5v305q-27 67 -98 110.5t-148 43.5zM628 0h-166q-135 0 -230.5 96.5t-95.5 231.5v161q0 135 95.5 230.5t230.5 95.5h166q128 0 222 -84v84h102v-815h-102
v86q-96 -86 -222 -86z" />
    <glyph glyph-name="b" unicode="b" 
d="M484 717q-77 0 -148 -43.5t-98 -110.5v-305q27 -67 98 -110.5t148 -43.5h120q101 0 173.5 71.5t72.5 172.5v123q0 101 -72.5 173.5t-173.5 72.5h-120zM462 2q-128 0 -224 86v-86h-102v1225h102v-494q94 84 224 84h166q135 0 229.5 -95t94.5 -230v-162
q0 -135 -94.5 -231.5t-229.5 -96.5h-166z" />
    <glyph glyph-name="c" unicode="c" 
d="M628 0h-166q-135 0 -230.5 96.5t-95.5 231.5v161q0 135 95.5 230.5t230.5 95.5h166q116 0 207.5 -72.5t116.5 -181.5h-102q-27 67 -98 110.5t-148 43.5h-120q-101 0 -173.5 -72.5t-72.5 -173.5v-123q0 -101 72.5 -172.5t173.5 -71.5h120q77 0 148 43.5t98 110.5h102
q-25 -110 -116.5 -183t-207.5 -73z" />
    <glyph glyph-name="d" unicode="d" 
d="M604 717h-120q-101 0 -173.5 -72.5t-72.5 -173.5v-123q0 -101 72.5 -172.5t173.5 -71.5h120q77 0 148 43.5t98 110.5v305q-27 67 -98 110.5t-148 43.5zM628 2h-166q-135 0 -230.5 96.5t-95.5 231.5v162q0 135 95.5 230t230.5 95h166q128 0 222 -84v494h102v-1225h-102v86
q-96 -86 -222 -86z" />
    <glyph glyph-name="e" unicode="e" 
d="M850 561q-27 67 -98 110.5t-148 43.5h-120q-101 0 -173.5 -72.5t-72.5 -173.5v-8h612v100zM628 815q116 0 207.5 -72.5t116.5 -181.5v-203h-714v-12q0 -101 72.5 -172.5t173.5 -71.5h120q77 0 148 43.5t98 110.5h102q-25 -110 -116.5 -183t-207.5 -73h-166
q-135 0 -230.5 96.5t-95.5 231.5v161q0 135 95.5 230.5t230.5 95.5h166z" />
    <glyph glyph-name="f" unicode="f" 
d="M238 717v182q0 135 95.5 231.5t230.5 96.5h64q116 0 207.5 -73t116.5 -183h-102q-27 67 -97.5 110t-148.5 43h-18q-102 0 -174 -71t-72 -172v-164h460v-103h-460v-612h-102v612h-102v103h102z" />
    <glyph glyph-name="g" unicode="g" 
d="M604 715h-120q-101 0 -173.5 -72.5t-72.5 -173.5v-123q0 -101 72.5 -172.5t173.5 -71.5h120q77 0 148 43.5t98 110.5v305q-27 67 -98 110.5t-148 43.5zM850 86q-96 -86 -222 -86h-166q-135 0 -230.5 96.5t-95.5 231.5v161q0 135 95.5 230.5t230.5 95.5h166q128 0 222 -84
v84h102v-897q0 -135 -94.5 -230.5t-229.5 -95.5h-166q-116 0 -208.5 73.5t-117.5 182.5h102q27 -67 97.5 -110t148.5 -43h120q101 0 173.5 72.5t72.5 173.5v145z" />
    <glyph glyph-name="h" unicode="h" 
d="M952 2h-102v469q0 101 -72.5 173.5t-173.5 72.5h-120q-77 0 -148 -43.5t-98 -110.5v-561h-102v1225h102v-494q94 84 224 84h166q135 0 229.5 -95t94.5 -230v-490z" />
    <glyph glyph-name="i" unicode="i" 
d="M575 1323q41 0 72 -31t31 -72t-31 -71.5t-72 -30.5t-71.5 30.5t-30.5 71.5t30.5 72t71.5 31zM952 0h-132q-135 0 -230.5 96.5t-95.5 231.5v387h-358v100h232h126q59 0 79.5 -20t20.5 -80v-369q0 -101 72.5 -172.5t173.5 -71.5h112v-102z" />
    <glyph glyph-name="j" unicode="j" 
d="M731 1317q41 0 72 -31t31 -72t-31 -71.5t-72 -30.5t-71.5 30.5t-30.5 71.5t30.5 72t71.5 31zM952 717h-306v-797q0 -135 -95.5 -230.5t-230.5 -95.5h-52q-59 0 -132 27v113q72 -37 154 -37h10q101 0 172.5 72.5t71.5 173.5v874h408v-100z" />
    <glyph glyph-name="k" unicode="k" 
d="M136 2v1225h102v-715h230q43 0 108 43t118.5 116.5t53.5 145.5h102q0 -59 -17.5 -111t-52 -96.5t-68.5 -77t-82 -69.5q142 -50 232 -177t90 -284h-102q0 105 -51 199t-139.5 152.5t-191.5 58.5h-230v-410h-102z" />
    <glyph glyph-name="l" unicode="l" 
d="M136 1223h306v-815q0 -128 89 -217t217 -89h204v-102h-204q-169 0 -288.5 119.5t-119.5 288.5v712h-204v103z" />
    <glyph glyph-name="m" unicode="m" 
d="M594 0h-100v512q0 203 -102 203h-2q-57 0 -104.5 -45.5t-47.5 -108.5v-561h-102v815h102v-84q0 1 4 7l6 9t8 10t10.5 11.5t12 11t15 11t18.5 9.5t22 8t25 5t29 2h4q62 0 97 -20t55 -80q49 70 82 85t104 15q101 0 161.5 -94t60.5 -232v-489h-102v469q0 102 -34.5 174
t-85.5 72h-2q-42 0 -73.5 -32t-46 -77.5t-14.5 -93.5v-512z" />
    <glyph glyph-name="n" unicode="n" 
d="M952 0h-102v469q0 101 -72.5 173.5t-173.5 72.5h-120q-77 0 -148 -43.5t-98 -110.5v-561h-102v815h102v-84q94 84 224 84h166q135 0 229.5 -95.5t94.5 -230.5v-489z" />
    <glyph glyph-name="o" unicode="o" 
d="M604 715h-120q-101 0 -173.5 -72.5t-72.5 -173.5v-123q0 -101 72.5 -172.5t173.5 -71.5h120q101 0 173.5 71.5t72.5 172.5v123q0 101 -72.5 173.5t-173.5 72.5zM628 815q135 0 229.5 -95.5t94.5 -230.5v-161q0 -135 -94.5 -231.5t-229.5 -96.5h-166q-135 0 -230.5 96.5
t-95.5 231.5v161q0 135 95.5 230.5t230.5 95.5h166z" />
    <glyph glyph-name="p" unicode="p" 
d="M484 102h120q101 0 173.5 71.5t72.5 172.5v123q0 101 -72.5 173.5t-173.5 72.5h-120q-77 0 -148 -43.5t-98 -110.5v-305q27 -67 98 -110.5t148 -43.5zM462 815h166q135 0 229.5 -95.5t94.5 -230.5v-161q0 -135 -94.5 -231.5t-229.5 -96.5h-166q-128 0 -224 86v-494h-102
v1223h102v-84q94 84 224 84z" />
    <glyph glyph-name="q" unicode="q" 
d="M604 102q77 0 148 43.5t98 110.5v305q-27 67 -98 110.5t-148 43.5h-120q-101 0 -173.5 -72.5t-72.5 -173.5v-123q0 -101 72.5 -172.5t173.5 -71.5h120zM952 815v-1223h-102v494q-96 -86 -222 -86h-166q-135 0 -230.5 96.5t-95.5 231.5v161q0 135 95.5 230.5t230.5 95.5
h166q128 0 222 -84v84h102z" />
    <glyph glyph-name="r" unicode="r" 
d="M240 0h-102v815h102v-84q94 84 224 84h164q129 0 221.5 -87.5t100.5 -215.5h-104q-13 88 -82 145.5t-160 57.5h-120q-77 0 -146.5 -43.5t-97.5 -110.5v-561z" />
    <glyph glyph-name="s" unicode="s" 
d="M136 561q0 254 326 254h166q322 0 324 -254h-114q-2 32 -11 56.5t-20.5 40.5t-31.5 27.5t-36.5 17t-43.5 8.5t-43.5 3.5t-45.5 0.5h-126q-28 0 -44.5 -0.5t-44 -3t-43.5 -8t-36.5 -16t-31.5 -25.5t-19 -38t-8 -53v-6q1 -29 22.5 -50t49.5 -31t73.5 -15.5t74 -6.5t71.5 -1
q220 0 318 -51q90 -53 90 -154q0 -256 -324 -256h-166q-65 0 -119 11.5t-102.5 38.5t-76 79.5t-28.5 126.5h114q2 -32 11 -56.5t20.5 -40.5t31.5 -27.5t36.5 -17t43.5 -8.5t43.5 -3.5t45.5 -0.5h124q39 0 64 1.5t60 9.5t55.5 22.5t35.5 43t15 69.5v4q0 24 -14 43t-40 30
t-53 18t-64.5 10t-62.5 4t-58 1q-222 0 -318 52q-90 49 -90 151z" />
    <glyph glyph-name="t" unicode="t" 
d="M238 717h-102v100h102v410h102v-410h460v-100h-460v-369q0 -101 72.5 -172.5t173.5 -71.5h18q77 0 148 43.5t98 110.5h102q-25 -110 -116.5 -183t-207.5 -73h-64q-135 0 -230.5 96.5t-95.5 231.5v387z" />
    <glyph glyph-name="u" unicode="u" 
d="M136 815h102v-469q0 -101 72.5 -172.5t173.5 -71.5h120q77 0 148 43.5t98 110.5v559h102v-815h-102v86q-96 -86 -222 -86h-166q-135 0 -230.5 96.5t-95.5 231.5v487z" />
    <glyph glyph-name="v" unicode="v" 
d="M136 815h102l306 -661l306 661h102l-358 -815h-100z" />
    <glyph glyph-name="w" unicode="w" 
d="M136 815h102l132 -633l174 279l170 -279l136 633h102l-152 -815h-104l-152 254l-152 -254h-102z" />
    <glyph glyph-name="x" unicode="x" 
d="M442 410l-306 405h154l254 -354l256 354h152l-306 -405l306 -410h-152l-256 358l-254 -358h-154z" />
    <glyph glyph-name="y" unicode="y" 
d="M136 815h102v-469q0 -101 72.5 -172.5t173.5 -71.5h120q77 0 148 43.5t98 110.5v559h102v-897q0 -135 -94.5 -230.5t-229.5 -95.5h-166q-116 0 -208.5 73.5t-117.5 182.5h102q27 -67 97.5 -110t148.5 -43h120q101 0 173.5 72.5t72.5 173.5v145q-96 -86 -222 -86h-166
q-135 0 -230.5 96.5t-95.5 231.5v487z" />
    <glyph glyph-name="z" unicode="z" 
d="M136 102l664 613h-664v100h816v-100l-662 -613h662v-102h-816v102z" />
    <glyph glyph-name="braceleft" unicode="{" 
d="M902 1124h-56q-15 0 -33 -1t-54.5 -7.5t-69 -17.5t-69.5 -34.5t-63.5 -54t-44.5 -80t-18 -110.5q0 -53 -12.5 -92.5t-30 -60t-40 -33.5t-37.5 -16t-28 -3q13 0 27.5 -3t37.5 -15t40 -32t30 -59.5t13 -92.5q0 -61 17.5 -110.5t44 -80.5t63.5 -54t69.5 -34t68.5 -18t54 -8
t33 -1h58v-102h-52q-99 0 -180 29t-131 73.5t-84.5 100.5t-48.5 107.5t-14 97.5q0 40 -16 70.5t-38.5 45t-45 23.5t-38.5 11l-16 1h-52v103h52q6 0 16.5 1.5t37 11t47 24.5t37 45.5t16.5 70.5q0 46 14 97.5t48.5 107.5t84.5 100.5t131 73.5t180 29h52v-103z" />
    <glyph glyph-name="bar" unicode="|" 
d="M494 4v1223h100v-1223h-100z" />
    <glyph glyph-name="braceright" unicode="}" 
d="M186 1124v103h52q99 0 180 -29t131 -73.5t84.5 -100.5t48.5 -107.5t14 -97.5q0 -40 16 -70.5t38.5 -45.5t45 -24t38.5 -11l16 -2h52v-103h-52q-3 0 -8.5 -0.5t-21.5 -4.5t-30.5 -9.5t-32.5 -17t-30.5 -27t-21.5 -39.5t-9 -53q0 -46 -14 -97.5t-48.5 -107.5t-84.5 -100.5
t-131 -73.5t-180 -29h-52v102h58q15 0 33 1t54 8t68.5 18t69.5 34t63.5 54t44 80.5t17.5 110.5q0 53 13 92.5t30 59.5t40 32t37.5 15t27.5 3q-13 0 -28 3t-37.5 16t-40 33.5t-30 60t-12.5 92.5q0 61 -18 110.5t-44.5 80t-63.5 54t-69.5 34.5t-69 17.5t-54.5 7.5t-33 1h-56z
" />
    <glyph glyph-name="asciitilde" unicode="~" 
d="M494 588q0 53 -37 90t-89 37q-53 0 -91.5 -37.5t-38.5 -89.5h-102q0 95 68 161t164 66q95 0 160.5 -66t65.5 -161q0 -53 38 -91t90 -38t90 38t38 91h102q0 -95 -67.5 -163.5t-162.5 -68.5t-161.5 68t-66.5 164z" />
    <glyph glyph-name="exclamdown" unicode="&#xa1;" 
d="M594 1124h-100v103h100v-103zM594 2h-100v918h100v-918z" />
    <glyph glyph-name="cent" unicode="&#xa2;" 
d="M688 768q74 -19 129.5 -72t77.5 -125h-119q-27 47 -73.5 75t-102.5 28h-100q-85 0 -145 -60t-60 -145v-100q0 -85 60 -145t145 -60h100q56 0 102.5 27.5t73.5 74.5h119q-26 -90 -102 -147.5t-172 -57.5h-109l-12 -51h-103l15 60q-95 24 -157 100t-62 176v143
q0 118 83.5 201.5t202.5 83.5h109l12 51h102z" />
    <glyph glyph-name="sterling" unicode="&#xa3;" 
d="M542 1178q142 0 260 -87.5t152 -218.5h-2h-106q-32 89 -117 145t-185 56h-2q-115 0 -192 -55q-107 -74 -107 -207q0 -116 71 -215l128 2v-109h-86q35 -69 35 -141q0 -96 -61 -201q41 -3 143.5 -16.5t150.5 -13.5q145 0 206 100h20l106 -2q0 -40 -48 -93.5t-110 -82.5
q-80 -39 -174 -39q-62 0 -159.5 23.5t-150.5 23.5q-83 0 -180 -43v96q63 38 104.5 104t41.5 144q0 56 -28 123l-6 16h-112l-2 107h76l-20 33q-56 90 -56 190q0 147 114.5 254t293.5 107h2z" />
    <glyph glyph-name="currency" unicode="&#xa4;" 
d="M310 725q67 49 164 49h142q95 0 162 -49l104 100l70 -71l-102 -101q52 -71 52 -164v-143q0 -91 -52 -162l102 -100l-70 -74l-104 103q-71 -52 -164 -52h-140q-96 0 -164 52l-102 -103l-72 74l102 100q-52 71 -52 162v143q0 93 52 164l-102 101l72 71zM594 674h-100
q-85 0 -144.5 -60t-59.5 -145v-100q0 -85 59.5 -145t144.5 -60h100h2q85 0 144.5 60t59.5 145v100q0 85 -60.5 145t-145.5 60z" />
    <glyph glyph-name="yen" unicode="&#xa5;" 
d="M494 614l-358 613h102l306 -525l306 525h102l-358 -613h256l-50 -102h-206v-100h256l-50 -103h-206v-307h-100v307h-256l52 103h204v100h-256l52 102h204z" />
    <glyph glyph-name="brokenbar" unicode="&#xa6;" 
d="M594 463v-461h-100v461h100zM594 717h-100v510h100v-510z" />
    <glyph glyph-name="section" unicode="&#xa7;" 
d="M324 862q-66 51 -66 121q0 55 42 100l66 70q32 35 81.5 54.5t104.5 19.5q68 0 128 -31l134 -72l-72 -77l-112 61q-37 16 -72 16q-64 0 -102 -41l-38 -39q-23 -23 -23 -57q0 -50 55 -78l406 -217q41 -24 69 -62t28 -81q0 -49 -41 -96l-68 -70q-43 -46 -108 -64
q21 -40 21 -71q0 -57 -41 -101l-66 -69q-32 -35 -81.5 -54.5t-104.5 -19.5q-70 0 -130 31l-132 71l71 78l113 -59q44 -19 72 -19q66 0 104 41l34 39q26 26 26 56q0 49 -54 77l-336 179q-46 24 -71 62t-25 79q0 55 40 98l68 72q31 34 80 53zM762 627l-256 135q-31 16 -72 16
q-68 0 -104 -39l-34 -41q-23 -23 -23 -55q0 -51 53 -78l256 -137q37 -16 72 -16q66 0 104 41l36 39q22 22 22 57q0 50 -54 78z" />
    <glyph glyph-name="dieresis" unicode="&#xa8;" 
d="M367 1626q32 0 53.5 -22t21.5 -54t-21.5 -53.5t-53.5 -21.5q-33 0 -55.5 21.5t-22.5 53.5t23 54t55 22zM721 1626q32 0 55 -22t23 -54t-22.5 -53.5t-55.5 -21.5q-32 0 -54 21.5t-22 53.5t22 54t54 22z" />
    <glyph glyph-name="copyright" unicode="&#xa9;" 
d="M544 1626q169 0 289 -119t120 -288t-120 -288.5t-289 -119.5t-288.5 119.5t-119.5 288.5t119.5 288t288.5 119zM544 1575q-148 0 -252.5 -104t-104.5 -252t104.5 -252.5t252.5 -104.5t253 104.5t105 252.5t-105 252t-253 104zM724 1038q-73 -73 -180 -73q-106 0 -180 74
t-74 180t74 181t180 75q104 0 180 -76l-36 -35q-59 59 -144 59t-144 -59.5t-59 -144.5t59 -144t144 -59t144 59z" />
    <glyph glyph-name="ordfeminine" unicode="&#xaa;" 
d="M574.226 1553.35h-59.8457q-50.3711 0 -86.5283 -34.4092q-36.1562 -34.4092 -36.1562 -82.3447v-58.377q0 -47.9355 36.1562 -81.8701q36.1572 -33.9346 86.5283 -33.9346h59.8457q38.4014 0 73.8105 20.6455t48.874 52.4443v144.756q-13.4648 31.7988 -48.874 52.4443
t-73.8105 20.6455zM586.195 1214h-82.7871q-67.3271 0 -114.955 45.7998q-47.627 45.7998 -47.627 109.872v76.4121q0 64.0723 47.627 109.397q47.6279 45.3252 114.955 45.3252h82.7871q63.8359 0 110.715 -39.8672v39.8672h50.8691v-386.807h-50.8691v40.8164
q-47.877 -40.8164 -110.715 -40.8164z" />
    <glyph glyph-name="guillemotleft" unicode="&#xab;" 
d="M176 455l428 186v-72q-56 -25 -167 -72.5t-167 -72.5q56 -25 167 -74.5t167 -73.5v-71l-428 186v6v58zM484 455l428 186v-66v-6q-57 -24 -168.5 -72t-167.5 -73q57 -25 168.5 -74.5t167.5 -73.5v-71l-428 186v64z" />
    <glyph glyph-name="logicalnot" unicode="&#xac;" 
d="M952 627v-385h-102v282h-714v103h816z" />
    <glyph glyph-name="uni00AD" unicode="&#xad;" 
d="M136 414v102h816v-102h-816z" />
    <glyph glyph-name="registered" unicode="&#xae;" 
d="M544 1626q169 0 289 -119t120 -288t-120 -288.5t-289 -119.5t-288.5 119.5t-119.5 288.5t119.5 288t288.5 119zM544 1575q-148 0 -252.5 -104t-104.5 -252t104.5 -252.5t252.5 -104.5t253 104.5t105 252.5t-105 252t-253 104zM443 965h-51v510h254q41 0 71.5 -31
t30.5 -72v-51q0 -41 -30.5 -71.5t-71.5 -30.5h-46l148 -254h-60l-144 254h-101v-254zM443 1270h193q26 0 43 17.5t17 43.5v31q0 26 -17 43.5t-43 17.5h-193v-153z" />
    <glyph glyph-name="macron" unicode="&#xaf;" 
d="M136 1524v102h816v-102h-816z" />
    <glyph glyph-name="degree" unicode="&#xb0;" 
d="M543 1636q89 0 152 -63t63 -152t-63 -151t-152 -62t-151 62t-62 151t62 152t151 63zM543 1565q-60 0 -101 -42t-41 -102t41 -100.5t101 -40.5t101.5 40.5t41.5 100.5t-41.5 102t-101.5 42z" />
    <glyph glyph-name="plusminus" unicode="&#xb1;" 
d="M952 256v-102h-816v102h816zM594 766h358v-102h-358v-359h-100v359h-358v102h358v354h100v-354z" />
    <glyph glyph-name="uni00B2" unicode="&#xb2;" 
d="M420.238 1210.61v94.1953q0 105.24 123.715 109.536q42.1484 1.53418 67.3154 16.415t25.4707 45.5635v3.375q0 22.7051 -6.21582 37.8926q-6.2168 15.1875 -19.1035 23.165t-28.6543 11.0459t-38.8125 3.06836q-42.1484 0 -67.4668 -22.5518
q-25.3193 -22.5518 -25.3193 -71.6436h-30.9287q0 125.798 123.715 125.798q20.0127 0 37.1445 -3.06836q17.1328 -3.06836 33.3545 -10.8916q16.2227 -7.82422 27.7451 -20.0977q11.5225 -12.2725 18.4961 -31.6025q6.97461 -19.3301 6.97461 -44.4893
q0 -51.8535 -30.1709 -72.2568q-30.1709 -20.4043 -93.5439 -21.3242q-92.7861 -0.920898 -92.7861 -77.9336v-62.8984h216.501v-31.2969h-247.43z" />
    <glyph glyph-name="uni00B3" unicode="&#xb3;" 
d="M508.749 1388.54v35.2236h35.0186q32.6152 0 53.043 3.76172t31.9297 12.8242q11.501 9.0625 15.6211 21.2031q4.12012 12.1396 4.46289 31.291v3.76172q0 25.3066 -7.03809 42.2344t-21.6289 25.8193q-14.5918 8.8916 -32.4443 12.3115t-43.9453 3.41992
q-47.7217 0 -76.3896 -25.1357q-28.667 -25.1357 -28.667 -79.8525h-35.0195q0 140.212 140.076 140.212q22.6592 0 42.0566 -3.41992q19.3984 -3.41992 37.7656 -12.1396q18.3682 -8.7207 31.4141 -22.4004q13.0469 -13.6787 20.9434 -35.2236t7.89648 -49.5869
q0 -12.6533 -1.5459 -23.2549q-1.54492 -10.6016 -3.94824 -17.9541q-2.40234 -7.35254 -6.35059 -13.8496q-3.94824 -6.49805 -7.20996 -10.4307t-8.75488 -7.69434t-8.58301 -5.47168t-8.58301 -4.44629q-5.49316 -2.73535 -7.20996 -3.76172
q1.03027 -0.683594 7.20996 -3.76172t8.75488 -4.61621q2.57422 -1.53906 8.41113 -5.81445q5.83691 -4.27441 8.75488 -8.03613t7.20996 -10.4307q4.29102 -6.66797 6.35059 -14.0205q2.06055 -7.35254 3.77734 -17.7832t1.7168 -22.3994q0 -28.043 -7.89648 -49.5879
t-20.7715 -35.0527t-31.4141 -22.2285t-37.9375 -12.1406q-19.3975 -3.41992 -42.0566 -3.41992q-140.076 0 -140.076 140.212h35.0195q0 -55.0586 28.8389 -80.1943q28.8389 -25.1348 76.2178 -25.1348q26.0928 0 43.9453 3.41895q17.8525 3.41992 32.4443 12.4824
q14.5908 9.0625 21.6289 25.9902q7.03809 16.9287 7.03809 42.2354v3.41992q-0.342773 19.1504 -4.29102 31.1201q-3.94824 11.9688 -14.9346 21.2021t-31.0713 13.166q-20.084 3.93359 -51.3262 3.93359h-38.4521z" />
    <glyph glyph-name="acute" unicode="&#xb4;" 
d="M544 1219h-102l102 407h101z" />
    <glyph glyph-name="mu" unicode="&#xb5;" 
d="M238 815v-559q27 -67 98 -110.5t148 -43.5h120q101 0 173.5 71.5t72.5 172.5v469h102v-815h-102v90q-93 -90 -222 -90h-166q-128 0 -224 86v-494h-102v1223h102z" />
    <glyph glyph-name="paragraph" unicode="&#xb6;" 
d="M850 1227q22 0 37 -14.5t15 -36.5t-15 -37t-37 -15h-50v-1120h-104v1120h-152v-1120h-102v815h-50q-85 0 -145.5 60t-60.5 145q0 84 60.5 143.5t145.5 59.5h458z" />
    <glyph glyph-name="periodcentered" unicode="&#xb7;" 
d="M544 207q41 0 71 -31t30 -72t-30 -71.5t-71 -30.5t-71.5 30.5t-30.5 71.5t30.5 72t71.5 31z" />
    <glyph glyph-name="cedilla" unicode="&#xb8;" 
d="M528 -70l24 64h62l-22 -64v-4q28 -8 45.5 -31.5t17.5 -54.5v-43q0 -37 -26 -63.5t-63 -26.5h-44q-37 0 -63.5 26.5t-26.5 63.5v37h66q0 -1 -1 -2t-1 -2v-20q0 -15 12.5 -27t27.5 -12h18q15 0 26.5 12t11.5 27v20q0 15 -11.5 26t-26.5 11h-18h-8v63z" />
    <glyph glyph-name="uni00B9" unicode="&#xb9;" 
d="M402.273 1228.61h159.198v322.448l-159.198 -44.9229v33.2754l194.652 62.8926v-373.693h88.9844v-33.9414h-283.637v33.9414z" />
    <glyph glyph-name="ordmasculine" unicode="&#xba;" 
d="M574.226 1578.46h-59.8457q-50.3711 0 -86.5283 -35.0283q-36.1562 -35.0283 -36.1562 -83.8271v-59.4277q0 -48.7988 36.1562 -83.3447q36.1572 -34.5459 86.5283 -34.5459h59.8457q50.3711 0 86.5283 34.5459q36.1562 34.5459 36.1562 83.3447v59.4277
q0 48.7988 -36.1562 83.8271q-36.1572 35.0283 -86.5283 35.0283zM586.195 1626.77q67.3271 0 114.456 -46.1406q47.1279 -46.1416 47.1279 -111.367v-77.7881q0 -65.2256 -47.1279 -111.851q-47.1289 -46.624 -114.456 -46.624h-82.7871q-67.3271 0 -114.955 46.624
q-47.627 46.625 -47.627 111.851v77.7881q0 65.2256 47.627 111.367q47.6279 46.1406 114.955 46.1406h82.7871z" />
    <glyph glyph-name="guillemotright" unicode="&#xbb;" 
d="M912 455v-64l-428 -186v71q57 24 167.5 73.5t166.5 74.5q-56 25 -166.5 72.5t-167.5 72.5v72zM604 455v-64l-428 -186v14v57q56 24 168 73.5t168 74.5q-56 25 -168 73l-168 72v72z" />
    <glyph glyph-name="onequarter" unicode="&#xbc;" 
d="M188 -2h-61q128 206 385 616.5t385 616.5h64q-128 -206 -386.5 -616.5t-386.5 -616.5zM956 -2h-55v223h-315l114 322h58q-16 -44 -47.5 -133.5t-48.5 -133.5h239v267h55v-545zM498 686h-369v55h201v412q-34 -10 -100.5 -29.5t-100.5 -29.5v55l256 84v-492h113v-55z" />
    <glyph glyph-name="onehalf" unicode="&#xbd;" 
d="M643 354h-55v6q0 183 184 183q79 0 131.5 -36.5t52.5 -123.5q0 -76 -45.5 -106.5t-138.5 -32.5q-129 0 -129 -107v-84h313v-55h-368v139q0 47 17 80.5t46.5 50t58.5 23.5t62 8q129 3 129 84v4q0 59 -31 80.5t-98 21.5q-129 0 -129 -129v-6zM188 -2h-61q128 206 385 616.5
t385 616.5h64q-128 -206 -386.5 -616.5t-386.5 -616.5zM385 741h113v-55h-369v55h201v412q-34 -10 -100.5 -29.5t-100.5 -29.5v55l256 84v-492z" />
    <glyph glyph-name="threequarters" unicode="&#xbe;" 
d="M190 -2h-63q128 206 385 616.5t385 616.5h64q-128 -206 -385.5 -616.5t-385.5 -616.5zM956 -2h-55v223h-313l114 322h56q-16 -44 -47.5 -133.5t-48.5 -133.5h239v267h55v-545zM313 741q67 0 98 21t31 80v6q0 46 -24 65t-99 19h-6h-49v53h49q79 0 104 18.5t25 65.5v6
q0 60 -31.5 81.5t-97.5 21.5q-129 0 -129 -129v-7h-53v7q0 182 182 182q79 0 132 -37.5t53 -124.5t-60 -111q17 -8 28 -16.5t21.5 -33t10.5 -60.5q0 -87 -53 -124.5t-132 -37.5q-182 0 -182 184v4h53v-4q0 -129 129 -129z" />
    <glyph glyph-name="questiondown" unicode="&#xbf;" 
d="M494 1073v154h100v-154h-100zM850 360h102q0 -176 -114.5 -267t-293.5 -91q-80 0 -151.5 21t-130 63t-92.5 112.5t-34 161.5q0 34 5.5 67t20.5 68t37 60.5t58.5 42t82.5 16.5q39 0 70.5 21.5t48.5 54t26 65.5t9 62v154h100v-154q0 -127 -69.5 -216t-184.5 -89
q-102 0 -102 -152v-6q0 -109 83.5 -179.5t222.5 -70.5q130 0 218 72t88 184z" />
    <glyph glyph-name="Agrave" unicode="&#xc0;" 
d="M544 1534l-102 407h102l101 -407h-101zM952 2h-102l-150 510h-312l-150 -510h-102l358 1225h100zM416 614h256l-128 439z" />
    <glyph glyph-name="Aacute" unicode="&#xc1;" 
d="M544 1534h-102l102 407h101zM952 2h-102l-150 510h-312l-150 -510h-102l358 1225h100zM416 614h256l-128 439z" />
    <glyph glyph-name="Acircumflex" unicode="&#xc2;" 
d="M544 1890l358 -356h-102l-256 256l-254 -256h-104zM952 2h-102l-150 510h-312l-150 -510h-102l358 1225h100zM416 614h256l-128 439z" />
    <glyph glyph-name="Atilde" unicode="&#xc3;" 
d="M494 1766q0 53 -37 90t-89 37q-53 0 -91.5 -37.5t-38.5 -89.5h-102q0 95 68 161t164 66q95 0 160.5 -66t65.5 -161q0 -53 38 -91t90 -38t90 38t38 91h102q0 -95 -67.5 -163.5t-162.5 -68.5t-161.5 68t-66.5 164zM952 2h-102l-150 510h-312l-150 -510h-102l358 1225h100z
M416 614h256l-128 439z" />
    <glyph glyph-name="Adieresis" unicode="&#xc4;" 
d="M367 1685q32 0 53.5 -22t21.5 -54t-21.5 -53.5t-53.5 -21.5q-33 0 -55.5 21.5t-22.5 53.5t23 54t55 22zM721 1685q32 0 55 -22t23 -54t-22.5 -53.5t-55.5 -21.5q-32 0 -54 21.5t-22 53.5t22 54t54 22zM952 2h-102l-150 510h-312l-150 -510h-102l358 1225h100zM416 614
h256l-128 439z" />
    <glyph glyph-name="Aring" unicode="&#xc5;" 
d="M543 1804q89 0 152 -63t63 -152t-63 -151t-152 -62t-151 62t-62 151t62 152t151 63zM543 1733q-60 0 -101 -42t-41 -102t41 -100.5t101 -40.5t101.5 40.5t41.5 100.5t-41.5 102t-101.5 42zM952 2h-102l-150 510h-312l-150 -510h-102l358 1225h100zM416 614h256l-128 439z
" />
    <glyph glyph-name="AE" unicode="&#xc6;" 
d="M952 1227v-103h-306v-510h204v-102h-204v-408h306v-102h-408v510h-156l-150 -510h-102l358 1225h458zM416 614h128v439z" />
    <glyph glyph-name="Ccedilla" unicode="&#xc7;" 
d="M490 -71l24 64h62l-22 -64v-4q28 -8 45.5 -31.5t17.5 -54.5v-43q0 -37 -26 -63.5t-63 -26.5h-44q-37 0 -63.5 26.5t-26.5 63.5v37h66q0 -1 -1 -2t-1 -2v-20q0 -15 12.5 -27t27.5 -12h18q15 0 26.5 12t11.5 27v20q0 15 -11.5 26t-26.5 11h-18h-8v63zM948 360
q-19 -152 -134 -256t-270 -104q-168 0 -288 121.5t-120 290.5v407q0 169 119.5 288.5t288.5 119.5t288.5 -119.5t119.5 -288.5h-102q0 127 -89 216t-217 89t-217 -89t-89 -216v-407q0 -128 89.5 -218t216.5 -90q113 0 198 73t104 183h102z" />
    <glyph glyph-name="Egrave" unicode="&#xc8;" 
d="M544 1534l-102 407h102l101 -407h-101zM136 2v1225h816v-103h-714v-407h510v-103h-510v-510h714v-102h-816z" />
    <glyph glyph-name="Eacute" unicode="&#xc9;" 
d="M544 1534h-102l102 407h101zM136 2v1225h816v-103h-714v-407h510v-103h-510v-510h714v-102h-816z" />
    <glyph glyph-name="Ecircumflex" unicode="&#xca;" 
d="M544 1890l358 -356h-102l-256 256l-254 -256h-104zM136 2v1225h816v-103h-714v-407h510v-103h-510v-510h714v-102h-816z" />
    <glyph glyph-name="Edieresis" unicode="&#xcb;" 
d="M367 1685q32 0 53.5 -22t21.5 -54t-21.5 -53.5t-53.5 -21.5q-33 0 -55.5 21.5t-22.5 53.5t23 54t55 22zM721 1685q32 0 55 -22t23 -54t-22.5 -53.5t-55.5 -21.5q-32 0 -54 21.5t-22 53.5t22 54t54 22zM136 2v1225h816v-103h-714v-407h510v-103h-510v-510h714v-102h-816z
" />
    <glyph glyph-name="Igrave" unicode="&#xcc;" 
d="M544 1534l-102 407h102l101 -407h-101zM136 104h358v1020h-358v103h816v-103h-358v-1020h358v-102h-816v102z" />
    <glyph glyph-name="Iacute" unicode="&#xcd;" 
d="M544 1534h-102l102 407h101zM136 104h358v1020h-358v103h816v-103h-358v-1020h358v-102h-816v102z" />
    <glyph glyph-name="Icircumflex" unicode="&#xce;" 
d="M544 1890l358 -356h-102l-256 256l-254 -256h-104zM136 104h358v1020h-358v103h816v-103h-358v-1020h358v-102h-816v102z" />
    <glyph glyph-name="Idieresis" unicode="&#xcf;" 
d="M367 1685q32 0 53.5 -22t21.5 -54t-21.5 -53.5t-53.5 -21.5q-33 0 -55.5 21.5t-22.5 53.5t23 54t55 22zM721 1685q32 0 55 -22t23 -54t-22.5 -53.5t-55.5 -21.5q-32 0 -54 21.5t-22 53.5t22 54t54 22zM136 104h358v1020h-358v103h816v-103h-358v-1020h358v-102h-816v102z
" />
    <glyph glyph-name="Eth" unicode="&#xd0;" 
d="M238 614v613h306q169 0 288.5 -119.5t119.5 -288.5v-407q0 -169 -119.5 -288.5t-288.5 -119.5h-306v508h-102v102h102zM544 1124h-204v-510h204v-102h-204v-406h204q128 0 217 89t89 217v407q0 127 -89 216t-217 89z" />
    <glyph glyph-name="Ntilde" unicode="&#xd1;" 
d="M494 1766q0 53 -37 90t-89 37q-53 0 -91.5 -37.5t-38.5 -89.5h-102q0 95 68 161t164 66q95 0 160.5 -66t65.5 -161q0 -53 38 -91t90 -38t90 38t38 91h102q0 -95 -67.5 -163.5t-162.5 -68.5t-161.5 68t-66.5 164zM238 1022v-1020h-102v1225h102l612 -1020v1020h102v-1225
h-102z" />
    <glyph glyph-name="Ograve" unicode="&#xd2;" 
d="M544 1534l-102 407h102l101 -407h-101zM952 819v-407q0 -169 -119.5 -289.5t-288.5 -120.5t-288.5 120.5t-119.5 289.5v407q0 169 119.5 288.5t288.5 119.5t288.5 -119.5t119.5 -288.5zM850 819q0 127 -89 216t-217 89t-217 -89t-89 -216v-407q0 -128 89.5 -218
t216.5 -90t216.5 90t89.5 218v407z" />
    <glyph glyph-name="Oacute" unicode="&#xd3;" 
d="M544 1534h-102l102 407h101zM952 819v-407q0 -169 -119.5 -289.5t-288.5 -120.5t-288.5 120.5t-119.5 289.5v407q0 169 119.5 288.5t288.5 119.5t288.5 -119.5t119.5 -288.5zM850 819q0 127 -89 216t-217 89t-217 -89t-89 -216v-407q0 -128 89.5 -218t216.5 -90t216.5 90
t89.5 218v407z" />
    <glyph glyph-name="Ocircumflex" unicode="&#xd4;" 
d="M544 1890l358 -356h-102l-256 256l-254 -256h-104zM952 819v-407q0 -169 -119.5 -289.5t-288.5 -120.5t-288.5 120.5t-119.5 289.5v407q0 169 119.5 288.5t288.5 119.5t288.5 -119.5t119.5 -288.5zM850 819q0 127 -89 216t-217 89t-217 -89t-89 -216v-407
q0 -128 89.5 -218t216.5 -90t216.5 90t89.5 218v407z" />
    <glyph glyph-name="Otilde" unicode="&#xd5;" 
d="M494 1766q0 53 -37 90t-89 37q-53 0 -91.5 -37.5t-38.5 -89.5h-102q0 95 68 161t164 66q95 0 160.5 -66t65.5 -161q0 -53 38 -91t90 -38t90 38t38 91h102q0 -95 -67.5 -163.5t-162.5 -68.5t-161.5 68t-66.5 164zM952 819v-407q0 -169 -119.5 -289.5t-288.5 -120.5
t-288.5 120.5t-119.5 289.5v407q0 169 119.5 288.5t288.5 119.5t288.5 -119.5t119.5 -288.5zM850 819q0 127 -89 216t-217 89t-217 -89t-89 -216v-407q0 -128 89.5 -218t216.5 -90t216.5 90t89.5 218v407z" />
    <glyph glyph-name="Odieresis" unicode="&#xd6;" 
d="M367 1685q32 0 53.5 -22t21.5 -54t-21.5 -53.5t-53.5 -21.5q-33 0 -55.5 21.5t-22.5 53.5t23 54t55 22zM721 1685q32 0 55 -22t23 -54t-22.5 -53.5t-55.5 -21.5q-32 0 -54 21.5t-22 53.5t22 54t54 22zM952 819v-407q0 -169 -119.5 -289.5t-288.5 -120.5t-288.5 120.5
t-119.5 289.5v407q0 169 119.5 288.5t288.5 119.5t288.5 -119.5t119.5 -288.5zM850 819q0 127 -89 216t-217 89t-217 -89t-89 -216v-407q0 -128 89.5 -218t216.5 -90t216.5 90t89.5 218v407z" />
    <glyph glyph-name="multiply" unicode="&#xd7;" 
d="M869 743l-253 -251l253 -252l-71 -72l-254 252l-252 -252l-72 72l252 252l-252 251l72 74l252 -254l254 254z" />
    <glyph glyph-name="Oslash" unicode="&#xd8;" 
d="M800 1137l50 90h102l-90 -154q90 -115 90 -254v-407q0 -169 -119.5 -289.5t-288.5 -120.5q-139 0 -254 90l-52 -90h-102l90 154q-90 115 -90 256v407q0 169 119.5 288.5t288.5 119.5q141 0 256 -90zM806 977l-464 -797q86 -76 202 -76q127 0 216.5 90t89.5 218v407
q0 90 -44 158zM746 1049q-85 75 -202 75q-128 0 -217 -89t-89 -216v-407q0 -87 46 -158z" />
    <glyph glyph-name="Ugrave" unicode="&#xd9;" 
d="M544 1534l-102 407h102l101 -407h-101zM952 1227v-815q0 -169 -119.5 -289.5t-288.5 -120.5t-288.5 120.5t-119.5 289.5v815h102v-815q0 -128 89.5 -218t216.5 -90t216.5 90t89.5 218v815h102z" />
    <glyph glyph-name="Uacute" unicode="&#xda;" 
d="M544 1534h-102l102 407h101zM952 1227v-815q0 -169 -119.5 -289.5t-288.5 -120.5t-288.5 120.5t-119.5 289.5v815h102v-815q0 -128 89.5 -218t216.5 -90t216.5 90t89.5 218v815h102z" />
    <glyph glyph-name="Ucircumflex" unicode="&#xdb;" 
d="M544 1890l358 -356h-102l-256 256l-254 -256h-104zM952 1227v-815q0 -169 -119.5 -289.5t-288.5 -120.5t-288.5 120.5t-119.5 289.5v815h102v-815q0 -128 89.5 -218t216.5 -90t216.5 90t89.5 218v815h102z" />
    <glyph glyph-name="Udieresis" unicode="&#xdc;" 
d="M367 1685q32 0 53.5 -22t21.5 -54t-21.5 -53.5t-53.5 -21.5q-33 0 -55.5 21.5t-22.5 53.5t23 54t55 22zM721 1685q32 0 55 -22t23 -54t-22.5 -53.5t-55.5 -21.5q-32 0 -54 21.5t-22 53.5t22 54t54 22zM952 1227v-815q0 -169 -119.5 -289.5t-288.5 -120.5t-288.5 120.5
t-119.5 289.5v815h102v-815q0 -128 89.5 -218t216.5 -90t216.5 90t89.5 218v815h102z" />
    <glyph glyph-name="Yacute" unicode="&#xdd;" 
d="M544 1534h-102l102 407h101zM494 614l-358 613h102l306 -525l306 525h102l-358 -613v-612h-100v612z" />
    <glyph glyph-name="Thorn" unicode="&#xde;" 
d="M136 1227h102v-408h306q169 0 288.5 -119t119.5 -288t-119.5 -288.5t-288.5 -119.5h-306v-407h-102v1630zM544 717h-306v-611h306q128 0 217 89t89 217q0 127 -89 216t-217 89z" />
    <glyph glyph-name="germandbls" unicode="&#xdf;" 
d="M138 952q0 109 77.5 187t186.5 78h134q109 0 186.5 -78t77.5 -187v-131q0 -96 -62 -168q92 -19 152 -91.5t60 -166.5v-133q0 -109 -77.5 -185.5t-186.5 -76.5h-346v100h328q75 0 127.5 55t52.5 130v90q0 75 -53.5 128.5t-128.5 53.5h-326v102h174q75 0 128.5 54t53.5 129
v92q0 75 -53.5 128.5t-128.5 53.5h-92q-75 0 -128.5 -53.5t-53.5 -128.5v-1137h-102v1155z" />
    <glyph glyph-name="agrave" unicode="&#xe0;" 
d="M544 1123l-102 407h102l101 -407h-101zM604 715h-120q-101 0 -173.5 -72.5t-72.5 -173.5v-123q0 -101 72.5 -172.5t173.5 -71.5h120q77 0 148 43.5t98 110.5v305q-27 67 -98 110.5t-148 43.5zM628 0h-166q-135 0 -230.5 96.5t-95.5 231.5v161q0 135 95.5 230.5
t230.5 95.5h166q128 0 222 -84v84h102v-815h-102v86q-96 -86 -222 -86z" />
    <glyph glyph-name="aacute" unicode="&#xe1;" 
d="M544 1123h-102l102 407h101zM604 715h-120q-101 0 -173.5 -72.5t-72.5 -173.5v-123q0 -101 72.5 -172.5t173.5 -71.5h120q77 0 148 43.5t98 110.5v305q-27 67 -98 110.5t-148 43.5zM628 0h-166q-135 0 -230.5 96.5t-95.5 231.5v161q0 135 95.5 230.5t230.5 95.5h166
q128 0 222 -84v84h102v-815h-102v86q-96 -86 -222 -86z" />
    <glyph glyph-name="acircumflex" unicode="&#xe2;" 
d="M544 1479l358 -356h-102l-256 256l-254 -256h-104zM604 715h-120q-101 0 -173.5 -72.5t-72.5 -173.5v-123q0 -101 72.5 -172.5t173.5 -71.5h120q77 0 148 43.5t98 110.5v305q-27 67 -98 110.5t-148 43.5zM628 0h-166q-135 0 -230.5 96.5t-95.5 231.5v161
q0 135 95.5 230.5t230.5 95.5h166q128 0 222 -84v84h102v-815h-102v86q-96 -86 -222 -86z" />
    <glyph glyph-name="atilde" unicode="&#xe3;" 
d="M494 1354q0 53 -37 90t-89 37q-53 0 -91.5 -37.5t-38.5 -89.5h-102q0 95 68 161t164 66q95 0 160.5 -66t65.5 -161q0 -53 38 -91t90 -38t90 38t38 91h102q0 -95 -67.5 -163.5t-162.5 -68.5t-161.5 68t-66.5 164zM604 715h-120q-101 0 -173.5 -72.5t-72.5 -173.5v-123
q0 -101 72.5 -172.5t173.5 -71.5h120q77 0 148 43.5t98 110.5v305q-27 67 -98 110.5t-148 43.5zM628 0h-166q-135 0 -230.5 96.5t-95.5 231.5v161q0 135 95.5 230.5t230.5 95.5h166q128 0 222 -84v84h102v-815h-102v86q-96 -86 -222 -86z" />
    <glyph glyph-name="adieresis" unicode="&#xe4;" 
d="M367 1274q32 0 53.5 -22t21.5 -54t-21.5 -53.5t-53.5 -21.5q-33 0 -55.5 21.5t-22.5 53.5t23 54t55 22zM721 1274q32 0 55 -22t23 -54t-22.5 -53.5t-55.5 -21.5q-32 0 -54 21.5t-22 53.5t22 54t54 22zM604 715h-120q-101 0 -173.5 -72.5t-72.5 -173.5v-123
q0 -101 72.5 -172.5t173.5 -71.5h120q77 0 148 43.5t98 110.5v305q-27 67 -98 110.5t-148 43.5zM628 0h-166q-135 0 -230.5 96.5t-95.5 231.5v161q0 135 95.5 230.5t230.5 95.5h166q128 0 222 -84v84h102v-815h-102v86q-96 -86 -222 -86z" />
    <glyph glyph-name="aring" unicode="&#xe5;" 
d="M543 1550q89 0 152 -63t63 -152t-63 -151t-152 -62t-151 62t-62 151t62 152t151 63zM543 1479q-60 0 -101 -42t-41 -102t41 -100.5t101 -40.5t101.5 40.5t41.5 100.5t-41.5 102t-101.5 42zM604 715h-120q-101 0 -173.5 -72.5t-72.5 -173.5v-123q0 -101 72.5 -172.5
t173.5 -71.5h120q77 0 148 43.5t98 110.5v305q-27 67 -98 110.5t-148 43.5zM628 0h-166q-135 0 -230.5 96.5t-95.5 231.5v161q0 135 95.5 230.5t230.5 95.5h166q128 0 222 -84v84h102v-815h-102v86q-96 -86 -222 -86z" />
    <glyph glyph-name="ae" unicode="&#xe6;" 
d="M412 0h-92q-75 0 -129.5 54.5t-54.5 129.5v449q0 75 54.5 128.5t129.5 53.5h92q80 0 132 -55q52 55 132 55h92q75 0 129.5 -53.5t54.5 -128.5v-275h-358v-153q0 -41 30.5 -72t71.5 -31h52q41 0 71.5 31t30.5 72v51h102v-72q0 -75 -54.5 -129.5t-129.5 -54.5h-92
q-40 0 -82 20v-20h-100v20q-42 -20 -82 -20zM392 715h-52q-41 0 -71.5 -31t-30.5 -72v-407q0 -41 30.5 -72t71.5 -31h52q41 0 71.5 31t30.5 72v407q0 41 -30.5 72t-71.5 31zM748 715h-52q-41 0 -71.5 -31t-30.5 -72v-151h256v151q0 41 -30.5 72t-71.5 31z" />
    <glyph glyph-name="ccedilla" unicode="&#xe7;" 
d="M502 -69l24 64h62l-22 -64v-4q28 -8 45.5 -31.5t17.5 -54.5v-43q0 -37 -26 -63.5t-63 -26.5h-44q-37 0 -63.5 26.5t-26.5 63.5v37h66q0 -1 -1 -2t-1 -2v-20q0 -15 12.5 -27t27.5 -12h18q15 0 26.5 12t11.5 27v20q0 15 -11.5 26t-26.5 11h-18h-8v63zM628 0h-166
q-135 0 -230.5 96.5t-95.5 231.5v161q0 135 95.5 230.5t230.5 95.5h166q116 0 207.5 -72.5t116.5 -181.5h-102q-27 67 -98 110.5t-148 43.5h-120q-101 0 -173.5 -72.5t-72.5 -173.5v-123q0 -101 72.5 -172.5t173.5 -71.5h120q77 0 148 43.5t98 110.5h102
q-25 -110 -116.5 -183t-207.5 -73z" />
    <glyph glyph-name="egrave" unicode="&#xe8;" 
d="M544 1123l-102 407h102l101 -407h-101zM850 561q-27 67 -98 110.5t-148 43.5h-120q-101 0 -173.5 -72.5t-72.5 -173.5v-8h612v100zM628 815q116 0 207.5 -72.5t116.5 -181.5v-203h-714v-12q0 -101 72.5 -172.5t173.5 -71.5h120q77 0 148 43.5t98 110.5h102
q-25 -110 -116.5 -183t-207.5 -73h-166q-135 0 -230.5 96.5t-95.5 231.5v161q0 135 95.5 230.5t230.5 95.5h166z" />
    <glyph glyph-name="eacute" unicode="&#xe9;" 
d="M544 1123h-102l102 407h101zM850 561q-27 67 -98 110.5t-148 43.5h-120q-101 0 -173.5 -72.5t-72.5 -173.5v-8h612v100zM628 815q116 0 207.5 -72.5t116.5 -181.5v-203h-714v-12q0 -101 72.5 -172.5t173.5 -71.5h120q77 0 148 43.5t98 110.5h102q-25 -110 -116.5 -183
t-207.5 -73h-166q-135 0 -230.5 96.5t-95.5 231.5v161q0 135 95.5 230.5t230.5 95.5h166z" />
    <glyph glyph-name="ecircumflex" unicode="&#xea;" 
d="M544 1479l358 -356h-102l-256 256l-254 -256h-104zM850 561q-27 67 -98 110.5t-148 43.5h-120q-101 0 -173.5 -72.5t-72.5 -173.5v-8h612v100zM628 815q116 0 207.5 -72.5t116.5 -181.5v-203h-714v-12q0 -101 72.5 -172.5t173.5 -71.5h120q77 0 148 43.5t98 110.5h102
q-25 -110 -116.5 -183t-207.5 -73h-166q-135 0 -230.5 96.5t-95.5 231.5v161q0 135 95.5 230.5t230.5 95.5h166z" />
    <glyph glyph-name="edieresis" unicode="&#xeb;" 
d="M367 1274q32 0 53.5 -22t21.5 -54t-21.5 -53.5t-53.5 -21.5q-33 0 -55.5 21.5t-22.5 53.5t23 54t55 22zM721 1274q32 0 55 -22t23 -54t-22.5 -53.5t-55.5 -21.5q-32 0 -54 21.5t-22 53.5t22 54t54 22zM850 561q-27 67 -98 110.5t-148 43.5h-120q-101 0 -173.5 -72.5
t-72.5 -173.5v-8h612v100zM628 815q116 0 207.5 -72.5t116.5 -181.5v-203h-714v-12q0 -101 72.5 -172.5t173.5 -71.5h120q77 0 148 43.5t98 110.5h102q-25 -110 -116.5 -183t-207.5 -73h-166q-135 0 -230.5 96.5t-95.5 231.5v161q0 135 95.5 230.5t230.5 95.5h166z" />
    <glyph glyph-name="igrave" unicode="&#xec;" 
d="M545 1123l-102 407h102l101 -407h-101zM952 0h-132q-135 0 -230.5 96.5t-95.5 231.5v387h-358v100h232h126q59 0 79.5 -20t20.5 -80v-369q0 -101 72.5 -172.5t173.5 -71.5h112v-102z" />
    <glyph glyph-name="iacute" unicode="&#xed;" 
d="M545 1123h-102l102 407h101zM952 0h-132q-135 0 -230.5 96.5t-95.5 231.5v387h-358v100h232h126q59 0 79.5 -20t20.5 -80v-369q0 -101 72.5 -172.5t173.5 -71.5h112v-102z" />
    <glyph glyph-name="icircumflex" unicode="&#xee;" 
d="M545 1479l358 -356h-102l-256 256l-254 -256h-104zM952 0h-132q-135 0 -230.5 96.5t-95.5 231.5v387h-358v100h232h126q59 0 79.5 -20t20.5 -80v-369q0 -101 72.5 -172.5t173.5 -71.5h112v-102z" />
    <glyph glyph-name="idieresis" unicode="&#xef;" 
d="M368 1274q32 0 53.5 -22t21.5 -54t-21.5 -53.5t-53.5 -21.5q-33 0 -55.5 21.5t-22.5 53.5t23 54t55 22zM722 1274q32 0 55 -22t23 -54t-22.5 -53.5t-55.5 -21.5q-32 0 -54 21.5t-22 53.5t22 54t54 22zM952 0h-132q-135 0 -230.5 96.5t-95.5 231.5v387h-358v100h232h126
q59 0 79.5 -20t20.5 -80v-369q0 -101 72.5 -172.5t173.5 -71.5h112v-102z" />
    <glyph glyph-name="eth" unicode="&#xf0;" 
d="M582 1159l118 68l52 -88l-72 -41q126 -93 199 -233.5t73 -301.5v-305q-25 -109 -116.5 -181.5t-207.5 -72.5h-166q-135 0 -230.5 95.5t-95.5 230.5v164q0 135 95.5 230t230.5 95h166q104 0 186 -57q-64 175 -230 280l-142 -81l-50 88l80 47q-80 28 -182 28
q-84 0 -154 -20v104q78 19 154 19q153 0 292 -68zM850 563q-27 67 -98 110.5t-148 43.5h-120q-101 0 -173.5 -71.5t-72.5 -172.5v-123q0 -101 72.5 -172.5t173.5 -71.5h120q78 0 148.5 42.5t97.5 109.5v305z" />
    <glyph glyph-name="ntilde" unicode="&#xf1;" 
d="M494 1354q0 53 -37 90t-89 37q-53 0 -91.5 -37.5t-38.5 -89.5h-102q0 95 68 161t164 66q95 0 160.5 -66t65.5 -161q0 -53 38 -91t90 -38t90 38t38 91h102q0 -95 -67.5 -163.5t-162.5 -68.5t-161.5 68t-66.5 164zM952 0h-102v469q0 101 -72.5 173.5t-173.5 72.5h-120
q-77 0 -148 -43.5t-98 -110.5v-561h-102v815h102v-84q94 84 224 84h166q135 0 229.5 -95.5t94.5 -230.5v-489z" />
    <glyph glyph-name="ograve" unicode="&#xf2;" 
d="M544 1123l-102 407h102l101 -407h-101zM604 715h-120q-101 0 -173.5 -72.5t-72.5 -173.5v-123q0 -101 72.5 -172.5t173.5 -71.5h120q101 0 173.5 71.5t72.5 172.5v123q0 101 -72.5 173.5t-173.5 72.5zM628 815q135 0 229.5 -95.5t94.5 -230.5v-161q0 -135 -94.5 -231.5
t-229.5 -96.5h-166q-135 0 -230.5 96.5t-95.5 231.5v161q0 135 95.5 230.5t230.5 95.5h166z" />
    <glyph glyph-name="oacute" unicode="&#xf3;" 
d="M544 1123h-102l102 407h101zM604 715h-120q-101 0 -173.5 -72.5t-72.5 -173.5v-123q0 -101 72.5 -172.5t173.5 -71.5h120q101 0 173.5 71.5t72.5 172.5v123q0 101 -72.5 173.5t-173.5 72.5zM628 815q135 0 229.5 -95.5t94.5 -230.5v-161q0 -135 -94.5 -231.5
t-229.5 -96.5h-166q-135 0 -230.5 96.5t-95.5 231.5v161q0 135 95.5 230.5t230.5 95.5h166z" />
    <glyph glyph-name="ocircumflex" unicode="&#xf4;" 
d="M544 1479l358 -356h-102l-256 256l-254 -256h-104zM604 715h-120q-101 0 -173.5 -72.5t-72.5 -173.5v-123q0 -101 72.5 -172.5t173.5 -71.5h120q101 0 173.5 71.5t72.5 172.5v123q0 101 -72.5 173.5t-173.5 72.5zM628 815q135 0 229.5 -95.5t94.5 -230.5v-161
q0 -135 -94.5 -231.5t-229.5 -96.5h-166q-135 0 -230.5 96.5t-95.5 231.5v161q0 135 95.5 230.5t230.5 95.5h166z" />
    <glyph glyph-name="otilde" unicode="&#xf5;" 
d="M494 1354q0 53 -37 90t-89 37q-53 0 -91.5 -37.5t-38.5 -89.5h-102q0 95 68 161t164 66q95 0 160.5 -66t65.5 -161q0 -53 38 -91t90 -38t90 38t38 91h102q0 -95 -67.5 -163.5t-162.5 -68.5t-161.5 68t-66.5 164zM604 715h-120q-101 0 -173.5 -72.5t-72.5 -173.5v-123
q0 -101 72.5 -172.5t173.5 -71.5h120q101 0 173.5 71.5t72.5 172.5v123q0 101 -72.5 173.5t-173.5 72.5zM628 815q135 0 229.5 -95.5t94.5 -230.5v-161q0 -135 -94.5 -231.5t-229.5 -96.5h-166q-135 0 -230.5 96.5t-95.5 231.5v161q0 135 95.5 230.5t230.5 95.5h166z" />
    <glyph glyph-name="odieresis" unicode="&#xf6;" 
d="M367 1274q32 0 53.5 -22t21.5 -54t-21.5 -53.5t-53.5 -21.5q-33 0 -55.5 21.5t-22.5 53.5t23 54t55 22zM721 1274q32 0 55 -22t23 -54t-22.5 -53.5t-55.5 -21.5q-32 0 -54 21.5t-22 53.5t22 54t54 22zM604 715h-120q-101 0 -173.5 -72.5t-72.5 -173.5v-123
q0 -101 72.5 -172.5t173.5 -71.5h120q101 0 173.5 71.5t72.5 172.5v123q0 101 -72.5 173.5t-173.5 72.5zM628 815q135 0 229.5 -95.5t94.5 -230.5v-161q0 -135 -94.5 -231.5t-229.5 -96.5h-166q-135 0 -230.5 96.5t-95.5 231.5v161q0 135 95.5 230.5t230.5 95.5h166z" />
    <glyph glyph-name="divide" unicode="&#xf7;" 
d="M494 213h100v-102h-100v102zM952 569v-100h-816v100h816zM594 823h-100v103h100v-103z" />
    <glyph glyph-name="oslash" unicode="&#xf8;" 
d="M222 106q-86 92 -86 222v161q0 135 95.5 230.5t230.5 95.5h166q80 0 142 -33l30 33h152l-86 -104q86 -92 86 -222v-161q0 -135 -94.5 -231.5t-229.5 -96.5h-166q-79 0 -144 35l-28 -35h-154zM796 625l-408 -502q51 -21 96 -21h120q101 0 173.5 71.5t72.5 172.5v123
q0 90 -54 156zM604 715h-120q-101 0 -173.5 -72.5t-72.5 -173.5v-123q0 -82 56 -151l406 499q-51 21 -96 21z" />
    <glyph glyph-name="ugrave" unicode="&#xf9;" 
d="M544 1123l-102 407h102l101 -407h-101zM136 815h102v-469q0 -101 72.5 -172.5t173.5 -71.5h120q77 0 148 43.5t98 110.5v559h102v-815h-102v86q-96 -86 -222 -86h-166q-135 0 -230.5 96.5t-95.5 231.5v487z" />
    <glyph glyph-name="uacute" unicode="&#xfa;" 
d="M544 1123h-102l102 407h101zM136 815h102v-469q0 -101 72.5 -172.5t173.5 -71.5h120q77 0 148 43.5t98 110.5v559h102v-815h-102v86q-96 -86 -222 -86h-166q-135 0 -230.5 96.5t-95.5 231.5v487z" />
    <glyph glyph-name="ucircumflex" unicode="&#xfb;" 
d="M544 1479l358 -356h-102l-256 256l-254 -256h-104zM136 815h102v-469q0 -101 72.5 -172.5t173.5 -71.5h120q77 0 148 43.5t98 110.5v559h102v-815h-102v86q-96 -86 -222 -86h-166q-135 0 -230.5 96.5t-95.5 231.5v487z" />
    <glyph glyph-name="udieresis" unicode="&#xfc;" 
d="M367 1274q32 0 53.5 -22t21.5 -54t-21.5 -53.5t-53.5 -21.5q-33 0 -55.5 21.5t-22.5 53.5t23 54t55 22zM721 1274q32 0 55 -22t23 -54t-22.5 -53.5t-55.5 -21.5q-32 0 -54 21.5t-22 53.5t22 54t54 22zM136 815h102v-469q0 -101 72.5 -172.5t173.5 -71.5h120
q77 0 148 43.5t98 110.5v559h102v-815h-102v86q-96 -86 -222 -86h-166q-135 0 -230.5 96.5t-95.5 231.5v487z" />
    <glyph glyph-name="yacute" unicode="&#xfd;" 
d="M544 1123h-102l102 407h101zM136 815h102v-469q0 -101 72.5 -172.5t173.5 -71.5h120q77 0 148 43.5t98 110.5v559h102v-897q0 -135 -94.5 -230.5t-229.5 -95.5h-166q-116 0 -208.5 73.5t-117.5 182.5h102q27 -67 97.5 -110t148.5 -43h120q101 0 173.5 72.5t72.5 173.5
v145q-96 -86 -222 -86h-166q-135 0 -230.5 96.5t-95.5 231.5v487z" />
    <glyph glyph-name="thorn" unicode="&#xfe;" 
d="M462 4q-130 0 -224 84v-491h-102v1630h102v-494q96 86 224 86h166q135 0 229.5 -95t94.5 -230v-164q0 -135 -94.5 -230.5t-229.5 -95.5h-166zM484 717q-77 0 -148 -43.5t-98 -110.5v-305q27 -67 97.5 -109.5t148.5 -42.5h120q101 0 173.5 71.5t72.5 172.5v121
q0 101 -72.5 173.5t-173.5 72.5h-120z" />
    <glyph glyph-name="ydieresis" unicode="&#xff;" 
d="M367 1274q32 0 53.5 -22t21.5 -54t-21.5 -53.5t-53.5 -21.5q-33 0 -55.5 21.5t-22.5 53.5t23 54t55 22zM721 1274q32 0 55 -22t23 -54t-22.5 -53.5t-55.5 -21.5q-32 0 -54 21.5t-22 53.5t22 54t54 22zM136 815h102v-469q0 -101 72.5 -172.5t173.5 -71.5h120
q77 0 148 43.5t98 110.5v559h102v-897q0 -135 -94.5 -230.5t-229.5 -95.5h-166q-116 0 -208.5 73.5t-117.5 182.5h102q27 -67 97.5 -110t148.5 -43h120q101 0 173.5 72.5t72.5 173.5v145q-96 -86 -222 -86h-166q-135 0 -230.5 96.5t-95.5 231.5v487z" />
    <glyph glyph-name="dotlessi" unicode="&#x131;" 
d="M952 0h-132q-135 0 -230.5 96.5t-95.5 231.5v387h-358v100h232h126q59 0 79.5 -20t20.5 -80v-369q0 -101 72.5 -172.5t173.5 -71.5h112v-102z" />
    <glyph glyph-name="OE" unicode="&#x152;" 
d="M952 1122h-358v-407h206v-103h-206v-510h358v-102h-358h-100v20q-42 -20 -82 -20h-92q-75 0 -129.5 54.5t-54.5 129.5v856q0 75 54.5 130t129.5 55h92q38 0 82 -21v21h458v-103zM392 1122h-52q-41 0 -71.5 -30.5t-30.5 -71.5v-815q0 -41 30.5 -72t71.5 -31h52
q41 0 71.5 31t30.5 72v815q0 41 -30.5 71.5t-71.5 30.5z" />
    <glyph glyph-name="oe" unicode="&#x153;" 
d="M594 358v-151q0 -41 30.5 -72t71.5 -31h52q41 0 71.5 31t30.5 72v49h102v-70q0 -75 -54.5 -129.5t-129.5 -54.5h-92q-78 0 -132 57q-54 -57 -132 -57h-92q-75 0 -129.5 54.5t-54.5 129.5v449q0 75 54.5 128.5t129.5 53.5h92q80 0 132 -55q52 55 132 55h92
q75 0 129.5 -53.5t54.5 -128.5v-277h-358zM392 717h-52q-41 0 -71.5 -31t-30.5 -72v-407q0 -41 30.5 -72t71.5 -31h52q41 0 71.5 31t30.5 72v407q0 41 -30.5 72t-71.5 31zM748 717h-52q-41 0 -71.5 -31t-30.5 -72v-153h256v153q0 41 -30.5 72t-71.5 31z" />
    <glyph glyph-name="dotlessj" unicode="&#x237;" 
d="M952 717h-306v-797q0 -135 -95.5 -230.5t-230.5 -95.5h-52q-59 0 -132 27v113q72 -37 154 -37h10q101 0 172.5 72.5t71.5 173.5v874h408v-100z" />
    <glyph glyph-name="perthousand" unicode="&#x2030;" 
d="M186 0h-50v51l766 1174h50v-51zM544 356q74 0 126 -52t52 -126t-52 -126t-126 -52q-73 0 -124.5 52t-51.5 126t51.5 126t124.5 52zM544 281q-41 0 -71.5 -31t-30.5 -72t30.5 -70.5t71.5 -29.5t71.5 29.5t30.5 70.5t-30.5 72t-71.5 31zM772 688q74 0 127 -52.5t53 -125.5
t-53 -125.5t-127 -52.5t-126 52t-52 126t52 126t126 52zM772 612q-41 0 -70.5 -30.5t-29.5 -71.5t29.5 -71.5t70.5 -30.5t71.5 30.5t30.5 71.5t-30.5 71.5t-71.5 30.5zM368 1225q95 0 160.5 -68t65.5 -164q0 -95 -65.5 -161t-160.5 -66q-96 0 -164 66t-68 161t68.5 163.5
t163.5 68.5zM368 1133q-57 0 -98.5 -41.5t-41.5 -98.5t41.5 -97t98.5 -40t95.5 40t38.5 97q0 58 -39 99t-95 41z" />
    <glyph glyph-name="euro" unicode="&#x20ac;" 
d="M290 764q12 193 153 326t335 133h174l-50 -103h-102q-156 0 -271.5 -102t-134.5 -254h456l-50 -100h-408v-103h458l-50 -102h-406q19 -152 134.5 -254.5t271.5 -102.5h152l-50 -102h-124q-194 0 -335 133t-153 326h-154l50 102h104v103h-154l50 100h104z" />
    <glyph glyph-name="trademark" unicode="&#x2122;" 
d="M645 1219h-51v407h51l127 -170l130 170h51v-407h-51v319l-102 -135h-52l-103 135v-319zM494 1577h-153v-358h-51v358h-154v49h358v-49z" />
  </font>
</defs>
</svg>
