<?xml version="1.0" standalone="no"?>
<!DOCTYPE svg PUBLIC "-//W3C//DTD SVG 1.1//EN" "http://www.w3.org/Graphics/SVG/1.1/DTD/svg11.dtd" >
<svg xmlns="http://www.w3.org/2000/svg" xmlns:xlink="http://www.w3.org/1999/xlink" version="1.1">
<metadata>
Created by FontForge 20170731 at Tue Apr 26 22:01:41 2005
 By Aleksey,,,
Typeface (c) Paradox 2005. All Rights Reserved
</metadata>
<defs>
<font id="Courier" horiz-adv-x="1195" >
  <font-face 
    font-family="Pseudo APL"
    font-weight="400"
    font-stretch="normal"
    units-per-em="2048"
    panose-1="2 0 0 0 0 0 0 0 0 0"
    ascent="1638"
    descent="-410"
    x-height="874"
    cap-height="1182"
    bbox="-66 -389 1298 1612"
    underline-thickness="150"
    underline-position="-442"
    unicode-range="U+0020-F005"
  />
<missing-glyph 
d="M127 0v1612h768v-1612h-768zM255 128h512v1356h-512v-1356z" />
    <glyph glyph-name=".notdef" 
d="M127 0v1612h768v-1612h-768zM255 128h512v1356h-512v-1356z" />
    <glyph glyph-name=".null" horiz-adv-x="0" 
 />
    <glyph glyph-name="nonmarkingreturn" horiz-adv-x="569" 
 />
    <glyph glyph-name="space" unicode=" " horiz-adv-x="569" 
 />
    <glyph glyph-name="space" unicode="&#xa0;" horiz-adv-x="569" 
 />
    <glyph glyph-name="exclam" unicode="!" 
d="M663 428q-28 -15 -50 -21q-67 17 -71 80l-45 733q-1 24 35 46q32 18 56 18h50q48 0 89 -61l5 -19q-1 -7 -3 -20l-43 -698q-2 -28 -23 -58zM746 121q0 -47 -33.5 -84t-79.5 -37h-40q-47 0 -80 36t-33 83q0 51 31.5 87t81.5 36h40q46 0 79.5 -37t33.5 -84z" />
    <glyph glyph-name="quotedbl" unicode="&#x22;" 
d="M933 1156q0 -104 -88 -498l-19 -1q-93 331 -93 519q0 108 83 108q24 0 61 -9q21 -10 40 -30q16 -35 16 -89zM542 1163q0 -108 -89 -505h-19q-94 327 -94 515q0 110 84 110q29 0 64 -9q37 -27 45.5 -44.5t8.5 -66.5z" />
    <glyph glyph-name="numbersign" unicode="#" 
d="M1062 729q0 -43 -109 -43q-22 0 -66.5 2t-61.5 2l-17 -199h147q63 0 63 -38q0 -18 -23 -37t-40 -19h-156l-31 -349q-2 -17 -21 -32.5t-38 -15.5q-56 0 -51 55l31 342h-177l-31 -349q-4 -48 -49 -48q-38 0 -59 53l31 344h-160q-39 0 -61 40l-3 16q0 38 64 38h169l15 199
q9 0 -56 -2q-50 -2 -82 0q-43 3 -52 13q-15 8 -15 28q0 17 40 48q10 7 173 7l33 350q3 26 39 44l19 4l25 -6q29 -19 26 -48l-30 -344h174l36 350q5 45 50 48q37 -7 57 -52l-32 -346h164q18 0 41.5 -19t23.5 -36zM716 690h-177l-18 -199h180z" />
    <glyph glyph-name="dollar" unicode="$" 
d="M1016 300q0 -136 -102 -221q-97 -80 -235 -80q0 -61 -16 -82q-26 -13 -41 -18q-66 13 -60 108q-105 22 -169 79q0 -62 -51 -62q-50 0 -51 65l-4 192q-1 41 27 60l22 3q37 0 49 -45q22 -76 37 -97q41 -61 140 -89l2 393q-253 67 -253 258q0 111 73 188q69 72 181 92
q1 85 1 86q10 52 57 52t55 -50v-86q117 -11 183 -66l2 -19q0 63 48 63q54 0 55 -62l4 -177q1 -66 -49 -66q-37 0 -51 50q-22 71 -44 98q-49 58 -167 76l20 -355q64 -11 179 -46q158 -76 158 -242zM565 935q-62 -13 -105 -56q-45 -46 -45 -108q0 -126 149 -161zM912 302
q0 92 -76 135q-42 25 -157 47v-382q90 0 159 53q74 59 74 147z" />
    <glyph glyph-name="percent" unicode="%" 
d="M489 973q0 -61 -43.5 -105t-104.5 -44t-105.5 44t-44.5 105q0 63 43.5 105t106.5 42t105.5 -42.5t42.5 -104.5zM1117 214q0 -87 -61 -147t-147 -60q-85 0 -146.5 61t-61.5 146q0 84 61.5 146.5t146.5 62.5q86 0 147 -61.5t61 -147.5zM839 1151q-24 -2 -125 -14
q-76 -10 -125 -10q-42 0 -124.5 17t-125.5 17q-76 0 -131 -56t-55 -132q0 -78 55 -134t133 -56q76 0 132 58t56 132q0 49 -20 82q-10 18 -52 65l7 7l1 10q80 -18 147 -18q56 0 210 23zM843 1184l27 7q65 0 65 -60q0 -11 -506 -1084q-18 -37 -73 -37q-38 0 -38 57
q0 8 515 1106zM1037 214q0 54 -37 91.5t-91 37.5q-52 0 -89.5 -36t-37.5 -88q0 -57 35.5 -95.5t91.5 -38.5q53 0 90.5 37.5t37.5 91.5z" />
    <glyph glyph-name="ampersand" unicode="&#x26;" 
d="M1014 553q0 -25 -25 -48q-23 -19 -46 -37q-16 -16 -43 -106q-30 -101 -46 -132q45 -59 54 -69q27 -30 68 -54q21 -13 21 -35q0 -67 -80 -67q-81 0 -134 115q-83 -120 -212 -120q-131 0 -216 116q-79 106 -79 242q0 205 195 328q-80 146 -80 225q0 111 73 193t182 82
q102 0 158 -70q53 -64 53 -169q0 -106 -73 -185q-49 -53 -165 -120l163 -287q30 130 41 156q41 99 112 99q79 0 79 -57zM749 957q0 41 -30.5 70.5t-72.5 29.5q-57 0 -98 -46t-41 -103q0 -79 62 -176q97 53 128 85q52 54 52 140zM717 238l-192 345q-135 -91 -135 -225
q0 -85 45 -153q52 -78 133 -78q88 0 149 111z" />
    <glyph glyph-name="quotesingle" unicode="'" 
d="M731 1150q0 -80 -32 -250q-24 -122 -49 -244l-17 -1q-89 314 -89 520q0 108 79 108q1 0 57 -9q20 -11 37 -31q14 -29 14 -93z" />
    <glyph glyph-name="parenleft" unicode="(" 
d="M789 -45q0 -18 -17 -37t-36 -19q-52 0 -142 215q-65 156 -87 245q-28 107 -28 235q0 227 120 490q91 198 136 198q44 0 54 -55q-3 -20 -37 -94q-44 -94 -48 -104q-88 -226 -88 -463q0 -111 40 -262q19 -70 57 -162q35 -79 68 -157q8 -20 8 -30z" />
    <glyph glyph-name="parenright" unicode=")" 
d="M782 588q0 -118 -25 -220q-25 -106 -91 -264q-87 -205 -141 -205q-18 0 -36.5 18.5t-18.5 35.5q0 8 53 131q56 133 60 143q60 180 60 361q0 168 -49 319q-10 31 -118 298q-4 10 -6 22q6 55 54 55q47 0 137 -200q74 -166 96 -259q25 -105 25 -235z" />
    <glyph glyph-name="asterisk" unicode="*" horiz-adv-x="1229" 
d="M557 1169h115v-311l293 96l32 -108l-288 -98l188 -256l-94 -66l-189 254l-188 -254l-94 66l188 256l-289 98l33 108l293 -96v311z" />
    <glyph glyph-name="plus" unicode="+" 
d="M1074 590q0 -60 -72 -60h-323l-3 -355q0 -20 -55 -39q-60 18 -60 74v320h-321q-62 0 -75 60q6 61 75 61h321v321q0 38 13 52q10 10 47 21q37 -10 47.5 -22.5t10.5 -50.5v-321h323q72 0 72 -61z" />
    <glyph glyph-name="comma" unicode="," 
d="M775 121q0 -61 -42.5 -106t-103.5 -45h-34q-63 0 -104.5 43.5t-41.5 106.5t41.5 106t104.5 43h34q60 0 103 -44t43 -104zM766 69q-56 -158 -159 -265q-66 -68 -88 -75l-80 -22q-6 -2 -9 5q112 188 112 285z" />
    <glyph glyph-name="hyphen" unicode="-" 
d="M1074 590q0 -51 -72 -51l-795 3q-42 0 -42 48q0 52 75 52l794 -3q14 0 27 -17.5t13 -31.5z" />
    <glyph glyph-name="hyphen" unicode="&#xad;" 
d="M1074 590q0 -51 -72 -51l-795 3q-42 0 -42 48q0 52 75 52l794 -3q14 0 27 -17.5t13 -31.5z" />
    <glyph glyph-name="period" unicode="." 
d="M776 137q0 -56 -41 -96.5t-97 -40.5h-33q-57 0 -98.5 39.5t-41.5 96.5q0 59 40.5 98.5t99.5 39.5h33q58 0 98 -39.5t40 -97.5z" />
    <glyph glyph-name="slash" unicode="/" 
d="M1074 1126q0 -29 -10 -43l-780 -1039q-11 -15 -23 -29.5t-35 -14.5q-31 0 -57 38l-4 19q0 27 12 42l804 1073q21 10 33 10q23 0 41.5 -17t18.5 -39z" />
    <glyph glyph-name="zero" unicode="0" 
d="M973 511q0 -195 -77 -337q-96 -174 -275 -174q-180 0 -276 173q-79 141 -79 338v185q0 190 76 333q94 180 267 180q189 0 286 -170q78 -138 78 -343v-185zM865 521v166q0 83 -32 189q-34 110 -70 155q-54 66 -153 66q-117 0 -184 -154q-53 -121 -52 -256l1 -217
q0 -49 29 -139q33 -106 74 -154q56 -66 151 -66q117 0 184 154q52 121 52 256z" />
    <glyph glyph-name="one" unicode="1" 
d="M965 57q0 -57 -68 -57h-576q-66 0 -66 56q0 54 66 54h234v906q-237 -75 -246 -75q-52 0 -52 55q0 22 11 40q12 10 36 18l361 115v-1059h232q68 0 68 -53z" />
    <glyph glyph-name="two" unicode="2" 
d="M933 0h-746v137q29 25 67 93.5t67 94.5q48 42 130 100q113 79 135 95q31 23 140 142q98 107 98 182q0 94 -75 159t-169 65q-99 0 -160 -51q-38 -32 -74 -101q-32 -65 -48 -75l-20 -3q-54 0 -54 51q0 46 51 127q102 166 323 166q129 0 232 -103.5t103 -231.5
q0 -51 -19 -103q-26 -74 -129 -183q-93 -98 -171 -150q-87 -55 -195 -136l-143 -203v39h549q0 82 52 82q56 0 56 -70v-123z" />
    <glyph glyph-name="three" unicode="3" 
d="M943 318q0 -157 -122 -260q-115 -97 -275 -97q-95 0 -198 39q-112 43 -165 111l-5 22q3 55 54 55l109 -57.5t208 -57.5q106 0 192 68q91 73 91 176q0 31 -22 88q-42 105 -183 143l-154 34q-16 14 -16 41q0 47 49 54q-7 -1 83 -1q79 0 141 54.5t62 133.5q0 88 -71 143
q-66 51 -155 51q-153 0 -229 -93q-7 -10 -27 -28l-26 -4q-52 0 -52 50q0 47 82 106q109 80 252 80q138 0 235 -83q101 -88 101 -224q0 -71 -41.5 -140.5t-104.5 -107.5q80 -42 133 -123q54 -84 54 -173z" />
    <glyph glyph-name="four" unicode="4" 
d="M903 56q0 -56 -69 -56h-230q-68 0 -68 56q0 34 37 51q31 7 108 4v200h-485v113l412 730h183v-730q55 0 70 -4q42 -10 42 -49q0 -43 -39 -55q-16 -5 -73 -5v-200q56 0 71 -4q41 -11 41 -51zM681 424v616h-9l-350 -616h359z" />
    <glyph glyph-name="five" unicode="5" 
d="M915 352q0 -169 -97 -278q-101 -115 -269 -115q-88 0 -147 23q-55 20 -123 65q-87 58 -87 96q0 20 16 37t37 17q3 0 103.5 -66.5t196.5 -66.5q123 0 195 86q69 80 69 205q0 105 -60 174q-64 74 -166 74q-72 0 -161.5 -36.5t-92.5 -36.5q-13 0 -38 16q-11 18 -12 41
l-22 567h557q69 0 69 -58q0 -35 -39 -56q-15 -4 -472 -4l14 -370q113 44 204 44q144 0 237 -108q88 -103 88 -250z" />
    <glyph glyph-name="six" unicode="6" 
d="M917 287q0 -146 -103 -244.5t-250 -98.5q-145 0 -249 99t-104 244v540q0 135 99.5 230t235.5 95q78 0 155 -34q94 -43 99 -111q-15 -55 -59 -55q-19 0 -66.5 41.5t-128.5 41.5q-88 0 -151 -65q-58 -60 -58 -147l-1 -271q129 73 252 73q130 0 229.5 -104t99.5 -234z
M807 284q0 101 -70.5 165t-172.5 64q-99 0 -169 -63q-73 -65 -73 -164q0 -102 70 -166.5t172 -64.5q101 0 172 65t71 164z" />
    <glyph glyph-name="seven" unicode="7" 
d="M903 985l-296 -965q-4 -12 -23 -39q-17 -11 -35 -11q-54 0 -54 68q0 2 296 974h-488q0 -58 -4 -74q-11 -41 -53 -41q-54 0 -54 64v164h711v-140z" />
    <glyph glyph-name="eight" unicode="8" 
d="M917 287q0 -146 -103 -244.5t-250 -98.5q-145 0 -249 99t-104 244q0 180 168 282q-38 29 -78 118t-40 142q0 122 90 207t213 85q122 0 212.5 -85.5t90.5 -206.5q0 -52 -39 -140t-77 -120q166 -98 166 -282zM763 827q0 79 -59.5 136.5t-139.5 57.5q-81 0 -140 -56.5
t-59 -136.5q0 -79 62 -130q57 -48 137 -48q82 0 138 47q61 50 61 130zM807 284q0 101 -70.5 164.5t-172.5 63.5q-100 0 -171 -63t-71 -163q0 -102 70 -166.5t172 -64.5q101 0 172 65t71 164z" />
    <glyph glyph-name="nine" unicode="9" 
d="M941 285q0 -135 -99 -229.5t-236 -94.5q-74 0 -154 37q-98 42 -98 106q0 57 61 57q27 0 67 -35t118 -35q91 0 154 56t63 145v269q-38 -22 -113 -47q-80 -27 -116 -27q-142 0 -246 97q-106 97 -106 240q0 145 102.5 244.5t248.5 99.5q145 0 249.5 -100.5t104.5 -243.5
v-539zM831 825q0 99 -71.5 165.5t-172.5 66.5q-98 0 -170.5 -66t-72.5 -163q0 -98 72.5 -164t170.5 -66q101 0 171 62q73 65 73 165z" />
    <glyph glyph-name="colon" unicode=":" 
d="M776 724q0 -62 -37 -105q-40 -46 -101 -46h-33q-58 0 -99 45t-41 104q0 61 39.5 106.5t100.5 45.5h33q60 0 99 -45t39 -105zM776 152q0 -62 -37 -106q-40 -46 -101 -46h-33q-61 0 -102 45q-38 43 -38 105q0 61 40 105.5t100 44.5h33q58 0 98 -45t40 -103z" />
    <glyph glyph-name="semicolon" unicode=";" 
d="M775 724q0 -64 -41.5 -109t-104.5 -45h-34q-63 0 -104.5 44.5t-41.5 107.5q0 64 41.5 108t104.5 44h34q59 0 102.5 -45.5t43.5 -104.5zM775 149q0 -65 -41 -109t-105 -44h-34q-61 0 -103.5 45.5t-42.5 106.5q0 64 41 107t105 43h34q61 0 103.5 -43.5t42.5 -105.5zM766 97
q-54 -157 -150 -261q-81 -87 -116 -95q-21 -4 -61 -12q-6 -1 -9 5q112 187 112 286z" />
    <glyph glyph-name="semicolon" unicode="&#x37e;" 
d="M775 724q0 -64 -41.5 -109t-104.5 -45h-34q-63 0 -104.5 44.5t-41.5 107.5q0 64 41.5 108t104.5 44h34q59 0 102.5 -45.5t43.5 -104.5zM775 149q0 -65 -41 -109t-105 -44h-34q-61 0 -103.5 45.5t-42.5 106.5q0 64 41 107t105 43h34q61 0 103.5 -43.5t42.5 -105.5zM766 97
q-54 -157 -150 -261q-81 -87 -116 -95q-21 -4 -61 -12q-6 -1 -9 5q112 187 112 286z" />
    <glyph glyph-name="less" unicode="&#x3c;" 
d="M1074 197q0 -24 -17 -42.5t-41 -18.5q-13 0 -41 15l-810 439l810 440q28 15 41 15q23 0 40.5 -18t17.5 -41q0 -34 -43 -59l-595 -337l595 -335q43 -25 43 -58z" />
    <glyph glyph-name="equal" unicode="=" 
d="M1084 731q0 -59 -72 -59h-783q-73 0 -73 59q0 57 68 57h793q67 0 67 -57zM1084 456q0 -14 -9 -33q-17 -24 -63 -24h-783q-73 0 -73 56q0 57 73 57h783q72 0 72 -56z" />
    <glyph glyph-name="greater" unicode="&#x3e;" 
d="M1074 590l-810 -439q-27 -15 -40 -15q-20 0 -39.5 19.5t-19.5 39.5q0 35 43 60l597 335l-597 337q-43 25 -43 58q0 60 59 60q13 0 40 -15z" />
    <glyph glyph-name="question" unicode="?" 
d="M986 818q0 -131 -106 -218q-57 -47 -222 -121q0 -115 -58 -115q-63 0 -63 74v120q145 55 205 92q125 74 125 165q0 110 -75.5 178t-186.5 68q-162 0 -208 -60q-8 -10 -29 -91q-16 -57 -57 -57q-23 0 -42.5 18.5t-19.5 40.5q0 270 364 270q165 0 269 -100t104 -264z
M757 120q0 -50 -34.5 -85t-84.5 -35h-81q-47 0 -82.5 33t-35.5 80q0 54 32 91.5t86 37.5h81q49 0 84 -36.5t35 -85.5z" />
    <glyph glyph-name="at" unicode="@" 
d="M1120 652q0 -110 -43 -198q-49 -100 -143 -139q-49 -21 -218 -17q-129 3 -211 55q-97 63 -97 183q0 96 68 170q66 70 162 88q31 6 125 6q13 37 33 38q17 9 28 9q6 0 28 -9q20 0 26 -12q4 -8 4 -31l-3 -412h-19v26l17 -11l18 -4q57 0 95 134q30 102 30 176q0 168 -80 275
q-87 118 -249 118q-122 0 -168 -22q-256 -126 -256 -518q0 -41 16 -111q42 -187 126 -271q97 -97 282 -97q164 0 269 57q24 13 44 13q23 0 46 -8q16 -14 16 -28q0 -58 -171 -92q-121 -23 -216 -23q-264 0 -402 169q-127 158 -127 435q0 241 126 404q139 178 374 178
q153 0 237 -36q100 -45 168 -165q65 -113 65 -330zM759 389v321q-62 0 -129 -27q-82 -32 -92 -84q-7 -37 -7 -79q0 -65 52 -104q47 -33 116 -33q-4 0 60 6z" />
    <glyph glyph-name="A" unicode="A" 
d="M1226 62q0 -62 -74 -62h-318q-17 0 -44 16q-20 21 -20 44q0 25 20 45q38 18 89 19q-104 -2 97 -2l-98 261h-517l-95 -261h132q74 0 74 -60q0 -37 -42 -58l-32 -4h-307q-75 0 -75 60q0 45 46 57q19 5 82 5l347 939h-130q-73 0 -73 60q0 61 73 61h342l398 -1060q66 0 80 -3
q45 -11 45 -57zM832 502l-213 559h-5l-204 -559h422z" />
    <glyph glyph-name="B" unicode="B" 
d="M1123 332q0 -143 -103 -237.5t-248 -94.5h-610q-76 0 -76 60q0 50 65 61q8 1 99 1l4 939q-8 0 -31.5 -1.5t-37.5 -1.5q-96 0 -96 63q0 61 75 61h512q145 0 250 -83q115 -90 115 -232t-139 -241q221 -86 221 -294zM918 873q0 85 -80 139q-70 49 -159 49h-306l-2 -387h269
q108 0 185 44q93 55 93 155zM1002 341q0 17 -21 71q-31 75 -141 112q-84 28 -186 28h-282l-1 -430l430 1q80 0 142 70q59 67 59 148z" />
    <glyph glyph-name="C" unicode="C" 
d="M1098 238q0 -30 -48 -84q-165 -187 -394 -187q-73 0 -161 28q-92 28 -146 70q-17 14 -51 49q-92 99 -133 179q-48 98 -48 217v170q0 212 145 368q148 161 358 161q189 0 328 -116q5 89 60 89q61 0 61 -74v-229q0 -34 -16 -56q-23 -19 -44 -19q-24 0 -46 19
q-10 16 -16.5 56.5t-20.5 60.5q-43 69 -133 110q-82 37 -169 37q-89 0 -170 -38q-57 -26 -116 -101q-54 -69 -75 -133q-27 -79 -27 -148v-144q0 -173 123 -303q125 -132 295 -132q188 0 335 178q22 26 53 26q56 0 56 -54z" />
    <glyph glyph-name="D" unicode="D" 
d="M1053 525q0 -206 -137 -363q-144 -162 -345 -162h-438q-75 0 -75 60q0 44 44 57q19 5 79 5l1 939q-61 0 -79 5q-44 12 -44 55q0 61 75 61h438q248 0 400 -246q63 -102 72 -187q9 -91 9 -224zM933 665q1 149 -100 269q-107 127 -252 127h-278l-1 -939h278q143 0 250 127
q101 120 102 267z" />
    <glyph glyph-name="E" unicode="E" 
d="M1035 0h-918q-73 0 -73 59q0 54 61 63h102l1 939q-101 0 -98 0q-65 9 -65 59q0 62 73 62h878l-2 -219q-1 -72 -62 -72q-62 0 -62 90q0 17 2.5 45t2.5 35h-546l-2 -388h253q1 80 3 89q10 59 56 59q64 0 64 -76l-1 -265q0 -76 -60 -76q-50 0 -60 57q-3 12 -2 91h-253v-430
h590l9 138q5 72 59 72q61 0 61 -69q0 -1 -11 -263z" />
    <glyph glyph-name="F" unicode="F" 
d="M1089 1182l-12 -220q-4 -71 -59 -71q-60 0 -60 73l9 97h-587v-388h256q0 84 1 90q9 58 56 58q63 0 63 -76l-1 -265q0 -76 -59 -76q-64 0 -64 90q0 11 4 58h-256v-430h177q73 0 73 -60q0 -40 -41 -58l-32 -4h-386q-74 0 -74 60q0 52 64 62h100l1 939q-102 0 -99 0
q-65 9 -65 60q0 61 74 61h917z" />
    <glyph glyph-name="G" unicode="G" 
d="M1098 546l3 -239q1 -68 -52 -187q-36 -81 -158 -121q-94 -32 -204 -32q-259 0 -416 142q-163 148 -161 404l1 151q1 226 147 383q149 162 373 162q184 0 315 -90q1 25 5 35l18 18q23 10 37 10q62 0 62 -74v-185q0 -74 -61 -74q-43 0 -52 30q-8 36 -15 72q-22 51 -91 87
q-92 49 -211 49q-172 0 -289 -125t-117 -299v-150q0 -209 128 -320q121 -105 332 -105q167 0 241 108q29 43 29 149q0 36 -4 78h-262q-73 0 -73 61l3 21q18 41 70 41h402z" />
    <glyph glyph-name="H" unicode="H" 
d="M1133 62q0 -62 -75 -62h-281q-76 0 -76 60q0 51 64 61q5 1 101 1l1 431h-504l-1 -431h100q66 -10 66 -61q0 -35 -42 -57l-34 -4h-282q-75 0 -75 60q0 48 55 59q14 3 92 3l3 939q-110 0 -110 60q0 61 77 61h241q76 0 76 -59q0 -35 -43 -58q-33 -7 -122 -4l-1 -387h503
l1 387h-99q-66 10 -66 60q0 61 76 61h240q76 0 76 -60q0 -68 -105 -61l-3 -939q83 0 91 -1q56 -10 56 -59z" />
    <glyph glyph-name="I" unicode="I" 
d="M999 1122q0 -61 -70 -61h-260v-939h257q72 0 72 -60q0 -39 -38 -58l-34 -4h-635q-41 0 -65 35l-6 25q0 62 71 62h260v939h-257q-72 0 -72 68q0 53 72 53h635q70 0 70 -60z" />
    <glyph glyph-name="J" unicode="J" 
d="M1127 1122q0 -61 -75 -61h-132l-1 -706q0 -162 -117 -275t-280 -113q-103 0 -212 53q-113 56 -167 139q-38 61 -38 163q0 51 25 151q6 25 11 51q11 21 46 21q22 0 46 -17q16 -29 16 -58q0 -10 -11.5 -59.5t-11.5 -75.5q0 -108 96 -180q89 -67 201 -67q113 0 193 77.5
t80 189.5l2 706q-7 0 -75 -3q-52 -2 -85 0q-45 4 -69 18q-20 23 -20 45q0 61 75 61h428q75 0 75 -60z" />
    <glyph glyph-name="K" unicode="K" 
d="M1137 61q0 -61 -74 -61h-171q-133 357 -219 459q-76 89 -199 134l-149 -134l-1 -337h130q76 0 76 -60q0 -16 -5 -24q-8 -38 -71 -38h-340q-75 0 -75 60q0 53 64 62q-1 0 100 0l2 939q-103 0 -100 0q-65 9 -65 60q0 61 76 61h298q77 0 77 -59q0 -37 -44 -58
q-33 -7 -122 -4v-442l496 442q-65 0 -97 17q-16 20 -16 43q0 61 72 61h243q74 0 74 -60q0 -68 -99 -61l-425 -379q156 -69 255 -236q43 -72 145 -324h99q65 -10 65 -61z" />
    <glyph glyph-name="L" unicode="L" 
d="M1073 0h-920q-47 0 -71 37l-4 23q0 36 43 58q27 7 65 8q27 1 72 -1q51 -3 68 -3l1 939h-131q-73 0 -73 67q0 54 73 54h385q75 0 75 -60q0 -35 -43 -57q-15 -4 -163 -4l-2 -939h503l9 221q3 73 61 73q63 0 63 -69q0 -2 -11 -347z" />
    <glyph glyph-name="M" unicode="M" 
d="M1179 61q0 -36 -42 -57l-34 -4h-263q-21 0 -53 17q-18 19 -18 43q0 23 18 45q33 17 70 19q-43 -2 78 -2v939h13l-311 -719h-116l-301 683l-2 -903q8 0 31.5 1.5t37.5 1.5q95 0 95 -63q0 -62 -72 -62h-261q-74 0 -74 60q0 44 43 57q21 6 81 5l1 939q-106 0 -106 60
q0 61 73 61h213l300 -677l294 677h217q70 0 70 -60q0 -36 -40 -57q-34 -6 -65 -4l-2 -939q60 0 78 -5q47 -12 47 -56z" />
    <glyph glyph-name="N" unicode="N" 
d="M1117 1123q0 -36 -42 -58q-34 -6 -84 -4l-1 -1061h-136l-572 971l-1 -849q103 0 100 0q66 -9 66 -60q0 -62 -76 -62h-261q-20 0 -55 17q-15 17 -18 43q11 47 45 58q12 4 79 4l1 939h-98q-67 10 -67 60q0 61 77 61h225l570 -974l3 853h-99q-64 9 -64 60q0 61 74 61h258
q34 0 57 -17q19 -26 19 -42z" />
    <glyph glyph-name="O" unicode="O" 
d="M1113 588q0 -242 -135 -423q-149 -198 -383 -198q-233 0 -380 199q-135 181 -135 422q0 240 135 421q148 200 382 200q232 0 381 -200q135 -182 135 -421zM991 588q0 189 -100 335q-112 164 -294 164t-297 -164q-101 -146 -101 -335t101 -335q115 -165 296 -165
q182 0 295 164q100 146 100 336z" />
    <glyph glyph-name="P" unicode="P" 
d="M1025 829q0 -159 -125 -257q-90 -71 -155 -84q-87 -18 -383 -18v-348h176q74 0 74 -60q0 -62 -74 -62h-385q-74 0 -74 60q0 51 63 61q7 1 99 1l3 939q-100 0 -99 0q-64 9 -64 60q0 61 73 61h471q162 0 277 -96q123 -101 123 -257zM906 829q0 101 -88 169q-81 63 -185 63
h-269l-2 -471h243q109 0 200 63q101 71 101 176z" />
    <glyph glyph-name="Q" unicode="Q" 
d="M1136 8q0 -65 -139 -65q-46 0 -115.5 30t-105.5 63q-122 -72 -252 -72q-51 0 -130 17l2 10l-4 -9q-389 181 -389 605q0 244 136 424q148 198 385 198q232 0 380 -200q136 -182 136 -422q0 -224 -155 -443q-8 -13 -28 -36q104 -67 160 -67q13 0 37 10t37 10q45 0 45 -53z
M917 587q0 189 -100 335q-113 165 -293 165t-297 -165q-103 -148 -103 -335q0 -149 50.5 -252.5t167.5 -193.5l-9 -17q-7 8 -13 21l4 2l8 -2q83 93 226 93q39 0 101 -18.5t94 -40.5q164 130 164 408zM657 112q-41 21 -75 21q-88 0 -130 -42q54 -8 86 -8q57 0 119 29z" />
    <glyph glyph-name="R" unicode="R" 
d="M1175 54q0 -31 -41 -50l-33 -4h-120q-114 207 -173 287q-115 156 -246 223h-239v-388q96 0 100 -1q65 -9 65 -59l-3 -23q-24 -39 -72 -39h-259q-74 0 -74 60q0 43 44 56q20 6 78 6l2 939q-94 0 -99 1q-66 10 -66 59q0 61 75 61h495q150 0 262 -92q119 -98 119 -245
q0 -197 -259 -301q94 -71 180 -195q40 -57 138 -227q71 0 84 -4q42 -12 42 -64zM869 849q0 89 -89 153q-82 59 -173 59h-282l-2 -431h204q114 0 218 53q124 64 124 166z" />
    <glyph glyph-name="S" unicode="S" 
d="M1042 305q0 -155 -142 -253q-125 -85 -287 -85q-191 0 -319 109q0 -77 -60 -77t-60 74v228q0 74 59 74q45 0 59 -55q12 -45 23 -91q76 -141 299 -141q119 0 208 59q101 68 101 181q0 142 -183 195q-169 42 -340 84q-183 74 -183 267q0 154 120 248q110 87 269 87
q170 0 274 -86v-15q0 74 57 74q63 0 63 -74v-209q0 -75 -61 -75q-37 0 -55 40q-1 32 -24 98q-75 125 -250 125q-106 0 -185 -54q-89 -61 -89 -163q0 -134 183 -179q170 -41 340 -83q183 -81 183 -303z" />
    <glyph glyph-name="T" unicode="T" 
d="M1086 1182l-11 -302q-3 -75 -60 -75q-58 0 -58 68q0 3 8 188h-294l-2 -939q6 0 32.5 2t43.5 2q105 0 105 -64q0 -62 -73 -62h-337q-73 0 -73 60q0 65 107 65q17 0 41.5 -1.5t31.5 -1.5l3 939h-296l-2 -116q-4 -91 -24 -121q-29 -19 -43 -19q-61 0 -59 75l10 302h950z" />
    <glyph glyph-name="U" unicode="U" 
d="M1144 1123q0 -68 -124 -62v-667q0 -176 -119 -301.5t-294 -125.5q-179 0 -297 123.5t-118 303.5v667q-84 0 -105 16q-18 19 -18 44q0 24 19 45q26 16 55 16h259q72 0 72 -60q0 -24 -18 -45l-23 -12q-31 -7 -122 -4v-667q0 -125 84 -215.5t208 -90.5q122 0 209.5 91.5
t87.5 214.5v667q-117 0 -144 16q-19 21 -19 43q0 62 74 62h258q75 0 75 -59z" />
    <glyph glyph-name="V" unicode="V" 
d="M1203 1123q0 -66 -124 -62l-406 -1061h-143l-412 1061q-60 -1 -80 4q-45 12 -45 55q0 62 73 62h268q72 0 72 -59q0 -50 -64 -61q-19 -3 -97 -1l373 -959h-38l375 959q-7 0 -30.5 -1.5t-36.5 -1.5q-98 0 -98 63q0 61 74 61h267q72 0 72 -59z" />
    <glyph glyph-name="W" unicode="W" 
d="M1179 1123q0 -62 -86 -62l-117 -1061h-161l-216 757l-213 -757h-164l-118 1061q-87 0 -87 60q0 61 75 61h219q75 0 75 -60q0 -50 -63 -60q-5 -1 -98 -1l95 -844l198 711h158l203 -712l94 845q-100 0 -98 0q-62 9 -62 60q0 61 72 61h219q75 0 75 -59z" />
    <glyph glyph-name="X" unicode="X" 
d="M1114 62q0 -62 -76 -62h-220q-48 0 -71 37l-4 23q0 19 19 45q34 17 105 17l-298 383l-297 -383q67 0 81 -4q43 -11 43 -57q0 -61 -74 -61h-218q-75 0 -75 60q0 11 2 22l21 25q17 15 71 15l370 483l-349 456q-96 0 -96 60q0 61 74 61h222q78 0 78 -59q0 -68 -128 -62
l275 -360l276 360q-61 0 -81 5q-48 12 -48 55q0 61 76 61h224q72 0 72 -59q0 -62 -94 -62l-349 -456l373 -483q48 0 63.5 -9t32.5 -51z" />
    <glyph glyph-name="Y" unicode="Y" 
d="M1120 1123q0 -36 -40 -58q-33 -6 -72 -4l-342 -532l-1 -407h149q73 0 73 -60q0 -62 -73 -62h-421q-76 0 -76 60q0 62 76 62h149v406l-348 533q-111 0 -111 60q0 61 73 61h223q76 0 76 -60q0 -35 -42 -57q-34 -6 -76 -4l269 -409l261 409q-58 0 -75 5q-42 12 -42 55
q0 61 74 61h223q73 0 73 -59z" />
    <glyph glyph-name="Z" unicode="Z" 
d="M931 0h-816l1 146l676 960v-45h-520l-11 -139q-6 -73 -60 -73q-28 0 -39 17q-20 14 -20 53q0 1 9 263h737l-4 -143l-664 -950l-13 33h604q1 59 3 119q4 83 23 119q19 17 43 17q63 0 63 -72q0 -1 -12 -305z" />
    <glyph glyph-name="bracketleft" unicode="[" 
d="M798 -40q0 -61 -57 -61h-291v1383h291q20 0 38.5 -18.5t18.5 -39.5q0 -60 -55 -60h-181v-1146q-5 0 71 3q55 2 89 -1q46 -5 63 -21q13 -25 13 -39z" />
    <glyph glyph-name="backslash" unicode="\" 
d="M1074 57q0 -21 -19 -39t-40 -18q-25 0 -58 44l-792 1083q17 55 64 55q23 0 56 -46z" />
    <glyph glyph-name="bracketright" unicode="]" 
d="M791 -104h-293q-56 0 -56 61q0 57 56 57h180v1148h-182q-46 0 -54 59q12 59 56 59h293v-1384z" />
    <glyph glyph-name="asciicircum" unicode="^" horiz-adv-x="1229" 
d="M297 498h-129l391 671h111l391 -671h-129l-318 549z" />
    <glyph glyph-name="underscore" unicode="_" 
d="M1212 -151q-16 -50 -72 -50h-1037q-29 0 -47 10q-23 23 -27 40q18 50 73 50h1037q53 0 73 -50z" />
    <glyph glyph-name="grave" unicode="`" 
d="M832 862q0 -27 -20 -48.5t-48 -21.5q-25 0 -60 30l-270 229q-34 30 -34 62q0 18 20 49q33 20 49 20q27 0 60 -28l271 -230q32 -27 32 -62z" />
    <glyph glyph-name="a" unicode="a" 
d="M1120 60q0 -61 -74 -61h-211v95q-172 -127 -359 -127q-133 0 -227 69q-104 77 -104 205q0 127 117 222q114 92 364 92q109 0 211 -26v109q0 76 -81 116q-63 30 -148 30q-60 0 -172.5 -32t-133.5 -32q-24 0 -42 15q-18 30 -18 44q0 55 157 94q125 31 211 31q135 0 233 -63
q113 -73 113 -203l-1 -520q100 0 99 0q66 -9 66 -58zM838 251l-1 155q-134 30 -255 30q-107 0 -201 -44q-116 -55 -116 -151q0 -80 66 -121q55 -33 141 -33q180 0 366 164z" />
    <glyph glyph-name="b" unicode="b" 
d="M1121 446q0 -198 -128 -337q-131 -142 -327 -142q-200 0 -336 158v-125h-211q-74 0 -74 60q0 50 65 60q10 2 99 2v1024q-97 0 -101 1q-61 8 -61 62q0 59 73 59h211l-1 -512q145 159 338 159q197 0 325 -135.5t128 -333.5zM1003 441q0 144 -96.5 248t-239.5 104
q-140 0 -238 -105.5t-98 -246.5q0 -144 95 -247q97 -106 239 -106t240 105t98 248z" />
    <glyph glyph-name="c" unicode="c" 
d="M1061 196q0 -49 -107 -121q-163 -108 -362 -108q-203 0 -335 129.5t-132 332.5q0 208 133.5 341.5t339.5 133.5q187 0 296 -89v-14q0 75 58 75q18 0 33 -8q31 -28 31 -67l-2 -184q-1 -75 -61 -75q-38 0 -51 36q-12 39 -26 79q-28 55 -99 87q-86 40 -184 40
q-157 0 -252.5 -98t-95.5 -257q0 -154 99.5 -248t253.5 -94q196 0 356 141q27 25 48 25q59 0 59 -57z" />
    <glyph glyph-name="d" unicode="d" 
d="M1105 62q0 -62 -74 -62h-213v126q-136 -159 -341 -159q-194 0 -324 141q-127 138 -127 333q0 193 130 332q134 142 325 142q193 0 338 -160v391h-102q-61 9 -61 63q0 59 77 59h208l-1 -1146q94 0 100 -1q65 -10 65 -59zM818 441q0 145 -93 247q-97 105 -240 105
q-146 0 -242 -102.5t-96 -249.5q0 -146 95 -248q97 -105 242 -105q141 0 237.5 105t96.5 248z" />
    <glyph glyph-name="e" unicode="e" 
d="M1087 152q0 -73 -195 -142q-123 -43 -251 -43q-213 0 -359.5 138.5t-146.5 350.5q0 192 143 321q138 127 332 127q224 0 352 -141q122 -137 122 -362h-827q28 -148 131 -231t255 -83q132 0 271 61q10 5 59 37q41 27 55 27q23 0 41 -18.5t18 -41.5zM960 519
q-26 119 -128 194q-98 71 -222 71q-130 0 -223.5 -70t-125.5 -195h699z" />
    <glyph glyph-name="f" unicode="f" 
d="M973 1180q0 -69 -61 -61q-207 27 -274 27q-81 0 -135 -37q-62 -42 -64 -119l-2 -102h277q45 0 66 -38l5 -22q0 -63 -71 -63h-277v-643h253q72 0 72 -61t-72 -61h-552q-74 0 -74 60q0 62 74 62h177l1 643h-157q-72 0 -72 61q0 62 71 62h158v102q0 126 99 205q93 73 223 73
q256 0 318 -46q17 -12 17 -42z" />
    <glyph glyph-name="g" unicode="g" 
d="M1061 815q0 -52 -63 -61q3 0 -103 0v-803q0 -139 -104.5 -239.5t-244.5 -100.5h-189q-35 0 -57 17q-18 24 -18 44q0 21 20 45q19 13 70 16q36 3 96 1q77 -3 78 -3q66 0 126.5 39t84.5 99q18 44 18 95v191q-129 -147 -318 -147q-181 0 -306.5 134t-125.5 316t125.5 314
t306.5 132q193 0 319 -144v114h211q44 0 55 -16q19 -14 19 -43zM775 458q0 132 -89 228q-91 97 -223 97q-134 0 -225.5 -96t-91.5 -229q0 -136 90.5 -231.5t225.5 -95.5q132 0 222.5 97t90.5 230z" />
    <glyph glyph-name="h" unicode="h" 
d="M1144 62q0 -62 -75 -62h-241q-7 0 -39 16q-12 16 -19 43q7 65 106 63l1 483q0 94 -66 144q-60 45 -156 45q-89 0 -160 -53q-36 -28 -124 -128l-3 -491q82 0 92 -2q56 -10 56 -58q0 -62 -74 -62h-268q-70 0 -70 60q0 29 15 45q35 17 130 17v1024h-101q-63 8 -63 62
q0 60 75 60h211v-478q145 126 290 126q138 0 235 -82q102 -87 102 -224v-488q74 0 89 -3q57 -11 57 -57z" />
    <glyph glyph-name="i" unicode="i" 
d="M647 1121q0 -43 -28 -72t-71 -29q-59 0 -106.5 44.5t-47.5 103.5q0 43 28 72.5t71 29.5q59 0 106.5 -45t47.5 -104zM1013 61q0 -31 -40 -57l-32 -4l-667 3q-40 0 -40 57q0 62 70 62h259l1 643h-175q-75 0 -75 60q0 15 18 45q33 19 56 19h297l-2 -767h258q72 0 72 -61z
" />
    <glyph glyph-name="j" unicode="j" 
d="M728 1119q0 -43 -27 -71.5t-71 -28.5q-58 0 -105.5 46t-47.5 104q0 43 27 72t70 29q63 0 108.5 -43.5t45.5 -107.5zM832 -54q0 -140 -91.5 -237.5t-231.5 -97.5h-212q-74 0 -74 61q0 64 74 63l210 -3q90 0 150 66q57 64 57 154v809h-327q-74 0 -74 62q0 16 16 43
q31 19 55 19h448v-939z" />
    <glyph glyph-name="k" unicode="k" 
d="M1082 62q0 -62 -77 -62h-265q-71 0 -71 60q0 62 85 62l-306 316l-72 -62l-1 -376h-170q-45 0 -66 36l-5 23q0 18 18 45q29 19 103 18l2 1024h-101q-64 9 -64 63q0 59 71 59h213v-736l276 233h9q-73 0 -73 60q0 63 73 63h223q71 0 71 -61q0 -68 -119 -62l-296 -251
l380 -392q93 0 98 -1q64 -9 64 -59z" />
    <glyph glyph-name="l" unicode="l" 
d="M1010 62q0 -62 -73 -62h-633q-73 0 -73 60q0 36 43 58q28 8 86 9q39 0 108 -2q76 -3 93 -3l1 1024h-172q-73 0 -73 63q0 59 72 59h294l-3 -1146h257q73 0 73 -60z" />
    <glyph glyph-name="m" unicode="m" 
d="M1226 62q0 -62 -74 -62h-170l1 659q0 49 -29 85q-32 40 -78 40q-82 0 -190 -149l-1 -514q66 0 80 -3q43 -11 43 -56q0 -36 -41 -58l-32 -4h-171v655q0 49 -27 87q-31 42 -78 42q-85 0 -192 -149l-1 -514q62 0 79 -4q45 -12 45 -55q0 -36 -40 -58l-35 -4h-221
q-73 0 -73 60q0 28 21 41q10 20 101 20l1 635q-61 0 -78 5q-45 11 -45 55q0 60 74 60h172v-56q91 84 190 84q125 0 195 -119q108 119 220 119q95 0 163.5 -70.5t68.5 -166.5l-1 -546q62 0 77 -4q46 -12 46 -55z" />
    <glyph glyph-name="n" unicode="n" 
d="M1121 61q0 -30 -40 -57l-34 -4h-218q-75 0 -75 60q0 61 124 61l1 477q0 86 -65 138q-60 48 -148 48q-93 0 -166 -54q-40 -29 -124 -128v-481q81 0 89 -1q57 -10 57 -58q0 -62 -73 -62h-265q-45 0 -70 35l-6 25q0 47 57 58q15 3 91 3v635q-62 0 -79 4q-44 11 -44 55
q0 61 73 61h171v-97q129 125 290 125q133 0 228 -78q103 -84 103 -215v-490q65 0 79 -4q44 -11 44 -56z" />
    <glyph glyph-name="o" unicode="o" 
d="M1084 435q0 -197 -139.5 -332.5t-336.5 -135.5q-196 0 -334.5 135.5t-138.5 332.5q0 196 139 332.5t334 136.5q201 0 338.5 -134t137.5 -335zM964 435q0 147 -104.5 248t-251.5 101q-144 0 -248.5 -102t-104.5 -247q0 -148 103 -248t250 -100q146 0 251 101t105 247z" />
    <glyph glyph-name="p" unicode="p" 
d="M1079 458q0 -189 -134 -319.5t-324 -130.5q-202 0 -334 147l-1 -424h179q73 0 73 -59q0 -61 -73 -61h-348q-74 0 -74 61q0 27 20 47q26 12 103 12l1 1023q-103 0 -100 0q-64 9 -64 60q0 60 74 60h210l1 -116q133 146 333 146q193 0 324 -126q134 -128 134 -320zM956 458
q0 136 -98.5 230.5t-235.5 94.5q-136 0 -235.5 -95.5t-99.5 -229.5q0 -138 98 -232.5t236 -94.5q139 0 237 94t98 233z" />
    <glyph glyph-name="q" unicode="q" 
d="M1086 -328q0 -61 -75 -61h-346q-48 0 -70 36l-5 25q0 59 74 59h135l1 421q-131 -144 -335 -144q-193 0 -324.5 129t-131.5 321q0 190 134 318t325 128q197 0 332 -144l1 114h170q74 0 74 -60q0 -45 -44 -56q-16 -4 -80 -4l-1 -1023q118 0 145 -12q21 -28 21 -47zM800 458
q0 135 -99 230t-235 95q-139 0 -237 -94t-98 -231q0 -141 97 -234t239 -93q137 0 235 95t98 232z" />
    <glyph glyph-name="r" unicode="r" 
d="M1044 757q0 -65 -63 -65q-19 0 -66 42t-85 42q-95 0 -368 -239l-1 -416h216q75 0 75 -59q0 -62 -75 -62h-470q-73 0 -73 58q0 59 73 59h136l1 639q-101 0 -100 0q-65 9 -65 59q0 59 75 59h208l-1 -181q226 202 367 202q53 0 131 -44q85 -47 85 -94z" />
    <glyph glyph-name="s" unicode="s" 
d="M1031 250q0 -146 -139 -222q-112 -61 -270 -61q-179 0 -296 80q-4 -18 -25 -38q-22 -10 -32 -10q-38 0 -56 40q-4 17 -5 201q0 72 60 72q44 0 56 -46q21 -77 23 -79q66 -100 294 -100q185 0 254 110q18 28 18 53q0 94 -145 136q-48 15 -218 34q-66 8 -149 37
q-65 22 -109 81q-42 55 -42 118q0 125 125 193q103 55 239 55q158 0 260 -66q15 38 51 38q62 0 62 -75v-140q0 -73 -60 -73q-40 0 -55 53q-19 69 -56 93q-73 50 -197 50q-81 0 -151 -25q-96 -36 -96 -104q0 -77 146 -103.5t290 -52.5q170 -50 211 -178q12 -38 12 -71z" />
    <glyph glyph-name="t" unicode="t" 
d="M1075 98q-23 -58 -145 -91q-91 -24 -176 -24q-352 0 -352 253v527h-130q-74 0 -74 61t74 61h130v222q0 75 59 75q61 0 61 -75v-222h189q76 0 76 -60q0 -62 -76 -62h-189v-527q0 -145 234 -145q51 0 131 28q94 35 128 40q55 9 60 -61z" />
    <glyph glyph-name="u" unicode="u" 
d="M1044 61q0 -62 -75 -62h-169v95q-160 -127 -342 -127q-128 0 -205 76.5t-77 205.5l2 506q-62 0 -79 4q-44 11 -44 55q0 60 75 60h167l-2 -625q0 -69 45.5 -115.5t114.5 -46.5q192 0 345 170v498q-99 0 -98 0q-64 9 -64 58q0 61 73 61h209v-756q60 0 78 -4q46 -11 46 -53z
" />
    <glyph glyph-name="v" unicode="v" 
d="M1163 815q0 -47 -55 -58q-22 -5 -91 -2l-331 -755h-165l-337 755q-90 0 -77 -1q-38 4 -61 34l-6 25q7 61 75 61h265q71 0 71 -60q0 -47 -49 -58q-20 -4 -87 -1l281 -634h14l277 634q-79 0 -87 2q-51 10 -51 57q0 60 74 60h264q76 0 76 -59z" />
    <glyph glyph-name="w" unicode="w" 
d="M1164 815q0 -67 -98 -60l-165 -753l-132 -2l-166 483l-168 -483l-131 2l-170 753q-98 0 -98 59q0 26 22 42q10 18 53 18h183q73 0 73 -59q0 -43 -38 -55q-15 -5 -73 -5l123 -553l159 462h124l158 -461l121 552q-51 0 -60 2q-26 6 -45 35l-5 22q0 60 77 60h180
q76 0 76 -59z" />
    <glyph glyph-name="x" unicode="x" 
d="M1091 62q0 -62 -73 -62h-223q-33 0 -57 17q-18 19 -18 42q0 26 20 42q11 20 100 20l-269 255l-268 -255q58 0 76 -5q44 -12 44 -54q0 -62 -75 -62h-223q-74 0 -74 60q0 54 82 61l355 337l-312 297q-38 0 -59.5 15t-21.5 44q0 60 71 60h231q26 0 48 -17.5t22 -41.5
q0 -45 -45 -56q-15 -4 -80 -4l229 -218l230 218q-63 0 -79 4q-47 11 -47 55q0 60 78 60h220q75 0 75 -59q0 -60 -82 -60l-313 -297l357 -337q81 0 81 -59z" />
    <glyph glyph-name="y" unicode="y" 
d="M1086 815q0 -37 -35 -57q-19 -5 -50 -4l-500 -1023q130 3 150 -14q19 -31 19 -44q0 -62 -73 -62h-343q-75 0 -75 61q0 26 22 47q28 16 171 12l133 277l-370 746q-86 0 -86 60q0 24 31 51q21 9 43 9h183q73 0 73 -60q0 -66 -112 -60l304 -614l299 614h-96q-58 9 -58 60
q0 60 76 60h220q74 0 74 -59z" />
    <glyph glyph-name="z" unicode="z" 
d="M965 212l-2 -212h-776l4 98l574 657h-438v-101q-9 -64 -59 -64q-38 0 -57 39l-4 34l1 211h737l-6 -97l-579 -656h484q-1 98 -1 100q9 64 60 64q63 0 62 -73z" />
    <glyph glyph-name="braceleft" unicode="{" 
d="M1029 1254q-7 -19 -131 -37q-129 -17 -165 -73q-14 -24 -14 -55v-332q0 -65 -65 -108q-18 -11 -122 -59q89 -32 123 -55q64 -43 64 -110v-332q0 -58 58 -93q48 -30 111 -37l74 -4q53 -6 65 -30q-16 -30 -93 -30q-124 0 -228 39q-144 53 -144 155v332q0 55 -60 93
q-50 31 -111 38q-37 -1 -102 8q-31 11 -31 26q0 26 88 34q216 20 216 133v331q0 99 148 153q110 41 228 41q62 0 91 -28z" />
    <glyph glyph-name="bar" unicode="|" 
d="M669 81q0 -35 -11 -50q-5 -21 -38 -31q-51 18 -51 98l4 1025q0 41 47 59q49 -18 49 -98v-1003z" />
    <glyph glyph-name="braceright" unicode="}" 
d="M984 590q0 -19 -47 -27q-49 -5 -100 -10t-95 -32q-65 -42 -65 -96v-332q0 -88 -125 -149q-94 -45 -276 -45q-41 0 -63 30q13 31 96 31t150 39q63 35 63 94v332q0 69 63 110q15 10 123 55q-96 42 -121 59q-65 44 -65 108v331q0 29 -14 53q-33 58 -164 74q-125 17 -132 40
l19 17q27 10 73 10q112 0 225 -43q148 -56 148 -151v-331q0 -90 133 -123q49 -5 97 -10q77 -11 77 -34z" />
    <glyph glyph-name="asciitilde" unicode="~" 
d="M1074 632q0 -35 -75 -104q-70 -63 -111 -79q-52 -20 -83 -20q-87 0 -210.5 103t-158.5 103q-41 0 -98 -51q-42 -42 -84 -82l-25 -6q-62 0 -62 55q0 24 31 57q132 144 236 144q92 0 209.5 -102.5t156.5 -102.5q54 0 118.5 71t95.5 71q60 0 60 -57z" />
    <glyph glyph-name="exclamdown" unicode="&#xa1;" horiz-adv-x="682" 
 />
    <glyph glyph-name="cent" unicode="&#xa2;" 
d="M973 419q0 -61 -121 -112q-94 -40 -175 -48v-185q0 -74 -57 -74q-62 0 -62 74v185q-146 26 -237 134.5t-91 257.5q0 311 328 395v228q0 76 58 76q61 0 61 -76v-223q86 0 183 -63q16 23 47 23q59 0 59 -69v-125q0 -25 -16 -48q-17 -27 -41 -27q-39 0 -59 56q-26 72 -60 97
q-25 17 -113 34v-552q22 3 85 22q22 6 85 44q58 34 68 34q58 0 58 -58zM558 385v540q-204 -79 -204 -268q0 -116 47 -177q45 -57 157 -95z" />
    <glyph glyph-name="sterling" unicode="&#xa3;" 
d="M1064 204q0 -81 -50 -141q-54 -63 -133 -63h-629q-25 0 -46 15q-25 16 -25 40q0 39 45 55q64 22 78 37q101 99 101 322q0 39 -9 66h-187q-69 0 -69 56q0 60 69 60h156q-45 158 -45 219q0 123 85.5 211.5t208.5 88.5q73 0 168 -55q104 -60 104 -127q0 -22 -18.5 -38
t-40.5 -16q-17 0 -78.5 60t-132.5 60q-76 0 -127.5 -53.5t-51.5 -130.5v-51q0 -4 50 -168h179q41 0 64 -36l5 -23q0 -57 -69 -57h-155q6 -50 6 -87q0 -192 -93 -333h452q44 0 63 45q13 43 26 84q16 17 39 17t41.5 -17.5t18.5 -39.5z" />
    <glyph glyph-name="currency" unicode="&#xa4;" horiz-adv-x="1139" 
 />
    <glyph glyph-name="yen" unicode="&#xa5;" 
d="M1139 1123q0 -36 -41 -58q-34 -6 -71 -4l-305 -465q-1 0 78 3q61 2 97 -1q52 -3 70 -14q12 -15 19 -34q0 -49 -61 -49h-244v-117h244q48 0 61 -47q-12 -51 -61 -51h-244v-164h156q71 0 71 -61t-71 -61h-433q-45 0 -68 35l-6 25q0 62 74 62h156v164h-244q-59 0 -59 48
q0 50 57 50h246v117h-260q-43 0 -43 46q0 49 59 49h198l-303 465q-112 0 -112 60q0 61 74 61h224q73 0 73 -59q0 -35 -41 -58q-32 -6 -75 -4l267 -409l265 409q-56 0 -74 6q-43 12 -43 54q0 61 75 61h220q75 0 75 -59z" />
    <glyph glyph-name="brokenbar" unicode="&#xa6;" horiz-adv-x="532" 
 />
    <glyph glyph-name="section" unicode="&#xa7;" 
d="M924 415q0 -175 -175 -297q94 -112 94 -210q0 -106 -70 -179t-177 -73q-76 0 -150 54q-80 58 -80 132q0 36 25.5 67.5t61.5 31.5q77 0 77 -89q0 -14 -9.5 -43t-9.5 -43q0 -59 91 -59q53 0 95 43.5t42 96.5q0 80 -111 177q-102 87 -206 175q-111 114 -111 236
q0 185 168 297q-87 112 -87 212q0 104 71 178t176 74q88 0 152 -54q68 -57 68 -144q0 -86 -74 -86q-75 0 -75 75q0 13 5 40.5t5 41.5q0 72 -81 72q-59 0 -97.5 -43t-38.5 -102q0 -83 109 -175q102 -85 203 -169q109 -111 109 -237zM808 346q0 14 -4 57q-5 54 -111 148
q-79 64 -157 128q-65 -39 -87 -86q-21 -41 -21 -119q0 -45 16 -71q24 -41 115 -119q120 -104 129 -113q120 74 120 175z" />
    <glyph glyph-name="dieresis" unicode="&#xa8;" horiz-adv-x="682" 
 />
    <glyph glyph-name="copyright" unicode="&#xa9;" horiz-adv-x="1233" 
d="M616 1180q-97 0 -187.5 -38t-160.5 -108q-69 -70 -107 -161.5t-38 -186.5t38.5 -186.5t108.5 -161.5q71 -71 160 -108t186 -37t188 38t161 107q70 72 107.5 161.5t37.5 186.5q0 98 -38 189.5t-107 160.5q-71 70 -161 107t-188 37zM25 686q0 119 44 226.5t128 191.5
t192.5 129t226.5 45q117 0 226.5 -45t191.5 -127t128 -193t46 -227q0 -118 -45.5 -226t-130.5 -194q-83 -85 -189.5 -129.5t-226.5 -44.5q-86 0 -169 25t-156 73q-128 85 -197 214.5t-69 281.5zM768 1024q7 11 20 16.5t33 6.5q36 0 48 -25t12 -121v-67q0 -38 -14 -53
t-48 -15q-50 0 -68 81q-2 9 -4 16q-8 33 -45.5 56t-87.5 23q-96 0 -151 -69.5t-55 -192.5q0 -113 58.5 -182.5t151.5 -69.5q66 0 137.5 43t78.5 43q27 0 43 -15.5t16 -41.5q0 -49 -89 -100.5t-192 -51.5q-147 0 -245.5 105t-98.5 264q0 163 99.5 272t248.5 109q37 0 74 -7.5
t78 -23.5z" />
    <glyph glyph-name="ordfeminine" unicode="&#xaa;" horiz-adv-x="758" 
 />
    <glyph glyph-name="guillemotleft" unicode="&#xab;" horiz-adv-x="1233" 
d="M692 543l236 342q1 2 3 5q19 29 42 30q14 0 24.5 -11.5t10.5 -25.5q0 -5 -2 -12t-7 -17l-137 -330q-2 -5 -5 -13q-9 -25 -9 -32q0 -9 12 -40l2 -5l137 -328q4 -9 6.5 -17t2.5 -13q0 -15 -10 -25t-25 -10q-24 0 -44 31l-1 2l-236 342q-16 22 -23 37.5t-7 25.5q0 11 7 26.5
t23 37.5zM289 543l235 341q1 2 3 5q21 31 42 31q15 0 25 -11.5t10 -25.5q0 -5 -2 -12t-6 -17l-137 -329q-2 -5 -5 -14q-10 -25 -10 -32q0 -9 13 -40l2 -5l137 -328q4 -9 6 -17t2 -13q0 -15 -10 -25t-25 -10q-23 0 -43 30q-1 2 -2 3l-235 342q-16 22 -23.5 37.5t-7.5 25.5
q0 11 7.5 26.5t23.5 37.5z" />
    <glyph glyph-name="logicalnot" unicode="&#xac;" horiz-adv-x="1196" 
 />
    <glyph glyph-name="registered" unicode="&#xae;" horiz-adv-x="1233" 
d="M532 926v-183h58q66 0 99.5 23.5t33.5 69.5t-31.5 68t-99.5 22h-60zM532 471h19q39 0 57.5 -13.5t18.5 -41.5q0 -30 -16.5 -43t-55.5 -13h-180q-26 0 -41 15t-15 41q0 31 17.5 43t64.5 12h15v455h-15q-48 0 -65 11.5t-17 41.5q0 26 15 40.5t41 14.5h190q147 0 217 -49.5
t70 -153.5q0 -60 -33.5 -106t-91.5 -66q5 -4 11 -12t14 -19l104 -157h8q36 0 53 -13.5t17 -41.5q0 -26 -14.5 -41t-40.5 -15h-60q-22 0 -37.5 10.5t-33.5 41.5l-105 157q-33 50 -48.5 60t-43.5 10h-19v-168zM616 1180q-97 0 -187.5 -38t-160.5 -108q-69 -70 -107 -161.5
t-38 -186.5t38.5 -186.5t108.5 -161.5q71 -71 160 -108t186 -37t188 38t161 107q70 72 107.5 161.5t37.5 186.5q0 98 -38 189.5t-107 160.5q-71 70 -161 107t-188 37zM25 686q0 119 44 226.5t128 191.5t192.5 129t226.5 45q117 0 226.5 -45t191.5 -127t128 -193t46 -227
q0 -118 -45.5 -226t-130.5 -194q-83 -85 -189.5 -129.5t-226.5 -44.5q-86 0 -169 25t-156 73q-128 85 -197 214.5t-69 281.5z" />
    <glyph glyph-name="macron" unicode="&#xaf;" horiz-adv-x="1131" 
 />
    <glyph glyph-name="degree" unicode="&#xb0;" horiz-adv-x="1229" 
d="M342 930q0 111 80.5 191.5t191.5 80.5q112 0 192.5 -80.5t80.5 -191.5q0 -112 -80.5 -192.5t-192.5 -80.5q-111 0 -191.5 80.5t-80.5 192.5zM784 930q0 70 -49.5 120t-120.5 50q-70 0 -120 -50t-50 -120q0 -71 50 -120.5t120 -49.5q71 0 120.5 49.5t49.5 120.5z" />
    <glyph glyph-name="plusminus" unicode="&#xb1;" horiz-adv-x="1233" 
d="M264 59q-66 0 -89 19t-23 65q0 47 24 66.5t84 19.5h703q64 0 89 -19t25 -65t-23.5 -66t-84.5 -20h-705zM264 786q-65 0 -88.5 19.5t-23.5 66.5q0 46 23 65t85 19h268v234q0 65 19.5 89t66.5 24q46 0 68.5 -26.5t22.5 -80.5v-240h258q63 0 88.5 -19.5t25.5 -64.5
q0 -46 -23.5 -66t-84.5 -20h-264v-245q0 -63 -21 -89t-68 -26q-46 0 -67 25.5t-21 83.5v251h-264z" />
    <glyph glyph-name="uni00B2" unicode="&#xb2;" horiz-adv-x="682" 
 />
    <glyph glyph-name="uni00B3" unicode="&#xb3;" horiz-adv-x="682" 
 />
    <glyph glyph-name="acute" unicode="&#xb4;" horiz-adv-x="682" 
 />
    <glyph glyph-name="mu" unicode="&#xb5;" horiz-adv-x="1180" 
 />
    <glyph glyph-name="paragraph" unicode="&#xb6;" horiz-adv-x="1229" 
d="M911 1059h-172v-1340h-110v641h-148q-181 0 -299.5 113.5t-118.5 298.5q0 177 124.5 287t301.5 110h685v-110h-152v-1340h-111v1340zM629 471v588h-123q-137 0 -220 -79.5t-83 -207.5q0 -142 76.5 -221.5t216.5 -79.5h133z" />
    <glyph glyph-name="periodcentered" unicode="&#xb7;" horiz-adv-x="569" 
 />
    <glyph glyph-name="periodcentered" unicode="&#x2219;" horiz-adv-x="569" 
 />
    <glyph glyph-name="cedilla" unicode="&#xb8;" horiz-adv-x="682" 
 />
    <glyph glyph-name="uni00B9" unicode="&#xb9;" horiz-adv-x="682" 
 />
    <glyph glyph-name="ordmasculine" unicode="&#xba;" horiz-adv-x="748" 
 />
    <glyph glyph-name="guillemotright" unicode="&#xbb;" horiz-adv-x="1233" 
d="M549 543q16 -22 23.5 -37.5t7.5 -26.5q0 -10 -7.5 -25.5t-23.5 -37.5l-236 -342q0 -1 -1 -2q-20 -31 -44 -31q-14 0 -24.5 10t-10.5 25q0 5 2.5 13t6.5 17l137 328l2 5q12 31 12 40q0 7 -9 32q-3 8 -5 13l-137 330q-5 10 -7 17t-2 12q0 14 10.5 25.5t24.5 11.5
q23 -1 42 -30l4 -6zM952 543q16 -22 23.5 -37.5t7.5 -26.5q0 -10 -7.5 -25.5t-23.5 -37.5l-235 -342q-1 -1 -2 -3q-20 -30 -43 -30q-15 0 -25 10t-10 25q0 5 2 13t6 17l137 328l2 5q13 31 13 40q0 7 -10 32q-3 8 -5 14l-137 329q-4 10 -6 17t-2 12q0 14 10 25.5t25 11.5
q22 -1 42 -31q2 -3 3 -4z" />
    <glyph glyph-name="onequarter" unicode="&#xbc;" horiz-adv-x="1229" 
d="M430 590v-94h-430v94h168v477l-157 -106v102l202 139h68v-612h149zM950 1065l-565 -981l-88 51l565 981zM1217 213h-143v-119h115v-94h-369v94h141v119h-334v90l349 403h98v-399h143v-94zM740 307h221v256z" />
    <glyph glyph-name="onehalf" unicode="&#xbd;" horiz-adv-x="1229" 
d="M430 590v-94h-430v94h168v477l-157 -106v102l202 139h68v-612h149zM921 1065l-565 -981l-88 51l565 981zM822 94h311v108h94v-202h-518v100q15 78 70.5 136.5t185.5 113.5q149 63 149 143q0 117 -149 117q-104 0 -211 -82l-41 82q125 96 252 96q120 0 191 -56t71 -153
q0 -73 -50.5 -130.5t-176.5 -110.5q-165 -71 -178 -162z" />
    <glyph glyph-name="threequarters" unicode="&#xbe;" horiz-adv-x="1229" 
d="M229 893h41q90 0 128 27t38 84q0 104 -156 104q-95 0 -190 -76l-58 74q126 96 248 96q124 0 196 -51.5t72 -144.5q0 -119 -131 -152q69 -11 109.5 -54t40.5 -106q0 -98 -74.5 -152.5t-212.5 -54.5q-147 0 -274 95l53 80q102 -80 221 -80q174 0 174 112q0 60 -45.5 86.5
t-179.5 26.5v86zM995 1065l-565 -981l-88 51l565 981zM1217 213h-143v-119h115v-94h-369v94h141v119h-334v90l349 403h98v-399h143v-94zM740 307h221v256z" />
    <glyph glyph-name="questiondown" unicode="&#xbf;" horiz-adv-x="1251" 
 />
    <glyph glyph-name="Agrave" unicode="&#xc0;" 
d="M1227 66q0 -29 -24.5 -47.5t-53.5 -18.5h-324q-24 0 -40.5 19.5t-16.5 43.5q0 65 76 65h125l-96 255h-506l-93 -255h125q77 0 77 -65q0 -63 -77 -63h-322q-23 0 -42 19t-19 42q0 50 43 62q16 5 84 5l342 936q-214 0 -103 -4q-67 2 -89 35q-5 14 -9 31q0 65 76 65h346
l396 -1063q125 0 125 -62zM827 510l-211 554l-199 -554h410zM689 1299q0 -22 -21 -42t-43 -20q-24 0 -52 25l-226 199q-33 29 -33 57q0 23 20 44t43 21t52 -26q67 -56 134 -111q96 -82 119 -115q7 -17 7 -32z" />
    <glyph glyph-name="Aacute" unicode="&#xc1;" 
d="M1227 66q0 -29 -24.5 -47.5t-53.5 -18.5h-324q-24 0 -40.5 19.5t-16.5 43.5q0 65 76 65h125l-96 255h-506l-93 -255h125q77 0 77 -65q0 -63 -77 -63h-322q-23 0 -42 19t-19 42q0 50 43 62q16 5 84 5l342 936q-214 0 -103 -4q-67 2 -89 35q-5 14 -9 31q0 65 76 65h346
l396 -1063q125 0 125 -62zM827 510l-211 554l-199 -554h410zM766 1511l-7 -25q-30 -41 -121 -118q-67 -56 -135 -112q-29 -26 -52 -26q-59 0 -59 64l3 28q25 39 119 118q67 56 135 112q27 24 53 24q21 0 39 -20q12 -6 25 -45z" />
    <glyph glyph-name="Acircumflex" unicode="&#xc2;" horiz-adv-x="1366" 
 />
    <glyph glyph-name="Atilde" unicode="&#xc3;" horiz-adv-x="1366" 
 />
    <glyph glyph-name="Adieresis" unicode="&#xc4;" horiz-adv-x="1366" 
 />
    <glyph glyph-name="Aring" unicode="&#xc5;" horiz-adv-x="1366" 
 />
    <glyph glyph-name="AE" unicode="&#xc6;" horiz-adv-x="2048" 
 />
    <glyph glyph-name="Ccedilla" unicode="&#xc7;" horiz-adv-x="1479" 
 />
    <glyph glyph-name="Egrave" unicode="&#xc8;" 
d="M1031 0h-907q-85 0 -85 72q0 56 58 70q20 5 100 5l3 901q-85 0 -101 4q-60 13 -60 69q0 72 86 72h866l-2 -311q-1 -88 -72 -88q-33 0 -53 29q-18 24 -18 59l2 166h-505l-2 -357h223q-3 61 -3 67q0 28 21.5 54t48.5 26q76 0 76 -89l-1 -260q0 -30 -18 -60q-22 -31 -53 -31
q-54 0 -68 53q-5 21 -5 94h-219l-1 -398h547l-1 206q0 86 71 86q72 0 72 -86v-353zM690 1299q0 -22 -21.5 -42t-42.5 -20q-25 0 -53 25l-226 199q-32 29 -32 57q0 23 19.5 44t43.5 21q22 0 52 -26q67 -56 134 -111q95 -82 119 -115q7 -17 7 -32z" />
    <glyph glyph-name="Eacute" unicode="&#xc9;" horiz-adv-x="1366" 
 />
    <glyph glyph-name="Ecircumflex" unicode="&#xca;" 
d="M743 1549l2 -20q0 -28 -14 -47l-137 -188q-23 -30 -48 -30q-61 0 -93 66l-4 23q1 10 11 41l140 187q19 24 53 31q54 -9 90 -63zM1031 0h-907q-85 0 -85 72q0 56 58 70q20 5 100 5l3 901q-85 0 -101 4q-60 13 -60 69q0 72 86 72h866l-2 -311q-1 -88 -72 -88q-33 0 -53 29
q-18 24 -18 59l2 166h-505l-2 -357h223q-3 61 -3 67q0 28 21.5 54t48.5 26q76 0 76 -89l-1 -260q0 -30 -18 -60q-22 -31 -53 -31q-54 0 -68 53q-5 21 -5 94h-219l-1 -398h547l-1 206q0 86 71 86q72 0 72 -86v-353z" />
    <glyph glyph-name="Edieresis" unicode="&#xcb;" horiz-adv-x="1366" 
 />
    <glyph glyph-name="Igrave" unicode="&#xcc;" horiz-adv-x="569" 
 />
    <glyph glyph-name="Iacute" unicode="&#xcd;" horiz-adv-x="569" 
 />
    <glyph glyph-name="Icircumflex" unicode="&#xce;" horiz-adv-x="569" 
 />
    <glyph glyph-name="Idieresis" unicode="&#xcf;" horiz-adv-x="569" 
 />
    <glyph glyph-name="Eth" unicode="&#xd0;" horiz-adv-x="1479" 
 />
    <glyph glyph-name="Ntilde" unicode="&#xd1;" horiz-adv-x="1479" 
 />
    <glyph glyph-name="Ograve" unicode="&#xd2;" 
d="M1033 591q0 -244 -133 -425q-149 -199 -385 -199q-234 0 -381 200q-134 182 -134 424q0 247 133 427q146 199 384 199q235 0 383 -200q133 -182 133 -426zM906 591q0 189 -98 334q-110 165 -290 165q-178 0 -292 -165q-100 -148 -100 -334q0 -187 99 -332
q113 -166 291 -166t291 165q99 146 99 333zM689 1299q0 -22 -21 -42t-43 -20q-25 0 -52 25l-227 199q-32 29 -32 57q0 23 19.5 44t43.5 21q23 0 52 -26q67 -56 134 -111q95 -82 119 -115q7 -17 7 -32z" />
    <glyph glyph-name="Oacute" unicode="&#xd3;" 
d="M1033 591q0 -244 -133 -425q-149 -199 -385 -199q-234 0 -381 200q-134 182 -134 424q0 247 133 427q146 199 384 199q235 0 383 -200q133 -182 133 -426zM906 591q0 189 -98 334q-110 165 -290 165q-178 0 -292 -165q-100 -148 -100 -334q0 -187 99 -332
q113 -166 291 -166t291 165q99 146 99 333zM766 1511l-7 -25q-31 -41 -121 -118q-67 -56 -135 -112q-30 -26 -52 -26q-59 0 -59 64l3 28q25 39 119 118q67 56 135 112q27 24 53 24q20 0 39 -20q12 -6 25 -45z" />
    <glyph glyph-name="Ocircumflex" unicode="&#xd4;" horiz-adv-x="1593" 
 />
    <glyph glyph-name="Otilde" unicode="&#xd5;" horiz-adv-x="1593" 
 />
    <glyph glyph-name="Odieresis" unicode="&#xd6;" horiz-adv-x="1593" 
 />
    <glyph glyph-name="multiply" unicode="&#xd7;" horiz-adv-x="1196" 
 />
    <glyph glyph-name="Oslash" unicode="&#xd8;" horiz-adv-x="1593" 
 />
    <glyph glyph-name="Ugrave" unicode="&#xd9;" 
d="M1170 1128q0 -73 -123 -64l-3 -666q-1 -181 -114 -305q-118 -126 -298 -126q-176 0 -297 127q-119 125 -119 304l2 666q-123 -5 -123 64q0 63 76 63h300q76 0 76 -61q0 -70 -118 -70q-20 0 -49 2t-37 2l-1 -666q0 -120 83 -211q85 -94 204 -94q122 0 206 91t84 214l2 666
q-4 0 -63 -2q-38 -1 -62 1q-34 4 -59 17q-22 22 -22 48q0 63 79 63h299q77 0 77 -63zM729 1299q0 -22 -21.5 -42t-42.5 -20q-25 0 -52 25l-227 199q-32 29 -32 57q0 23 19.5 44t43.5 21q22 0 52 -26q67 -56 134 -111q95 -82 119 -115q7 -17 7 -32z" />
    <glyph glyph-name="Uacute" unicode="&#xda;" 
d="M1170 1128q0 -73 -123 -64l-3 -666q-1 -181 -114 -305q-118 -126 -298 -126q-176 0 -297 127q-119 125 -119 304l2 666q-123 -5 -123 64q0 63 76 63h300q76 0 76 -61q0 -70 -118 -70q-20 0 -49 2t-37 2l-1 -666q0 -120 83 -211q85 -94 204 -94q122 0 206 91t84 214l2 666
q-4 0 -63 -2q-38 -1 -62 1q-34 4 -59 17q-22 22 -22 48q0 63 79 63h299q77 0 77 -63zM796 1511l-7 -25q-31 -41 -121 -118q-67 -56 -135 -112q-30 -26 -52 -26q-59 0 -59 64l3 28q25 39 119 118q67 56 135 112q27 24 53 24q20 0 39 -20q12 -6 25 -45z" />
    <glyph glyph-name="Ucircumflex" unicode="&#xdb;" horiz-adv-x="1479" 
 />
    <glyph glyph-name="Udieresis" unicode="&#xdc;" 
d="M941 1408q0 -42 -31 -71.5t-72 -29.5q-43 0 -70.5 28.5t-27.5 72.5q0 102 100 102q42 0 71.5 -29.5t29.5 -72.5zM526 1408q0 -41 -30.5 -71t-71.5 -30q-42 0 -71.5 30t-29.5 71q0 44 29 73t73 29q42 0 71.5 -29t29.5 -73zM1170 1128q0 -73 -123 -64l-3 -666
q-1 -181 -114 -305q-118 -126 -298 -126q-176 0 -297 127q-119 125 -119 304l2 666q-123 -5 -123 64q0 63 76 63h300q76 0 76 -61q0 -70 -118 -70q-20 0 -49 2t-37 2l-1 -666q0 -120 83 -211q85 -94 204 -94q122 0 206 91t84 214l2 666q-4 0 -63 -2q-38 -1 -62 1
q-34 4 -59 17q-22 22 -22 48q0 63 79 63h299q77 0 77 -63z" />
    <glyph glyph-name="Yacute" unicode="&#xdd;" horiz-adv-x="1366" 
 />
    <glyph glyph-name="Thorn" unicode="&#xde;" horiz-adv-x="1366" 
 />
    <glyph glyph-name="germandbls" unicode="&#xdf;" horiz-adv-x="1229" 
d="M238 111v718q0 164 107 268.5t282 104.5q174 0 266 -67t92 -195q0 -54 -29.5 -103.5t-134.5 -111.5q-70 -42 -87 -65t-17 -46q0 -27 27 -51t139 -66q174 -64 224 -122.5t50 -128.5q0 -129 -89 -204t-247 -75q-203 0 -346 133l70 90q123 -112 276 -112q91 0 140 41.5
t49 111.5q0 38 -31.5 70t-155.5 77q-162 58 -207 112.5t-45 121.5q0 47 25.5 89.5t120.5 98.5q80 47 100.5 77.5t20.5 62.5q0 152 -211 152q-122 0 -186 -71.5t-64 -203.5v-817h-287v111h148z" />
    <glyph glyph-name="agrave" unicode="&#xe0;" 
d="M758 1058q0 -22 -21 -42t-43 -20q-24 0 -52 25l-226 199q-33 29 -33 56q0 24 20 44.5t43 20.5t52 -25q67 -56 134 -111q96 -82 119 -116q7 -16 7 -31zM1070 62q0 -62 -75 -62h-214l1 93q-176 -126 -357 -126q-136 0 -229 70q-101 78 -101 210q0 163 149 248
q122 70 297 70h31q113 0 210 -24v107q0 141 -236 141q-79 0 -249 -51l-43 -13q-62 0 -62 70q0 20 15 37q23 26 165 59q129 28 187 28q134 0 235 -67q113 -76 113 -204v-521q96 0 101 -1q62 -10 62 -64zM782 259v153q-143 27 -253 27q-105 0 -197 -43q-114 -55 -114 -149
q0 -74 68 -117q58 -37 136 -37q167 0 360 166z" />
    <glyph glyph-name="aacute" unicode="&#xe1;" 
d="M807 1274q-7 -33 -30 -54l-229 -200q-29 -25 -53 -25q-25 0 -43 20q-19 9 -19 44l4 27q9 19 278 247q13 3 28 8q54 0 64 -67zM1120 62q0 -62 -75 -62h-214l1 93q-168 -126 -356 -126q-137 0 -230 69q-101 78 -101 211q0 173 161 255q123 63 315 63q137 0 212 -23v105
q0 76 -80 115q-60 28 -145 28q-93 0 -260 -52q-39 -12 -45 -12q-60 0 -60 71q0 16 15 34q22 26 162 58q128 29 190 29q137 0 235 -65q112 -76 112 -206v-519q91 0 101 -2q62 -11 62 -64zM832 260l-1 152q-116 27 -250 27q-107 0 -198 -42q-113 -55 -113 -150q0 -77 66 -119
q55 -35 137 -35q188 0 359 167z" />
    <glyph glyph-name="acircumflex" unicode="&#xe2;" horiz-adv-x="1139" 
 />
    <glyph glyph-name="atilde" unicode="&#xe3;" horiz-adv-x="1139" 
 />
    <glyph glyph-name="adieresis" unicode="&#xe4;" horiz-adv-x="1139" 
 />
    <glyph glyph-name="aring" unicode="&#xe5;" horiz-adv-x="1139" 
 />
    <glyph glyph-name="ae" unicode="&#xe6;" horiz-adv-x="1821" 
 />
    <glyph glyph-name="ccedilla" unicode="&#xe7;" horiz-adv-x="1024" 
 />
    <glyph glyph-name="egrave" unicode="&#xe8;" 
d="M815 1062q0 -66 -65 -66q-23 0 -52 26l-226 198q-29 25 -29 56q0 65 62 65l23 -3q30 -16 148 -121.5t133 -128.5q6 -24 6 -26zM1090 149q0 -20 -27 -42q-167 -140 -418 -140q-214 0 -361 141t-147 354q0 194 142 327q137 130 334 130q223 0 352 -148q122 -142 122 -368
h-821q26 -141 129.5 -225.5t247.5 -84.5q134 0 270 64q38 27 90 58q15 3 25 3q62 0 62 -69zM956 530q-22 113 -125 187q-100 72 -217 72q-269 0 -343 -259h685z" />
    <glyph glyph-name="eacute" unicode="&#xe9;" 
d="M794 1276l-7 -24q-30 -42 -121 -118q-67 -56 -135 -112q-29 -26 -52 -26q-59 0 -59 64l3 27q26 40 119 119q67 56 135 112q27 23 53 23q21 0 39 -19q12 -6 25 -46zM1066 155q0 -25 -25 -47q-158 -141 -420 -141q-215 0 -361.5 140.5t-146.5 354.5q0 196 142 328
q138 129 336 129q226 0 354 -147q120 -140 120 -369h-821q25 -140 130 -225t249 -85q134 0 266 64q1 1 58 36q40 25 58 25q25 0 43 -19t18 -44zM932 530q-30 122 -125 191q-92 68 -219 68q-125 0 -216 -69t-124 -190h684z" />
    <glyph glyph-name="ecircumflex" unicode="&#xea;" horiz-adv-x="1139" 
 />
    <glyph glyph-name="edieresis" unicode="&#xeb;" horiz-adv-x="1139" 
 />
    <glyph glyph-name="igrave" unicode="&#xec;" 
d="M1013 63q0 -38 -41 -59l-35 -4h-631q-54 0 -76 66q15 36 29 49t52 13h252v635q13 0 -69 -3q-59 -1 -96 2q-52 4 -66 18q-15 25 -15 48q0 20 15 46q22 16 56 16h298l-1 -762h252q76 0 76 -65zM690 1122q0 -22 -21.5 -42t-42.5 -20q-25 0 -53 25l-226 199q-32 29 -32 56
q0 24 19.5 44.5t43.5 20.5q22 0 52 -25q67 -56 134 -111q95 -82 119 -116q7 -16 7 -31z" />
    <glyph glyph-name="iacute" unicode="&#xed;" 
d="M806 1275q-4 -12 -9 -28q-7 -10 -24 -28l-224 -197q-31 -27 -52 -27q-61 0 -61 64l4 27q7 11 25 33l227 197q29 25 49 25q65 0 65 -66zM1013 63q0 -38 -41 -59l-35 -4h-631q-54 0 -76 66q15 36 29 49t52 13h252v635q13 0 -69 -3q-59 -1 -96 2q-52 4 -66 18q-15 25 -15 48
q0 20 15 46q22 16 56 16h298l-1 -762h252q76 0 76 -65z" />
    <glyph glyph-name="icircumflex" unicode="&#xee;" horiz-adv-x="569" 
 />
    <glyph glyph-name="idieresis" unicode="&#xef;" horiz-adv-x="569" 
 />
    <glyph glyph-name="eth" unicode="&#xf0;" horiz-adv-x="1139" 
 />
    <glyph glyph-name="ntilde" unicode="&#xf1;" horiz-adv-x="1139" 
 />
    <glyph glyph-name="ograve" unicode="&#xf2;" 
d="M1013 442q0 -197 -138.5 -336t-335.5 -139q-198 0 -336.5 138t-138.5 337q0 198 139.5 337.5t336.5 139.5q201 0 337 -138t136 -339zM889 442q0 144 -103.5 245.5t-247.5 101.5q-145 0 -246 -100.5t-101 -246.5q0 -147 100.5 -248t246.5 -101q145 0 248 102.5t103 246.5z
M758 1058q0 -22 -21 -42t-43 -20q-25 0 -52 25l-227 199q-32 29 -32 56q0 24 19.5 44.5t43.5 20.5q22 0 52 -25q67 -56 134 -111q95 -82 119 -116q7 -16 7 -31z" />
    <glyph glyph-name="oacute" unicode="&#xf3;" 
d="M727 1276q-3 -11 -8 -26q-20 -33 -119 -116l-134 -112q-30 -26 -51 -26q-64 0 -64 67l5 22q21 35 119 120q68 56 136 113q28 23 53 23t44 -20t19 -45zM1013 442q0 -197 -138.5 -336t-335.5 -139q-198 0 -336.5 138t-138.5 337q0 198 139.5 337.5t336.5 139.5
q201 0 337 -138t136 -339zM889 442q0 144 -103.5 245.5t-247.5 101.5q-145 0 -246 -100.5t-101 -246.5q0 -147 100.5 -248t246.5 -101q145 0 248 102.5t103 246.5z" />
    <glyph glyph-name="ocircumflex" unicode="&#xf4;" horiz-adv-x="1139" 
 />
    <glyph glyph-name="otilde" unicode="&#xf5;" horiz-adv-x="1139" 
 />
    <glyph glyph-name="odieresis" unicode="&#xf6;" horiz-adv-x="1139" 
 />
    <glyph glyph-name="divide" unicode="&#xf7;" 
d="M736 928q0 -47 -34 -78.5t-81 -31.5q-46 0 -80 32.5t-34 77.5q0 48 32.5 82.5t81.5 34.5q48 0 81.5 -34.5t33.5 -82.5zM1074 590q0 -60 -70 -60h-768q-70 0 -70 60t69 60h769q70 0 70 -60zM736 250q0 -48 -33.5 -80.5t-81.5 -32.5t-81 33t-33 80t33 80.5t81 33.5
q47 0 81 -33.5t34 -80.5z" />
    <glyph glyph-name="oslash" unicode="&#xf8;" horiz-adv-x="1251" 
 />
    <glyph glyph-name="ugrave" unicode="&#xf9;" 
d="M776 1045q0 -49 -52 -49q-19 0 -56 24l-347 226q-7 9 -17 21l-4 26q0 48 50 48q17 0 55 -23l350 -224q21 -35 21 -49zM1043 62q0 -24 -18 -43t-43 -19h-187l-1 93q-155 -126 -338 -126q-127 0 -205 81t-78 209l1 504q-91 0 -100 2q-65 11 -65 63q0 65 78 65h211l1 -634
q0 -68 43 -116t110 -48q180 0 343 173v495q-184 0 -96 -2q-53 1 -91 21l-14 21l-4 25q0 65 77 65h253l-2 -764q61 0 81 -6q44 -13 44 -59z" />
    <glyph glyph-name="uacute" unicode="&#xfa;" 
d="M729 1278l-7 -27q-10 -17 -255 -229q-30 -26 -52 -26q-64 0 -64 67q0 29 29 54l231 201q28 23 54 23q45 0 64 -63zM1043 62q0 -24 -18 -43t-43 -19h-187l-1 93q-155 -126 -338 -126q-127 0 -205 81t-78 209l1 504q-91 0 -100 2q-65 11 -65 63q0 65 78 65h211l1 -634
q0 -68 43 -116t110 -48q180 0 343 173v495q-184 0 -96 -2q-53 1 -91 21l-14 21l-4 25q0 65 77 65h253l-2 -764q61 0 81 -6q44 -13 44 -59z" />
    <glyph glyph-name="ucircumflex" unicode="&#xfb;" horiz-adv-x="1139" 
 />
    <glyph glyph-name="udieresis" unicode="&#xfc;" 
d="M830 1139q0 -41 -31 -73t-71 -32q-41 0 -70.5 30.5t-29.5 72.5q0 44 27.5 74t71.5 30q41 0 72 -30.5t31 -71.5zM413 1137q0 -42 -30 -72.5t-70 -30.5q-41 0 -70.5 31t-29.5 72q0 45 29.5 74.5t75.5 29.5q39 0 67 -32t28 -72zM1024 62q0 -63 -77 -63h-172l2 94
q-159 -126 -338 -126q-126 0 -205 81t-79 208v504q-113 0 -141 16q-22 25 -22 49q0 64 76 64h212l-1 -632q0 -69 43.5 -116.5t111.5 -47.5q183 0 340 171l4 496h-130q-76 0 -76 65q0 64 77 64h251l1 -763q60 0 79 -6q44 -13 44 -58z" />
    <glyph glyph-name="yacute" unicode="&#xfd;" horiz-adv-x="1024" 
 />
    <glyph glyph-name="thorn" unicode="&#xfe;" horiz-adv-x="1139" 
 />
    <glyph glyph-name="ydieresis" unicode="&#xff;" horiz-adv-x="1024" 
 />
    <glyph glyph-name="Amacron" unicode="&#x100;" horiz-adv-x="1366" 
 />
    <glyph glyph-name="amacron" unicode="&#x101;" horiz-adv-x="1139" 
 />
    <glyph glyph-name="Abreve" unicode="&#x102;" horiz-adv-x="1366" 
 />
    <glyph glyph-name="abreve" unicode="&#x103;" horiz-adv-x="1139" 
 />
    <glyph glyph-name="Aogonek" unicode="&#x104;" horiz-adv-x="1366" 
 />
    <glyph glyph-name="aogonek" unicode="&#x105;" horiz-adv-x="1139" 
 />
    <glyph glyph-name="Cacute" unicode="&#x106;" horiz-adv-x="1479" 
 />
    <glyph glyph-name="cacute" unicode="&#x107;" horiz-adv-x="1024" 
 />
    <glyph glyph-name="Ccircumflex" unicode="&#x108;" horiz-adv-x="1479" 
 />
    <glyph glyph-name="ccircumflex" unicode="&#x109;" horiz-adv-x="1024" 
 />
    <glyph glyph-name="Cdotaccent" unicode="&#x10a;" horiz-adv-x="1479" 
 />
    <glyph glyph-name="cdotaccent" unicode="&#x10b;" horiz-adv-x="1024" 
 />
    <glyph glyph-name="Ccaron" unicode="&#x10c;" horiz-adv-x="1479" 
 />
    <glyph glyph-name="ccaron" unicode="&#x10d;" horiz-adv-x="1024" 
 />
    <glyph glyph-name="Dcaron" unicode="&#x10e;" horiz-adv-x="1479" 
 />
    <glyph glyph-name="dcaron" unicode="&#x10f;" horiz-adv-x="1259" 
 />
    <glyph glyph-name="Dcroat" unicode="&#x110;" horiz-adv-x="1479" 
 />
    <glyph glyph-name="dcroat" unicode="&#x111;" horiz-adv-x="1139" 
 />
    <glyph glyph-name="Emacron" unicode="&#x112;" horiz-adv-x="1366" 
 />
    <glyph glyph-name="emacron" unicode="&#x113;" horiz-adv-x="1139" 
 />
    <glyph glyph-name="Ebreve" unicode="&#x114;" horiz-adv-x="1366" 
 />
    <glyph glyph-name="ebreve" unicode="&#x115;" horiz-adv-x="1139" 
 />
    <glyph glyph-name="Edotaccent" unicode="&#x116;" horiz-adv-x="1366" 
 />
    <glyph glyph-name="edotaccent" unicode="&#x117;" horiz-adv-x="1139" 
 />
    <glyph glyph-name="Eogonek" unicode="&#x118;" horiz-adv-x="1366" 
 />
    <glyph glyph-name="eogonek" unicode="&#x119;" horiz-adv-x="1139" 
 />
    <glyph glyph-name="Ecaron" unicode="&#x11a;" horiz-adv-x="1366" 
 />
    <glyph glyph-name="ecaron" unicode="&#x11b;" horiz-adv-x="1139" 
 />
    <glyph glyph-name="Gcircumflex" unicode="&#x11c;" horiz-adv-x="1593" 
 />
    <glyph glyph-name="gcircumflex" unicode="&#x11d;" horiz-adv-x="1139" 
 />
    <glyph glyph-name="Gbreve" unicode="&#x11e;" horiz-adv-x="1593" 
 />
    <glyph glyph-name="gbreve" unicode="&#x11f;" horiz-adv-x="1139" 
 />
    <glyph glyph-name="Gdotaccent" unicode="&#x120;" horiz-adv-x="1593" 
 />
    <glyph glyph-name="gdotaccent" unicode="&#x121;" horiz-adv-x="1139" 
 />
    <glyph glyph-name="Gcommaaccent" unicode="&#x122;" horiz-adv-x="1593" 
 />
    <glyph glyph-name="gcommaaccent" unicode="&#x123;" horiz-adv-x="1139" 
 />
    <glyph glyph-name="Hcircumflex" unicode="&#x124;" horiz-adv-x="1479" 
 />
    <glyph glyph-name="hcircumflex" unicode="&#x125;" horiz-adv-x="1139" 
 />
    <glyph glyph-name="Hbar" unicode="&#x126;" horiz-adv-x="1479" 
 />
    <glyph glyph-name="hbar" unicode="&#x127;" horiz-adv-x="1139" 
 />
    <glyph glyph-name="Itilde" unicode="&#x128;" horiz-adv-x="569" 
 />
    <glyph glyph-name="itilde" unicode="&#x129;" horiz-adv-x="569" 
 />
    <glyph glyph-name="Imacron" unicode="&#x12a;" horiz-adv-x="569" 
 />
    <glyph glyph-name="imacron" unicode="&#x12b;" horiz-adv-x="569" 
 />
    <glyph glyph-name="Ibreve" unicode="&#x12c;" horiz-adv-x="569" 
 />
    <glyph glyph-name="ibreve" unicode="&#x12d;" horiz-adv-x="569" 
 />
    <glyph glyph-name="Iogonek" unicode="&#x12e;" horiz-adv-x="569" 
 />
    <glyph glyph-name="iogonek" unicode="&#x12f;" horiz-adv-x="455" 
 />
    <glyph glyph-name="Idotaccent" unicode="&#x130;" horiz-adv-x="569" 
 />
    <glyph glyph-name="dotlessi" unicode="&#x131;" horiz-adv-x="569" 
 />
    <glyph glyph-name="IJ" unicode="&#x132;" horiz-adv-x="1505" 
 />
    <glyph glyph-name="ij" unicode="&#x133;" horiz-adv-x="909" 
 />
    <glyph glyph-name="Jcircumflex" unicode="&#x134;" horiz-adv-x="1024" 
 />
    <glyph glyph-name="jcircumflex" unicode="&#x135;" horiz-adv-x="455" 
 />
    <glyph glyph-name="Kcommaaccent" unicode="&#x136;" horiz-adv-x="1366" 
 />
    <glyph glyph-name="kcommaaccent" unicode="&#x137;" horiz-adv-x="1024" 
 />
    <glyph glyph-name="kgreenlandic" unicode="&#x138;" horiz-adv-x="1024" 
 />
    <glyph glyph-name="Lacute" unicode="&#x139;" horiz-adv-x="1139" 
 />
    <glyph glyph-name="lacute" unicode="&#x13a;" horiz-adv-x="455" 
 />
    <glyph glyph-name="Lcommaaccent" unicode="&#x13b;" horiz-adv-x="1139" 
 />
    <glyph glyph-name="lcommaaccent" unicode="&#x13c;" horiz-adv-x="455" 
 />
    <glyph glyph-name="Lcaron" unicode="&#x13d;" horiz-adv-x="1139" 
 />
    <glyph glyph-name="lcaron" unicode="&#x13e;" horiz-adv-x="597" 
 />
    <glyph glyph-name="Ldot" unicode="&#x13f;" horiz-adv-x="1139" 
 />
    <glyph glyph-name="ldot" unicode="&#x140;" horiz-adv-x="684" 
 />
    <glyph glyph-name="Lslash" unicode="&#x141;" horiz-adv-x="1139" 
 />
    <glyph glyph-name="lslash" unicode="&#x142;" horiz-adv-x="455" 
 />
    <glyph glyph-name="Nacute" unicode="&#x143;" horiz-adv-x="1479" 
 />
    <glyph glyph-name="nacute" unicode="&#x144;" horiz-adv-x="1139" 
 />
    <glyph glyph-name="Ncommaaccent" unicode="&#x145;" horiz-adv-x="1479" 
 />
    <glyph glyph-name="ncommaaccent" unicode="&#x146;" horiz-adv-x="1139" 
 />
    <glyph glyph-name="Ncaron" unicode="&#x147;" horiz-adv-x="1479" 
 />
    <glyph glyph-name="ncaron" unicode="&#x148;" horiz-adv-x="1139" 
 />
    <glyph glyph-name="napostrophe" unicode="&#x149;" horiz-adv-x="1237" 
 />
    <glyph glyph-name="Eng" unicode="&#x14a;" horiz-adv-x="1481" 
 />
    <glyph glyph-name="eng" unicode="&#x14b;" horiz-adv-x="1139" 
 />
    <glyph glyph-name="Omacron" unicode="&#x14c;" horiz-adv-x="1593" 
 />
    <glyph glyph-name="omacron" unicode="&#x14d;" horiz-adv-x="1139" 
 />
    <glyph glyph-name="Obreve" unicode="&#x14e;" horiz-adv-x="1593" 
 />
    <glyph glyph-name="obreve" unicode="&#x14f;" horiz-adv-x="1139" 
 />
    <glyph glyph-name="Ohungarumlaut" unicode="&#x150;" horiz-adv-x="1593" 
 />
    <glyph glyph-name="ohungarumlaut" unicode="&#x151;" horiz-adv-x="1139" 
 />
    <glyph glyph-name="OE" unicode="&#x152;" horiz-adv-x="2048" 
 />
    <glyph glyph-name="oe" unicode="&#x153;" horiz-adv-x="1933" 
 />
    <glyph glyph-name="Racute" unicode="&#x154;" horiz-adv-x="1479" 
 />
    <glyph glyph-name="racute" unicode="&#x155;" horiz-adv-x="682" 
 />
    <glyph glyph-name="Rcommaaccent" unicode="&#x156;" horiz-adv-x="1479" 
 />
    <glyph glyph-name="rcommaaccent" unicode="&#x157;" horiz-adv-x="682" 
 />
    <glyph glyph-name="Rcaron" unicode="&#x158;" horiz-adv-x="1479" 
 />
    <glyph glyph-name="rcaron" unicode="&#x159;" horiz-adv-x="682" 
 />
    <glyph glyph-name="Sacute" unicode="&#x15a;" horiz-adv-x="1366" 
 />
    <glyph glyph-name="sacute" unicode="&#x15b;" horiz-adv-x="1024" 
 />
    <glyph glyph-name="Scircumflex" unicode="&#x15c;" horiz-adv-x="1366" 
 />
    <glyph glyph-name="scircumflex" unicode="&#x15d;" horiz-adv-x="1024" 
 />
    <glyph glyph-name="Scedilla" unicode="&#x15e;" horiz-adv-x="1366" 
 />
    <glyph glyph-name="scedilla" unicode="&#x15f;" horiz-adv-x="1024" 
 />
    <glyph glyph-name="Scaron" unicode="&#x160;" horiz-adv-x="1366" 
 />
    <glyph glyph-name="scaron" unicode="&#x161;" horiz-adv-x="1024" 
 />
    <glyph glyph-name="Tcommaaccent" unicode="&#x162;" horiz-adv-x="1251" 
 />
    <glyph glyph-name="tcommaaccent" unicode="&#x163;" horiz-adv-x="569" 
 />
    <glyph glyph-name="Tcaron" unicode="&#x164;" horiz-adv-x="1251" 
 />
    <glyph glyph-name="tcaron" unicode="&#x165;" horiz-adv-x="768" 
 />
    <glyph glyph-name="Tbar" unicode="&#x166;" horiz-adv-x="1251" 
 />
    <glyph glyph-name="tbar" unicode="&#x167;" horiz-adv-x="569" 
 />
    <glyph glyph-name="Utilde" unicode="&#x168;" horiz-adv-x="1479" 
 />
    <glyph glyph-name="utilde" unicode="&#x169;" horiz-adv-x="1139" 
 />
    <glyph glyph-name="Umacron" unicode="&#x16a;" horiz-adv-x="1479" 
 />
    <glyph glyph-name="umacron" unicode="&#x16b;" horiz-adv-x="1139" 
 />
    <glyph glyph-name="Ubreve" unicode="&#x16c;" horiz-adv-x="1479" 
 />
    <glyph glyph-name="ubreve" unicode="&#x16d;" horiz-adv-x="1139" 
 />
    <glyph glyph-name="Uring" unicode="&#x16e;" horiz-adv-x="1479" 
 />
    <glyph glyph-name="uring" unicode="&#x16f;" horiz-adv-x="1139" 
 />
    <glyph glyph-name="Uhungarumlaut" unicode="&#x170;" horiz-adv-x="1479" 
 />
    <glyph glyph-name="uhungarumlaut" unicode="&#x171;" horiz-adv-x="1139" 
 />
    <glyph glyph-name="Uogonek" unicode="&#x172;" horiz-adv-x="1479" 
 />
    <glyph glyph-name="uogonek" unicode="&#x173;" horiz-adv-x="1139" 
 />
    <glyph glyph-name="Wcircumflex" unicode="&#x174;" horiz-adv-x="1933" 
 />
    <glyph glyph-name="wcircumflex" unicode="&#x175;" horiz-adv-x="1479" 
 />
    <glyph glyph-name="Ycircumflex" unicode="&#x176;" horiz-adv-x="1366" 
 />
    <glyph glyph-name="ycircumflex" unicode="&#x177;" horiz-adv-x="1024" 
 />
    <glyph glyph-name="Ydieresis" unicode="&#x178;" horiz-adv-x="1366" 
 />
    <glyph glyph-name="Zacute" unicode="&#x179;" horiz-adv-x="1251" 
 />
    <glyph glyph-name="zacute" unicode="&#x17a;" horiz-adv-x="1024" 
 />
    <glyph glyph-name="Zdotaccent" unicode="&#x17b;" horiz-adv-x="1251" 
 />
    <glyph glyph-name="zdotaccent" unicode="&#x17c;" horiz-adv-x="1024" 
 />
    <glyph glyph-name="Zcaron" unicode="&#x17d;" horiz-adv-x="1251" 
 />
    <glyph glyph-name="zcaron" unicode="&#x17e;" horiz-adv-x="1024" 
 />
    <glyph glyph-name="longs" unicode="&#x17f;" horiz-adv-x="455" 
 />
    <glyph glyph-name="florin" unicode="&#x192;" horiz-adv-x="1139" 
 />
    <glyph glyph-name="Aringacute" unicode="&#x1fa;" horiz-adv-x="1366" 
 />
    <glyph glyph-name="aringacute" unicode="&#x1fb;" horiz-adv-x="1139" 
 />
    <glyph glyph-name="AEacute" unicode="&#x1fc;" horiz-adv-x="2048" 
 />
    <glyph glyph-name="aeacute" unicode="&#x1fd;" horiz-adv-x="1821" 
 />
    <glyph glyph-name="Oslashacute" unicode="&#x1fe;" horiz-adv-x="1593" 
 />
    <glyph glyph-name="oslashacute" unicode="&#x1ff;" horiz-adv-x="1251" 
 />
    <glyph glyph-name="circumflex" unicode="&#x2c6;" horiz-adv-x="1233" 
d="M670 1427q21 0 43 -12t47 -39l207 -229q3 -4 4.5 -8.5t1.5 -10.5q0 -13 -12 -21.5t-29 -8.5q-16 0 -32.5 6.5t-43.5 23.5l-178 121q-17 12 -31 17.5t-29 5.5q-13 0 -29.5 -6t-31.5 -17l-176 -121q-24 -16 -42.5 -23t-35.5 -7q-18 0 -29.5 9t-11.5 21q0 5 2 9.5t6 9.5
l205 229q25 27 47 39t43 12h105z" />
    <glyph glyph-name="caron" unicode="&#x2c7;" horiz-adv-x="682" 
 />
    <glyph glyph-name="uni02C9" unicode="&#x2c9;" horiz-adv-x="682" 
 />
    <glyph glyph-name="breve" unicode="&#x2d8;" horiz-adv-x="682" 
 />
    <glyph glyph-name="dotaccent" unicode="&#x2d9;" horiz-adv-x="682" 
 />
    <glyph glyph-name="ring" unicode="&#x2da;" horiz-adv-x="682" 
 />
    <glyph glyph-name="ogonek" unicode="&#x2db;" horiz-adv-x="682" 
 />
    <glyph glyph-name="tilde" unicode="&#x2dc;" horiz-adv-x="682" 
 />
    <glyph glyph-name="hungarumlaut" unicode="&#x2dd;" horiz-adv-x="682" 
 />
    <glyph glyph-name="tonos" unicode="&#x384;" horiz-adv-x="682" 
 />
    <glyph glyph-name="dieresistonos" unicode="&#x385;" horiz-adv-x="682" 
 />
    <glyph glyph-name="Alphatonos" unicode="&#x386;" horiz-adv-x="1367" 
 />
    <glyph glyph-name="anoteleia" unicode="&#x387;" horiz-adv-x="569" 
 />
    <glyph glyph-name="Epsilontonos" unicode="&#x388;" horiz-adv-x="1606" 
 />
    <glyph glyph-name="Etatonos" unicode="&#x389;" horiz-adv-x="1716" 
 />
    <glyph glyph-name="Iotatonos" unicode="&#x38a;" horiz-adv-x="786" 
 />
    <glyph glyph-name="Omicrontonos" unicode="&#x38c;" horiz-adv-x="1586" 
 />
    <glyph glyph-name="Upsilontonos" unicode="&#x38e;" horiz-adv-x="1752" 
 />
    <glyph glyph-name="Omegatonos" unicode="&#x38f;" horiz-adv-x="1541" 
 />
    <glyph glyph-name="iotadieresistonos" unicode="&#x390;" horiz-adv-x="455" 
 />
    <glyph glyph-name="Alpha" unicode="&#x391;" horiz-adv-x="1366" 
 />
    <glyph glyph-name="Beta" unicode="&#x392;" horiz-adv-x="1366" 
 />
    <glyph glyph-name="Gamma" unicode="&#x393;" horiz-adv-x="1128" 
 />
    <glyph glyph-name="uni0394" unicode="&#x394;" horiz-adv-x="1368" 
 />
    <glyph glyph-name="Epsilon" unicode="&#x395;" horiz-adv-x="1366" 
 />
    <glyph glyph-name="Zeta" unicode="&#x396;" horiz-adv-x="1251" 
 />
    <glyph glyph-name="Eta" unicode="&#x397;" horiz-adv-x="1479" 
 />
    <glyph glyph-name="Theta" unicode="&#x398;" horiz-adv-x="1593" 
 />
    <glyph glyph-name="Iota" unicode="&#x399;" horiz-adv-x="569" 
 />
    <glyph glyph-name="Kappa" unicode="&#x39a;" horiz-adv-x="1366" 
 />
    <glyph glyph-name="Lambda" unicode="&#x39b;" horiz-adv-x="1368" 
 />
    <glyph glyph-name="Mu" unicode="&#x39c;" horiz-adv-x="1706" 
 />
    <glyph glyph-name="Nu" unicode="&#x39d;" horiz-adv-x="1479" 
 />
    <glyph glyph-name="Xi" unicode="&#x39e;" horiz-adv-x="1331" 
 />
    <glyph glyph-name="Omicron" unicode="&#x39f;" horiz-adv-x="1593" 
 />
    <glyph glyph-name="Pi" unicode="&#x3a0;" horiz-adv-x="1479" 
 />
    <glyph glyph-name="Rho" unicode="&#x3a1;" horiz-adv-x="1366" 
 />
    <glyph glyph-name="Sigma" unicode="&#x3a3;" horiz-adv-x="1266" 
 />
    <glyph glyph-name="Tau" unicode="&#x3a4;" horiz-adv-x="1251" 
 />
    <glyph glyph-name="Upsilon" unicode="&#x3a5;" horiz-adv-x="1366" 
 />
    <glyph glyph-name="Phi" unicode="&#x3a6;" horiz-adv-x="1634" 
 />
    <glyph glyph-name="Chi" unicode="&#x3a7;" horiz-adv-x="1366" 
 />
    <glyph glyph-name="Psi" unicode="&#x3a8;" horiz-adv-x="1711" 
 />
    <glyph glyph-name="uni03A9" unicode="&#x3a9;" horiz-adv-x="1531" 
 />
    <glyph glyph-name="Iotadieresis" unicode="&#x3aa;" horiz-adv-x="569" 
 />
    <glyph glyph-name="Upsilondieresis" unicode="&#x3ab;" horiz-adv-x="1366" 
 />
    <glyph glyph-name="alphatonos" unicode="&#x3ac;" horiz-adv-x="1184" 
 />
    <glyph glyph-name="epsilontonos" unicode="&#x3ad;" horiz-adv-x="913" 
 />
    <glyph glyph-name="etatonos" unicode="&#x3ae;" horiz-adv-x="1139" 
 />
    <glyph glyph-name="iotatonos" unicode="&#x3af;" horiz-adv-x="455" 
 />
    <glyph glyph-name="upsilondieresistonos" unicode="&#x3b0;" horiz-adv-x="1120" 
 />
    <glyph glyph-name="alpha" unicode="&#x3b1;" horiz-adv-x="1184" 
 />
    <glyph glyph-name="beta" unicode="&#x3b2;" horiz-adv-x="1178" 
 />
    <glyph glyph-name="gamma" unicode="&#x3b3;" horiz-adv-x="1024" 
 />
    <glyph glyph-name="delta" unicode="&#x3b4;" horiz-adv-x="1140" 
 />
    <glyph glyph-name="epsilon" unicode="&#x3b5;" horiz-adv-x="913" 
 />
    <glyph glyph-name="zeta" unicode="&#x3b6;" horiz-adv-x="903" 
 />
    <glyph glyph-name="eta" unicode="&#x3b7;" horiz-adv-x="1139" 
 />
    <glyph glyph-name="theta" unicode="&#x3b8;" horiz-adv-x="1139" 
 />
    <glyph glyph-name="iota" unicode="&#x3b9;" horiz-adv-x="455" 
 />
    <glyph glyph-name="kappa" unicode="&#x3ba;" horiz-adv-x="1024" 
 />
    <glyph glyph-name="lambda" unicode="&#x3bb;" horiz-adv-x="1024" 
 />
    <glyph glyph-name="uni03BC" unicode="&#x3bc;" horiz-adv-x="1180" 
 />
    <glyph glyph-name="nu" unicode="&#x3bd;" horiz-adv-x="1024" 
 />
    <glyph glyph-name="xi" unicode="&#x3be;" horiz-adv-x="917" 
 />
    <glyph glyph-name="omicron" unicode="&#x3bf;" horiz-adv-x="1139" 
 />
    <glyph glyph-name="pi" unicode="&#x3c0;" horiz-adv-x="1413" 
 />
    <glyph glyph-name="rho" unicode="&#x3c1;" horiz-adv-x="1165" 
 />
    <glyph glyph-name="sigma1" unicode="&#x3c2;" horiz-adv-x="987" 
 />
    <glyph glyph-name="sigma" unicode="&#x3c3;" horiz-adv-x="1264" 
 />
    <glyph glyph-name="tau" unicode="&#x3c4;" horiz-adv-x="809" 
 />
    <glyph glyph-name="upsilon" unicode="&#x3c5;" horiz-adv-x="1120" 
 />
    <glyph glyph-name="phi" unicode="&#x3c6;" horiz-adv-x="1328" 
 />
    <glyph glyph-name="chi" unicode="&#x3c7;" horiz-adv-x="1075" 
 />
    <glyph glyph-name="psi" unicode="&#x3c8;" horiz-adv-x="1460" 
 />
    <glyph glyph-name="omega" unicode="&#x3c9;" horiz-adv-x="1599" 
 />
    <glyph glyph-name="iotadieresis" unicode="&#x3ca;" horiz-adv-x="455" 
 />
    <glyph glyph-name="upsilondieresis" unicode="&#x3cb;" horiz-adv-x="1120" 
 />
    <glyph glyph-name="omicrontonos" unicode="&#x3cc;" horiz-adv-x="1139" 
 />
    <glyph glyph-name="upsilontonos" unicode="&#x3cd;" horiz-adv-x="1120" 
 />
    <glyph glyph-name="omegatonos" unicode="&#x3ce;" horiz-adv-x="1599" 
 />
    <glyph glyph-name="afii10023" unicode="&#x401;" horiz-adv-x="1367" 
 />
    <glyph glyph-name="afii10051" unicode="&#x402;" horiz-adv-x="1771" 
 />
    <glyph glyph-name="afii10052" unicode="&#x403;" horiz-adv-x="1109" 
 />
    <glyph glyph-name="afii10053" unicode="&#x404;" horiz-adv-x="1472" 
 />
    <glyph glyph-name="afii10054" unicode="&#x405;" horiz-adv-x="1366" 
 />
    <glyph glyph-name="afii10055" unicode="&#x406;" horiz-adv-x="569" 
 />
    <glyph glyph-name="afii10056" unicode="&#x407;" horiz-adv-x="569" 
 />
    <glyph glyph-name="afii10057" unicode="&#x408;" horiz-adv-x="1024" 
 />
    <glyph glyph-name="afii10058" unicode="&#x409;" horiz-adv-x="2165" 
 />
    <glyph glyph-name="afii10059" unicode="&#x40a;" horiz-adv-x="2069" 
 />
    <glyph glyph-name="afii10060" unicode="&#x40b;" horiz-adv-x="1749" 
 />
    <glyph glyph-name="afii10061" unicode="&#x40c;" horiz-adv-x="1193" 
 />
    <glyph glyph-name="afii10062" unicode="&#x40e;" horiz-adv-x="1301" 
 />
    <glyph glyph-name="afii10145" unicode="&#x40f;" horiz-adv-x="1472" 
 />
    <glyph glyph-name="afii10017" unicode="&#x410;" horiz-adv-x="1366" 
 />
    <glyph glyph-name="afii10018" unicode="&#x411;" horiz-adv-x="1344" 
 />
    <glyph glyph-name="afii10019" unicode="&#x412;" horiz-adv-x="1366" 
 />
    <glyph glyph-name="afii10020" unicode="&#x413;" horiz-adv-x="1109" 
 />
    <glyph glyph-name="afii10021" unicode="&#x414;" horiz-adv-x="1387" 
 />
    <glyph glyph-name="afii10022" unicode="&#x415;" horiz-adv-x="1366" 
 />
    <glyph glyph-name="afii10024" unicode="&#x416;" horiz-adv-x="1891" 
 />
    <glyph glyph-name="afii10025" unicode="&#x417;" horiz-adv-x="1237" 
 />
    <glyph glyph-name="afii10026" unicode="&#x418;" horiz-adv-x="1472" 
 />
    <glyph glyph-name="afii10027" unicode="&#x419;" horiz-adv-x="1472" 
 />
    <glyph glyph-name="afii10028" unicode="&#x41a;" horiz-adv-x="1193" 
 />
    <glyph glyph-name="afii10029" unicode="&#x41b;" horiz-adv-x="1344" 
 />
    <glyph glyph-name="afii10030" unicode="&#x41c;" horiz-adv-x="1706" 
 />
    <glyph glyph-name="afii10031" unicode="&#x41d;" horiz-adv-x="1479" 
 />
    <glyph glyph-name="afii10032" unicode="&#x41e;" horiz-adv-x="1593" 
 />
    <glyph glyph-name="afii10033" unicode="&#x41f;" horiz-adv-x="1472" 
 />
    <glyph glyph-name="afii10034" unicode="&#x420;" horiz-adv-x="1366" 
 />
    <glyph glyph-name="afii10035" unicode="&#x421;" horiz-adv-x="1479" 
 />
    <glyph glyph-name="afii10036" unicode="&#x422;" horiz-adv-x="1251" 
 />
    <glyph glyph-name="afii10037" unicode="&#x423;" horiz-adv-x="1301" 
 />
    <glyph glyph-name="afii10038" unicode="&#x424;" horiz-adv-x="1557" 
 />
    <glyph glyph-name="afii10039" unicode="&#x425;" horiz-adv-x="1366" 
 />
    <glyph glyph-name="afii10040" unicode="&#x426;" horiz-adv-x="1515" 
 />
    <glyph glyph-name="afii10041" unicode="&#x427;" horiz-adv-x="1365" 
 />
    <glyph glyph-name="afii10042" unicode="&#x428;" horiz-adv-x="1877" 
 />
    <glyph glyph-name="afii10043" unicode="&#x429;" horiz-adv-x="1920" 
 />
    <glyph glyph-name="afii10044" unicode="&#x42a;" horiz-adv-x="1621" 
 />
    <glyph glyph-name="afii10045" unicode="&#x42b;" horiz-adv-x="1813" 
 />
    <glyph glyph-name="afii10046" unicode="&#x42c;" horiz-adv-x="1344" 
 />
    <glyph glyph-name="afii10047" unicode="&#x42d;" horiz-adv-x="1472" 
 />
    <glyph glyph-name="afii10048" unicode="&#x42e;" horiz-adv-x="2069" 
 />
    <glyph glyph-name="afii10049" unicode="&#x42f;" horiz-adv-x="1479" 
 />
    <glyph glyph-name="afii10065" unicode="&#x430;" horiz-adv-x="1139" 
 />
    <glyph glyph-name="afii10066" unicode="&#x431;" horiz-adv-x="1173" 
 />
    <glyph glyph-name="afii10067" unicode="&#x432;" horiz-adv-x="1088" 
 />
    <glyph glyph-name="afii10068" unicode="&#x433;" horiz-adv-x="747" 
 />
    <glyph glyph-name="afii10069" unicode="&#x434;" 
 />
    <glyph glyph-name="afii10070" unicode="&#x435;" horiz-adv-x="1139" 
 />
    <glyph glyph-name="afii10072" unicode="&#x436;" horiz-adv-x="1370" 
 />
    <glyph glyph-name="afii10073" unicode="&#x437;" horiz-adv-x="939" 
 />
    <glyph glyph-name="afii10074" unicode="&#x438;" horiz-adv-x="1144" 
 />
    <glyph glyph-name="afii10075" unicode="&#x439;" horiz-adv-x="1144" 
 />
    <glyph glyph-name="afii10076" unicode="&#x43a;" horiz-adv-x="896" 
 />
    <glyph glyph-name="afii10077" unicode="&#x43b;" 
 />
    <glyph glyph-name="afii10078" unicode="&#x43c;" horiz-adv-x="1408" 
 />
    <glyph glyph-name="afii10079" unicode="&#x43d;" horiz-adv-x="1131" 
 />
    <glyph glyph-name="afii10080" unicode="&#x43e;" horiz-adv-x="1139" 
 />
    <glyph glyph-name="afii10081" unicode="&#x43f;" horiz-adv-x="1109" 
 />
    <glyph glyph-name="afii10082" unicode="&#x440;" horiz-adv-x="1139" 
 />
    <glyph glyph-name="afii10083" unicode="&#x441;" horiz-adv-x="1024" 
 />
    <glyph glyph-name="afii10084" unicode="&#x442;" horiz-adv-x="938" 
 />
    <glyph glyph-name="afii10085" unicode="&#x443;" horiz-adv-x="1024" 
 />
    <glyph glyph-name="afii10086" unicode="&#x444;" horiz-adv-x="1685" 
 />
    <glyph glyph-name="afii10087" unicode="&#x445;" horiz-adv-x="1024" 
 />
    <glyph glyph-name="afii10088" unicode="&#x446;" horiz-adv-x="1173" 
 />
    <glyph glyph-name="afii10089" unicode="&#x447;" horiz-adv-x="1067" 
 />
    <glyph glyph-name="afii10090" unicode="&#x448;" horiz-adv-x="1643" 
 />
    <glyph glyph-name="afii10091" unicode="&#x449;" horiz-adv-x="1685" 
 />
    <glyph glyph-name="afii10092" unicode="&#x44a;" horiz-adv-x="1280" 
 />
    <glyph glyph-name="afii10093" unicode="&#x44b;" horiz-adv-x="1472" 
 />
    <glyph glyph-name="afii10094" unicode="&#x44c;" horiz-adv-x="1067" 
 />
    <glyph glyph-name="afii10095" unicode="&#x44d;" horiz-adv-x="1045" 
 />
    <glyph glyph-name="afii10096" unicode="&#x44e;" horiz-adv-x="1536" 
 />
    <glyph glyph-name="afii10097" unicode="&#x44f;" horiz-adv-x="1109" 
 />
    <glyph glyph-name="afii10071" unicode="&#x451;" horiz-adv-x="1139" 
 />
    <glyph glyph-name="afii10099" unicode="&#x452;" horiz-adv-x="1139" 
 />
    <glyph glyph-name="afii10100" unicode="&#x453;" horiz-adv-x="747" 
 />
    <glyph glyph-name="afii10101" unicode="&#x454;" horiz-adv-x="1045" 
 />
    <glyph glyph-name="afii10102" unicode="&#x455;" horiz-adv-x="1024" 
 />
    <glyph glyph-name="afii10103" unicode="&#x456;" horiz-adv-x="455" 
 />
    <glyph glyph-name="afii10104" unicode="&#x457;" horiz-adv-x="569" 
 />
    <glyph glyph-name="afii10105" unicode="&#x458;" horiz-adv-x="455" 
 />
    <glyph glyph-name="afii10106" unicode="&#x459;" horiz-adv-x="1856" 
 />
    <glyph glyph-name="afii10107" unicode="&#x45a;" horiz-adv-x="1664" 
 />
    <glyph glyph-name="afii10108" unicode="&#x45b;" horiz-adv-x="1139" 
 />
    <glyph glyph-name="afii10109" unicode="&#x45c;" horiz-adv-x="896" 
 />
    <glyph glyph-name="afii10110" unicode="&#x45e;" horiz-adv-x="1024" 
 />
    <glyph glyph-name="afii10193" unicode="&#x45f;" horiz-adv-x="1131" 
 />
    <glyph glyph-name="afii10050" unicode="&#x490;" horiz-adv-x="1001" 
 />
    <glyph glyph-name="afii10098" unicode="&#x491;" horiz-adv-x="842" 
 />
    <glyph glyph-name="Wgrave" unicode="&#x1e80;" horiz-adv-x="1933" 
 />
    <glyph glyph-name="wgrave" unicode="&#x1e81;" horiz-adv-x="1479" 
 />
    <glyph glyph-name="Wacute" unicode="&#x1e82;" horiz-adv-x="1933" 
 />
    <glyph glyph-name="wacute" unicode="&#x1e83;" horiz-adv-x="1479" 
 />
    <glyph glyph-name="Wdieresis" unicode="&#x1e84;" horiz-adv-x="1933" 
 />
    <glyph glyph-name="wdieresis" unicode="&#x1e85;" horiz-adv-x="1479" 
 />
    <glyph glyph-name="Ygrave" unicode="&#x1ef2;" horiz-adv-x="1366" 
 />
    <glyph glyph-name="ygrave" unicode="&#x1ef3;" horiz-adv-x="1024" 
 />
    <glyph glyph-name="endash" unicode="&#x2013;" horiz-adv-x="1233" 
d="M1200 571q52 0 75 -19t23 -63q0 -42 -22.5 -60.5t-75.5 -18.5h-1177q-47 0 -68 18.5t-21 60.5t22 62t67 20h1177z" />
    <glyph glyph-name="emdash" unicode="&#x2014;" horiz-adv-x="1233" 
d="M1200 571q52 0 75 -19t23 -63q0 -42 -22.5 -60.5t-75.5 -18.5h-1177q-47 0 -68 18.5t-21 60.5t22 62t67 20h1177z" />
    <glyph glyph-name="afii00208" unicode="&#x2015;" horiz-adv-x="2048" 
 />
    <glyph glyph-name="underscoredbl" unicode="&#x2017;" horiz-adv-x="1131" 
 />
    <glyph glyph-name="quoteleft" unicode="&#x2018;" horiz-adv-x="1229" 
d="M651 932q56 0 95.5 -39.5t39.5 -95.5t-39.5 -95.5t-95.5 -39.5h-37q-55 0 -95 39.5t-40 95.5v12q0 113 66 220t184 173l57 -78q-127 -83 -135 -192z" />
    <glyph glyph-name="quoteright" unicode="&#x2019;" horiz-adv-x="1229" 
d="M578 932q-56 0 -96 39.5t-40 95.5t40 95.5t96 39.5h36q56 0 96 -39.5t40 -95.5v-12q0 -114 -66.5 -220.5t-183.5 -172.5l-58 77q128 84 136 193z" />
    <glyph glyph-name="quotesinglbase" unicode="&#x201a;" horiz-adv-x="1229" 
d="M596 -31q-56 0 -95.5 39.5t-39.5 95.5q0 57 39.5 96.5t95.5 39.5h37q55 0 95 -39.5t40 -96.5v-12q0 -113 -66 -220t-184 -173l-57 78q127 83 135 192z" />
    <glyph glyph-name="quotereversed" unicode="&#x201b;" horiz-adv-x="455" 
 />
    <glyph glyph-name="quotedblleft" unicode="&#x201c;" horiz-adv-x="1233" 
d="M1063 883q0 -78 -48.5 -127t-125.5 -49q-86 0 -137.5 67.5t-51.5 183.5q0 152 97 290t174 138q30 0 44.5 -12.5t14.5 -38.5q0 -32 -68.5 -109t-68.5 -126q0 -27 54 -57q14 -8 22 -13q49 -30 71.5 -65t22.5 -82zM555 883q0 -78 -49 -127t-125 -49q-87 0 -137.5 67
t-50.5 182q0 154 96.5 292t173.5 138q30 0 44.5 -12t14.5 -39q0 -30 -67.5 -108t-67.5 -127q0 -27 57 -60q12 -7 17 -10q49 -30 71.5 -65t22.5 -82z" />
    <glyph glyph-name="quotedblright" unicode="&#x201d;" horiz-adv-x="1233" 
d="M190 1208q0 78 49.5 128t125.5 50q87 0 139.5 -68.5t52.5 -184.5q0 -152 -98 -292.5t-176 -140.5q-30 0 -45 13t-15 39q0 33 68.5 110t68.5 127q0 26 -56 59q-13 7 -20 11q-48 29 -71 65t-23 84zM702 1208q0 78 49.5 128t125.5 50q86 0 138 -68.5t52 -184.5
q0 -153 -97 -293t-179 -140q-28 0 -42 13t-14 39q0 33 68.5 110t68.5 127q0 28 -61 62q-9 5 -15 8q-48 27 -71 63.5t-23 85.5z" />
    <glyph glyph-name="quotedblbase" unicode="&#x201e;" horiz-adv-x="1229" 
d="M885 -31q-56 0 -95.5 39.5t-39.5 95.5q0 57 39.5 96.5t95.5 39.5h37q55 0 95 -39.5t40 -96.5v-12q0 -113 -66 -220t-184 -173l-57 78q127 83 135 192zM381 -31q-56 0 -95.5 39.5t-39.5 95.5q0 57 39.5 96.5t95.5 39.5h37q55 0 95 -39.5t40 -96.5v-12q0 -113 -66 -220
t-184 -173l-57 78q127 83 135 192z" />
    <glyph glyph-name="dagger" unicode="&#x2020;" horiz-adv-x="1229" 
d="M1012 729h-328v-1010h-139v1010h-328v111h328v329h139v-329h328v-111z" />
    <glyph glyph-name="daggerdbl" unicode="&#x2021;" horiz-adv-x="1139" 
 />
    <glyph glyph-name="bullet" unicode="&#x2022;" horiz-adv-x="1233" 
d="M457 684q0 67 46.5 114.5t112.5 47.5t113 -48t47 -114t-47 -113t-113 -47t-112.5 46.5t-46.5 113.5z" />
    <glyph glyph-name="ellipsis" unicode="&#x2026;" horiz-adv-x="1229" 
d="M1024 207q50 0 84.5 -34t34.5 -85q0 -50 -34.5 -84.5t-84.5 -34.5t-83.5 34t-33.5 85t33.5 85t83.5 34zM614 207q51 0 85 -34t34 -85q0 -50 -34 -84.5t-85 -34.5q-50 0 -83 34t-33 85t33 85t83 34zM205 207q50 0 84.5 -34t34.5 -85q0 -50 -34.5 -84.5t-84.5 -34.5
t-83.5 34t-33.5 85t33 85t84 34z" />
    <glyph glyph-name="perthousand" unicode="&#x2030;" horiz-adv-x="1229" 
d="M545 946q0 -106 -75 -181t-181 -75t-181 75.5t-75 180.5q0 106 75 181t181 75q105 0 180.5 -75t75.5 -181zM135 946q0 -62 45.5 -107.5t108.5 -45.5q62 0 107.5 45.5t45.5 107.5q0 63 -45 108.5t-108 45.5t-108.5 -45.5t-45.5 -108.5zM864 905l51 -88l-831 -479l-51 88z
M731 377q81 102 205 102q105 0 180.5 -75t75.5 -181t-75 -181t-181 -75q-124 0 -205 103q-81 -103 -205 -103q-105 0 -180.5 75.5t-75.5 180.5q0 106 75.5 181t180.5 75q124 0 205 -102zM782 223q0 -62 45.5 -107.5t108.5 -45.5t108.5 45.5t45.5 107.5q0 63 -45.5 108.5
t-108.5 45.5t-108.5 -45.5t-45.5 -108.5zM373 223q0 -62 45.5 -107.5t107.5 -45.5q63 0 108.5 45.5t45.5 107.5q0 63 -45.5 108.5t-108.5 45.5q-62 0 -107.5 -45.5t-45.5 -108.5z" />
    <glyph glyph-name="minute" unicode="&#x2032;" horiz-adv-x="384" 
 />
    <glyph glyph-name="second" unicode="&#x2033;" horiz-adv-x="725" 
 />
    <glyph glyph-name="guilsinglleft" unicode="&#x2039;" horiz-adv-x="682" 
 />
    <glyph glyph-name="guilsinglright" unicode="&#x203a;" horiz-adv-x="682" 
 />
    <glyph glyph-name="exclamdbl" unicode="&#x203c;" horiz-adv-x="1024" 
 />
    <glyph glyph-name="uni203E" unicode="&#x203e;" horiz-adv-x="682" 
 />
    <glyph glyph-name="fraction" unicode="&#x2044;" horiz-adv-x="342" 
 />
    <glyph glyph-name="fraction" unicode="&#x2215;" horiz-adv-x="342" 
 />
    <glyph glyph-name="uni207F" unicode="&#x207f;" horiz-adv-x="747" 
 />
    <glyph glyph-name="franc" unicode="&#x20a3;" horiz-adv-x="1139" 
 />
    <glyph glyph-name="lira" unicode="&#x20a4;" horiz-adv-x="1139" 
 />
    <glyph glyph-name="peseta" unicode="&#x20a7;" horiz-adv-x="2240" 
 />
    <glyph glyph-name="Euro" unicode="&#x20ac;" horiz-adv-x="1229" 
d="M135 659h-135l53 103h97q41 210 167.5 325t309.5 115q95 0 184.5 -32.5t130.5 -82.5v115h111v-346h-99q-32 119 -127 177.5t-200 58.5q-266 0 -332 -330h461l-54 -103h-419q-2 -22 -2 -73q0 -45 2 -64h348l-53 -102h-285q61 -340 354 -340q192 0 404 149l55 -94
q-137 -91 -242 -128.5t-217 -37.5q-197 0 -328 117t-172 334h-147l53 102h82q-2 19 -2 64q0 51 2 73z" />
    <glyph glyph-name="afii61248" unicode="&#x2105;" horiz-adv-x="1813" 
 />
    <glyph glyph-name="afii61289" unicode="&#x2113;" horiz-adv-x="662" 
 />
    <glyph glyph-name="afii61352" unicode="&#x2116;" horiz-adv-x="2197" 
 />
    <glyph glyph-name="trademark" unicode="&#x2122;" horiz-adv-x="2048" 
 />
    <glyph glyph-name="Omega" unicode="&#x2126;" horiz-adv-x="1573" 
 />
    <glyph glyph-name="estimated" unicode="&#x212e;" horiz-adv-x="1229" 
 />
    <glyph glyph-name="oneeighth" unicode="&#x215b;" horiz-adv-x="1708" 
 />
    <glyph glyph-name="threeeighths" unicode="&#x215c;" horiz-adv-x="1708" 
 />
    <glyph glyph-name="fiveeighths" unicode="&#x215d;" horiz-adv-x="1708" 
 />
    <glyph glyph-name="seveneighths" unicode="&#x215e;" horiz-adv-x="1708" 
 />
    <glyph glyph-name="arrowleft" unicode="&#x2190;" horiz-adv-x="2048" 
 />
    <glyph glyph-name="arrowup" unicode="&#x2191;" horiz-adv-x="1024" 
 />
    <glyph glyph-name="arrowright" unicode="&#x2192;" horiz-adv-x="2048" 
 />
    <glyph glyph-name="arrowdown" unicode="&#x2193;" horiz-adv-x="1024" 
 />
    <glyph glyph-name="arrowboth" unicode="&#x2194;" horiz-adv-x="2048" 
 />
    <glyph glyph-name="arrowupdn" unicode="&#x2195;" horiz-adv-x="1024" 
 />
    <glyph glyph-name="arrowupdnbse" unicode="&#x21a8;" horiz-adv-x="1024" 
 />
    <glyph glyph-name="partialdiff" unicode="&#x2202;" horiz-adv-x="1012" 
 />
    <glyph glyph-name="Delta" unicode="&#x2206;" horiz-adv-x="1253" 
 />
    <glyph glyph-name="product" unicode="&#x220f;" horiz-adv-x="1686" 
 />
    <glyph glyph-name="summation" unicode="&#x2211;" horiz-adv-x="1460" 
 />
    <glyph glyph-name="minus" unicode="&#x2212;" horiz-adv-x="1196" 
 />
    <glyph glyph-name="radical" unicode="&#x221a;" horiz-adv-x="1124" 
 />
    <glyph glyph-name="infinity" unicode="&#x221e;" horiz-adv-x="1233" 
d="M694 627q57 -136 102.5 -186t106.5 -50q71 0 116.5 67t45.5 175q0 107 -42 171t-112 64q-66 0 -118.5 -58.5t-98.5 -182.5zM537 635q-56 134 -102 183.5t-107 49.5q-71 0 -116.5 -66.5t-45.5 -172.5q0 -109 41.5 -173.5t109.5 -64.5q67 0 120 59t100 185zM616 764
q47 117 120.5 180.5t164.5 63.5q119 0 205 -109.5t86 -269.5q0 -167 -81.5 -273t-207.5 -106q-83 0 -147 50t-142 181q-65 -124 -131 -177.5t-151 -53.5q-125 0 -208 107t-83 272q0 173 78.5 276t210.5 103q94 0 162 -57.5t124 -186.5z" />
    <glyph glyph-name="orthogonal" unicode="&#x221f;" horiz-adv-x="2005" 
 />
    <glyph glyph-name="intersection" unicode="&#x2229;" horiz-adv-x="1472" 
 />
    <glyph glyph-name="integral" unicode="&#x222b;" horiz-adv-x="561" 
 />
    <glyph glyph-name="approxequal" unicode="&#x2248;" horiz-adv-x="1124" 
 />
    <glyph glyph-name="notequal" unicode="&#x2260;" horiz-adv-x="1124" 
 />
    <glyph glyph-name="equivalence" unicode="&#x2261;" 
 />
    <glyph glyph-name="lessequal" unicode="&#x2264;" 
d="M1074 192q0 -21 -15 -43q-19 -17 -43 -18q-35 5 -410 210q-221 124 -441 247l810 442q27 15 41 15q21 0 39.5 -19t18.5 -40q0 -35 -43 -60l-595 -338l595 -337q43 -25 43 -59zM1074 -142q-9 -36 -21 -47.5t-48 -11.5h-755q-74 0 -74 59q0 24 24 41.5t49 17.5h755
q62 0 70 -59z" />
    <glyph glyph-name="greaterequal" unicode="&#x2265;" 
d="M1074 588l-850 -457q-21 0 -40 19t-19 40q0 36 43 61l597 337l-597 338q-43 25 -43 59q0 24 17.5 42t41.5 18q14 0 40 -15zM1063 -142q-9 -36 -20 -46q-14 -13 -48 -13h-756q-74 0 -74 59q0 23 24.5 41t48.5 18h756q61 0 69 -59z" />
    <glyph glyph-name="house" unicode="&#x2302;" horiz-adv-x="1237" 
 />
    <glyph glyph-name="revlogicalnot" unicode="&#x2310;" horiz-adv-x="1196" 
 />
    <glyph glyph-name="integraltp" unicode="&#x2320;" horiz-adv-x="1237" 
 />
    <glyph glyph-name="integralbt" unicode="&#x2321;" horiz-adv-x="1237" 
 />
    <glyph glyph-name="SF100000" unicode="&#x2500;" horiz-adv-x="1451" 
 />
    <glyph glyph-name="SF110000" unicode="&#x2502;" horiz-adv-x="1280" 
 />
    <glyph glyph-name="SF010000" unicode="&#x250c;" horiz-adv-x="1451" 
 />
    <glyph glyph-name="SF030000" unicode="&#x2510;" horiz-adv-x="1451" 
 />
    <glyph glyph-name="SF020000" unicode="&#x2514;" horiz-adv-x="1451" 
 />
    <glyph glyph-name="SF040000" unicode="&#x2518;" horiz-adv-x="1451" 
 />
    <glyph glyph-name="SF080000" unicode="&#x251c;" horiz-adv-x="1451" 
 />
    <glyph glyph-name="SF090000" unicode="&#x2524;" horiz-adv-x="1451" 
 />
    <glyph glyph-name="SF060000" unicode="&#x252c;" horiz-adv-x="1451" 
 />
    <glyph glyph-name="SF070000" unicode="&#x2534;" horiz-adv-x="1451" 
 />
    <glyph glyph-name="SF050000" unicode="&#x253c;" horiz-adv-x="1451" 
 />
    <glyph glyph-name="SF430000" unicode="&#x2550;" horiz-adv-x="1451" 
 />
    <glyph glyph-name="SF240000" unicode="&#x2551;" horiz-adv-x="1451" 
 />
    <glyph glyph-name="SF510000" unicode="&#x2552;" horiz-adv-x="1451" 
 />
    <glyph glyph-name="SF520000" unicode="&#x2553;" horiz-adv-x="1451" 
 />
    <glyph glyph-name="SF390000" unicode="&#x2554;" horiz-adv-x="1451" 
 />
    <glyph glyph-name="SF220000" unicode="&#x2555;" horiz-adv-x="1451" 
 />
    <glyph glyph-name="SF210000" unicode="&#x2556;" horiz-adv-x="1451" 
 />
    <glyph glyph-name="SF250000" unicode="&#x2557;" horiz-adv-x="1451" 
 />
    <glyph glyph-name="SF500000" unicode="&#x2558;" horiz-adv-x="1451" 
 />
    <glyph glyph-name="SF490000" unicode="&#x2559;" horiz-adv-x="1451" 
 />
    <glyph glyph-name="SF380000" unicode="&#x255a;" horiz-adv-x="1451" 
 />
    <glyph glyph-name="SF280000" unicode="&#x255b;" horiz-adv-x="1451" 
 />
    <glyph glyph-name="SF270000" unicode="&#x255c;" horiz-adv-x="1451" 
 />
    <glyph glyph-name="SF260000" unicode="&#x255d;" horiz-adv-x="1451" 
 />
    <glyph glyph-name="SF360000" unicode="&#x255e;" horiz-adv-x="1451" 
 />
    <glyph glyph-name="SF370000" unicode="&#x255f;" horiz-adv-x="1451" 
 />
    <glyph glyph-name="SF420000" unicode="&#x2560;" horiz-adv-x="1451" 
 />
    <glyph glyph-name="SF190000" unicode="&#x2561;" horiz-adv-x="1451" 
 />
    <glyph glyph-name="SF200000" unicode="&#x2562;" horiz-adv-x="1451" 
 />
    <glyph glyph-name="SF230000" unicode="&#x2563;" horiz-adv-x="1451" 
 />
    <glyph glyph-name="SF470000" unicode="&#x2564;" horiz-adv-x="1451" 
 />
    <glyph glyph-name="SF480000" unicode="&#x2565;" horiz-adv-x="1451" 
 />
    <glyph glyph-name="SF410000" unicode="&#x2566;" horiz-adv-x="1451" 
 />
    <glyph glyph-name="SF450000" unicode="&#x2567;" horiz-adv-x="1451" 
 />
    <glyph glyph-name="SF460000" unicode="&#x2568;" horiz-adv-x="1451" 
 />
    <glyph glyph-name="SF400000" unicode="&#x2569;" horiz-adv-x="1451" 
 />
    <glyph glyph-name="SF540000" unicode="&#x256a;" horiz-adv-x="1451" 
 />
    <glyph glyph-name="SF530000" unicode="&#x256b;" horiz-adv-x="1451" 
 />
    <glyph glyph-name="SF440000" unicode="&#x256c;" horiz-adv-x="1451" 
 />
    <glyph glyph-name="upblock" unicode="&#x2580;" horiz-adv-x="1451" 
 />
    <glyph glyph-name="dnblock" unicode="&#x2584;" horiz-adv-x="1451" 
 />
    <glyph glyph-name="block" unicode="&#x2588;" horiz-adv-x="1451" 
 />
    <glyph glyph-name="lfblock" unicode="&#x258c;" horiz-adv-x="1451" 
 />
    <glyph glyph-name="rtblock" unicode="&#x2590;" horiz-adv-x="1451" 
 />
    <glyph glyph-name="ltshade" unicode="&#x2591;" horiz-adv-x="1451" 
 />
    <glyph glyph-name="shade" unicode="&#x2592;" horiz-adv-x="1451" 
 />
    <glyph glyph-name="dkshade" unicode="&#x2593;" horiz-adv-x="1493" 
 />
    <glyph glyph-name="filledbox" unicode="&#x25a0;" horiz-adv-x="1237" 
 />
    <glyph glyph-name="H22073" unicode="&#x25a1;" horiz-adv-x="1237" 
 />
    <glyph glyph-name="H18543" unicode="&#x25aa;" horiz-adv-x="726" 
 />
    <glyph glyph-name="H18551" unicode="&#x25ab;" horiz-adv-x="726" 
 />
    <glyph glyph-name="filledrect" unicode="&#x25ac;" horiz-adv-x="2048" 
 />
    <glyph glyph-name="triagup" unicode="&#x25b2;" horiz-adv-x="2027" 
 />
    <glyph glyph-name="triagrt" unicode="&#x25ba;" horiz-adv-x="2027" 
 />
    <glyph glyph-name="triagdn" unicode="&#x25bc;" horiz-adv-x="2027" 
 />
    <glyph glyph-name="triaglf" unicode="&#x25c4;" horiz-adv-x="2027" 
 />
    <glyph glyph-name="lozenge" unicode="&#x25ca;" horiz-adv-x="1012" 
 />
    <glyph glyph-name="circle" unicode="&#x25cb;" horiz-adv-x="1237" 
 />
    <glyph glyph-name="H18533" unicode="&#x25cf;" horiz-adv-x="1237" 
 />
    <glyph glyph-name="invbullet" unicode="&#x25d8;" horiz-adv-x="1237" 
 />
    <glyph glyph-name="invcircle" unicode="&#x25d9;" horiz-adv-x="1237" 
 />
    <glyph glyph-name="openbullet" unicode="&#x25e6;" horiz-adv-x="726" 
 />
    <glyph glyph-name="smileface" unicode="&#x263a;" horiz-adv-x="2091" 
 />
    <glyph glyph-name="invsmileface" unicode="&#x263b;" horiz-adv-x="2155" 
 />
    <glyph glyph-name="sun" unicode="&#x263c;" horiz-adv-x="1877" 
 />
    <glyph glyph-name="female" unicode="&#x2640;" horiz-adv-x="1536" 
 />
    <glyph glyph-name="male" unicode="&#x2642;" horiz-adv-x="1536" 
 />
    <glyph glyph-name="spade" unicode="&#x2660;" horiz-adv-x="1088" 
 />
    <glyph glyph-name="club" unicode="&#x2663;" horiz-adv-x="1344" 
 />
    <glyph glyph-name="heart" unicode="&#x2665;" horiz-adv-x="1216" 
 />
    <glyph glyph-name="diamond" unicode="&#x2666;" horiz-adv-x="1045" 
 />
    <glyph glyph-name="musicalnote" unicode="&#x266a;" horiz-adv-x="1024" 
 />
    <glyph glyph-name="musicalnotedbl" unicode="&#x266b;" horiz-adv-x="1536" 
 />
    <glyph glyph-name="uniF001" unicode="&#xf001;" horiz-adv-x="1024" 
 />
    <glyph glyph-name="uniF001" unicode="&#xfb01;" horiz-adv-x="1024" 
 />
    <glyph glyph-name="uniF002" unicode="&#xf002;" horiz-adv-x="1024" 
 />
    <glyph glyph-name="uniF002" unicode="&#xfb02;" horiz-adv-x="1024" 
 />
    <glyph glyph-name="uniF004" unicode="&#xf004;" horiz-adv-x="682" 
 />
    <glyph glyph-name="uniF005" unicode="&#xf005;" horiz-adv-x="682" 
 />
    <glyph glyph-name="glyph155" horiz-adv-x="1124" 
 />
  </font>
</defs>
</svg>
