<?xml version="1.0" standalone="no"?>
<!DOCTYPE svg PUBLIC "-//W3C//DTD SVG 1.1//EN" "http://www.w3.org/Graphics/SVG/1.1/DTD/svg11.dtd" >
<svg xmlns="http://www.w3.org/2000/svg" xmlns:xlink="http://www.w3.org/1999/xlink" version="1.1">
<metadata>
Created by FontForge 20170731 at Fri May  5 21:26:13 2000
 By Aleksey,,,
monofur (c) 2000 tobias b ko:hler (unci@tigerden.com)
</metadata>
<defs>
<font id="Monofuritalic" horiz-adv-x="1200" >
  <font-face 
    font-family="monofur"
    font-weight="400"
    font-style="italic"
    font-stretch="normal"
    units-per-em="2400"
    panose-1="2 15 4 0 2 2 3 9 2 4"
    ascent="1920"
    descent="-480"
    x-height="1050"
    cap-height="1500"
    bbox="-316 -525 1487 2025"
    underline-thickness="150"
    underline-position="-450"
    slope="15"
    unicode-range="U+0020-FB02"
  />
<missing-glyph 
d="M150 0v2025h900v-2025h-900zM300 150h600v1725h-600v-1725z" />
    <glyph glyph-name=".notdef" 
d="M150 0v2025h900v-2025h-900zM300 150h600v1725h-600v-1725z" />
    <glyph glyph-name=".null" horiz-adv-x="0" 
 />
    <glyph glyph-name="nonmarkingreturn" 
 />
    <glyph glyph-name="space" unicode=" " 
 />
    <glyph glyph-name="exclam" unicode="!" 
d="M917 1428q0 -11 -3 -22l-262 -975q-15 -56 -70 -56q-78 0 -78 72q0 11 3 22l262 975q15 56 70 56q78 0 78 -72zM605 123q0 -50 -38 -86.5t-88 -36.5q-45 0 -74.5 30t-29.5 75q0 50 37.5 85t87.5 35q44 0 74.5 -29t30.5 -73z" />
    <glyph glyph-name="quotedbl" unicode="&#x22;" 
d="M1255 1426q0 -22 -14 -43l-250 -375q-23 -34 -61 -34q-31 0 -54.5 22t-23.5 53q0 22 14 43l250 375q23 34 61 34q31 0 54.5 -22t23.5 -53zM730 1426q0 -22 -14 -43l-250 -375q-23 -34 -61 -34q-31 0 -54.5 22t-23.5 53q0 22 14 43l250 375q23 34 61 34q31 0 54.5 -22
t23.5 -53z" />
    <glyph glyph-name="numbersign" unicode="#" 
d="M1286 1125q0 -75 -75 -75h-143l-160 -600q107 0 112 -1q65 -12 65 -74q0 -75 -75 -75h-143l-65 -244q-15 -56 -71 -56q-77 0 -77 72q0 11 58 228h-345l-65 -244q-15 -56 -70 -56q-78 0 -78 72q0 11 58 228q-107 0 -112 1q-65 12 -65 74q0 75 75 75h142l161 600
q-107 0 -112 1q-65 12 -65 74q0 75 75 75h142l66 244q15 56 70 56q78 0 78 -72q0 -11 -58 -228h344l66 244q15 56 70 56q78 0 78 -72q0 -11 -58 -228q107 0 112 -1q65 -12 65 -74zM913 1050h-345l-160 -600h344z" />
    <glyph glyph-name="dollar" unicode="$" 
d="M1179 1274q0 -31 -24 -52.5t-55 -21.5q-20 0 -81 65q-64 69 -153 81l-122 -453q155 -24 257 -114q115 -100 115 -249q0 -213 -204 -369q-183 -140 -406 -159l-67 -246q-15 -56 -70 -56q-78 0 -78 72q0 11 60 235q-256 38 -339 224q-8 18 -8 34q0 74 78 74q36 0 75 -60
q70 -108 234 -126l162 606q-124 23 -204 98q-90 83 -90 203q0 174 163 303q147 116 329 134l66 247q15 56 70 56q78 0 78 -72q0 -11 -60 -236q198 -37 265 -183q9 -20 9 -35zM709 1340q-109 -22 -197 -95q-100 -83 -100 -186q0 -135 180 -156zM962 533q0 192 -257 215
l-158 -591q153 24 275 121q140 111 140 255z" />
    <glyph glyph-name="percent" unicode="%" 
d="M799 1247q0 -169 -98 -323q-111 -174 -271 -174q-207 0 -207 253q0 169 98 323q111 174 270 174q208 0 208 -253zM1368 1425q0 -27 -22 -51l-1262 -1350q-23 -25 -54 -25q-30 0 -53.5 23t-23.5 53q0 27 22 51l1261 1350q23 25 54 25t54.5 -22.5t23.5 -53.5zM1098 497
q0 -169 -98 -323q-111 -174 -271 -174q-207 0 -207 253q0 169 98 323q111 174 270 174q208 0 208 -253zM653 1240q0 110 -62 110q-66 0 -133 -92q-89 -123 -89 -248q0 -37 13 -68q17 -42 48 -42q68 0 134 92q89 124 89 248zM952 490q0 110 -62 110q-66 0 -133 -92
q-89 -123 -89 -248q0 -37 13 -68q17 -42 48 -42q67 0 134 92q89 123 89 248z" />
    <glyph glyph-name="ampersand" unicode="&#x26;" 
d="M1006 74q0 -31 -24 -53t-55 -22q-38 0 -61 36l-107 170q-169 -205 -392 -205q-150 0 -239 99q-87 95 -87 246q0 150 91 290q88 137 223 209q-65 104 -65 196q0 171 135 315.5t304 144.5q125 0 202 -84q74 -81 74 -207q0 -167 -124 -305q-125 -141 -290 -153l402 -636
q13 -21 13 -41zM854 1219q0 131 -125 131q-104 0 -197 -101.5t-93 -206.5q0 -52 62 -148q34 6 67 6q114 0 202 104q84 99 84 215zM673 340l-239 379q-103 -49 -172.5 -160.5t-69.5 -225.5q0 -183 175 -183q180 0 306 190z" />
    <glyph glyph-name="quotesingle" unicode="'" 
d="M992 1426q0 -24 -13 -43l-251 -375q-23 -34 -60 -34q-31 0 -55 22t-24 53q0 22 14 43l251 375q23 34 60 34q31 0 54.5 -22t23.5 -53z" />
    <glyph glyph-name="parenleft" unicode="(" 
d="M1037 1424q0 -24 -19 -48q-48 -60 -165 -220q-363 -533 -363 -1096q0 -201 61 -412q4 -14 4 -25q0 -72 -78 -72q-47 0 -69 53q-4 7 -17 56q-51 192 -51 400q0 620 414 1217q89 128 150 195q26 28 56 28q31 0 54 -22.5t23 -53.5z" />
    <glyph glyph-name="parenright" unicode=")" 
d="M860 990q0 -621 -414 -1217q-87 -125 -150 -195q-25 -28 -56 -28q-30 0 -53.5 23t-23.5 53q0 23 86 133q53 68 98 135q363 533 363 1096q0 201 -61 412q-4 14 -4 25q0 72 78 72q47 0 69 -53q4 -7 17 -56q51 -192 51 -400z" />
    <glyph glyph-name="asterisk" unicode="*" 
d="M1246 975q0 -75 -68 -75q-6 0 -347 19l183 -218q16 -19 16 -45q0 -30 -24 -52.5t-54 -22.5q-39 0 -59 31l-148 235l-73 -341q-12 -56 -70 -56q-78 0 -78 72q0 25 43 145q49 137 55 159l-258 -228q-20 -18 -47 -18q-31 0 -53.5 23.5t-22.5 54.5q0 37 30 58l287 203
l-293 -19q-69 0 -69 75t67 75q6 0 347 -19l-183 218q-16 19 -16 45q0 30 24 52.5t54 22.5q39 0 59 -32l149 -234l72 341q12 56 70 56q78 0 78 -72q0 -25 -43 -145q-49 -137 -55 -159l259 228q20 18 46 18q31 0 53.5 -23.5t22.5 -54.5q0 -37 -30 -58l-287 -203l293 19
q70 0 70 -75z" />
    <glyph glyph-name="plus" unicode="+" 
d="M1155 638q0 -75 -75 -75h-392l-106 -395q-15 -56 -70 -56q-78 0 -78 73q0 10 98 378h-352q-75 0 -75 75t75 75h393l105 394q15 56 71 56q77 0 77 -73q0 -10 -98 -377h352q75 0 75 -75z" />
    <glyph glyph-name="comma" unicode="," 
d="M621 78q0 -11 -3 -22q-57 -218 -244 -359q-23 -17 -47 -17q-31 0 -53.5 23.5t-22.5 54.5q0 32 30 57q143 121 192 279q18 56 71 56q77 0 77 -72z" />
    <glyph glyph-name="hyphen" unicode="-" 
d="M900 525q0 -75 -75 -75h-450q-75 0 -75 75t75 75h450q75 0 75 -75z" />
    <glyph glyph-name="hyphen" unicode="&#x2010;" 
d="M900 525q0 -75 -75 -75h-450q-75 0 -75 75t75 75h450q75 0 75 -75z" />
    <glyph glyph-name="period" unicode="." 
d="M605 123q0 -50 -38 -86.5t-88 -36.5q-45 0 -74.5 30t-29.5 75q0 50 37.5 85t87.5 35q44 0 74.5 -29t30.5 -73z" />
    <glyph glyph-name="slash" unicode="/" 
d="M1368 1426q0 -25 -17 -47l-1383 -1801q-23 -30 -58 -30q-30 0 -54 22.5t-24 52.5q0 25 17 47l1383 1801q23 30 57 30q31 0 55 -22t24 -53z" />
    <glyph glyph-name="zero" unicode="0" 
d="M1179 813q0 -285 -205 -541q-217 -272 -495 -272q-190 0 -299 139q-99 127 -99 323q0 285 205 541q217 272 495 272q190 0 299 -139q99 -127 99 -323zM1031 819q0 125 -61 210q-68 96 -189 96q-177 0 -337 -170q-142 -151 -191 -337q-23 -87 -23 -162q0 -125 60 -210
q69 -96 189 -96q177 0 337 170q142 151 192 337q23 86 23 162zM717 644q0 -37 -29 -64.5t-66 -27.5q-78 0 -78 78q0 37 28 63.5t65 26.5q80 0 80 -76z" />
    <glyph glyph-name="one" unicode="1" 
d="M907 1199q0 -5 -7 -31l-273 -1018q107 0 112 -1q65 -12 65 -74q0 -75 -75 -75h-400q-75 0 -75 75t75 75h143l228 851l-203 -160q-22 -17 -47 -17q-31 0 -53.5 23.5t-22.5 54.5q0 33 30 57l370 292q32 25 57 25q76 0 76 -77z" />
    <glyph glyph-name="two" unicode="2" 
d="M1139 921q0 -125 -59 -240q-61 -119 -164 -184l-552 -347h490q75 0 75 -75t-75 -75l-750 -1q-75 0 -75 78q0 40 45 68l762 480q70 44 113 130q42 83 42 168q0 202 -210 202q-107 0 -208 -65q-96 -61 -153 -157l-40 -96q-28 -57 -73 -57q-77 0 -77 72q0 11 3 22
q49 181 206 306t342 125q164 0 261 -95t97 -259z" />
    <glyph glyph-name="three" unicode="3" 
d="M1252 1209q0 -38 -42 -69l-534 -394q151 -20 237 -114q88 -97 88 -248q0 -245 -182 -427t-427 -182q-132 0 -232 67q-104 69 -142 192q-4 13 -4 25q0 72 78 72q47 0 69 -53q62 -153 231 -153q179 0 319.5 138t140.5 316q0 221 -239 221q-87 0 -206 -61.5t-122 -61.5
q-30 0 -52 23t-22 53q0 37 34 62l692 510h-541q-75 0 -75 75t75 75h770q86 0 86 -66z" />
    <glyph glyph-name="four" unicode="4" 
d="M1065 300q0 -75 -75 -75h-243l-105 -394q-15 -56 -71 -56q-77 0 -77 72q0 11 3 22l95 356h-502q-84 0 -84 64q0 31 29 62l841 900q32 34 67 34q65 0 65 -73q0 -12 -5 -31l-216 -806h203q75 0 75 -75zM781 930l-519 -555h370z" />
    <glyph glyph-name="five" unicode="5" 
d="M1276 1200q0 -75 -75 -75h-686l-154 -366q133 66 269 66q188 0 300 -102q115 -106 115 -293q0 -267 -194 -461t-462 -194q-142 0 -249 71q-111 74 -152 207q-4 13 -4 25q0 72 78 72q47 0 69 -53q5 -14 22 -50q68 -122 236 -122q198 0 353.5 152t155.5 350q0 121 -75 186
q-71 62 -193 62q-204 0 -393 -198q-33 -35 -67 -35q-68 0 -68 71q0 20 9 41l286 675q6 15 29.5 30.5t39.5 15.5h735q75 0 75 -75z" />
    <glyph glyph-name="six" unicode="6" 
d="M1366 1425q0 -75 -75 -75q-413 0 -756 -331q93 31 186 31q183 0 301.5 -113.5t118.5 -295.5q0 -251 -205 -446t-457 -195q-183 0 -301.5 113.5t-118.5 295.5q0 65 19 135q107 397 454 674q352 282 759 282q75 0 75 -75zM988 652q0 120 -74 186q-71 62 -193 62
q-199 0 -354 -151.5t-155 -350.5q0 -120 74 -186q71 -62 193 -62q199 0 354 151.5t155 350.5z" />
    <glyph glyph-name="seven" unicode="7" 
d="M1313 1212q0 -29 -24 -59l-1086 -1350q-23 -29 -57 -29q-31 0 -54.5 22.5t-23.5 53.5q0 25 18 47l988 1228h-743q-75 0 -75 75t75 75h900q82 0 82 -63z" />
    <glyph glyph-name="eight" unicode="8" 
d="M1146 1202q0 -236 -229 -380q126 -101 126 -275q0 -215 -174 -381t-390 -166q-157 0 -259.5 98.5t-102.5 254.5q0 154 98 291q92 130 236 200q-76 83 -76 204q0 177 145 316q143 136 321 136q132 0 218.5 -83t86.5 -215zM995 1209q0 141 -154 141q-120 0 -217.5 -94.5
t-97.5 -214.5q0 -141 154 -141q120 0 217.5 94.5t97.5 214.5zM891 556q0 194 -211 194q-159 0 -285 -123.5t-126 -282.5q0 -194 210 -194q160 0 286 123.5t126 282.5z" />
    <glyph glyph-name="nine" unicode="9" 
d="M1201 866q0 -68 -18 -135q-106 -396 -454 -674q-354 -282 -760 -282q-75 0 -75 75t75 75q413 0 757 331q-94 -31 -186 -31q-183 0 -302 113.5t-119 295.5q0 250 207 447q203 194 455 194q183 0 301.5 -113.5t118.5 -295.5zM1048 877q0 120 -74 186q-71 62 -193 62
q-199 0 -354 -151.5t-155 -350.5q0 -120 75 -186q72 -62 193 -62q199 0 353.5 152t154.5 350z" />
    <glyph glyph-name="colon" unicode=":" 
d="M826 948q0 -50 -38 -86.5t-88 -36.5q-45 0 -74.5 30t-29.5 75q0 50 37.5 85t87.5 35q44 0 74.5 -29t30.5 -73zM605 123q0 -50 -38 -86.5t-88 -36.5q-45 0 -74.5 30t-29.5 75q0 50 37.5 85t87.5 35q44 0 74.5 -29t30.5 -73z" />
    <glyph glyph-name="semicolon" unicode=";" 
d="M873 948q0 -50 -38 -86.5t-88 -36.5q-45 0 -75 30t-30 75q0 49 37.5 84.5t87.5 35.5q45 0 75.5 -28.5t30.5 -73.5zM602 78q0 -11 -3 -22q-57 -218 -245 -359q-23 -17 -46 -17q-31 0 -53.5 23.5t-22.5 54.5t30 57q143 122 192 279q18 56 70 56q78 0 78 -72z" />
    <glyph glyph-name="less" unicode="&#x3c;" 
d="M1276 1085q0 -46 -45 -66l-885 -390l651 -377q38 -22 38 -62q0 -31 -21.5 -55t-52.5 -24q-18 0 -39 12l-767 442q-51 29 -51 73q0 48 59 74l1007 444q16 7 33 7q73 0 73 -78z" />
    <glyph glyph-name="equal" unicode="=" 
d="M1215 863q0 -75 -75 -75h-900q-75 0 -75 75t75 75h900q75 0 75 -75zM1095 413q0 -75 -75 -75h-900q-75 0 -75 75t75 75h900q75 0 75 -75z" />
    <glyph glyph-name="greater" unicode="&#x3e;" 
d="M1156 637q0 -48 -59 -74l-1007 -444q-16 -7 -33 -7q-73 0 -73 78q0 46 45 66l886 390l-652 377q-38 22 -38 62q0 31 21.5 55t52.5 24q18 0 39 -12l767 -442q51 -29 51 -73z" />
    <glyph glyph-name="question" unicode="?" 
d="M1289 1186q0 -92 -54 -179q-81 -131 -243 -198q-141 -59 -312 -59q-78 0 -158 -35q-100 -44 -100 -112q0 -78 158 -78q55 0 123 21q16 5 28 5q72 0 72 -78q0 -47 -51 -69q-68 -29 -172 -29q-114 0 -205 54q-107 64 -107 170q0 137 143 225q124 76 269 76q219 0 363 115
q96 77 96 168q0 93 -110 136q-79 31 -188 31q-124 0 -241 -47q-134 -54 -194 -147q-8 -12 -23 -50q-22 -56 -70 -56q-78 0 -78 72q0 12 3 22q48 167 242 268q169 88 361 88q176 0 298 -68q150 -84 150 -246zM605 123q0 -50 -38 -86.5t-88 -36.5q-45 0 -74.5 30t-29.5 75
q0 50 37.5 85t87.5 35q44 0 74.5 -29t30.5 -73z" />
    <glyph glyph-name="at" unicode="@" 
d="M1254 1087q0 -253 -178 -487q-190 -250 -436 -250q-122 0 -189 90q-61 81 -61 206q0 176 122 334q131 170 302 170q111 0 178 -74q61 -69 71 -183q40 113 40 215q0 242 -195 242q-270 0 -470 -296q-180 -267 -180 -551q0 -155 65 -247q74 -106 223 -106q164 0 368 177
q27 23 51 23q31 0 54 -23t23 -54q0 -28 -24 -53q-91 -96 -215 -156q-133 -64 -257 -64q-214 0 -334 163q-107 146 -107 368q0 117 33 238q76 277 278 490q229 241 492 241q169 0 262 -126q84 -112 84 -287zM917 861q0 53 -24 93q-29 46 -79 46q-106 0 -195 -129
q-82 -119 -82 -232q0 -52 25 -92q29 -47 78 -47q108 0 196 129q81 118 81 232z" />
    <glyph glyph-name="A" unicode="A" 
d="M1004 74q5 -74 -75 -74q-69 0 -74 70l-25 380h-488l-248 -414q-22 -37 -62 -37q-31 0 -55 21.5t-24 52.5q0 21 12 41l806 1339q29 48 68 48q73 0 78 -83zM820 600l-38 581l-349 -581h387z" />
    <glyph glyph-name="B" unicode="B" 
d="M1217 1213q0 -115 -59.5 -221.5t-156.5 -169.5q112 -93 112 -264q0 -229 -165 -394t-394 -165l-425 1q-75 0 -75 70q0 11 365 1374q5 20 28 38t44 18h425q137 0 218 -74q83 -77 83 -213zM1070 1209q0 141 -154 141h-367l-121 -450h327q120 0 217.5 94.5t97.5 214.5z
M966 555q0 195 -211 195h-367l-161 -600l327 -1q160 0 286 123.5t126 282.5z" />
    <glyph glyph-name="C" unicode="C" 
d="M1314 1225q0 -30 -24 -51.5t-54 -21.5q-37 0 -64 41q-4 5 -14 26q-4 5 -15 20q-82 111 -225 111q-273 0 -476 -291q-184 -264 -184 -550q0 -158 69 -252q78 -107 230 -107q165 0 374 177q26 22 51 22q30 0 53.5 -23.5t23.5 -53.5q0 -28 -25 -54q-88 -93 -218 -154
q-136 -64 -259 -64q-218 0 -341 163q-110 146 -110 371q0 334 238 640q253 326 574 326q268 0 387 -238q9 -18 9 -37z" />
    <glyph glyph-name="D" unicode="D" 
d="M1209 925q0 -361 -298 -645q-294 -280 -657 -280h-125q-75 0 -75 70q0 13 3 24l362 1350q13 48 85 56h112q259 0 424 -157q169 -160 169 -418zM1059 926q0 194 -126 310q-122 114 -317 114h-67l-322 -1200h27q302 0 551 236q254 240 254 540z" />
    <glyph glyph-name="E" unicode="E" 
d="M1366 1425q0 -75 -75 -75h-742l-141 -525h702q75 0 75 -75t-75 -75h-742l-141 -525h702q75 0 75 -75t-75 -75h-800q-75 0 -75 70q0 11 365 1374q5 20 28 38t44 18h800q75 0 75 -75z" />
    <glyph glyph-name="F" unicode="F" 
d="M1366 1425q0 -75 -75 -75h-742l-141 -525h702q75 0 75 -75t-75 -75h-742l-166 -619q-15 -56 -71 -56q-77 0 -77 72q0 11 3 22l360 1346q16 60 79 60h795q75 0 75 -75z" />
    <glyph glyph-name="G" unicode="G" 
d="M1264 1225q0 -31 -23.5 -52t-54.5 -21q-39 0 -66 44q2 6 -28 49q-72 105 -203 105q-264 0 -459 -304q-174 -271 -174 -551q0 -148 59 -239q71 -106 212 -106q168 0 338 162l123 457q15 56 70 56q78 0 78 -72q0 -11 -3 -22l-128 -478q-25 -93 -204 -177q-162 -76 -274 -76
q-211 0 -321 148q-97 132 -97 350q0 348 212 658q235 344 568 344q254 0 367 -240q8 -17 8 -35z" />
    <glyph glyph-name="H" unicode="H" 
d="M1267 1428q0 -11 -365 -1372q-15 -56 -71 -56q-77 0 -77 72q0 11 3 22l156 581h-545l-166 -619q-15 -56 -71 -56q-77 0 -77 72q0 11 365 1372q15 56 70 56q78 0 78 -72q0 -11 -3 -22l-156 -581h545l166 619q15 56 70 56q78 0 78 -72z" />
    <glyph glyph-name="I" unicode="I" 
d="M1216 1425q0 -75 -75 -75h-242l-322 -1200h202q75 0 75 -75t-75 -75h-600q-75 0 -75 75t75 75h243l321 1200h-202q-75 0 -75 75t75 75h600q75 0 75 -75z" />
    <glyph glyph-name="J" unicode="J" 
d="M1267 1427q0 -8 -6 -30l-359 -1341q-56 -211 -240 -357q-187 -149 -403 -149q-116 0 -215 52q-106 55 -156 154q-11 22 -11 38q0 31 24 52.5t55 21.5q38 0 63 -40q79 -128 240 -128q164 0 311 118q144 116 187 276l336 1256h-702q-75 0 -75 75t75 75h802q74 0 74 -73z
" />
    <glyph glyph-name="K" unicode="K" 
d="M1367 1423q0 -32 -29 -56l-776 -631l429 -618q15 -22 15 -44q0 -31 -24 -53t-55 -22q-36 0 -59 33l-469 675q-11 16 -14 32l-183 -683q-15 -56 -71 -56q-77 0 -77 72q0 11 3 22l362 1350q15 56 70 56q78 0 78 -72q0 -11 -3 -22l-164 -611q7 8 13 13l831 675q22 18 47 18
q31 0 53.5 -23.5t22.5 -54.5z" />
    <glyph glyph-name="L" unicode="L" 
d="M1004 75q0 -75 -75 -75h-801q-74 0 -74 73q0 11 5 30l360 1341q15 56 70 56q78 0 78 -72q0 -11 -3 -22l-337 -1256h702q75 0 75 -75z" />
    <glyph glyph-name="M" unicode="M" 
d="M1187 1427q-1 -3 -3 -20l-180 -1342q-9 -65 -73 -65q-77 0 -77 73q0 5 1 12l125 929l-349 -665q-26 -50 -69 -50q-78 0 -78 75q0 123 3 326l5 326l-393 -979q-19 -48 -67 -48q-31 0 -54.5 21t-23.5 52q0 16 6 31l538 1342q22 55 71 55q78 0 78 -73q0 -165 -3 -371
l-6 -370l403 767q25 48 68 48q78 0 78 -74z" />
    <glyph glyph-name="N" unicode="N" 
d="M1267 1428q0 -11 -3 -22l-359 -1340q-18 -66 -76 -66t-75 67l-265 1059l-287 -1070q-15 -56 -71 -56q-77 0 -77 72q0 11 3 22l359 1340q18 66 76 66t75 -67l265 -1059l287 1070q15 56 70 56q78 0 78 -72z" />
    <glyph glyph-name="O" unicode="O" 
d="M1216 1025q0 -338 -196 -659q-224 -366 -541 -366q-194 0 -291 147q-83 125 -83 328q0 338 196 659q224 366 540 366q194 0 292 -147q83 -124 83 -328zM1072 1005q0 128 -51 225q-63 120 -180 120q-133 0 -276 -135q-204 -192 -282 -484q-34 -126 -34 -236
q0 -129 50 -225q62 -120 180 -120q134 0 277 135q203 192 283 485q33 125 33 235z" />
    <glyph glyph-name="P" unicode="P" 
d="M1274 1160q0 -228 -165.5 -394t-393.5 -166h-367l-146 -544q-15 -56 -71 -56q-77 0 -77 72q0 10 365 1372q5 20 28 38t44 18h425q163 0 259 -88q99 -91 99 -252zM1127 1156q0 194 -211 194h-367l-161 -600h327q160 0 286 123.5t126 282.5z" />
    <glyph glyph-name="Q" unicode="Q" 
d="M1216 1025q0 -311 -169 -614q-189 -340 -468 -400q6 -118 58 -205q63 -106 172 -106q75 0 75 -75t-75 -75q-180 0 -281 141q-85 120 -96 311q-172 18 -257 165q-70 121 -70 308q0 338 196 659q224 366 540 366q194 0 292 -147q83 -124 83 -328zM1072 1005q0 128 -51 225
q-63 120 -180 120q-128 0 -266 -125q-208 -189 -292 -494q-34 -124 -34 -236q0 -116 40 -205q50 -111 148 -135q10 99 19 133q25 87 82 87q77 0 77 -72q0 -18 -11 -63q-12 -51 -15 -67q205 84 349 349q134 247 134 483z" />
    <glyph glyph-name="R" unicode="R" 
d="M1279 1147q0 -214 -174.5 -380.5t-389.5 -166.5h-77l352 -481q16 -22 16 -45q0 -30 -24 -52.5t-54 -22.5q-36 0 -59 32l-431 588q-24 33 -24 56q0 75 91 75h210q160 0 286 123.5t126 282.5q0 194 -211 194h-367l-347 -1294q-15 -56 -71 -56q-77 0 -77 72q0 11 3 22
l360 1346q16 60 79 60h420q158 0 260.5 -98t102.5 -255z" />
    <glyph glyph-name="S" unicode="S" 
d="M1179 1274q0 -31 -24 -52.5t-55 -21.5q-36 0 -65 43q-71 107 -226 107q-244 0 -358 -174q-39 -60 -39 -117q0 -159 236 -159q182 0 316 -92q152 -104 152 -278q0 -229 -226 -387q-204 -143 -443 -143q-139 0 -253 54q-129 62 -182 177q-8 17 -8 34q0 74 78 74
q36 0 57 -30l36 -56q88 -103 272 -103q140 0 263 57q133 61 203 172q49 78 49 154q0 116 -105 172q-83 45 -209 45q-150 0 -263 78q-126 87 -126 232q0 189 185 321q167 119 365 119q270 0 361 -191q9 -19 9 -35z" />
    <glyph glyph-name="T" unicode="T" 
d="M1366 1425q0 -75 -75 -75h-392l-347 -1294q-15 -56 -71 -56q-77 0 -77 72q0 11 3 22l336 1256h-352q-75 0 -75 75t75 75h900q75 0 75 -75z" />
    <glyph glyph-name="U" unicode="U" 
d="M1317 1428q0 -11 -3 -22l-255 -950q-51 -191 -217 -322q-167 -134 -363 -134q-165 0 -273.5 103.5t-108.5 268.5q0 59 17 122l255 950q15 56 70 56q78 0 78 -72q0 -11 -3 -22l-255 -950q-12 -45 -12 -85q0 -101 65 -161t167 -60q144 0 272 103q125 101 163 242l255 949
q15 56 70 56q78 0 78 -72z" />
    <glyph glyph-name="V" unicode="V" 
d="M1367 1427q0 -21 -12 -41l-805 -1339q-29 -48 -69 -48q-72 0 -77 83l-88 1344q-5 74 76 74q69 0 74 -70l73 -1111l688 1145q22 37 62 37q30 0 54 -22t24 -52z" />
    <glyph glyph-name="W" unicode="W" 
d="M1367 1428q0 -17 -7 -33l-583 -1342q-23 -53 -71 -53q-77 0 -77 73q0 -48 11 583l-315 -608q-25 -49 -68 -49q-79 0 -79 74q1 -1 3 18l136 1342q7 67 73 67q76 0 76 -73v-10l-97 -958l280 542q26 50 70 50q78 0 78 -75q0 57 -11 -525l436 1004q20 46 67 46q31 0 54.5 -21
t23.5 -52z" />
    <glyph glyph-name="X" unicode="X" 
d="M1368 1425q0 -27 -22 -51l-598 -640l251 -631q6 -15 6 -31q0 -31 -23.5 -52t-54.5 -21q-48 0 -67 48l-226 565l-550 -588q-23 -25 -54 -25q-30 0 -53.5 23t-23.5 53q0 27 22 51l598 640l-252 631q-6 15 -6 31q0 31 24 52t55 21q48 0 67 -48l225 -565l550 588q23 25 54 25
t54.5 -22.5t23.5 -53.5z" />
    <glyph glyph-name="Y" unicode="Y" 
d="M1368 1425q0 -27 -22 -51l-618 -662l-176 -656q-15 -56 -71 -56q-77 0 -77 72q0 11 3 22l174 651l-260 652q-6 15 -6 31q0 31 24 52t55 21q48 0 67 -48l225 -565l550 588q23 25 54 25t54.5 -22.5t23.5 -53.5z" />
    <glyph glyph-name="Z" unicode="Z" 
d="M1367 1425q0 -29 -31 -62l-1134 -1213h727q75 0 75 -75t-75 -75l-898 -1q-78 0 -78 76q0 29 31 62l1134 1213h-727q-75 0 -75 75t75 75l898 1q78 0 78 -76z" />
    <glyph glyph-name="bracketleft" unicode="[" 
d="M1141 1425q0 -75 -75 -75h-392l-442 -1650h352q75 0 75 -75t-75 -75h-450q-76 0 -76 70q0 13 3 24l483 1800q5 20 28 38t44 18h450q75 0 75 -75z" />
    <glyph glyph-name="backslash" unicode="\" 
d="M884 -379q0 -72 -77 -72q-58 0 -71 58l-418 1801q-2 9 -2 20q0 72 77 72q58 0 71 -58l418 -1801q2 -9 2 -20z" />
    <glyph glyph-name="bracketright" unicode="]" 
d="M1142 1430q0 -13 -3 -24l-483 -1800q-5 -20 -28 -38t-44 -18h-450q-75 0 -75 75t75 75h392l442 1650h-352q-75 0 -75 75t75 75h450q76 0 76 -70z" />
    <glyph glyph-name="asciicircum" unicode="^" 
d="M1137 1124q0 -30 -24 -52.5t-54 -22.5q-36 0 -59 32l-173 237l-320 -252q-22 -17 -47 -17q-31 0 -53 23.5t-22 54.5q0 34 29 57l380 300q22 17 48 17q37 0 60 -32l219 -300q16 -22 16 -45z" />
    <glyph glyph-name="underscore" unicode="_" 
d="M1004 75q0 -75 -75 -75h-900q-75 0 -75 75t75 75h900q75 0 75 -75z" />
    <glyph glyph-name="grave" unicode="`" 
d="M891 1048q0 -73 -77 -73q-65 0 -73 65l-49 375q-1 8 -1 12q0 73 76 73q66 0 74 -65l49 -375q1 -8 1 -12z" />
    <glyph glyph-name="a" unicode="a" 
d="M1120 875q0 -7 -218 -819q-15 -56 -70 -56q-78 0 -78 72q0 12 8 40q-159 -112 -333 -112q-165 0 -273.5 103.5t-108.5 268.5q0 61 17 122q65 233 264 393q204 163 443 163q220 0 325 -120q24 -27 24 -55zM960 851q-69 49 -189 49q-185 0 -350 -132t-212 -312
q-12 -46 -12 -85q0 -101 65 -161t167 -60q145 0 271.5 103.5t163.5 240.5z" />
    <glyph glyph-name="b" unicode="b" 
d="M1153 679q0 -61 -17 -123q-64 -232 -264 -393q-205 -163 -443 -163q-131 0 -218 83t-87 214q0 40 10 71q0 14 57 226l228 850q15 56 70 56q78 0 78 -72q0 -11 -129 -490q158 112 333 112q165 0 273 -102q109 -105 109 -269zM1003 679q0 101 -65 161t-167 60
q-145 0 -270.5 -101t-164.5 -243q-62 -228 -62 -259q0 -147 155 -147q185 0 350 132t212 312q12 46 12 85z" />
    <glyph glyph-name="c" unicode="c" 
d="M1212 844q0 -31 -23.5 -54t-54.5 -23q-26 0 -54 26q-115 107 -282 107q-163 0 -304 -75q-146 -78 -224 -216q-55 -97 -55 -194q0 -136 108 -206q91 -59 234 -59q174 0 364 118q23 14 44 14q31 0 53 -23.5t22 -54.5q0 -33 -34 -60q-80 -64 -213 -105q-126 -39 -236 -39
q-200 0 -342 109q-154 119 -154 313q0 261 243 451q226 177 494 177q263 0 393 -156q21 -25 21 -50z" />
    <glyph glyph-name="d" unicode="d" 
d="M1267 1428q0 -11 -3 -22l-362 -1350q-15 -56 -70 -56q-78 0 -78 72q0 12 8 40q-159 -112 -333 -112q-165 0 -273.5 103.5t-108.5 268.5q0 62 17 122q66 234 265 393q203 163 442 163q122 0 229 -50l119 444q15 56 70 56q78 0 78 -72zM960 851q-69 49 -189 49
q-185 0 -350 -132t-212 -312q-12 -46 -12 -85q0 -101 65 -161t167 -60q143 0 270.5 102.5t164.5 241.5z" />
    <glyph glyph-name="e" unicode="e" 
d="M1195 815q0 -102 -76 -186q-67 -75 -170 -114l-656 -250q122 -115 351 -115q127 0 274 47q16 5 28 5q72 0 72 -78q0 -46 -50 -68q-129 -56 -324 -56q-218 0 -386 104q-196 122 -196 327q0 271 285 456q252 163 538 163q125 0 210 -53q100 -64 100 -182zM1045 813
q0 87 -160 87q-213 0 -426 -120q-246 -139 -246 -335q0 -26 5 -48l678 258q149 57 149 158z" />
    <glyph glyph-name="f" unicode="f" 
d="M1327 1273q0 -31 -24 -52.5t-55 -21.5q-32 0 -61 39q-43 59 -61 73q-50 39 -135 39q-128 0 -242.5 -88.5t-154.5 -211.5h352q75 0 75 -75t-75 -75h-393l-347 -1294q-15 -56 -70 -56q-78 0 -78 72q0 11 3 22l337 1256h-127q-75 0 -75 75t75 75h167q48 189 204.5 319.5
t348.5 130.5q105 0 192 -48q93 -52 135 -144q9 -20 9 -35z" />
    <glyph glyph-name="g" unicode="g" 
d="M1246 975q0 -75 -75 -75h-134q48 -70 48 -157q0 -114 -75 -217q-67 -93 -175 -153q161 -105 161 -289q0 -224 -211 -385q-195 -149 -426 -149q-175 0 -299 93q-137 103 -137 273q0 159 84 159q78 0 78 -72q0 -14 -5.5 -41.5t-5.5 -41.5q0 -109 92 -169q78 -51 193 -51
q133 0 250 60q122 62 187 173q46 79 46 155q0 111 -90 166q-74 46 -192 46q-147 0 -250 78q-114 87 -114 229q0 185 173 319q161 124 352 124h450q75 0 75 -75zM932 745q0 155 -211 155q-133 0 -247 -81q-126 -89 -126 -214q0 -155 212 -155q133 0 247 81q125 89 125 214z
" />
    <glyph glyph-name="h" unicode="h" 
d="M1108 697q0 -60 -15 -116l-141 -525q-15 -56 -70 -56q-78 0 -78 72q0 11 3 22l141 525q11 41 11 79q0 93 -59.5 147.5t-153.5 54.5q-133 0 -250.5 -94.5t-152.5 -224.5l-141 -525q-15 -56 -71 -56q-77 0 -77 72q0 11 3 22l362 1350q15 56 70 56q78 0 78 -72
q0 -11 -125 -477q146 99 304 99t260 -98t102 -255z" />
    <glyph glyph-name="i" unicode="i" 
d="M946 1395q0 -50 -37.5 -85t-87.5 -35q-44 0 -75 29t-31 73q0 49 38 86t88 37q45 0 75 -30t30 -75zM854 75q0 -75 -75 -75q-132 0 -218.5 83.5t-86.5 214.5q0 48 13 96l136 506h-202q-75 0 -75 75t75 75h301q74 0 74 -73q0 -11 -5 -30l-159 -591q-8 -30 -8 -59
q0 -68 43 -107.5t112 -39.5q75 0 75 -75z" />
    <glyph glyph-name="j" unicode="j" 
d="M1296 1395q0 -50 -37.5 -85t-87.5 -35q-44 0 -75 29t-31 73q0 49 38 86t88 37q45 0 75 -30t30 -75zM1146 977q0 -11 -5 -30l-239 -891q-57 -211 -240 -358q-186 -148 -403 -148q-116 0 -215 52q-106 55 -156 154q-11 22 -11 38q0 31 24 52.5t55 21.5q38 0 63 -40
q79 -128 240 -128q164 0 311 118q144 116 187 276l216 806h-202q-75 0 -75 75t75 75h301q74 0 74 -73z" />
    <glyph glyph-name="k" unicode="k" 
d="M1247 973q0 -40 -39 -63l-679 -396l449 -382q28 -24 28 -56q0 -30 -23 -53.5t-53 -23.5q-27 0 -49 19l-521 443q-31 26 -35 52l-123 -457q-15 -56 -71 -56q-77 0 -77 72q0 11 3 22l362 1350q15 56 70 56q78 0 78 -72q0 -11 -3 -22l-224 -835q8 10 32 24l761 445
q19 11 39 11q31 0 53 -23.5t22 -54.5z" />
    <glyph glyph-name="l" unicode="l" 
d="M1046 224q0 -28 -24 -53q-165 -171 -393 -171q-157 0 -259.5 98.5t-102.5 254.5q0 57 16 117l261 974q15 56 70 56q78 0 78 -72q0 -11 -3 -22l-262 -975q-11 -41 -11 -79q0 -93 61 -148q58 -54 152 -54q141 0 288 129q25 22 52 22q31 0 54 -23t23 -54z" />
    <glyph glyph-name="m" unicode="m" 
d="M1193 808q0 -40 -10 -77l-181 -675q-15 -56 -70 -56q-78 0 -78 72q0 11 3 22l181 675q5 19 5 40q0 91 -97 91q-69 0 -132 -50.5t-81 -118.5l-181 -675q-15 -56 -71 -56q-77 0 -77 72q0 11 3 22l181 675q6 22 6 40q0 91 -98 91q-69 0 -132 -50.5t-81 -118.5l-181 -675
q-15 -56 -71 -56q-77 0 -77 72q0 11 3 22l241 900q15 56 70 56q49 0 70 -40q78 40 158 40q134 0 204 -101q111 101 246 101q107 0 177 -68t70 -174z" />
    <glyph glyph-name="n" unicode="n" 
d="M1108 697q0 -60 -15 -116l-141 -525q-15 -56 -70 -56q-78 0 -78 72q0 11 3 22l141 525q11 41 11 79q0 93 -59.5 147.5t-153.5 54.5q-133 0 -250.5 -94.5t-152.5 -224.5l-141 -525q-15 -56 -70 -56q-78 0 -78 72q0 11 3 22l241 900q15 56 70 56q78 0 78 -72q0 -12 -4 -27
q146 99 304 99t260 -98t102 -255z" />
    <glyph glyph-name="o" unicode="o" 
d="M1141 641q0 -251 -205 -446t-457 -195q-183 0 -301.5 113.5t-118.5 295.5q0 251 206 448q203 193 456 193q183 0 301.5 -113.5t118.5 -295.5zM988 652q0 120 -74 186q-71 62 -193 62q-199 0 -354 -151.5t-155 -350.5q0 -120 74 -186q71 -62 193 -62q199 0 354 151.5
t155 350.5z" />
    <glyph glyph-name="p" unicode="p" 
d="M1153 678q0 -62 -17 -122q-66 -234 -265 -393q-203 -163 -442 -163q-122 0 -229 50l-119 -444q-15 -56 -70 -56q-78 0 -78 72q0 11 365 1372q15 56 70 56q78 0 78 -72q0 -12 -8 -40q159 112 333 112q166 0 274 -103.5t108 -268.5zM1003 679q0 101 -65 161t-167 60
q-144 0 -270.5 -101.5t-164.5 -242.5l-96 -357q69 -49 189 -49q185 0 350 132t212 312q12 46 12 85z" />
    <glyph glyph-name="q" unicode="q" 
d="M1120 875q0 -7 -6 -29l-333 -1240q-15 -56 -70 -56q-78 0 -78 72q0 11 129 490q-159 -112 -333 -112q-165 0 -273.5 103.5t-108.5 268.5q0 61 17 122q65 233 264 393q204 163 443 163q220 0 325 -120q24 -27 24 -55zM960 851q-69 49 -189 49q-185 0 -350 -132t-212 -312
q-12 -46 -12 -85q0 -101 65 -161t167 -60q146 0 272 104t163 240z" />
    <glyph glyph-name="r" unicode="r" 
d="M1202 806q0 -31 -24 -52.5t-55 -21.5q-38 0 -63 40q-80 128 -239 128q-164 0 -310 -117t-189 -277l-120 -450q-15 -56 -70 -56q-78 0 -78 72q0 7 124 472l120 450q15 56 70 56q78 0 78 -72q0 -11 -15 -68q184 140 390 140q116 0 215 -52q106 -55 156 -154q10 -20 10 -38z
" />
    <glyph glyph-name="s" unicode="s" 
d="M1009 395q0 -83 -48 -162q-142 -233 -494 -233q-132 0 -236 50q-124 59 -159 172q-4 13 -4 25q0 72 78 72q48 0 70 -53q49 -116 251 -116q183 0 308 95q84 64 84 139q0 141 -270 141q-120 0 -200 49q-97 59 -97 172q0 143 138 229q120 75 270 75q207 0 282 -129
q13 -22 13 -41q0 -31 -24 -52.5t-55 -21.5q-12 0 -72 47t-144 47q-76 0 -157 -35q-101 -44 -101 -110q0 -80 181 -80q153 0 258 -62q128 -75 128 -218z" />
    <glyph glyph-name="t" unicode="t" 
d="M1046 224q0 -28 -24 -53q-165 -171 -393 -171q-157 0 -259.5 98.5t-102.5 254.5q0 60 15 116l116 431h-127q-75 0 -75 75t75 75h167l106 394q15 56 70 56q78 0 78 -72q0 -11 -99 -378h353q75 0 75 -75t-75 -75h-393l-126 -469q-11 -41 -11 -79q0 -93 61 -148
q58 -54 152 -54q144 0 288 129q24 22 52 22q31 0 54 -23t23 -54z" />
    <glyph glyph-name="u" unicode="u" 
d="M1196 978q0 -13 -137 -522q-51 -190 -218 -323t-362 -133q-166 0 -273.5 103.5t-107.5 268.5q0 62 16 122l134 500q15 56 71 56q77 0 77 -72q0 -11 -3 -22l-134 -500q-12 -45 -12 -85q0 -101 65 -161t167 -60q144 0 272 103q125 101 163 241l134 500q15 56 71 56
q77 0 77 -72z" />
    <glyph glyph-name="v" unicode="v" 
d="M1247 976q0 -25 -17 -47l-682 -888q-32 -42 -68 -42q-60 0 -77 73l-205 886q-3 13 -3 20q0 72 77 72q59 0 72 -58l173 -745l594 774q23 30 58 30q30 0 54 -22.5t24 -52.5z" />
    <glyph glyph-name="w" unicode="w" 
d="M1247 977q0 -20 -11 -39l-506 -890q-28 -49 -69 -49q-74 0 -77 85l-10 322l-204 -358q-28 -49 -69 -49q-74 0 -77 85l-28 889q-2 77 75 77q73 0 75 -73l20 -634l199 350l-9 280q-2 77 75 77q73 0 75 -73l20 -633l379 668q22 39 63 39q31 0 55 -21.5t24 -52.5z" />
    <glyph glyph-name="x" unicode="x" 
d="M1247 973q0 -33 -30 -57l-514 -405l287 -392q16 -22 16 -45q0 -30 -24 -52.5t-54 -22.5q-36 0 -59 32l-284 387l-509 -402q-22 -17 -47 -17q-31 0 -53.5 23.5t-22.5 54.5q0 33 30 57l514 405l-287 392q-16 22 -16 45q0 30 24 52.5t54 22.5q36 0 59 -32l284 -387l509 402
q22 17 47 17q31 0 53.5 -23.5t22.5 -54.5z" />
    <glyph glyph-name="y" unicode="y" 
d="M1146 978q0 -11 -3 -22l-261 -975q-48 -180 -205.5 -305.5t-342.5 -125.5q-121 0 -214 62q-97 64 -132 177q-4 13 -4 25q0 73 78 73q48 0 69 -53q53 -134 203 -134q134 0 251 95q113 92 152 224q3 12 21 80q-146 -99 -304 -99q-157 0 -259.5 98.5t-102.5 254.5
q0 60 15 116l141 525q15 56 70 56q78 0 78 -72q0 -11 -3 -22l-141 -525q-11 -41 -11 -79q0 -93 61 -148q58 -54 152 -54q134 0 251 94t152 225l141 525q15 56 70 56q78 0 78 -72z" />
    <glyph glyph-name="z" unicode="z" 
d="M1246 974q0 -35 -39 -66l-961 -758h683q75 0 75 -75t-75 -75l-899 -1q-76 0 -76 77q0 35 39 66l961 758h-683q-75 0 -75 75t75 75l899 1q76 0 76 -77z" />
    <glyph glyph-name="braceleft" unicode="{" 
d="M1141 1425q0 -62 -68 -75q-101 -18 -138 -49q-64 -55 -82 -121q-31 -125 -120 -450q-39 -136 -162 -218q52 -64 52 -154q0 -32 -11 -77q-7 -27 -78 -242q-48 -144 -48 -247q0 -66 86.5 -90.5t86.5 -76.5q0 -75 -75 -75q-107 0 -177.5 68t-70.5 174q0 32 11 77
q9 38 77 242q49 147 49 247q0 66 -86.5 90.5t-86.5 76.5q0 61 68 74q100 19 139 52q63 53 81 119q31 125 120 450q33 116 137 200q99 80 221 80q75 0 75 -75z" />
    <glyph glyph-name="bar" unicode="|" 
d="M917 1428q0 -11 -3 -22l-483 -1800q-15 -56 -70 -56q-78 0 -78 72q0 11 3 22l483 1800q15 56 70 56q78 0 78 -72z" />
    <glyph glyph-name="braceright" unicode="}" 
d="M900 525q0 -62 -68 -75q-101 -18 -137 -49q-64 -55 -83 -121q-32 -125 -121 -450q-33 -116 -134 -198t-223 -82q-75 0 -75 75q0 61 68 74q100 19 139 52q63 53 81 119q31 125 120 450q39 136 162 218q-52 64 -52 154q0 32 11 77q9 38 77 242q49 147 49 247
q0 66 -86.5 90.5t-86.5 76.5q0 75 75 75q107 0 177.5 -68t70.5 -174q0 -32 -11 -77q-9 -38 -77 -242q-49 -147 -49 -247q0 -66 86.5 -90.5t86.5 -76.5z" />
    <glyph glyph-name="asciitilde" unicode="~" 
d="M976 527q0 -29 -29 -63q-75 -89 -217 -89q-82 0 -163 75t-97 75q-59 0 -104 -38t-64 -38q-30 0 -54 22t-24 52q0 29 29 63q75 89 217 89q82 0 163 -75t97 -75q43 0 62 12l44 27q22 37 62 37q30 0 54 -22t24 -52z" />
    <glyph glyph-name="exclamdown" unicode="&#xa1;" 
d="M825 946q0 -51 -37 -86t-88 -35q-104 0 -104 101q0 50 37.5 87t87.5 37q104 0 104 -104zM696 603q0 -11 -3 -22l-262 -975q-15 -56 -70 -56q-78 0 -78 72q0 11 3 22l262 975q15 56 70 56q78 0 78 -72z" />
    <glyph glyph-name="cent" unicode="&#xa2;" 
d="M1212 844q0 -31 -23.5 -54t-54.5 -23q-27 0 -54 26q-93 90 -225 104l-198 -738q119 21 264 109q23 14 44 14q31 0 53 -23.5t22 -54.5q0 -34 -34 -60q-162 -123 -391 -142l-53 -196q-15 -56 -70 -56q-78 0 -78 72q0 11 47 185q-171 26 -281 133q-119 115 -119 282
q0 245 221 432q204 173 458 194l52 196q15 56 71 56q77 0 77 -72q0 -11 -46 -185q196 -29 297 -149q21 -25 21 -50zM698 893q-183 -28 -327 -158q-156 -141 -156 -320q0 -119 85 -190q76 -62 200 -73z" />
    <glyph glyph-name="sterling" unicode="&#xa3;" 
d="M1049 1363q0 -87 -66 -87q-20 0 -58.5 37t-83.5 37q-170 0 -265 -300h145q75 0 75 -75t-75 -75h-185q-15 -61 -33 -150h137q75 0 75 -75t-75 -75h-167q-33 -157 -55 -234q-43 -146 -97 -216h608q75 0 75 -75t-75 -75h-900q-78 0 -78 75t78 75q132 0 213 168q44 91 85 282
h-137q-75 0 -75 75t75 75h168l31 150h-118q-75 0 -75 75t75 75h155q124 450 415 450q208 0 208 -137z" />
    <glyph glyph-name="currency" unicode="&#xa4;" 
d="M1247 973q0 -33 -30 -57l-116 -91q40 -84 40 -184q0 -247 -207 -445q72 -98 72 -122q0 -30 -24 -52.5t-54 -22.5q-34 0 -66 38l-46 66q-163 -103 -337 -103q-175 0 -291 105q-134 -106 -159 -106q-31 0 -53.5 23.5t-22.5 54.5q0 33 30 57l116 91q-40 84 -40 184
q0 247 207 445q-72 98 -72 122q0 30 24 52.5t54 22.5q34 0 66 -38l46 -66q163 103 337 103q175 0 291 -105q134 106 159 106q31 0 53.5 -23.5t22.5 -54.5zM988 652q0 119 -75 185q-71 63 -192 63q-199 0 -354 -151.5t-155 -350.5q0 -119 75 -185q71 -63 192 -63
q199 0 354 151.5t155 350.5z" />
    <glyph glyph-name="yen" unicode="&#xa5;" 
d="M1368 1425q0 -27 -22 -51l-513 -549h127q75 0 75 -75t-75 -75h-242l-40 -150h202q75 0 75 -75t-75 -75h-243l-85 -319q-15 -56 -71 -56q-77 0 -77 72q0 11 78 303h-202q-75 0 -75 75t75 75h242l41 150h-203q-75 0 -75 75t75 75h190l-229 572q-6 15 -6 31q0 31 24 52
t55 21q48 0 67 -48l225 -565l550 588q23 25 54 25t54.5 -22.5t23.5 -53.5z" />
    <glyph glyph-name="brokenbar" unicode="&#xa6;" 
d="M917 1428q0 -11 -3 -22l-201 -750q-15 -56 -71 -56q-77 0 -77 72q0 11 3 22l201 750q15 56 70 56q78 0 78 -72zM635 378q0 -11 -3 -22l-201 -750q-15 -56 -70 -56q-78 0 -78 72q0 11 3 22l201 750q15 56 71 56q77 0 77 -72z" />
    <glyph glyph-name="section" unicode="&#xa7;" 
d="M1268 1272q0 -31 -24 -52.5t-55 -21.5q-32 0 -62 38q-89 114 -286 114q-222 0 -365 -117q-94 -77 -94 -166q0 -93 110 -136q79 -31 188 -31q176 0 298 -68q150 -84 150 -246q0 -121 -86 -225q-77 -93 -197 -146q123 -87 123 -229q0 -92 -54 -179q-81 -131 -243 -198
q-141 -59 -312 -59q-307 0 -415 188q-12 21 -12 40q0 31 24 52.5t55 21.5q33 0 62 -38q88 -114 286 -114q222 0 365 117q94 77 94 166q0 93 -110 136q-79 31 -188 31q-176 0 -298 68q-150 84 -150 246q0 121 86 225q77 93 197 146q-123 87 -123 229q0 92 54 179
q81 131 243 198q141 59 312 59q307 0 415 -188q12 -21 12 -40zM981 573q0 93 -111 141q-83 36 -190 36q-134 0 -268 -60q-193 -87 -193 -213q0 -93 111 -141q83 -36 190 -36q134 0 268 60q193 87 193 213z" />
    <glyph glyph-name="dieresis" unicode="&#xa8;" 
d="M1150 1323q0 -50 -37.5 -86.5t-87.5 -36.5q-44 0 -73.5 29.5t-29.5 73.5q0 50 37 86t87 36q44 0 74 -29t30 -73zM700 1323q0 -50 -37.5 -86.5t-87.5 -36.5q-44 0 -73.5 29.5t-29.5 73.5q0 50 37 86t87 36q44 0 74 -29t30 -73z" />
    <glyph glyph-name="copyright" unicode="&#xa9;" 
d="M1216 1025q0 -338 -196 -659q-224 -366 -541 -366q-194 0 -291 147q-83 125 -83 328q0 338 196 659q224 366 540 366q194 0 292 -147q83 -124 83 -328zM1072 1005q0 128 -51 225q-63 120 -180 120q-133 0 -276 -135q-204 -192 -282 -484q-34 -126 -34 -236
q0 -129 50 -225q62 -120 180 -120q134 0 277 135q203 192 283 485q33 125 33 235zM959 986q0 -73 -78 -73q-37 0 -68 50t-62 50q-107 0 -188 -154q-70 -133 -70 -251q0 -120 77 -120q42 0 102.5 50t81.5 50q31 0 54.5 -23t23.5 -54q0 -26 -22 -51q-106 -122 -240 -122
q-114 0 -173 83q-52 73 -52 192q0 186 108 356q123 194 298 194q146 0 202 -146q6 -16 6 -31z" />
    <glyph glyph-name="ordfeminine" unicode="&#xaa;" 
d="M1155 1380q0 -3 -154 -579q-15 -56 -70 -56q-68 0 -77 62q-109 -62 -225 -62q-130 0 -218 77q-91 81 -91 209q0 196 181 348q173 146 372 146q81 0 170 -34q112 -43 112 -111zM925 525q0 -75 -75 -75h-600q-75 0 -75 75t75 75h600q75 0 75 -75zM994 1351q-48 24 -121 24
q-129 0 -245 -84q-119 -87 -151 -210q-7 -27 -7 -49q0 -137 159 -137q98 0 188 65t115 159z" />
    <glyph glyph-name="guillemotleft" unicode="&#xab;" 
d="M1172 976q0 -25 -17 -47l-324 -422l96 -415q3 -13 3 -20q0 -72 -77 -72q-59 0 -72 58l-101 439q-3 12 -6 27q0 25 24 56l338 441q23 30 58 30q30 0 54 -22.5t24 -52.5zM647 976q0 -25 -17 -47l-324 -422l96 -415q3 -13 3 -20q0 -72 -77 -72q-59 0 -72 58l-101 439
q-3 12 -6 27q0 25 24 56l338 441q23 30 58 30q30 0 54 -22.5t24 -52.5z" />
    <glyph glyph-name="logicalnot" unicode="&#xac;" 
d="M1025 527q0 -11 -5 -30l-118 -441q-15 -56 -70 -56q-78 0 -78 72q0 11 3 22l95 356h-702q-75 0 -75 75t75 75h801q74 0 74 -73z" />
    <glyph glyph-name="minus" unicode="&#xad;" 
d="M1080 563q75 0 75 75t-75 75h-900q-75 0 -75 -75t75 -75h900z" />
    <glyph glyph-name="minus" unicode="&#x2212;" 
d="M1080 563q75 0 75 75t-75 75h-900q-75 0 -75 -75t75 -75h900z" />
    <glyph glyph-name="registered" unicode="&#xae;" 
d="M1216 1025q0 -338 -196 -659q-224 -366 -541 -366q-194 0 -291 147q-83 125 -83 328q0 338 196 659q224 366 540 366q194 0 292 -147q83 -124 83 -328zM857 951q0 62 -69 62h-130l-60 -225h90q62 0 115.5 50.5t53.5 112.5zM1072 1005q0 128 -51 225q-63 120 -180 120
q-128 0 -266 -125q-209 -189 -292 -494q-34 -124 -34 -236q0 -129 50 -225q62 -120 180 -120q161 0 330 188q-8 -2 -16 -2q-32 0 -59 32q-114 136 -184 242l-58 -217q-15 -56 -70 -56q-78 0 -78 73q0 11 3 22l181 675q5 19 29 37.5t44 18.5h187q98 0 157 -56.5t59 -154.5
q0 -120 -81 -209t-201 -103l84 -112q64 -86 65 -113q201 278 201 590z" />
    <glyph glyph-name="overscore" unicode="&#xaf;" 
d="M1487 1875q0 -75 -75 -75h-900q-75 0 -75 75t75 75h900q75 0 75 -75z" />
    <glyph glyph-name="degree" unicode="&#xb0;" 
d="M1146 1202q0 -177 -144 -314.5t-322 -137.5q-132 0 -218.5 83.5t-86.5 214.5q0 177 145 316q143 136 321 136q132 0 218.5 -83t86.5 -215zM995 1209q0 141 -154 141q-120 0 -217.5 -94.5t-97.5 -214.5q0 -141 154 -141q120 0 217.5 94.5t97.5 214.5z" />
    <glyph glyph-name="plusminus" unicode="&#xb1;" 
d="M1205 825q0 -75 -75 -75h-392l-106 -394q-15 -56 -70 -56q-78 0 -78 72q0 11 99 378h-353q-75 0 -75 75t75 75h393l106 394q15 56 70 56q77 0 77 -72q0 -11 -98 -378h352q75 0 75 -75zM1004 75q0 -75 -75 -75h-900q-75 0 -75 75t75 75h900q75 0 75 -75z" />
    <glyph glyph-name="twosuperior" unicode="&#xb2;" 
d="M984 1224q0 126 -143 126q-93 0 -172 -59t-107 -148q-18 -56 -70 -56q-78 0 -78 73q0 11 3 22q37 136 159.5 227t264.5 91q131 0 211 -74t80 -203q0 -207 -173 -310l-337 -200l289 -1q75 0 75 -75t-75 -75l-563 -1q-75 0 -75 78q0 41 47 69l563 334q101 60 101 182z" />
    <glyph glyph-name="threesuperior" unicode="&#xb3;" 
d="M1216 1434q0 -41 -43 -71l-351 -244q216 -60 216 -269q0 -183 -145 -316q-142 -129 -326 -129q-102 0 -182 49q-86 52 -118 145q-5 14 -5 28q0 73 78 73q37 0 61 -38q38 -59 48 -69q41 -38 118 -38q119 0 217 84q103 88 103 205q0 138 -165 138q-64 0 -150 -43t-95 -43
q-30 0 -52 23t-22 53q0 38 36 63l452 315h-339q-75 0 -75 75t75 75h578q86 0 86 -66z" />
    <glyph glyph-name="acute" unicode="&#xb4;" 
d="M1067 1422q0 -46 -46 -66l-340 -150q-16 -7 -33 -7q-31 0 -52 24t-21 55q0 46 46 66l340 150q16 7 33 7q31 0 52 -24t21 -55z" />
    <glyph glyph-name="mu1" unicode="&#xb5;" 
d="M1146 978q0 -11 -3 -22l-241 -900q-15 -56 -71 -56q-77 0 -77 73q0 6 1 13q-133 -86 -276 -86q-165 0 -262 111l-136 -505q-15 -56 -70 -56q-78 0 -78 72q0 11 3 22l362 1350q15 56 70 56q78 0 78 -72q0 -11 -3 -22l-147 -550q-10 -37 -10 -72q0 -85 53.5 -134.5
t139.5 -49.5q124 0 232.5 88.5t139.5 205.5l147 550q15 56 70 56q78 0 78 -72z" />
    <glyph glyph-name="paragraph" unicode="&#xb6;" 
d="M1317 1430q0 -13 -3 -24l-362 -1350q-15 -56 -71 -56q-77 0 -77 72q0 11 3 22l336 1256h-294l-347 -1294q-15 -56 -71 -56q-77 0 -77 72q0 11 3 22l176 656q-138 0 -219 74q-84 76 -84 213q0 189 136 326t325 137h550q76 0 76 -70zM693 1350h-2q-120 0 -217.5 -94.5
t-97.5 -214.5q0 -141 197 -141z" />
    <glyph glyph-name="middot" unicode="&#xb7;" 
d="M745 646q0 -49 -38 -85.5t-87 -36.5q-45 0 -75 29.5t-30 74.5q0 50 37 85.5t88 35.5q45 0 75 -29t30 -74z" />
    <glyph glyph-name="cedilla" unicode="&#xb8;" 
d="M712 -92q0 -141 -113 -249.5t-255 -108.5q-186 0 -237 166q-4 13 -4 25q0 72 78 72q36 0 71 -56.5t92 -56.5q81 0 149.5 65.5t68.5 146.5q0 64 -86 86.5t-86 76.5q0 75 75 75q107 0 177 -68t70 -174z" />
    <glyph glyph-name="onesuperior" unicode="&#xb9;" 
d="M955 1424q0 -5 -7 -31l-183 -680q64 0 86 -8q42 -15 42 -68q0 -75 -75 -75h-300q-75 0 -75 75q0 60 60 73q14 3 107 3l140 523l-108 -81q-21 -16 -45 -16q-31 0 -53.5 23.5t-22.5 54.5q0 34 32 58l270 202q32 24 56 24q76 0 76 -77z" />
    <glyph glyph-name="ordmasculine" unicode="&#xba;" 
d="M1180 1187q0 -188 -161 -330q-156 -137 -347 -137q-142 0 -238 84q-100 88 -100 229q0 188 161 330q155 137 346 137q142 0 238 -85q101 -88 101 -228zM1012 525q0 -75 -75 -75h-675q-74 0 -74 75t74 75h675q75 0 75 -75zM1028 1192q0 158 -187 158q-133 0 -242 -94
q-114 -97 -114 -228q0 -158 187 -158q134 0 242 93q114 98 114 229z" />
    <glyph glyph-name="guillemotright" unicode="&#xbb;" 
d="M1051 526q0 -25 -24 -56l-338 -441q-23 -30 -58 -30q-30 0 -54 22.5t-24 52.5q0 25 17 47l324 422l-96 415q-3 13 -3 20q0 72 77 72q59 0 72 -58l101 -439q3 -13 6 -27zM526 526q0 -25 -24 -56l-338 -441q-23 -30 -58 -30q-30 0 -54 22.5t-24 52.5q0 25 17 47l324 422
l-96 415q-3 13 -3 20q0 72 77 72q59 0 72 -58l101 -439q3 -13 6 -27z" />
    <glyph glyph-name="onequarter" unicode="&#xbc;" 
d="M716 1724q0 -8 -6 -30l-183 -681q90 0 90 -76q0 -75 -75 -75h-225q-75 0 -75 75q0 53 43 68q22 8 87 8l128 479q-56 -53 -84 -53q-31 0 -54 23t-23 54t25 54l217 202q31 29 58 29q77 0 77 -77zM1368 1425q0 -27 -22 -51l-1262 -1350q-23 -25 -54 -25q-30 0 -53.5 23
t-23.5 53q0 27 22 51l1261 1350q23 25 54 25t54.5 -22.5t23.5 -53.5zM970 581q0 -15 -4 -30l-144 -536q78 0 96 -5q50 -14 50 -70q0 -75 -75 -75h-111l-69 -259q-15 -56 -71 -56q-77 0 -77 72q0 11 62 243h-240q-82 0 -82 63q0 29 24 59l506 630q31 38 69 38q66 0 66 -74z
M729 245l-186 -230h124z" />
    <glyph glyph-name="onehalf" unicode="&#xbd;" 
d="M716 1724q0 -8 -6 -30l-183 -681q90 0 90 -76q0 -75 -75 -75h-225q-75 0 -75 75q0 53 43 68q22 8 87 8l128 479q-56 -53 -84 -53q-31 0 -54 23t-23 54t25 54l217 202q31 29 58 29q77 0 77 -77zM1368 1425q0 -27 -22 -51l-1262 -1350q-23 -25 -54 -25q-30 0 -53.5 23
t-23.5 53q0 27 22 51l1261 1350q23 25 54 25t54.5 -22.5t23.5 -53.5zM1073 388q0 -92 -39 -183q-42 -99 -110 -150l-273 -205h198q75 0 75 -75t-75 -75l-422 -1q-76 0 -76 77q0 36 41 67l442 332q38 28 66 100q26 66 26 118q0 94 -77 94q-70 0 -133 -71q-53 -59 -76 -135
q-17 -56 -70 -56q-78 0 -78 72q0 11 3 22q34 125 128 217q104 101 226 101q110 0 169 -71q55 -66 55 -178z" />
    <glyph glyph-name="threequarters" unicode="&#xbe;" 
d="M1368 1425q0 -27 -22 -51l-1262 -1350q-23 -25 -54 -25q-30 0 -53.5 23t-23.5 53q0 27 22 51l563 602q-58 -23 -119 -23q-91 0 -155 58q-61 55 -80 147q-2 10 -2 17q0 72 77 72q44 0 75.5 -72t84.5 -72q100 0 177 110q70 100 70 204q0 114 -92 114q-46 0 -108 -43.5
t-82 -43.5q-30 0 -52 22.5t-22 52.5q0 34 29 59l366 320h-233q-75 0 -75 75t75 75h433q85 0 85 -65q0 -34 -36 -66l-289 -253q150 -58 150 -246q0 -92 -39 -187l460 493q23 25 54 25t54.5 -22.5t23.5 -53.5zM970 581q0 -15 -4 -30l-144 -536q78 0 96 -5q50 -14 50 -70
q0 -75 -75 -75h-111l-69 -259q-15 -56 -71 -56q-77 0 -77 72q0 11 62 243h-240q-82 0 -82 63q0 29 24 59l506 630q31 38 69 38q66 0 66 -74zM729 245l-186 -230h124z" />
    <glyph glyph-name="questiondown" unicode="&#xbf;" 
d="M825 945q0 -50 -37.5 -85t-87.5 -35q-44 0 -74.5 29t-30.5 73q0 50 38 86.5t88 36.5q45 0 74.5 -30t29.5 -75zM965 -72q0 -12 -3 -22q-48 -167 -242 -268q-169 -88 -361 -88q-176 0 -298 68q-150 84 -150 246q0 92 54 179q81 131 243 198q141 59 312 59q78 0 158 35
q100 44 100 112q0 78 -158 78q-55 0 -123 -21q-16 -5 -28 -5q-72 0 -72 78q0 47 51 69q68 29 172 29q114 0 205 -54q107 -64 107 -170q0 -137 -143 -225q-124 -76 -269 -76q-219 0 -363 -115q-96 -77 -96 -168q0 -93 110 -136q79 -31 188 -31q124 0 241 47q134 54 194 147
q8 12 23 50q22 56 70 56q78 0 78 -72z" />
    <glyph glyph-name="Agrave" unicode="&#xc0;" 
d="M1147 1727q0 -31 -21.5 -54.5t-52.5 -23.5q-20 0 -39 11l-260 150q-38 22 -38 63q0 30 22 54t52 24q20 0 39 -11l260 -150q38 -22 38 -63zM1004 74q5 -74 -75 -74q-69 0 -74 70l-25 380h-488l-248 -414q-22 -37 -62 -37q-31 0 -55 21.5t-24 52.5q0 21 12 41l806 1339
q29 48 68 48q73 0 78 -83zM820 600l-38 581l-349 -581h387z" />
    <glyph glyph-name="Aacute" unicode="&#xc1;" 
d="M1202 1872q0 -46 -45 -66l-340 -150q-16 -7 -33 -7q-73 0 -73 79q0 46 45 66l340 150q16 7 33 7q73 0 73 -79zM1004 74q5 -74 -75 -74q-69 0 -74 70l-25 380h-488l-248 -414q-22 -37 -62 -37q-31 0 -55 21.5t-24 52.5q0 21 12 41l806 1339q29 48 68 48q73 0 78 -83z
M820 600l-38 581l-349 -581h387z" />
    <glyph glyph-name="Acircumflex" unicode="&#xc2;" 
d="M1223 1727q0 -31 -22.5 -54.5t-53.5 -23.5q-26 0 -48 18l-145 118l-221 -125q-19 -11 -38 -11q-31 0 -52.5 23.5t-21.5 54.5q0 41 39 63l259 147q25 14 43 14q25 0 52 -22l180 -146q29 -24 29 -56zM1004 74q5 -74 -75 -74q-69 0 -74 70l-25 380h-488l-248 -414
q-22 -37 -62 -37q-31 0 -55 21.5t-24 52.5q0 21 12 41l806 1339q29 48 68 48q73 0 78 -83zM820 600l-38 581l-349 -581h387z" />
    <glyph glyph-name="Atilde" unicode="&#xc3;" 
d="M1333 1802q0 -29 -29 -63q-75 -89 -217 -89q-83 0 -163.5 75t-96.5 75q-59 0 -104 -38t-64 -38q-31 0 -55 21.5t-24 52.5q0 29 29 63q76 89 218 89q82 0 162.5 -75t97.5 -75q42 0 62 12.5t43 26.5q23 37 62 37q31 0 55 -21.5t24 -52.5zM1004 74q5 -74 -75 -74
q-69 0 -74 70l-25 380h-488l-248 -414q-22 -37 -62 -37q-31 0 -55 21.5t-24 52.5q0 21 12 41l806 1339q29 48 68 48q73 0 78 -83zM820 600l-38 581l-349 -581h387z" />
    <glyph glyph-name="Adieresis" unicode="&#xc4;" 
d="M1271 1773q0 -50 -37 -86.5t-87 -36.5q-45 0 -74.5 29t-29.5 74q0 50 37 86t87 36q44 0 74 -29t30 -73zM821 1773q0 -50 -37 -86.5t-87 -36.5q-45 0 -74.5 29t-29.5 74q0 50 37 86t87 36q44 0 74 -29t30 -73zM1004 74q5 -74 -75 -74q-69 0 -74 70l-25 380h-488l-248 -414
q-22 -37 -62 -37q-31 0 -55 21.5t-24 52.5q0 21 12 41l806 1339q29 48 68 48q73 0 78 -83zM820 600l-38 581l-349 -581h387z" />
    <glyph glyph-name="Aring" unicode="&#xc5;" 
d="M1145 1767q0 -101 -79 -175.5t-180 -74.5q-79 0 -132 49t-53 128q0 101 79.5 177.5t180.5 76.5q80 0 132 -51t52 -130zM1004 74q5 -74 -75 -74q-69 0 -74 70l-25 380h-488l-248 -414q-22 -37 -62 -37q-31 0 -55 21.5t-24 52.5q0 21 12 41l806 1339q29 48 68 48
q73 0 78 -83zM996 1767q0 31 -35 31q-36 0 -73.5 -33t-37.5 -69q0 -29 36 -29q38 0 74 31.5t36 68.5zM820 600l-38 581l-349 -581h387z" />
    <glyph glyph-name="AE" unicode="&#xc6;" 
d="M1366 1425q0 -75 -75 -75h-302l-141 -525h262q75 0 75 -75t-75 -75h-302l-141 -525h262q75 0 75 -75t-75 -75h-361q-74 0 -74 73q0 11 5 30l93 347h-222l-278 -417q-23 -34 -60 -34q-31 0 -55 22t-24 53q0 22 14 43l896 1341q29 43 66 43l362 -1q75 0 75 -75zM741 1005
l-271 -405h162z" />
    <glyph glyph-name="Ccedilla" unicode="&#xc7;" 
d="M1314 1225q0 -31 -23.5 -52t-54.5 -21q-39 0 -64 41q-98 157 -254 157q-273 0 -476 -291q-184 -264 -184 -550q0 -158 69 -252q78 -107 230 -107q163 0 374 177q26 22 51 22q30 0 53.5 -23.5t23.5 -53.5q0 -51 -121 -134q-98 -67 -172 -96q38 -59 38 -134
q0 -141 -113 -249.5t-255 -108.5q-183 0 -236 166q-4 12 -4 25q0 72 78 72q36 0 70 -56.5t92 -56.5q82 0 150 65.5t68 146.5q0 88 -97 88q-218 0 -341 163q-110 146 -110 371q0 334 238 640q253 326 574 326q270 0 387 -238q9 -18 9 -37z" />
    <glyph glyph-name="Egrave" unicode="&#xc8;" 
d="M1222 1727q0 -31 -21.5 -54.5t-52.5 -23.5q-20 0 -39 11l-260 150q-38 22 -38 63q0 30 22 54t52 24q20 0 39 -11l260 -150q38 -22 38 -63zM1366 1425q0 -75 -75 -75h-742l-141 -525h702q75 0 75 -75t-75 -75h-742l-141 -525h702q75 0 75 -75t-75 -75h-800q-75 0 -75 70
q0 11 365 1374q5 20 28 38t44 18h800q75 0 75 -75z" />
    <glyph glyph-name="Eacute" unicode="&#xc9;" 
d="M1262 1872q0 -46 -45 -66l-340 -150q-16 -7 -33 -7q-73 0 -73 79q0 46 45 66l340 150q16 7 33 7q73 0 73 -79zM1366 1425q0 -75 -75 -75h-742l-141 -525h702q75 0 75 -75t-75 -75h-742l-141 -525h702q75 0 75 -75t-75 -75h-800q-75 0 -75 70q0 11 365 1374q5 20 28 38
t44 18h800q75 0 75 -75z" />
    <glyph glyph-name="Ecircumflex" unicode="&#xca;" 
d="M1298 1727q0 -31 -22.5 -54.5t-53.5 -23.5q-26 0 -48 18l-145 118l-221 -125q-19 -11 -38 -11q-31 0 -52.5 23.5t-21.5 54.5q0 41 39 63l259 147q25 14 43 14q25 0 52 -22l180 -146q29 -24 29 -56zM1366 1425q0 -75 -75 -75h-742l-141 -525h702q75 0 75 -75t-75 -75h-742
l-141 -525h702q75 0 75 -75t-75 -75h-800q-75 0 -75 70q0 11 365 1374q5 20 28 38t44 18h800q75 0 75 -75z" />
    <glyph glyph-name="Edieresis" unicode="&#xcb;" 
d="M1346 1773q0 -50 -37.5 -86.5t-87.5 -36.5q-44 0 -73.5 29.5t-29.5 73.5q0 50 36.5 86t86.5 36q44 0 74.5 -29t30.5 -73zM896 1773q0 -50 -37.5 -86.5t-87.5 -36.5q-44 0 -73.5 29.5t-29.5 73.5q0 50 36.5 86t86.5 36q44 0 74.5 -29t30.5 -73zM1366 1425q0 -75 -75 -75
h-742l-141 -525h702q75 0 75 -75t-75 -75h-742l-141 -525h702q75 0 75 -75t-75 -75h-800q-75 0 -75 70q0 11 365 1374q5 20 28 38t44 18h800q75 0 75 -75z" />
    <glyph glyph-name="Igrave" unicode="&#xcc;" 
d="M1147 1727q0 -31 -21.5 -54.5t-52.5 -23.5q-20 0 -39 11l-260 150q-38 22 -38 63q0 30 22 54t52 24q20 0 39 -11l260 -150q38 -22 38 -63zM1216 1425q0 -75 -75 -75h-245l-322 -1200h205q75 0 75 -75t-75 -75h-600q-75 0 -75 75t75 75h240l321 1200h-199q-75 0 -75 75
t75 75h600q75 0 75 -75z" />
    <glyph glyph-name="Iacute" unicode="&#xcd;" 
d="M1187 1872q0 -46 -45 -66l-340 -150q-16 -7 -33 -7q-73 0 -73 79q0 46 45 66l340 150q16 7 33 7q73 0 73 -79zM1216 1425q0 -75 -75 -75h-245l-322 -1200h205q75 0 75 -75t-75 -75h-600q-75 0 -75 75t75 75h240l321 1200h-199q-75 0 -75 75t75 75h600q75 0 75 -75z" />
    <glyph glyph-name="Icircumflex" unicode="&#xce;" 
d="M1223 1727q0 -31 -22.5 -54.5t-53.5 -23.5q-26 0 -48 18l-145 118l-221 -125q-19 -11 -38 -11q-31 0 -52.5 23.5t-21.5 54.5q0 41 39 63l259 147q25 14 43 14q25 0 52 -22l180 -146q29 -24 29 -56zM1216 1425q0 -75 -75 -75h-242l-322 -1200h202q75 0 75 -75t-75 -75
h-600q-75 0 -75 75t75 75h243l321 1200h-202q-75 0 -75 75t75 75h600q75 0 75 -75z" />
    <glyph glyph-name="Idieresis" unicode="&#xcf;" 
d="M1271 1773q0 -50 -37.5 -86.5t-87.5 -36.5q-44 0 -73.5 29.5t-29.5 73.5q0 50 36.5 86t86.5 36q44 0 74.5 -29t30.5 -73zM821 1773q0 -50 -37.5 -86.5t-87.5 -36.5q-44 0 -73.5 29.5t-29.5 73.5q0 50 36.5 86t86.5 36q44 0 74.5 -29t30.5 -73zM1216 1425q0 -75 -75 -75
h-243l-321 -1200h202q75 0 75 -75t-75 -75h-600q-75 0 -75 75t75 75h242l322 1200h-202q-75 0 -75 75t75 75h600q75 0 75 -75z" />
    <glyph glyph-name="Eth" unicode="&#xd0;" 
d="M1209 925q0 -361 -298 -645q-294 -280 -657 -280q-75 0 -75 70q0 13 3 24l156 581h-128q-75 0 -75 75t75 75h168l166 619q5 20 28 38t44 18q259 0 424 -157q169 -160 169 -418zM1059 926q0 175 -106 289.5t-280 131.5l-140 -522h127q75 0 75 -75t-75 -75h-167l-139 -517
q275 42 486 265q219 230 219 503z" />
    <glyph glyph-name="Ntilde" unicode="&#xd1;" 
d="M1318 1802q0 -29 -29 -63q-75 -89 -217 -89q-83 0 -163.5 75t-96.5 75q-59 0 -104 -38t-64 -38q-31 0 -55 21.5t-24 52.5q0 29 29 63q76 89 218 89q82 0 162.5 -75t97.5 -75q42 0 62 12.5t43 26.5q23 37 62 37q31 0 55 -21.5t24 -52.5zM1267 1428q0 -11 -3 -22
l-359 -1340q-18 -66 -76 -66t-75 67l-265 1059l-287 -1070q-15 -56 -70 -56q-78 0 -78 72q0 11 3 22l359 1340q18 66 76 66t75 -67l265 -1059l287 1070q15 56 70 56q78 0 78 -72z" />
    <glyph glyph-name="Ograve" unicode="&#xd2;" 
d="M1162 1727q0 -31 -21.5 -54.5t-52.5 -23.5q-20 0 -39 11l-260 150q-38 22 -38 63q0 30 22 54t52 24q20 0 39 -11l260 -150q38 -22 38 -63zM1216 1025q0 -338 -196 -659q-224 -366 -541 -366q-194 0 -291 147q-83 125 -83 328q0 338 196 659q224 366 540 366
q194 0 292 -147q83 -124 83 -328zM1072 1005q0 128 -51 225q-63 120 -180 120q-133 0 -276 -135q-204 -192 -282 -484q-34 -126 -34 -236q0 -129 50 -225q62 -120 180 -120q134 0 277 135q203 192 283 485q33 125 33 235z" />
    <glyph glyph-name="Oacute" unicode="&#xd3;" 
d="M1202 1872q0 -46 -45 -66l-340 -150q-16 -7 -33 -7q-73 0 -73 79q0 46 45 66l340 150q16 7 33 7q73 0 73 -79zM1216 1025q0 -338 -196 -659q-224 -366 -541 -366q-194 0 -291 147q-83 125 -83 328q0 338 196 659q224 366 540 366q194 0 292 -147q83 -124 83 -328z
M1072 1005q0 128 -51 225q-63 120 -180 120q-133 0 -276 -135q-204 -192 -282 -484q-34 -126 -34 -236q0 -129 50 -225q62 -120 180 -120q134 0 277 135q203 192 283 485q33 125 33 235z" />
    <glyph glyph-name="Ocircumflex" unicode="&#xd4;" 
d="M1223 1727q0 -31 -22.5 -54.5t-53.5 -23.5q-26 0 -48 18l-145 118l-221 -125q-19 -11 -38 -11q-31 0 -52.5 23.5t-21.5 54.5q0 41 39 63l259 147q25 14 43 14q25 0 52 -22l180 -146q29 -24 29 -56zM1216 1025q0 -338 -196 -659q-224 -366 -541 -366q-194 0 -291 147
q-83 125 -83 328q0 338 196 659q224 366 540 366q194 0 292 -147q83 -124 83 -328zM1072 1005q0 128 -51 225q-63 120 -180 120q-133 0 -276 -135q-204 -192 -282 -484q-34 -126 -34 -236q0 -129 50 -225q62 -120 180 -120q134 0 277 135q203 192 283 485q33 125 33 235z
" />
    <glyph glyph-name="Otilde" unicode="&#xd5;" 
d="M1333 1802q0 -29 -29 -63q-75 -89 -217 -89q-83 0 -163.5 75t-96.5 75q-59 0 -104 -38t-64 -38q-31 0 -55 21.5t-24 52.5q0 29 29 63q76 89 218 89q82 0 162.5 -75t97.5 -75q42 0 62 12.5t43 26.5q23 37 62 37q31 0 55 -21.5t24 -52.5zM1216 1025q0 -338 -196 -659
q-224 -366 -541 -366q-194 0 -291 147q-83 125 -83 328q0 338 196 659q224 366 540 366q194 0 292 -147q83 -124 83 -328zM1072 1005q0 128 -51 225q-63 120 -180 120q-133 0 -276 -135q-204 -192 -282 -484q-34 -126 -34 -236q0 -129 50 -225q62 -120 180 -120
q134 0 277 135q203 192 283 485q33 125 33 235z" />
    <glyph glyph-name="Odieresis" unicode="&#xd6;" 
d="M1271 1773q0 -50 -37 -86.5t-87 -36.5q-45 0 -74.5 29t-29.5 74q0 50 37 86t87 36q44 0 74 -29t30 -73zM821 1773q0 -50 -37 -86.5t-87 -36.5q-45 0 -74.5 29t-29.5 74q0 50 37 86t87 36q44 0 74 -29t30 -73zM1216 1025q0 -338 -196 -659q-224 -366 -541 -366
q-194 0 -291 147q-83 125 -83 328q0 338 196 659q224 366 540 366q194 0 292 -147q83 -124 83 -328zM1072 1005q0 128 -51 225q-63 120 -180 120q-133 0 -276 -135q-204 -192 -282 -484q-34 -126 -34 -236q0 -129 50 -225q62 -120 180 -120q134 0 277 135q203 192 283 485
q33 125 33 235z" />
    <glyph glyph-name="multiply" unicode="&#xd7;" 
d="M1080 842q0 -34 -30 -58l-347 -273l190 -260q16 -22 16 -45q0 -31 -23.5 -53t-54.5 -22q-36 0 -59 31l-187 256l-342 -270q-23 -18 -47 -18q-30 0 -53 24t-23 54q0 34 30 58l347 273l-190 260q-16 22 -16 45q0 31 23.5 53t54.5 22q36 0 59 -32l187 -255l342 270
q23 18 47 18q30 0 53 -24t23 -54z" />
    <glyph glyph-name="Oslash" unicode="&#xd8;" 
d="M1368 1425q0 -27 -22 -51l-152 -163q22 -84 22 -186q0 -338 -196 -659q-224 -366 -541 -366q-188 0 -286 140l-109 -116q-23 -25 -54 -25q-30 0 -53.5 23t-23.5 53q0 27 22 51l151 163q-21 84 -21 186q0 338 196 659q224 366 540 366q189 0 287 -140l108 116q23 25 54 25
t54.5 -22.5t23.5 -53.5zM1016 1240q-66 110 -175 110q-128 0 -266 -125q-210 -191 -292 -494q-34 -126 -34 -236q0 -37 4 -71zM1072 1005q0 37 -4 71l-763 -816q65 -110 174 -110q129 0 267 125q144 130 235 333t91 397z" />
    <glyph glyph-name="Ugrave" unicode="&#xd9;" 
d="M1147 1727q0 -31 -21.5 -54.5t-52.5 -23.5q-20 0 -39 11l-260 150q-38 22 -38 63q0 30 22 54t52 24q20 0 39 -11l260 -150q38 -22 38 -63zM1317 1428q0 -11 -3 -22l-255 -950q-51 -191 -217 -322q-167 -134 -363 -134q-165 0 -273.5 103.5t-108.5 268.5q0 59 17 122
l255 950q15 56 70 56q78 0 78 -72q0 -11 -3 -22l-255 -950q-12 -45 -12 -85q0 -101 65 -161t167 -60q144 0 272 103q125 101 163 242l255 949q15 56 70 56q78 0 78 -72z" />
    <glyph glyph-name="Uacute" unicode="&#xda;" 
d="M1187 1872q0 -46 -45 -66l-340 -150q-16 -7 -33 -7q-73 0 -73 79q0 46 45 66l340 150q16 7 33 7q73 0 73 -79zM1317 1428q0 -11 -3 -22l-255 -950q-51 -191 -217 -322q-167 -134 -363 -134q-165 0 -273.5 103.5t-108.5 268.5q0 59 17 122l255 950q15 56 70 56
q78 0 78 -72q0 -11 -3 -22l-255 -950q-12 -45 -12 -85q0 -101 65 -161t167 -60q144 0 272 103q125 101 163 242l255 949q15 56 70 56q78 0 78 -72z" />
    <glyph glyph-name="Ucircumflex" unicode="&#xdb;" 
d="M1223 1727q0 -31 -22.5 -54.5t-53.5 -23.5q-26 0 -48 18l-145 118l-221 -125q-19 -11 -38 -11q-31 0 -52.5 23.5t-21.5 54.5q0 41 39 63l259 147q25 14 43 14q25 0 52 -22l180 -146q29 -24 29 -56zM1317 1428q0 -11 -3 -22l-255 -950q-51 -191 -217 -322
q-167 -134 -363 -134q-165 0 -273.5 103.5t-108.5 268.5q0 59 17 122l255 950q15 56 70 56q78 0 78 -72q0 -11 -3 -22l-255 -950q-12 -45 -12 -85q0 -101 65 -161t167 -60q144 0 272 103q125 101 163 242l255 949q15 56 70 56q78 0 78 -72z" />
    <glyph glyph-name="Udieresis" unicode="&#xdc;" 
d="M1271 1773q0 -50 -37 -86.5t-87 -36.5q-45 0 -74.5 29t-29.5 74q0 50 37 86t87 36q44 0 74 -29t30 -73zM821 1773q0 -50 -37 -86.5t-87 -36.5q-45 0 -74.5 29t-29.5 74q0 50 37 86t87 36q44 0 74 -29t30 -73zM1317 1428q0 -11 -3 -22l-255 -950q-51 -191 -217 -322
q-167 -134 -363 -134q-165 0 -273.5 103.5t-108.5 268.5q0 59 17 122l255 950q15 56 70 56q78 0 78 -72q0 -11 -3 -22l-255 -950q-12 -45 -12 -85q0 -101 65 -161t167 -60q144 0 272 103q125 101 163 242l255 949q15 56 70 56q78 0 78 -72z" />
    <glyph glyph-name="Yacute" unicode="&#xdd;" 
d="M1187 1872q0 -46 -45 -66l-340 -150q-16 -7 -33 -7q-73 0 -73 79q0 46 45 66l340 150q16 7 33 7q73 0 73 -79zM1368 1425q0 -27 -22 -51l-618 -662l-176 -656q-15 -56 -71 -56q-77 0 -77 72q0 11 3 22l174 651l-260 652q-6 15 -6 31q0 31 24 52t55 21q48 0 67 -48
l225 -565l550 588q23 25 54 25t54.5 -22.5t23.5 -53.5z" />
    <glyph glyph-name="Thorn" unicode="&#xde;" 
d="M1201 866q0 -250 -204.5 -445.5t-456.5 -195.5h-293l-45 -169q-15 -56 -71 -56q-77 0 -77 72q0 10 66 256l299 1116q15 56 70 56q78 0 78 -72q0 -11 -38 -153h252q183 0 301.5 -113.5t118.5 -295.5zM1049 877q0 121 -75 186q-71 62 -193 62h-293l-201 -750h253
q198 0 353.5 152t155.5 350z" />
    <glyph glyph-name="germandbls" unicode="&#xdf;" 
d="M1080 414q0 -169 -122 -291.5t-291 -122.5q-108 0 -189 68q-86 72 -86 178q0 73 76 73q42 0 66 -44q15 -41 31 -81q29 -44 102 -44q101 0 183.5 80t82.5 180q0 115 -125 115q-97 0 -157 57.5t-60 154.5q0 169 170 273q55 34 96 103t41 132q0 105 -122 105
q-97 0 -182.5 -69t-110.5 -164l-405 -1511q-15 -56 -70 -56q-78 0 -78 72q0 11 3 22l406 1513q39 144 164 243.5t273 99.5q122 0 195.5 -70t73.5 -192q0 -226 -209 -358q-98 -62 -98 -151q0 -54 70 -54q124 0 198 -69t74 -192z" />
    <glyph glyph-name="agrave" unicode="&#xe0;" 
d="M1002 1277q0 -30 -22 -54t-52 -24q-21 0 -40 11l-259 150q-39 23 -39 63q0 30 22 54t52 24q21 0 40 -11l259 -150q39 -23 39 -63zM1120 875q0 -7 -218 -819q-15 -56 -70 -56q-78 0 -78 72q0 12 8 40q-159 -112 -333 -112q-165 0 -273.5 103.5t-108.5 268.5q0 61 17 122
q65 233 264 393q204 163 443 163q220 0 325 -120q24 -27 24 -55zM960 851q-69 49 -189 49q-185 0 -350 -132t-212 -312q-12 -46 -12 -85q0 -101 65 -161t167 -60q145 0 271.5 103.5t163.5 240.5z" />
    <glyph glyph-name="aacute" unicode="&#xe1;" 
d="M1042 1422q0 -46 -46 -66l-340 -150q-16 -7 -33 -7q-31 0 -52 24t-21 55q0 46 46 66l340 150q16 7 33 7q31 0 52 -24t21 -55zM1120 875q0 -7 -218 -819q-15 -56 -70 -56q-78 0 -78 72q0 12 8 40q-159 -112 -333 -112q-165 0 -273.5 103.5t-108.5 268.5q0 61 17 122
q65 233 264 393q204 163 443 163q220 0 325 -120q24 -27 24 -55zM960 851q-69 49 -189 49q-185 0 -350 -132t-212 -312q-12 -46 -12 -85q0 -101 65 -161t167 -60q145 0 271.5 103.5t163.5 240.5z" />
    <glyph glyph-name="acircumflex" unicode="&#xe2;" 
d="M1077 1277q0 -31 -22.5 -54.5t-53.5 -23.5q-25 0 -47 18l-145 118l-221 -125q-19 -11 -39 -11q-30 0 -52 24t-22 54q0 41 39 63l259 147q25 14 43 14q26 0 53 -22l179 -146q29 -24 29 -56zM1120 875q0 -7 -218 -819q-15 -56 -70 -56q-78 0 -78 72q0 12 8 40
q-159 -112 -333 -112q-165 0 -273.5 103.5t-108.5 268.5q0 61 17 122q65 233 264 393q204 163 443 163q220 0 325 -120q24 -27 24 -55zM960 851q-69 49 -189 49q-185 0 -350 -132t-212 -312q-12 -46 -12 -85q0 -101 65 -161t167 -60q145 0 271.5 103.5t163.5 240.5z" />
    <glyph glyph-name="atilde" unicode="&#xe3;" 
d="M1172 1352q0 -29 -29 -63q-75 -89 -217 -89q-82 0 -163 75t-97 75q-59 0 -104 -38t-64 -38q-30 0 -54 22t-24 52q0 29 29 63q75 89 217 89q82 0 163 -75t97 -75q43 0 62 12l44 27q22 37 62 37q30 0 54 -22t24 -52zM1120 875q0 -7 -218 -819q-15 -56 -70 -56q-78 0 -78 72
q0 12 8 40q-159 -112 -333 -112q-165 0 -273.5 103.5t-108.5 268.5q0 61 17 122q65 233 264 393q204 163 443 163q220 0 325 -120q24 -27 24 -55zM960 851q-69 49 -189 49q-185 0 -350 -132t-212 -312q-12 -46 -12 -85q0 -101 65 -161t167 -60q145 0 271.5 103.5
t163.5 240.5z" />
    <glyph glyph-name="adieresis" unicode="&#xe4;" 
d="M1125 1323q0 -50 -37.5 -86.5t-87.5 -36.5q-44 0 -73.5 29.5t-29.5 73.5q0 50 37 86t87 36q44 0 74 -29t30 -73zM675 1323q0 -50 -37.5 -86.5t-87.5 -36.5q-44 0 -73.5 29.5t-29.5 73.5q0 50 37 86t87 36q44 0 74 -29t30 -73zM1120 875q0 -7 -218 -819q-15 -56 -70 -56
q-78 0 -78 72q0 12 8 40q-159 -112 -333 -112q-165 0 -273.5 103.5t-108.5 268.5q0 61 17 122q65 233 264 393q204 163 443 163q220 0 325 -120q24 -27 24 -55zM960 851q-69 49 -189 49q-185 0 -350 -132t-212 -312q-12 -46 -12 -85q0 -101 65 -161t167 -60
q145 0 271.5 103.5t163.5 240.5z" />
    <glyph glyph-name="aring" unicode="&#xe5;" 
d="M1008 1347q0 -101 -79 -175.5t-181 -74.5q-79 0 -132 49.5t-53 127.5q0 101 80 177.5t181 76.5q80 0 132 -51t52 -130zM1120 875q0 -7 -218 -819q-15 -56 -70 -56q-78 0 -78 72q0 12 8 40q-159 -112 -333 -112q-165 0 -273.5 103.5t-108.5 268.5q0 61 17 122
q65 233 264 393q204 163 443 163q220 0 325 -120q24 -27 24 -55zM858 1347q0 31 -34 31q-36 0 -73.5 -33t-37.5 -69q0 -29 35 -29q38 0 74 31t36 69zM960 851q-69 49 -189 49q-185 0 -350 -132t-212 -312q-12 -46 -12 -85q0 -101 65 -161t167 -60q145 0 271.5 103.5
t163.5 240.5z" />
    <glyph glyph-name="ae" unicode="&#xe6;" 
d="M1198 836q0 -181 -190 -342q-50 -42 -345 -230q32 -114 124 -114q36 0 90 26.5t67 26.5q31 0 53 -24t22 -55q0 -54 -92 -92q-77 -32 -140 -32q-146 0 -219 116q-15 -63 -23 -77q-21 -39 -63 -39q-61 0 -76 53q-75 -53 -152 -53q-110 0 -169 101q-48 83 -48 202
q0 223 146 470q164 277 369 277q142 0 202 -123q134 123 274 123q170 0 170 -214zM1050 837q0 63 -22 63q-132 0 -248 -172q-98 -146 -122 -296q392 225 392 405zM614 868q-20 32 -62 32q-77 0 -167 -104q-120 -138 -176 -340q-19 -68 -19 -168q0 -138 64 -138q56 0 125 81
q90 106 135 263q14 54 100 374z" />
    <glyph glyph-name="ccedilla" unicode="&#xe7;" 
d="M1212 844q0 -31 -23.5 -54t-54.5 -23q-26 0 -54 26q-116 107 -282 107q-163 0 -304 -75q-146 -78 -224 -216q-55 -97 -55 -194q0 -137 107 -206q91 -59 235 -59q172 0 364 118q23 14 44 14q31 0 53 -23.5t22 -54.5q0 -34 -34 -60q-90 -69 -234 -112q32 -56 32 -124
q0 -141 -113 -249.5t-255 -108.5q-184 0 -236 166q-4 13 -4 25q0 72 78 72q35 0 70 -56.5t92 -56.5q82 0 150 65.5t68 146.5q0 88 -97 88q-200 0 -342 109q-154 119 -154 313q0 261 243 451q226 177 494 177q266 0 393 -156q21 -26 21 -50z" />
    <glyph glyph-name="egrave" unicode="&#xe8;" 
d="M1059 1277q0 -30 -22 -54t-52 -24q-20 0 -39 11l-260 150q-38 22 -38 63q0 31 21.5 54.5t52.5 23.5q20 0 39 -11l260 -150q38 -22 38 -63zM1195 815q0 -102 -76 -186q-67 -75 -170 -114l-656 -250q122 -115 351 -115q127 0 274 47q16 5 28 5q72 0 72 -78q0 -46 -50 -68
q-129 -56 -324 -56q-218 0 -386 104q-196 122 -196 327q0 271 285 456q252 163 538 163q125 0 210 -53q100 -64 100 -182zM1045 813q0 87 -160 87q-213 0 -426 -120q-246 -139 -246 -335q0 -26 5 -48l678 258q149 57 149 158z" />
    <glyph glyph-name="eacute" unicode="&#xe9;" 
d="M1099 1422q0 -46 -45 -66l-340 -150q-16 -7 -33 -7q-73 0 -73 79q0 46 45 66l340 150q16 7 33 7q73 0 73 -79zM1195 815q0 -102 -76 -186q-67 -75 -170 -114l-656 -250q122 -115 351 -115q127 0 274 47q16 5 28 5q72 0 72 -78q0 -46 -50 -68q-129 -56 -324 -56
q-218 0 -386 104q-196 122 -196 327q0 271 285 456q252 163 538 163q125 0 210 -53q100 -64 100 -182zM1045 813q0 87 -160 87q-213 0 -426 -120q-246 -139 -246 -335q0 -26 5 -48l678 258q149 57 149 158z" />
    <glyph glyph-name="ecircumflex" unicode="&#xea;" 
d="M1134 1277q0 -31 -22 -54.5t-53 -23.5q-26 0 -48 18l-145 118l-221 -125q-19 -11 -39 -11q-30 0 -52 24t-22 54q0 41 39 63l260 147q25 14 43 14q25 0 52 -22l180 -146q28 -23 28 -56zM1195 815q0 -102 -76 -186q-67 -75 -170 -114l-656 -250q122 -115 351 -115
q127 0 274 47q16 5 28 5q72 0 72 -78q0 -46 -50 -68q-129 -56 -324 -56q-218 0 -386 104q-196 122 -196 327q0 271 285 456q252 163 538 163q125 0 210 -53q100 -64 100 -182zM1045 813q0 87 -160 87q-213 0 -426 -120q-246 -139 -246 -335q0 -26 5 -48l678 258
q149 57 149 158z" />
    <glyph glyph-name="edieresis" unicode="&#xeb;" 
d="M1182 1323q0 -50 -37 -86.5t-87 -36.5q-44 0 -73.5 29.5t-29.5 73.5q0 50 36.5 86t86.5 36q44 0 74 -29t30 -73zM732 1323q0 -50 -37 -86.5t-87 -36.5q-44 0 -73.5 29.5t-29.5 73.5q0 50 36.5 86t86.5 36q44 0 74 -29t30 -73zM1195 815q0 -102 -76 -186
q-67 -75 -170 -114l-656 -250q122 -115 351 -115q127 0 274 47q16 5 28 5q72 0 72 -78q0 -46 -50 -68q-129 -56 -324 -56q-218 0 -386 104q-196 122 -196 327q0 271 285 456q252 163 538 163q125 0 210 -53q100 -64 100 -182zM1045 813q0 87 -160 87q-213 0 -426 -120
q-246 -139 -246 -335q0 -26 5 -48l678 258q149 57 149 158z" />
    <glyph glyph-name="igrave" unicode="&#xec;" 
d="M1027 1277q0 -30 -22 -54t-52 -24q-21 0 -40 11l-259 150q-39 23 -39 63q0 30 22 54t52 24q21 0 40 -11l259 -150q39 -23 39 -63zM854 75q0 -75 -75 -75q-132 0 -218.5 83.5t-86.5 214.5q0 48 13 96l136 506h-202q-75 0 -75 75t75 75h301q74 0 74 -73q0 -11 -5 -30
l-159 -591q-8 -30 -8 -59q0 -68 43 -107.5t112 -39.5q75 0 75 -75z" />
    <glyph glyph-name="iacute" unicode="&#xed;" 
d="M1067 1422q0 -46 -46 -66l-340 -150q-16 -7 -33 -7q-31 0 -52 24t-21 55q0 46 46 66l340 150q16 7 33 7q31 0 52 -24t21 -55zM854 75q0 -75 -75 -75q-132 0 -218.5 83.5t-86.5 214.5q0 48 13 96l136 506h-202q-75 0 -75 75t75 75h301q74 0 74 -73q0 -11 -5 -30l-159 -591
q-8 -30 -8 -59q0 -68 43 -107.5t112 -39.5q75 0 75 -75z" />
    <glyph glyph-name="icircumflex" unicode="&#xee;" 
d="M1102 1277q0 -31 -22.5 -54.5t-53.5 -23.5q-25 0 -47 18l-145 118l-221 -125q-19 -11 -39 -11q-30 0 -52 24t-22 54q0 41 39 63l259 147q25 14 43 14q26 0 53 -22l179 -146q29 -24 29 -56zM854 75q0 -75 -75 -75q-132 0 -218.5 83.5t-86.5 214.5q0 48 13 96l136 506h-202
q-75 0 -75 75t75 75h301q74 0 74 -73q0 -11 -5 -30l-159 -591q-8 -30 -8 -59q0 -68 43 -107.5t112 -39.5q75 0 75 -75z" />
    <glyph glyph-name="idieresis" unicode="&#xef;" 
d="M1150 1323q0 -50 -37.5 -86.5t-87.5 -36.5q-44 0 -73.5 29.5t-29.5 73.5q0 50 37 86t87 36q44 0 74 -29t30 -73zM700 1323q0 -50 -37.5 -86.5t-87.5 -36.5q-44 0 -73.5 29.5t-29.5 73.5q0 50 37 86t87 36q44 0 74 -29t30 -73zM854 75q0 -75 -75 -75q-132 0 -218.5 83.5
t-86.5 214.5q0 48 13 96l136 506h-202q-75 0 -75 75t75 75h301q74 0 74 -73q0 -11 -5 -30l-159 -591q-8 -30 -8 -59q0 -68 43 -107.5t112 -39.5q75 0 75 -75z" />
    <glyph glyph-name="eth" unicode="&#xf0;" 
d="M1251 1275q0 -75 -75 -75h-340l233 -318q72 -98 72 -241q0 -251 -205 -446t-457 -195q-183 0 -301.5 113.5t-118.5 295.5q0 251 205 446t457 195q20 0 40 -2l-111 152h-224q-75 0 -75 75t75 75h114q-38 49 -38 76q0 31 23.5 53t54.5 22q36 0 59 -32l87 -119h450
q75 0 75 -75zM988 652q0 118 -75 185q-72 63 -192 63q-199 0 -354 -151.5t-155 -350.5q0 -120 74 -186q71 -62 193 -62q199 0 354 151.5t155 350.5z" />
    <glyph glyph-name="ntilde" unicode="&#xf1;" 
d="M1222 1352q0 -29 -29 -63q-75 -89 -217 -89q-82 0 -163 75t-97 75q-59 0 -104 -38t-64 -38q-30 0 -54 22t-24 52q0 29 29 63q75 89 217 89q82 0 163 -75t97 -75q43 0 62 12l44 27q22 37 62 37q30 0 54 -22t24 -52zM1108 697q0 -60 -15 -116l-141 -525q-15 -56 -70 -56
q-78 0 -78 72q0 11 3 22l141 525q11 41 11 79q0 93 -59.5 147.5t-153.5 54.5q-133 0 -250.5 -94.5t-152.5 -224.5l-141 -525q-15 -56 -70 -56q-78 0 -78 72q0 11 3 22l241 900q15 56 70 56q78 0 78 -72q0 -12 -4 -27q146 99 304 99t260 -98t102 -255z" />
    <glyph glyph-name="ograve" unicode="&#xf2;" 
d="M1027 1277q0 -30 -22 -54t-52 -24q-21 0 -40 11l-259 150q-39 23 -39 63q0 30 22 54t52 24q21 0 40 -11l259 -150q39 -23 39 -63zM1141 641q0 -251 -205 -446t-457 -195q-183 0 -301.5 113.5t-118.5 295.5q0 251 206 448q203 193 456 193q183 0 301.5 -113.5
t118.5 -295.5zM988 652q0 120 -74 186q-71 62 -193 62q-199 0 -354 -151.5t-155 -350.5q0 -120 74 -186q71 -62 193 -62q199 0 354 151.5t155 350.5z" />
    <glyph glyph-name="oacute" unicode="&#xf3;" 
d="M1067 1422q0 -46 -46 -66l-340 -150q-16 -7 -33 -7q-31 0 -52 24t-21 55q0 46 46 66l340 150q16 7 33 7q31 0 52 -24t21 -55zM1141 641q0 -251 -205 -446t-457 -195q-183 0 -301.5 113.5t-118.5 295.5q0 251 206 448q203 193 456 193q183 0 301.5 -113.5t118.5 -295.5z
M988 652q0 120 -74 186q-71 62 -193 62q-199 0 -354 -151.5t-155 -350.5q0 -120 74 -186q71 -62 193 -62q199 0 354 151.5t155 350.5z" />
    <glyph glyph-name="ocircumflex" unicode="&#xf4;" 
d="M1102 1277q0 -31 -22.5 -54.5t-53.5 -23.5q-25 0 -47 18l-145 118l-221 -125q-19 -11 -39 -11q-30 0 -52 24t-22 54q0 41 39 63l259 147q25 14 43 14q26 0 53 -22l179 -146q29 -24 29 -56zM1141 641q0 -251 -205 -446t-457 -195q-183 0 -301.5 113.5t-118.5 295.5
q0 251 206 448q203 193 456 193q183 0 301.5 -113.5t118.5 -295.5zM988 652q0 120 -74 186q-71 62 -193 62q-199 0 -354 -151.5t-155 -350.5q0 -120 74 -186q71 -62 193 -62q199 0 354 151.5t155 350.5z" />
    <glyph glyph-name="otilde" unicode="&#xf5;" 
d="M1197 1352q0 -29 -29 -63q-75 -89 -217 -89q-82 0 -163 75t-97 75q-59 0 -104 -38t-64 -38q-30 0 -54 22t-24 52q0 29 29 63q75 89 217 89q82 0 163 -75t97 -75q43 0 62 12l44 27q22 37 62 37q30 0 54 -22t24 -52zM1141 641q0 -251 -205 -446t-457 -195
q-183 0 -301.5 113.5t-118.5 295.5q0 251 206 448q203 193 456 193q183 0 301.5 -113.5t118.5 -295.5zM988 652q0 120 -74 186q-71 62 -193 62q-199 0 -354 -151.5t-155 -350.5q0 -120 74 -186q71 -62 193 -62q199 0 354 151.5t155 350.5z" />
    <glyph glyph-name="odieresis" unicode="&#xf6;" 
d="M1150 1323q0 -50 -37 -86.5t-87 -36.5q-44 0 -73.5 29.5t-29.5 73.5q0 50 36.5 86t86.5 36q44 0 74 -29t30 -73zM700 1323q0 -50 -37 -86.5t-87 -36.5q-44 0 -73.5 29.5t-29.5 73.5q0 50 36.5 86t86.5 36q44 0 74 -29t30 -73zM1141 641q0 -251 -205 -446t-457 -195
q-183 0 -301.5 113.5t-118.5 295.5q0 251 206 448q203 193 456 193q183 0 301.5 -113.5t118.5 -295.5zM988 652q0 120 -74 186q-71 62 -193 62q-199 0 -354 -151.5t-155 -350.5q0 -120 74 -186q71 -62 193 -62q199 0 354 151.5t155 350.5z" />
    <glyph glyph-name="divide" unicode="&#xf7;" 
d="M856 1060q0 -49 -38 -85.5t-87 -36.5q-45 0 -75 29.5t-30 74.5q0 50 37 85.5t88 35.5q45 0 75 -29t30 -74zM1005 638q0 -75 -75 -75h-600q-75 0 -75 75t75 75h600q75 0 75 -75zM635 235q0 -49 -38 -85.5t-87 -36.5q-45 0 -75 29.5t-30 74.5q0 50 37 85.5t88 35.5
q45 0 75 -29t30 -74z" />
    <glyph glyph-name="oslash" unicode="&#xf8;" 
d="M1247 973q0 -33 -30 -57l-116 -91q40 -85 40 -184q0 -251 -205 -446t-457 -195q-175 0 -291 105q-134 -106 -159 -106q-31 0 -53.5 23.5t-22.5 54.5q0 33 30 57l116 91q-40 84 -40 184q0 251 206 448q203 193 456 193q175 0 291 -105q134 106 159 106q31 0 53.5 -23.5
t22.5 -54.5zM895 853q-68 47 -174 47q-199 0 -354 -151.5t-155 -350.5q0 -40 9 -76zM988 652q0 40 -9 76l-674 -531q68 -47 174 -47q199 0 354 151.5t155 350.5z" />
    <glyph glyph-name="ugrave" unicode="&#xf9;" 
d="M1027 1277q0 -30 -22 -54t-52 -24q-21 0 -40 11l-259 150q-39 23 -39 63q0 30 22 54t52 24q21 0 40 -11l259 -150q39 -23 39 -63zM1196 978q0 -13 -137 -522q-51 -190 -218 -323t-362 -133q-166 0 -273.5 103.5t-107.5 268.5q0 62 16 122l134 500q15 56 71 56
q77 0 77 -72q0 -11 -3 -22l-134 -500q-12 -45 -12 -85q0 -101 65 -161t167 -60q144 0 272 103q125 101 163 241l134 500q15 56 71 56q77 0 77 -72z" />
    <glyph glyph-name="uacute" unicode="&#xfa;" 
d="M1067 1422q0 -46 -46 -66l-340 -150q-16 -7 -33 -7q-31 0 -52 24t-21 55q0 46 46 66l340 150q16 7 33 7q31 0 52 -24t21 -55zM1196 978q0 -13 -137 -522q-51 -190 -218 -323t-362 -133q-166 0 -273.5 103.5t-107.5 268.5q0 62 16 122l134 500q15 56 71 56q77 0 77 -72
q0 -11 -3 -22l-134 -500q-12 -45 -12 -85q0 -101 65 -161t167 -60q144 0 272 103q125 101 163 241l134 500q15 56 71 56q77 0 77 -72z" />
    <glyph glyph-name="ucircumflex" unicode="&#xfb;" 
d="M1102 1277q0 -31 -22.5 -54.5t-53.5 -23.5q-25 0 -47 18l-145 118l-221 -125q-19 -11 -39 -11q-30 0 -52 24t-22 54q0 41 39 63l259 147q25 14 43 14q26 0 53 -22l179 -146q29 -24 29 -56zM1196 978q0 -13 -137 -522q-51 -190 -218 -323t-362 -133q-166 0 -273.5 103.5
t-107.5 268.5q0 62 16 122l134 500q15 56 71 56q77 0 77 -72q0 -11 -3 -22l-134 -500q-12 -45 -12 -85q0 -101 65 -161t167 -60q144 0 272 103q125 101 163 241l134 500q15 56 71 56q77 0 77 -72z" />
    <glyph glyph-name="udieresis" unicode="&#xfc;" 
d="M1150 1323q0 -50 -37 -86.5t-87 -36.5q-44 0 -73.5 29.5t-29.5 73.5q0 50 36.5 86t86.5 36q44 0 74 -29t30 -73zM700 1323q0 -50 -37 -86.5t-87 -36.5q-44 0 -73.5 29.5t-29.5 73.5q0 50 36.5 86t86.5 36q44 0 74 -29t30 -73zM1196 978q0 -13 -137 -522
q-51 -190 -218 -323t-362 -133q-166 0 -273.5 103.5t-107.5 268.5q0 62 16 122l134 500q15 56 71 56q77 0 77 -72q0 -11 -3 -22l-134 -500q-12 -45 -12 -85q0 -101 65 -161t167 -60q144 0 272 103q125 101 163 241l134 500q15 56 71 56q77 0 77 -72z" />
    <glyph glyph-name="yacute" unicode="&#xfd;" 
d="M1042 1422q0 -46 -46 -66l-340 -150q-16 -7 -33 -7q-31 0 -52 24t-21 55q0 46 46 66l340 150q16 7 33 7q31 0 52 -24t21 -55zM1146 978q0 -11 -3 -22l-261 -975q-48 -180 -205.5 -305.5t-342.5 -125.5q-121 0 -214 62q-97 64 -132 177q-4 13 -4 25q0 73 78 73
q48 0 69 -53q53 -134 203 -134q134 0 251 95q113 92 152 224q3 12 21 80q-146 -99 -304 -99q-157 0 -259.5 98.5t-102.5 254.5q0 60 15 116l141 525q15 56 70 56q78 0 78 -72q0 -11 -3 -22l-141 -525q-11 -41 -11 -79q0 -93 61 -148q58 -54 152 -54q134 0 251 94t152 225
l141 525q15 56 70 56q78 0 78 -72z" />
    <glyph glyph-name="thorn" unicode="&#xfe;" 
d="M1142 653q0 -243 -184 -445q-189 -208 -429 -208q-198 0 -301 152l-147 -546q-15 -56 -70 -56q-78 0 -78 72q0 11 3 22l483 1800q15 56 70 56q78 0 78 -72q0 -11 -132 -502q161 124 336 124q170 0 273 -115q98 -110 98 -282zM993 657q0 105 -58 172q-61 71 -164 71
q-179 0 -324 -166q-140 -160 -140 -341q0 -105 58 -172q61 -71 164 -71q179 0 324 166q140 160 140 341z" />
    <glyph glyph-name="ydieresis" unicode="&#xff;" 
d="M1122 1310q0 -50 -37.5 -86.5t-87.5 -36.5q-44 0 -73.5 29.5t-29.5 73.5q0 50 37 86t87 36q44 0 74 -29t30 -73zM672 1310q0 -50 -37.5 -86.5t-87.5 -36.5q-44 0 -73.5 29.5t-29.5 73.5q0 50 37 86t87 36q44 0 74 -29t30 -73zM1146 978q0 -11 -3 -22l-261 -975
q-48 -180 -205.5 -305.5t-342.5 -125.5q-121 0 -214 62q-97 64 -132 177q-4 13 -4 25q0 73 78 73q48 0 69 -53q53 -134 203 -134q134 0 251 95q113 92 152 224q3 12 21 80q-146 -99 -304 -99q-157 0 -259.5 98.5t-102.5 254.5q0 60 15 116l141 525q15 56 70 56q78 0 78 -72
q0 -11 -3 -22l-141 -525q-11 -41 -11 -79q0 -93 61 -148q58 -54 152 -54q134 0 251 94t152 225l141 525q15 56 70 56q78 0 78 -72z" />
    <glyph glyph-name="Amacron" unicode="&#x100;" 
d="M1467 1800q0 -75 -75 -75h-900q-75 0 -75 75t75 75h900q75 0 75 -75zM1004 74q5 -74 -75 -74q-69 0 -74 70l-25 380h-488l-248 -414q-22 -37 -62 -37q-31 0 -55 21.5t-24 52.5q0 21 12 41l806 1339q29 48 68 48q73 0 78 -83zM820 600l-38 581l-349 -581h387z" />
    <glyph glyph-name="amacron" unicode="&#x101;" 
d="M1246 1350q0 -75 -75 -75h-800q-75 0 -75 75t75 75h800q75 0 75 -75zM1120 875q0 -7 -218 -819q-15 -56 -70 -56q-78 0 -78 72q0 12 8 40q-159 -112 -333 -112q-165 0 -273.5 103.5t-108.5 268.5q0 61 17 122q65 233 264 393q204 163 443 163q220 0 325 -120
q24 -27 24 -55zM960 851q-69 49 -189 49q-185 0 -350 -132t-212 -312q-12 -46 -12 -85q0 -101 65 -161t167 -60q145 0 271.5 103.5t163.5 240.5z" />
    <glyph glyph-name="Abreve" unicode="&#x102;" 
d="M1264 1875q0 -30 -49 -79q-146 -145 -274 -145q-146 0 -266 181q-15 23 -15 44q0 31 24 53t55 22q29 0 96 -76.5t107 -76.5q67 0 188 126q26 27 55 27q31 0 55 -22.5t24 -53.5zM1004 74q5 -74 -75 -74q-69 0 -74 70l-25 380h-488l-248 -414q-22 -37 -62 -37
q-31 0 -55 21.5t-24 52.5q0 21 12 41l806 1339q29 48 68 48q73 0 78 -83zM820 600l-38 581l-349 -581h387z" />
    <glyph glyph-name="abreve" unicode="&#x103;" 
d="M1119 1425q0 -30 -50 -79q-146 -145 -273 -145q-147 0 -267 182q-14 21 -14 43q0 30 24 52.5t54 22.5q29 0 96 -76.5t107 -76.5q68 0 189 126q26 27 55 27q30 0 54.5 -23t24.5 -53zM1120 875q0 -7 -218 -819q-15 -56 -70 -56q-78 0 -78 72q0 12 8 40q-159 -112 -333 -112
q-165 0 -273.5 103.5t-108.5 268.5q0 61 17 122q65 233 264 393q204 163 443 163q220 0 325 -120q24 -27 24 -55zM960 851q-69 49 -189 49q-185 0 -350 -132t-212 -312q-12 -46 -12 -85q0 -101 65 -161t167 -60q145 0 271.5 103.5t163.5 240.5z" />
    <glyph glyph-name="Aogonek" unicode="&#x104;" 
d="M1004 75q2 -31 -21 -53t-54 -22q-81 0 -149 -65.5t-68 -146.5q0 -64 86 -86.5t86 -76.5q0 -75 -75 -75q-111 0 -178 65t-67 175q0 125 83 223q80 96 203 127l-20 310h-488l-248 -414q-22 -37 -62 -37q-31 0 -55 21.5t-24 52.5q0 21 12 41l806 1339q29 48 69 48
q72 0 77 -83zM820 600l-38 581l-349 -581h387z" />
    <glyph glyph-name="aogonek" unicode="&#x105;" 
d="M1120 875q0 -7 -6 -29l-212 -790q-15 -56 -73 -56q-81 0 -149 -65.5t-68 -146.5q0 -88 125 -88q13 0 38 3.5t38 3.5q73 0 73 -78q0 -55 -63 -72q-27 -7 -107 -7q-114 0 -183 62.5t-69 175.5q0 124 84 226q-60 -14 -119 -14q-165 0 -273.5 103.5t-108.5 268.5q0 62 17 122
q66 233 265 393q203 163 442 163q217 0 325 -120q24 -27 24 -55zM960 851q-69 49 -189 49q-185 0 -350 -132t-212 -312q-12 -46 -12 -85q0 -101 65 -161t167 -60q146 0 272 104t163 240z" />
    <glyph glyph-name="Cacute" unicode="&#x106;" 
d="M1265 1872q0 -46 -46 -66l-340 -150q-16 -7 -33 -7q-31 0 -52 24t-21 55q0 46 46 66l340 150q16 7 33 7q31 0 52 -24t21 -55zM1314 1225q0 -30 -24 -51.5t-54 -21.5q-37 0 -64 41q-4 5 -14 26q-4 5 -15 20q-82 111 -225 111q-273 0 -476 -291q-184 -264 -184 -550
q0 -158 69 -252q78 -107 230 -107q165 0 374 177q26 22 51 22q30 0 53.5 -23.5t23.5 -53.5q0 -28 -25 -54q-88 -93 -218 -154q-136 -64 -259 -64q-218 0 -341 163q-110 146 -110 371q0 334 238 640q253 326 574 326q268 0 387 -238q9 -18 9 -37z" />
    <glyph glyph-name="cacute" unicode="&#x107;" 
d="M1144 1422q0 -46 -45 -66l-340 -150q-16 -7 -33 -7q-73 0 -73 79q0 46 45 66l340 150q16 7 33 7q73 0 73 -79zM1212 844q0 -31 -23.5 -54t-54.5 -23q-26 0 -54 26q-115 107 -282 107q-163 0 -304 -75q-146 -78 -224 -216q-55 -97 -55 -194q0 -137 107 -206
q91 -59 235 -59q174 0 364 118q23 14 44 14q31 0 53 -23.5t22 -54.5q0 -33 -34 -60q-80 -64 -213 -105q-126 -39 -236 -39q-200 0 -342 109q-154 119 -154 313q0 261 243 451q226 177 494 177q263 0 393 -156q21 -25 21 -50z" />
    <glyph glyph-name="Ccircumflex" unicode="&#x108;" 
d="M1300 1727q0 -31 -22.5 -54.5t-53.5 -23.5q-25 0 -47 18l-146 118l-220 -125q-19 -11 -39 -11q-30 0 -52 24t-22 54q0 41 39 63l259 147q25 14 43 14q26 0 53 -22l179 -146q29 -24 29 -56zM1314 1225q0 -30 -24 -51.5t-54 -21.5q-37 0 -64 41q-4 5 -14 26q-4 5 -15 20
q-82 111 -225 111q-273 0 -476 -291q-184 -264 -184 -550q0 -158 69 -252q78 -107 230 -107q165 0 374 177q26 22 51 22q30 0 53.5 -23.5t23.5 -53.5q0 -28 -25 -54q-88 -93 -218 -154q-136 -64 -259 -64q-218 0 -341 163q-110 146 -110 371q0 334 238 640q253 326 574 326
q268 0 387 -238q9 -18 9 -37z" />
    <glyph glyph-name="ccircumflex" unicode="&#x109;" 
d="M1179 1277q0 -31 -22 -54.5t-53 -23.5q-26 0 -48 18l-145 118l-221 -125q-19 -11 -39 -11q-30 0 -52 24t-22 54q0 41 39 63l260 147q25 14 43 14q25 0 52 -22l180 -146q28 -23 28 -56zM1212 844q0 -31 -23.5 -54t-54.5 -23q-26 0 -54 26q-115 107 -282 107
q-163 0 -304 -75q-146 -78 -224 -216q-55 -97 -55 -194q0 -137 107 -206q91 -59 235 -59q174 0 364 118q23 14 44 14q31 0 53 -23.5t22 -54.5q0 -33 -34 -60q-80 -64 -213 -105q-126 -39 -236 -39q-200 0 -342 109q-154 119 -154 313q0 261 243 451q226 177 494 177
q263 0 393 -156q21 -25 21 -50z" />
    <glyph glyph-name="Cdot" unicode="&#x10a;" 
d="M1123 1773q0 -50 -37 -86.5t-87 -36.5q-44 0 -73.5 29.5t-29.5 73.5q0 50 36.5 86t86.5 36q44 0 74 -29t30 -73zM1314 1225q0 -30 -24 -51.5t-54 -21.5q-37 0 -64 41q-4 5 -14 26q-4 5 -15 20q-82 111 -225 111q-273 0 -476 -291q-184 -264 -184 -550q0 -158 69 -252
q78 -107 230 -107q165 0 374 177q26 22 51 22q30 0 53.5 -23.5t23.5 -53.5q0 -28 -25 -54q-88 -93 -218 -154q-136 -64 -259 -64q-218 0 -341 163q-110 146 -110 371q0 334 238 640q253 326 574 326q268 0 387 -238q9 -18 9 -37z" />
    <glyph glyph-name="cdot" unicode="&#x10b;" 
d="M1023 1395q0 -50 -37.5 -85t-87.5 -35q-44 0 -74.5 29t-30.5 73q0 49 38 86t87 37q45 0 75 -30t30 -75zM1212 844q0 -31 -23.5 -54t-54.5 -23q-26 0 -54 26q-115 107 -282 107q-163 0 -304 -75q-146 -78 -224 -216q-55 -97 -55 -194q0 -137 107 -206q91 -59 235 -59
q174 0 364 118q23 14 44 14q31 0 53 -23.5t22 -54.5q0 -33 -34 -60q-80 -64 -213 -105q-126 -39 -236 -39q-200 0 -342 109q-154 119 -154 313q0 261 243 451q226 177 494 177q263 0 393 -156q21 -25 21 -50z" />
    <glyph glyph-name="Ccaron" unicode="&#x10c;" 
d="M1340 1873q0 -41 -39 -63l-259 -147q-25 -14 -44 -14q-25 0 -52 22l-179 146q-29 24 -29 56q0 31 22.5 54.5t53.5 23.5q25 0 47 -18l145 -118l221 125q19 11 39 11q30 0 52 -24t22 -54zM1314 1225q0 -30 -24 -51.5t-54 -21.5q-37 0 -64 41q-4 5 -14 26q-4 5 -15 20
q-82 111 -225 111q-273 0 -476 -291q-184 -264 -184 -550q0 -158 69 -252q78 -107 230 -107q165 0 374 177q26 22 51 22q30 0 53.5 -23.5t23.5 -53.5q0 -28 -25 -54q-88 -93 -218 -154q-136 -64 -259 -64q-218 0 -341 163q-110 146 -110 371q0 334 238 640q253 326 574 326
q268 0 387 -238q9 -18 9 -37z" />
    <glyph glyph-name="ccaron" unicode="&#x10d;" 
d="M1219 1423q0 -38 -55 -75l-88 -50q-157 -95 -190 -95q-46 0 -240 164q-29 25 -29 56t22.5 54.5t53.5 23.5q26 0 48 -18l145 -118q240 136 259 136q31 0 52.5 -23.5t21.5 -54.5zM1212 844q0 -31 -23.5 -54t-54.5 -23q-26 0 -54 26q-115 107 -282 107q-163 0 -304 -75
q-146 -78 -224 -216q-55 -97 -55 -194q0 -137 107 -206q91 -59 235 -59q174 0 364 118q23 14 44 14q31 0 53 -23.5t22 -54.5q0 -33 -34 -60q-80 -64 -213 -105q-126 -39 -236 -39q-200 0 -342 109q-154 119 -154 313q0 261 243 451q226 177 494 177q263 0 393 -156
q21 -25 21 -50z" />
    <glyph glyph-name="Dcaron" unicode="&#x10e;" 
d="M1138 1873q0 -41 -39 -63l-260 -147q-25 -14 -43 -14q-25 0 -52 22l-180 146q-29 24 -29 56q0 31 22.5 54.5t53.5 23.5q26 0 48 -18l145 -118l221 125q19 11 39 11q30 0 52 -24t22 -54zM1209 925q0 -361 -298 -645q-294 -280 -657 -280h-125q-75 0 -75 70q0 13 3 24
l362 1350q13 48 85 56h112q259 0 424 -157q169 -160 169 -418zM1059 926q0 194 -126 310q-122 114 -317 114h-67l-322 -1200h27q302 0 551 236q254 240 254 540z" />
    <glyph glyph-name="dcaron" unicode="&#x10f;" 
d="M1213 1873q0 -41 -39 -63l-260 -147q-25 -14 -43 -14q-25 0 -52 22l-180 146q-29 24 -29 56q0 31 22.5 54.5t53.5 23.5q26 0 48 -18l145 -118l221 125q19 11 39 11q30 0 52 -24t22 -54zM1267 1428q0 -11 -3 -22l-362 -1350q-15 -56 -70 -56q-78 0 -78 72q0 12 8 40
q-159 -112 -333 -112q-165 0 -273.5 103.5t-108.5 268.5q0 62 17 122q66 234 265 393q203 163 442 163q122 0 229 -50l119 444q15 56 70 56q78 0 78 -72zM960 851q-69 49 -189 49q-185 0 -350 -132t-212 -312q-12 -46 -12 -85q0 -101 65 -161t167 -60q143 0 270.5 102.5
t164.5 241.5z" />
    <glyph glyph-name="Dslash" unicode="&#x110;" 
d="M1209 925q0 -361 -298 -645q-294 -280 -657 -280q-75 0 -75 70q0 13 3 24l156 581h-128q-75 0 -75 75t75 75h168l166 619q5 20 28 38t44 18q259 0 424 -157q169 -160 169 -418zM1059 926q0 175 -106 289.5t-280 131.5l-140 -522h127q75 0 75 -75t-75 -75h-167l-139 -517
q275 42 486 265q219 230 219 503z" />
    <glyph glyph-name="dcroat" unicode="&#x111;" 
d="M1306 1200q0 -75 -118 -75l-286 -1069q-15 -56 -70 -56q-78 0 -78 72q0 12 8 40q-159 -112 -333 -112q-165 0 -273.5 103.5t-108.5 268.5q0 62 17 122q66 233 265 393q203 163 442 163q122 0 229 -50l33 125h-302q-75 0 -75 75t75 75h342l46 169q15 56 70 56q78 0 78 -72
q0 -11 -38 -153q77 0 77 -75zM960 851q-69 49 -189 49q-185 0 -350 -132t-212 -312q-12 -46 -12 -85q0 -101 65 -161t167 -60q143 0 270.5 102.5t164.5 241.5z" />
    <glyph glyph-name="Emacron" unicode="&#x112;" 
d="M1467 1800q0 -75 -75 -75h-800q-75 0 -75 75t75 75h800q75 0 75 -75zM1366 1425q0 -75 -75 -75h-742l-141 -525h702q75 0 75 -75t-75 -75h-742l-141 -525h702q75 0 75 -75t-75 -75h-800q-75 0 -75 70q0 11 365 1374q5 20 28 38t44 18h800q75 0 75 -75z" />
    <glyph glyph-name="emacron" unicode="&#x113;" 
d="M1346 1350q0 -75 -75 -75h-900q-75 0 -75 75t75 75h900q75 0 75 -75zM1195 815q0 -102 -76 -186q-67 -75 -170 -114l-656 -250q122 -115 351 -115q127 0 274 47q16 5 28 5q72 0 72 -78q0 -46 -50 -68q-129 -56 -324 -56q-218 0 -386 104q-196 122 -196 327q0 271 285 456
q252 163 538 163q125 0 210 -53q100 -64 100 -182zM1045 813q0 87 -160 87q-213 0 -426 -120q-246 -139 -246 -335q0 -26 5 -48l678 258q149 57 149 158z" />
    <glyph glyph-name="Ebreve" unicode="&#x114;" 
d="M1314 1875q0 -30 -49 -79q-146 -145 -274 -145q-146 0 -266 181q-15 23 -15 44q0 31 24 53t55 22q29 0 96 -76.5t107 -76.5q67 0 188 126q26 27 55 27q31 0 55 -22.5t24 -53.5zM1366 1425q0 -75 -75 -75h-742l-141 -525h702q75 0 75 -75t-75 -75h-742l-141 -525h702
q75 0 75 -75t-75 -75h-800q-75 0 -75 70q0 11 365 1374q5 20 28 38t44 18h800q75 0 75 -75z" />
    <glyph glyph-name="ebreve" unicode="&#x115;" 
d="M1176 1425q0 -29 -50 -79q-146 -145 -273 -145q-146 0 -266 181q-15 23 -15 44q0 30 24 52.5t54 22.5q29 0 96.5 -76.5t107.5 -76.5q68 0 188 126q26 27 55 27q30 0 54.5 -23t24.5 -53zM1195 815q0 -102 -76 -186q-67 -75 -170 -114l-656 -250q122 -115 351 -115
q127 0 274 47q16 5 28 5q72 0 72 -78q0 -46 -50 -68q-129 -56 -324 -56q-218 0 -386 104q-196 122 -196 327q0 271 285 456q252 163 538 163q125 0 210 -53q100 -64 100 -182zM1045 813q0 87 -160 87q-213 0 -426 -120q-246 -139 -246 -335q0 -26 5 -48l678 258
q149 57 149 158z" />
    <glyph glyph-name="Edot" unicode="&#x116;" 
d="M1096 1773q0 -50 -37 -86.5t-87 -36.5q-45 0 -74.5 29t-29.5 74q0 50 37 86t87 36q44 0 74 -29t30 -73zM1366 1425q0 -75 -75 -75h-742l-141 -525h702q75 0 75 -75t-75 -75h-742l-141 -525h702q75 0 75 -75t-75 -75h-800q-75 0 -75 70q0 11 365 1374q5 20 28 38t44 18
h800q75 0 75 -75z" />
    <glyph glyph-name="edot" unicode="&#x117;" 
d="M978 1395q0 -50 -37.5 -85t-87.5 -35q-44 0 -74.5 29t-30.5 73q0 49 38 86t87 37q45 0 75 -30t30 -75zM1195 815q0 -102 -76 -186q-67 -75 -170 -114l-656 -250q122 -115 351 -115q127 0 274 47q16 5 28 5q72 0 72 -78q0 -46 -50 -68q-129 -56 -324 -56q-218 0 -386 104
q-196 122 -196 327q0 271 285 456q252 163 538 163q125 0 210 -53q100 -64 100 -182zM1045 813q0 87 -160 87q-213 0 -426 -120q-246 -139 -246 -335q0 -26 5 -48l678 258q149 57 149 158z" />
    <glyph glyph-name="Eogonek" unicode="&#x118;" 
d="M1366 1425q0 -75 -75 -75h-742l-141 -525h702q75 0 75 -75t-75 -75h-742l-141 -525h702q79 0 79 -75q0 -61 -73 -74q-105 -19 -154 -67q-69 -66 -69 -146q0 -64 86 -87t86 -76q0 -75 -75 -75q-111 0 -177.5 64t-66.5 175q0 119 73 211h-509q-75 0 -75 70q0 11 365 1374
q5 20 28 38t44 18h800q75 0 75 -75z" />
    <glyph glyph-name="eogonek" unicode="&#x119;" 
d="M1195 815q0 -102 -76 -186q-67 -75 -170 -114l-656 -250q122 -115 351 -115q127 0 274 47q16 5 28 5q72 0 72 -78q0 -47 -50 -68q-133 -56 -326 -56q-82 0 -150 -65.5t-68 -146.5q0 -88 97 -88q65 0 137.5 57t86.5 57q31 0 54.5 -22.5t23.5 -53.5q0 -23 -19 -48
q-107 -140 -283 -140q-107 0 -177 68t-70 174q0 140 115 250q-327 113 -327 389q0 271 285 456q252 163 538 163q125 0 210 -53q100 -64 100 -182zM1045 813q0 87 -160 87q-213 0 -426 -120q-246 -139 -246 -335q0 -26 5 -48l678 258q149 57 149 158z" />
    <glyph glyph-name="Ecaron" unicode="&#x11a;" 
d="M1313 1873q0 -41 -39 -63l-260 -147q-25 -14 -43 -14q-25 0 -52 22l-180 146q-29 24 -29 56q0 31 22.5 54.5t53.5 23.5q26 0 48 -18l145 -118l221 125q19 11 39 11q30 0 52 -24t22 -54zM1366 1425q0 -75 -75 -75h-742l-141 -525h702q75 0 75 -75t-75 -75h-742l-141 -525
h702q75 0 75 -75t-75 -75h-800q-75 0 -75 70q0 11 365 1374q5 20 28 38t44 18h800q75 0 75 -75z" />
    <glyph glyph-name="ecaron" unicode="&#x11b;" 
d="M1174 1423q0 -38 -39 -63q-245 -157 -294 -157q-60 0 -240 164q-29 26 -29 56q0 31 22.5 54.5t53.5 23.5q26 0 48 -18l145 -118q239 136 259 136q31 0 52.5 -23.5t21.5 -54.5zM1195 815q0 -102 -76 -186q-67 -75 -170 -114l-656 -250q122 -115 351 -115q119 0 274 47
q16 5 28 5q72 0 72 -78q0 -43 -50 -68q-112 -56 -324 -56q-218 0 -386 104q-196 122 -196 327q0 272 284 456q252 163 539 163q125 0 210 -53q100 -64 100 -182zM1045 813q0 87 -160 87q-215 0 -426 -119q-246 -139 -246 -336q0 -26 5 -48l678 258q149 57 149 158z" />
    <glyph glyph-name="Gcircumflex" unicode="&#x11c;" 
d="M1271 1727q0 -31 -22.5 -54.5t-53.5 -23.5q-26 0 -48 18l-145 118l-221 -125q-19 -11 -38 -11q-31 0 -52.5 23.5t-21.5 54.5q0 41 39 63l259 147q25 14 43 14q25 0 52 -22l180 -146q29 -24 29 -56zM1264 1225q0 -31 -23.5 -52t-54.5 -21q-39 0 -66 44q2 6 -28 49
q-72 105 -203 105q-264 0 -459 -304q-174 -271 -174 -551q0 -148 59 -239q71 -106 212 -106q168 0 338 162l123 457q15 56 70 56q78 0 78 -72q0 -11 -3 -22l-128 -478q-25 -93 -204 -177q-162 -76 -274 -76q-211 0 -321 148q-97 132 -97 350q0 348 212 658q235 344 568 344
q254 0 367 -240q8 -17 8 -35z" />
    <glyph glyph-name="gcircumflex" unicode="&#x11d;" 
d="M1102 1277q0 -31 -22.5 -54.5t-53.5 -23.5q-25 0 -47 18l-145 118l-221 -125q-19 -11 -39 -11q-30 0 -52 24t-22 54q0 41 39 63l259 147q25 14 43 14q26 0 53 -22l179 -146q29 -24 29 -56zM1246 975q0 -75 -75 -75h-134q48 -70 48 -157q0 -114 -75 -217
q-67 -93 -175 -153q161 -105 161 -289q0 -224 -211 -385q-195 -149 -426 -149q-175 0 -299 93q-137 103 -137 273q0 159 84 159q78 0 78 -72q0 -14 -5.5 -41.5t-5.5 -41.5q0 -109 92 -169q78 -51 193 -51q133 0 250 60q122 62 187 173q46 79 46 155q0 111 -90 166
q-74 46 -192 46q-147 0 -250 78q-114 87 -114 229q0 185 173 319q161 124 352 124h450q75 0 75 -75zM932 745q0 155 -211 155q-133 0 -247 -81q-126 -89 -126 -214q0 -155 212 -155q133 0 247 81q125 89 125 214z" />
    <glyph glyph-name="Gbreve" unicode="&#x11e;" 
d="M1312 1875q0 -30 -49 -79q-146 -145 -274 -145q-147 0 -266 181q-14 21 -14 44q0 31 23.5 53t54.5 22q29 0 96 -76.5t107 -76.5q67 0 188 126q26 27 55 27q31 0 55 -22.5t24 -53.5zM1264 1225q0 -31 -23.5 -52t-54.5 -21q-39 0 -66 44q2 6 -28 49q-72 105 -203 105
q-264 0 -459 -304q-174 -271 -174 -551q0 -148 59 -239q71 -106 212 -106q168 0 338 162l123 457q15 56 70 56q78 0 78 -72q0 -11 -3 -22l-128 -478q-25 -93 -204 -177q-162 -76 -274 -76q-211 0 -321 148q-97 132 -97 350q0 348 212 658q235 344 568 344q254 0 367 -240
q8 -17 8 -35z" />
    <glyph glyph-name="gbreve" unicode="&#x11f;" 
d="M1144 1425q0 -30 -50 -79q-146 -145 -273 -145q-147 0 -267 182q-14 21 -14 43q0 30 24 52.5t54 22.5q29 0 96 -76.5t107 -76.5q68 0 189 126q26 27 55 27q30 0 54.5 -23t24.5 -53zM1246 975q0 -75 -75 -75h-134q48 -70 48 -157q0 -114 -75 -217q-67 -93 -175 -153
q161 -105 161 -289q0 -224 -211 -385q-195 -149 -426 -149q-175 0 -299 93q-137 103 -137 273q0 159 84 159q78 0 78 -72q0 -14 -5.5 -41.5t-5.5 -41.5q0 -109 92 -169q78 -51 193 -51q133 0 250 60q122 62 187 173q46 79 46 155q0 111 -90 166q-74 46 -192 46
q-147 0 -250 78q-114 87 -114 229q0 185 173 319q161 124 352 124h450q75 0 75 -75zM932 745q0 155 -211 155q-133 0 -247 -81q-126 -89 -126 -214q0 -155 212 -155q133 0 247 81q125 89 125 214z" />
    <glyph glyph-name="Gdot" unicode="&#x120;" 
d="M1108 1773q0 -50 -37 -86.5t-87 -36.5q-45 0 -74.5 29t-29.5 74q0 50 37 86t87 36q44 0 74 -29t30 -73zM1264 1225q0 -31 -23.5 -52t-54.5 -21q-39 0 -66 44q2 6 -28 49q-72 105 -203 105q-264 0 -459 -304q-174 -271 -174 -551q0 -148 59 -239q71 -106 212 -106
q168 0 338 162l123 457q15 56 70 56q78 0 78 -72q0 -11 -3 -22l-128 -478q-25 -93 -204 -177q-162 -76 -274 -76q-211 0 -321 148q-97 132 -97 350q0 348 212 658q235 344 568 344q254 0 367 -240q8 -17 8 -35z" />
    <glyph glyph-name="gdot" unicode="&#x121;" 
d="M946 1395q0 -50 -37.5 -85t-87.5 -35q-44 0 -75 29t-31 73q0 49 38 86t88 37q45 0 75 -30t30 -75zM1246 975q0 -75 -75 -75h-134q48 -70 48 -157q0 -114 -75 -217q-67 -93 -175 -153q161 -105 161 -289q0 -224 -211 -385q-195 -149 -426 -149q-175 0 -299 93
q-137 103 -137 273q0 159 84 159q78 0 78 -72q0 -14 -5.5 -41.5t-5.5 -41.5q0 -109 92 -169q78 -51 193 -51q133 0 250 60q122 62 187 173q46 79 46 155q0 111 -90 166q-74 46 -192 46q-147 0 -250 78q-114 87 -114 229q0 185 173 319q161 124 352 124h450q75 0 75 -75z
M932 745q0 155 -211 155q-133 0 -247 -81q-126 -89 -126 -214q0 -155 212 -155q133 0 247 81q125 89 125 214z" />
    <glyph glyph-name="Gcedilla" unicode="&#x122;" 
d="M1264 1225q0 -31 -23.5 -52t-54.5 -21q-40 0 -66 44q-89 154 -231 154q-264 0 -459 -304q-174 -271 -174 -551q0 -148 59 -239q71 -106 212 -106q168 0 338 162l123 457q15 56 70 56q78 0 78 -72q0 -12 -131 -500q-31 -115 -271 -205q41 -62 41 -140q0 -141 -113 -249.5
t-255 -108.5q-183 0 -237 166q-4 12 -4 25q0 72 78 72q36 0 70.5 -56.5t92.5 -56.5q81 0 149.5 65.5t68.5 146.5q0 88 -98 88q-211 0 -321 148q-97 132 -97 350q0 348 212 658q235 344 568 344q258 0 367 -240q8 -18 8 -35z" />
    <glyph glyph-name="gcedilla" unicode="&#x123;" 
d="M1129 1484q0 -72 -78 -72q-36 0 -71 56.5t-92 56.5q-81 0 -149.5 -65.5t-68.5 -146.5q0 -64 86 -86.5t86 -76.5q0 -75 -75 -75q-107 0 -177 68t-70 174q0 141 113 249.5t255 108.5q186 0 237 -166q4 -13 4 -25zM1246 975q0 -75 -75 -75h-134q48 -70 48 -157
q0 -114 -75 -217q-67 -93 -175 -153q161 -105 161 -289q0 -224 -211 -385q-195 -149 -426 -149q-175 0 -299 93q-137 103 -137 273q0 159 84 159q78 0 78 -72q0 -14 -5.5 -41.5t-5.5 -41.5q0 -109 92 -169q78 -51 193 -51q133 0 250 60q122 62 187 173q46 79 46 155
q0 111 -90 166q-74 46 -192 46q-147 0 -250 78q-114 87 -114 229q0 185 173 319q161 124 352 124h450q75 0 75 -75zM932 745q0 155 -211 155q-133 0 -247 -81q-126 -89 -126 -214q0 -155 212 -155q133 0 247 81q125 89 125 214z" />
    <glyph glyph-name="Hcircumflex" unicode="&#x124;" 
d="M1223 1727q0 -31 -22.5 -54.5t-53.5 -23.5q-26 0 -48 18l-145 118l-221 -125q-19 -11 -38 -11q-31 0 -52.5 23.5t-21.5 54.5q0 41 39 63l259 147q25 14 43 14q25 0 52 -22l180 -146q29 -24 29 -56zM1267 1428q0 -11 -365 -1372q-15 -56 -71 -56q-77 0 -77 72q0 11 3 22
l156 581h-545l-166 -619q-15 -56 -71 -56q-77 0 -77 72q0 11 365 1372q15 56 70 56q78 0 78 -72q0 -11 -3 -22l-156 -581h545l166 619q15 56 70 56q78 0 78 -72z" />
    <glyph glyph-name="hcircumflex" unicode="&#x125;" 
d="M1248 1727q0 -31 -22.5 -54.5t-53.5 -23.5q-26 0 -48 18l-145 118l-221 -125q-19 -11 -38 -11q-31 0 -52.5 23.5t-21.5 54.5q0 41 39 63l259 147q25 14 43 14q25 0 52 -22l180 -146q29 -24 29 -56zM1108 697q0 -60 -15 -116l-141 -525q-15 -56 -70 -56q-78 0 -78 72
q0 11 3 22l141 525q11 41 11 79q0 93 -59.5 147.5t-153.5 54.5q-133 0 -250.5 -94.5t-152.5 -224.5l-141 -525q-15 -56 -71 -56q-77 0 -77 72q0 11 3 22l362 1350q15 56 70 56q78 0 78 -72q0 -11 -125 -477q146 99 304 99t260 -98t102 -255z" />
    <glyph glyph-name="Hbar" unicode="&#x126;" 
d="M1306 1200q0 -75 -118 -75l-286 -1069q-15 -56 -71 -56q-77 0 -77 72q0 11 3 22l156 581h-545l-166 -619q-15 -56 -71 -56q-77 0 -77 72q0 11 3 22l276 1031q-77 0 -77 75t117 75l46 169q15 56 70 56q78 0 78 -72q0 -11 -38 -153h544l46 169q15 56 70 56q78 0 78 -72
q0 -11 -38 -153q77 0 77 -75zM1033 1125h-545l-80 -300h545z" />
    <glyph glyph-name="hbar" unicode="&#x127;" 
d="M1108 697q0 -60 -15 -116l-141 -525q-15 -56 -70 -56q-78 0 -78 72q0 11 3 22l141 525q11 41 11 79q0 93 -59.5 147.5t-153.5 54.5q-133 0 -250.5 -94.5t-152.5 -224.5l-141 -525q-15 -56 -71 -56q-77 0 -77 72q0 11 3 22l276 1031q-77 0 -77 75t117 75l46 169
q15 56 70 56q78 0 78 -72q0 -11 -38 -153h277q75 0 75 -75t-75 -75h-318l-46 -174q146 99 304 99t260 -98t102 -255z" />
    <glyph glyph-name="Itilde" unicode="&#x128;" 
d="M1318 1802q0 -29 -29 -63q-75 -89 -217 -89q-83 0 -163.5 75t-96.5 75q-59 0 -104 -38t-64 -38q-31 0 -55 21.5t-24 52.5q0 29 29 63q76 89 218 89q82 0 162.5 -75t97.5 -75q42 0 62 12.5t43 26.5q23 37 62 37q31 0 55 -21.5t24 -52.5zM1216 1425q0 -75 -75 -75h-242
l-322 -1200h202q75 0 75 -75t-75 -75h-600q-75 0 -75 75t75 75h243l321 1200h-202q-75 0 -75 75t75 75h600q75 0 75 -75z" />
    <glyph glyph-name="itilde" unicode="&#x129;" 
d="M1197 1352q0 -29 -29 -63q-75 -89 -217 -89q-82 0 -163 75t-97 75q-59 0 -104 -38t-64 -38q-30 0 -54 22t-24 52q0 29 29 63q75 89 217 89q82 0 163 -75t97 -75q43 0 62 12l44 27q22 37 62 37q30 0 54 -22t24 -52zM854 75q0 -75 -75 -75q-132 0 -218.5 83.5t-86.5 214.5
q0 48 13 96l136 506h-202q-75 0 -75 75t75 75h301q74 0 74 -73q0 -11 -5 -30l-159 -591q-8 -30 -8 -59q0 -68 43 -107.5t112 -39.5q75 0 75 -75z" />
    <glyph glyph-name="Imacron" unicode="&#x12a;" 
d="M1242 1800q0 -75 -75 -75h-450q-75 0 -75 75t75 75h450q75 0 75 -75zM1216 1425q0 -75 -75 -75h-242l-322 -1200h202q75 0 75 -75t-75 -75h-600q-75 0 -75 75t75 75h243l321 1200h-202q-75 0 -75 75t75 75h600q75 0 75 -75z" />
    <glyph glyph-name="imacron" unicode="&#x12b;" 
d="M1071 1350q0 -75 -75 -75h-350q-75 0 -75 75t75 75h350q75 0 75 -75zM854 75q0 -75 -75 -75q-132 0 -218.5 83.5t-86.5 214.5q0 48 13 96l136 506h-202q-75 0 -75 75t75 75h301q74 0 74 -73q0 -11 -5 -30l-159 -591q-8 -30 -8 -59q0 -68 43 -107.5t112 -39.5q75 0 75 -75
z" />
    <glyph glyph-name="Ibreve" unicode="&#x12c;" 
d="M1264 1875q0 -30 -49 -79q-146 -145 -274 -145q-146 0 -266 181q-15 23 -15 44q0 31 24 53t55 22q29 0 96 -76.5t107 -76.5q67 0 188 126q26 27 55 27q31 0 55 -22.5t24 -53.5zM1216 1425q0 -75 -75 -75h-242l-322 -1200h202q75 0 75 -75t-75 -75h-600q-75 0 -75 75
t75 75h243l321 1200h-202q-75 0 -75 75t75 75h600q75 0 75 -75z" />
    <glyph glyph-name="ibreve" unicode="&#x12d;" 
d="M1144 1425q0 -30 -50 -79q-146 -145 -273 -145q-147 0 -267 182q-14 21 -14 43q0 30 24 52.5t54 22.5q29 0 96 -76.5t107 -76.5q68 0 189 126q26 27 55 27q30 0 54.5 -23t24.5 -53zM854 75q0 -75 -75 -75q-132 0 -218.5 83.5t-86.5 214.5q0 48 13 96l136 506h-202
q-75 0 -75 75t75 75h301q74 0 74 -73q0 -11 -5 -30l-159 -591q-8 -30 -8 -59q0 -68 43 -107.5t112 -39.5q75 0 75 -75z" />
    <glyph glyph-name="Iogonek" unicode="&#x12e;" 
d="M1216 1425q0 -75 -75 -75h-227l-322 -1200h187q75 0 75 -75t-75 -75h-285q-81 0 -149.5 -65.5t-68.5 -146.5q0 -88 98 -88q64 0 136.5 57t87.5 57q30 0 54 -23t24 -53q0 -24 -19 -48q-112 -140 -283 -140q-111 0 -178 64t-67 174q0 115 73 212q-98 0 -98 75t75 75h258
l321 1200h-217q-75 0 -75 75t75 75h600q75 0 75 -75z" />
    <glyph glyph-name="iogonek" unicode="&#x12f;" 
d="M946 1395q0 -50 -37.5 -85t-87.5 -35q-44 0 -75 29t-31 73q0 49 38 86t88 37q45 0 75 -30t30 -75zM961 -262q0 -25 -19 -48q-114 -140 -283 -140q-110 0 -177 62.5t-67 171.5q0 180 153 293q-94 85 -94 221q0 48 13 96l136 506h-202q-75 0 -75 75t75 75h301q74 0 74 -73
q0 -11 -5 -30l-159 -591q-8 -30 -8 -59q0 -68 43 -107.5t112 -39.5q79 0 79 -75q0 -61 -73 -74q-105 -19 -154 -67q-69 -66 -69 -146q0 -88 97 -88q64 0 136.5 57t87.5 57q30 0 54 -23t24 -53z" />
    <glyph glyph-name="Idotaccent" unicode="&#x130;" 
d="M1046 1773q0 -50 -37.5 -86.5t-87.5 -36.5q-44 0 -73.5 29.5t-29.5 73.5q0 50 36.5 86t86.5 36q44 0 74.5 -29t30.5 -73zM1216 1425q0 -75 -75 -75h-243l-321 -1200h202q75 0 75 -75t-75 -75h-600q-75 0 -75 75t75 75h242l322 1200h-202q-75 0 -75 75t75 75h600
q75 0 75 -75z" />
    <glyph glyph-name="dotlessi" unicode="&#x131;" 
d="M854 75q0 -75 -75 -75q-132 0 -218.5 83.5t-86.5 214.5q0 48 13 96l136 506h-202q-75 0 -75 75t75 75h301q74 0 74 -73q0 -11 -5 -30l-159 -591q-8 -30 -8 -59q0 -68 43 -107.5t112 -39.5q75 0 75 -75z" />
    <glyph glyph-name="IJ" unicode="&#x132;" 
d="M766 1425q0 -60 -60 -73q-9 -2 -107 -2l-322 -1200q63 0 85 -8q42 -15 42 -67q0 -75 -75 -75h-300q-75 0 -75 75q0 60 61 73q10 2 107 2l321 1200q-63 0 -85 8q-42 15 -42 67q0 75 75 75h300q75 0 75 -75zM1267 1427q0 -8 -6 -30l-359 -1341q-56 -211 -240 -357
q-187 -149 -403 -149q-116 0 -215 52q-106 55 -156 154q-11 22 -11 38q0 31 24 52.5t55 21.5q38 0 63 -40q79 -128 240 -128q165 0 310 117t188 278l336 1255h-202q-75 0 -75 75t75 75h302q74 0 74 -73z" />
    <glyph glyph-name="ij" unicode="&#x133;" 
d="M1296 1395q0 -50 -37.5 -85t-87.5 -35q-44 0 -75 29t-31 73q0 49 38 86t88 37q45 0 75 -30t30 -75zM721 1395q0 -50 -37.5 -85t-87.5 -35q-44 0 -75 29t-31 73q0 49 38 86t88 37q45 0 75 -30t30 -75zM571 977q0 -11 -5 -30l-159 -591q-12 -45 -12 -85q0 -121 84 -121
q75 0 75 -75t-75 -75q-114 0 -176 85q-56 76 -56 193q0 60 15 116l136 506h-127q-75 0 -75 75t75 75h226q74 0 74 -73zM1146 977q0 -11 -5 -30l-239 -891q-57 -211 -240 -358q-186 -148 -403 -148q-116 0 -215 52q-106 55 -156 154q-11 22 -11 38q0 31 24 52.5t55 21.5
q38 0 63 -40q79 -128 240 -128q164 0 311 118q144 116 187 276l216 806h-127q-75 0 -75 75t75 75h226q74 0 74 -73z" />
    <glyph glyph-name="Jcircumflex" unicode="&#x134;" 
d="M1173 1727q0 -31 -22.5 -54.5t-53.5 -23.5q-26 0 -48 18l-145 118l-221 -125q-19 -11 -38 -11q-31 0 -52.5 23.5t-21.5 54.5q0 41 39 63l259 147q25 14 43 14q25 0 52 -22l180 -146q29 -24 29 -56zM1267 1427q0 -8 -6 -30l-359 -1341q-56 -211 -240 -357
q-187 -149 -403 -149q-116 0 -215 52q-106 55 -156 154q-11 22 -11 38q0 31 24 52.5t55 21.5q38 0 63 -40q79 -128 240 -128q164 0 311 118q144 116 187 276l336 1256h-702q-75 0 -75 75t75 75h802q74 0 74 -73z" />
    <glyph glyph-name="jcircumflex" unicode="&#x135;" 
d="M1227 1277q0 -31 -22.5 -54.5t-53.5 -23.5q-25 0 -47 18l-145 118l-221 -125q-19 -11 -39 -11q-30 0 -52 24t-22 54q0 41 39 63l259 147q25 14 43 14q26 0 53 -22l179 -146q29 -24 29 -56zM1146 977q0 -11 -5 -30l-239 -891q-57 -211 -240 -358q-186 -148 -403 -148
q-116 0 -215 52q-106 55 -156 154q-11 22 -11 38q0 31 24 52.5t55 21.5q38 0 63 -40q79 -128 240 -128q164 0 311 118q144 116 187 276l216 806h-202q-75 0 -75 75t75 75h301q74 0 74 -73z" />
    <glyph glyph-name="Kcedilla" unicode="&#x136;" 
d="M1367 1423q0 -32 -29 -56l-776 -631l429 -618q15 -22 15 -44q0 -31 -24 -53t-55 -22q-36 0 -59 33l-469 675q-11 16 -14 32l-183 -683q-15 -56 -71 -56q-77 0 -77 72q0 11 3 22l362 1350q15 56 70 56q78 0 78 -72q0 -11 -3 -22l-164 -611q7 8 13 13l831 675q22 18 47 18
q31 0 53.5 -23.5t22.5 -54.5zM690 -92q0 -142 -113.5 -250t-255.5 -108q-186 0 -236 166q-4 13 -4 25q0 72 78 72q35 0 70 -56.5t92 -56.5q82 0 150 65.5t68 146.5q0 64 -86 86.5t-86 76.5q0 75 75 75q107 0 177.5 -67.5t70.5 -174.5z" />
    <glyph glyph-name="kcedilla" unicode="&#x137;" 
d="M1247 973q0 -40 -39 -63l-679 -396l449 -382q28 -24 28 -56q0 -30 -23 -53.5t-53 -23.5q-27 0 -49 19l-521 443q-31 26 -35 52l-123 -457q-15 -56 -71 -56q-77 0 -77 72q0 11 3 22l362 1350q15 56 70 56q78 0 78 -72q0 -11 -3 -22l-224 -835q8 10 32 24l761 445
q19 11 39 11q31 0 53 -23.5t22 -54.5zM712 -92q0 -141 -113 -249.5t-255 -108.5q-186 0 -237 166q-4 13 -4 25q0 72 78 72q36 0 71 -56.5t92 -56.5q81 0 149.5 65.5t68.5 146.5q0 64 -86 86.5t-86 76.5q0 75 75 75q107 0 177 -68t70 -174z" />
    <glyph glyph-name="kgreenlandic" unicode="&#x138;" 
d="M1247 973q0 -40 -39 -63l-679 -396l449 -382q28 -24 28 -56q0 -30 -23 -53.5t-53 -23.5q-27 0 -49 19l-521 443q-31 26 -35 52l-123 -457q-15 -56 -70 -56q-78 0 -78 72q0 11 3 22l241 900q15 56 70 56q78 0 78 -72q0 -11 -3 -22l-103 -385q8 10 32 24l761 445
q19 11 39 11q31 0 53 -23.5t22 -54.5z" />
    <glyph glyph-name="Lacute" unicode="&#x139;" 
d="M1187 1872q0 -46 -45 -66l-340 -150q-16 -7 -33 -7q-73 0 -73 79q0 46 45 66l340 150q16 7 33 7q73 0 73 -79zM1004 75q0 -75 -75 -75h-801q-74 0 -74 73q0 11 5 30l360 1341q15 56 70 56q78 0 78 -72q0 -11 -3 -22l-337 -1256h702q75 0 75 -75z" />
    <glyph glyph-name="lacute" unicode="&#x13a;" 
d="M1112 1872q0 -46 -45 -66l-340 -150q-16 -7 -33 -7q-73 0 -73 79q0 46 45 66l340 150q16 7 33 7q73 0 73 -79zM1046 224q0 -28 -24 -53q-165 -171 -393 -171q-157 0 -259.5 98.5t-102.5 254.5q0 57 16 117l261 974q15 56 70 56q78 0 78 -72q0 -11 -3 -22l-262 -975
q-11 -41 -11 -79q0 -93 61 -148q58 -54 152 -54q141 0 288 129q25 22 52 22q31 0 54 -23t23 -54z" />
    <glyph glyph-name="Lcedilla" unicode="&#x13b;" 
d="M1004 75q0 -75 -75 -75h-169q17 -43 17 -92q0 -141 -113 -249.5t-255 -108.5q-187 0 -237 166q-4 13 -4 25q0 72 78 72q36 0 71 -56.5t92 -56.5q81 0 149.5 65.5t68.5 146.5q0 88 -98 88h-391q-84 0 -84 73q0 11 5 30l360 1341q15 56 70 56q78 0 78 -72q0 -11 -3 -22
l-337 -1256h702q75 0 75 -75z" />
    <glyph glyph-name="lcedilla" unicode="&#x13c;" 
d="M1046 224q0 -45 -83 -106q-61 -45 -126 -73q40 -60 40 -137q0 -141 -113 -249.5t-255 -108.5q-187 0 -237 166q-4 13 -4 25q0 72 78 72q36 0 70.5 -56.5t92.5 -56.5q81 0 149.5 65.5t68.5 146.5q0 88 -98 88q-157 0 -259.5 98.5t-102.5 254.5q0 57 16 117l261 974
q15 56 70 56q78 0 78 -72q0 -11 -3 -22l-262 -975q-11 -41 -11 -79q0 -93 61 -148q58 -54 152 -54q135 0 288 129q26 22 52 22q31 0 54 -23t23 -54z" />
    <glyph glyph-name="Lcaron" unicode="&#x13d;" 
d="M1263 1873q0 -41 -39 -63l-260 -147q-25 -14 -43 -14q-25 0 -52 22l-180 146q-29 24 -29 56q0 31 22.5 54.5t53.5 23.5q26 0 48 -18l145 -118l221 125q19 11 39 11q30 0 52 -24t22 -54zM1004 75q0 -75 -75 -75h-801q-74 0 -74 73q0 11 5 30l360 1341q15 56 70 56
q78 0 78 -72q0 -11 -3 -22l-337 -1256h702q75 0 75 -75z" />
    <glyph glyph-name="lcaron" unicode="&#x13e;" 
d="M1113 1873q0 -41 -39 -63l-260 -147q-25 -14 -43 -14q-25 0 -52 22l-180 146q-29 24 -29 56q0 31 22.5 54.5t53.5 23.5q26 0 48 -18l145 -118l221 125q19 11 39 11q30 0 52 -24t22 -54zM1046 224q0 -28 -24 -53q-165 -171 -393 -171q-157 0 -259.5 98.5t-102.5 254.5
q0 57 16 117l261 974q15 56 70 56q78 0 78 -72q0 -11 -3 -22l-262 -975q-11 -41 -11 -79q0 -93 61 -148q58 -54 152 -54q141 0 288 129q25 22 52 22q31 0 54 -23t23 -54z" />
    <glyph glyph-name="Ldot" unicode="&#x13f;" 
d="M1025 760q0 -50 -37.5 -86.5t-87.5 -36.5q-44 0 -73.5 29.5t-29.5 73.5q0 50 36.5 86t86.5 36q44 0 74.5 -29t30.5 -73zM1004 75q0 -75 -75 -75h-801q-74 0 -74 73q0 11 5 30l360 1341q15 56 70 56q78 0 78 -72q0 -11 -3 -22l-337 -1256h702q75 0 75 -75z" />
    <glyph glyph-name="ldot" unicode="&#x140;" 
d="M1150 760q0 -50 -37.5 -86.5t-87.5 -36.5q-44 0 -73.5 29.5t-29.5 73.5q0 50 36.5 86t86.5 36q44 0 74.5 -29t30.5 -73zM1046 224q0 -28 -24 -53q-165 -171 -393 -171q-157 0 -259.5 98.5t-102.5 254.5q0 57 16 117l261 974q15 56 70 56q78 0 78 -72q0 -11 -3 -22
l-262 -975q-11 -41 -11 -79q0 -93 61 -148q58 -54 152 -54q141 0 288 129q25 22 52 22q31 0 54 -23t23 -54z" />
    <glyph glyph-name="Lslash" unicode="&#x141;" 
d="M1004 75q0 -75 -75 -75h-801q-74 0 -74 73q0 11 5 30l133 497l-5 -1q-30 -1 -51 23t-21 55q0 44 42 65q6 3 80 26l182 676q15 56 70 56q78 0 78 -72q0 -11 -3 -22l-157 -586l251 77q13 4 25 4q73 0 73 -78q0 -54 -54 -70l-341 -104l-134 -499h702q75 0 75 -75z" />
    <glyph glyph-name="lslash" unicode="&#x142;" 
d="M1046 224q0 -27 -24 -53q-72 -76 -180.5 -123.5t-212.5 -47.5q-157 0 -259.5 98.5t-102.5 254.5q0 57 61 286q-129 -40 -141 -40q-72 0 -72 78q0 54 53 70l206 63l170 634q15 56 70 56q78 0 78 -72q0 -11 -3 -22l-146 -545q128 40 140 40q73 0 73 -78q0 -53 -54 -70
l-205 -63l-70 -259q-11 -41 -11 -79q0 -93 61 -148q58 -54 152 -54q136 0 288 129q26 22 52 22q31 0 54 -23t23 -54z" />
    <glyph glyph-name="Nacute" unicode="&#x143;" 
d="M1187 1872q0 -46 -45 -66l-340 -150q-16 -7 -33 -7q-73 0 -73 79q0 46 45 66l340 150q16 7 33 7q73 0 73 -79zM1267 1428q0 -11 -3 -22l-359 -1340q-18 -66 -76 -66t-75 67l-265 1059l-287 -1070q-15 -56 -71 -56q-77 0 -77 72q0 11 3 22l359 1340q18 66 76 66t75 -67
l265 -1059l287 1070q15 56 70 56q78 0 78 -72z" />
    <glyph glyph-name="nacute" unicode="&#x144;" 
d="M1092 1422q0 -46 -46 -66l-340 -150q-16 -7 -33 -7q-31 0 -52 24t-21 55q0 46 46 66l340 150q16 7 33 7q31 0 52 -24t21 -55zM1108 697q0 -60 -15 -116l-141 -525q-15 -56 -70 -56q-78 0 -78 72q0 11 3 22l141 525q11 41 11 79q0 93 -59.5 147.5t-153.5 54.5
q-133 0 -250.5 -94.5t-152.5 -224.5l-141 -525q-15 -56 -70 -56q-78 0 -78 72q0 11 3 22l241 900q15 56 70 56q78 0 78 -72q0 -12 -4 -27q146 99 304 99t260 -98t102 -255z" />
    <glyph glyph-name="Ncedilla" unicode="&#x145;" 
d="M1267 1428q0 -11 -3 -22l-359 -1340q-18 -66 -76 -66t-75 67l-265 1059l-287 -1070q-15 -56 -71 -56q-77 0 -77 72q0 11 3 22l359 1340q18 66 76 66t75 -67l265 -1059l287 1070q15 56 70 56q78 0 78 -72zM727 -92q0 -141 -113 -249.5t-255 -108.5q-186 0 -237 166
q-4 13 -4 25q0 72 78 72q36 0 71 -56.5t92 -56.5q81 0 149.5 65.5t68.5 146.5q0 64 -86.5 86.5t-86.5 76.5q0 75 75 75q107 0 177.5 -67.5t70.5 -174.5z" />
    <glyph glyph-name="ncedilla" unicode="&#x146;" 
d="M1108 697q0 -60 -15 -116l-141 -525q-15 -56 -70 -56q-78 0 -78 72q0 11 3 22l141 525q11 41 11 79q0 93 -59.5 147.5t-153.5 54.5q-133 0 -250.5 -94.5t-152.5 -224.5l-141 -525q-15 -56 -70 -56q-78 0 -78 72q0 11 3 22l241 900q15 56 70 56q78 0 78 -72q0 -12 -4 -27
q146 99 304 99t260 -98t102 -255zM752 -92q0 -141 -113 -249.5t-255 -108.5q-186 0 -237 166q-4 13 -4 25q0 72 78 72q36 0 71 -56.5t92 -56.5q81 0 149.5 65.5t68.5 146.5q0 64 -86.5 86.5t-86.5 76.5q0 75 75 75q107 0 177.5 -67.5t70.5 -174.5z" />
    <glyph glyph-name="Ncaron" unicode="&#x147;" 
d="M1263 1873q0 -41 -39 -63l-260 -147q-25 -14 -43 -14q-25 0 -52 22l-180 146q-29 24 -29 56q0 31 22.5 54.5t53.5 23.5q26 0 48 -18l145 -118l221 125q19 11 39 11q30 0 52 -24t22 -54zM1267 1428q0 -11 -3 -22l-359 -1340q-18 -66 -76 -66t-75 67l-265 1059l-287 -1070
q-15 -56 -71 -56q-77 0 -77 72q0 11 3 22l359 1340q18 66 76 66t75 -67l265 -1059l287 1070q15 56 70 56q78 0 78 -72z" />
    <glyph glyph-name="ncaron" unicode="&#x148;" 
d="M1167 1423q0 -41 -39 -63l-259 -147q-25 -14 -43 -14q-26 0 -53 22l-179 146q-29 24 -29 56q0 31 22.5 54.5t53.5 23.5q25 0 47 -18l146 -118l220 125q19 11 39 11q30 0 52 -24t22 -54zM1108 697q0 -60 -15 -116l-141 -525q-15 -56 -70 -56q-78 0 -78 72q0 11 3 22
l141 525q11 41 11 79q0 93 -59.5 147.5t-153.5 54.5q-133 0 -250.5 -94.5t-152.5 -224.5l-141 -525q-15 -56 -70 -56q-78 0 -78 72q0 11 3 22l241 900q15 56 70 56q78 0 78 -72q0 -12 -4 -27q146 99 304 99t260 -98t102 -255z" />
    <glyph glyph-name="napostrophe" unicode="&#x149;" 
d="M617 1426q0 -24 -13 -43l-251 -375q-23 -34 -60 -34q-31 0 -55 22t-24 53q0 22 14 43l251 375q23 34 60 34q31 0 54.5 -22t23.5 -53zM1126 752q0 -48 -13 -96l-161 -600q-15 -56 -70 -56q-78 0 -78 72q0 11 3 22l161 600q8 30 8 59q0 68 -43 107.5t-112 39.5
q-102 0 -191.5 -72.5t-116.5 -171.5l-161 -600q-15 -56 -70 -56q-78 0 -78 72q0 11 3 22l241 900q15 56 70 56q71 0 78 -65q109 65 225 65q132 0 218.5 -83.5t86.5 -214.5z" />
    <glyph glyph-name="Eng" unicode="&#x14a;" 
d="M1267 1428q0 -11 -3 -22l-359 -1340q-58 -217 -239 -365q-186 -151 -407 -151q-116 0 -215 52q-106 55 -156 154q-11 22 -11 38q0 31 24 52.5t55 21.5q38 0 63 -40q78 -128 240 -128q159 0 303 112q141 110 190 264l-263 1050l-287 -1070q-15 -56 -71 -56q-77 0 -77 72
q0 11 3 22l359 1340q18 66 76 66t75 -67l265 -1059l287 1070q15 56 70 56q78 0 78 -72z" />
    <glyph glyph-name="eng" unicode="&#x14b;" 
d="M1108 697q0 -60 -15 -116l-141 -525q-57 -211 -240 -358q-186 -148 -403 -148q-264 0 -371 206q-10 19 -10 38q0 74 78 74q38 0 64 -40q85 -128 239 -128q377 0 539 524q4 14 100 395q11 44 11 79q0 93 -59.5 147.5t-153.5 54.5q-133 0 -250.5 -94.5t-152.5 -224.5
l-141 -525q-15 -56 -70 -56q-78 0 -78 72q0 11 3 22l241 900q15 56 70 56q78 0 78 -72q0 -12 -4 -27q146 99 304 99q157 0 259.5 -98.5t102.5 -254.5z" />
    <glyph glyph-name="Omacron" unicode="&#x14c;" 
d="M1467 1800q0 -75 -75 -75h-900q-75 0 -75 75t75 75h900q75 0 75 -75zM1216 1025q0 -338 -196 -659q-224 -366 -541 -366q-194 0 -291 147q-83 125 -83 328q0 338 196 659q224 366 540 366q194 0 292 -147q83 -124 83 -328zM1072 1005q0 128 -51 225q-63 120 -180 120
q-133 0 -276 -135q-204 -192 -282 -484q-34 -126 -34 -236q0 -129 50 -225q62 -120 180 -120q134 0 277 135q203 192 283 485q33 125 33 235z" />
    <glyph glyph-name="omacron" unicode="&#x14d;" 
d="M1346 1350q0 -75 -75 -75h-900q-75 0 -75 75t75 75h900q75 0 75 -75zM1141 641q0 -251 -205 -446t-457 -195q-183 0 -301.5 113.5t-118.5 295.5q0 251 206 448q203 193 456 193q183 0 301.5 -113.5t118.5 -295.5zM988 652q0 120 -74 186q-71 62 -193 62
q-199 0 -354 -151.5t-155 -350.5q0 -120 74 -186q71 -62 193 -62q199 0 354 151.5t155 350.5z" />
    <glyph glyph-name="Obreve" unicode="&#x14e;" 
d="M1264 1875q0 -30 -49 -79q-146 -145 -274 -145q-146 0 -266 181q-15 23 -15 44q0 31 24 53t55 22q29 0 96 -76.5t107 -76.5q67 0 188 126q26 27 55 27q31 0 55 -22.5t24 -53.5zM1216 1025q0 -338 -196 -659q-224 -366 -541 -366q-194 0 -291 147q-83 125 -83 328
q0 338 196 659q224 366 540 366q194 0 292 -147q83 -124 83 -328zM1072 1005q0 128 -51 225q-63 120 -180 120q-133 0 -276 -135q-204 -192 -282 -484q-34 -126 -34 -236q0 -129 50 -225q62 -120 180 -120q134 0 277 135q203 192 283 485q33 125 33 235z" />
    <glyph glyph-name="obreve" unicode="&#x14f;" 
d="M1144 1425q0 -30 -50 -79q-146 -145 -273 -145q-147 0 -267 182q-14 21 -14 43q0 30 24 52.5t54 22.5q29 0 96 -76.5t107 -76.5q68 0 189 126q26 27 55 27q30 0 54.5 -23t24.5 -53zM1141 641q0 -251 -205 -446t-457 -195q-183 0 -301.5 113.5t-118.5 295.5q0 251 206 448
q203 193 456 193q183 0 301.5 -113.5t118.5 -295.5zM988 652q0 120 -74 186q-71 62 -193 62q-199 0 -354 -151.5t-155 -350.5q0 -120 74 -186q71 -62 193 -62q199 0 354 151.5t155 350.5z" />
    <glyph glyph-name="Odblacute" unicode="&#x150;" 
d="M1412 1872q0 -46 -45 -66l-340 -150q-16 -7 -33 -7q-73 0 -73 79q0 46 45 66l340 150q16 7 33 7q73 0 73 -79zM962 1872q0 -46 -45 -66l-340 -150q-16 -7 -33 -7q-73 0 -73 79q0 46 45 66l340 150q16 7 33 7q73 0 73 -79zM1216 1025q0 -338 -196 -659
q-224 -366 -541 -366q-194 0 -291 147q-83 125 -83 328q0 338 196 659q224 366 540 366q194 0 292 -147q83 -124 83 -328zM1072 1005q0 128 -51 225q-63 120 -180 120q-133 0 -276 -135q-204 -192 -282 -484q-34 -126 -34 -236q0 -129 50 -225q62 -120 180 -120
q134 0 277 135q203 192 283 485q33 125 33 235z" />
    <glyph glyph-name="odblacute" unicode="&#x151;" 
d="M1292 1422q0 -46 -46 -66l-340 -150q-16 -7 -33 -7q-31 0 -52 24t-21 55q0 46 46 66l340 150q16 7 33 7q31 0 52 -24t21 -55zM842 1422q0 -46 -46 -66l-340 -150q-16 -7 -33 -7q-31 0 -52 24t-21 55q0 46 46 66l340 150q16 7 33 7q31 0 52 -24t21 -55zM1141 641
q0 -251 -205 -446t-457 -195q-183 0 -301.5 113.5t-118.5 295.5q0 251 206 448q203 193 456 193q183 0 301.5 -113.5t118.5 -295.5zM988 652q0 120 -74 186q-71 62 -193 62q-199 0 -354 -151.5t-155 -350.5q0 -120 74 -186q71 -62 193 -62q199 0 354 151.5t155 350.5z" />
    <glyph glyph-name="OE" unicode="&#x152;" 
d="M1366 1425q0 -75 -75 -75h-156q81 -124 81 -325q0 -234 -101 -475q-105 -251 -274 -400q92 0 105 -3q58 -13 58 -72q0 -75 -75 -75h-450q-194 0 -291 147q-83 125 -83 328q0 338 196 659q224 366 540 366h450q75 0 75 -75zM1072 1006q0 112 -37 198q-46 108 -139 137
l-138 -516h202q68 0 75 -66q37 134 37 247zM738 1329q-208 -80 -354 -349q-135 -248 -135 -485q0 -280 175 -336zM1016 698q-20 -23 -56 -23h-242l-135 -504q144 56 268 218q108 141 165 309z" />
    <glyph glyph-name="oe" unicode="&#x153;" 
d="M1198 835q0 -181 -191 -343q-52 -44 -344 -229q31 -115 123 -115q37 0 90 26.5t68 26.5q31 0 53 -24t22 -55q0 -54 -92 -92q-77 -32 -141 -32q-188 0 -253 189q-127 -187 -271 -187q-215 0 -215 309q0 120 38 255q49 176 145 310q125 176 273 176q155 0 193 -184
q156 182 331 182q171 0 171 -213zM1049 835q0 63 -22 63q-132 0 -248 -172q-97 -144 -121 -296q391 225 391 405zM557 763q0 137 -54 137q-31 0 -75 -35q-140 -112 -206 -359q-26 -97 -26 -188q0 -168 66 -168q90 0 176 170q119 235 119 443z" />
    <glyph glyph-name="Racute" unicode="&#x154;" 
d="M1187 1872q0 -46 -45 -66l-340 -150q-16 -7 -33 -7q-73 0 -73 79q0 46 45 66l340 150q16 7 33 7q73 0 73 -79zM1279 1147q0 -214 -174.5 -380.5t-389.5 -166.5h-77l352 -481q16 -22 16 -45q0 -30 -24 -52.5t-54 -22.5q-36 0 -59 32l-431 588q-24 33 -24 56q0 75 91 75
h210q160 0 286 123.5t126 282.5q0 194 -211 194h-367l-347 -1294q-15 -56 -71 -56q-77 0 -77 72q0 11 3 22l360 1346q16 60 79 60h420q158 0 260.5 -98t102.5 -255z" />
    <glyph glyph-name="racute" unicode="&#x155;" 
d="M1082 1422q0 -46 -46 -66l-340 -150q-16 -7 -33 -7q-31 0 -52 24t-21 55q0 46 46 66l340 150q16 7 33 7q31 0 52 -24t21 -55zM976 859q0 -72 -78 -72q-36 0 -70.5 56.5t-91.5 56.5q-69 0 -132 -50.5t-81 -118.5l-181 -675q-15 -56 -70 -56q-78 0 -78 72q0 11 3 22
l241 900q15 56 70 56q49 0 70 -40q78 40 158 40q186 0 236 -166q4 -13 4 -25z" />
    <glyph glyph-name="Rcedilla" unicode="&#x156;" 
d="M727 -92q0 -141 -113 -249.5t-255 -108.5q-186 0 -237 166q-4 13 -4 25q0 72 78 72q36 0 71 -56.5t92 -56.5q81 0 149.5 65.5t68.5 146.5q0 64 -86.5 86.5t-86.5 76.5q0 75 75 75q107 0 177.5 -67.5t70.5 -174.5zM1279 1147q0 -214 -174.5 -380.5t-389.5 -166.5h-77
l352 -481q16 -22 16 -45q0 -30 -24 -52.5t-54 -22.5q-36 0 -59 32l-431 588q-24 33 -24 56q0 75 91 75h210q160 0 286 123.5t126 282.5q0 194 -211 194h-367l-347 -1294q-15 -56 -71 -56q-77 0 -77 72q0 11 3 22l360 1346q16 60 79 60h420q158 0 260.5 -98t102.5 -255z" />
    <glyph glyph-name="rcedilla" unicode="&#x157;" 
d="M1074 859q0 -72 -78 -72q-36 0 -71 56.5t-92 56.5q-69 0 -132 -50.5t-81 -118.5l-159 -597q154 -56 154 -226q0 -142 -113.5 -250t-255.5 -108q-186 0 -236 166q-4 13 -4 25q0 72 78 72q35 0 70 -56.5t92 -56.5q82 0 150 65.5t68 146.5q0 88 -95 88q-77 0 -77 73
q0 11 5 30l239 891q15 56 70 56q49 0 70 -40q77 40 157 40q184 0 236 -166q5 -16 5 -25z" />
    <glyph glyph-name="Rcaron" unicode="&#x158;" 
d="M1263 1873q0 -41 -39 -63l-260 -147q-25 -14 -43 -14q-25 0 -52 22l-180 146q-29 24 -29 56q0 31 22.5 54.5t53.5 23.5q26 0 48 -18l145 -118l221 125q19 11 39 11q30 0 52 -24t22 -54zM1279 1147q0 -214 -174.5 -380.5t-389.5 -166.5h-77l352 -481q16 -22 16 -45
q0 -30 -24 -52.5t-54 -22.5q-36 0 -59 32l-431 588q-24 33 -24 56q0 75 91 75h210q160 0 286 123.5t126 282.5q0 194 -211 194h-367l-347 -1294q-15 -56 -71 -56q-77 0 -77 72q0 11 3 22l360 1346q16 60 79 60h420q158 0 260.5 -98t102.5 -255z" />
    <glyph glyph-name="rcaron" unicode="&#x159;" 
d="M1242 1423q0 -41 -39 -63l-259 -147q-25 -14 -43 -14q-26 0 -53 22l-179 146q-29 24 -29 56q0 31 22.5 54.5t53.5 23.5q25 0 47 -18l146 -118l220 125q19 11 39 11q30 0 52 -24t22 -54zM1202 806q0 -31 -24 -52.5t-55 -21.5q-38 0 -63 40q-80 128 -239 128
q-164 0 -310 -117t-189 -277l-120 -450q-15 -56 -70 -56q-78 0 -78 72q0 7 124 472l120 450q15 56 70 56q78 0 78 -72q0 -11 -15 -68q184 140 390 140q116 0 215 -52q106 -55 156 -154q10 -20 10 -38z" />
    <glyph glyph-name="Sacute" unicode="&#x15a;" 
d="M1162 1872q0 -46 -45 -66l-340 -150q-16 -7 -33 -7q-73 0 -73 79q0 46 45 66l341 150q16 7 32 7q73 0 73 -79zM1179 1274q0 -31 -24 -52.5t-55 -21.5q-36 0 -65 43q-71 107 -226 107q-244 0 -358 -174q-39 -60 -39 -117q0 -159 236 -159q182 0 316 -92q152 -104 152 -278
q0 -229 -226 -387q-204 -143 -443 -143q-139 0 -253 54q-129 62 -182 177q-8 17 -8 34q0 74 78 74q36 0 57 -30l36 -56q88 -103 272 -103q140 0 263 57q133 61 203 172q49 78 49 154q0 116 -105 172q-83 45 -209 45q-150 0 -263 78q-126 87 -126 232q0 189 185 321
q167 119 365 119q270 0 361 -191q9 -19 9 -35z" />
    <glyph glyph-name="sacute" unicode="&#x15b;" 
d="M1053 1422q0 -46 -45 -66l-340 -150q-16 -7 -33 -7q-73 0 -73 79q0 46 45 66l340 150q16 7 33 7q73 0 73 -79zM1009 395q0 -83 -48 -162q-142 -233 -494 -233q-132 0 -236 50q-124 59 -159 172q-4 13 -4 25q0 72 78 72q48 0 70 -53q49 -116 251 -116q183 0 308 95
q84 64 84 139q0 141 -270 141q-120 0 -200 49q-97 59 -97 172q0 143 138 229q120 75 270 75q207 0 282 -129q13 -22 13 -41q0 -31 -24 -52.5t-55 -21.5q-12 0 -72 47t-144 47q-76 0 -157 -35q-101 -44 -101 -110q0 -80 181 -80q153 0 258 -62q128 -75 128 -218z" />
    <glyph glyph-name="Scircumflex" unicode="&#x15c;" 
d="M1198 1727q0 -31 -22.5 -54.5t-53.5 -23.5q-26 0 -48 18l-145 118l-220 -125q-19 -11 -39 -11q-31 0 -52.5 23.5t-21.5 54.5q0 41 39 63l259 147q25 14 43 14q25 0 52 -22l180 -146q29 -24 29 -56zM1179 1274q0 -31 -24 -52.5t-55 -21.5q-36 0 -65 43q-71 107 -226 107
q-244 0 -358 -174q-39 -60 -39 -117q0 -159 236 -159q182 0 316 -92q152 -104 152 -278q0 -229 -226 -387q-204 -143 -443 -143q-139 0 -253 54q-129 62 -182 177q-8 17 -8 34q0 74 78 74q36 0 57 -30l36 -56q88 -103 272 -103q140 0 263 57q133 61 203 172q49 78 49 154
q0 116 -105 172q-83 45 -209 45q-150 0 -263 78q-126 87 -126 232q0 189 185 321q167 119 365 119q270 0 361 -191q9 -19 9 -35z" />
    <glyph glyph-name="scircumflex" unicode="&#x15d;" 
d="M1089 1277q0 -31 -22.5 -54.5t-53.5 -23.5q-26 0 -48 18l-145 118l-221 -125q-19 -11 -38 -11q-31 0 -53 23.5t-22 54.5q0 41 39 63l260 147q25 14 43 14q25 0 52 -22l180 -146q29 -24 29 -56zM1009 395q0 -83 -48 -162q-142 -233 -494 -233q-132 0 -236 50
q-124 59 -159 172q-4 13 -4 25q0 72 78 72q48 0 70 -53q49 -116 251 -116q183 0 308 95q84 64 84 139q0 141 -270 141q-120 0 -200 49q-97 59 -97 172q0 143 138 229q120 75 270 75q207 0 282 -129q13 -22 13 -41q0 -31 -24 -52.5t-55 -21.5q-12 0 -72 47t-144 47
q-76 0 -157 -35q-101 -44 -101 -110q0 -80 181 -80q153 0 258 -62q128 -75 128 -218z" />
    <glyph glyph-name="Scedilla" unicode="&#x15e;" 
d="M1179 1274q0 -31 -24 -52.5t-55 -21.5q-33 0 -76 59q-67 91 -215 91q-251 0 -362 -180q-35 -57 -35 -111q0 -159 236 -159q182 0 316 -92q152 -104 152 -278q0 -173 -142 -315q-125 -125 -305 -181q33 -56 33 -126q0 -141 -113 -249.5t-255 -108.5q-184 0 -237 166
q-4 12 -4 25q0 72 78 72q36 0 71 -56.5t92 -56.5q81 0 149.5 65t68.5 146q0 89 -98 89h-7q-140 0 -253 54q-130 61 -182 177q-8 18 -8 34q0 74 78 74q40 0 66 -44q87 -145 299 -145q140 0 263 57q133 61 203 172q49 78 49 154q0 116 -105 172q-83 45 -209 45q-150 0 -263 78
q-126 87 -126 232q0 189 185 321q167 119 365 119q115 0 209 -45q108 -51 152 -146q9 -19 9 -35z" />
    <glyph glyph-name="scedilla" unicode="&#x15f;" 
d="M1009 394q0 -127 -101 -231q-89 -91 -221 -132q31 -55 31 -123q0 -141 -113 -249.5t-255 -108.5q-185 0 -236 166q-4 13 -4 25q0 72 78 72q35 0 70 -56.5t92 -56.5q82 0 150 65.5t68 146.5q0 88 -97 88q-135 0 -239 49q-125 59 -160 173q-4 13 -4 25q0 72 78 72
q49 0 70 -53q47 -116 251 -116q188 0 312 98q80 63 80 136q0 141 -270 141q-120 0 -200 49q-97 59 -97 172q0 143 138 229q120 75 270 75q208 0 282 -129q13 -23 13 -41q0 -31 -24 -52.5t-55 -21.5q-12 0 -72 47t-144 47q-76 0 -157 -35q-101 -44 -101 -110q0 -80 181 -80
q154 0 259 -62q127 -75 127 -219z" />
    <glyph glyph-name="Scaron" unicode="&#x160;" 
d="M1238 1873q0 -40 -39 -63q-265 -157 -295 -157q-46 0 -239 164q-29 25 -29 56t22 54.5t53 23.5q26 0 48 -18l145 -118q240 136 260 136q30 0 52 -24t22 -54zM1179 1274q0 -31 -24 -52.5t-55 -21.5q-36 0 -65 43q-71 107 -226 107q-244 0 -358 -174q-39 -60 -39 -117
q0 -159 236 -159q182 0 316 -92q152 -104 152 -278q0 -229 -226 -387q-204 -143 -443 -143q-139 0 -253 54q-129 62 -182 177q-8 17 -8 34q0 74 78 74q36 0 57 -30l36 -56q88 -103 272 -103q140 0 263 57q133 61 203 172q49 78 49 154q0 116 -105 172q-83 45 -209 45
q-150 0 -263 78q-126 87 -126 232q0 189 185 321q167 119 365 119q270 0 361 -191q9 -19 9 -35z" />
    <glyph glyph-name="scaron" unicode="&#x161;" 
d="M1131 1423q0 -40 -39 -63q-265 -157 -295 -157q-46 0 -239 164q-29 25 -29 56t22.5 54.5t53.5 23.5q25 0 47 -18l145 -118q240 136 260 136q30 0 52 -24t22 -54zM1009 395q0 -83 -48 -162q-142 -233 -494 -233q-132 0 -236 50q-124 59 -159 172q-4 13 -4 25q0 72 78 72
q48 0 70 -53q49 -116 251 -116q183 0 308 95q84 64 84 139q0 141 -270 141q-120 0 -200 49q-97 59 -97 172q0 143 138 229q120 75 270 75q207 0 282 -129q13 -22 13 -41q0 -31 -24 -52.5t-55 -21.5q-12 0 -72 47t-144 47q-76 0 -157 -35q-101 -44 -101 -110q0 -80 181 -80
q153 0 258 -62q128 -75 128 -218z" />
    <glyph glyph-name="Tcedilla" unicode="&#x162;" 
d="M1366 1425q0 -75 -75 -75h-392l-326 -1216q154 -55 154 -217q0 -146 -111 -256.5t-257 -110.5q-188 0 -237 166q-4 13 -4 25q0 72 78 72q36 0 71 -56.5t92 -56.5q81 0 149.5 65.5t68.5 146.5q0 65 -86.5 87t-86.5 71q0 13 3 24l336 1256h-352q-75 0 -75 75t75 75h900
q75 0 75 -75z" />
    <glyph glyph-name="tcedilla" unicode="&#x163;" 
d="M1046 224q0 -45 -83 -106q-61 -45 -126 -73q40 -60 40 -137q0 -141 -113 -249.5t-255 -108.5q-187 0 -237 166q-4 13 -4 25q0 72 78 72q36 0 70.5 -56.5t92.5 -56.5q81 0 149.5 65.5t68.5 146.5q0 88 -98 88q-157 0 -259.5 98.5t-102.5 254.5q0 60 15 116l116 431h-127
q-75 0 -75 75t75 75h167l106 394q15 56 70 56q78 0 78 -72q0 -12 -99 -378h353q75 0 75 -75t-75 -75h-393l-126 -469q-11 -41 -11 -79q0 -93 61 -148q58 -54 152 -54q137 0 288 129q26 22 52 22q31 0 54 -23t23 -54z" />
    <glyph glyph-name="Tcaron" unicode="&#x164;" 
d="M1263 1873q0 -41 -39 -63l-260 -147q-25 -14 -43 -14q-25 0 -52 22l-180 146q-29 24 -29 56q0 31 22.5 54.5t53.5 23.5q26 0 48 -18l145 -118l221 125q19 11 39 11q30 0 52 -24t22 -54zM1366 1425q0 -75 -75 -75h-392l-347 -1294q-15 -56 -71 -56q-77 0 -77 72q0 11 3 22
l336 1256h-352q-75 0 -75 75t75 75h900q75 0 75 -75z" />
    <glyph glyph-name="tcaron" unicode="&#x165;" 
d="M1038 1873q0 -41 -39 -63l-260 -147q-25 -14 -43 -14q-25 0 -52 22l-180 146q-29 24 -29 56q0 31 22.5 54.5t53.5 23.5q26 0 48 -18l145 -118l221 125q19 11 39 11q30 0 52 -24t22 -54zM1046 224q0 -28 -24 -53q-165 -171 -393 -171q-157 0 -259.5 98.5t-102.5 254.5
q0 60 15 116l116 431h-127q-75 0 -75 75t75 75h167l106 394q15 56 70 56q78 0 78 -72q0 -11 -99 -378h353q75 0 75 -75t-75 -75h-393l-126 -469q-11 -41 -11 -79q0 -93 61 -148q58 -54 152 -54q144 0 288 129q24 22 52 22q31 0 54 -23t23 -54z" />
    <glyph glyph-name="Tbar" unicode="&#x166;" 
d="M1366 1425q0 -75 -75 -75h-392l-141 -525h127q75 0 75 -75t-75 -75h-167l-166 -619q-15 -56 -71 -56q-77 0 -77 72q0 11 3 22l156 581h-128q-75 0 -75 75t75 75h168l140 525h-352q-75 0 -75 75t75 75h900q75 0 75 -75z" />
    <glyph glyph-name="tbar" unicode="&#x167;" 
d="M1046 224q0 -27 -24 -53q-71 -76 -180 -123.5t-213 -47.5q-157 0 -259.5 98.5t-102.5 254.5q0 48 11 97h-128q-75 0 -75 75t75 75h167l81 300h-127q-75 0 -75 75t75 75h167l106 394q15 56 70 56q78 0 78 -72q0 -12 -99 -378h353q75 0 75 -75t-75 -75h-393l-80 -300h352
q75 0 75 -75t-75 -75h-392q-17 -58 -17 -98q0 -93 61 -148q58 -54 152 -54q137 0 288 129q26 22 52 22q31 0 54 -23t23 -54z" />
    <glyph glyph-name="Utilde" unicode="&#x168;" 
d="M1318 1802q0 -29 -29 -63q-75 -89 -217 -89q-83 0 -163.5 75t-96.5 75q-59 0 -104 -38t-64 -38q-31 0 -55 21.5t-24 52.5q0 29 29 63q76 89 218 89q82 0 162.5 -75t97.5 -75q42 0 62 12.5t43 26.5q23 37 62 37q31 0 55 -21.5t24 -52.5zM1317 1428q0 -11 -3 -22l-255 -950
q-51 -191 -217 -322q-167 -134 -363 -134q-165 0 -273.5 103.5t-108.5 268.5q0 59 17 122l255 950q15 56 70 56q78 0 78 -72q0 -11 -3 -22l-255 -950q-12 -45 -12 -85q0 -101 65 -161t167 -60q144 0 272 103q125 101 163 242l255 949q15 56 70 56q78 0 78 -72z" />
    <glyph glyph-name="utilde" unicode="&#x169;" 
d="M1197 1352q0 -29 -29 -63q-75 -89 -217 -89q-82 0 -163 75t-97 75q-59 0 -104 -38t-64 -38q-30 0 -54 22t-24 52q0 29 29 63q75 89 217 89q82 0 163 -75t97 -75q43 0 62 12l44 27q22 37 62 37q30 0 54 -22t24 -52zM1196 978q0 -13 -137 -522q-51 -190 -218 -323
t-362 -133q-166 0 -273.5 103.5t-107.5 268.5q0 62 16 122l134 500q15 56 71 56q77 0 77 -72q0 -11 -3 -22l-134 -500q-12 -45 -12 -85q0 -101 65 -161t167 -60q144 0 272 103q125 101 163 241l134 500q15 56 71 56q77 0 77 -72z" />
    <glyph glyph-name="Umacron" unicode="&#x16a;" 
d="M1417 1800q0 -75 -75 -75h-800q-75 0 -75 75t75 75h800q75 0 75 -75zM1317 1428q0 -11 -3 -22l-255 -950q-51 -191 -217 -322q-167 -134 -363 -134q-165 0 -273.5 103.5t-108.5 268.5q0 59 17 122l255 950q15 56 70 56q78 0 78 -72q0 -11 -3 -22l-255 -950
q-12 -45 -12 -85q0 -101 65 -161t167 -60q144 0 272 103q125 101 163 242l255 949q15 56 70 56q78 0 78 -72z" />
    <glyph glyph-name="umacron" unicode="&#x16b;" 
d="M1196 1350q0 -75 -75 -75h-600q-75 0 -75 75t75 75h600q75 0 75 -75zM1196 978q0 -13 -137 -522q-51 -190 -218 -323t-362 -133q-166 0 -273.5 103.5t-107.5 268.5q0 62 16 122l134 500q15 56 71 56q77 0 77 -72q0 -11 -3 -22l-134 -500q-12 -45 -12 -85q0 -101 65 -161
t167 -60q144 0 272 103q125 101 163 241l134 500q15 56 71 56q77 0 77 -72z" />
    <glyph glyph-name="Ubreve" unicode="&#x16c;" 
d="M1264 1875q0 -30 -49 -79q-146 -145 -274 -145q-146 0 -266 181q-15 23 -15 44q0 31 24 53t55 22q29 0 96 -76.5t107 -76.5q67 0 188 126q26 27 55 27q31 0 55 -22.5t24 -53.5zM1317 1428q0 -11 -3 -22l-255 -950q-51 -191 -217 -322q-167 -134 -363 -134
q-165 0 -273.5 103.5t-108.5 268.5q0 59 17 122l255 950q15 56 70 56q78 0 78 -72q0 -11 -3 -22l-255 -950q-12 -45 -12 -85q0 -101 65 -161t167 -60q144 0 272 103q125 101 163 242l255 949q15 56 70 56q78 0 78 -72z" />
    <glyph glyph-name="ubreve" unicode="&#x16d;" 
d="M1144 1425q0 -30 -50 -79q-146 -145 -273 -145q-147 0 -267 182q-14 21 -14 43q0 30 24 52.5t54 22.5q29 0 96 -76.5t107 -76.5q68 0 189 126q26 27 55 27q30 0 54.5 -23t24.5 -53zM1196 978q0 -13 -137 -522q-51 -190 -218 -323t-362 -133q-166 0 -273.5 103.5
t-107.5 268.5q0 62 16 122l134 500q15 56 71 56q77 0 77 -72q0 -11 -3 -22l-134 -500q-12 -45 -12 -85q0 -101 65 -161t167 -60q144 0 272 103q125 101 163 241l134 500q15 56 71 56q77 0 77 -72z" />
    <glyph glyph-name="Uring" unicode="&#x16e;" 
d="M1145 1767q0 -101 -79 -175.5t-180 -74.5q-79 0 -132 49t-53 128q0 101 79.5 177.5t180.5 76.5q80 0 132 -51t52 -130zM996 1767q0 31 -35 31q-36 0 -73.5 -33t-37.5 -69q0 -29 36 -29q38 0 74 31.5t36 68.5zM1317 1428q0 -11 -3 -22l-255 -950q-51 -191 -217 -322
q-167 -134 -363 -134q-165 0 -273.5 103.5t-108.5 268.5q0 59 17 122l255 950q15 56 70 56q78 0 78 -72q0 -11 -3 -22l-255 -950q-12 -45 -12 -85q0 -101 65 -161t167 -60q144 0 272 103q125 101 163 242l255 949q15 56 70 56q78 0 78 -72z" />
    <glyph glyph-name="uring" unicode="&#x16f;" 
d="M1033 1347q0 -101 -79 -175.5t-181 -74.5q-79 0 -132 49.5t-53 127.5q0 101 80 177.5t181 76.5q80 0 132 -51t52 -130zM1196 978q0 -13 -137 -522q-51 -190 -218 -323t-362 -133q-166 0 -273.5 103.5t-107.5 268.5q0 62 16 122l134 500q15 56 71 56q77 0 77 -72
q0 -11 -3 -22l-134 -500q-12 -45 -12 -85q0 -101 65 -161t167 -60q144 0 272 103q125 101 163 241l134 500q15 56 71 56q77 0 77 -72zM883 1347q0 31 -34 31q-36 0 -73.5 -33t-37.5 -69q0 -29 35 -29q38 0 74 31t36 69z" />
    <glyph glyph-name="Udblacute" unicode="&#x170;" 
d="M1412 1872q0 -46 -45 -66l-340 -150q-16 -7 -33 -7q-73 0 -73 79q0 46 45 66l340 150q16 7 33 7q73 0 73 -79zM962 1872q0 -46 -45 -66l-340 -150q-16 -7 -33 -7q-73 0 -73 79q0 46 45 66l340 150q16 7 33 7q73 0 73 -79zM1317 1428q0 -11 -3 -22l-255 -950
q-51 -191 -217 -322q-167 -134 -363 -134q-165 0 -273.5 103.5t-108.5 268.5q0 59 17 122l255 950q15 56 70 56q78 0 78 -72q0 -11 -3 -22l-255 -950q-12 -45 -12 -85q0 -101 65 -161t167 -60q144 0 272 103q125 101 163 242l255 949q15 56 70 56q78 0 78 -72z" />
    <glyph glyph-name="udblacute" unicode="&#x171;" 
d="M1292 1422q0 -46 -46 -66l-340 -150q-16 -7 -33 -7q-31 0 -52 24t-21 55q0 46 46 66l340 150q16 7 33 7q31 0 52 -24t21 -55zM842 1422q0 -46 -46 -66l-340 -150q-16 -7 -33 -7q-31 0 -52 24t-21 55q0 46 46 66l340 150q16 7 33 7q31 0 52 -24t21 -55zM1196 978
q0 -13 -137 -522q-51 -190 -218 -323t-362 -133q-166 0 -273.5 103.5t-107.5 268.5q0 62 16 122l134 500q15 56 71 56q77 0 77 -72q0 -11 -3 -22l-134 -500q-12 -45 -12 -85q0 -101 65 -161t167 -60q144 0 272 103q125 101 163 241l134 500q15 56 71 56q77 0 77 -72z" />
    <glyph glyph-name="Uogonek" unicode="&#x172;" 
d="M1317 1428q0 -11 -3 -22l-255 -950q-51 -191 -216 -323q-168 -133 -364 -133q-81 0 -149 -65.5t-68 -146.5q0 -88 97 -88q65 0 137 57t87 57q30 0 54 -23t24 -53q0 -24 -19 -48q-110 -140 -283 -140q-107 0 -177.5 67.5t-70.5 174.5q0 159 142 274q-156 104 -156 306
q0 59 17 122l255 950q15 56 70 56q78 0 78 -72q0 -11 -3 -22l-255 -950q-12 -45 -12 -85q0 -101 65 -161t167 -60q144 0 272 103q125 101 163 242l255 949q15 56 70 56q78 0 78 -72z" />
    <glyph glyph-name="uogonek" unicode="&#x173;" 
d="M1196 978q0 -13 -137 -522q-51 -190 -218 -323t-362 -133q-81 0 -149 -65.5t-68 -146.5q0 -88 97 -88q65 0 137 57t87 57q30 0 54 -23t24 -53q0 -24 -19 -48q-110 -140 -283 -140q-107 0 -177.5 67.5t-70.5 174.5q0 159 142 273q-155 106 -155 307q0 62 16 122l134 500
q15 56 71 56q77 0 77 -72q0 -11 -3 -22l-134 -500q-12 -45 -12 -85q0 -101 65 -161t167 -60q143 0 270.5 102.5t164.5 241.5l134 500q15 56 71 56q77 0 77 -72z" />
    <glyph glyph-name="Wcircumflex" unicode="&#x174;" 
d="M1223 1727q0 -31 -22.5 -54.5t-53.5 -23.5q-26 0 -48 18l-145 118l-221 -125q-19 -11 -38 -11q-31 0 -52.5 23.5t-21.5 54.5q0 41 39 63l259 147q25 14 43 14q25 0 52 -22l180 -146q29 -24 29 -56zM1367 1428q0 -17 -7 -33l-583 -1342q-23 -53 -71 -53q-77 0 -77 73
q0 -48 11 583l-315 -608q-25 -49 -68 -49q-79 0 -79 74q1 -1 3 18l136 1342q7 67 73 67q76 0 76 -73v-10l-97 -958l280 542q26 50 70 50q78 0 78 -75q0 57 -11 -525l436 1004q20 46 67 46q31 0 54.5 -21t23.5 -52z" />
    <glyph glyph-name="wcircumflex" unicode="&#x175;" 
d="M1102 1277q0 -31 -22.5 -54.5t-53.5 -23.5q-25 0 -47 18l-145 118l-221 -125q-19 -11 -39 -11q-30 0 -52 24t-22 54q0 41 39 63l259 147q25 14 43 14q26 0 53 -22l179 -146q29 -24 29 -56zM1247 977q0 -20 -11 -39l-506 -890q-28 -49 -69 -49q-74 0 -77 85l-10 322
l-204 -358q-28 -49 -69 -49q-74 0 -77 85l-28 889q-2 77 75 77q73 0 75 -73l20 -634l199 350l-9 280q-2 77 75 77q73 0 75 -73l20 -633l379 668q22 39 63 39q31 0 55 -21.5t24 -52.5z" />
    <glyph glyph-name="Ycircumflex" unicode="&#x176;" 
d="M1223 1727q0 -31 -22.5 -54.5t-53.5 -23.5q-26 0 -48 18l-145 118l-221 -125q-19 -11 -38 -11q-31 0 -52.5 23.5t-21.5 54.5q0 41 39 63l259 147q25 14 43 14q25 0 52 -22l180 -146q29 -24 29 -56zM1368 1425q0 -27 -22 -51l-618 -662l-176 -656q-15 -56 -71 -56
q-77 0 -77 72q0 11 3 22l174 651l-260 652q-6 15 -6 31q0 31 24 52t55 21q48 0 67 -48l225 -565l550 588q23 25 54 25t54.5 -22.5t23.5 -53.5z" />
    <glyph glyph-name="ycircumflex" unicode="&#x177;" 
d="M1077 1277q0 -31 -22.5 -54.5t-53.5 -23.5q-25 0 -47 18l-145 118l-221 -125q-19 -11 -39 -11q-30 0 -52 24t-22 54q0 41 39 63l259 147q25 14 43 14q26 0 53 -22l179 -146q29 -24 29 -56zM1146 978q0 -11 -3 -22l-261 -975q-48 -180 -205.5 -305.5t-342.5 -125.5
q-121 0 -214 62q-97 64 -132 177q-4 13 -4 25q0 73 78 73q48 0 69 -53q53 -134 203 -134q134 0 251 95q113 92 152 224q3 12 21 80q-146 -99 -304 -99q-157 0 -259.5 98.5t-102.5 254.5q0 60 15 116l141 525q15 56 70 56q78 0 78 -72q0 -11 -3 -22l-141 -525
q-11 -41 -11 -79q0 -93 61 -148q58 -54 152 -54q134 0 251 94t152 225l141 525q15 56 70 56q78 0 78 -72z" />
    <glyph glyph-name="Ydieresis" unicode="&#x178;" 
d="M1271 1773q0 -50 -37.5 -86.5t-87.5 -36.5q-44 0 -73.5 29.5t-29.5 73.5q0 50 36.5 86t86.5 36q44 0 74.5 -29t30.5 -73zM821 1773q0 -50 -37.5 -86.5t-87.5 -36.5q-44 0 -73.5 29.5t-29.5 73.5q0 50 36.5 86t86.5 36q44 0 74.5 -29t30.5 -73zM1368 1425q0 -27 -22 -51
l-618 -662l-176 -656q-15 -56 -71 -56q-77 0 -77 72q0 11 3 22l174 651l-260 652q-6 15 -6 31q0 31 24 52t55 21q48 0 67 -48l225 -565l550 588q23 25 54 25t54.5 -22.5t23.5 -53.5z" />
    <glyph glyph-name="Zacute" unicode="&#x179;" 
d="M1187 1872q0 -46 -45 -66l-340 -150q-16 -7 -33 -7q-73 0 -73 79q0 46 45 66l340 150q16 7 33 7q73 0 73 -79zM1367 1425q0 -29 -31 -62l-1134 -1213h727q75 0 75 -75t-75 -75l-898 -1q-78 0 -78 76q0 29 31 62l1134 1213h-727q-75 0 -75 75t75 75l898 1q78 0 78 -76z
" />
    <glyph glyph-name="zacute" unicode="&#x17a;" 
d="M1067 1422q0 -46 -46 -66l-340 -150q-16 -7 -33 -7q-31 0 -52 24t-21 55q0 46 46 66l340 150q16 7 33 7q31 0 52 -24t21 -55zM1246 974q0 -35 -39 -66l-961 -758h683q75 0 75 -75t-75 -75l-899 -1q-76 0 -76 77q0 35 39 66l961 758h-683q-75 0 -75 75t75 75l899 1
q76 0 76 -77z" />
    <glyph glyph-name="Zdot" unicode="&#x17b;" 
d="M1046 1773q0 -50 -37 -86.5t-87 -36.5q-45 0 -74.5 29t-29.5 74q0 50 37 86t87 36q44 0 74 -29t30 -73zM1367 1425q0 -29 -31 -62l-1134 -1213h727q75 0 75 -75t-75 -75l-898 -1q-78 0 -78 76q0 29 31 62l1134 1213h-727q-75 0 -75 75t75 75l898 1q78 0 78 -76z" />
    <glyph glyph-name="zdot" unicode="&#x17c;" 
d="M925 1323q0 -50 -37 -86.5t-87 -36.5q-44 0 -73.5 29.5t-29.5 73.5q0 50 36.5 86t86.5 36q44 0 74 -29t30 -73zM1246 974q0 -35 -39 -66l-961 -758h683q75 0 75 -75t-75 -75l-899 -1q-76 0 -76 77q0 35 39 66l961 758h-683q-75 0 -75 75t75 75l899 1q76 0 76 -77z" />
    <glyph glyph-name="Zcaron" unicode="&#x17d;" 
d="M1263 1873q0 -38 -55 -75l-88 -50q-157 -95 -191 -95q-46 0 -240 164q-29 25 -29 56t22.5 54.5t53.5 23.5q26 0 48 -18l145 -118q240 136 260 136q30 0 52 -24t22 -54zM1367 1425q0 -29 -31 -62l-1134 -1213h727q75 0 75 -75t-75 -75l-898 -1q-78 0 -78 76q0 29 31 62
l1134 1213h-727q-75 0 -75 75t75 75l898 1q78 0 78 -76z" />
    <glyph glyph-name="zcaron" unicode="&#x17e;" 
d="M1142 1423q0 -40 -39 -63q-265 -157 -295 -157q-46 0 -239 164q-29 25 -29 56t22.5 54.5t53.5 23.5q25 0 47 -18l146 -118q240 136 259 136q30 0 52 -24t22 -54zM1246 974q0 -35 -39 -66l-961 -758h683q75 0 75 -75t-75 -75l-899 -1q-76 0 -76 77q0 35 39 66l961 758
h-683q-75 0 -75 75t75 75l899 1q76 0 76 -77z" />
    <glyph glyph-name="longs" unicode="&#x17f;" 
d="M1322 1255q0 -31 -23.5 -52t-54.5 -21q-38 0 -64 40q-83 128 -239 128q-165 0 -310 -117t-188 -278l-362 -1349q-15 -56 -70 -56q-78 0 -78 72q0 11 3 22l362 1350q56 210 241.5 358t401.5 148q117 0 216 -52q106 -56 156 -155q9 -18 9 -38z" />
    <glyph glyph-name="florin" unicode="&#x192;" 
d="M1274 1363q0 -87 -66 -87q-20 0 -58.5 37t-83.5 37q-169 0 -267 -300h147q75 0 75 -75t-75 -75h-189q-21 -85 -91 -451q-75 -390 -143 -554q-143 -345 -389 -345q-208 0 -208 137q0 87 66 87q20 0 58.5 -37t83.5 -37q211 0 314 473q40 203 150 727q-106 0 -112 1
q-65 12 -65 74q0 75 75 75h145q144 450 425 450q208 0 208 -137z" />
    <glyph glyph-name="Aringacute" unicode="&#x1fa;" 
d="M1203 1874q0 -48 -48 -67l-336 -135q-15 -6 -31 -6q-31 0 -52 23.5t-21 54.5q0 48 48 67l336 135q15 6 31 6q73 0 73 -78zM1076 1506q0 -80 -59 -144q-55 -60 -136 -80l124 -1209q7 -73 -77 -73q-66 0 -73 67l-35 338h-491l-236 -370q-23 -36 -61 -36q-31 0 -55 22
t-24 53q0 21 13 41l756 1184q-89 48 -89 144q0 97 79 166t177 69q78 0 132.5 -47.5t54.5 -124.5zM926 1503q0 25 -37 25q-34 0 -68 -24q-38 -26 -38 -58q0 -21 38 -21q32 0 68.5 23.5t36.5 54.5zM805 555l-53 513l-327 -513h380z" />
    <glyph glyph-name="aringacute" unicode="&#x1fb;" 
d="M1217 1797q0 -46 -45 -66l-340 -150q-16 -7 -33 -7q-73 0 -73 79q0 46 45 66l340 150q16 7 33 7q73 0 73 -79zM1083 1347q0 -101 -79 -175.5t-181 -74.5q-79 0 -132 49.5t-53 127.5q0 101 80 177.5t181 76.5q80 0 132 -51t52 -130zM1120 875q0 -7 -218 -819
q-15 -56 -70 -56q-78 0 -78 72q0 12 8 40q-159 -112 -333 -112q-165 0 -273.5 103.5t-108.5 268.5q0 61 17 122q65 233 264 393q204 163 443 163q220 0 325 -120q24 -27 24 -55zM933 1347q0 31 -34 31q-36 0 -73.5 -33t-37.5 -69q0 -29 35 -29q38 0 74 31t36 69zM960 851
q-69 49 -189 49q-185 0 -350 -132t-212 -312q-12 -46 -12 -85q0 -101 65 -161t167 -60q145 0 271.5 103.5t163.5 240.5z" />
    <glyph glyph-name="AEacute" unicode="&#x1fc;" 
d="M1242 1797q0 -46 -45 -66l-340 -150q-16 -7 -33 -7q-73 0 -73 79q0 46 45 66l340 150q16 7 33 7q73 0 73 -79zM1366 1425q0 -75 -75 -75h-302l-141 -525h262q75 0 75 -75t-75 -75h-302l-141 -525h262q75 0 75 -75t-75 -75h-361q-74 0 -74 73q0 11 5 30l93 347h-222
l-278 -417q-23 -34 -60 -34q-31 0 -55 22t-24 53q0 22 14 43l896 1341q29 43 66 43l362 -1q75 0 75 -75zM741 1005l-271 -405h162z" />
    <glyph glyph-name="aeacute" unicode="&#x1fd;" 
d="M1157 1422q0 -46 -45 -66l-340 -150q-16 -7 -33 -7q-73 0 -73 79q0 46 45 66l340 150q16 7 33 7q73 0 73 -79zM1198 836q0 -181 -190 -342q-50 -42 -345 -230q32 -114 124 -114q36 0 90 26.5t67 26.5q31 0 53 -24t22 -55q0 -54 -92 -92q-77 -32 -140 -32q-146 0 -219 116
q-15 -63 -23 -77q-21 -39 -63 -39q-61 0 -76 53q-75 -53 -152 -53q-110 0 -169 101q-48 83 -48 202q0 223 146 470q164 277 369 277q142 0 202 -123q134 123 274 123q170 0 170 -214zM1050 837q0 63 -22 63q-132 0 -248 -172q-98 -146 -122 -296q392 225 392 405zM614 868
q-20 32 -62 32q-77 0 -167 -104q-120 -138 -176 -340q-19 -68 -19 -168q0 -138 64 -138q56 0 125 81q90 106 135 263q14 54 100 374z" />
    <glyph glyph-name="Oslashacute" unicode="&#x1fe;" 
d="M1172 1872q0 -46 -45 -66l-340 -150q-16 -7 -33 -7q-73 0 -73 79q0 46 45 66l340 150q16 7 33 7q73 0 73 -79zM1368 1425q0 -27 -22 -51l-152 -163q22 -84 22 -186q0 -338 -196 -659q-224 -366 -541 -366q-188 0 -286 140l-109 -116q-23 -25 -54 -25q-30 0 -53.5 23
t-23.5 53q0 27 22 51l151 163q-21 84 -21 186q0 338 196 659q224 366 540 366q189 0 287 -140l108 116q23 25 54 25t54.5 -22.5t23.5 -53.5zM1016 1240q-66 110 -175 110q-128 0 -266 -125q-210 -191 -292 -494q-34 -126 -34 -236q0 -37 4 -71zM1072 1005q0 37 -4 71
l-763 -816q65 -110 174 -110q129 0 267 125q144 130 235 333t91 397z" />
    <glyph glyph-name="oslashacute" unicode="&#x1ff;" 
d="M1067 1422q0 -46 -46 -66l-340 -150q-16 -7 -33 -7q-31 0 -52 24t-21 55q0 46 46 66l340 150q16 7 33 7q31 0 52 -24t21 -55zM1247 973q0 -33 -30 -57l-116 -91q40 -85 40 -184q0 -251 -205 -446t-457 -195q-175 0 -291 105q-134 -106 -159 -106q-31 0 -53.5 23.5
t-22.5 54.5q0 33 30 57l116 91q-40 84 -40 184q0 251 206 448q203 193 456 193q175 0 291 -105q134 106 159 106q31 0 53.5 -23.5t22.5 -54.5zM895 853q-68 47 -174 47q-199 0 -354 -151.5t-155 -350.5q0 -40 9 -76zM988 652q0 40 -9 76l-674 -531q68 -47 174 -47
q199 0 354 151.5t155 350.5z" />
    <glyph glyph-name="circumflex" unicode="&#x2c6;" 
d="M1223 1727q0 -31 -22.5 -54.5t-53.5 -23.5q-26 0 -48 18l-145 118q-240 -136 -259 -136q-31 0 -52.5 23.5t-21.5 54.5q0 40 39 63q264 157 294 157q46 0 240 -164q29 -25 29 -56z" />
    <glyph glyph-name="caron" unicode="&#x2c7;" 
d="M1263 1873q0 -40 -39 -63q-265 -157 -295 -157q-46 0 -240 164q-29 25 -29 56t22.5 54.5t53.5 23.5q26 0 48 -18l145 -118q240 136 260 136q30 0 52 -24t22 -54z" />
    <glyph glyph-name="macron" unicode="&#x2c9;" 
d="M1467 1800q0 -75 -75 -75h-900q-75 0 -75 75t75 75h900q75 0 75 -75z" />
    <glyph glyph-name="breve" unicode="&#x2d8;" 
d="M1264 1875q0 -30 -49 -79q-146 -145 -274 -145q-146 0 -266 181q-15 23 -15 44q0 31 24 53t55 22q29 0 96 -76.5t107 -76.5q67 0 188 126q26 27 55 27q31 0 55 -22.5t24 -53.5z" />
    <glyph glyph-name="dotaccent" unicode="&#x2d9;" 
d="M1046 1773q0 -50 -37.5 -86.5t-87.5 -36.5q-44 0 -73.5 29.5t-29.5 73.5q0 50 36.5 86t86.5 36q44 0 74.5 -29t30.5 -73z" />
    <glyph glyph-name="ring" unicode="&#x2da;" 
d="M1145 1767q0 -101 -79 -175.5t-180 -74.5q-79 0 -132 49t-53 128q0 101 79.5 177.5t180.5 76.5q80 0 132 -51t52 -130zM996 1767q0 31 -35 31q-36 0 -73.5 -33t-37.5 -69q0 -29 36 -29q38 0 74 31.5t36 68.5z" />
    <glyph glyph-name="ogonek" unicode="&#x2db;" 
d="M676 -262q0 -24 -19 -48q-110 -140 -283 -140q-107 0 -177.5 67.5t-70.5 174.5q0 141 113 249.5t255 108.5q75 0 75 -75t-75 -75q-81 0 -149.5 -65.5t-68.5 -146.5q0 -88 98 -88q63 0 136 57t88 57q30 0 54 -23t24 -53z" />
    <glyph glyph-name="tilde" unicode="&#x2dc;" 
d="M1318 1802q0 -29 -29 -63q-75 -89 -217 -89q-83 0 -163.5 75t-96.5 75q-59 0 -104 -38t-64 -38q-31 0 -55 21.5t-24 52.5q0 29 29 63q76 89 218 89q82 0 162.5 -75t97.5 -75q42 0 62 12.5t43 26.5q23 37 62 37q31 0 55 -21.5t24 -52.5z" />
    <glyph glyph-name="hungarumlaut" unicode="&#x2dd;" 
d="M1412 1872q0 -46 -45 -66l-340 -150q-16 -7 -33 -7q-73 0 -73 79q0 46 45 66l340 150q16 7 33 7q73 0 73 -79zM962 1872q0 -46 -45 -66l-340 -150q-16 -7 -33 -7q-73 0 -73 79q0 46 45 66l340 150q16 7 33 7q73 0 73 -79z" />
    <glyph glyph-name="tonos" unicode="&#x384;" 
d="M1037 1878q0 -11 -56 -222q-15 -56 -71 -56q-77 0 -77 72q0 11 56 222q15 56 71 56q77 0 77 -72z" />
    <glyph glyph-name="dieresistonos" unicode="&#x385;" 
d="M1346 1773q0 -50 -37.5 -86.5t-87.5 -36.5q-44 0 -73.5 29.5t-29.5 73.5q0 50 36.5 86t86.5 36q44 0 74.5 -29t30.5 -73zM1037 1878q0 -11 -57 -222q-15 -56 -70 -56q-78 0 -78 72q0 11 57 222q15 56 70 56q78 0 78 -72zM746 1773q0 -50 -37.5 -86.5t-87.5 -36.5
q-44 0 -73.5 29.5t-29.5 73.5q0 50 36.5 86t86.5 36q44 0 74.5 -29t30.5 -73z" />
    <glyph glyph-name="Alphatonos" unicode="&#x386;" 
d="M1037 1878q0 -11 -56 -222q-15 -56 -71 -56q-77 0 -77 72q0 11 56 222q15 56 71 56q77 0 77 -72zM1004 74q5 -74 -75 -74q-69 0 -74 70l-25 380h-488l-248 -414q-22 -37 -62 -37q-31 0 -55 21.5t-24 52.5q0 21 12 41l806 1339q29 48 68 48q73 0 78 -83zM820 600l-38 581
l-349 -581h387z" />
    <glyph glyph-name="anoteleia" unicode="&#x387;" 
d="M721 556q0 -49 -38 -85.5t-87 -36.5q-45 0 -75 29.5t-30 74.5q0 50 37 85.5t88 35.5q45 0 75 -29t30 -74z" />
    <glyph glyph-name="Epsilontonos" unicode="&#x388;" 
d="M1112 1878q0 -11 -56 -222q-15 -56 -71 -56q-77 0 -77 72q0 11 56 222q15 56 71 56q77 0 77 -72zM1366 1425q0 -75 -75 -75h-742l-141 -525h702q75 0 75 -75t-75 -75h-742l-141 -525h702q75 0 75 -75t-75 -75h-800q-75 0 -75 70q0 11 365 1374q5 20 28 38t44 18h800
q75 0 75 -75z" />
    <glyph glyph-name="Etatonos" unicode="&#x389;" 
d="M1037 1878q0 -11 -56 -222q-15 -56 -71 -56q-77 0 -77 72q0 11 56 222q15 56 71 56q77 0 77 -72zM1267 1428q0 -11 -365 -1372q-15 -56 -71 -56q-77 0 -77 72q0 11 3 22l156 581h-545l-166 -619q-15 -56 -71 -56q-77 0 -77 72q0 11 365 1372q15 56 70 56q78 0 78 -72
q0 -11 -3 -22l-156 -581h545l166 619q15 56 70 56q78 0 78 -72z" />
    <glyph glyph-name="Iotatonos" unicode="&#x38a;" 
d="M1037 1878q0 -11 -56 -222q-15 -56 -71 -56q-77 0 -77 72q0 11 56 222q15 56 71 56q77 0 77 -72zM1216 1425q0 -75 -75 -75h-242l-322 -1200h202q75 0 75 -75t-75 -75h-600q-75 0 -75 75t75 75h243l321 1200h-202q-75 0 -75 75t75 75h600q75 0 75 -75z" />
    <glyph glyph-name="Omicrontonos" unicode="&#x38c;" 
d="M1037 1878q0 -11 -56 -222q-15 -56 -71 -56q-77 0 -77 72q0 11 56 222q15 56 71 56q77 0 77 -72zM1216 1025q0 -338 -196 -659q-224 -366 -541 -366q-194 0 -291 147q-83 125 -83 328q0 338 196 659q224 366 540 366q194 0 292 -147q83 -124 83 -328zM1072 1005
q0 128 -51 225q-63 120 -180 120q-133 0 -276 -135q-204 -192 -282 -484q-34 -126 -34 -236q0 -129 50 -225q62 -120 180 -120q134 0 277 135q203 192 283 485q33 125 33 235z" />
    <glyph glyph-name="Upsilontonos" unicode="&#x38e;" 
d="M1037 1878q0 -11 -56 -222q-15 -56 -71 -56q-77 0 -77 72q0 11 56 222q15 56 71 56q77 0 77 -72zM1368 1425q0 -27 -22 -51l-618 -662l-176 -656q-15 -56 -71 -56q-77 0 -77 72q0 11 3 22l174 651l-260 652q-6 15 -6 31q0 31 24 52t55 21q48 0 67 -48l225 -565l550 588
q23 25 54 25t54.5 -22.5t23.5 -53.5z" />
    <glyph glyph-name="Omegatonos" unicode="&#x38f;" 
d="M1037 1878q0 -11 -56 -222q-15 -56 -71 -56q-77 0 -77 72q0 11 56 222q15 56 71 56q77 0 77 -72zM1213 1026q0 -174 -56 -363q-61 -207 -163 -327q-50 -59 -183 -186h118q75 0 75 -75t-75 -75h-62q-55 -1 -87 -1h-149q-78 0 -78 76q0 30 32 62.5t118 117.5
q159 154 210 227q77 111 125 287q34 125 34 236q0 128 -51 225q-63 120 -180 120q-170 0 -335 -196q-132 -157 -203 -351q-55 -151 -55 -281q0 -81 32 -162q6 -15 72 -149q53 -108 53 -138q0 -73 -79 -73h-297q-75 0 -75 75t75 75h186q-28 56 -82 169q-40 88 -40 182
q0 314 216 640q238 359 532 359q372 0 372 -474z" />
    <glyph glyph-name="iotadieresistonos" unicode="&#x390;" 
d="M1346 1773q0 -50 -37.5 -86.5t-87.5 -36.5q-44 0 -73.5 29.5t-29.5 73.5q0 50 36.5 86t86.5 36q44 0 74.5 -29t30.5 -73zM1037 1878q0 -11 -57 -222q-15 -56 -70 -56q-78 0 -78 72q0 11 57 222q15 56 70 56q78 0 78 -72zM746 1773q0 -50 -37.5 -86.5t-87.5 -36.5
q-44 0 -73.5 29.5t-29.5 73.5q0 50 36.5 86t86.5 36q44 0 74.5 -29t30.5 -73zM1216 1425q0 -75 -75 -75h-242l-322 -1200h202q75 0 75 -75t-75 -75h-600q-75 0 -75 75t75 75h243l321 1200h-202q-75 0 -75 75t75 75h600q75 0 75 -75z" />
    <glyph glyph-name="Alpha" unicode="&#x391;" 
d="M1004 74q5 -74 -75 -74q-69 0 -74 70l-25 380h-488l-248 -414q-22 -37 -62 -37q-31 0 -55 21.5t-24 52.5q0 21 12 41l806 1339q29 48 68 48q73 0 78 -83zM820 600l-38 581l-349 -581h387z" />
    <glyph glyph-name="Beta" unicode="&#x392;" 
d="M1217 1213q0 -115 -59.5 -221.5t-156.5 -169.5q112 -93 112 -264q0 -229 -165 -394t-394 -165l-425 1q-75 0 -75 70q0 11 365 1374q5 20 28 38t44 18h425q137 0 218 -74q83 -77 83 -213zM1070 1209q0 141 -154 141h-367l-121 -450h327q120 0 217.5 94.5t97.5 214.5z
M966 555q0 195 -211 195h-367l-161 -600l327 -1q160 0 286 123.5t126 282.5z" />
    <glyph glyph-name="Gamma" unicode="&#x393;" 
d="M1366 1425q0 -75 -75 -75h-742l-347 -1294q-15 -56 -71 -56q-77 0 -77 72q0 11 3 22l360 1346q16 60 79 60h795q75 0 75 -75z" />
    <glyph glyph-name="Delta" unicode="&#x394;" 
d="M1004 74q5 -74 -76 -74h-885h-5q-3 -1 -5 -1q-79 0 -79 75q0 22 18 52l799 1327q29 48 68 48q73 0 78 -83zM849 150l-67 1031l-620 -1031h687z" />
    <glyph glyph-name="Epsilon" unicode="&#x395;" 
d="M1366 1425q0 -75 -75 -75h-742l-141 -525h702q75 0 75 -75t-75 -75h-742l-141 -525h702q75 0 75 -75t-75 -75h-800q-75 0 -75 70q0 11 365 1374q5 20 28 38t44 18h800q75 0 75 -75z" />
    <glyph glyph-name="Zeta" unicode="&#x396;" 
d="M1367 1425q0 -29 -31 -62l-1134 -1213h727q75 0 75 -75t-75 -75l-898 -1q-78 0 -78 76q0 29 31 62l1134 1213h-727q-75 0 -75 75t75 75l898 1q78 0 78 -76z" />
    <glyph glyph-name="Eta" unicode="&#x397;" 
d="M1267 1428q0 -11 -365 -1372q-15 -56 -71 -56q-77 0 -77 72q0 11 3 22l156 581h-545l-166 -619q-15 -56 -71 -56q-77 0 -77 72q0 11 365 1372q15 56 70 56q78 0 78 -72q0 -11 -3 -22l-156 -581h545l166 619q15 56 70 56q78 0 78 -72z" />
    <glyph glyph-name="Theta" unicode="&#x398;" 
d="M1216 1025q0 -338 -196 -659q-224 -366 -541 -366q-194 0 -291 147q-83 125 -83 328q0 338 196 659q224 366 540 366q194 0 292 -147q83 -124 83 -328zM1072 1005q0 128 -51 225q-63 120 -180 120q-133 0 -276 -135q-204 -192 -282 -484q-34 -126 -34 -236
q0 -129 50 -225q62 -120 180 -120q134 0 277 135q203 192 283 485q33 125 33 235zM985 750q0 -75 -75 -75h-500q-75 0 -75 75t75 75h500q75 0 75 -75z" />
    <glyph glyph-name="Theta" unicode="&#x472;" 
d="M1216 1025q0 -338 -196 -659q-224 -366 -541 -366q-194 0 -291 147q-83 125 -83 328q0 338 196 659q224 366 540 366q194 0 292 -147q83 -124 83 -328zM1072 1005q0 128 -51 225q-63 120 -180 120q-133 0 -276 -135q-204 -192 -282 -484q-34 -126 -34 -236
q0 -129 50 -225q62 -120 180 -120q134 0 277 135q203 192 283 485q33 125 33 235zM985 750q0 -75 -75 -75h-500q-75 0 -75 75t75 75h500q75 0 75 -75z" />
    <glyph glyph-name="Iota" unicode="&#x399;" 
d="M1216 1425q0 -75 -75 -75h-242l-322 -1200h202q75 0 75 -75t-75 -75h-600q-75 0 -75 75t75 75h243l321 1200h-202q-75 0 -75 75t75 75h600q75 0 75 -75z" />
    <glyph glyph-name="Kappa" unicode="&#x39a;" 
d="M1367 1423q0 -32 -29 -56l-776 -631l429 -618q15 -22 15 -44q0 -31 -24 -53t-55 -22q-36 0 -59 33l-469 675q-11 16 -14 32l-183 -683q-15 -56 -71 -56q-77 0 -77 72q0 11 3 22l362 1350q15 56 70 56q78 0 78 -72q0 -11 -3 -22l-164 -611q7 8 13 13l831 675q22 18 47 18
q31 0 53.5 -23.5t22.5 -54.5z" />
    <glyph glyph-name="Lambda" unicode="&#x39b;" 
d="M1004 74q5 -74 -75 -74q-69 0 -74 70l-73 1111l-688 -1145q-22 -37 -62 -37q-31 0 -55 21.5t-24 52.5q0 21 12 41l806 1339q29 48 68 48q73 0 78 -83z" />
    <glyph glyph-name="Mu" unicode="&#x39c;" 
d="M1187 1427q-1 -3 -3 -20l-180 -1342q-9 -65 -73 -65q-77 0 -77 73q0 5 1 12l125 929l-349 -665q-26 -50 -69 -50q-78 0 -78 75q0 123 3 326l5 326l-393 -979q-19 -48 -67 -48q-31 0 -54.5 21t-23.5 52q0 16 6 31l538 1342q22 55 71 55q78 0 78 -73q0 -165 -3 -371
l-6 -370l403 767q25 48 68 48q78 0 78 -74z" />
    <glyph glyph-name="Nu" unicode="&#x39d;" 
d="M1267 1428q0 -11 -3 -22l-359 -1340q-18 -66 -76 -66t-75 67l-265 1059l-287 -1070q-15 -56 -71 -56q-77 0 -77 72q0 11 3 22l359 1340q18 66 76 66t75 -67l265 -1059l287 1070q15 56 70 56q78 0 78 -72z" />
    <glyph glyph-name="Xi" unicode="&#x39e;" 
d="M1366 1425q0 -75 -75 -75h-900q-75 0 -75 75t75 75h900q75 0 75 -75zM1035 750q0 -75 -75 -75h-600q-75 0 -75 75t75 75h600q75 0 75 -75zM1004 75q0 -75 -75 -75h-900q-75 0 -75 75t75 75h900q75 0 75 -75z" />
    <glyph glyph-name="Omicron" unicode="&#x39f;" 
d="M1216 1025q0 -338 -196 -659q-224 -366 -541 -366q-194 0 -291 147q-83 125 -83 328q0 338 196 659q224 366 540 366q194 0 292 -147q83 -124 83 -328zM1072 1005q0 128 -51 225q-63 120 -180 120q-133 0 -276 -135q-204 -192 -282 -484q-34 -126 -34 -236
q0 -129 50 -225q62 -120 180 -120q134 0 277 135q203 192 283 485q33 125 33 235z" />
    <glyph glyph-name="Pi" unicode="&#x3a0;" 
d="M1267 1430q0 -13 -3 -24l-362 -1350q-15 -56 -71 -56q-77 0 -77 72q0 11 3 22l336 1256h-544l-347 -1294q-15 -56 -71 -56q-77 0 -77 72q0 11 3 22l362 1350q5 20 28 38t44 18h700q76 0 76 -70z" />
    <glyph glyph-name="Rho" unicode="&#x3a1;" 
d="M1274 1160q0 -228 -165.5 -394t-393.5 -166h-367l-146 -544q-15 -56 -71 -56q-77 0 -77 72q0 10 365 1372q5 20 28 38t44 18h425q163 0 259 -88q99 -91 99 -252zM1127 1156q0 194 -211 194h-367l-161 -600h327q160 0 286 123.5t126 282.5z" />
    <glyph glyph-name="Sigma" unicode="&#x3a3;" 
d="M1366 1425q0 -75 -75 -75h-752l407 -556q16 -22 16 -45q0 -34 -30 -58l-686 -541h683q75 0 75 -75t-75 -75l-899 -1q-76 0 -76 77q0 35 39 66l789 622l-443 605q-24 33 -24 56q0 76 79 76l897 -1q75 0 75 -75z" />
    <glyph glyph-name="Tau" unicode="&#x3a4;" 
d="M1366 1425q0 -75 -75 -75h-392l-347 -1294q-15 -56 -71 -56q-77 0 -77 72q0 11 3 22l336 1256h-352q-75 0 -75 75t75 75h900q75 0 75 -75z" />
    <glyph glyph-name="Upsilon" unicode="&#x3a5;" 
d="M1368 1425q0 -27 -22 -51l-618 -662l-176 -656q-15 -56 -71 -56q-77 0 -77 72q0 11 3 22l174 651l-260 652q-6 15 -6 31q0 31 24 52t55 21q48 0 67 -48l225 -565l550 588q23 25 54 25t54.5 -22.5t23.5 -53.5z" />
    <glyph glyph-name="Phi" unicode="&#x3a6;" 
d="M1201 866q0 -235 -185 -426q-181 -187 -418 -212l-46 -172q-15 -56 -71 -56q-77 0 -77 72q0 11 40 162q-149 29 -237 138.5t-88 261.5q0 234 186 426q181 187 417 212l47 172q15 56 70 56q78 0 78 -72q0 -11 -41 -162q149 -29 237 -138.5t88 -261.5zM1048 877
q0 215 -211 244l-197 -735q166 35 287 179t121 312zM680 1112q-162 -40 -283 -175q-128 -142 -128 -304q0 -100 57.5 -168.5t156.5 -85.5z" />
    <glyph glyph-name="Chi" unicode="&#x3a7;" 
d="M1368 1425q0 -27 -22 -51l-598 -640l251 -631q6 -15 6 -31q0 -31 -23.5 -52t-54.5 -21q-48 0 -67 48l-226 565l-550 -588q-23 -25 -54 -25q-30 0 -53.5 23t-23.5 53q0 27 22 51l598 640l-252 631q-6 15 -6 31q0 31 24 52t55 21q48 0 67 -48l225 -565l550 588q23 25 54 25
t54.5 -22.5t23.5 -53.5z" />
    <glyph glyph-name="Psi" unicode="&#x3a8;" 
d="M1367 1428q0 -11 -3 -22q-237 -903 -706 -953l-106 -397q-15 -56 -71 -56q-77 0 -77 72q0 11 101 387q-277 53 -277 439q0 188 66 453q21 86 25 95q22 54 70 54q78 0 78 -72q0 -10 -3 -22q-89 -352 -89 -500q0 -265 169 -300l225 838q15 56 70 56q78 0 78 -72
q0 -11 -3 -22l-212 -792q283 83 457 625q16 57 60 205q17 56 70 56q78 0 78 -72z" />
    <glyph glyph-name="Psi" unicode="&#x470;" 
d="M1367 1428q0 -11 -3 -22q-237 -903 -706 -953l-106 -397q-15 -56 -71 -56q-77 0 -77 72q0 11 101 387q-277 53 -277 439q0 188 66 453q21 86 25 95q22 54 70 54q78 0 78 -72q0 -10 -3 -22q-89 -352 -89 -500q0 -265 169 -300l225 838q15 56 70 56q78 0 78 -72
q0 -11 -3 -22l-212 -792q283 83 457 625q16 57 60 205q17 56 70 56q78 0 78 -72z" />
    <glyph glyph-name="Omega" unicode="&#x3a9;" 
d="M1213 1026q0 -174 -56 -363q-61 -207 -163 -327q-50 -59 -183 -186h118q75 0 75 -75t-75 -75h-62q-55 -1 -87 -1h-149q-78 0 -78 76q0 30 32 62.5t118 117.5q159 154 210 227q77 111 125 287q34 125 34 236q0 128 -51 225q-63 120 -180 120q-170 0 -335 -196
q-132 -157 -203 -351q-55 -151 -55 -281q0 -81 32 -162q6 -15 72 -149q53 -108 53 -138q0 -73 -79 -73h-297q-75 0 -75 75t75 75h186q-28 56 -82 169q-40 88 -40 182q0 314 216 640q238 359 532 359q372 0 372 -474z" />
    <glyph glyph-name="Iotadieresis" unicode="&#x3aa;" 
d="M1271 1773q0 -50 -37.5 -86.5t-87.5 -36.5q-44 0 -73.5 29.5t-29.5 73.5q0 50 36.5 86t86.5 36q44 0 74.5 -29t30.5 -73zM821 1773q0 -50 -37.5 -86.5t-87.5 -36.5q-44 0 -73.5 29.5t-29.5 73.5q0 50 36.5 86t86.5 36q44 0 74.5 -29t30.5 -73zM1216 1425q0 -75 -75 -75
h-242l-322 -1200h202q75 0 75 -75t-75 -75h-600q-75 0 -75 75t75 75h243l321 1200h-202q-75 0 -75 75t75 75h600q75 0 75 -75z" />
    <glyph glyph-name="Upsilondieresis" unicode="&#x3ab;" 
d="M1271 1773q0 -50 -37 -86.5t-87 -36.5q-45 0 -74.5 29t-29.5 74q0 50 37 86t87 36q44 0 74 -29t30 -73zM821 1773q0 -50 -37 -86.5t-87 -36.5q-45 0 -74.5 29t-29.5 74q0 50 37 86t87 36q44 0 74 -29t30 -73zM1368 1425q0 -27 -22 -51l-618 -662l-176 -656
q-15 -56 -71 -56q-77 0 -77 72q0 11 3 22l174 651l-260 652q-6 15 -6 31q0 31 24 52t55 21q48 0 67 -48l225 -565l550 588q23 25 54 25t54.5 -22.5t23.5 -53.5z" />
    <glyph glyph-name="alphatonos" unicode="&#x3ac;" 
d="M840 1478q0 -11 -57 -222q-15 -56 -70 -56q-78 0 -78 72q0 11 57 222q15 56 70 56q78 0 78 -72zM1246 978q0 -65 -90 -238q-67 -128 -133 -228q14 -88 14 -179q0 -172 -35 -277q-19 -56 -71 -56q-77 0 -77 72q0 10 3 22q32 130 33 240q-278 -334 -501 -334
q-161 0 -248 105q-81 97 -81 262q0 250 158 458q171 225 413 225q120 0 219 -117q77 -91 125 -227q66 114 100 214q6 21 24 75.5t69 54.5q78 0 78 -72zM868 544q-34 152 -120 269q-64 87 -117 87q-174 0 -305 -184q-119 -167 -119 -348q0 -218 182 -218q94 0 264 158
q125 116 215 236z" />
    <glyph glyph-name="epsilontonos" unicode="&#x3ad;" 
d="M898 1478q0 -11 -57 -222q-15 -56 -70 -56q-78 0 -78 72q0 11 57 222q15 56 70 56q78 0 78 -72zM1186 747q0 -31 -23.5 -52t-54.5 -21q-37 0 -59 34q-13 20 -38 61q-102 131 -323 131q-93 0 -236 -48q-173 -58 -173 -130q0 -63 119 -97q87 -25 170 -25q75 0 75 -75
t-75 -75q-94 0 -237 -48q-173 -58 -173 -130q0 -62 120 -97q87 -25 169 -25q233 0 422 144q1 1 67 59q26 23 53 23q31 0 54 -23t23 -54q0 -42 -99 -119q-232 -180 -520 -180q-159 0 -277 53q-157 70 -157 210q0 172 219 272q-99 72 -99 178q0 71 49 139q143 198 506 198
q158 0 287 -64q147 -72 204 -205q7 -16 7 -34z" />
    <glyph glyph-name="etatonos" unicode="&#x3ae;" 
d="M930 1478q0 -11 -57 -222q-15 -56 -70 -56q-78 0 -78 72q0 11 57 222q15 56 70 56q78 0 78 -72zM1108 697q0 -60 -15 -116l-262 -975q-15 -56 -70 -56q-78 0 -78 72q0 11 3 22l262 975q11 41 11 79q0 93 -59.5 147.5t-153.5 54.5q-133 0 -250.5 -94.5t-152.5 -224.5
l-141 -525q-15 -56 -70 -56q-78 0 -78 72q0 11 3 22l241 900q15 56 70 56q78 0 78 -72q0 -12 -4 -27q146 99 304 99t260 -98t102 -255z" />
    <glyph glyph-name="iotatonos" unicode="&#x3af;" 
d="M705 1478q0 -11 -57 -222q-15 -56 -70 -56q-78 0 -78 72q0 11 57 222q15 56 70 56q78 0 78 -72zM1046 224q0 -28 -24 -53q-165 -171 -393 -171q-157 0 -259.5 98.5t-102.5 254.5q0 57 16 117l140 524q15 56 71 56q77 0 77 -72q0 -11 -3 -22l-141 -525q-11 -41 -11 -79
q0 -93 61 -148q58 -54 152 -54q141 0 288 129q25 22 52 22q31 0 54 -23t23 -54z" />
    <glyph glyph-name="upsilondieresistonos" unicode="&#x3b0;" 
d="M1225 1323q0 -50 -37.5 -86.5t-87.5 -36.5q-44 0 -73.5 29.5t-29.5 73.5q0 50 37 86t87 36q44 0 74 -29t30 -73zM916 1428q0 -11 -56 -222q-15 -56 -71 -56q-77 0 -77 72q0 11 56 222q15 56 71 56q77 0 77 -72zM625 1323q0 -50 -37.5 -86.5t-87.5 -36.5q-44 0 -73.5 29.5
t-29.5 73.5q0 50 37 86t87 36q44 0 74 -29t30 -73zM1103 678q0 -59 -17 -122l-27 -100q-52 -191 -216 -323q-168 -133 -364 -133q-166 0 -273.5 103.5t-107.5 268.5q0 62 16 122l134 500q15 56 71 56q77 0 77 -72q0 -11 -3 -22l-134 -500q-12 -45 -12 -85q0 -101 65 -161
t167 -60q145 0 271 101t164 243l27 100q12 44 12 85q0 101 -65 161t-167 60q-75 0 -75 75t75 75q166 0 274 -103.5t108 -268.5z" />
    <glyph glyph-name="alpha" unicode="&#x3b1;" 
d="M1246 978q0 -65 -90 -238q-67 -128 -133 -228q14 -88 14 -179q0 -172 -35 -277q-19 -56 -71 -56q-77 0 -77 72q0 10 3 22q32 130 33 240q-278 -334 -501 -334q-161 0 -248 105q-81 97 -81 262q0 250 158 458q171 225 413 225q120 0 219 -117q77 -91 125 -227
q66 114 100 214q6 21 24 75.5t69 54.5q78 0 78 -72zM868 544q-34 152 -120 269q-64 87 -117 87q-174 0 -305 -184q-119 -167 -119 -348q0 -218 182 -218q94 0 264 158q125 116 215 236z" />
    <glyph glyph-name="beta" unicode="&#x3b2;" 
d="M1286 1164q0 -134 -92 -253q-83 -108 -213 -171q124 -97 124 -251q0 -203 -189 -351q-177 -138 -387 -138q-195 0 -310 121l-138 -515q-15 -56 -70 -56q-78 0 -78 72q0 11 3 22l392 1463q46 173 217 286q161 107 346 107q160 0 272 -86q123 -95 123 -250zM1133 1166
q0 184 -242 184q-133 0 -255 -77q-130 -82 -163 -205l-181 -675q-7 -26 -7 -53q0 -95 78 -146q66 -44 166 -44q117 0 220 54q107 56 164 154q40 69 40 135q0 182 -243 182q-75 0 -75 75t75 75h5q211 0 341 152q77 90 77 189z" />
    <glyph glyph-name="gamma" unicode="&#x3b3;" 
d="M1246 974q0 -27 -29 -58q-25 -20 -88 -74q-480 -423 -577 -786l-121 -450q-15 -56 -70 -56q-78 0 -78 72q0 11 3 22l121 450q22 82 22 183q0 274 -150 545q-16 28 -69 109q-16 24 -16 45q0 30 24 52.5t54 22.5q33 0 59 -32q86 -106 153 -278q63 -160 84 -307
q102 155 255 322q162 178 301 278q25 18 47 18q31 0 53 -23.5t22 -54.5z" />
    <glyph glyph-name="delta" unicode="&#x3b4;" 
d="M1141 641q0 -251 -205 -446t-457 -195q-183 0 -301.5 113.5t-118.5 295.5q0 195 135 366q127 164 316 235q-37 59 -37 132q0 141 113 249.5t255 108.5q183 0 237 -166q4 -12 4 -25q0 -72 -78 -72q-36 0 -70.5 56.5t-92.5 56.5q-81 0 -149.5 -65.5t-68.5 -146.5
q0 -88 98 -88q183 0 301.5 -113.5t118.5 -295.5zM988 652q0 120 -74 186q-71 62 -193 62q-199 0 -354 -151.5t-155 -350.5q0 -120 74 -186q71 -62 193 -62q199 0 354 151.5t155 350.5z" />
    <glyph glyph-name="epsilon" unicode="&#x3b5;" 
d="M1186 747q0 -31 -23.5 -52t-54.5 -21q-37 0 -59 34q-13 20 -38 61q-102 131 -323 131q-93 0 -236 -48q-173 -58 -173 -130q0 -63 119 -97q87 -25 170 -25q75 0 75 -75t-75 -75q-94 0 -237 -48q-173 -58 -173 -130q0 -62 120 -97q87 -25 169 -25q233 0 422 144q1 1 67 59
q26 23 53 23q31 0 54 -23t23 -54q0 -42 -99 -119q-232 -180 -520 -180q-159 0 -277 53q-157 70 -157 210q0 172 219 272q-99 72 -99 178q0 71 49 139q143 198 506 198q158 0 287 -64q147 -72 204 -205q7 -16 7 -34z" />
    <glyph glyph-name="zeta" unicode="&#x3b6;" 
d="M1366 1425q0 -75 -75 -75q-179 0 -356 -54q-224 -68 -397 -206q-201 -160 -255 -359q-10 -38 -61 -226q-8 -30 -8 -66q0 -147 141 -225q115 -64 274 -64q132 0 218 -57q100 -67 100 -193q0 -159 -144 -260q-128 -90 -294 -90q-162 0 -246 86q-25 26 -25 54q0 31 23 54
t54 23q6 0 69.5 -33.5t124.5 -33.5q95 0 184 50q105 59 105 147q0 103 -169 103q-216 0 -379 105q-188 121 -188 326q0 56 76 338q98 364 529 581h-276q-75 0 -75 75t75 75h900q75 0 75 -75z" />
    <glyph glyph-name="eta" unicode="&#x3b7;" 
d="M1108 697q0 -60 -15 -116l-262 -975q-15 -56 -70 -56q-78 0 -78 72q0 11 3 22l262 975q11 41 11 79q0 93 -59.5 147.5t-153.5 54.5q-133 0 -250.5 -94.5t-152.5 -224.5l-141 -525q-15 -56 -70 -56q-78 0 -78 72q0 11 3 22l241 900q15 56 70 56q78 0 78 -72q0 -12 -4 -27
q146 99 304 99t260 -98t102 -255z" />
    <glyph glyph-name="theta" unicode="&#x3b8;" 
d="M1127 1076q0 -211 -54 -369q-18 -58 -72 -205q-74 -186 -199 -327q-154 -175 -323 -175q-156 0 -229 142q-57 110 -57 282q0 208 55 369q17 58 71 205q75 186 199 327q154 175 323 175q286 0 286 -424zM977 1077q0 96 -25 169q-36 104 -111 104q-138 0 -270 -201
q-92 -140 -154 -324h529q31 138 31 252zM903 675h-528q-32 -138 -32 -252q0 -95 26 -169q36 -104 110 -104q139 0 271 201q92 140 153 324z" />
    <glyph glyph-name="theta" unicode="&#x473;" 
d="M1127 1076q0 -211 -54 -369q-18 -58 -72 -205q-74 -186 -199 -327q-154 -175 -323 -175q-156 0 -229 142q-57 110 -57 282q0 208 55 369q17 58 71 205q75 186 199 327q154 175 323 175q286 0 286 -424zM977 1077q0 96 -25 169q-36 104 -111 104q-138 0 -270 -201
q-92 -140 -154 -324h529q31 138 31 252zM903 675h-528q-32 -138 -32 -252q0 -95 26 -169q36 -104 110 -104q139 0 271 201q92 140 153 324z" />
    <glyph glyph-name="iota" unicode="&#x3b9;" 
d="M1046 224q0 -28 -24 -53q-165 -171 -393 -171q-157 0 -259.5 98.5t-102.5 254.5q0 57 16 117l140 524q15 56 71 56q77 0 77 -72q0 -11 -3 -22l-141 -525q-11 -41 -11 -79q0 -93 61 -148q58 -54 152 -54q141 0 288 129q25 22 52 22q31 0 54 -23t23 -54z" />
    <glyph glyph-name="kappa" unicode="&#x3ba;" 
d="M1246 975q0 -32 -29 -59q-22 -19 -77 -71q-237 -238 -237 -471q0 -125 87 -255q16 -24 16 -45q0 -30 -24 -52.5t-54 -22.5q-34 0 -59 32q-114 145 -114 340q0 103 36 209l-715 -564q-22 -17 -47 -17q-31 0 -53.5 23.5t-22.5 54.5q0 33 30 57q311 244 311 542
q0 127 -84 255q-15 23 -15 45q0 30 23.5 52.5t53.5 22.5q55 0 110 -123q59 -131 59 -270q0 -93 -28 -185l708 558q27 21 50 21q30 0 52.5 -23.5t22.5 -53.5z" />
    <glyph glyph-name="lambda" unicode="&#x3bb;" 
d="M1005 72q0 -31 -23.5 -52t-54.5 -21q-48 0 -67 48l-226 565l-550 -588q-23 -25 -54 -25q-30 0 -53.5 23t-23.5 53q0 27 22 51l598 640l-252 631q-6 15 -6 31q0 31 24 52t55 21q48 0 67 -48l538 -1350q6 -15 6 -31z" />
    <glyph glyph-name="mu" unicode="&#x3bc;" 
d="M1146 978q0 -11 -3 -22l-241 -900q-15 -56 -71 -56q-77 0 -77 73q0 6 1 13q-133 -86 -276 -86q-165 0 -262 111l-136 -505q-15 -56 -70 -56q-78 0 -78 72q0 11 3 22l362 1350q15 56 70 56q78 0 78 -72q0 -11 -3 -22l-147 -550q-10 -37 -10 -72q0 -85 53.5 -134.5
t139.5 -49.5q124 0 232.5 88.5t139.5 205.5l147 550q15 56 70 56q78 0 78 -72z" />
    <glyph glyph-name="nu" unicode="&#x3bd;" 
d="M1214 879q0 -34 -9 -66q-61 -220 -566 -777q-34 -37 -65 -37q-54 0 -76 65l-303 914q0 72 78 72q52 0 69 -51l261 -777q461 527 461 654v8q-5 6 -84 19q-59 9 -59 72q0 75 79 75q214 0 214 -171z" />
    <glyph glyph-name="xi" unicode="&#x3be;" 
d="M1366 1425q0 -75 -75 -75h-300q-294 0 -426 -201q-45 -68 -45 -134q0 -101 97 -151q75 -39 187 -39q84 0 84 -75t-79 -75h-149q-292 0 -424 -200q-44 -67 -44 -134q0 -137 165 -175q69 -16 272 -16q123 0 216 -63q106 -72 106 -189q0 -160 -203 -269q-147 -79 -277 -79
q-136 0 -202 96q-16 23 -16 45q0 31 24 53.5t55 22.5q23 0 59.5 -33.5t79.5 -33.5q81 0 196 56q132 64 132 135q0 111 -220 111q-23 0 -60 -1q-42 -1 -46 -1q-169 5 -292 87q-144 95 -144 255q0 162 138 293q119 113 289 162q-99 90 -99 217q0 192 185 336h-159
q-75 0 -75 75t75 75h900q75 0 75 -75z" />
    <glyph glyph-name="omicron" unicode="&#x3bf;" 
d="M1141 641q0 -251 -205 -446t-457 -195q-183 0 -301.5 113.5t-118.5 295.5q0 251 206 448q203 193 456 193q183 0 301.5 -113.5t118.5 -295.5zM988 652q0 120 -74 186q-71 62 -193 62q-199 0 -354 -151.5t-155 -350.5q0 -120 74 -186q71 -62 193 -62q199 0 354 151.5
t155 350.5z" />
    <glyph glyph-name="pi" unicode="&#x3c0;" 
d="M1146 977q0 -11 -5 -30l-239 -891q-15 -56 -70 -56q-78 0 -78 72q0 11 3 22l216 806h-545l-226 -844q-15 -56 -70 -56q-78 0 -78 72q0 11 3 22l241 900q15 56 73 56h701q74 0 74 -73z" />
    <glyph glyph-name="rho" unicode="&#x3c1;" 
d="M1141 641q0 -195 -135 -366q-127 -164 -316 -235q37 -59 37 -132q0 -141 -113 -249.5t-255 -108.5q-183 0 -237 166q-4 12 -4 25q0 72 78 72q36 0 70.5 -56.5t92.5 -56.5q81 0 149.5 65.5t68.5 146.5q0 88 -98 88q-183 0 -301.5 113.5t-118.5 295.5q0 251 206 448
q203 193 456 193q183 0 301.5 -113.5t118.5 -295.5zM988 652q0 120 -74 186q-71 62 -193 62q-199 0 -354 -151.5t-155 -350.5q0 -120 74 -186q71 -62 193 -62q199 0 354 151.5t155 350.5z" />
    <glyph glyph-name="sigma1" unicode="&#x3c2;" 
d="M1212 843q0 -31 -23.5 -53.5t-54.5 -22.5q-26 0 -54 26q-115 107 -282 107q-164 0 -304 -75q-145 -77 -224 -216q-55 -97 -55 -194q0 -136 108 -206q91 -59 234 -59q116 0 197 -65q88 -70 88 -183q0 -147 -132 -253q-123 -99 -274 -99q-202 0 -268 160q-6 15 -6 31
q0 31 23.5 52t54.5 21q27 0 73 -57t123 -57q88 0 167 56q88 62 88 147q0 97 -134 97q-201 0 -342 108q-154 118 -154 314q0 260 243 450q227 178 494 178q264 0 393 -157q21 -25 21 -50z" />
    <glyph glyph-name="sigma" unicode="&#x3c3;" 
d="M1246 975q0 -75 -75 -75h-224q67 -103 67 -243q0 -239 -179 -444q-186 -213 -420 -213q-165 0 -264 116q-94 109 -94 277q0 239 179 444q186 213 420 213h515q75 0 75 -75zM866 662q0 101 -54 167q-57 71 -156 71q-173 0 -315 -172q-135 -163 -135 -340q0 -102 53 -167
q57 -71 156 -71q172 0 315 172q136 164 136 340z" />
    <glyph glyph-name="tau" unicode="&#x3c4;" 
d="M1246 975q0 -75 -75 -75h-393l-166 -619q-5 -19 -5 -40q0 -65 86 -89t86 -77q0 -75 -75 -75q-107 0 -177 68t-70 174q0 40 10 77l156 581h-352q-75 0 -75 75t75 75h900q75 0 75 -75z" />
    <glyph glyph-name="upsilon" unicode="&#x3c5;" 
d="M1103 678q0 -59 -17 -122l-27 -100q-52 -191 -217 -322q-167 -134 -363 -134q-166 0 -273.5 103.5t-107.5 268.5q0 62 16 122l134 500q15 56 71 56q77 0 77 -72q0 -11 -3 -22l-134 -500q-12 -45 -12 -85q0 -101 65 -161t167 -60q145 0 271 101t164 243l27 100
q12 44 12 85q0 101 -65 161t-167 60q-75 0 -75 75t75 75q166 0 274 -103.5t108 -268.5z" />
    <glyph glyph-name="phi" unicode="&#x3c6;" 
d="M1175 794q0 -254 -192 -502q-199 -258 -445 -288l-107 -398q-15 -56 -70 -56q-78 0 -78 72q0 11 101 388q-151 35 -228 175q-67 120 -67 288q0 207 98 376q116 201 309 201q75 0 75 -75t-75 -75q-123 0 -198 -161q-60 -129 -60 -269q0 -272 185 -314l145 538
q37 138 135 240q111 116 243 116q229 0 229 -256zM1028 788q0 112 -82 112q-77 0 -149 -87q-62 -74 -84 -157l-132 -490q165 52 306 250t141 372z" />
    <glyph glyph-name="chi" unicode="&#x3c7;" 
d="M1247 975q0 -27 -22 -51l-598 -640l252 -631q6 -15 6 -31q0 -31 -24 -52t-55 -21q-48 0 -67 48l-225 565l-550 -588q-23 -25 -54 -25t-54.5 22.5t-23.5 53.5q0 27 22 51l598 640l-251 631q-6 15 -6 31q0 31 23.5 52t54.5 21q48 0 67 -48l226 -565l550 588q23 25 54 25
q30 0 53.5 -23t23.5 -53z" />
    <glyph glyph-name="psi" unicode="&#x3c8;" 
d="M1246 978q0 -11 -3 -22q-103 -394 -221 -598q-189 -327 -484 -355l-107 -397q-15 -56 -70 -56q-78 0 -78 72q0 11 101 386q-285 50 -285 422q0 181 75 473q24 92 25 94q22 53 69 53q78 0 78 -72q0 -10 -3 -22q-96 -377 -96 -523q0 -252 176 -279l346 1290q15 56 70 56
q78 0 78 -72q0 -11 -3 -22l-333 -1243q293 76 459 623q15 58 58 208q17 56 71 56q77 0 77 -72z" />
    <glyph glyph-name="psi" unicode="&#x471;" 
d="M1246 978q0 -11 -3 -22q-103 -394 -221 -598q-189 -327 -484 -355l-107 -397q-15 -56 -70 -56q-78 0 -78 72q0 11 101 386q-285 50 -285 422q0 181 75 473q24 92 25 94q22 53 69 53q78 0 78 -72q0 -10 -3 -22q-96 -377 -96 -523q0 -252 176 -279l346 1290q15 56 70 56
q78 0 78 -72q0 -11 -3 -22l-333 -1243q293 76 459 623q15 58 58 208q17 56 71 56q77 0 77 -72z" />
    <glyph glyph-name="omega" unicode="&#x3c9;" 
d="M1154 745q0 -121 -37 -255q-48 -175 -143 -311q-124 -179 -270 -179q-148 0 -190 168q-125 -168 -260 -168q-208 0 -208 305q0 121 37 255q48 175 143 311q124 179 270 179q75 0 75 -75t-75 -75q-91 0 -179 -165q-59 -112 -93 -245q-28 -111 -28 -193q0 -147 58 -147
q59 0 136 105q57 78 91 156q22 72 51 145q18 44 66 44q78 0 78 -72q0 -5 -4 -22q-25 -105 -25 -218q0 -138 57 -138q91 0 179 165q59 112 93 245q28 111 28 193q0 147 -58 147q-75 0 -75 75t75 75q208 0 208 -305z" />
    <glyph glyph-name="iotadieresis" unicode="&#x3ca;" 
d="M902 1323q0 -50 -37 -86.5t-87 -36.5q-44 0 -73.5 29.5t-29.5 73.5q0 50 36.5 86t86.5 36q44 0 74 -29t30 -73zM452 1323q0 -50 -37 -86.5t-87 -36.5q-44 0 -73.5 29.5t-29.5 73.5q0 50 36.5 86t86.5 36q44 0 74 -29t30 -73zM1046 224q0 -28 -24 -53q-165 -171 -393 -171
q-157 0 -259.5 98.5t-102.5 254.5q0 57 16 117l140 524q15 56 71 56q77 0 77 -72q0 -11 -3 -22l-141 -525q-11 -41 -11 -79q0 -93 61 -148q58 -54 152 -54q141 0 288 129q25 22 52 22q31 0 54 -23t23 -54z" />
    <glyph glyph-name="upsilondieresis" unicode="&#x3cb;" 
d="M1150 1323q0 -50 -37 -86.5t-87 -36.5q-44 0 -73.5 29.5t-29.5 73.5q0 50 36.5 86t86.5 36q44 0 74 -29t30 -73zM700 1323q0 -50 -37 -86.5t-87 -36.5q-44 0 -73.5 29.5t-29.5 73.5q0 50 36.5 86t86.5 36q44 0 74 -29t30 -73zM1103 678q0 -59 -17 -122l-27 -100
q-52 -191 -216 -323q-168 -133 -364 -133q-166 0 -273.5 103.5t-107.5 268.5q0 62 16 122l134 500q15 56 71 56q77 0 77 -72q0 -11 -3 -22l-134 -500q-12 -45 -12 -85q0 -101 65 -161t167 -60q145 0 271 101t164 243l27 100q12 44 12 85q0 101 -65 161t-167 60q-75 0 -75 75
t75 75q166 0 274 -103.5t108 -268.5z" />
    <glyph glyph-name="omicrontonos" unicode="&#x3cc;" 
d="M930 1478q0 -11 -57 -222q-15 -56 -70 -56q-78 0 -78 72q0 11 57 222q15 56 70 56q78 0 78 -72zM1141 641q0 -251 -205 -446t-457 -195q-183 0 -301.5 113.5t-118.5 295.5q0 251 206 448q203 193 456 193q183 0 301.5 -113.5t118.5 -295.5zM988 652q0 120 -74 186
q-71 62 -193 62q-199 0 -354 -151.5t-155 -350.5q0 -120 74 -186q71 -62 193 -62q199 0 354 151.5t155 350.5z" />
    <glyph glyph-name="upsilontonos" unicode="&#x3cd;" 
d="M934 1494q0 -12 -56 -223q-15 -55 -71 -55q-77 0 -77 72q0 11 56 222q15 56 71 56q77 0 77 -72zM1103 678q0 -59 -17 -122l-27 -100q-52 -191 -217 -322q-167 -134 -363 -134q-166 0 -273.5 103.5t-107.5 268.5q0 62 16 122l134 500q15 56 71 56q77 0 77 -72
q0 -11 -3 -22l-134 -500q-12 -45 -12 -85q0 -101 65 -161t167 -60q145 0 271 101t164 243l27 100q12 44 12 85q0 101 -65 161t-167 60q-75 0 -75 75t75 75q166 0 274 -103.5t108 -268.5z" />
    <glyph glyph-name="omegatonos" unicode="&#x3ce;" 
d="M930 1478q0 -11 -57 -222q-15 -56 -70 -56q-78 0 -78 72q0 11 57 222q15 56 70 56q78 0 78 -72zM1154 745q0 -121 -37 -255q-48 -175 -143 -311q-124 -179 -270 -179q-148 0 -190 168q-125 -168 -260 -168q-208 0 -208 305q0 121 37 255q48 175 143 311q124 179 270 179
q75 0 75 -75t-75 -75q-91 0 -179 -165q-59 -112 -93 -245q-28 -111 -28 -193q0 -147 58 -147q59 0 136 105q57 78 91 156q23 76 51 146q17 43 66 43q78 0 78 -72q0 -5 -4 -22q-25 -105 -25 -218q0 -138 57 -138q91 0 179 165q59 112 93 245q28 111 28 193q0 147 -58 147
q-75 0 -75 75t75 75q208 0 208 -305z" />
    <glyph glyph-name="afii10023" unicode="&#x401;" 
d="M1346 1773q0 -50 -37.5 -86.5t-87.5 -36.5q-44 0 -73.5 29.5t-29.5 73.5q0 50 36.5 86t86.5 36q44 0 74.5 -29t30.5 -73zM896 1773q0 -50 -37.5 -86.5t-87.5 -36.5q-44 0 -73.5 29.5t-29.5 73.5q0 50 36.5 86t86.5 36q44 0 74.5 -29t30.5 -73zM1366 1425q0 -75 -75 -75
h-742l-141 -525h702q75 0 75 -75t-75 -75h-742l-141 -525h702q75 0 75 -75t-75 -75h-800q-75 0 -75 70q0 11 365 1374q5 20 28 38t44 18h800q75 0 75 -75z" />
    <glyph glyph-name="afii10051" unicode="&#x402;" 
d="M1145 708q0 -237 -137 -457q-156 -251 -379 -251q-75 0 -75 75t75 75q155 0 269 211q99 183 99 351q0 188 -126 188q-78 0 -164 -80q-135 -125 -185 -314l-120 -450q-15 -56 -70 -56q-78 0 -78 72q0 7 124 472l215 806h-202q-75 0 -75 75t75 75h600q75 0 75 -75t-75 -75
h-242l-103 -385q111 85 225 85q140 0 212 -105q62 -90 62 -237z" />
    <glyph glyph-name="afii10052" unicode="&#x403;" 
d="M1262 1872q0 -46 -45 -66l-340 -150q-16 -7 -33 -7q-73 0 -73 79q0 46 45 66l340 150q16 7 33 7q73 0 73 -79zM1366 1425q0 -75 -75 -75h-742l-347 -1294q-15 -56 -71 -56q-77 0 -77 72q0 11 3 22l360 1346q16 60 79 60h795q75 0 75 -75z" />
    <glyph glyph-name="afii10053" unicode="&#x404;" 
d="M1314 1225q0 -31 -23.5 -52t-54.5 -21q-36 0 -61 36q-15 21 -41 63q-81 99 -216 99q-202 0 -373 -169q-145 -143 -225 -356h790q75 0 75 -75t-75 -75h-834q-18 -87 -18 -166q0 -158 69 -252q78 -107 230 -107q164 0 374 177q26 22 51 22q30 0 53.5 -23.5t23.5 -53.5
q0 -28 -25 -54q-88 -93 -218 -154q-137 -64 -259 -64q-218 0 -341 163q-110 147 -110 372q0 334 238 640q253 325 574 325q269 0 387 -238q9 -18 9 -37z" />
    <glyph glyph-name="afii10054" unicode="&#x405;" 
d="M1179 1274q0 -31 -24 -52.5t-55 -21.5q-36 0 -65 43q-71 107 -226 107q-244 0 -358 -174q-39 -60 -39 -117q0 -159 236 -159q182 0 316 -92q152 -104 152 -278q0 -229 -226 -387q-204 -143 -443 -143q-139 0 -253 54q-129 62 -182 177q-8 17 -8 34q0 74 78 74
q36 0 57 -30l36 -56q88 -103 272 -103q140 0 263 57q133 61 203 172q49 78 49 154q0 116 -105 172q-83 45 -209 45q-150 0 -263 78q-126 87 -126 232q0 189 185 321q167 119 365 119q270 0 361 -191q9 -19 9 -35z" />
    <glyph glyph-name="afii10055" unicode="&#x406;" 
d="M1216 1425q0 -75 -75 -75h-242l-322 -1200h202q75 0 75 -75t-75 -75h-600q-75 0 -75 75t75 75h243l321 1200h-202q-75 0 -75 75t75 75h600q75 0 75 -75z" />
    <glyph glyph-name="afii10056" unicode="&#x407;" 
d="M1271 1773q0 -50 -37.5 -86.5t-87.5 -36.5q-44 0 -73.5 29.5t-29.5 73.5q0 50 36.5 86t86.5 36q44 0 74.5 -29t30.5 -73zM821 1773q0 -50 -37.5 -86.5t-87.5 -36.5q-44 0 -73.5 29.5t-29.5 73.5q0 50 36.5 86t86.5 36q44 0 74.5 -29t30.5 -73zM1216 1425q0 -75 -75 -75
h-243l-321 -1200h202q75 0 75 -75t-75 -75h-600q-75 0 -75 75t75 75h242l322 1200h-202q-75 0 -75 75t75 75h600q75 0 75 -75z" />
    <glyph glyph-name="afii10057" unicode="&#x408;" 
d="M1267 1427q0 -8 -6 -30l-359 -1341q-56 -211 -240 -357q-187 -149 -403 -149q-116 0 -215 52q-106 55 -156 154q-11 22 -11 38q0 31 24 52.5t55 21.5q38 0 63 -40q79 -128 240 -128q164 0 311 118q144 116 187 276l336 1256h-702q-75 0 -75 75t75 75h802q74 0 74 -73z
" />
    <glyph glyph-name="afii10058" unicode="&#x409;" 
d="M1118 547q0 -213 -174 -380t-388 -167q-77 0 -77 73q0 11 5 30l239 892l-631 -961q-23 -35 -60 -35q-31 0 -55 22t-24 53q0 21 14 42l882 1344q27 41 65 41q78 0 78 -75q0 -8 -5 -27l-137 -509q123 -29 195.5 -122.5t72.5 -220.5zM966 556q0 162 -154 189l-156 -581
q126 35 218 149t92 243z" />
    <glyph glyph-name="afii10059" unicode="&#x40a;" 
d="M1114 561q0 -228 -166 -394.5t-394 -166.5q-75 0 -75 70q0 13 3 24l176 656h-270l-186 -694q-15 -56 -71 -56q-77 0 -77 72q0 11 3 22l362 1350q15 56 70 56q78 0 78 -72q0 -11 -3 -22l-136 -506h270l146 544q15 56 70 56q78 0 78 -72q0 -11 -3 -22l-138 -515
q126 -24 194.5 -112t68.5 -218zM967 552q0 164 -155 193l-156 -579q129 40 217 145q94 111 94 241z" />
    <glyph glyph-name="afii10060" unicode="&#x40b;" 
d="M882 0q-78 0 -78 72q0 11 3 22l141 525q17 63 17 123q0 158 -119 158q-146 0 -227 -133q-49 -80 -97 -261l-120 -450q-15 -56 -71 -56q-77 0 -77 72q0 12 4 27l335 1251h-202q-75 0 -75 75t75 75h600q75 0 75 -75t-75 -75h-241q-33 -133 -108 -399q95 99 204 99
q134 0 204 -96q62 -85 62 -224q0 -78 -19 -149l-141 -525q-15 -56 -70 -56z" />
    <glyph glyph-name="afii10061" unicode="&#x40c;" 
d="M1202 1872q0 -46 -45 -66l-340 -150q-16 -7 -33 -7q-73 0 -73 79q0 46 45 66l340 150q16 7 33 7q73 0 73 -79zM1367 1423q0 -32 -29 -56l-776 -631l429 -618q15 -22 15 -44q0 -31 -24 -53t-55 -22q-36 0 -59 33l-469 675q-11 16 -14 32l-183 -683q-15 -56 -71 -56
q-77 0 -77 72q0 11 3 22l362 1350q15 56 70 56q78 0 78 -72q0 -11 -3 -22l-164 -611q7 8 13 13l831 675q22 18 47 18q31 0 53.5 -23.5t22.5 -54.5z" />
    <glyph glyph-name="afii10062" unicode="&#x40e;" 
d="M1264 1875q0 -30 -49 -79q-146 -145 -274 -145q-146 0 -266 181q-15 23 -15 44q0 31 24 53t55 22q29 0 96 -76.5t107 -76.5q67 0 188 126q26 27 55 27q31 0 55 -22.5t24 -53.5zM1368 1425q0 -27 -22 -51l-1262 -1350q-23 -25 -54 -25q-30 0 -53.5 23t-23.5 53q0 27 22 51
l598 640l-252 631q-6 15 -6 31q0 31 24 52t55 21q48 0 67 -48l225 -565l550 588q23 25 54 25t54.5 -22.5t23.5 -53.5z" />
    <glyph glyph-name="afii10145" unicode="&#x40f;" 
d="M1267 1428q0 -11 -3 -22l-361 -1346q-16 -60 -78 -60h-288l-106 -394q-15 -56 -70 -56q-78 0 -78 72q0 11 3 22l96 356h-253q-75 0 -75 70q0 13 3 24l362 1350q15 56 70 56q78 0 78 -72q0 -11 -3 -22l-337 -1256h545l347 1294q15 56 70 56q78 0 78 -72z" />
    <glyph glyph-name="afii10017" unicode="&#x410;" 
d="M1004 74q5 -74 -75 -74q-69 0 -74 70l-25 380h-488l-248 -414q-22 -37 -62 -37q-31 0 -55 21.5t-24 52.5q0 21 12 41l806 1339q29 48 68 48q73 0 78 -83zM820 600l-38 581l-349 -581h387z" />
    <glyph glyph-name="afii10018" unicode="&#x411;" 
d="M1366 1425q0 -75 -75 -75h-742l-121 -450h327q163 0 260.5 -90t97.5 -252q0 -229 -165 -393.5t-394 -164.5h-425q-75 0 -75 70q0 13 3 24l362 1350q5 20 28 38t44 18h800q75 0 75 -75zM966 556q0 194 -211 194h-367l-161 -600h327q160 0 286 123.5t126 282.5z" />
    <glyph glyph-name="afii10019" unicode="&#x412;" 
d="M1217 1213q0 -115 -59.5 -221.5t-156.5 -169.5q112 -93 112 -264q0 -229 -165 -394t-394 -165l-425 1q-75 0 -75 70q0 11 365 1374q5 20 28 38t44 18h425q137 0 218 -74q83 -77 83 -213zM1070 1209q0 141 -154 141h-367l-121 -450h327q120 0 217.5 94.5t97.5 214.5z
M966 555q0 195 -211 195h-367l-161 -600l327 -1q160 0 286 123.5t126 282.5z" />
    <glyph glyph-name="afii10020" unicode="&#x413;" 
d="M1366 1425q0 -75 -75 -75h-742l-347 -1294q-15 -56 -71 -56q-77 0 -77 72q0 11 3 22l360 1346q16 60 79 60h795q75 0 75 -75z" />
    <glyph glyph-name="afii10021" unicode="&#x414;" 
d="M1004 74q5 -74 -76 -74h-885h-5q-3 -1 -5 -1q-79 0 -79 75q0 22 18 52l799 1327q29 48 68 48q73 0 78 -83zM849 150l-67 1031l-620 -1031h687z" />
    <glyph glyph-name="afii10022" unicode="&#x415;" 
d="M1366 1425q0 -75 -75 -75h-742l-141 -525h702q75 0 75 -75t-75 -75h-742l-141 -525h702q75 0 75 -75t-75 -75h-800q-75 0 -75 70q0 11 365 1374q5 20 28 38t44 18h800q75 0 75 -75z" />
    <glyph glyph-name="afii10024" unicode="&#x416;" 
d="M1367 1426q0 -24 -15 -45l-462 -649l113 -644q2 -11 2 -16q0 -72 -77 -72q-61 0 -72 62q-50 272 -121 676l-183 -682q-15 -56 -71 -56q-77 0 -77 72q0 11 3 22l163 608q-2 -1 -479 -671q-23 -32 -60 -32q-30 0 -54 22.5t-24 52.5q0 24 15 45l463 649l-114 644q-1 6 -1 16
q0 72 77 72q61 0 72 -62q50 -272 121 -676l183 682q15 56 70 56q78 0 78 -72q0 -11 -3 -22l-163 -608q3 2 479 671q23 32 59 32q31 0 54.5 -22t23.5 -53z" />
    <glyph glyph-name="afii10025" unicode="&#x417;" 
d="M1205 1193q0 -232 -249 -370q160 -106 160 -289q0 -223 -211 -385q-196 -150 -426 -150q-175 0 -299 93q-137 103 -137 273q0 160 85 160q77 0 77 -73q0 -14 -5.5 -41.5t-5.5 -41.5q0 -108 92 -168q79 -52 193 -52q134 0 250 60q122 63 188 174q46 78 46 155
q0 111 -90 166q-74 46 -192 46q-75 0 -75 75t74 75h1q132 0 246 81q126 89 126 214q0 155 -212 155q-101 0 -195 -50q-97 -51 -147 -135q-11 -19 -26 -59q-21 -56 -70 -56q-78 0 -78 72q0 11 3 22q44 158 198 260q146 96 316 96q146 0 250 -79q113 -86 113 -228z" />
    <glyph glyph-name="afii10026" unicode="&#x418;" 
d="M1267 1425q0 -6 -6 -28l-359 -1341q-15 -56 -71 -56q-77 0 -77 72q0 11 3 22l267 997l-830 -1055q-29 -37 -63 -37q-78 0 -78 76q0 6 6 28l360 1341q15 56 70 56q78 0 78 -72q0 -11 -3 -22l-268 -997l831 1055q29 37 62 37q78 0 78 -76z" />
    <glyph glyph-name="afii10027" unicode="&#x419;" 
d="M1264 1875q0 -30 -49 -79q-146 -145 -274 -145q-146 0 -266 181q-15 23 -15 44q0 31 24 53t55 22q29 0 96 -76.5t107 -76.5q67 0 188 126q26 27 55 27q31 0 55 -22.5t24 -53.5zM1267 1425q0 -6 -6 -28l-359 -1341q-15 -56 -71 -56q-77 0 -77 72q0 11 3 22l267 997
l-830 -1055q-29 -37 -63 -37q-78 0 -78 76q0 6 6 28l360 1341q15 56 70 56q78 0 78 -72q0 -11 -3 -22l-268 -997l831 1055q29 37 62 37q78 0 78 -76z" />
    <glyph glyph-name="afii10028" unicode="&#x41a;" 
d="M1367 1423q0 -32 -29 -56l-776 -631l429 -618q15 -22 15 -44q0 -31 -24 -53t-55 -22q-36 0 -59 33l-469 675q-11 16 -14 32l-183 -683q-15 -56 -71 -56q-77 0 -77 72q0 11 3 22l362 1350q15 56 70 56q78 0 78 -72q0 -11 -3 -22l-164 -611q7 8 13 13l831 675q22 18 47 18
q31 0 53.5 -23.5t22.5 -54.5z" />
    <glyph glyph-name="afii10029" unicode="&#x41b;" 
d="M1004 74q5 -74 -75 -74q-69 0 -74 70l-73 1111l-688 -1145q-22 -37 -62 -37q-31 0 -55 21.5t-24 52.5q0 21 12 41l806 1339q29 48 68 48q73 0 78 -83z" />
    <glyph glyph-name="afii10030" unicode="&#x41c;" 
d="M1187 1427q-1 -3 -3 -20l-180 -1342q-9 -65 -73 -65q-77 0 -77 73q0 5 1 12l125 929l-349 -665q-26 -50 -69 -50q-78 0 -78 75q0 123 3 326l5 326l-393 -979q-19 -48 -67 -48q-31 0 -54.5 21t-23.5 52q0 16 6 31l538 1342q22 55 71 55q78 0 78 -73q0 -165 -3 -371
l-6 -370l403 767q25 48 68 48q78 0 78 -74z" />
    <glyph glyph-name="afii10031" unicode="&#x41d;" 
d="M1267 1428q0 -11 -365 -1372q-15 -56 -71 -56q-77 0 -77 72q0 11 3 22l156 581h-545l-166 -619q-15 -56 -71 -56q-77 0 -77 72q0 11 365 1372q15 56 70 56q78 0 78 -72q0 -11 -3 -22l-156 -581h545l166 619q15 56 70 56q78 0 78 -72z" />
    <glyph glyph-name="afii10032" unicode="&#x41e;" 
d="M1216 1025q0 -338 -196 -659q-224 -366 -541 -366q-194 0 -291 147q-83 125 -83 328q0 338 196 659q224 366 540 366q194 0 292 -147q83 -124 83 -328zM1072 1005q0 128 -51 225q-63 120 -180 120q-133 0 -276 -135q-204 -192 -282 -484q-34 -126 -34 -236
q0 -129 50 -225q62 -120 180 -120q134 0 277 135q203 192 283 485q33 125 33 235z" />
    <glyph glyph-name="afii10033" unicode="&#x41f;" 
d="M1267 1430q0 -13 -3 -24l-362 -1350q-15 -56 -71 -56q-77 0 -77 72q0 11 3 22l336 1256h-544l-347 -1294q-15 -56 -71 -56q-77 0 -77 72q0 11 3 22l362 1350q5 20 28 38t44 18h700q76 0 76 -70z" />
    <glyph glyph-name="afii10034" unicode="&#x420;" 
d="M1274 1160q0 -228 -165.5 -394t-393.5 -166h-367l-146 -544q-15 -56 -71 -56q-77 0 -77 72q0 10 365 1372q5 20 28 38t44 18h425q163 0 259 -88q99 -91 99 -252zM1127 1156q0 194 -211 194h-367l-161 -600h327q160 0 286 123.5t126 282.5z" />
    <glyph glyph-name="afii10035" unicode="&#x421;" 
d="M1314 1225q0 -30 -24 -51.5t-54 -21.5q-37 0 -64 41q-4 5 -14 26q-4 5 -15 20q-82 111 -225 111q-273 0 -476 -291q-184 -264 -184 -550q0 -158 69 -252q78 -107 230 -107q165 0 374 177q26 22 51 22q30 0 53.5 -23.5t23.5 -53.5q0 -28 -25 -54q-88 -93 -218 -154
q-136 -64 -259 -64q-218 0 -341 163q-110 146 -110 371q0 334 238 640q253 326 574 326q268 0 387 -238q9 -18 9 -37z" />
    <glyph glyph-name="afii10036" unicode="&#x422;" 
d="M1366 1425q0 -75 -75 -75h-392l-347 -1294q-15 -56 -71 -56q-77 0 -77 72q0 11 3 22l336 1256h-352q-75 0 -75 75t75 75h900q75 0 75 -75z" />
    <glyph glyph-name="afii10037" unicode="&#x423;" 
d="M1368 1425q0 -27 -22 -51l-1262 -1350q-23 -25 -54 -25q-30 0 -53.5 23t-23.5 53q0 27 22 51l598 640l-252 631q-6 15 -6 31q0 31 24 52t55 21q48 0 67 -48l225 -565l550 588q23 25 54 25t54.5 -22.5t23.5 -53.5z" />
    <glyph glyph-name="afii10038" unicode="&#x424;" 
d="M1201 866q0 -235 -185 -426q-181 -187 -418 -212l-46 -172q-15 -56 -71 -56q-77 0 -77 72q0 11 40 162q-149 29 -237 138.5t-88 261.5q0 234 186 426q181 187 417 212l47 172q15 56 70 56q78 0 78 -72q0 -11 -41 -162q149 -29 237 -138.5t88 -261.5zM1048 877
q0 215 -211 244l-197 -735q166 35 287 179t121 312zM680 1112q-162 -40 -283 -175q-128 -142 -128 -304q0 -100 57.5 -168.5t156.5 -85.5z" />
    <glyph glyph-name="afii10039" unicode="&#x425;" 
d="M1368 1425q0 -27 -22 -51l-598 -640l251 -631q6 -15 6 -31q0 -31 -23.5 -52t-54.5 -21q-48 0 -67 48l-226 565l-550 -588q-23 -25 -54 -25q-30 0 -53.5 23t-23.5 53q0 27 22 51l598 640l-252 631q-6 15 -6 31q0 31 24 52t55 21q48 0 67 -48l225 -565l550 588q23 25 54 25
t54.5 -22.5t23.5 -53.5z" />
    <glyph glyph-name="afii10040" unicode="&#x426;" 
d="M1267 1428q0 -11 -3 -22l-483 -1800q-16 -59 -72 -59q-76 0 -76 73q0 13 3 24l96 356h-603q-75 0 -75 70q0 13 3 24l362 1350q15 56 70 56q78 0 78 -72q0 -11 -3 -22l-337 -1256h545l347 1294q15 56 70 56q78 0 78 -72z" />
    <glyph glyph-name="afii10041" unicode="&#x427;" 
d="M1267 1428q0 -11 -365 -1372q-15 -56 -71 -56q-77 0 -77 72q0 11 3 22l156 581h-365q-145 0 -239.5 90.5t-94.5 234.5q0 55 14 107l91 337q15 56 70 56q78 0 78 -72q0 -11 -3 -22l-91 -338q-9 -33 -9 -69q0 -80 51.5 -127t132.5 -47h405l166 619q15 56 70 56q78 0 78 -72
z" />
    <glyph glyph-name="afii10042" unicode="&#x428;" 
d="M1317 1428q0 -11 -3 -22l-361 -1346q-16 -60 -75 -60h-800q-74 0 -74 73q0 11 5 30l360 1341q15 56 70 56q78 0 78 -72q0 -11 -3 -22l-337 -1256h245l347 1294q15 56 70 56q78 0 78 -72q0 -11 -3 -22l-337 -1256h245l347 1294q15 56 70 56q78 0 78 -72z" />
    <glyph glyph-name="afii10043" unicode="&#x429;" 
d="M1317 1428q0 -11 -3 -22l-483 -1800q-15 -56 -70 -56q-78 0 -78 72q0 11 3 22l96 356h-694q-84 0 -84 73q0 11 5 30l360 1341q15 56 70 56q78 0 78 -72q0 -11 -3 -22l-337 -1256h245l347 1294q15 56 70 56q78 0 78 -72q0 -11 -3 -22l-337 -1256h245l347 1294q15 56 70 56
q78 0 78 -72z" />
    <glyph glyph-name="afii10044" unicode="&#x42a;" 
d="M1118 567q0 -228 -168 -397.5t-396 -169.5h-75q-75 0 -75 70q0 12 339 1280h-352q-75 0 -75 75t75 75h450q76 0 76 -70q0 -13 -3 -24l-136 -506q155 -6 246 -91q94 -89 94 -242zM971 561q0 189 -233 189l-161 -599q151 11 272.5 135t121.5 275z" />
    <glyph glyph-name="afii10045" unicode="&#x42b;" 
d="M1267 1428q0 -11 -3 -22l-362 -1350q-15 -56 -71 -56q-77 0 -77 72q0 11 3 22l362 1350q15 56 70 56q78 0 78 -72zM863 558q0 -229 -165 -393.5t-394 -164.5h-175q-75 0 -75 70q0 13 3 24l362 1350q15 56 70 56q78 0 78 -72q0 -11 -3 -22l-136 -506h77q163 0 260.5 -90
t97.5 -252zM716 556q0 194 -211 194h-117l-161 -600h77q160 0 286 123.5t126 282.5z" />
    <glyph glyph-name="afii10046" unicode="&#x42c;" 
d="M1113 558q0 -229 -165 -393.5t-394 -164.5h-425q-75 0 -75 70q0 13 3 24l362 1350q15 56 70 56q78 0 78 -72q0 -11 -3 -22l-136 -506h327q163 0 260.5 -90t97.5 -252zM966 556q0 194 -211 194h-367l-161 -600h327q160 0 286 123.5t126 282.5z" />
    <glyph glyph-name="afii10047" unicode="&#x42d;" 
d="M1214 966q0 -336 -237 -641q-252 -325 -575 -325q-267 0 -386 238q-10 20 -10 37q0 31 24 52t55 21q36 0 61 -36q14 -21 41 -63q81 -99 215 -99q202 0 374 169q145 143 225 356h-791q-75 0 -75 75t75 75h834q18 87 18 166q0 158 -68 252q-77 107 -230 107
q-164 0 -374 -177q-26 -22 -51 -22q-31 0 -54 23t-23 54q0 27 25 54q88 93 218 154q136 64 259 64q217 0 340 -163q110 -146 110 -371z" />
    <glyph glyph-name="afii10048" unicode="&#x42e;" 
d="M1234 1110q0 -173 -52 -373q-65 -252 -188 -455q-170 -282 -365 -282q-243 0 -243 390q0 132 32 285h-50l-166 -619q-15 -56 -71 -56q-77 0 -77 72q0 11 365 1372q15 56 70 56q78 0 78 -72q0 -11 -3 -22l-156 -581h47q69 233 189 419q165 256 347 256q243 0 243 -390z
M1082 1135q0 215 -91 215q-83 0 -193 -152q-137 -189 -214 -463q-46 -164 -46 -369q0 -216 91 -216q84 0 196 157q140 196 213 462q44 161 44 366z" />
    <glyph glyph-name="afii10049" unicode="&#x42f;" 
d="M1267 1427q0 -8 -6 -30l-359 -1341q-15 -56 -71 -56q-77 0 -77 72q0 11 3 22l336 1256h-327q-160 0 -286 -123.5t-126 -282.5q0 -194 211 -194h47q43 1 66 1h112q76 0 76 -77q0 -34 -40 -66l-750 -592q-22 -17 -47 -17q-31 0 -53.5 23.5t-22.5 54.5q0 33 30 57l591 466
q-162 0 -265 95q-107 97 -107 258q0 214 176 382q173 165 388 165h427q74 0 74 -73z" />
    <glyph glyph-name="afii10065" unicode="&#x430;" 
d="M1120 875q0 -7 -218 -819q-15 -56 -70 -56q-78 0 -78 72q0 12 8 40q-159 -112 -333 -112q-165 0 -273.5 103.5t-108.5 268.5q0 61 17 122q65 233 264 393q204 163 443 163q220 0 325 -120q24 -27 24 -55zM960 851q-69 49 -189 49q-185 0 -350 -132t-212 -312
q-12 -46 -12 -85q0 -101 65 -161t167 -60q145 0 271.5 103.5t163.5 240.5z" />
    <glyph glyph-name="afii10066" unicode="&#x431;" 
d="M1366 1425q0 -75 -75 -75q-413 0 -756 -331q93 31 186 31q183 0 301.5 -113.5t118.5 -295.5q0 -251 -205 -446t-457 -195q-183 0 -301.5 113.5t-118.5 295.5q0 65 19 135q107 397 454 674q352 282 759 282q75 0 75 -75zM988 652q0 120 -74 186q-71 62 -193 62
q-199 0 -354 -151.5t-155 -350.5q0 -120 74 -186q71 -62 193 -62q199 0 354 151.5t155 350.5z" />
    <glyph glyph-name="afii10067" unicode="&#x432;" 
d="M1138 827q0 -156 -133 -256q70 -70 70 -181q0 -168 -131 -282q-125 -109 -296 -109l-510 1q-84 0 -84 73q0 11 5 30l239 891q15 56 73 56h518q110 0 177 -56q72 -59 72 -167zM991 823q0 77 -102 77h-461l-67 -250h421q73 0 138 49q71 54 71 124zM928 386q0 114 -146 114
h-461l-94 -350l421 -1q101 0 187 67q93 72 93 170z" />
    <glyph glyph-name="afii10068" unicode="&#x433;" 
d="M1246 975q0 -75 -75 -75h-743l-226 -844q-15 -56 -71 -56q-77 0 -77 72q0 11 3 22l241 900q15 56 73 56h800q75 0 75 -75z" />
    <glyph glyph-name="afii10069" unicode="&#x434;" 
d="M1005 73q0 -73 -84 -73h-877q-3 0 -6 -1h-6q-79 0 -79 76q0 23 26 57l673 877q32 42 68 42q60 0 77 -73l204 -878q4 -17 4 -27zM835 150l-152 653l-501 -653h653z" />
    <glyph glyph-name="afii10070" unicode="&#x435;" 
d="M1195 815q0 -102 -76 -186q-67 -75 -170 -114l-656 -250q122 -115 351 -115q127 0 274 47q16 5 28 5q72 0 72 -78q0 -46 -50 -68q-129 -56 -324 -56q-218 0 -386 104q-196 122 -196 327q0 271 285 456q252 163 538 163q125 0 210 -53q100 -64 100 -182zM1045 813
q0 87 -160 87q-213 0 -426 -120q-246 -139 -246 -335q0 -26 5 -48l678 258q149 57 149 158z" />
    <glyph glyph-name="afii10072" unicode="&#x436;" 
d="M1247 975q0 -27 -22 -51l-388 -415l162 -406q6 -15 6 -31q0 -31 -23.5 -52t-54.5 -21q-48 0 -67 48l-177 443q-4 9 -8 24l-123 -458q-15 -56 -71 -56q-77 0 -77 72q0 11 3 22l103 384q-6 -4 -11 -10l-415 -444q-23 -25 -54 -25q-30 0 -53.5 23t-23.5 53q0 27 22 51
l388 415l-162 406q-6 15 -6 31q0 31 23.5 52t54.5 21q48 0 67 -48l177 -443q4 -9 8 -24l123 458q15 56 70 56q78 0 78 -72q0 -11 -3 -22l-103 -384q6 4 11 10l415 444q23 25 54 25q30 0 53.5 -23t23.5 -53z" />
    <glyph glyph-name="afii10073" unicode="&#x437;" 
d="M1107 811q0 -145 -172 -236q142 -79 142 -207q0 -178 -220 -284q-177 -85 -378 -85q-161 0 -294 61q-170 78 -170 221q0 119 79 119q78 0 78 -73q0 -6 -2.5 -17t-2.5 -16q0 -29 25 -58q76 -87 287 -87q179 0 329 79q117 62 117 127q0 28 -25 57q-76 88 -286 88h-1
q-74 0 -74 75q0 61 103 83q85 16 170 31q145 48 145 111q0 51 -98 80q-69 20 -139 20q-94 0 -192 -33q-123 -41 -149 -112q-21 -56 -70 -56q-78 0 -78 73q0 11 3 22q36 126 200 197q136 59 287 59q132 0 245 -54q141 -67 141 -185z" />
    <glyph glyph-name="afii10074" unicode="&#x438;" 
d="M1147 974q0 -3 -7 -29l-238 -889q-15 -56 -71 -56q-77 0 -77 72q0 11 3 22l172 642l-739 -707q-31 -30 -60 -30q-77 0 -77 77q0 3 7 29l238 889q15 56 70 56q78 0 78 -72q0 -11 -3 -22l-172 -642l739 707q31 30 60 30q77 0 77 -77z" />
    <glyph glyph-name="afii10075" unicode="&#x439;" 
d="M1144 1425q0 -30 -50 -79q-146 -145 -273 -145q-147 0 -267 182q-14 21 -14 43q0 30 24 52.5t54 22.5q29 0 96 -76.5t107 -76.5q68 0 189 126q26 27 55 27q30 0 54.5 -23t24.5 -53zM1147 974q0 -3 -7 -29l-238 -889q-15 -56 -71 -56q-77 0 -77 72q0 11 3 22l172 642
l-739 -707q-31 -30 -60 -30q-77 0 -77 77q0 3 7 29l238 889q15 56 70 56q78 0 78 -72q0 -11 -3 -22l-172 -642l739 707q31 30 60 30q77 0 77 -77z" />
    <glyph glyph-name="afii10076" unicode="&#x43a;" 
d="M1247 973q0 -40 -39 -63l-679 -396l449 -382q28 -24 28 -56q0 -30 -23 -53.5t-53 -23.5q-27 0 -49 19l-521 443q-31 26 -35 52l-123 -457q-15 -56 -70 -56q-78 0 -78 72q0 11 3 22l241 900q15 56 70 56q78 0 78 -72q0 -11 -3 -22l-103 -385q8 10 32 24l761 445
q19 11 39 11q31 0 53 -23.5t22 -54.5z" />
    <glyph glyph-name="afii10077" unicode="&#x43b;" 
d="M1005 72q0 -72 -78 -72q-58 0 -71 58l-173 745l-594 -774q-23 -30 -58 -30q-30 0 -54 22.5t-24 52.5q0 25 17 47l682 888q32 42 68 42q60 0 77 -73l205 -886q3 -13 3 -20z" />
    <glyph glyph-name="afii10078" unicode="&#x43c;" 
d="M1067 975q0 13 -2 -16l-61 -889q-5 -70 -74 -70q-78 0 -76 74l1 6l41 614l-293 -449q-30 -46 -69 -46q-68 0 -77 80l-50 426l-310 -662q-21 -44 -65 -44q-31 0 -55 21.5t-24 52.5q0 15 9 34l416 889q25 54 71 54q68 0 77 -78l57 -483l339 518q29 44 67 44q78 0 78 -76z
" />
    <glyph glyph-name="afii10079" unicode="&#x43d;" 
d="M1146 978q0 -11 -3 -22l-241 -900q-15 -56 -71 -56q-77 0 -77 72q0 11 3 22l95 356h-544l-106 -394q-15 -56 -71 -56q-77 0 -77 72q0 11 3 22l241 900q15 56 70 56q78 0 78 -72q0 -11 -3 -22l-95 -356h544l106 394q15 56 70 56q78 0 78 -72z" />
    <glyph glyph-name="afii10080" unicode="&#x43e;" 
d="M1141 641q0 -251 -205 -446t-457 -195q-183 0 -301.5 113.5t-118.5 295.5q0 251 206 448q203 193 456 193q183 0 301.5 -113.5t118.5 -295.5zM988 652q0 120 -74 186q-71 62 -193 62q-199 0 -354 -151.5t-155 -350.5q0 -120 74 -186q71 -62 193 -62q199 0 354 151.5
t155 350.5z" />
    <glyph glyph-name="afii10081" unicode="&#x43f;" 
d="M1146 977q0 -11 -5 -30l-239 -891q-15 -56 -70 -56q-78 0 -78 72q0 11 3 22l216 806h-545l-226 -844q-15 -56 -71 -56q-77 0 -77 72q0 11 3 22l241 900q15 56 73 56h701q74 0 74 -73z" />
    <glyph glyph-name="afii10082" unicode="&#x440;" 
d="M1153 678q0 -62 -17 -122q-66 -234 -265 -393q-203 -163 -442 -163q-122 0 -229 50l-119 -444q-15 -56 -70 -56q-78 0 -78 72q0 11 365 1372q15 56 70 56q78 0 78 -72q0 -12 -8 -40q159 112 333 112q166 0 274 -103.5t108 -268.5zM1003 679q0 101 -65 161t-167 60
q-144 0 -270.5 -101.5t-164.5 -242.5l-96 -357q69 -49 189 -49q185 0 350 132t212 312q12 46 12 85z" />
    <glyph glyph-name="afii10083" unicode="&#x441;" 
d="M1212 844q0 -31 -23.5 -54t-54.5 -23q-26 0 -54 26q-115 107 -282 107q-163 0 -304 -75q-146 -78 -224 -216q-55 -97 -55 -194q0 -137 107 -206q91 -59 235 -59q174 0 364 118q23 14 44 14q31 0 53 -23.5t22 -54.5q0 -33 -34 -60q-80 -64 -213 -105q-126 -39 -236 -39
q-200 0 -342 109q-154 119 -154 313q0 261 243 451q226 177 494 177q263 0 393 -156q21 -25 21 -50z" />
    <glyph glyph-name="afii10084" unicode="&#x442;" 
d="M1246 975q0 -75 -75 -75h-393l-226 -844q-15 -56 -70 -56q-78 0 -78 72q0 11 3 22l216 806h-352q-75 0 -75 75t75 75h900q75 0 75 -75z" />
    <glyph glyph-name="afii10085" unicode="&#x443;" 
d="M1146 978q0 -11 -3 -22l-261 -975q-48 -180 -205.5 -305.5t-342.5 -125.5q-121 0 -214 62q-97 64 -132 177q-4 13 -4 25q0 73 78 73q48 0 69 -53q53 -134 203 -134q134 0 251 95q113 92 152 224q3 12 21 80q-146 -99 -304 -99q-157 0 -259.5 98.5t-102.5 254.5
q0 60 15 116l141 525q15 56 70 56q78 0 78 -72q0 -11 -3 -22l-141 -525q-11 -41 -11 -79q0 -93 61 -148q58 -54 152 -54q134 0 251 94t152 225l141 525q15 56 70 56q78 0 78 -72z" />
    <glyph glyph-name="afii10086" unicode="&#x444;" 
d="M1154 745q0 -121 -37 -255q-48 -175 -143 -311q-124 -179 -270 -179q-94 0 -148 72l-125 -466q-15 -56 -70 -56q-78 0 -78 72q0 11 111 424q-69 -46 -140 -46q-208 0 -208 305q0 121 37 255q48 175 143 311q124 179 270 179q94 0 148 -72l125 466q15 56 70 56
q78 0 78 -72q0 -11 -111 -424q69 46 140 46q208 0 208 -305zM1005 737q0 163 -59 163q-30 0 -72 -35q-135 -112 -202 -359q-27 -99 -27 -193q0 -163 59 -163q30 0 72 35q135 112 202 359q27 99 27 193zM555 737q0 163 -59 163q-30 0 -72 -35q-135 -112 -202 -359
q-27 -99 -27 -193q0 -163 59 -163q30 0 72 35q135 112 202 359q27 99 27 193z" />
    <glyph glyph-name="afii10087" unicode="&#x445;" 
d="M1247 973q0 -33 -30 -57l-514 -405l287 -392q16 -22 16 -45q0 -30 -24 -52.5t-54 -22.5q-36 0 -59 32l-284 387l-509 -402q-22 -17 -47 -17q-31 0 -53.5 23.5t-22.5 54.5q0 33 30 57l514 405l-287 392q-16 22 -16 45q0 30 24 52.5t54 22.5q36 0 59 -32l284 -387l509 402
q22 17 47 17q31 0 53.5 -23.5t22.5 -54.5z" />
    <glyph glyph-name="afii10088" unicode="&#x446;" 
d="M1146 978q0 -11 -3 -22l-322 -1200q-16 -59 -72 -59q-76 0 -76 73q0 9 4 24l55 206h-594q-84 0 -84 73q0 11 5 30l239 891q15 56 70 56q78 0 78 -72q0 -11 -3 -22l-216 -806h545l226 844q15 56 70 56q78 0 78 -72z" />
    <glyph glyph-name="afii10089" unicode="&#x447;" 
d="M1146 978q0 -11 -244 -922q-15 -56 -71 -56q-77 0 -77 72q0 11 98 378h-399q-113 0 -191 66q-84 70 -84 180q0 35 10 73l60 225q15 56 71 56q77 0 77 -72q0 -45 -34 -139t-34 -140q0 -99 125 -99h439l106 394q15 56 70 56q78 0 78 -72z" />
    <glyph glyph-name="afii10090" unicode="&#x448;" 
d="M1146 978q0 -11 -3 -22l-240 -896q-16 -60 -75 -60h-700q-74 0 -74 73q0 11 5 30l239 891q15 56 70 56q78 0 78 -72q0 -11 -3 -22l-216 -806h195l226 844q15 56 70 56q78 0 78 -72q0 -11 -3 -22l-216 -806h195l226 844q15 56 70 56q78 0 78 -72z" />
    <glyph glyph-name="afii10091" unicode="&#x449;" 
d="M1146 978q0 -11 -3 -22l-322 -1200q-16 -59 -72 -59q-76 0 -76 73q0 9 4 24l55 206h-594q-84 0 -84 73q0 11 5 30l239 891q15 56 70 56q78 0 78 -72q0 -11 -3 -22l-216 -806h195l226 844q15 56 70 56q78 0 78 -72q0 -11 -3 -22l-216 -806h195l226 844q15 56 70 56
q78 0 78 -72z" />
    <glyph glyph-name="afii10092" unicode="&#x44a;" 
d="M1080 384q0 -157 -140 -274q-134 -112 -293 -111l-159 1q-84 1 -84 73q0 11 5 30l214 797h-352q-75 0 -75 75t75 75h451q74 0 74 -73q0 -11 -5 -30l-80 -297h71q122 0 207 -71q91 -75 91 -195zM928 386q0 114 -146 114h-111l-94 -350l71 -1q98 -1 187 67q93 72 93 170z
" />
    <glyph glyph-name="afii10093" unicode="&#x44b;" 
d="M1146 978q0 -11 -3 -22l-241 -900q-15 -56 -71 -56q-77 0 -77 72q0 11 3 22l241 900q15 56 70 56q78 0 78 -72zM792 384q0 -158 -139 -274q-133 -112 -293 -111l-222 1q-84 0 -84 72q0 10 6 32l238 890q15 56 70 56q78 0 78 -72q0 -11 -85 -328h134q123 0 207 -71
q90 -75 90 -195zM641 386q0 114 -146 114h-174l-94 -350l133 -1q99 -1 187 67q94 73 94 170z" />
    <glyph glyph-name="afii10094" unicode="&#x44c;" 
d="M1075 390q0 -168 -131 -282q-125 -109 -296 -109l-510 1q-84 0 -84 73q0 10 244 921q15 56 70 56q78 0 78 -72q0 -11 -85 -328h421q128 0 207 -65q86 -70 86 -195zM928 386q0 114 -146 114h-461l-94 -350l421 -1q100 0 186 67q94 73 94 170z" />
    <glyph glyph-name="afii10095" unicode="&#x44d;" 
d="M1137 612q0 -267 -287 -450q-254 -162 -535 -162q-198 0 -301 57q-46 25 -46 67q0 78 73 78q14 0 32 -7q117 -45 242 -45q231 0 450 135l-488 232q-143 68 -143 209t145 238q129 86 277 86q223 0 388 -105q193 -123 193 -333zM987 612q0 143 -152 223q-123 65 -279 65
q-83 0 -170 -46q-102 -54 -102 -128q0 -46 58 -74l552 -263q93 103 93 223z" />
    <glyph glyph-name="afii10096" unicode="&#x44e;" 
d="M1145 708q0 -237 -137 -457q-156 -251 -379 -251q-140 0 -212 105q-62 90 -62 237q0 52 8 108h-55l-106 -394q-15 -56 -71 -56q-77 0 -77 72q0 11 244 922q15 56 70 56q78 0 78 -72q0 -11 -98 -378h51q59 178 171 301q136 149 301 149q140 0 212 -105q62 -90 62 -237z
M1000 696q0 74 -28 131q-36 73 -101 73q-82 0 -172 -87q-122 -118 -175 -304q-24 -82 -24 -156q0 -73 28 -130q36 -73 101 -73q77 0 164 80q133 122 185 314q22 81 22 152z" />
    <glyph glyph-name="afii10097" unicode="&#x44f;" 
d="M1146 977q0 -11 -5 -30l-239 -891q-15 -56 -71 -56q-77 0 -77 72q0 11 3 22l216 806h-421q-102 0 -188 -67q-92 -71 -92 -170q0 -113 146 -113h51q46 1 71 1h122q75 0 75 -78q0 -40 -45 -68l-622 -393q-21 -13 -42 -13q-30 0 -52.5 24t-22.5 54q0 38 36 61l414 262
q-119 5 -198 75q-85 74 -85 190q0 158 139 274q132 111 293 111h520q74 0 74 -73z" />
    <glyph glyph-name="afii10071" unicode="&#x451;" 
d="M1182 1323q0 -50 -37 -86.5t-87 -36.5q-44 0 -73.5 29.5t-29.5 73.5q0 50 36.5 86t86.5 36q44 0 74 -29t30 -73zM732 1323q0 -50 -37 -86.5t-87 -36.5q-44 0 -73.5 29.5t-29.5 73.5q0 50 36.5 86t86.5 36q44 0 74 -29t30 -73zM1195 815q0 -102 -76 -186
q-67 -75 -170 -114l-656 -250q122 -115 351 -115q127 0 274 47q16 5 28 5q72 0 72 -78q0 -46 -50 -68q-129 -56 -324 -56q-218 0 -386 104q-196 122 -196 327q0 271 285 456q252 163 538 163q125 0 210 -53q100 -64 100 -182zM1045 813q0 87 -160 87q-213 0 -426 -120
q-246 -139 -246 -335q0 -26 5 -48l678 258q149 57 149 158z" />
    <glyph glyph-name="afii10099" unicode="&#x452;" 
d="M1120 734q0 -51 -14 -103l-154 -575q-57 -211 -240 -358q-186 -148 -403 -148q-116 0 -215 52q-106 55 -156 154q-11 22 -11 38q0 31 24 52.5t55 21.5q38 0 63 -40q82 -128 240 -128q164 0 311 118q144 116 187 276l154 575q9 34 9 66q0 76 -48.5 120.5t-125.5 44.5
q-112 0 -211.5 -80t-128.5 -189l-154 -575q-15 -56 -71 -56q-77 0 -77 72q0 11 3 22l276 1031q-106 0 -112 1q-65 12 -65 74q0 75 75 75h142l46 169q15 56 70 56q78 0 78 -72q0 -11 -38 -153h202q75 0 75 -75t-75 -75h-243l-39 -148q120 73 247 73q140 0 232 -88t92 -228z
" />
    <glyph glyph-name="afii10100" unicode="&#x453;" 
d="M1067 1422q0 -46 -46 -66l-340 -150q-16 -7 -33 -7q-31 0 -52 24t-21 55q0 46 46 66l340 150q16 7 33 7q31 0 52 -24t21 -55zM1246 975q0 -75 -75 -75h-743l-226 -844q-15 -56 -71 -56q-77 0 -77 72q0 11 3 22l241 900q15 56 73 56h800q75 0 75 -75z" />
    <glyph glyph-name="afii10101" unicode="&#x454;" 
d="M1212 844q0 -31 -23.5 -54t-54.5 -23q-26 0 -54 26q-116 107 -282 107t-308 -78q-148 -80 -224 -222h783q75 0 75 -75t-75 -75h-832q-2 -17 -2 -35q0 -136 108 -206q91 -59 234 -59q173 0 364 118q23 14 44 14q31 0 53 -23.5t22 -54.5q0 -32 -34 -60q-13 -11 -61 -38
q-187 -106 -388 -106q-202 0 -342 108q-154 119 -154 315q0 259 243 449q227 178 494 178q265 0 393 -156q21 -26 21 -50z" />
    <glyph glyph-name="afii10102" unicode="&#x455;" 
d="M1009 395q0 -83 -48 -162q-142 -233 -494 -233q-132 0 -236 50q-124 59 -159 172q-4 13 -4 25q0 72 78 72q48 0 70 -53q49 -116 251 -116q183 0 308 95q84 64 84 139q0 141 -270 141q-120 0 -200 49q-97 59 -97 172q0 143 138 229q120 75 270 75q207 0 282 -129
q13 -22 13 -41q0 -31 -24 -52.5t-55 -21.5q-12 0 -72 47t-144 47q-76 0 -157 -35q-101 -44 -101 -110q0 -80 181 -80q153 0 258 -62q128 -75 128 -218z" />
    <glyph glyph-name="afii10103" unicode="&#x456;" 
d="M946 1395q0 -50 -37.5 -85t-87.5 -35q-44 0 -75 29t-31 73q0 49 38 86t88 37q45 0 75 -30t30 -75zM854 75q0 -75 -75 -75q-132 0 -218.5 83.5t-86.5 214.5q0 48 13 96l136 506h-202q-75 0 -75 75t75 75h301q74 0 74 -73q0 -11 -5 -30l-159 -591q-8 -30 -8 -59
q0 -68 43 -107.5t112 -39.5q75 0 75 -75z" />
    <glyph glyph-name="afii10104" unicode="&#x457;" 
d="M1150 1323q0 -50 -37.5 -86.5t-87.5 -36.5q-44 0 -73.5 29.5t-29.5 73.5q0 50 37 86t87 36q44 0 74 -29t30 -73zM700 1323q0 -50 -37.5 -86.5t-87.5 -36.5q-44 0 -73.5 29.5t-29.5 73.5q0 50 37 86t87 36q44 0 74 -29t30 -73zM854 75q0 -75 -75 -75q-132 0 -218.5 83.5
t-86.5 214.5q0 48 13 96l136 506h-202q-75 0 -75 75t75 75h301q74 0 74 -73q0 -11 -5 -30l-159 -591q-8 -30 -8 -59q0 -68 43 -107.5t112 -39.5q75 0 75 -75z" />
    <glyph glyph-name="afii10105" unicode="&#x458;" 
d="M1296 1395q0 -50 -37.5 -85t-87.5 -35q-44 0 -75 29t-31 73q0 49 38 86t88 37q45 0 75 -30t30 -75zM1146 977q0 -11 -5 -30l-239 -891q-57 -211 -240 -358q-186 -148 -403 -148q-116 0 -215 52q-106 55 -156 154q-11 22 -11 38q0 31 24 52.5t55 21.5q38 0 63 -40
q79 -128 240 -128q164 0 311 118q144 116 187 276l216 806h-202q-75 0 -75 75t75 75h301q74 0 74 -73z" />
    <glyph glyph-name="afii10106" unicode="&#x459;" 
d="M1080 384q0 -156 -140 -273q-133 -111 -292 -111h-109q-79 0 -79 73q0 8 6 30l150 561l-529 -637q-23 -28 -56 -28q-31 0 -54.5 22.5t-23.5 53.5q0 25 19 48l741 893q29 35 62 35q78 0 78 -76q0 -7 -6 -29l-80 -296q131 0 218 -66q95 -73 95 -200zM928 386
q0 114 -146 114h-55l-94 -350h15q101 0 187 66q93 72 93 170z" />
    <glyph glyph-name="afii10107" unicode="&#x45a;" 
d="M1080 384q0 -156 -140 -273q-133 -111 -292 -111h-114q-74 0 -74 73q0 8 6 30l106 397h-251l-119 -444q-15 -56 -71 -56q-77 0 -77 72q0 11 244 922q15 56 70 56q78 0 78 -72q0 -11 -85 -328h251l92 344q15 56 71 56q77 0 77 -72q0 -11 -85 -328q131 0 218 -66
q95 -73 95 -200zM928 386q0 114 -146 114h-55l-94 -350h15q101 0 187 66q93 72 93 170z" />
    <glyph glyph-name="afii10108" unicode="&#x45b;" 
d="M1120 734q0 -51 -14 -103l-154 -575q-15 -56 -71 -56q-77 0 -77 72q0 11 3 22l154 575q9 34 9 66q0 76 -48.5 120.5t-125.5 44.5q-112 0 -211.5 -80t-128.5 -189l-154 -575q-15 -56 -71 -56q-77 0 -77 72q0 11 3 22l276 1031q-107 0 -112 1q-65 12 -65 74q0 75 75 75h142
l46 169q15 56 70 56q78 0 78 -72q0 -11 -38 -153h202q75 0 75 -75t-75 -75h-243l-39 -148q120 73 247 73q140 0 232 -88t92 -228z" />
    <glyph glyph-name="afii10109" unicode="&#x45c;" 
d="M1095 1422q0 -46 -45 -66l-341 -150q-16 -7 -32 -7q-31 0 -52.5 24t-21.5 55q0 46 46 66l340 150q16 7 33 7q31 0 52 -24t21 -55zM1247 973q0 -40 -39 -63l-679 -396l449 -382q28 -24 28 -56q0 -30 -23 -53.5t-53 -23.5q-27 0 -49 19l-521 443q-31 26 -35 52l-123 -457
q-15 -56 -70 -56q-78 0 -78 72q0 11 3 22l241 900q15 56 70 56q78 0 78 -72q0 -11 -3 -22l-103 -385q8 10 32 24l761 445q19 11 39 11q31 0 53 -23.5t22 -54.5z" />
    <glyph glyph-name="afii10110" unicode="&#x45e;" 
d="M1119 1425q0 -30 -50 -79q-146 -145 -273 -145q-147 0 -267 182q-14 21 -14 43q0 30 24 52.5t54 22.5q29 0 96 -76.5t107 -76.5q68 0 189 126q26 27 55 27q30 0 54.5 -23t24.5 -53zM1146 978q0 -11 -3 -22l-261 -975q-48 -180 -205.5 -305.5t-342.5 -125.5
q-121 0 -214 62q-97 64 -132 177q-4 13 -4 25q0 73 78 73q48 0 69 -53q53 -134 203 -134q134 0 251 95q113 92 152 224q3 12 21 80q-146 -99 -304 -99q-157 0 -259.5 98.5t-102.5 254.5q0 60 15 116l141 525q15 56 70 56q78 0 78 -72q0 -11 -3 -22l-141 -525
q-11 -41 -11 -79q0 -93 61 -148q58 -54 152 -54q134 0 251 94t152 225l141 525q15 56 70 56q78 0 78 -72z" />
    <glyph glyph-name="afii10193" unicode="&#x45f;" 
d="M1146 978q0 -11 -3 -22l-240 -896q-16 -60 -78 -60h-288l-66 -244q-15 -56 -70 -56q-77 0 -77 72q0 11 3 22l55 206h-244q-84 0 -84 73q0 11 5 30l239 891q15 56 70 56q78 0 78 -72q0 -11 -3 -22l-216 -806h545l226 844q15 56 70 56q78 0 78 -72z" />
    <glyph glyph-name="afii10050" unicode="&#x490;" 
d="M1447 1728q0 -11 -3 -22l-79 -296q-16 -60 -79 -60h-737l-347 -1294q-15 -56 -71 -56q-77 0 -77 72q0 11 3 22l360 1346q16 60 79 60h738l65 244q15 56 70 56q78 0 78 -72z" />
    <glyph glyph-name="afii10098" unicode="&#x491;" 
d="M1326 1278q0 -11 -3 -22l-79 -296q-16 -60 -78 -60h-738l-226 -844q-15 -56 -71 -56q-77 0 -77 72q0 11 3 22l240 896q16 60 78 60h738l66 244q15 56 70 56q77 0 77 -72z" />
    </font>
</defs>
</svg>
