<?xml version="1.0" standalone="no"?>
<!DOCTYPE svg PUBLIC "-//W3C//DTD SVG 1.1//EN" "http://www.w3.org/Graphics/SVG/1.1/DTD/svg11.dtd" >
<svg xmlns="http://www.w3.org/2000/svg" xmlns:xlink="http://www.w3.org/1999/xlink" version="1.1">
<metadata>
Created by FontForge 20170731 at Wed May  6 21:12:39 2015
 By Aleksey,,,
Created by
Zefram Cochrane,
hikikomori82@gmail.com,
with FontForge 2.0 (http://fontforge.sf.net)

Project hosted on:
http://code.google.com/p/osifont/

Distributed under GNU LGPL licence version 3 with GPL font exception.
</metadata>
<defs>
<font id="osifont" horiz-adv-x="1258" >
  <font-face 
    font-family="osifont"
    font-weight="400"
    font-stretch="normal"
    units-per-em="2048"
    panose-1="2 0 6 3 0 0 0 0 0 0"
    ascent="1638"
    descent="-410"
    x-height="1054"
    cap-height="1520"
    bbox="-609 -748 2271 2695"
    underline-thickness="327"
    underline-position="-1186"
    unicode-range="U+0020-FF0C"
  />
<missing-glyph horiz-adv-x="896" 
d="M80 0v1638h653v-1638h-653zM163 80h490v1475h-490v-1475z" />
    <glyph glyph-name="ligature_test" unicode="&#x23b;&#x23c;" horiz-adv-x="1943" 
d="M614 1054q-80 -57 -80 -185v-71q0 -113 110 -182q64 -40 128 -40t129 44q98 66 98 209v19q0 124 -75 195q-70 66 -152 66q-81 0 -158 -55zM754 1253q168 0 274 -105q112 -111 112 -236v-112q0 -169 -121 -274q-106 -92 -254 -92q-157 0 -253 96q-121 121 -121 275v91
q0 161 139 274q102 83 224 83zM1685 727v448q0 76 69 76t69 -73v-672q0 -83 -66 -83q-17 0 -38 15q-25 18 -38 39l-292 447v-420q0 -80 -76 -80q-68 0 -68 82v654q0 89 72 89q44 0 73 -46zM265 1435v-1288h521q91 0 91 -73.5t-94 -73.5h-592q-71 0 -71 91v1344q0 75 72.5 75
t72.5 -75z" />
    <glyph glyph-name=".notdef" horiz-adv-x="896" 
d="M80 0v1638h653v-1638h-653zM163 80h490v1475h-490v-1475z" />
    <glyph glyph-name=".null" horiz-adv-x="0" 
 />
    <glyph glyph-name="nonmarkingreturn" horiz-adv-x="814" 
 />
    <glyph glyph-name="space" unicode=" " horiz-adv-x="890" 
 />
    <glyph glyph-name="exclam" unicode="!" horiz-adv-x="450" 
d="M150 117.5q0 110.5 71 110.5q79 0 79 -115q0 -106 -75 -106t-75 110.5zM225 463q-75 0 -75 95v869q0 92 75 92t75 -93v-868q0 -95 -75 -95z" />
    <glyph glyph-name="quotedbl" unicode="&#x22;" horiz-adv-x="801" 
d="M556 1740q15 64 64 64q81 0 81 -62q0 -23 -8 -58l-63 -260q-16 -68 -64 -68q-81 0 -81 67q0 20 4 34zM176 1740q16 63 69 63q78 0 78 -69q0 -10 -6 -34l-71 -280q-16 -64 -68 -64q-78 0 -78 65q0 16 5 36z" />
    <glyph glyph-name="numbersign" unicode="#" horiz-adv-x="1256" 
d="M783 607v307h-311v-307h311zM325 1437q0 78 73 78t73 -81v-371h312v377q0 78 78 78q70 0 70 -82v-374h151q74 0 74 -73q0 -75 -75 -75h-150v-309h147q77 0 77 -71q0 -74 -74 -74h-152v-371q0 -83 -78 -83q-68 0 -68 84v370h-310v-371q0 -85 -75 -85q-73 0 -73 86v370
h-144q-80 0 -80 77q0 67 81 67h143v310h-141q-84 0 -84 77q0 73 85 73h140v373z" />
    <glyph glyph-name="dollar" unicode="$" horiz-adv-x="954" 
d="M707 462q0 99 -159 166v-331q159 0 159 165zM402 884v325q-157 0 -157 -155q0 -97 157 -170zM100 1063q0 121 75 197q95 97 227 97v74q0 76 74 76q72 0 72 -86v-72q132 -17 247 -65q58 -24 58 -74q0 -58 -65 -72q-19 -4 -56 11q-122 49 -184 49v-400q68 -30 170 -96
q136 -88 136 -250q0 -120 -79 -202q-95 -99 -227 -99v-70q0 -81 -72 -81q-74 0 -74 80v82q-200 28 -267 71q-35 22 -35 65q0 71 72 71q19 0 50 -11q104 -37 180 -49v406q-164 72 -227 145q-75 87 -75 203z" />
    <glyph glyph-name="percent" unicode="%" horiz-adv-x="1564" 
d="M1280 402q-41 54 -121 54q-65 0 -114 -58q-34 -40 -34 -101q0 -65 47 -105q49 -42 104 -42q56 0 117 53q39 34 39 99q0 50 -38 100zM1393 499q71 -79 71 -210q0 -115 -89 -201q-91 -88 -214 -88q-99 0 -183 65q-114 88 -114 226q0 151 103 240q83 72 188 72
q144 0 238 -104zM1321 1477q31 33 67 33q74 0 74 -78q0 -20 -30 -54l-1197 -1347q-27 -31 -64 -31q-71 0 -71 75q0 28 26 57zM516 1309q-41 54 -121 54q-65 0 -114 -58q-34 -40 -34 -101q0 -65 47 -105q49 -42 104 -42q56 0 117 53q39 34 39 99q0 50 -38 100zM629 1406
q71 -79 71 -210q0 -117 -89 -201q-91 -86 -214 -86q-99 0 -183 63q-114 85 -114 226q0 151 103 240q83 72 188 72q144 0 238 -104z" />
    <glyph glyph-name="ampersand" unicode="&#x26;" 
d="M689 324q-142 223 -220 346l-179 -255q-37 -54 -37 -110q0 -155 162 -155q46 0 101 42zM475 934l132 188q29 41 29 97q0 53 -47 101q-45 46 -108 46q-66 0 -110 -46q-46 -48 -46 -103q0 -48 32 -99zM475 1515q131 0 230 -99q78 -78 78 -192q0 -104 -38 -160l-184 -263
l245 -387l231 171q26 19 49 19q72 0 72 -77q0 -33 -44 -67l-227 -174l107 -167q13 -22 13 -46q0 -73 -73 -73q-36 0 -58 35l-106 162l-196 -143q-71 -54 -173 -54q-120 0 -188 67q-113 111 -113 251q0 85 68 175l217 311l-176 278q-29 47 -29 140q0 135 115 228
q80 65 180 65z" />
    <glyph glyph-name="quotesingle" unicode="'" horiz-adv-x="417" 
d="M172 1745q17 67 70 67q75 0 75 -65q0 -24 -6 -48l-65 -263q-18 -70 -74 -70q-72 0 -72 68q0 22 10 63z" />
    <glyph glyph-name="parenleft" unicode="(" horiz-adv-x="522" 
d="M282 1618q19 48 74 48q65 0 65 -72q0 -25 -16 -68q-137 -371 -137 -738q0 -449 136 -797q18 -46 18 -76q0 -64 -80 -64q-41 0 -64 60q-148 390 -148 880q0 440 152 827z" />
    <glyph glyph-name="parenright" unicode=")" horiz-adv-x="522" 
d="M240 1620q152 -387 152 -827q0 -490 -148 -880q-23 -60 -64 -60q-80 0 -80 64q0 30 18 76q136 348 136 797q0 391 -137 738q-17 43 -17 68q0 72 66 72q55 0 74 -48z" />
    <glyph glyph-name="asterisk" unicode="*" horiz-adv-x="950" 
d="M648 661h126q76 0 76 -68q0 -72 -80 -72h-120l82 -83q26 -26 26 -49q0 -70 -85 -70q-26 0 -57 31l-140 139l-161 -161q-20 -19 -47 -19q-74 0 -74 73q0 28 20 50l85 89h-124q-75 0 -75 73q0 70 80 70h120l-97 98q-17 17 -17 44q0 80 78 80q27 0 46 -20l166 -171l149 149
q38 38 73 38q65 0 65 -78q0 -28 -40 -68z" />
    <glyph glyph-name="plus" unicode="+" horiz-adv-x="952" 
d="M409 890q0 80 74 80q71 0 71 -86v-217h214q84 0 84 -73q0 -69 -86 -69h-215v-219q0 -83 -67 -83q-75 0 -75 81v221h-225q-84 0 -84 74q0 69 86 69h223v222z" />
    <glyph glyph-name="comma" unicode="," horiz-adv-x="477" 
d="M202 27q17 67 70 67q75 0 75 -65q0 -24 -6 -48l-65 -263q-18 -70 -74 -70q-72 0 -72 68q0 22 10 63z" />
    <glyph glyph-name="hyphen" unicode="-" horiz-adv-x="952" 
d="M177 671h603q72 0 72 -77q0 -67 -77 -67h-601q-74 0 -74 75q0 69 77 69z" />
    <glyph glyph-name="period" unicode="." horiz-adv-x="412" 
d="M130 107q0 107 70 107q82 0 82 -114q0 -100 -77 -100q-75 0 -75 107z" />
    <glyph glyph-name="slash" unicode="/" horiz-adv-x="1006" 
d="M130 67q0 22 18 63l582 1317q28 63 74 63q72 0 72 -68q0 -26 -10 -51l-587 -1329q-27 -62 -71 -62q-78 0 -78 67z" />
    <glyph glyph-name="zero" unicode="0" horiz-adv-x="958" 
d="M477 1366q-68 0 -98 -60q-78 -154 -114 -353q-17 -93 -17 -189q0 -70 9 -139q29 -226 99 -384q42 -95 120 -95q75 0 120 86q66 127 99 349q14 95 14 184t-14 172q-36 211 -118 371q-30 58 -100 58zM482 1510q137 0 209 -106q111 -163 154 -459q13 -89 13 -180
q0 -96 -14 -191q-43 -294 -149 -460q-73 -114 -216 -114q-141 0 -216 118q-92 144 -147 451q-16 89 -16 182q0 97 17 195q53 305 138 441q76 123 227 123z" />
    <glyph glyph-name="one" unicode="1" horiz-adv-x="700" 
d="M354 1478q34 32 71 32q75 0 75 -83v-1337q0 -85 -72 -85q-74 0 -74 86v1179l-174 -174q-27 -27 -54 -27q-76 0 -76 67q0 34 29 63z" />
    <glyph glyph-name="two" unicode="2" horiz-adv-x="955" 
d="M178 1139q-78 0 -78 70q0 22 18 58q63 124 145 177q102 66 215 66q190 0 298 -145q79 -106 79 -228q0 -107 -66 -214l-485 -783h474q75 0 75 -75q0 -65 -82 -65h-581q-89 0 -89 64q0 28 13 49l538 867q55 89 55 157q0 86 -55 150q-67 78 -179 78q-139 0 -225 -164
q-33 -62 -70 -62z" />
    <glyph glyph-name="three" unicode="3" horiz-adv-x="984" 
d="M197 1515h313q136 0 244 -117q100 -108 100 -253q0 -182 -156 -311q152 -110 152 -271v-220q0 -129 -111 -240q-98 -98 -256 -98h-298q-85 0 -85 74q0 67 90 67h264q121 0 191 72q65 67 65 175v130q0 102 -60 165q-73 77 -156 77h-152q-83 0 -83 75q0 66 84 66h135
q94 0 161 68q71 72 71 164q0 94 -57 152q-78 79 -160 79h-296q-93 0 -93 75q0 71 93 71z" />
    <glyph glyph-name="four" unicode="4" horiz-adv-x="1051" 
d="M402 1459q16 56 74 56q69 0 69 -69q0 -17 -7 -40l-273 -952h365v218q0 84 73 84q71 0 71 -90v-213h154q73 0 73 -79q0 -64 -76 -64h-151v-226q0 -81 -74 -81q-70 0 -70 78v226h-459q-71 0 -71 67q0 22 14 72z" />
    <glyph glyph-name="five" unicode="5" horiz-adv-x="1018" 
d="M130 1434q0 76 87 76h588q83 0 83 -72t-79 -72h-532v-463h222q193 0 310 -144q78 -96 78 -230v-161q0 -160 -109 -261q-115 -107 -254 -107h-312q-77 0 -77 70q0 71 84 71h278q126 0 193 86q50 64 50 151v151q0 90 -59 156q-66 74 -202 74h-276q-73 0 -73 85v590z" />
    <glyph glyph-name="six" unicode="6" horiz-adv-x="1013" 
d="M284 902h221q168 0 280 -125q98 -109 98 -232v-202q0 -129 -125 -250q-96 -93 -271 -93q-141 0 -250 106q-107 104 -107 237v522q0 228 175 433q107 125 284 196q40 16 68 16q72 0 72 -78q0 -46 -63 -68q-141 -49 -222 -130q-138 -137 -160 -332zM273 358q0 -86 84 -163
q59 -54 151 -54q70 0 164 71q66 50 66 150v152q0 99 -68 172q-65 70 -163 70h-234v-398z" />
    <glyph glyph-name="seven" unicode="7" horiz-adv-x="979" 
d="M765 1510q84 0 84 -70q0 -22 -21 -117l-277 -1253q-15 -70 -69 -70q-77 0 -77 66q0 14 3 28l282 1269h-448v-75q0 -71 -73 -71q-69 0 -69 74v152q0 67 80 67h585z" />
    <glyph glyph-name="eight" unicode="8" horiz-adv-x="1056" 
d="M525 760q-89 0 -157 -64q-74 -70 -74 -160v-182q0 -74 87 -156q52 -49 145 -49q81 0 161 65q71 58 71 164v149q0 85 -72 167q-58 66 -161 66zM368 1307q-73 -76 -73 -161q0 -80 51 -154q58 -84 177 -84q115 0 177 70q61 72 61 161q0 92 -79 164q-70 63 -161 63
q-96 0 -153 -59zM301 835q-151 117 -151 325q0 166 135 268q115 87 245 87q108 0 186 -48q188 -116 188 -328q0 -198 -151 -307q153 -122 153 -299v-171q0 -145 -129 -266q-98 -92 -244 -92q-166 0 -252 85q-131 129 -131 267v185q0 163 151 294z" />
    <glyph glyph-name="nine" unicode="9" horiz-adv-x="1030" 
d="M280 74q0 51 71 74q99 32 172 92q176 147 205 366h-243q-127 0 -230 89q-125 110 -125 255v211q0 167 163 286q86 63 221 63q143 0 260 -114q106 -103 106 -263v-460q0 -148 -52 -263q-85 -186 -197 -273q-180 -137 -279 -137q-72 0 -72 74zM732 1124q0 101 -61 166
q-69 73 -169 73q-87 0 -158 -61q-72 -62 -72 -166v-162q0 -101 82 -169q65 -54 189 -54h189v373z" />
    <glyph glyph-name="colon" unicode=":" horiz-adv-x="455" 
d="M150 275q0 110 70 110q82 0 82 -112q0 -106 -78 -106q-74 0 -74 108zM150 879q0 110 73 110q82 0 82 -112q0 -105 -78 -105q-77 0 -77 107z" />
    <glyph glyph-name="semicolon" unicode=";" horiz-adv-x="522" 
d="M222 263q17 67 70 67q75 0 75 -65q0 -24 -6 -48l-65 -263q-18 -70 -74 -70q-72 0 -72 68q0 22 10 63zM219 827q0 110 71 110q82 0 82 -112q0 -106 -78 -106q-75 0 -75 108z" />
    <glyph glyph-name="less" unicode="&#x3c;" horiz-adv-x="952" 
d="M792 442q60 -23 60 -67q0 -77 -65 -77q-24 0 -43 6l-575 217q-69 26 -69 76q0 53 77 82l560 210q24 9 47 9q66 0 66 -79q0 -45 -68 -70l-400 -153z" />
    <glyph glyph-name="equal" unicode="=" horiz-adv-x="950" 
d="M773 442q75 0 75 -72q0 -74 -70 -74h-607q-71 0 -71 73t72 73h601zM775 898q75 0 75 -73q0 -74 -70 -74h-607q-72 0 -72 73q0 74 73 74h601z" />
    <glyph glyph-name="greater" unicode="&#x3e;" horiz-adv-x="952" 
d="M160 441l410 154l-400 153q-68 25 -68 70q0 79 66 79q23 0 47 -9l560 -210q77 -29 77 -82q0 -50 -69 -76l-575 -217q-19 -6 -43 -6q-65 0 -65 77q0 44 60 67z" />
    <glyph glyph-name="question" unicode="?" horiz-adv-x="951" 
d="M136 1423q184 87 414 87q138 0 227 -104q74 -86 74 -200q0 -124 -86 -206l-181 -174q-40 -38 -40 -97v-190q0 -83 -72 -83t-72 78v204q0 108 71 175l199 196q32 32 32 85q0 170 -182 170q-118 0 -296 -61q-34 -12 -54 -12h-2q-68 0 -68 73q0 42 36 59zM400 111
q0 110 66 110q76 0 76 -111q0 -110 -70 -110q-72 0 -72 111z" />
    <glyph glyph-name="at" unicode="@" horiz-adv-x="1660" 
d="M985 1145h-133q-177 0 -177 -191v-366q0 -208 160 -208q150 0 150 202v563zM718 -220q-182 0 -350 135q-218 175 -218 525v604q0 348 252 547q200 158 444 158q227 0 422 -162q242 -201 242 -548v-501q0 -145 -54 -206q-88 -100 -207 -100q-107 0 -197 96
q-95 -96 -226 -96q-72 0 -146 42q-147 84 -147 273v428q0 145 88.5 231t247.5 86h169q90 0 90 -86v-637q0 -189 119 -189q116 0 116 142v549q0 235 -175 393q-153 138 -344 138q-206 0 -366 -136q-181 -154 -181 -405v-635q0 -232 156 -391q106 -108 289 -108q86 0 86 -79
q0 -68 -110 -68z" />
    <glyph glyph-name="A" unicode="A" 
d="M564 1455q18 55 70 55q50 0 68 -55l447 -1344q9 -27 9 -44q0 -59 -72 -67q-53 0 -75 66l-102 316h-554l-109 -324q-21 -61 -68 -61q-78 0 -78 73q0 10 22 75zM630 1206l-230 -683h461z" />
    <glyph glyph-name="B" unicode="B" horiz-adv-x="1192" 
d="M1062 460q0 -220 -139.5 -340t-263.5 -120h-439q-70 0 -70 91v1325q0 94 93 94h312q190 0 277 -76q152 -133 152 -302q0 -184 -140 -294q93 -54 155.5 -155t62.5 -223zM304 748v-609h312q136 0 218 94t82 208t-77 211q-76 96 -220 96h-315zM304 1361v-457h305
q115 0 172.5 62.5t57.5 155.5q0 94 -61 166.5t-173 72.5h-301z" />
    <glyph glyph-name="C" unicode="C" horiz-adv-x="1004" 
d="M520 1515h306q74 0 74 -75q0 -76 -80 -76h-301q-84 0 -163 -73q-60 -56 -60 -150v-764q0 -94 63 -162q66 -70 137 -70h336q72 0 72 -73q0 -69 -73 -69h-341q-138 0 -258 133q-82 91 -82 233v783q0 150 118 261q108 102 252 102z" />
    <glyph glyph-name="D" unicode="D" horiz-adv-x="1205" 
d="M297 144h347q134 0 200.5 69.5t66.5 170.5v751q0 89 -65 160t-172 71h-377v-1222zM150 1428q0 82 83 82h469q138 0 245.5 -108t107.5 -245v-807q0 -137 -108 -243.5t-231 -106.5h-499q-67 0 -67 89v1339z" />
    <glyph glyph-name="E" unicode="E" horiz-adv-x="1003" 
d="M294 149h533q74 0 74 -72t-71 -72h-614q-66 0 -66 75v1357q0 78 89 78h583q81 0 81 -73q0 -72 -81 -72h-528v-466h386q73 0 73 -72q0 -68 -71 -68h-388v-615z" />
    <glyph glyph-name="F" unicode="F" horiz-adv-x="1003" 
d="M298 763v-677q0 -82 -75 -82q-73 0 -73 83v1358q0 70 78 70h596q79 0 79 -72t-78 -72h-526v-462h526q78 0 78 -73t-79 -73h-526z" />
    <glyph glyph-name="G" unicode="G" horiz-adv-x="1187" 
d="M911 149v614h-157q-71 0 -71 71q0 72 68 72h239q64 0 64 -95v-719q0 -87 -83 -87h-486q-109 0 -222 98.5t-113 312.5v745q0 141 114.5 247.5t262.5 106.5h442q88 0 88 -72t-87 -72h-427q-110 0 -180 -72t-70 -175v-724q0 -111 65 -181t145 -70h408z" />
    <glyph glyph-name="H" unicode="H" horiz-adv-x="1210" 
d="M918 760h-621v-683q0 -77 -73.5 -77t-73.5 76v1349q0 85 73.5 85t73.5 -85v-521h621v527q0 75 71 75t71 -74v-1352q0 -80 -71 -80t-71 78v682z" />
    <glyph glyph-name="I" unicode="I" horiz-adv-x="452" 
d="M226 0q-76 0 -76 94v1326q0 90 76 90t76 -93v-1321q0 -96 -76 -96z" />
    <glyph glyph-name="J" unicode="J" horiz-adv-x="847" 
d="M554 1432q0 78 72 78q71 0 71 -77v-1067q0 -149 -107.5 -257.5t-261.5 -108.5h-154q-74 0 -74 74t87 74h148q94 0 156.5 68.5t62.5 153.5v1062z" />
    <glyph glyph-name="K" unicode="K" horiz-adv-x="1155" 
d="M219 3q-69 0 -69 93v1348q0 66 69 66q75 0 75 -75v-638l620 680q35 38 65 38t52 -25q21 -24 21 -52q0 -26 -36 -66l-416 -461l436 -787q19 -34 19 -50q0 -31 -27 -54q-23 -20 -52 -20q-37 0 -62 45l-417 753l-201 -220v-479q0 -96 -77 -96z" />
    <glyph glyph-name="L" unicode="L" horiz-adv-x="1007" 
d="M295 1433v-1288h521q91 0 91 -72.5t-94 -72.5h-592q-71 0 -71 89v1344q0 77 72.5 77t72.5 -77z" />
    <glyph glyph-name="M" unicode="M" horiz-adv-x="1364" 
d="M1074 1472q24 38 64 38q76 0 76 -80v-1331q0 -99 -74 -99t-74 99v1073l-312 -508q-38 -63 -76 -63t-74 61l-306 508v-1076q0 -94 -77 -94q-71 0 -71 92v1339q0 79 76 79q39 0 62 -35l386 -651z" />
    <glyph glyph-name="N" unicode="N" horiz-adv-x="1202" 
d="M914 357v1082q0 76 69 76t69 -73v-1353q0 -83 -66 -83q-46 0 -76 54l-616 1099v-1070q0 -80 -76 -80q-68 0 -68 82v1335q0 89 72 89q47 0 73 -46z" />
    <glyph glyph-name="O" unicode="O" horiz-adv-x="1203" 
d="M297 423q0 -108 100 -198q87 -77 195 -77q126 0 205 71q111 100 111 233v608q0 146 -105 231q-94 76 -212 76q-99 0 -194 -77q-100 -81 -100 -226v-641zM150 1088q0 166 131 296q132 131 322 131q181 0 312 -130q138 -137 138 -318v-611q0 -196 -137 -329
q-131 -127 -320 -127q-178 0 -311 127q-135 130 -135 301v660z" />
    <glyph glyph-name="P" unicode="P" horiz-adv-x="1152" 
d="M298 1366v-611h332q101 0 190 89q88 88 88 218t-88.5 217t-231.5 87h-290zM298 88q0 -83 -74 -83t-74 85v1341q0 79 82 79h387q187 0 321 -150q112 -125 112 -274q0 -182 -78 -286q-145 -193 -344 -193h-332v-519z" />
    <glyph glyph-name="Q" unicode="Q" horiz-adv-x="1222" 
d="M910 401v670q0 124 -95 213q-88 82 -212 82q-105 0 -187 -66q-117 -94 -117 -254v-598q0 -117 98 -214q86 -85 217 -85q135 0 232 115q-81 66 -81 106q0 80 72 80q41 0 73 -49zM1028 292l145 -148q39 -40 39 -70q0 -74 -76 -74q-31 0 -70 40l-116 119q-29 -45 -105 -93
q-104 -66 -229 -66q-205 0 -335 141q-131 142 -131 320v601q0 144 92 270q130 178 368 178q202 0 325 -138q124 -140 124 -277v-628q0 -112 -31 -175z" />
    <glyph glyph-name="R" unicode="R" horiz-adv-x="1155" 
d="M297 751h327q104 0 208 99q81 77 81 217q0 106 -88 197q-93 97 -202 97h-326v-610zM228 1504h395q183 0 333 -164q99 -108 99 -247q0 -134 -50 -252q-55 -129 -227 -201l261 -513q15 -31 15 -51q0 -76 -74 -76q-39 0 -67 57l-280 547h-339v-525q0 -79 -73 -79
q-71 0 -71 80v1347q0 77 78 77z" />
    <glyph glyph-name="S" unicode="S" horiz-adv-x="1105" 
d="M100 1131q0 156 108 267.5t261 111.5q212 0 385 -65q72 -27 72 -83q0 -69 -69 -69q-29 0 -91 24q-129 50 -275 50q-132 0 -201 -94q-42 -57 -42 -150q0 -127 155 -206l365 -185q237 -122 237 -354q0 -174 -124 -281q-112 -97 -269 -97q-238 0 -456 143q-56 37 -56 82
q0 69 74 69q27 0 72 -32q158 -113 379 -113q65 0 117 27q115 60 115 207q0 139 -151 215l-393 199q-213 108 -213 334z" />
    <glyph glyph-name="T" unicode="T" horiz-adv-x="1101" 
d="M100 1446q0 69 88 69h741q72 0 72 -72q0 -73 -70 -73h-307v-1291q0 -79 -73 -79t-73 77v1293h-292q-86 0 -86 76z" />
    <glyph glyph-name="U" unicode="U" horiz-adv-x="1206" 
d="M150 1437q0 78 70 78q76 0 76 -78v-969q0 -161 108 -246q95 -74 196 -74q125 0 226 100q82 81 82 225v964q0 78 75 78q73 0 73 -88v-948q0 -213 -131 -338q-142 -136 -327 -136q-165 0 -294 108q-154 129 -154 332v992z" />
    <glyph glyph-name="V" unicode="V" horiz-adv-x="1259" 
d="M628 300l385 1144q22 66 72 66q74 0 74 -70q0 -19 -9 -46l-441 -1326q-22 -68 -79 -68q-48 0 -71 66l-453 1342q-6 18 -6 33q0 65 79 65q46 0 69 -70z" />
    <glyph glyph-name="W" unicode="W" horiz-adv-x="1559" 
d="M1317 1445q15 61 70 61q72 0 72 -62q0 -25 -6 -52l-296 -1319q-15 -73 -70 -73q-58 0 -80 67l-229 685l-228 -689q-21 -63 -72 -63q-61 0 -75 61l-300 1344q-3 15 -3 37q0 68 77 68q54 0 68 -65l243 -1095l216 641q23 67 80 67q48 0 72 -73l214 -639z" />
    <glyph glyph-name="X" unicode="X" horiz-adv-x="1262" 
d="M544 755l-425 637q-16 25 -16 49q0 66 74 66q37 0 67 -44l387 -574l393 584q26 37 66 37q72 0 72 -67q0 -27 -26 -66l-417 -622l424 -640q16 -23 16 -41q0 -74 -73 -74q-42 0 -70 43l-385 582l-390 -587q-26 -38 -60 -38q-81 0 -81 70q0 23 22 57z" />
    <glyph glyph-name="Y" unicode="Y" 
d="M702 85q0 -85 -70 -85q-73 0 -73 87v674l-443 631q-16 23 -16 46q0 73 79 73q35 0 64 -45l386 -560l390 569q26 36 63 36q76 0 76 -69q0 -27 -19 -54l-437 -631v-672z" />
    <glyph glyph-name="Z" unicode="Z" horiz-adv-x="1106" 
d="M293 142h635q78 0 78 -75q0 -67 -79 -67h-751q-76 0 -76 72q0 27 23 68l686 1225h-623q-84 0 -84 79q0 66 87 66h720q94 0 94 -66q0 -30 -16 -59z" />
    <glyph glyph-name="bracketleft" unicode="[" horiz-adv-x="544" 
d="M150 1584q0 77 74 77h143q77 0 77 -72q0 -74 -75 -74h-73v-1527h72q76 0 76 -68q0 -73 -81 -73h-143q-70 0 -70 73v1664z" />
    <glyph glyph-name="backslash" unicode="\" horiz-adv-x="946" 
d="M846 67q0 -67 -78 -67q-44 0 -71 62l-587 1329q-10 25 -10 51q0 68 72 68q46 0 74 -63l582 -1317q18 -41 18 -63z" />
    <glyph glyph-name="bracketright" unicode="]" horiz-adv-x="544" 
d="M394 1584v-1664q0 -73 -70 -73h-143q-81 0 -81 73q0 68 76 68h72v1527h-73q-75 0 -75 74q0 72 77 72h143q74 0 74 -77z" />
    <glyph glyph-name="asciicircum" unicode="^" horiz-adv-x="798" 
d="M557 1471l-155 158l-158 -153q-42 -41 -71 -41q-73 0 -73 65q0 31 34 66l198 204q36 37 70 37q28 0 65 -37l195 -196q36 -36 36 -72q0 -67 -76 -67q-31 0 -65 36z" />
    <glyph glyph-name="underscore" unicode="_" horiz-adv-x="952" 
d="M172 0h608q72 0 72 -77q0 -67 -75 -67h-603q-74 0 -74 76q0 68 72 68z" />
    <glyph glyph-name="grave" unicode="`" horiz-adv-x="646" 
d="M229 1727l281 -211q36 -26 36 -63q0 -75 -68 -75q-26 0 -55 20l-285 215q-38 28 -38 60q0 79 76 79q21 0 53 -25z" />
    <glyph glyph-name="a" unicode="a" horiz-adv-x="986" 
d="M414 461q-83 0 -124.5 -49.5t-41.5 -109.5q0 -66 47.5 -108.5t104.5 -42.5h306v310h-292zM254 915q-75 0 -75 74q0 72 75 72h311q129 0 210 -96.5t81 -198.5v-672q0 -43 -23 -68.5t-63 -25.5h-380q-113 0 -201.5 92t-88.5 208q0 129 84.5 217.5t209.5 88.5h312v184
q0 38 -45 81.5t-100 43.5h-307z" />
    <glyph glyph-name="b" unicode="b" horiz-adv-x="1030" 
d="M585 148q172 0 172 170v429q0 77 -45.5 122.5t-118.5 45.5h-302v-767h294zM240 4q-90 0 -90 68v1369q0 74 69 74q74 0 74 -74v-383h330q127 0 220 -114q57 -70 57 -164v-502q0 -117 -86.5 -195.5t-214.5 -78.5h-359z" />
    <glyph glyph-name="c" unicode="c" horiz-adv-x="829" 
d="M653 1062q76 0 76 -70q0 -75 -76 -75h-199q-178 0 -178 -168v-417q0 -181 168 -181h204q81 0 81 -77q0 -70 -77 -70h-233q-120 0 -207 88q-82 83 -82 204v457q0 137 80 217q92 92 230 92h213z" />
    <glyph glyph-name="d" unicode="d" horiz-adv-x="1031" 
d="M445 916q-173 0 -173 -192v-394q0 -179 184 -179h279v765h-290zM735 1438q0 77 73 77t73 -82v-1339q0 -94 -95 -94h-347q-130 0 -211 81q-98 98 -98 216v477q0 97 69 181q87 106 245 106h291v377z" />
    <glyph glyph-name="e" unicode="e" horiz-adv-x="1015" 
d="M280 604h459q0 156 -50 224q-63 86 -174 86q-106 0 -185 -88q-50 -56 -50 -222zM130 698q0 158 131 268q114 96 251 96q163 0 277 -125q93 -102 93 -213v-190q0 -72 -67 -72h-537v-132q0 -184 156 -184h363q88 0 88 -74q0 -72 -87 -72h-368q-121 0 -213 97
q-87 92 -87 219v382z" />
    <glyph glyph-name="f" unicode="f" horiz-adv-x="899" 
d="M672 1518q76 0 76 -73q0 -75 -82 -75h-44q-68 0 -119 -41q-57 -46 -57 -122v-145h219q84 0 84 -74q0 -70 -85 -70h-219v-838q0 -76 -77 -76q-68 0 -68 83v831h-81q-69 0 -69 73q0 71 73 71h77v152q0 125 83 205q103 99 216 99h73z" />
    <glyph glyph-name="g" unicode="g" horiz-adv-x="1029" 
d="M445 911q-70 0 -121 -44q-52 -45 -52 -124v-417q0 -90 44 -137q41 -44 122 -44h296v766h-289zM433 1057h371q75 0 75 -82v-1156q0 -114 -85 -195q-84 -80 -200 -80h-313q-78 0 -78 71q0 74 82 74h252q194 0 194 142v169h-324q-122 0 -200 91q-77 90 -77 215v458
q0 123 84 205q90 88 219 88z" />
    <glyph glyph-name="h" unicode="h" horiz-adv-x="1031" 
d="M150 1426q0 89 75 89q71 0 71 -85v-370h310q119 0 217 -93q78 -74 78 -206v-677q0 -78 -66 -78q-77 0 -77 80v658q0 172 -176 172h-286v-829q0 -81 -76 -81q-70 0 -70 86v1334z" />
    <glyph glyph-name="i" unicode="i" horiz-adv-x="447" 
d="M297 980v-892q0 -83 -72 -83q-75 0 -75 81v893q0 82 74 82q73 0 73 -81zM153 1445q0 70 69 70q74 0 74 -75v-65q0 -78 -76 -78q-67 0 -67 73v75z" />
    <glyph glyph-name="j" unicode="j" horiz-adv-x="446" 
d="M151 979q0 75 72.5 75t72.5 -74v-1151q0 -109 -82 -192q-92 -93 -201 -93h-87q-76 0 -76 74q0 71 71 71h87q50 0 100 52q43 45 43 99v1139zM151 1434q0 81 79 81q66 0 66 -86v-62q0 -72 -72.5 -72t-72.5 67v72z" />
    <glyph glyph-name="k" unicode="k" horiz-adv-x="1007" 
d="M150 1429q0 81 71 81q73 0 73 -81v-757l480 362q32 20 62 20q71 0 71 -70q0 -34 -34 -60l-290 -219l310 -593q12 -22 12 -41q0 -71 -78 -71q-38 0 -59 40l-302 578l-167 -130v-409q0 -76 -74 -76q-75 0 -75 75v1351z" />
    <glyph glyph-name="l" unicode="l" horiz-adv-x="548" 
d="M150 1432q0 79 80 79q67 0 67 -82v-1170q0 -111 68 -111q83 0 83 -75q0 -73 -78 -73q-91 0 -159 71q-61 64 -61 164v1197z" />
    <glyph glyph-name="m" unicode="m" horiz-adv-x="1315" 
d="M130 991q0 35 26 59q16 15 57 15h656q130 0 215 -78q101 -92 101 -211v-684q0 -88 -70 -88q-77 0 -77 91v666q0 69 -42 109q-49 47 -122 47h-142v-823q0 -87 -71 -87q-80 0 -80 80v830h-307v-835q0 -76 -72 -76t-72 71v914z" />
    <glyph glyph-name="n" unicode="n" horiz-adv-x="1011" 
d="M130 988q0 75 73 75h385q121 0 219 -97q74 -73 74 -192v-671q0 -96 -70 -96q-76 0 -76 98v657q0 73 -39 108q-47 44 -103 44h-322v-822q0 -84 -70 -84q-71 0 -71 83v897z" />
    <glyph glyph-name="o" unicode="o" horiz-adv-x="1009" 
d="M353 862q-80 -59 -80 -183v-307q0 -113 110 -182q64 -40 128 -40t129 44q98 66 98 209v255q0 127 -75 195q-72 66 -152 66t-158 -57zM493 1063q168 0 274 -105q112 -111 112 -236v-348q0 -168 -121 -274q-105 -92 -254 -92q-159 0 -253 96q-121 123 -121 275v327
q0 161 139 274q102 83 224 83z" />
    <glyph glyph-name="p" unicode="p" horiz-adv-x="1039" 
d="M618 144q66 0 112 61q30 40 30 101v438q0 72 -42 117q-44 47 -111 47h-310v-764h321zM150 969q0 85 85 85h387q115 0 207 -99q80 -86 80 -206v-422q0 -142 -71 -224q-89 -103 -213 -103h-328v-365q0 -91 -78 -91q-69 0 -69 95v1330z" />
    <glyph glyph-name="q" unicode="q" horiz-adv-x="1039" 
d="M421 140h321v764h-310q-67 0 -111 -47q-42 -45 -42 -117v-438q0 -61 30 -101q46 -61 112 -61zM889 965v-1330q0 -95 -69 -95q-78 0 -78 91v365h-328q-124 0 -213 103q-71 82 -71 224v422q0 122 80 206q92 97 207 97h387q85 0 85 -83z" />
    <glyph glyph-name="r" unicode="r" horiz-adv-x="834" 
d="M130 979q0 82 85 82h435q84 0 84 -69v-147q0 -83 -66 -83q-80 0 -80 78v74h-310v-832q0 -79 -77 -79q-71 0 -71 82v894z" />
    <glyph glyph-name="s" unicode="s" horiz-adv-x="954" 
d="M728 986q48 -26 48 -65q0 -78 -69 -78q-18 0 -57 15q-152 59 -263 59q-141 0 -141 -123q0 -71 75 -106l369 -173q164 -75 164 -242q0 -133 -119 -224q-59 -45 -150 -45q-185 0 -420 76q-65 21 -65 70q0 74 66 74q39 0 80 -16q150 -58 318 -58q59 0 90 20q53 34 53 104
q0 68 -93 112l-354 169q-160 76 -160 251q0 101 71 176q77 81 196 81q217 0 361 -77z" />
    <glyph glyph-name="t" unicode="t" horiz-adv-x="711" 
d="M210 1435q0 76 75 76q69 0 69 -80v-377h229q78 0 78 -78q0 -64 -80 -64h-227v-835q0 -77 -72 -77t-72 84v828h-76q-74 0 -74 70q0 72 73 72h77v381z" />
    <glyph glyph-name="u" unicode="u" horiz-adv-x="1012" 
d="M130 971q0 87 72 87q71 0 71 -89v-664q0 -69 44 -112q47 -46 107 -46h313v828q0 79 75 79q70 0 70 -81v-891q0 -82 -75 -82h-393q-120 0 -208 94q-76 81 -76 208v669z" />
    <glyph glyph-name="v" unicode="v" horiz-adv-x="954" 
d="M709 1001q17 53 74 53q71 0 71 -62q0 -19 -7 -40l-296 -884q-22 -68 -73 -68q-53 0 -74 60l-295 884q-9 27 -9 43q0 67 87 67q40 0 61 -65l229 -683z" />
    <glyph glyph-name="w" unicode="w" horiz-adv-x="1253" 
d="M1012 986q19 72 72 72q69 0 69 -66q0 -18 -5 -38l-215 -883q-17 -71 -74 -71q-56 0 -81 66l-152 409l-151 -410q-23 -65 -72 -65q-60 0 -75 62l-219 863q-9 35 -9 60q0 69 80 69q48 0 62 -56l172 -674l144 373q21 55 70 55q53 0 76 -61l135 -363z" />
    <glyph glyph-name="x" unicode="x" horiz-adv-x="951" 
d="M393 527l-277 413q-16 24 -16 45q0 72 78 72q34 0 58 -36l241 -362l242 362q23 33 62 33q67 0 67 -63q0 -36 -15 -60l-271 -403l264 -394q25 -39 25 -62q0 -72 -69 -72q-42 0 -65 35l-238 364l-240 -360q-26 -39 -63 -39q-76 0 -76 68q0 27 18 55z" />
    <glyph glyph-name="y" unicode="y" horiz-adv-x="951" 
d="M835 915l-436 -1302q-23 -69 -89 -69h-129q-81 0 -81 71q0 74 84 74h85l123 372l-279 859q-13 37 -13 65q0 69 73 69q52 0 74 -69l224 -689l237 697q21 61 69 61q74 0 74 -69q0 -22 -16 -70z" />
    <glyph glyph-name="z" unicode="z" horiz-adv-x="950" 
d="M311 154h457q78 0 78 -85q0 -69 -78 -69h-577q-91 0 -91 80q0 28 22 60l518 776h-465q-74 0 -74 71q0 77 76 77h571q102 0 102 -74q0 -25 -16 -49z" />
    <glyph glyph-name="braceleft" unicode="{" horiz-adv-x="644" 
d="M463 1675q79 0 79 -69q0 -68 -70 -77q-78 -11 -78 -84v-531q0 -72 -59 -147q55 -51 55 -141v-528q0 -84 81 -94q73 -9 73 -75q0 -67 -83 -67q-96 0 -157 70q-57 65 -57 168v519q0 65 -81 76q-66 9 -66 73q0 72 69 72q78 0 78 72v557q0 81 70 145q67 61 146 61z" />
    <glyph glyph-name="bar" unicode="|" horiz-adv-x="452" 
d="M220 -228q-70 0 -70 98v1784q0 92 77 92q75 0 75 -93v-1786q0 -95 -82 -95z" />
    <glyph glyph-name="braceright" unicode="}" horiz-adv-x="644" 
d="M181 1675q80 0 147 -61q70 -64 70 -145v-557q0 -72 78 -72q68 0 68 -72q0 -64 -66 -73q-82 -11 -82 -76v-519q0 -103 -56 -168q-60 -70 -156 -70q-84 0 -84 67q0 66 73 75q82 10 82 94v528q0 90 54 141q-59 75 -59 147v531q0 74 -78 84q-70 9 -70 77q0 69 79 69z" />
    <glyph glyph-name="asciitilde" unicode="~" horiz-adv-x="954" 
d="M702 826q34 39 83 39q69 0 69 -75q0 -25 -37 -60q-85 -81 -192 -81q-92 0 -157 61q-94 88 -146 88q-31 0 -76 -37t-75 -37q-71 0 -71 82q0 22 34 52q94 84 190 84q99 0 195 -86q70 -63 106 -63q48 0 77 33z" />
    <glyph glyph-name="uni00A0" unicode="&#xa0;" horiz-adv-x="890" 
 />
    <glyph glyph-name="exclamdown" unicode="&#xa1;" horiz-adv-x="450" 
d="M150 1408.5q0 110.5 75 110.5t75 -106q0 -115 -79 -115q-71 0 -71 110.5zM225 1063q75 0 75 -95v-868q0 -93 -75 -93t-75 92v869q0 95 75 95z" />
    <glyph glyph-name="cent" unicode="&#xa2;" horiz-adv-x="980" 
d="M798 1059q82 0 82 -70q0 -75 -82 -75h-136v-766h131q87 0 87 -77q0 -71 -83 -71h-135v-142q0 -83 -72 -83q-75 0 -75 81v144h-96q-120 0 -207 92q-82 87 -82 211v442q0 139 80 219q95 95 230 95h75v142q0 82 74 82q73 0 73 -81v-143h136zM515 148v766h-61
q-178 0 -178 -168v-417q0 -181 168 -181h71z" />
    <glyph glyph-name="sterling" unicode="&#xa3;" horiz-adv-x="1157" 
d="M232 1104q0 197 128 310q103 91 257 91q155 0 268 -121q99 -106 99 -244q0 -81 -79 -81q-60 0 -69 89q-8 75 -64 142q-59 71 -170 71q-99 0 -166 -73q-64 -70 -64 -214v-253h201q107 0 107 -71q0 -75 -107 -75h-198v-357q0 -151 -47 -182h412q89 0 125 41q50 57 50 107
q0 78 72 78q70 0 70 -76q0 -105 -73 -193q-76 -93 -215 -93h-697q-72 0 -72 62q0 78 89 78q64 0 108 53q35 43 35 132v350h-146q-86 0 -86 70q0 76 85 76h147v283z" />
    <glyph glyph-name="currency" unicode="&#xa4;" horiz-adv-x="1088" 
d="M754 519q87 87 87 210t-85 209l-2 1q-86 85 -208.5 85t-210.5 -87q-84 -87 -84 -208q0 -123 86 -209q87 -88 209 -88t208 87zM115 729q0 157 80 252l-97 96q-20 20 -20 48t20 48t48 20t48 -20l96 -96q110 83 255 83t255 -81l94 94q20 20 48 20t48 -20t20 -48t-20 -48
l-94 -94q82 -110 82 -255q0 -144 -84 -255l96 -96q20 -20 20 -48t-21 -48t-48 -20t-47 21l-96 96q-107 -81 -252 -81q-147 0 -254 83l-97 -98q-20 -20 -48 -20t-49 19q-20 18 -20 48q0 28 20 48l98 98q-81 102 -81 254z" />
    <glyph glyph-name="section" unicode="&#xa7;" horiz-adv-x="1066" 
d="M720 832l-226 100q-59 25 -108 25q-122 0 -122 -115q0 -99 56 -125l273 -129q53 -24 88 -24q119 0 119 139q0 94 -80 129zM904 1523q54 -19 54 -74q0 -41 -22 -61q-23 -21 -49 -21q-19 0 -251 57q-101 25 -223 25q-147 0 -147 -145q0 -88 198 -180l336 -155
q166 -76 166 -269q0 -178 -133 -247q133 -95 133 -228q0 -157 -120 -253q-76 -61 -236 -61q-201 0 -420 79q-86 31 -86 84q0 83 77 83q43 0 193 -43t259 -43q167 0 167 156q0 78 -166 155l-359 164q-171 78 -171 283q0 164 129 236q-133 117 -133 241q0 91 65 188
q82 122 259 122q216 0 480 -93z" />
    <glyph glyph-name="copyright" unicode="&#xa9;" horiz-adv-x="1368" 
d="M699 1282h50q74 0 74 -67q0 -76 -80 -76h-45q-98 0 -131 -32q-38 -37 -38 -77v-123q0 -60 36 -99q32 -35 110 -35h80q72 0 72 -68q0 -64 -73 -64h-85q-110 0 -201 88q-72 70 -72 184v110q0 105 96 195q68 64 207 64zM470 414q-200 88 -293 251q-77 134 -77 291
q0 161 78 291q66 110 218 215q114 79 291 79q97 0 209 -38q186 -63 295 -252q77 -134 77 -290q0 -157 -79 -293q-88 -151 -216 -214q-159 -78 -292 -78q-125 0 -211 38zM503 537q76 -35 185 -35q114 0 224 62q104 59 168 168q62 105 62 228t-60 227q-78 135 -219 193
q-83 34 -178 34q-124 0 -229 -62q-107 -63 -168 -170q-62 -109 -62 -228q0 -122 68 -239q65 -112 209 -178z" />
    <glyph glyph-name="guillemotleft" unicode="&#xab;" horiz-adv-x="1104" 
d="M982 281q22 -27 22 -56q0 -72 -68 -72q-37 0 -62 32l-301 368q-18 22 -18 51q0 30 25 61l292 359q27 33 63 33q66 0 66 -79q0 -26 -31 -64l-249 -307zM527 280q22 -27 22 -56q0 -72 -68 -72q-37 0 -62 32l-301 368q-18 22 -18 51q0 30 25 61l292 359q27 33 63 33
q66 0 66 -79q0 -26 -31 -64l-249 -307z" />
    <glyph glyph-name="registered" unicode="&#xae;" horiz-adv-x="1368" 
d="M470 414q-200 88 -293 251q-77 134 -77 291q0 161 78 291q66 110 218 215q114 79 291 79q97 0 209 -38q186 -63 295 -252q77 -134 77 -290q0 -157 -79 -293q-88 -151 -216 -214q-159 -78 -292 -78q-125 0 -211 38zM503 537q76 -35 185 -35q114 0 224 62q104 59 168 168
q62 105 62 229t-60 228q-78 135 -219 191q-86 34 -178 34q-124 0 -229 -62q-107 -63 -168 -170q-62 -109 -62 -228q0 -122 68 -239q65 -112 209 -178zM608 983h104q62 0 86 34t24 71q0 43 -27 71q-29 30 -83 30h-104v-206zM549 1295h178q82 0 150 -73q44 -48 44 -128
q0 -45 -22 -97q-29 -69 -89 -101l118 -213q3 -6 3 -30q0 -34 -44 -34q-46 0 -60 25l-126 235h-94v-212q0 -48 -54 -48t-54 49v578q0 49 50 49z" />
    <glyph glyph-name="degree" unicode="&#xb0;" horiz-adv-x="800" 
d="M516 1309q-41 54 -121 54q-65 0 -114 -58q-34 -40 -34 -101q0 -65 47 -105q49 -42 104 -42q56 0 117 53q39 34 39 99q0 50 -38 100zM629 1406q71 -79 71 -210q0 -117 -89 -201q-91 -86 -214 -86q-99 0 -183 63q-114 85 -114 226q0 151 103 240q83 72 188 72
q144 0 238 -104z" />
    <glyph glyph-name="plusminus" unicode="&#xb1;" horiz-adv-x="952" 
d="M177 385h603q72 0 72 -77q0 -67 -77 -67h-601q-74 0 -74 75q0 69 77 69zM409 1173q0 80 74 80q71 0 71 -86v-217h214q84 0 84 -73q0 -69 -86 -69h-215v-219q0 -83 -67 -83q-75 0 -75 81v221h-225q-84 0 -84 74q0 69 86 69h223v222z" />
    <glyph glyph-name="uni00B2" unicode="&#xb2;" horiz-adv-x="658" 
d="M403 1300q0 66 -75 66q-55 0 -84 -71q-24 -59 -63 -59q-81 0 -81 69q0 44 28 83q43 60 83 88q44 31 127 31q101 0 173 -85q40 -47 40 -117q0 -88 -74 -179l-148 -173h130q94 0 94 -68q0 -78 -82 -78h-292q-79 0 -79 69q0 27 42 77l238 284q23 29 23 63z" />
    <glyph glyph-name="uni00B3" unicode="&#xb3;" horiz-adv-x="672" 
d="M508 1196q64 -74 64 -152q0 -250 -248 -250h-150q-74 0 -74 70q0 76 75 76h144q106 0 106 89t-100 89h-144q-80 0 -80 76q0 72 84 72h161q62 0 62 53q0 50 -58 50h-165q-85 0 -85 74.5t93 74.5h169q81 0 144 -62q48 -47 48 -127q0 -90 -46 -133z" />
    <glyph glyph-name="acute" unicode="&#xb4;" horiz-adv-x="646" 
d="M417 1981q32 25 53 25q76 0 76 -79q0 -32 -38 -60l-285 -215q-29 -20 -55 -20q-68 0 -68 75q0 37 36 63z" />
    <glyph glyph-name="uni00B5" unicode="&#xb5;" horiz-adv-x="1124" 
d="M150 971q0 83 79 83q74 0 74 -91v-579q0 -104 67 -169q71 -69 166 -69t152 59q76 79 76 171v600q0 81 77 81q71 0 71 -89v-743q0 -77 82 -77q70 0 70 -74t-83 -74q-118 0 -184 102q-94 -102 -264 -102q-125 0 -228 68v-449q0 -80 -80 -80q-75 0 -75 83v1349z" />
    <glyph glyph-name="paragraph" unicode="&#xb6;" horiz-adv-x="1217" 
d="M1009 1368v-1286q0 -82 -74 -82t-74 82v520h-150v-518q0 -84 -76.5 -84t-76.5 80v522q-176 0 -311 120q-147 131 -147 332q0 180 107 306q127 150 356 150h482q72 0 72 -72q0 -70 -70 -70h-38zM711 1365v-614h150v614h-150zM558 1365q-158 0 -237 -95q-70 -84 -70 -212
q0 -124 74 -210q83 -97 233 -97v614z" />
    <glyph glyph-name="periodcentered" unicode="&#xb7;" horiz-adv-x="452" 
d="M150 602q0 107 70 107q82 0 82 -114q0 -100 -77 -100q-75 0 -75 107z" />
    <glyph glyph-name="uni00B9" unicode="&#xb9;" horiz-adv-x="600" 
d="M304 1478q31 32 71 32q75 0 75 -83v-543q0 -85 -72 -85q-74 0 -74 86v385l-74 -76q-26 -27 -54 -27q-76 0 -76 67q0 33 29 63z" />
    <glyph glyph-name="guillemotright" unicode="&#xbb;" horiz-adv-x="1104" 
d="M122 274l261 326l-249 307q-31 38 -31 64q0 79 66 79q36 0 63 -33l292 -359q25 -31 25 -61q0 -29 -18 -51l-301 -368q-25 -32 -62 -32q-68 0 -68 72q0 29 22 56zM577 273l261 326l-249 307q-31 38 -31 64q0 79 66 79q36 0 63 -33l292 -359q25 -31 25 -61q0 -29 -18 -51
l-301 -368q-25 -32 -62 -32q-68 0 -68 72q0 29 22 56z" />
    <glyph glyph-name="onequarter" unicode="&#xbc;" horiz-adv-x="1314" 
d="M304 1478q31 32 71 32q75 0 75 -83v-543q0 -85 -72 -85q-74 0 -74 86v385l-74 -76q-26 -27 -54 -27q-76 0 -76 67q0 33 29 63zM246 67q0 22 18 63l582 1317q28 63 74 63q72 0 72 -68q0 -28 -10 -51l-587 -1329q-27 -62 -71 -62q-78 0 -78 67zM767 663q13 56 74 56
q69 0 69 -69q0 -10 -7 -40l-49 -210h133v131q0 84 73 84q71 0 71 -90v-125h60q73 0 73 -79q0 -63 -76 -63h-57v-175q0 -83 -74 -83q-70 0 -70 80v173h-227q-39 0 -71 65q-1 2 -1 5q4 21 15 67z" />
    <glyph glyph-name="onehalf" unicode="&#xbd;" horiz-adv-x="1264" 
d="M1014 492q0 66 -75 66q-55 0 -84 -71q-24 -59 -63 -59q-81 0 -81 69q0 44 28 83q43 60 83 88q44 31 127 31q101 0 173 -85q40 -47 40 -117q0 -88 -74 -179l-148 -173h130q94 0 94 -68q0 -77 -82 -77h-292q-79 0 -79 68q0 27 42 77l238 284q23 29 23 63zM304 1478
q31 32 71 32q75 0 75 -83v-543q0 -85 -72 -85q-74 0 -74 86v385l-74 -76q-26 -27 -54 -27q-76 0 -76 67q0 33 29 63zM246 67q0 22 18 63l582 1317q28 63 74 63q72 0 72 -68q0 -28 -10 -51l-587 -1329q-27 -62 -71 -62q-78 0 -78 67z" />
    <glyph glyph-name="threequarters" unicode="&#xbe;" horiz-adv-x="1346" 
d="M508 1196q64 -74 64 -152q0 -250 -248 -250h-150q-74 0 -74 70q0 76 75 76h144q106 0 106 89t-100 89h-144q-80 0 -80 76q0 72 84 72h161q62 0 62 53q0 50 -58 50h-165q-85 0 -85 74.5t93 74.5h169q81 0 144 -62q48 -47 48 -127q0 -90 -46 -133zM799 663q12 56 73 56
q70 0 70 -69q0 -9 -7 -40l-49 -210h133v131q0 84 73 84q71 0 71 -90v-125h60q73 0 73 -79q0 -63 -76 -63h-57v-175q0 -83 -74 -83q-70 0 -70 80v173h-227q-39 0 -71 65q-1 2 -1 5q3 16 15 67zM272 67q0 22 18 63l582 1317q28 63 74 63q73 0 73 -68q0 -28 -11 -51l-587 -1329
q-27 -62 -71 -62q-78 0 -78 67z" />
    <glyph glyph-name="questiondown" unicode="&#xbf;" horiz-adv-x="951" 
d="M815 87q-184 -87 -414 -87q-138 0 -227 104q-74 86 -74 200q0 124 86 206l181 174q40 38 40 97v190q0 83 72 83t72 -78v-204q0 -108 -71 -175l-199 -196q-32 -32 -32 -85q0 -170 182 -170q118 0 296 61q34 12 54 12h2q68 0 68 -73q0 -42 -36 -59zM551 1399
q0 -110 -66 -110q-76 0 -76 111q0 110 70 110q72 0 72 -111z" />
    <glyph glyph-name="Agrave" unicode="&#xc0;" 
d="M542 1981l281 -211q36 -26 36 -63q0 -75 -68 -75q-26 0 -55 20l-285 215q-38 28 -38 60q0 79 76 79q21 0 53 -25zM564 1455q18 55 70 55q50 0 68 -55l447 -1344q9 -27 9 -44q0 -59 -72 -67q-53 0 -75 66l-102 316h-554l-109 -324q-21 -61 -68 -61q-78 0 -78 73
q0 10 22 75zM630 1206l-230 -683h461z" />
    <glyph glyph-name="Aacute" unicode="&#xc1;" 
d="M734 1981q32 25 53 25q76 0 76 -79q0 -32 -38 -60l-285 -215q-29 -20 -55 -20q-68 0 -68 75q0 37 36 63zM564 1455q18 55 70 55q50 0 68 -55l447 -1344q9 -27 9 -44q0 -59 -72 -67q-53 0 -75 66l-102 316h-554l-109 -324q-21 -61 -68 -61q-78 0 -78 73q0 10 22 75z
M630 1206l-230 -683h461z" />
    <glyph glyph-name="Acircumflex" unicode="&#xc2;" 
d="M792 1673l-155 158l-158 -153q-42 -41 -71 -41q-73 0 -73 65q0 31 34 66l198 204q36 37 70 37q28 0 65 -37l195 -196q36 -36 36 -72q0 -67 -76 -67q-31 0 -65 36zM564 1455q18 55 70 55q50 0 68 -55l447 -1344q9 -27 9 -44q0 -59 -72 -67q-53 0 -75 66l-102 316h-554
l-109 -324q-21 -61 -68 -61q-78 0 -78 73q0 10 22 75zM630 1206l-230 -683h461z" />
    <glyph glyph-name="Atilde" unicode="&#xc3;" 
d="M859 1749q34 39 83 39q69 0 69 -75q0 -25 -37 -60q-85 -81 -192 -81q-92 0 -157 61q-94 88 -146 88q-31 0 -76 -37t-75 -37q-71 0 -71 82q0 22 34 52q94 84 190 84q99 0 195 -86q70 -63 106 -63q48 0 77 33zM564 1455q18 55 70 55q50 0 68 -55l447 -1344q9 -27 9 -44
q0 -59 -72 -67q-53 0 -75 66l-102 316h-554l-109 -324q-21 -61 -68 -61q-78 0 -78 73q0 10 22 75zM630 1206l-230 -683h461z" />
    <glyph glyph-name="Adieresis" unicode="&#xc4;" 
d="M786 1740q0 108 70 108q82 0 82 -114q0 -102 -77 -102q-75 0 -75 108zM330 1739q0 107 71 107q82 0 82 -114q0 -100 -77 -100q-76 0 -76 107zM564 1455q18 55 70 55q50 0 68 -55l447 -1344q9 -27 9 -44q0 -59 -72 -67q-53 0 -75 66l-102 316h-554l-109 -324
q-21 -61 -68 -61q-78 0 -78 73q0 10 22 75zM630 1206l-230 -683h461z" />
    <glyph glyph-name="Aring" unicode="&#xc5;" 
d="M637.5 1996q-110.5 0 -110.5 -107q0 -119 110 -119q111 0 111 119q0 107 -110.5 107zM634 2135q249 0 249 -246q0 -257 -248.5 -257t-248.5 253q0 250 248 250zM564 1455q18 55 70 55q50 0 68 -55l447 -1344q9 -27 9 -44q0 -59 -72 -67q-53 0 -75 66l-102 316h-554
l-109 -324q-21 -61 -68 -61q-78 0 -78 73q0 10 22 75zM630 1206l-230 -683h461z" />
    <glyph glyph-name="AE" unicode="&#xc6;" horiz-adv-x="1564" 
d="M863 1366h-183l-281 -836h464v836zM561 1461q18 53 69 53h753q79 0 79 -75q0 -67 -78 -67h-379v-462h307q71 0 71 -76q0 -69 -72 -69h-306v-617h377q82 0 82 -72q0 -76 -84 -76h-454q-63 0 -63 75v303h-511l-106 -310q-23 -68 -75 -68q-24 0 -47 16q-24 17 -24 57
q0 21 16 71z" />
    <glyph glyph-name="Ccedilla" unicode="&#xc7;" horiz-adv-x="1004" 
d="M457 85q14 57 61 57q20 0 42 -10q38 -17 38 -60q0 -15 -5 -33l-71 -286q-15 -61 -65 -61q-15 0 -35 6q-42 13 -42 61q0 14 4 30zM520 1515h306q74 0 74 -75q0 -76 -80 -76h-301q-84 0 -163 -73q-60 -56 -60 -150v-764q0 -94 63 -162q66 -70 137 -70h336q72 0 72 -73
q0 -69 -73 -69h-341q-138 0 -258 133q-82 91 -82 233v783q0 150 118 261q108 102 252 102z" />
    <glyph glyph-name="Egrave" unicode="&#xc8;" horiz-adv-x="1003" 
d="M385 1985l281 -211q36 -26 36 -63q0 -75 -68 -75q-26 0 -55 20l-285 215q-38 28 -38 60q0 79 76 79q21 0 53 -25zM294 149h533q74 0 74 -72t-71 -72h-614q-66 0 -66 75v1357q0 78 89 78h583q81 0 81 -73q0 -72 -81 -72h-528v-466h386q73 0 73 -72q0 -68 -71 -68h-388
v-615z" />
    <glyph glyph-name="Eacute" unicode="&#xc9;" horiz-adv-x="1003" 
d="M613 1984q32 25 53 25q76 0 76 -79q0 -32 -38 -60l-285 -215q-29 -20 -55 -20q-68 0 -68 75q0 37 36 63zM294 149h533q74 0 74 -72t-71 -72h-614q-66 0 -66 75v1357q0 78 89 78h583q81 0 81 -73q0 -72 -81 -72h-528v-466h386q73 0 73 -72q0 -68 -71 -68h-388v-615z" />
    <glyph glyph-name="Ecircumflex" unicode="&#xca;" horiz-adv-x="1003" 
d="M689 1673l-155 158l-158 -153q-42 -41 -71 -41q-73 0 -73 65q0 31 34 66l198 204q36 37 70 37q28 0 65 -37l195 -196q36 -36 36 -72q0 -67 -76 -67q-31 0 -65 36zM294 149h533q74 0 74 -72t-71 -72h-614q-66 0 -66 75v1357q0 78 89 78h583q81 0 81 -73q0 -72 -81 -72
h-528v-466h386q73 0 73 -72q0 -68 -71 -68h-388v-615z" />
    <glyph glyph-name="Edieresis" unicode="&#xcb;" horiz-adv-x="1003" 
d="M682 1745q0 108 70 108q82 0 82 -114q0 -102 -77 -102q-75 0 -75 108zM226 1744q0 107 71 107q82 0 82 -114q0 -100 -77 -100q-76 0 -76 107zM294 149h533q74 0 74 -72t-71 -72h-614q-66 0 -66 75v1357q0 78 89 78h583q81 0 81 -73q0 -72 -81 -72h-528v-466h386
q73 0 73 -72q0 -68 -71 -68h-388v-615z" />
    <glyph glyph-name="Igrave" unicode="&#xcc;" horiz-adv-x="452" 
d="M129 1986l281 -211q36 -26 36 -63q0 -75 -68 -75q-26 0 -55 20l-285 215q-38 28 -38 60q0 79 76 79q21 0 53 -25zM226 0q-76 0 -76 94v1326q0 90 76 90t76 -93v-1321q0 -96 -76 -96z" />
    <glyph glyph-name="Iacute" unicode="&#xcd;" horiz-adv-x="452" 
d="M321 1982q32 25 53 25q76 0 76 -79q0 -32 -38 -60l-285 -215q-29 -20 -55 -20q-68 0 -68 75q0 37 36 63zM226 0q-76 0 -76 94v1326q0 90 76 90t76 -93v-1321q0 -96 -76 -96z" />
    <glyph glyph-name="Icircumflex" unicode="&#xce;" horiz-adv-x="452" 
d="M384 1673l-155 158l-158 -153q-42 -41 -71 -41q-73 0 -73 65q0 31 34 66l198 204q36 37 70 37q28 0 65 -37l195 -196q36 -36 36 -72q0 -67 -76 -67q-31 0 -65 36zM226 0q-76 0 -76 94v1326q0 90 76 90t76 -93v-1321q0 -96 -76 -96z" />
    <glyph glyph-name="Idieresis" unicode="&#xcf;" horiz-adv-x="452" 
d="M378 1745q0 108 70 108q82 0 82 -114q0 -102 -77 -102q-75 0 -75 108zM-78 1744q0 107 71 107q82 0 82 -114q0 -100 -77 -100q-76 0 -76 107zM226 0q-76 0 -76 94v1326q0 90 76 90t76 -93v-1321q0 -96 -76 -96z" />
    <glyph glyph-name="Eth" unicode="&#xd0;" horiz-adv-x="1285" 
d="M375 141h371q113 0 189 84q54 60 54 162v748q0 90 -51 147q-76 84 -186 84h-377v-537h153q73 0 73 -74q0 -76 -85 -76h-141v-538zM227 1428q0 82 84 82h435q164 0 275 -107q114 -110 114 -264v-764q0 -149 -103 -263q-101 -112 -238 -112h-499q-68 0 -68 89v590h-151
q-76 0 -76 75t78 75h149v599z" />
    <glyph glyph-name="Ntilde" unicode="&#xd1;" horiz-adv-x="1202" 
d="M828 1752q34 39 83 39q69 0 69 -75q0 -25 -37 -60q-85 -81 -192 -81q-92 0 -157 61q-94 88 -146 88q-31 0 -76 -37t-75 -37q-71 0 -71 82q0 22 34 52q94 84 190 84q99 0 195 -86q70 -63 106 -63q48 0 77 33zM914 357v1082q0 76 69 76t69 -73v-1353q0 -83 -66 -83
q-46 0 -76 54l-616 1099v-1070q0 -80 -76 -80q-68 0 -68 82v1335q0 89 72 89q47 0 73 -46z" />
    <glyph glyph-name="Ograve" unicode="&#xd2;" horiz-adv-x="1203" 
d="M513 1985l281 -211q36 -26 36 -63q0 -75 -68 -75q-26 0 -55 20l-285 215q-38 28 -38 60q0 79 76 79q21 0 53 -25zM297 423q0 -108 100 -198q87 -77 195 -77q126 0 205 71q111 100 111 233v608q0 146 -105 231q-94 76 -212 76q-99 0 -194 -77q-100 -81 -100 -226v-641z
M150 1088q0 166 131 296q132 131 322 131q181 0 312 -130q138 -137 138 -318v-611q0 -196 -137 -329q-131 -127 -320 -127q-178 0 -311 127q-135 130 -135 301v660z" />
    <glyph glyph-name="Oacute" unicode="&#xd3;" horiz-adv-x="1203" 
d="M722 1985q32 25 53 25q76 0 76 -79q0 -32 -38 -60l-285 -215q-29 -20 -55 -20q-68 0 -68 75q0 37 36 63zM297 423q0 -108 100 -198q87 -77 195 -77q126 0 205 71q111 100 111 233v608q0 146 -105 231q-94 76 -212 76q-99 0 -194 -77q-100 -81 -100 -226v-641zM150 1088
q0 166 131 296q132 131 322 131q181 0 312 -130q138 -137 138 -318v-611q0 -196 -137 -329q-131 -127 -320 -127q-178 0 -311 127q-135 130 -135 301v660z" />
    <glyph glyph-name="Ocircumflex" unicode="&#xd4;" horiz-adv-x="1203" 
d="M761 1673l-155 158l-158 -153q-42 -41 -71 -41q-73 0 -73 65q0 31 34 66l198 204q36 37 70 37q28 0 65 -37l195 -196q36 -36 36 -72q0 -67 -76 -67q-31 0 -65 36zM297 423q0 -108 100 -198q87 -77 195 -77q126 0 205 71q111 100 111 233v608q0 146 -105 231
q-94 76 -212 76q-99 0 -194 -77q-100 -81 -100 -226v-641zM150 1088q0 166 131 296q132 131 322 131q181 0 312 -130q138 -137 138 -318v-611q0 -196 -137 -329q-131 -127 -320 -127q-178 0 -311 127q-135 130 -135 301v660z" />
    <glyph glyph-name="Otilde" unicode="&#xd5;" horiz-adv-x="1203" 
d="M828 1752q34 39 83 39q69 0 69 -75q0 -25 -37 -60q-85 -81 -192 -81q-92 0 -157 61q-94 88 -146 88q-31 0 -76 -37t-75 -37q-71 0 -71 82q0 22 34 52q94 84 190 84q99 0 195 -86q70 -63 106 -63q48 0 77 33zM297 423q0 -108 100 -198q87 -77 195 -77q126 0 205 71
q111 100 111 233v608q0 146 -105 231q-94 76 -212 76q-99 0 -194 -77q-100 -81 -100 -226v-641zM150 1088q0 166 131 296q132 131 322 131q181 0 312 -130q138 -137 138 -318v-611q0 -196 -137 -329q-131 -127 -320 -127q-178 0 -311 127q-135 130 -135 301v660z" />
    <glyph glyph-name="Odieresis" unicode="&#xd6;" horiz-adv-x="1203" 
d="M755 1745q0 108 70 108q82 0 82 -114q0 -102 -77 -102q-75 0 -75 108zM299 1744q0 107 71 107q82 0 82 -114q0 -100 -77 -100q-76 0 -76 107zM297 423q0 -108 100 -198q87 -77 195 -77q126 0 205 71q111 100 111 233v608q0 146 -105 231q-94 76 -212 76q-99 0 -194 -77
q-100 -81 -100 -226v-641zM150 1088q0 166 131 296q132 131 322 131q181 0 312 -130q138 -137 138 -318v-611q0 -196 -137 -329q-131 -127 -320 -127q-178 0 -311 127q-135 130 -135 301v660z" />
    <glyph glyph-name="multiply" unicode="&#xd7;" horiz-adv-x="957" 
d="M726 942q28 28 54 28q76 0 76 -79q0 -30 -32 -59l-246 -238l238 -232q41 -38 41 -75q0 -69 -76 -69q-25 0 -72 45l-232 228l-232 -235q-39 -39 -65 -39q-79 0 -79 68q0 34 36 71l237 238l-235 235q-39 39 -39 64q0 78 78 78q31 0 68 -38l231 -236z" />
    <glyph glyph-name="Oslash" unicode="&#xd8;" horiz-adv-x="1211" 
d="M152 1088q0 166 131 296q132 131 322 131q182 0 312 -130q40 -40 69 -83l72 82q40 47 82 47q71 0 71 -64q0 -37 -17 -57l-146 -166q7 -37 7 -77v-611q0 -196 -137 -329q-131 -127 -320 -127q-181 0 -311 127q-38 37 -66 77l-65 -74q-48 -55 -83 -55q-73 0 -73 69
q0 35 25 63l133 151q-6 34 -6 70v660zM910 987l-586 -667q25 -50 75 -95q86 -77 195 -77q126 0 205 71q111 100 111 233v535zM299 519l586 668q-26 60 -80 104q-93 76 -212 76q-99 0 -194 -77q-100 -81 -100 -226v-545z" />
    <glyph glyph-name="Ugrave" unicode="&#xd9;" horiz-adv-x="1206" 
d="M529 1982l281 -211q36 -26 36 -63q0 -75 -68 -75q-26 0 -55 20l-285 215q-38 28 -38 60q0 79 76 79q21 0 53 -25zM150 1437q0 78 70 78q76 0 76 -78v-969q0 -161 108 -246q95 -74 196 -74q125 0 226 100q82 81 82 225v964q0 78 75 78q73 0 73 -88v-948q0 -213 -131 -338
q-142 -136 -327 -136q-165 0 -294 108q-154 129 -154 332v992z" />
    <glyph glyph-name="Uacute" unicode="&#xda;" horiz-adv-x="1206" 
d="M721 1984q32 25 53 25q76 0 76 -79q0 -32 -38 -60l-285 -215q-29 -20 -55 -20q-68 0 -68 75q0 37 36 63zM150 1437q0 78 70 78q76 0 76 -78v-969q0 -161 108 -246q95 -74 196 -74q125 0 226 100q82 81 82 225v964q0 78 75 78q73 0 73 -88v-948q0 -213 -131 -338
q-142 -136 -327 -136q-165 0 -294 108q-154 129 -154 332v992z" />
    <glyph glyph-name="Ucircumflex" unicode="&#xdb;" horiz-adv-x="1206" 
d="M759 1673l-155 158l-158 -153q-42 -41 -71 -41q-73 0 -73 65q0 31 34 66l198 204q36 37 70 37q28 0 65 -37l195 -196q36 -36 36 -72q0 -67 -76 -67q-31 0 -65 36zM150 1437q0 78 70 78q76 0 76 -78v-969q0 -161 108 -246q95 -74 196 -74q125 0 226 100q82 81 82 225v964
q0 78 75 78q73 0 73 -88v-948q0 -213 -131 -338q-142 -136 -327 -136q-165 0 -294 108q-154 129 -154 332v992z" />
    <glyph glyph-name="Udieresis" unicode="&#xdc;" horiz-adv-x="1206" 
d="M754 1745q0 108 70 108q82 0 82 -114q0 -102 -77 -102q-75 0 -75 108zM298 1744q0 107 71 107q82 0 82 -114q0 -100 -77 -100q-76 0 -76 107zM150 1437q0 78 70 78q76 0 76 -78v-969q0 -161 108 -246q95 -74 196 -74q125 0 226 100q82 81 82 225v964q0 78 75 78
q73 0 73 -88v-948q0 -213 -131 -338q-142 -136 -327 -136q-165 0 -294 108q-154 129 -154 332v992z" />
    <glyph glyph-name="Yacute" unicode="&#xdd;" 
d="M745 1985q32 25 53 25q76 0 76 -79q0 -32 -38 -60l-285 -215q-29 -20 -55 -20q-68 0 -68 75q0 37 36 63zM702 85q0 -85 -70 -85q-73 0 -73 87v674l-443 631q-16 23 -16 46q0 73 79 73q35 0 64 -45l386 -560l390 569q26 36 63 36q76 0 76 -69q0 -27 -19 -54l-437 -631
v-672z" />
    <glyph glyph-name="Thorn" unicode="&#xde;" horiz-adv-x="1030" 
d="M585 384q172 0 172 170v429q0 77 -45.5 122.5t-118.5 45.5h-302v-767h294zM296 240v-145q0 -95 -72 -95q-74 0 -74 95v1337q0 74 69 74q74 0 74 -74v-138h330q127 0 220 -114q57 -70 57 -164v-502q0 -118 -86 -196t-215 -78h-303z" />
    <glyph glyph-name="germandbls" unicode="&#xdf;" horiz-adv-x="1204" 
d="M1054 1113q0 -123 -103 -205q101 -83 101 -225v-394q0 -117 -92 -207q-78 -76 -185 -76q-92 0 -92 73q0 56 94 72q133 22 133 189v315q0 73 -33 118q-47 62 -115 62q-78 0 -78 82q0 69 90 69q56 0 96 48q38 46 38 101v81q0 62 -40 102q-50 50 -106 50h-288
q-88 0 -135 -51q-43 -47 -43 -109v-1103q0 -101 -73 -101t-73 98v1120q0 124 100 217q84 79 226 79h271q148 0 227 -97q80 -98 80 -177v-131z" />
    <glyph glyph-name="agrave" unicode="&#xe0;" horiz-adv-x="986" 
d="M389 1516l281 -211q36 -26 36 -63q0 -75 -68 -75q-26 0 -55 20l-285 215q-38 28 -38 60q0 79 76 79q21 0 53 -25zM414 461q-83 0 -124.5 -49.5t-41.5 -109.5q0 -66 47.5 -108.5t104.5 -42.5h306v310h-292zM254 915q-75 0 -75 74q0 72 75 72h311q129 0 210 -96.5
t81 -198.5v-672q0 -43 -23 -68.5t-63 -25.5h-380q-113 0 -201.5 92t-88.5 208q0 129 84.5 217.5t209.5 88.5h312v184q0 38 -45 81.5t-100 43.5h-307z" />
    <glyph glyph-name="aacute" unicode="&#xe1;" horiz-adv-x="986" 
d="M577 1518q32 25 53 25q76 0 76 -79q0 -32 -38 -60l-285 -215q-29 -20 -55 -20q-68 0 -68 75q0 37 36 63zM414 461q-83 0 -124.5 -49.5t-41.5 -109.5q0 -66 47.5 -108.5t104.5 -42.5h306v310h-292zM254 915q-75 0 -75 74q0 72 75 72h311q129 0 210 -96.5t81 -198.5v-672
q0 -43 -23 -68.5t-63 -25.5h-380q-113 0 -201.5 92t-88.5 208q0 129 84.5 217.5t209.5 88.5h312v184q0 38 -45 81.5t-100 43.5h-307z" />
    <glyph glyph-name="acircumflex" unicode="&#xe2;" horiz-adv-x="986" 
d="M681 1204l-155 158l-158 -153q-42 -41 -71 -41q-73 0 -73 65q0 31 34 66l198 204q36 37 70 37q28 0 65 -37l195 -196q36 -36 36 -72q0 -67 -76 -67q-31 0 -65 36zM414 461q-83 0 -124.5 -49.5t-41.5 -109.5q0 -66 47.5 -108.5t104.5 -42.5h306v310h-292zM254 915
q-75 0 -75 74q0 72 75 72h311q129 0 210 -96.5t81 -198.5v-672q0 -43 -23 -68.5t-63 -25.5h-380q-113 0 -201.5 92t-88.5 208q0 129 84.5 217.5t209.5 88.5h312v184q0 38 -45 81.5t-100 43.5h-307z" />
    <glyph glyph-name="atilde" unicode="&#xe3;" horiz-adv-x="986" 
d="M742 1282q34 39 83 39q69 0 69 -75q0 -25 -37 -60q-85 -81 -192 -81q-92 0 -157 61q-94 88 -146 88q-31 0 -76 -37t-75 -37q-71 0 -71 82q0 22 34 52q94 84 190 84q99 0 195 -86q70 -63 106 -63q48 0 77 33zM414 461q-83 0 -124.5 -49.5t-41.5 -109.5q0 -66 47.5 -108.5
t104.5 -42.5h306v310h-292zM254 915q-75 0 -75 74q0 72 75 72h311q129 0 210 -96.5t81 -198.5v-672q0 -43 -23 -68.5t-63 -25.5h-380q-113 0 -201.5 92t-88.5 208q0 129 84.5 217.5t209.5 88.5h312v184q0 38 -45 81.5t-100 43.5h-307z" />
    <glyph glyph-name="adieresis" unicode="&#xe4;" horiz-adv-x="986" 
d="M638 1275q0 108 70 108q82 0 82 -114q0 -102 -77 -102q-75 0 -75 108zM182 1274q0 107 71 107q82 0 82 -114q0 -100 -77 -100q-76 0 -76 107zM414 461q-83 0 -124.5 -49.5t-41.5 -109.5q0 -66 47.5 -108.5t104.5 -42.5h306v310h-292zM254 915q-75 0 -75 74q0 72 75 72
h311q129 0 210 -96.5t81 -198.5v-672q0 -43 -23 -68.5t-63 -25.5h-380q-113 0 -201.5 92t-88.5 208q0 129 84.5 217.5t209.5 88.5h312v184q0 38 -45 81.5t-100 43.5h-307z" />
    <glyph glyph-name="aring" unicode="&#xe5;" horiz-adv-x="986" 
d="M491.5 1531q-110.5 0 -110.5 -107q0 -119 110 -119q111 0 111 119q0 107 -110.5 107zM488 1670q249 0 249 -246q0 -257 -248.5 -257t-248.5 253q0 250 248 250zM414 461q-83 0 -124.5 -49.5t-41.5 -109.5q0 -66 47.5 -108.5t104.5 -42.5h306v310h-292zM254 915
q-75 0 -75 74q0 72 75 72h311q129 0 210 -96.5t81 -198.5v-672q0 -43 -23 -68.5t-63 -25.5h-380q-113 0 -201.5 92t-88.5 208q0 129 84.5 217.5t209.5 88.5h312v184q0 38 -45 81.5t-100 43.5h-307z" />
    <glyph glyph-name="ae" unicode="&#xe6;" horiz-adv-x="1308" 
d="M556 454h-162q-61 0 -109 -53q-37 -41 -37 -108q0 -68 46 -107q50 -42 106 -42h156v310zM703 600h306v153q0 61 -34 102q-46 54 -120 54q-59 0 -103 -40q-49 -45 -49 -106v-163zM255 1054h147q133 0 227 -105q89 105 233 105q125 0 222 -101q74 -77 74 -210v-205
q0 -84 -63 -84h-395v-135q0 -83 53 -131q47 -43 108 -43h203q94 0 94 -73q0 -72 -92 -72h-222q-94 0 -148 47q-15 -47 -70 -47h-247q-97 0 -189 86q-90 84 -90 204q0 142 85 219q95 86 183 86h188v155q0 57 -41 104q-48 55 -111 55h-148q-80 0 -80 72.5t79 72.5z" />
    <glyph glyph-name="ccedilla" unicode="&#xe7;" horiz-adv-x="829" 
d="M361 95q14 57 61 57q20 0 42 -10q38 -17 38 -60q0 -15 -5 -33l-71 -286q-15 -61 -65 -61q-15 0 -35 6q-42 13 -42 61q0 14 4 30zM653 1062q76 0 76 -70q0 -75 -76 -75h-199q-178 0 -178 -168v-417q0 -181 168 -181h204q81 0 81 -77q0 -70 -77 -70h-233q-120 0 -207 88
q-82 83 -82 204v457q0 137 80 217q92 92 230 92h213z" />
    <glyph glyph-name="egrave" unicode="&#xe8;" horiz-adv-x="1015" 
d="M384 1516l281 -211q36 -26 36 -63q0 -75 -68 -75q-26 0 -55 20l-285 215q-38 28 -38 60q0 79 76 79q21 0 53 -25zM280 604h459q0 156 -50 224q-63 86 -174 86q-106 0 -185 -88q-50 -56 -50 -222zM130 698q0 158 131 268q114 96 251 96q163 0 277 -125q93 -102 93 -213
v-190q0 -72 -67 -72h-537v-132q0 -184 156 -184h363q88 0 88 -74q0 -72 -87 -72h-368q-121 0 -213 97q-87 92 -87 219v382z" />
    <glyph glyph-name="eacute" unicode="&#xe9;" horiz-adv-x="1015" 
d="M576 1518q32 25 53 25q76 0 76 -79q0 -32 -38 -60l-285 -215q-29 -20 -55 -20q-68 0 -68 75q0 37 36 63zM280 604h459q0 156 -50 224q-63 86 -174 86q-106 0 -185 -88q-50 -56 -50 -222zM130 698q0 158 131 268q114 96 251 96q163 0 277 -125q93 -102 93 -213v-190
q0 -72 -67 -72h-537v-132q0 -184 156 -184h363q88 0 88 -74q0 -72 -87 -72h-368q-121 0 -213 97q-87 92 -87 219v382z" />
    <glyph glyph-name="ecircumflex" unicode="&#xea;" horiz-adv-x="1015" 
d="M663 1205l-155 158l-158 -153q-42 -41 -71 -41q-73 0 -73 65q0 31 34 66l198 204q36 37 70 37q28 0 65 -37l195 -196q36 -36 36 -72q0 -67 -76 -67q-31 0 -65 36zM280 604h459q0 156 -50 224q-63 86 -174 86q-106 0 -185 -88q-50 -56 -50 -222zM130 698q0 158 131 268
q114 96 251 96q163 0 277 -125q93 -102 93 -213v-190q0 -72 -67 -72h-537v-132q0 -184 156 -184h363q88 0 88 -74q0 -72 -87 -72h-368q-121 0 -213 97q-87 92 -87 219v382z" />
    <glyph glyph-name="edieresis" unicode="&#xeb;" horiz-adv-x="1015" 
d="M664 1276q0 108 70 108q82 0 82 -114q0 -102 -77 -102q-75 0 -75 108zM208 1275q0 107 71 107q82 0 82 -114q0 -100 -77 -100q-76 0 -76 107zM280 604h459q0 156 -50 224q-63 86 -174 86q-106 0 -185 -88q-50 -56 -50 -222zM130 698q0 158 131 268q114 96 251 96
q163 0 277 -125q93 -102 93 -213v-190q0 -72 -67 -72h-537v-132q0 -184 156 -184h363q88 0 88 -74q0 -72 -87 -72h-368q-121 0 -213 97q-87 92 -87 219v382z" />
    <glyph glyph-name="igrave" unicode="&#xec;" horiz-adv-x="447" 
d="M129 1534l281 -211q36 -26 36 -63q0 -75 -68 -75q-26 0 -55 20l-285 215q-38 28 -38 60q0 79 76 79q21 0 53 -25zM297 986v-902q0 -84 -72 -84q-75 0 -75 82v898q0 77 74 77q73 0 73 -71z" />
    <glyph glyph-name="iacute" unicode="&#xed;" horiz-adv-x="447" 
d="M316 1518q32 25 53 25q76 0 76 -79q0 -32 -38 -60l-285 -215q-29 -20 -55 -20q-68 0 -68 75q0 37 36 63zM297 986v-902q0 -84 -72 -84q-75 0 -75 82v898q0 77 74 77q73 0 73 -71z" />
    <glyph glyph-name="icircumflex" unicode="&#xee;" horiz-adv-x="447" 
d="M381 1204l-155 158l-158 -153q-42 -41 -71 -41q-73 0 -73 65q0 31 34 66l198 204q36 37 70 37q28 0 65 -37l195 -196q36 -36 36 -72q0 -67 -76 -67q-31 0 -65 36zM297 986v-902q0 -84 -72 -84q-75 0 -75 82v898q0 77 74 77q73 0 73 -71z" />
    <glyph glyph-name="idieresis" unicode="&#xef;" horiz-adv-x="447" 
d="M375 1276q0 108 70 108q82 0 82 -114q0 -102 -77 -102q-75 0 -75 108zM-81 1275q0 107 71 107q82 0 82 -114q0 -100 -77 -100q-76 0 -76 107zM297 986v-902q0 -84 -72 -84q-75 0 -75 82v898q0 77 74 77q73 0 73 -71z" />
    <glyph glyph-name="eth" unicode="&#xf0;" horiz-adv-x="1013" 
d="M740 358v398h-234q-98 0 -163 -70q-68 -73 -68 -172v-152q0 -98 62 -150q84 -71 168 -71q99 0 151 54q84 87 84 163zM576 1414l83 86q24 25 51 25q31 0 55 -29q20 -24 20 -46q0 -27 -28 -56l-70 -72q196 -226 196 -457v-522q0 -133 -107 -237q-109 -106 -250 -106
q-175 0 -271 93q-125 121 -125 250v202q0 123 98 232q112 125 280 125h228q-19 183 -150 315l-85 -87q-23 -25 -52 -25q-30 0 -53 25q-22 24 -22 48q0 27 28 56l71 73q-56 32 -126 57q-63 22 -63 68q0 78 72 78t220 -96z" />
    <glyph glyph-name="ntilde" unicode="&#xf1;" horiz-adv-x="1011" 
d="M730 1283q34 39 83 39q69 0 69 -75q0 -25 -37 -60q-85 -81 -192 -81q-92 0 -157 61q-94 88 -146 88q-31 0 -76 -37t-75 -37q-71 0 -71 82q0 22 34 52q94 84 190 84q99 0 195 -86q70 -63 106 -63q48 0 77 33zM130 988q0 75 73 75h385q121 0 219 -97q74 -73 74 -192v-671
q0 -96 -70 -96q-76 0 -76 98v657q0 73 -39 108q-47 44 -103 44h-322v-822q0 -84 -70 -84q-71 0 -71 83v897z" />
    <glyph glyph-name="ograve" unicode="&#xf2;" horiz-adv-x="1009" 
d="M387 1517l281 -211q36 -26 36 -63q0 -75 -68 -75q-26 0 -55 20l-285 215q-38 28 -38 60q0 79 76 79q21 0 53 -25zM353 862q-80 -59 -80 -183v-307q0 -113 110 -182q64 -40 128 -40t129 44q98 66 98 209v255q0 127 -75 195q-72 66 -152 66t-158 -57zM493 1063
q168 0 274 -105q112 -111 112 -236v-348q0 -168 -121 -274q-105 -92 -254 -92q-159 0 -253 96q-121 123 -121 275v327q0 161 139 274q102 83 224 83z" />
    <glyph glyph-name="oacute" unicode="&#xf3;" horiz-adv-x="1009" 
d="M575 1516q32 25 53 25q76 0 76 -79q0 -32 -38 -60l-285 -215q-29 -20 -55 -20q-68 0 -68 75q0 37 36 63zM353 862q-80 -59 -80 -183v-307q0 -113 110 -182q64 -40 128 -40t129 44q98 66 98 209v255q0 127 -75 195q-72 66 -152 66t-158 -57zM493 1063q168 0 274 -105
q112 -111 112 -236v-348q0 -168 -121 -274q-105 -92 -254 -92q-159 0 -253 96q-121 123 -121 275v327q0 161 139 274q102 83 224 83z" />
    <glyph glyph-name="ocircumflex" unicode="&#xf4;" horiz-adv-x="1009" 
d="M648 1204l-155 158l-158 -153q-42 -41 -71 -41q-73 0 -73 65q0 31 34 66l198 204q36 37 70 37q28 0 65 -37l195 -196q36 -36 36 -72q0 -67 -76 -67q-31 0 -65 36zM353 862q-80 -59 -80 -183v-307q0 -113 110 -182q64 -40 128 -40t129 44q98 66 98 209v255q0 127 -75 195
q-72 66 -152 66t-158 -57zM493 1063q168 0 274 -105q112 -111 112 -236v-348q0 -168 -121 -274q-105 -92 -254 -92q-159 0 -253 96q-121 123 -121 275v327q0 161 139 274q102 83 224 83z" />
    <glyph glyph-name="otilde" unicode="&#xf5;" horiz-adv-x="1009" 
d="M727 1282q34 39 83 39q69 0 69 -75q0 -25 -37 -60q-85 -81 -192 -81q-92 0 -157 61q-94 88 -146 88q-31 0 -76 -37t-75 -37q-71 0 -71 82q0 22 34 52q94 84 190 84q99 0 195 -86q70 -63 106 -63q48 0 77 33zM353 862q-80 -59 -80 -183v-307q0 -113 110 -182
q64 -40 128 -40t129 44q98 66 98 209v255q0 127 -75 195q-72 66 -152 66t-158 -57zM493 1063q168 0 274 -105q112 -111 112 -236v-348q0 -168 -121 -274q-105 -92 -254 -92q-159 0 -253 96q-121 123 -121 275v327q0 161 139 274q102 83 224 83z" />
    <glyph glyph-name="odieresis" unicode="&#xf6;" horiz-adv-x="1009" 
d="M645 1275q0 108 70 108q82 0 82 -114q0 -102 -77 -102q-75 0 -75 108zM189 1274q0 107 71 107q82 0 82 -114q0 -100 -77 -100q-76 0 -76 107zM353 862q-80 -59 -80 -183v-307q0 -113 110 -182q64 -40 128 -40t129 44q98 66 98 209v255q0 127 -75 195q-72 66 -152 66
t-158 -57zM493 1063q168 0 274 -105q112 -111 112 -236v-348q0 -168 -121 -274q-105 -92 -254 -92q-159 0 -253 96q-121 123 -121 275v327q0 161 139 274q102 83 224 83z" />
    <glyph glyph-name="divide" unicode="&#xf7;" horiz-adv-x="955" 
d="M403 934q0 108 70 108q81 0 81 -113q0 -100 -75.5 -100t-75.5 105zM403 252q0 107 70 107q82 0 82 -114q0 -100 -77 -100q-75 0 -75 107zM195 664h571q89 0 89 -70q0 -74 -84 -74h-581q-90 0 -90 75q0 69 95 69z" />
    <glyph glyph-name="oslash" unicode="&#xf8;" horiz-adv-x="1117" 
d="M792 663l-419 -418q25 -30 64 -55q62 -40 128 -40q64 0 129 44q98 66 98 209v260zM547 1063q169 0 274 -105q15 -15 28 -30l105 104q29 29 60 29q73 0 73 -68q0 -36 -29 -65l-135 -134q10 -35 10 -72v-348q0 -168 -121 -274q-105 -92 -254 -92q-157 0 -253 96
q-19 19 -35 39l-112 -112q-28 -27 -60 -27q-68 0 -68 68q0 40 30 70l138 137q-14 49 -14 100v327q0 161 139 274q102 83 224 83zM407 862q-80 -59 -80 -183v-271l417 415q-12 16 -27 30q-71 66 -152 66q-80 0 -158 -57z" />
    <glyph glyph-name="ugrave" unicode="&#xf9;" horiz-adv-x="1012" 
d="M388 1518l281 -211q36 -26 36 -63q0 -75 -68 -75q-26 0 -55 20l-285 215q-38 28 -38 60q0 79 76 79q21 0 53 -25zM130 971q0 87 72 87q71 0 71 -89v-664q0 -69 44 -112q47 -46 107 -46h313v828q0 79 75 79q70 0 70 -81v-891q0 -82 -75 -82h-393q-120 0 -208 94
q-76 81 -76 208v669z" />
    <glyph glyph-name="uacute" unicode="&#xfa;" horiz-adv-x="1012" 
d="M574 1517q32 25 53 25q76 0 76 -79q0 -32 -38 -60l-285 -215q-29 -20 -55 -20q-68 0 -68 75q0 37 36 63zM130 971q0 87 72 87q71 0 71 -89v-664q0 -69 44 -112q47 -46 107 -46h313v828q0 79 75 79q70 0 70 -81v-891q0 -82 -75 -82h-393q-120 0 -208 94q-76 81 -76 208
v669z" />
    <glyph glyph-name="ucircumflex" unicode="&#xfb;" horiz-adv-x="1012" 
d="M666 1204l-155 158l-158 -153q-42 -41 -71 -41q-73 0 -73 65q0 31 34 66l198 204q36 37 70 37q28 0 65 -37l195 -196q36 -36 36 -72q0 -67 -76 -67q-31 0 -65 36zM130 971q0 87 72 87q71 0 71 -89v-664q0 -69 44 -112q47 -46 107 -46h313v828q0 79 75 79q70 0 70 -81
v-891q0 -82 -75 -82h-393q-120 0 -208 94q-76 81 -76 208v669z" />
    <glyph glyph-name="udieresis" unicode="&#xfc;" horiz-adv-x="1012" 
d="M659 1276q0 108 70 108q82 0 82 -114q0 -102 -77 -102q-75 0 -75 108zM203 1275q0 107 71 107q82 0 82 -114q0 -100 -77 -100q-76 0 -76 107zM130 971q0 87 72 87q71 0 71 -89v-664q0 -69 44 -112q47 -46 107 -46h313v828q0 79 75 79q70 0 70 -81v-891q0 -82 -75 -82
h-393q-120 0 -208 94q-76 81 -76 208v669z" />
    <glyph glyph-name="yacute" unicode="&#xfd;" horiz-adv-x="951" 
d="M574 1516q32 25 53 25q76 0 76 -79q0 -32 -38 -60l-285 -215q-29 -20 -55 -20q-68 0 -68 75q0 37 36 63zM835 915l-436 -1302q-23 -69 -89 -69h-129q-81 0 -81 71q0 74 84 74h85l123 372l-279 859q-13 37 -13 65q0 69 73 69q52 0 74 -69l224 -689l237 697q21 61 69 61
q74 0 74 -69q0 -22 -16 -70z" />
    <glyph glyph-name="thorn" unicode="&#xfe;" horiz-adv-x="1030" 
d="M585 148q172 0 172 170v429q0 77 -45.5 122.5t-118.5 45.5h-302v-767h294zM296 4v-365q0 -95 -72 -95q-74 0 -74 95v1724q0 74 69 74q74 0 74 -74v-305h330q127 0 220 -114q57 -70 57 -164v-502q0 -117 -86 -196q-87 -78 -215 -78h-303z" />
    <glyph glyph-name="ydieresis" unicode="&#xff;" horiz-adv-x="951" 
d="M627 1276q0 108 70 108q82 0 82 -114q0 -102 -77 -102q-75 0 -75 108zM171 1275q0 107 71 107q82 0 82 -114q0 -100 -77 -100q-76 0 -76 107zM835 915l-436 -1302q-23 -69 -89 -69h-129q-81 0 -81 71q0 74 84 74h85l123 372l-279 859q-13 37 -13 65q0 69 73 69
q52 0 74 -69l224 -689l237 697q21 61 69 61q74 0 74 -69q0 -22 -16 -70z" />
    <glyph glyph-name="Amacron" unicode="&#x100;" 
d="M257 1781h752q78 0 78 -70q0 -74 -77 -74h-755q-74 0 -74 76q0 68 76 68zM564 1455q18 55 70 55q50 0 68 -55l447 -1344q9 -27 9 -44q0 -59 -72 -67q-53 0 -75 66l-102 316h-554l-109 -324q-21 -61 -68 -61q-78 0 -78 73q0 10 22 75zM630 1206l-230 -683h461z" />
    <glyph glyph-name="amacron" unicode="&#x101;" horiz-adv-x="986" 
d="M169.742 1310h620.822q64.3945 0 64.3945 -70q0 -74 -63.5684 -74h-623.299q-61.0918 0 -61.0918 76q0 68 62.7422 68zM414 461q-83 0 -124.5 -49.5t-41.5 -109.5q0 -66 47.5 -108.5t104.5 -42.5h306v310h-292zM254 915q-75 0 -75 74q0 72 75 72h311q129 0 210 -96.5
t81 -198.5v-672q0 -43 -23 -68.5t-63 -25.5h-380q-113 0 -201.5 92t-88.5 208q0 129 84.5 217.5t209.5 88.5h312v184q0 38 -45 81.5t-100 43.5h-307z" />
    <glyph glyph-name="Abreve" unicode="&#x102;" 
d="M481 1930q0 -71 54 -111q50 -37 96 -37q59 0 97 30q58 46 58 111q0 82 81 82q69 0 69 -84q0 -122 -86 -201q-96 -88 -221 -88q-136 0 -220 102q-77 94 -77 200q0 71 83 71q66 0 66 -75zM564 1455q18 55 70 55q50 0 68 -55l447 -1344q9 -27 9 -44q0 -59 -72 -67
q-53 0 -75 66l-102 316h-554l-109 -324q-21 -61 -68 -61q-78 0 -78 73q0 10 22 75zM630 1206l-230 -683h461z" />
    <glyph glyph-name="abreve" unicode="&#x103;" horiz-adv-x="986" 
d="M341 1465q0 -71 54 -111q50 -37 96 -37q59 0 97 30q58 46 58 111q0 82 81 82q69 0 69 -84q0 -122 -86 -201q-96 -88 -221 -88q-136 0 -220 102q-77 94 -77 200q0 71 83 71q66 0 66 -75zM414 461q-83 0 -124.5 -49.5t-41.5 -109.5q0 -66 47.5 -108.5t104.5 -42.5h306v310
h-292zM254 915q-75 0 -75 74q0 72 75 72h311q129 0 210 -96.5t81 -198.5v-672q0 -43 -23 -68.5t-63 -25.5h-380q-113 0 -201.5 92t-88.5 208q0 129 84.5 217.5t209.5 88.5h312v184q0 38 -45 81.5t-100 43.5h-307z" />
    <glyph glyph-name="Aogonek" unicode="&#x104;" 
d="M1077 147q79 0 79 -76q0 -72 -87 -72q-109 0 -109 -119q0 -115 109 -115q78 0 78 -72q0 -68 -83 -68q-102 0 -171 65q-85 80 -85 189t74 187q77 81 195 81zM564 1455q18 55 70 55q50 0 68 -55l447 -1344q9 -27 9 -44q0 -59 -72 -67q-53 0 -75 66l-102 316h-554l-109 -324
q-21 -61 -68 -61q-78 0 -78 73q0 10 22 75zM630 1206l-230 -683h461z" />
    <glyph glyph-name="aogonek" unicode="&#x105;" horiz-adv-x="986" 
d="M774 149q79 0 79 -76q0 -72 -87 -72q-109 0 -109 -119q0 -115 109 -115q78 0 78 -72q0 -68 -83 -68q-102 0 -171 65q-85 80 -85 189t74 187q77 81 195 81zM414 461q-83 0 -124.5 -49.5t-41.5 -109.5q0 -66 47.5 -108.5t104.5 -42.5h306v310h-292zM254 915q-75 0 -75 74
q0 72 75 72h311q129 0 210 -96.5t81 -198.5v-672q0 -43 -23 -68.5t-63 -25.5h-380q-113 0 -201.5 92t-88.5 208q0 129 84.5 217.5t209.5 88.5h312v184q0 38 -45 81.5t-100 43.5h-307z" />
    <glyph glyph-name="Cacute" unicode="&#x106;" horiz-adv-x="1004" 
d="M685 1984q32 25 53 25q76 0 76 -79q0 -32 -38 -60l-285 -215q-29 -20 -55 -20q-68 0 -68 75q0 37 36 63zM520 1515h306q74 0 74 -75q0 -76 -80 -76h-301q-84 0 -163 -73q-60 -56 -60 -150v-764q0 -94 63 -162q66 -70 137 -70h336q72 0 72 -73q0 -69 -73 -69h-341
q-138 0 -258 133q-82 91 -82 233v783q0 150 118 261q108 102 252 102z" />
    <glyph glyph-name="cacute" unicode="&#x107;" horiz-adv-x="829" 
d="M575 1516q32 25 53 25q76 0 76 -79q0 -32 -38 -60l-285 -215q-29 -20 -55 -20q-68 0 -68 75q0 37 36 63zM653 1062q76 0 76 -70q0 -75 -76 -75h-199q-178 0 -178 -168v-417q0 -181 168 -181h204q81 0 81 -77q0 -70 -77 -70h-233q-120 0 -207 88q-82 83 -82 204v457
q0 137 80 217q92 92 230 92h213z" />
    <glyph glyph-name="Cdotaccent" unicode="&#x10a;" horiz-adv-x="1004" 
d="M541 1880q0 107 70 107q82 0 82 -114q0 -100 -77 -100q-75 0 -75 107zM520 1515h306q74 0 74 -75q0 -76 -80 -76h-301q-84 0 -163 -73q-60 -56 -60 -150v-764q0 -94 63 -162q66 -70 137 -70h336q72 0 72 -73q0 -69 -73 -69h-341q-138 0 -258 133q-82 91 -82 233v783
q0 150 118 261q108 102 252 102z" />
    <glyph glyph-name="cdotaccent" unicode="&#x10b;" horiz-adv-x="829" 
d="M420 1410q0 107 70 107q82 0 82 -114q0 -100 -77 -100q-75 0 -75 107zM653 1062q76 0 76 -70q0 -75 -76 -75h-199q-178 0 -178 -168v-417q0 -181 168 -181h204q81 0 81 -77q0 -70 -77 -70h-233q-120 0 -207 88q-82 83 -82 204v457q0 137 80 217q92 92 230 92h213z" />
    <glyph glyph-name="Ccaron" unicode="&#x10c;" horiz-adv-x="1004" 
d="M769 1983q27 27 55 27q31 0 53 -22q20 -20 20 -52q0 -34 -42 -75l-190 -189q-37 -37 -65 -37q-33 0 -70 37l-210 211q-22 22 -22 50q0 36 23 57q21 19 51 19q29 0 53 -25l175 -170zM520 1515h306q74 0 74 -75q0 -76 -80 -76h-301q-84 0 -163 -73q-60 -56 -60 -150v-764
q0 -94 63 -162q66 -70 137 -70h336q72 0 72 -73q0 -69 -73 -69h-341q-138 0 -258 133q-82 91 -82 233v783q0 150 118 261q108 102 252 102z" />
    <glyph glyph-name="ccaron" unicode="&#x10d;" horiz-adv-x="829" 
d="M630 1516q27 27 55 27q31 0 53 -22q20 -20 20 -52q0 -34 -42 -75l-190 -189q-37 -37 -65 -37q-33 0 -70 37l-210 211q-22 22 -22 50q0 36 23 57q21 19 51 19q29 0 53 -25l175 -170zM653 1062q76 0 76 -70q0 -75 -76 -75h-199q-178 0 -178 -168v-417q0 -181 168 -181h204
q81 0 81 -77q0 -70 -77 -70h-233q-120 0 -207 88q-82 83 -82 204v457q0 137 80 217q92 92 230 92h213z" />
    <glyph glyph-name="Dcaron" unicode="&#x10e;" horiz-adv-x="1205" 
d="M740 1983q27 27 55 27q31 0 53 -22q20 -20 20 -52q0 -34 -42 -75l-190 -189q-37 -37 -65 -37q-33 0 -70 37l-210 211q-22 22 -22 50q0 36 23 57q21 19 51 19q29 0 53 -25l175 -170zM297 144h347q134 0 200.5 69.5t66.5 170.5v751q0 89 -65 160t-172 71h-377v-1222z
M150 1428q0 82 83 82h469q138 0 245.5 -108t107.5 -245v-807q0 -137 -108 -243.5t-231 -106.5h-499q-67 0 -67 89v1339z" />
    <glyph glyph-name="dcaron" unicode="&#x10f;" horiz-adv-x="1116" 
d="M1046 1453q17 67 70 67q75 0 75 -65q0 -24 -6 -48l-65 -263q-18 -70 -74 -70q-72 0 -72 68q0 22 10 63zM445 916q-173 0 -173 -192v-394q0 -179 184 -179h279v765h-290zM735 1438q0 77 73 77t73 -82v-1339q0 -94 -95 -94h-347q-130 0 -211 81q-98 98 -98 216v477
q0 97 69 181q87 106 245 106h291v377z" />
    <glyph glyph-name="Dcroat" unicode="&#x110;" horiz-adv-x="1285" 
d="M375 141h371q113 0 189 84q54 60 54 162v748q0 90 -51 147q-76 84 -186 84h-377v-537h153q73 0 73 -74q0 -76 -85 -76h-141v-538zM227 1428q0 82 84 82h435q164 0 275 -107q114 -110 114 -264v-764q0 -149 -103 -263q-101 -112 -238 -112h-499q-68 0 -68 89v590h-151
q-76 0 -76 75t78 75h149v599z" />
    <glyph glyph-name="dcroat" unicode="&#x111;" horiz-adv-x="1118" 
d="M433 912q-68 0 -117 -55q-42 -47 -42 -107v-438q0 -65 43 -117q42 -51 111 -51h306v768h-301zM734 1815q0 79 76 79q68 0 68 -76v-301h220q80 0 80 -77q0 -70 -72 -70h-224v-1293q0 -77 -78 -77h-388q-115 0 -202 88q-84 85 -84 201v492q0 81 72 173q81 103 241 103h291
v313h-213q-88 0 -88 72q0 73 88 73h213v300z" />
    <glyph glyph-name="Emacron" unicode="&#x112;" horiz-adv-x="1003" 
d="M154 1781h752q78 0 78 -70q0 -74 -77 -74h-755q-74 0 -74 76q0 68 76 68zM294 149h533q74 0 74 -72t-71 -72h-614q-66 0 -66 75v1357q0 78 89 78h583q81 0 81 -73q0 -72 -81 -72h-528v-466h386q73 0 73 -72q0 -68 -71 -68h-388v-615z" />
    <glyph glyph-name="emacron" unicode="&#x113;" horiz-adv-x="1015" 
d="M135 1312h752q78 0 78 -70q0 -74 -77 -74h-755q-74 0 -74 76q0 68 76 68zM280 604h459q0 156 -50 224q-63 86 -174 86q-106 0 -185 -88q-50 -56 -50 -222zM130 698q0 158 131 268q114 96 251 96q163 0 277 -125q93 -102 93 -213v-190q0 -72 -67 -72h-537v-132
q0 -184 156 -184h363q88 0 88 -74q0 -72 -87 -72h-368q-121 0 -213 97q-87 92 -87 219v382z" />
    <glyph glyph-name="Edotaccent" unicode="&#x116;" horiz-adv-x="1003" 
d="M454 1880q0 107 70 107q82 0 82 -114q0 -100 -77 -100q-75 0 -75 107zM294 149h533q74 0 74 -72t-71 -72h-614q-66 0 -66 75v1357q0 78 89 78h583q81 0 81 -73q0 -72 -81 -72h-528v-466h386q73 0 73 -72q0 -68 -71 -68h-388v-615z" />
    <glyph glyph-name="edotaccent" unicode="&#x117;" horiz-adv-x="1015" 
d="M436 1410q0 107 70 107q82 0 82 -114q0 -100 -77 -100q-75 0 -75 107zM280 604h459q0 156 -50 224q-63 86 -174 86q-106 0 -185 -88q-50 -56 -50 -222zM130 698q0 158 131 268q114 96 251 96q163 0 277 -125q93 -102 93 -213v-190q0 -72 -67 -72h-537v-132
q0 -184 156 -184h363q88 0 88 -74q0 -72 -87 -72h-368q-121 0 -213 97q-87 92 -87 219v382z" />
    <glyph glyph-name="Eogonek" unicode="&#x118;" horiz-adv-x="1003" 
d="M819 147q79 0 79 -76q0 -72 -87 -72q-109 0 -109 -119q0 -115 109 -115q78 0 78 -72q0 -68 -83 -68q-102 0 -171 65q-85 80 -85 189t74 187q77 81 195 81zM294 149h533q74 0 74 -72t-71 -72h-614q-66 0 -66 75v1357q0 78 89 78h583q81 0 81 -73q0 -72 -81 -72h-528v-466
h386q73 0 73 -72q0 -68 -71 -68h-388v-615z" />
    <glyph glyph-name="eogonek" unicode="&#x119;" horiz-adv-x="1015" 
d="M803 142q79 0 79 -76q0 -72 -87 -72q-109 0 -109 -119q0 -115 109 -115q78 0 78 -72q0 -68 -83 -68q-102 0 -171 65q-85 80 -85 189t74 187q77 81 195 81zM280 604h459q0 156 -50 224q-63 86 -174 86q-106 0 -185 -88q-50 -56 -50 -222zM130 698q0 158 131 268
q114 96 251 96q163 0 277 -125q93 -102 93 -213v-190q0 -72 -67 -72h-537v-132q0 -184 156 -184h363q88 0 88 -74q0 -72 -87 -72h-368q-121 0 -213 97q-87 92 -87 219v382z" />
    <glyph glyph-name="Ecaron" unicode="&#x11a;" horiz-adv-x="1003" 
d="M702 1985q27 27 55 27q31 0 53 -22q20 -20 20 -52q0 -34 -42 -75l-190 -189q-37 -37 -65 -37q-33 0 -70 37l-210 211q-22 22 -22 50q0 36 23 57q21 19 51 19q29 0 53 -25l175 -170zM294 149h533q74 0 74 -72t-71 -72h-614q-66 0 -66 75v1357q0 78 89 78h583q81 0 81 -73
q0 -72 -81 -72h-528v-466h386q73 0 73 -72q0 -68 -71 -68h-388v-615z" />
    <glyph glyph-name="ecaron" unicode="&#x11b;" horiz-adv-x="1015" 
d="M683 1516q27 27 55 27q31 0 53 -22q20 -20 20 -52q0 -34 -42 -75l-190 -189q-37 -37 -65 -37q-33 0 -70 37l-210 211q-22 22 -22 50q0 36 23 57q21 19 51 19q29 0 53 -25l175 -170zM280 604h459q0 156 -50 224q-63 86 -174 86q-106 0 -185 -88q-50 -56 -50 -222zM130 698
q0 158 131 268q114 96 251 96q163 0 277 -125q93 -102 93 -213v-190q0 -72 -67 -72h-537v-132q0 -184 156 -184h363q88 0 88 -74q0 -72 -87 -72h-368q-121 0 -213 97q-87 92 -87 219v382z" />
    <glyph glyph-name="Gbreve" unicode="&#x11e;" horiz-adv-x="1187" 
d="M523 1939q0 -71 54 -111q50 -37 96 -37q59 0 97 30q58 46 58 111q0 82 81 82q69 0 69 -84q0 -122 -86 -201q-96 -88 -221 -88q-136 0 -220 102q-77 94 -77 200q0 71 83 71q66 0 66 -75zM911 149v614h-157q-71 0 -71 71q0 72 68 72h239q64 0 64 -95v-719q0 -87 -83 -87
h-486q-109 0 -222 98.5t-113 312.5v745q0 141 114.5 247.5t262.5 106.5h442q88 0 88 -72t-87 -72h-427q-110 0 -180 -72t-70 -175v-724q0 -111 65 -181t145 -70h408z" />
    <glyph glyph-name="gbreve" unicode="&#x11f;" horiz-adv-x="1029" 
d="M385 1465q0 -71 54 -111q50 -37 96 -37q59 0 97 30q58 46 58 111q0 82 81 82q69 0 69 -84q0 -122 -86 -201q-96 -88 -221 -88q-136 0 -220 102q-77 94 -77 200q0 71 83 71q66 0 66 -75zM445 911q-70 0 -121 -44q-52 -45 -52 -124v-417q0 -90 44 -137q41 -44 122 -44h296
v766h-289zM433 1057h371q75 0 75 -82v-1156q0 -114 -85 -195q-84 -80 -200 -80h-313q-78 0 -78 71q0 74 82 74h252q194 0 194 142v169h-324q-122 0 -200 91q-77 90 -77 215v458q0 123 84 205q90 88 219 88z" />
    <glyph glyph-name="Gdotaccent" unicode="&#x120;" horiz-adv-x="1187" 
d="M602 1880q0 107 70 107q82 0 82 -114q0 -100 -77 -100q-75 0 -75 107zM911 149v614h-157q-71 0 -71 71q0 72 68 72h239q64 0 64 -95v-719q0 -87 -83 -87h-486q-109 0 -222 98.5t-113 312.5v745q0 141 114.5 247.5t262.5 106.5h442q88 0 88 -72t-87 -72h-427
q-110 0 -180 -72t-70 -175v-724q0 -111 65 -181t145 -70h408z" />
    <glyph glyph-name="gdotaccent" unicode="&#x121;" horiz-adv-x="1029" 
d="M486 1410q0 107 70 107q82 0 82 -114q0 -100 -77 -100q-75 0 -75 107zM445 911q-70 0 -121 -44q-52 -45 -52 -124v-417q0 -90 44 -137q41 -44 122 -44h296v766h-289zM433 1057h371q75 0 75 -82v-1156q0 -114 -85 -195q-84 -80 -200 -80h-313q-78 0 -78 71q0 74 82 74h252
q194 0 194 142v169h-324q-122 0 -200 91q-77 90 -77 215v458q0 123 84 205q90 88 219 88z" />
    <glyph glyph-name="Gcommaaccent" unicode="&#x122;" horiz-adv-x="1187" 
d="M544 -168q17 67 70 67q75 0 75 -65q0 -24 -6 -48l-65 -263q-18 -70 -74 -70q-72 0 -72 68q0 22 10 63zM911 149v614h-157q-71 0 -71 71q0 72 68 72h239q64 0 64 -95v-719q0 -87 -83 -87h-486q-109 0 -222 98.5t-113 312.5v745q0 141 114.5 247.5t262.5 106.5h442
q88 0 88 -72t-87 -72h-427q-110 0 -180 -72t-70 -175v-724q0 -111 65 -181t145 -70h408z" />
    <glyph glyph-name="gcommaaccent" unicode="&#x123;" horiz-adv-x="1029" 
d="M445 911q-70 0 -121 -44q-52 -45 -52 -124v-417q0 -90 44 -137q41 -44 122 -44h296v766h-289zM433 1057h371q75 0 75 -82v-1156q0 -114 -85 -195q-84 -80 -200 -80h-313q-78 0 -78 71q0 74 82 74h252q194 0 194 142v169h-324q-122 0 -200 91q-77 90 -77 215v458
q0 123 84 205q90 88 219 88zM555 1547q17 67 70 67q75 0 75 -65q0 -24 -6 -48l-65 -263q-17 -70 -74 -70q-72 0 -72 68q0 23 10 63z" />
    <glyph glyph-name="Hbar" unicode="&#x126;" horiz-adv-x="1295" 
d="M958 760h-621v-683q0 -77 -73 -77q-74 0 -74 76v1292h-146q-74 0 -74 76q0 67 72 67h148v293q0 85 73.5 85t73.5 -85v-293h621v299q0 75 71 75t71 -74v-300h142q83 0 83 -77q0 -66 -86 -66h-139v-1288q0 -80 -71 -80t-71 78v682zM958 1368h-621v-464h621v464z" />
    <glyph glyph-name="hbar" unicode="&#x127;" horiz-adv-x="1108" 
d="M197 1810q0 89 75 89q71 0 71 -85v-293h148q72 0 72 -77q0 -67 -77 -67h-143v-317h310q119 0 217 -93q78 -74 78 -206v-677q0 -78 -66 -78q-77 0 -77 80v658q0 172 -176 172h-286v-829q0 -42 -19 -61.5t-57 -19.5q-70 0 -70 86v1285h-153q-74 0 -74 75q0 69 77 69h150
v289z" />
    <glyph glyph-name="Itilde" unicode="&#x128;" horiz-adv-x="654" 
d="M327 0q-76 0 -76 94v1326q0 90 76 90t76 -93v-1321q0 -96 -76 -96zM552 1814q34 39 83 39q69 0 69 -75q0 -25 -37 -60q-85 -81 -192 -81q-92 0 -157 61q-94 88 -146 88q-31 0 -76 -37t-75 -37q-71 0 -71 82q0 22 34 52q94 84 190 84q99 0 195 -86q70 -63 106 -63
q48 0 77 33z" />
    <glyph glyph-name="itilde" unicode="&#x129;" horiz-adv-x="654" 
d="M401 986v-902q0 -84 -72 -84q-75 0 -75 82v898q0 77 74 77q73 0 73 -71zM552 1362q34 39 83 39q69 0 69 -75q0 -25 -37 -60q-85 -81 -192 -81q-92 0 -157 61q-94 88 -146 88q-31 0 -76 -37t-75 -37q-71 0 -71 82q0 22 34 52q94 84 190 84q99 0 195 -86q70 -63 106 -63
q48 0 77 33z" />
    <glyph glyph-name="Imacron" unicode="&#x12a;" horiz-adv-x="576" 
d="M81.2705 1781h408.358q42.3564 0 42.3564 -70q0 -74 -41.8135 -74h-409.987q-40.1846 0 -40.1846 76q0 68 41.2705 68zM282 0q-76 0 -76 94v1326q0 90 76 90t76 -93v-1321q0 -96 -76 -96z" />
    <glyph glyph-name="imacron" unicode="&#x12b;" horiz-adv-x="585" 
d="M81.9385 1329h414.968q43.042 0 43.042 -70q0 -74 -42.4902 -74h-416.623q-40.835 0 -40.835 76q0 68 41.9385 68zM345 986v-902q0 -84 -72 -84q-75 0 -75 82v898q0 77 74 77q73 0 73 -71z" />
    <glyph glyph-name="Iogonek" unicode="&#x12e;" horiz-adv-x="452" 
d="M220 149q79 0 79 -76q0 -72 -87 -72q-109 0 -109 -119q0 -115 109 -115q78 0 78 -72q0 -68 -83 -68q-102 0 -171 65q-85 80 -85 189t74 187q77 81 195 81zM226 0q-76 0 -76 94v1326q0 90 76 90t76 -93v-1321q0 -96 -76 -96z" />
    <glyph glyph-name="iogonek" unicode="&#x12f;" horiz-adv-x="447" 
d="M215 152q79 0 79 -76q0 -72 -87 -72q-109 0 -109 -119q0 -115 109 -115q78 0 78 -72q0 -68 -83 -68q-102 0 -171 65q-85 80 -85 189t74 187q77 81 195 81zM297 980v-892q0 -83 -72 -83q-75 0 -75 81v893q0 82 74 82q73 0 73 -81zM153 1445q0 70 69 70q74 0 74 -75v-65
q0 -78 -76 -78q-67 0 -67 73v75z" />
    <glyph glyph-name="Idotaccent" unicode="&#x130;" horiz-adv-x="452" 
d="M152 1880q0 107 70 107q82 0 82 -114q0 -100 -77 -100q-75 0 -75 107zM226 0q-76 0 -76 94v1326q0 90 76 90t76 -93v-1321q0 -96 -76 -96z" />
    <glyph glyph-name="dotlessi" unicode="&#x131;" horiz-adv-x="447" 
d="M297 986v-902q0 -84 -72 -84q-75 0 -75 82v898q0 77 74 77q73 0 73 -71z" />
    <glyph glyph-name="Kcommaaccent" unicode="&#x136;" horiz-adv-x="1155" 
d="M484 -172q17 67 70 67q75 0 75 -65q0 -24 -6 -48l-65 -263q-18 -70 -74 -70q-72 0 -72 68q0 22 10 63zM219 3q-69 0 -69 93v1348q0 66 69 66q75 0 75 -75v-638l620 680q35 38 65 38t52 -25q21 -24 21 -52q0 -26 -36 -66l-416 -461l436 -787q19 -34 19 -50q0 -31 -27 -54
q-23 -20 -52 -20q-37 0 -62 45l-417 753l-201 -220v-479q0 -96 -77 -96z" />
    <glyph glyph-name="kcommaaccent" unicode="&#x137;" horiz-adv-x="1007" 
d="M430 -170q17 67 70 67q75 0 75 -65q0 -24 -6 -48l-65 -263q-18 -70 -74 -70q-72 0 -72 68q0 22 10 63zM150 1429q0 81 71 81q73 0 73 -81v-757l480 362q32 20 62 20q71 0 71 -70q0 -34 -34 -60l-290 -219l310 -593q12 -22 12 -41q0 -71 -78 -71q-38 0 -59 40l-302 578
l-167 -130v-409q0 -76 -74 -76q-75 0 -75 75v1351z" />
    <glyph glyph-name="Lacute" unicode="&#x139;" horiz-adv-x="1007" 
d="M319 1984q32 25 53 25q76 0 76 -79q0 -32 -38 -60l-285 -215q-29 -20 -55 -20q-68 0 -68 75q0 37 36 63zM295 1433v-1288h521q91 0 91 -72.5t-94 -72.5h-592q-71 0 -71 89v1344q0 77 72.5 77t72.5 -77z" />
    <glyph glyph-name="lacute" unicode="&#x13a;" horiz-adv-x="548" 
d="M317 1984q32 25 53 25q76 0 76 -79q0 -32 -38 -60l-285 -215q-29 -20 -55 -20q-68 0 -68 75q0 37 36 63zM150 1432q0 79 80 79q67 0 67 -82v-1170q0 -111 68 -111q83 0 83 -75q0 -73 -78 -73q-91 0 -159 71q-61 64 -61 164v1197z" />
    <glyph glyph-name="Lcommaaccent" unicode="&#x13b;" horiz-adv-x="1007" 
d="M432 -170q17 67 70 67q75 0 75 -65q0 -24 -6 -48l-65 -263q-18 -70 -74 -70q-72 0 -72 68q0 22 10 63zM295 1433v-1288h521q91 0 91 -72.5t-94 -72.5h-592q-71 0 -71 89v1344q0 77 72.5 77t72.5 -77z" />
    <glyph glyph-name="lcommaaccent" unicode="&#x13c;" horiz-adv-x="548" 
d="M206 -169q17 67 70 67q75 0 75 -65q0 -24 -6 -48l-65 -263q-18 -70 -74 -70q-72 0 -72 68q0 22 10 63zM150 1432q0 79 80 79q67 0 67 -82v-1170q0 -111 68 -111q83 0 83 -75q0 -73 -78 -73q-91 0 -159 71q-61 64 -61 164v1197z" />
    <glyph glyph-name="Lcaron" unicode="&#x13d;" horiz-adv-x="1007" 
d="M482 1448q17 67 70 67q75 0 75 -65q0 -24 -6 -48l-65 -263q-18 -70 -74 -70q-72 0 -72 68q0 22 10 63zM295 1433v-1288h521q91 0 91 -72.5t-94 -72.5h-592q-71 0 -71 89v1344q0 77 72.5 77t72.5 -77z" />
    <glyph glyph-name="lcaron" unicode="&#x13e;" horiz-adv-x="548" 
d="M478 1444q17 67 70 67q75 0 75 -65q0 -24 -6 -48l-65 -263q-18 -70 -74 -70q-72 0 -72 68q0 22 10 63zM150 1432q0 79 80 79q67 0 67 -82v-1170q0 -111 68 -111q83 0 83 -75q0 -73 -78 -73q-91 0 -159 71q-61 64 -61 164v1197z" />
    <glyph glyph-name="Lslash" unicode="&#x141;" horiz-adv-x="1034" 
d="M328 1434v-532l183 140q30 20 54 20q34 0 54 -37q15 -28 15 -47q0 -29 -32 -53l-273 -209v-567h518q87 0 87 -70q0 -79 -85 -79h-595q-72 0 -72 89v518l-165 -125q-38 -29 -67 -29q-28 0 -48 25q-22 28 -22 50q0 39 50 77l252 189v638q0 82 74 82q72 0 72 -80z" />
    <glyph glyph-name="lslash" unicode="&#x142;" horiz-adv-x="600" 
d="M167 1424q0 87 80 87q67 0 67 -85v-378l109 70q26 18 50 18q33 0 57 -36q14 -21 14 -42q0 -34 -43 -63l-187 -127v-609q0 -113 68 -113q83 0 83 -71q0 -75 -78 -75q-89 0 -159 70q-61 61 -61 155v545l-117 -76q-18 -13 -40 -13q-37 0 -59 43q-11 22 -11 41q0 33 39 58
l188 127v474z" />
    <glyph glyph-name="Nacute" unicode="&#x143;" horiz-adv-x="1202" 
d="M717 1982q32 25 53 25q76 0 76 -79q0 -32 -38 -60l-285 -215q-29 -20 -55 -20q-68 0 -68 75q0 37 36 63zM914 357v1082q0 76 69 76t69 -73v-1353q0 -83 -66 -83q-46 0 -76 54l-616 1099v-1070q0 -80 -76 -80q-68 0 -68 82v1335q0 89 72 89q47 0 73 -46z" />
    <glyph glyph-name="nacute" unicode="&#x144;" horiz-adv-x="1011" 
d="M575 1518q32 25 53 25q76 0 76 -79q0 -32 -38 -60l-285 -215q-29 -20 -55 -20q-68 0 -68 75q0 37 36 63zM130 988q0 75 73 75h385q121 0 219 -97q74 -73 74 -192v-671q0 -96 -70 -96q-76 0 -76 98v657q0 73 -39 108q-47 44 -103 44h-322v-822q0 -84 -70 -84q-71 0 -71 83
v897z" />
    <glyph glyph-name="Ncommaaccent" unicode="&#x145;" horiz-adv-x="1202" 
d="M542 -170q17 67 70 67q75 0 75 -65q0 -24 -6 -48l-65 -263q-18 -70 -74 -70q-72 0 -72 68q0 22 10 63zM914 357v1082q0 76 69 76t69 -73v-1353q0 -83 -66 -83q-46 0 -76 54l-616 1099v-1070q0 -80 -76 -80q-68 0 -68 82v1335q0 89 72 89q47 0 73 -46z" />
    <glyph glyph-name="ncommaaccent" unicode="&#x146;" horiz-adv-x="1011" 
d="M422 -169q17 67 70 67q75 0 75 -65q0 -24 -6 -48l-65 -263q-18 -70 -74 -70q-72 0 -72 68q0 22 10 63zM130 988q0 75 73 75h385q121 0 219 -97q74 -73 74 -192v-671q0 -96 -70 -96q-76 0 -76 98v657q0 73 -39 108q-47 44 -103 44h-322v-822q0 -84 -70 -84q-71 0 -71 83
v897z" />
    <glyph glyph-name="Ncaron" unicode="&#x147;" horiz-adv-x="1202" 
d="M774 1985q27 27 55 27q31 0 53 -22q20 -20 20 -52q0 -34 -42 -75l-190 -189q-37 -37 -65 -37q-33 0 -70 37l-210 211q-22 22 -22 50q0 36 23 57q21 19 51 19q29 0 53 -25l175 -170zM914 357v1082q0 76 69 76t69 -73v-1353q0 -83 -66 -83q-46 0 -76 54l-616 1099v-1070
q0 -80 -76 -80q-68 0 -68 82v1335q0 89 72 89q47 0 73 -46z" />
    <glyph glyph-name="ncaron" unicode="&#x148;" horiz-adv-x="1011" 
d="M652 1516q27 27 55 27q31 0 53 -22q20 -20 20 -52q0 -34 -42 -75l-190 -189q-37 -37 -65 -37q-33 0 -70 37l-210 211q-22 22 -22 50q0 36 23 57q21 19 51 19q29 0 53 -25l175 -170zM130 988q0 75 73 75h385q121 0 219 -97q74 -73 74 -192v-671q0 -96 -70 -96
q-76 0 -76 98v657q0 73 -39 108q-47 44 -103 44h-322v-822q0 -84 -70 -84q-71 0 -71 83v897z" />
    <glyph glyph-name="Omacron" unicode="&#x14c;" horiz-adv-x="1203" 
d="M226 1781h752q78 0 78 -70q0 -74 -77 -74h-755q-74 0 -74 76q0 68 76 68zM297 423q0 -108 100 -198q87 -77 195 -77q126 0 205 71q111 100 111 233v608q0 146 -105 231q-94 76 -212 76q-99 0 -194 -77q-100 -81 -100 -226v-641zM150 1088q0 166 131 296q132 131 322 131
q181 0 312 -130q138 -137 138 -318v-611q0 -196 -137 -329q-131 -127 -320 -127q-178 0 -311 127q-135 130 -135 301v660z" />
    <glyph glyph-name="omacron" unicode="&#x14d;" horiz-adv-x="1009" 
d="M116 1329h752q78 0 78 -70q0 -74 -77 -74h-755q-74 0 -74 76q0 68 76 68zM353 862q-80 -59 -80 -183v-307q0 -113 110 -182q64 -40 128 -40t129 44q98 66 98 209v255q0 127 -75 195q-72 66 -152 66t-158 -57zM493 1063q168 0 274 -105q112 -111 112 -236v-348
q0 -168 -121 -274q-105 -92 -254 -92q-159 0 -253 96q-121 123 -121 275v327q0 161 139 274q102 83 224 83z" />
    <glyph glyph-name="Ohungarumlaut" unicode="&#x150;" horiz-adv-x="1203" 
d="M787 2021q15 64 64 64q81 0 81 -62q0 -23 -8 -58l-63 -260q-16 -68 -64 -68q-81 0 -81 67q0 20 4 34zM407 2021q16 63 69 63q78 0 78 -69q0 -10 -6 -34l-71 -280q-16 -64 -68 -64q-78 0 -78 65q0 16 5 36zM297 423q0 -108 100 -198q87 -77 195 -77q126 0 205 71
q111 100 111 233v608q0 146 -105 231q-94 76 -212 76q-99 0 -194 -77q-100 -81 -100 -226v-641zM150 1088q0 166 131 296q132 131 322 131q181 0 312 -130q138 -137 138 -318v-611q0 -196 -137 -329q-131 -127 -320 -127q-178 0 -311 127q-135 130 -135 301v660z" />
    <glyph glyph-name="ohungarumlaut" unicode="&#x151;" horiz-adv-x="1009" 
d="M677 1550q15 64 64 64q81 0 81 -62q0 -23 -8 -58l-63 -260q-16 -68 -64 -68q-81 0 -81 67q0 20 4 34zM297 1550q16 63 69 63q78 0 78 -69q0 -10 -6 -34l-71 -280q-16 -64 -68 -64q-78 0 -78 65q0 16 5 36zM353 862q-80 -59 -80 -183v-307q0 -113 110 -182q64 -40 128 -40
t129 44q98 66 98 209v255q0 127 -75 195q-72 66 -152 66t-158 -57zM493 1063q168 0 274 -105q112 -111 112 -236v-348q0 -168 -121 -274q-105 -92 -254 -92q-159 0 -253 96q-121 123 -121 275v327q0 161 139 274q102 83 224 83z" />
    <glyph glyph-name="OE" unicode="&#x152;" horiz-adv-x="1444" 
d="M710 148v1219h-139q-99 0 -194 -77q-100 -81 -100 -226v-641q0 -108 100 -198q87 -77 195 -77h138zM576 5q-177 0 -311 122q-135 123 -135 301v660q0 166 131 296q132 131 322 131h680q81 0 81 -73q0 -72 -81 -72h-409v-466h267q73 0 73 -72q0 -68 -71 -68h-269v-615h414
q74 0 74 -72t-71 -72h-695z" />
    <glyph glyph-name="oe" unicode="&#x153;" horiz-adv-x="1615" 
d="M733 684q0 94 -70 161q-66 63 -169 63q-71 0 -141 -54q-80 -62 -80 -183v-307q0 -113 110 -182q64 -40 128 -40q65 0 129 44q93 64 93 194v304zM880 604h459q0 140 -35 202q-58 102 -200 102q-88 0 -166 -80q-58 -59 -58 -224zM878 461v-145q0 -170 173 -170h346
q88 0 88 -74q0 -72 -87 -72h-368q-123 0 -213 97q-13 14 -25 29q-15 -18 -34 -34q-109 -92 -254 -92q-159 0 -253 96q-121 123 -121 275v327q0 162 139 274q102 82 224 82q164 0 274 -104q38 -36 40 -42q15 19 57 58q99 92 248 92q167 0 277 -121q93 -102 93 -213v-190
q0 -73 -67 -73h-537z" />
    <glyph glyph-name="Racute" unicode="&#x154;" horiz-adv-x="1155" 
d="M635 1984q32 25 53 25q76 0 76 -79q0 -32 -38 -60l-285 -215q-29 -20 -55 -20q-68 0 -68 75q0 37 36 63zM297 751h327q104 0 208 99q81 77 81 217q0 106 -88 197q-93 97 -202 97h-326v-610zM228 1504h395q183 0 333 -164q99 -108 99 -247q0 -134 -50 -252
q-55 -129 -227 -201l261 -513q15 -31 15 -51q0 -76 -74 -76q-39 0 -67 57l-280 547h-339v-525q0 -79 -73 -79q-71 0 -71 80v1347q0 77 78 77z" />
    <glyph glyph-name="racute" unicode="&#x155;" horiz-adv-x="834" 
d="M575 1516q32 25 53 25q76 0 76 -79q0 -32 -38 -60l-285 -215q-29 -20 -55 -20q-68 0 -68 75q0 37 36 63zM130 979q0 82 85 82h435q84 0 84 -69v-147q0 -83 -66 -83q-80 0 -80 78v74h-310v-832q0 -79 -77 -79q-71 0 -71 82v894z" />
    <glyph glyph-name="Rcaron" unicode="&#x158;" horiz-adv-x="1155" 
d="M697 1985q27 27 55 27q31 0 53 -22q20 -20 20 -52q0 -34 -42 -75l-190 -189q-37 -37 -65 -37q-33 0 -70 37l-210 211q-22 22 -22 50q0 36 23 57q21 19 51 19q29 0 53 -25l175 -170zM297 751h327q104 0 208 99q81 77 81 217q0 106 -88 197q-93 97 -202 97h-326v-610z
M228 1504h395q183 0 333 -164q99 -108 99 -247q0 -134 -50 -252q-55 -129 -227 -201l261 -513q15 -31 15 -51q0 -76 -74 -76q-39 0 -67 57l-280 547h-339v-525q0 -79 -73 -79q-71 0 -71 80v1347q0 77 78 77z" />
    <glyph glyph-name="rcaron" unicode="&#x159;" horiz-adv-x="834" 
d="M601 1515q27 27 55 27q31 0 53 -22q20 -20 20 -52q0 -34 -42 -75l-190 -189q-37 -37 -65 -37q-33 0 -70 37l-210 211q-22 22 -22 50q0 36 23 57q21 19 51 19q29 0 53 -25l175 -170zM130 979q0 82 85 82h435q84 0 84 -69v-147q0 -83 -66 -83q-80 0 -80 78v74h-310v-832
q0 -79 -77 -79q-71 0 -71 82v894z" />
    <glyph glyph-name="Sacute" unicode="&#x15a;" horiz-adv-x="1105" 
d="M627 1985q32 25 53 25q76 0 76 -79q0 -32 -38 -60l-285 -215q-29 -20 -55 -20q-68 0 -68 75q0 37 36 63zM100 1131q0 156 108 267.5t261 111.5q212 0 385 -65q72 -27 72 -83q0 -69 -69 -69q-29 0 -91 24q-129 50 -275 50q-132 0 -201 -94q-42 -57 -42 -150
q0 -127 155 -206l365 -185q237 -122 237 -354q0 -174 -124 -281q-112 -97 -269 -97q-238 0 -456 143q-56 37 -56 82q0 69 74 69q27 0 72 -32q158 -113 379 -113q65 0 117 27q115 60 115 207q0 139 -151 215l-393 199q-213 108 -213 334z" />
    <glyph glyph-name="sacute" unicode="&#x15b;" horiz-adv-x="954" 
d="M574 1516q32 25 53 25q76 0 76 -79q0 -32 -38 -60l-285 -215q-29 -20 -55 -20q-68 0 -68 75q0 37 36 63zM728 986q48 -26 48 -65q0 -78 -69 -78q-18 0 -57 15q-152 59 -263 59q-141 0 -141 -123q0 -71 75 -106l369 -173q164 -75 164 -242q0 -133 -119 -224
q-59 -45 -150 -45q-185 0 -420 76q-65 21 -65 70q0 74 66 74q39 0 80 -16q150 -58 318 -58q59 0 90 20q53 34 53 104q0 68 -93 112l-354 169q-160 76 -160 251q0 101 71 176q77 81 196 81q217 0 361 -77z" />
    <glyph glyph-name="Scedilla" unicode="&#x15e;" horiz-adv-x="1105" 
d="M505 88q14 57 61 57q20 0 42 -10q38 -17 38 -60q0 -15 -5 -33l-71 -286q-15 -61 -65 -61q-15 0 -35 6q-42 13 -42 61q0 14 4 30zM100 1131q0 156 108 267.5t261 111.5q212 0 385 -65q72 -27 72 -83q0 -69 -69 -69q-29 0 -91 24q-129 50 -275 50q-132 0 -201 -94
q-42 -57 -42 -150q0 -127 155 -206l365 -185q237 -122 237 -354q0 -174 -124 -281q-112 -97 -269 -97q-238 0 -456 143q-56 37 -56 82q0 69 74 69q27 0 72 -32q158 -113 379 -113q65 0 117 27q115 60 115 207q0 139 -151 215l-393 199q-213 108 -213 334z" />
    <glyph glyph-name="scedilla" unicode="&#x15f;" horiz-adv-x="954" 
d="M431 94q14 57 61 57q20 0 42 -10q38 -17 38 -60q0 -15 -5 -33l-71 -286q-15 -61 -65 -61q-15 0 -35 6q-42 13 -42 61q0 14 4 30zM728 986q48 -26 48 -65q0 -78 -69 -78q-18 0 -57 15q-152 59 -263 59q-141 0 -141 -123q0 -71 75 -106l369 -173q164 -75 164 -242
q0 -133 -119 -224q-59 -45 -150 -45q-185 0 -420 76q-65 21 -65 70q0 74 66 74q39 0 80 -16q150 -58 318 -58q59 0 90 20q53 34 53 104q0 68 -93 112l-354 169q-160 76 -160 251q0 101 71 176q77 81 196 81q217 0 361 -77z" />
    <glyph glyph-name="Scaron" unicode="&#x160;" horiz-adv-x="1105" 
d="M701 1985q27 27 55 27q31 0 53 -22q20 -20 20 -52q0 -34 -42 -75l-190 -189q-37 -37 -65 -37q-33 0 -70 37l-210 211q-22 22 -22 50q0 36 23 57q21 19 51 19q29 0 53 -25l175 -170zM100 1131q0 156 108 267.5t261 111.5q212 0 385 -65q72 -27 72 -83q0 -69 -69 -69
q-29 0 -91 24q-129 50 -275 50q-132 0 -201 -94q-42 -57 -42 -150q0 -127 155 -206l365 -185q237 -122 237 -354q0 -174 -124 -281q-112 -97 -269 -97q-238 0 -456 143q-56 37 -56 82q0 69 74 69q27 0 72 -32q158 -113 379 -113q65 0 117 27q115 60 115 207q0 139 -151 215
l-393 199q-213 108 -213 334z" />
    <glyph glyph-name="scaron" unicode="&#x161;" horiz-adv-x="954" 
d="M617 1516q27 27 55 27q31 0 53 -22q20 -20 20 -52q0 -34 -42 -75l-190 -189q-37 -37 -65 -37q-33 0 -70 37l-210 211q-22 22 -22 50q0 36 23 57q21 19 51 19q29 0 53 -25l175 -170zM728 986q48 -26 48 -65q0 -78 -69 -78q-18 0 -57 15q-152 59 -263 59q-141 0 -141 -123
q0 -71 75 -106l369 -173q164 -75 164 -242q0 -133 -119 -224q-59 -45 -150 -45q-185 0 -420 76q-65 21 -65 70q0 74 66 74q39 0 80 -16q150 -58 318 -58q59 0 90 20q53 34 53 104q0 68 -93 112l-354 169q-160 76 -160 251q0 101 71 176q77 81 196 81q217 0 361 -77z" />
    <glyph glyph-name="Tcommaaccent" unicode="&#x162;" horiz-adv-x="1101" 
d="M483 86q14 57 61 57q20 0 42 -10q38 -17 38 -60q0 -15 -5 -33l-71 -286q-15 -61 -65 -61q-15 0 -35 6q-42 13 -42 61q0 14 4 30zM100 1446q0 69 88 69h741q72 0 72 -72q0 -73 -70 -73h-307v-1291q0 -79 -73 -79t-73 77v1293h-292q-86 0 -86 76z" />
    <glyph glyph-name="tcommaaccent" unicode="&#x163;" horiz-adv-x="711" 
d="M212 85q14 57 61 57q20 0 42 -10q38 -17 38 -60q0 -15 -5 -33l-71 -286q-15 -61 -65 -61q-15 0 -35 6q-42 13 -42 61q0 14 4 30zM210 1435q0 76 75 76q69 0 69 -80v-377h229q78 0 78 -78q0 -64 -80 -64h-227v-835q0 -77 -72 -77t-72 84v828h-76q-74 0 -74 70q0 72 73 72
h77v381z" />
    <glyph glyph-name="Tcaron" unicode="&#x164;" horiz-adv-x="1101" 
d="M730 1985q27 27 55 27q31 0 53 -22q20 -20 20 -52q0 -34 -42 -75l-190 -189q-37 -37 -65 -37q-33 0 -70 37l-210 211q-22 22 -22 50q0 36 23 57q21 19 51 19q29 0 53 -25l175 -170zM100 1446q0 69 88 69h741q72 0 72 -72q0 -73 -70 -73h-307v-1291q0 -79 -73 -79t-73 77
v1293h-292q-86 0 -86 76z" />
    <glyph glyph-name="tcaron" unicode="&#x165;" horiz-adv-x="711" 
d="M537 1546q17 67 70 67q75 0 75 -65q0 -24 -6 -48l-65 -263q-18 -70 -74 -70q-72 0 -72 68q0 22 10 63zM210 1435q0 76 75 76q69 0 69 -80v-377h229q78 0 78 -78q0 -64 -80 -64h-227v-835q0 -77 -72 -77t-72 84v828h-76q-74 0 -74 70q0 72 73 72h77v381z" />
    <glyph glyph-name="Utilde" unicode="&#x168;" horiz-adv-x="1206" 
d="M826 1814q34 39 83 39q69 0 69 -75q0 -25 -37 -60q-85 -81 -192 -81q-92 0 -157 61q-94 88 -146 88q-31 0 -76 -37t-75 -37q-71 0 -71 82q0 22 34 52q94 84 190 84q99 0 195 -86q70 -63 106 -63q48 0 77 33zM150 1437q0 78 70 78q76 0 76 -78v-969q0 -161 108 -246
q95 -74 196 -74q125 0 226 100q82 81 82 225v964q0 78 75 78q73 0 73 -88v-948q0 -213 -131 -338q-142 -136 -327 -136q-165 0 -294 108q-154 129 -154 332v992z" />
    <glyph glyph-name="utilde" unicode="&#x169;" horiz-adv-x="1012" 
d="M731 1362q34 39 83 39q69 0 69 -75q0 -25 -37 -60q-85 -81 -192 -81q-92 0 -157 61q-94 88 -146 88q-31 0 -76 -37t-75 -37q-71 0 -71 82q0 22 34 52q94 84 190 84q99 0 195 -86q70 -63 106 -63q48 0 77 33zM130 971q0 87 72 87q71 0 71 -89v-664q0 -69 44 -112
q47 -46 107 -46h313v828q0 79 75 79q70 0 70 -81v-891q0 -82 -75 -82h-393q-120 0 -208 94q-76 81 -76 208v669z" />
    <glyph glyph-name="Umacron" unicode="&#x16a;" horiz-adv-x="1206" 
d="M224 1781h752q78 0 78 -70q0 -74 -77 -74h-755q-74 0 -74 76q0 68 76 68zM150 1437q0 78 70 78q76 0 76 -78v-969q0 -161 108 -246q95 -74 196 -74q125 0 226 100q82 81 82 225v964q0 78 75 78q73 0 73 -88v-948q0 -213 -131 -338q-142 -136 -327 -136q-165 0 -294 108
q-154 129 -154 332v992z" />
    <glyph glyph-name="umacron" unicode="&#x16b;" horiz-adv-x="1012" 
d="M186.679 1312h649.876q67.4072 0 67.4072 -70q0 -74 -66.543 -74h-652.469q-63.9502 0 -63.9502 76q0 68 65.6787 68zM130 971q0 87 72 87q71 0 71 -89v-664q0 -69 44 -112q47 -46 107 -46h313v828q0 79 75 79q70 0 70 -81v-891q0 -82 -75 -82h-393q-120 0 -208 94
q-76 81 -76 208v669z" />
    <glyph glyph-name="Ubreve" unicode="&#x16c;" horiz-adv-x="1206" 
d="M449 1935q0 -71 54 -111q50 -37 96 -37q59 0 97 30q58 46 58 111q0 82 81 82q69 0 69 -84q0 -122 -86 -201q-96 -88 -221 -88q-136 0 -220 102q-77 94 -77 200q0 71 83 71q66 0 66 -75zM150 1437q0 78 70 78q76 0 76 -78v-969q0 -161 108 -246q95 -74 196 -74
q125 0 226 100q82 81 82 225v964q0 78 75 78q73 0 73 -88v-948q0 -213 -131 -338q-142 -136 -327 -136q-165 0 -294 108q-154 129 -154 332v992z" />
    <glyph glyph-name="ubreve" unicode="&#x16d;" horiz-adv-x="1012" 
d="M389 1483q0 -71 54 -111q50 -37 96 -37q59 0 97 30q58 46 58 111q0 82 81 82q69 0 69 -84q0 -122 -86 -201q-96 -88 -221 -88q-136 0 -220 102q-77 94 -77 200q0 71 83 71q66 0 66 -75zM130 971q0 87 72 87q71 0 71 -89v-664q0 -69 44 -112q47 -46 107 -46h313v828
q0 79 75 79q70 0 70 -81v-891q0 -82 -75 -82h-393q-120 0 -208 94q-76 81 -76 208v669z" />
    <glyph glyph-name="Uring" unicode="&#x16e;" horiz-adv-x="1206" 
d="M604.5 2001q-110.5 0 -110.5 -107q0 -119 110 -119q111 0 111 119q0 107 -110.5 107zM601 2140q249 0 249 -246q0 -257 -248.5 -257t-248.5 253q0 250 248 250zM150 1437q0 78 70 78q76 0 76 -78v-969q0 -161 108 -246q95 -74 196 -74q125 0 226 100q82 81 82 225v964
q0 78 75 78q73 0 73 -88v-948q0 -213 -131 -338q-142 -136 -327 -136q-165 0 -294 108q-154 129 -154 332v992z" />
    <glyph glyph-name="uring" unicode="&#x16f;" horiz-adv-x="1012" 
d="M525.5 1533q-110.5 0 -110.5 -107q0 -119 110 -119q111 0 111 119q0 107 -110.5 107zM522 1672q249 0 249 -246q0 -257 -248.5 -257t-248.5 253q0 250 248 250zM130 971q0 87 72 87q71 0 71 -89v-664q0 -69 44 -112q47 -46 107 -46h313v828q0 79 75 79q70 0 70 -81v-891
q0 -82 -75 -82h-393q-120 0 -208 94q-76 81 -76 208v669z" />
    <glyph glyph-name="Uhungarumlaut" unicode="&#x170;" horiz-adv-x="1206" 
d="M786 2021q15 64 64 64q81 0 81 -62q0 -23 -8 -58l-63 -260q-16 -68 -64 -68q-81 0 -81 67q0 20 4 34zM406 2021q16 63 69 63q78 0 78 -69q0 -10 -6 -34l-71 -280q-16 -64 -68 -64q-78 0 -78 65q0 16 5 36zM150 1437q0 78 70 78q76 0 76 -78v-969q0 -161 108 -246
q95 -74 196 -74q125 0 226 100q82 81 82 225v964q0 78 75 78q73 0 73 -88v-948q0 -213 -131 -338q-142 -136 -327 -136q-165 0 -294 108q-154 129 -154 332v992z" />
    <glyph glyph-name="uhungarumlaut" unicode="&#x171;" horiz-adv-x="1012" 
d="M696 1551q15 64 64 64q81 0 81 -62q0 -23 -8 -58l-63 -260q-16 -68 -64 -68q-81 0 -81 67q0 20 4 34zM316 1551q16 63 69 63q78 0 78 -69q0 -10 -6 -34l-71 -280q-16 -64 -68 -64q-78 0 -78 65q0 16 5 36zM130 971q0 87 72 87q71 0 71 -89v-664q0 -69 44 -112
q47 -46 107 -46h313v828q0 79 75 79q70 0 70 -81v-891q0 -82 -75 -82h-393q-120 0 -208 94q-76 81 -76 208v669z" />
    <glyph glyph-name="Uogonek" unicode="&#x172;" horiz-adv-x="1206" 
d="M618 149q79 0 79 -76q0 -72 -87 -72q-109 0 -109 -119q0 -115 109 -115q78 0 78 -72q0 -68 -83 -68q-102 0 -171 65q-85 80 -85 189t74 187q77 81 195 81zM150 1437q0 78 70 78q76 0 76 -78v-969q0 -161 108 -246q95 -74 196 -74q125 0 226 100q82 81 82 225v964
q0 78 75 78q73 0 73 -88v-948q0 -213 -131 -338q-142 -136 -327 -136q-165 0 -294 108q-154 129 -154 332v992z" />
    <glyph glyph-name="uogonek" unicode="&#x173;" horiz-adv-x="1012" 
d="M801 147q79 0 79 -76q0 -72 -87 -72q-109 0 -109 -119q0 -115 109 -115q78 0 78 -72q0 -68 -83 -68q-102 0 -171 65q-85 80 -85 189t74 187q77 81 195 81zM130 971q0 87 72 87q71 0 71 -89v-664q0 -69 44 -112q47 -46 107 -46h313v828q0 79 75 79q70 0 70 -81v-891
q0 -82 -75 -82h-393q-120 0 -208 94q-76 81 -76 208v669z" />
    <glyph glyph-name="Ydieresis" unicode="&#x178;" 
d="M782 1745q0 108 70 108q82 0 82 -114q0 -102 -77 -102q-75 0 -75 108zM326 1744q0 107 71 107q82 0 82 -114q0 -100 -77 -100q-76 0 -76 107zM702 85q0 -85 -70 -85q-73 0 -73 87v674l-443 631q-16 23 -16 46q0 73 79 73q35 0 64 -45l386 -560l390 569q26 36 63 36
q76 0 76 -69q0 -27 -19 -54l-437 -631v-672z" />
    <glyph glyph-name="Zacute" unicode="&#x179;" horiz-adv-x="1106" 
d="M652 1984q32 25 53 25q76 0 76 -79q0 -32 -38 -60l-285 -215q-29 -20 -55 -20q-68 0 -68 75q0 37 36 63zM293 142h635q78 0 78 -75q0 -67 -79 -67h-751q-76 0 -76 72q0 27 23 68l686 1225h-623q-84 0 -84 79q0 66 87 66h720q94 0 94 -66q0 -30 -16 -59z" />
    <glyph glyph-name="zacute" unicode="&#x17a;" horiz-adv-x="950" 
d="M573 1517q32 25 53 25q76 0 76 -79q0 -32 -38 -60l-285 -215q-29 -20 -55 -20q-68 0 -68 75q0 37 36 63zM311 154h457q78 0 78 -85q0 -69 -78 -69h-577q-91 0 -91 80q0 28 22 60l518 776h-465q-74 0 -74 71q0 77 76 77h571q102 0 102 -74q0 -25 -16 -49z" />
    <glyph glyph-name="Zdotaccent" unicode="&#x17b;" horiz-adv-x="1106" 
d="M473 1880q0 107 70 107q82 0 82 -114q0 -100 -77 -100q-75 0 -75 107zM293 142h635q78 0 78 -75q0 -67 -79 -67h-751q-76 0 -76 72q0 27 23 68l686 1225h-623q-84 0 -84 79q0 66 87 66h720q94 0 94 -66q0 -30 -16 -59z" />
    <glyph glyph-name="zdotaccent" unicode="&#x17c;" horiz-adv-x="950" 
d="M386 1410q0 107 70 107q82 0 82 -114q0 -100 -77 -100q-75 0 -75 107zM311 154h457q78 0 78 -85q0 -69 -78 -69h-577q-91 0 -91 80q0 28 22 60l518 776h-465q-74 0 -74 71q0 77 76 77h571q102 0 102 -74q0 -25 -16 -49z" />
    <glyph glyph-name="Zcaron" unicode="&#x17d;" horiz-adv-x="1106" 
d="M721 1985q27 27 55 27q31 0 53 -22q20 -20 20 -52q0 -34 -42 -75l-190 -189q-37 -37 -65 -37q-33 0 -70 37l-210 211q-22 22 -22 50q0 36 23 57q21 19 51 19q29 0 53 -25l175 -170zM293 142h635q78 0 78 -75q0 -67 -79 -67h-751q-76 0 -76 72q0 27 23 68l686 1225h-623
q-84 0 -84 79q0 66 87 66h720q94 0 94 -66q0 -30 -16 -59z" />
    <glyph glyph-name="zcaron" unicode="&#x17e;" horiz-adv-x="950" 
d="M634 1516q27 27 55 27q31 0 53 -22q20 -20 20 -52q0 -34 -42 -75l-190 -189q-37 -37 -65 -37q-33 0 -70 37l-210 211q-22 22 -22 50q0 36 23 57q21 19 51 19q29 0 53 -25l175 -170zM311 154h457q78 0 78 -85q0 -69 -78 -69h-577q-91 0 -91 80q0 28 22 60l518 776h-465
q-74 0 -74 71q0 77 76 77h571q102 0 102 -74q0 -25 -16 -49z" />
    <glyph glyph-name="uni018F" unicode="&#x18f;" horiz-adv-x="1187" 
d="M907 715h-614v-292q0 -106 103 -198q86 -77 195 -77q126 0 205 71q111 100 111 233v263zM396 1290q-64 -47 -92 -47q-33 0 -43 14q-20 29 -20 39q0 50 39 88q136 131 322 131q177 0 312 -130q138 -133 138 -318v-611q0 -196 -137 -329q-131 -127 -320 -127
q-180 0 -311 127q-134 130 -134 301v336q0 99 80 99h677v197q0 147 -105 231q-95 76 -212 76q-89 0 -194 -77z" />
    <glyph glyph-name="uni019F" unicode="&#x19f;" horiz-adv-x="1203" 
d="M150 1088q0 166 131 296q132 131 322 131q181 0 312 -130q138 -137 138 -318v-611q0 -196 -137 -329q-131 -127 -320 -127q-178 0 -311 127q-135 130 -135 301v660zM297 423q0 -108 100 -198q87 -77 195 -77q126 0 205 71q111 100 111 233v232h-611v-261zM908 828v232
q0 146 -105 231q-94 76 -212 76q-99 0 -194 -77q-100 -81 -100 -226v-236h611z" />
    <glyph glyph-name="Ohorn" unicode="&#x1a0;" horiz-adv-x="1203" 
d="M810 1330q0 15 16 40q15 23 49 23q52 0 62 -38t43 -60q24 -16 68 -16q76 0 76 126v56q0 82 66.5 82t66.5 -80v-84q0 -108 -66 -176q-54 -56 -158 -56q-103 0 -155 60q-68 78 -68 123zM297 423q0 -108 100 -198q87 -77 195 -77q126 0 205 71q111 100 111 233v608
q0 146 -105 231q-94 76 -212 76q-99 0 -194 -77q-100 -81 -100 -226v-641zM150 1088q0 166 131 296q132 131 322 131q181 0 312 -130q138 -137 138 -318v-611q0 -196 -137 -329q-131 -127 -320 -127q-178 0 -311 127q-135 130 -135 301v660z" />
    <glyph glyph-name="ohorn" unicode="&#x1a1;" horiz-adv-x="1045" 
d="M665 893q0 15 16 40q15 23 49 23q52 0 62 -38t43 -60q24 -16 68 -16q76 0 76 126v56q0 82 66.5 82t66.5 -80v-84q0 -108 -66 -176q-54 -56 -158 -56q-103 0 -155 60q-68 78 -68 123zM353 862q-80 -59 -80 -183v-307q0 -113 110 -182q64 -40 128 -40t129 44q98 66 98 209
v255q0 127 -75 195q-72 66 -152 66t-158 -57zM493 1063q168 0 274 -105q112 -111 112 -236v-348q0 -168 -121 -274q-105 -92 -254 -92q-159 0 -253 96q-121 123 -121 275v327q0 161 139 274q102 83 224 83z" />
    <glyph glyph-name="uni01A2" unicode="&#x1a2;" horiz-adv-x="1509" 
d="M887 3h-397q-138 0 -258 133q-82 91 -82 233v783q0 144 118 261q103 102 252 102h546q121 0 219 -97q74 -73 74 -192v-1128q0 -98 -70 -98q-76 0 -76 100v1114q0 73 -39 108q-47 42 -103 42h-112v-1277q0 -45 -19 -65q-18 -19 -53 -19zM818 1364h-299q-84 0 -163 -73
q-60 -56 -60 -150v-764q0 -94 63 -162q66 -70 137 -70h322v1219z" />
    <glyph glyph-name="uni01A3" unicode="&#x1a3;" horiz-adv-x="1334" 
d="M645 917h-191q-178 0 -178 -168v-417q0 -181 168 -181h201v766zM840 1062q119 0 219 -99q74 -73 74 -192v-671q0 -96 -70 -96q-76 0 -76 98v657q0 73 -39 108q-51 50 -103 50h-59v-828q0 -45 -17 -64q-20 -21 -64 -21h-286q-120 0 -207 88q-82 83 -82 204v457
q0 137 80 217q92 92 230 92h400z" />
    <glyph glyph-name="Uhorn" unicode="&#x1af;" horiz-adv-x="1305" 
d="M921 1449q0 15 16 40q15 23 49 23q52 0 62 -38t43 -60q24 -16 68 -16q76 0 76 126v56q0 82 66.5 82t66.5 -80v-84q0 -108 -66 -176q-54 -56 -158 -56q-103 0 -155 60q-68 78 -68 123zM150 1437q0 78 70 78q76 0 76 -78v-969q0 -161 108 -246q95 -74 196 -74
q125 0 226 100q82 81 82 225v964q0 78 75 78q73 0 73 -88v-948q0 -213 -131 -338q-142 -136 -327 -136q-165 0 -294 108q-154 129 -154 332v992z" />
    <glyph glyph-name="uhorn" unicode="&#x1b0;" horiz-adv-x="1126" 
d="M746 988q0 15 16 40q15 23 49 23q52 0 62 -38t43 -60q24 -16 68 -16q76 0 76 126v56q0 82 66.5 82t66.5 -80v-84q0 -108 -66 -176q-54 -56 -158 -56q-103 0 -155 60q-68 78 -68 123zM130 971q0 87 72 87q71 0 71 -89v-664q0 -69 44 -112q47 -46 107 -46h313v828
q0 79 75 79q70 0 70 -81v-891q0 -82 -75 -82h-393q-120 0 -208 94q-76 81 -76 208v669z" />
    <glyph glyph-name="uni01B5" unicode="&#x1b5;" horiz-adv-x="1106" 
d="M293 142h635q78 0 78 -75q0 -67 -79 -67h-751q-76 0 -76 72q0 27 23 68l324 579h-273q-74 0 -74 75q0 69 77 69h351l281 502h-623q-84 0 -84 79q0 66 87 66h720q94 0 94 -66q0 -30 -16 -59l-291 -522h238q72 0 72 -77q0 -67 -77 -67h-314z" />
    <glyph glyph-name="uni01B6" unicode="&#x1b6;" horiz-adv-x="950" 
d="M311 154h457q78 0 78 -85q0 -69 -78 -69h-577q-91 0 -91 80q0 28 22 60l209 313h-157q-74 0 -74 75q0 69 77 69h250l213 319h-465q-74 0 -74 71q0 77 76 77h571q102 0 102 -74q0 -25 -16 -49l-229 -344h173q72 0 72 -77q0 -67 -77 -67h-263z" />
    <glyph glyph-name="uni01CD" unicode="&#x1cd;" 
d="M805 1985q27 27 55 27q31 0 53 -22q20 -20 20 -52q0 -34 -42 -75l-190 -189q-37 -37 -65 -37q-33 0 -70 37l-210 211q-22 22 -22 50q0 36 23 57q21 19 51 19q29 0 53 -25l175 -170zM564 1455q18 55 70 55q50 0 68 -55l447 -1344q9 -27 9 -44q0 -59 -72 -67q-53 0 -75 66
l-102 316h-554l-109 -324q-21 -61 -68 -61q-78 0 -78 73q0 10 22 75zM630 1206l-230 -683h461z" />
    <glyph glyph-name="uni01CE" unicode="&#x1ce;" horiz-adv-x="986" 
d="M641 1533q27 27 55 27q31 0 53 -22q20 -20 20 -52q0 -34 -42 -75l-190 -189q-37 -37 -65 -37q-33 0 -70 37l-210 211q-22 22 -22 50q0 36 23 57q21 19 51 19q29 0 53 -25l175 -170zM414 461q-83 0 -124.5 -49.5t-41.5 -109.5q0 -66 47.5 -108.5t104.5 -42.5h306v310h-292
zM254 915q-75 0 -75 74q0 72 75 72h311q129 0 210 -96.5t81 -198.5v-672q0 -43 -23 -68.5t-63 -25.5h-380q-113 0 -201.5 92t-88.5 208q0 129 84.5 217.5t209.5 88.5h312v184q0 38 -45 81.5t-100 43.5h-307z" />
    <glyph glyph-name="uni01CF" unicode="&#x1cf;" horiz-adv-x="600" 
d="M300 0q-76 0 -76 94v1326q0 90 76 90t76 -93v-1321q0 -96 -76 -96zM472 1985q26 27 54 27q32 0 54 -22q20 -20 20 -52q0 -34 -42 -75l-190 -189q-38 -37 -66 -37q-34 0 -70 37l-210 211q-22 22 -22 50q0 36 24 57q20 19 50 19t54 -25l174 -170z" />
    <glyph glyph-name="uni01D0" unicode="&#x1d0;" horiz-adv-x="690" 
d="M419 986v-902q0 -84 -72 -84q-75 0 -75 82v898q0 77 74 77q73 0 73 -71zM517 1533q26 27 54 27q32 0 54 -22q20 -20 20 -52q0 -34 -42 -75l-190 -189q-38 -37 -66 -37q-34 0 -70 37l-210 211q-22 22 -22 50q0 36 24 57q20 19 50 19t54 -25l174 -170z" />
    <glyph glyph-name="uni01D1" unicode="&#x1d1;" horiz-adv-x="1203" 
d="M775 1985q27 27 55 27q31 0 53 -22q20 -20 20 -52q0 -34 -42 -75l-190 -189q-37 -37 -65 -37q-33 0 -70 37l-210 211q-22 22 -22 50q0 36 23 57q21 19 51 19q29 0 53 -25l175 -170zM297 423q0 -108 100 -198q87 -77 195 -77q126 0 205 71q111 100 111 233v608
q0 146 -105 231q-94 76 -212 76q-99 0 -194 -77q-100 -81 -100 -226v-641zM150 1088q0 166 131 296q132 131 322 131q181 0 312 -130q138 -137 138 -318v-611q0 -196 -137 -329q-131 -127 -320 -127q-178 0 -311 127q-135 130 -135 301v660z" />
    <glyph glyph-name="uni01D2" unicode="&#x1d2;" horiz-adv-x="1009" 
d="M665 1533q27 27 55 27q31 0 53 -22q20 -20 20 -52q0 -34 -42 -75l-190 -189q-37 -37 -65 -37q-33 0 -70 37l-210 211q-22 22 -22 50q0 36 23 57q21 19 51 19q29 0 53 -25l175 -170zM353 862q-80 -59 -80 -183v-307q0 -113 110 -182q64 -40 128 -40t129 44q98 66 98 209
v255q0 127 -75 195q-72 66 -152 66t-158 -57zM493 1063q168 0 274 -105q112 -111 112 -236v-348q0 -168 -121 -274q-105 -92 -254 -92q-159 0 -253 96q-121 123 -121 275v327q0 161 139 274q102 83 224 83z" />
    <glyph glyph-name="uni01D3" unicode="&#x1d3;" horiz-adv-x="1206" 
d="M773 1985q27 27 55 27q31 0 53 -22q20 -20 20 -52q0 -34 -42 -75l-190 -189q-37 -37 -65 -37q-33 0 -70 37l-210 211q-22 22 -22 50q0 36 23 57q21 19 51 19q29 0 53 -25l175 -170zM150 1437q0 78 70 78q76 0 76 -78v-969q0 -161 108 -246q95 -74 196 -74q125 0 226 100
q82 81 82 225v964q0 78 75 78q73 0 73 -88v-948q0 -213 -131 -338q-142 -136 -327 -136q-165 0 -294 108q-154 129 -154 332v992z" />
    <glyph glyph-name="uni01D4" unicode="&#x1d4;" horiz-adv-x="1012" 
d="M671 1533q27 27 55 27q31 0 53 -22q20 -20 20 -52q0 -34 -42 -75l-190 -189q-37 -37 -65 -37q-33 0 -70 37l-210 211q-22 22 -22 50q0 36 23 57q21 19 51 19q29 0 53 -25l175 -170zM130 971q0 87 72 87q71 0 71 -89v-664q0 -69 44 -112q47 -46 107 -46h313v828
q0 79 75 79q70 0 70 -81v-891q0 -82 -75 -82h-393q-120 0 -208 94q-76 81 -76 208v669z" />
    <glyph glyph-name="uni01D5" unicode="&#x1d5;" horiz-adv-x="1206" 
d="M227.787 2119h749.889q77.7803 0 77.7803 -70q0 -74 -76.7832 -74h-752.881q-73.792 0 -73.792 76q0 68 75.7871 68zM754 1745q0 108 70 108q82 0 82 -114q0 -102 -77 -102q-75 0 -75 108zM298 1744q0 107 71 107q82 0 82 -114q0 -100 -77 -100q-76 0 -76 107zM150 1437
q0 78 70 78q76 0 76 -78v-969q0 -161 108 -246q95 -74 196 -74q125 0 226 100q82 81 82 225v964q0 78 75 78q73 0 73 -88v-948q0 -213 -131 -338q-142 -136 -327 -136q-165 0 -294 108q-154 129 -154 332v992z" />
    <glyph glyph-name="uni01D6" unicode="&#x1d6;" horiz-adv-x="1012" 
d="M193.492 1650h618.344q64.1367 0 64.1367 -70q0 -74 -63.3145 -74h-620.811q-60.8477 0 -60.8477 76q0 68 62.4922 68zM659 1276q0 108 70 108q82 0 82 -114q0 -102 -77 -102q-75 0 -75 108zM203 1275q0 107 71 107q82 0 82 -114q0 -100 -77 -100q-76 0 -76 107zM130 971
q0 87 72 87q71 0 71 -89v-664q0 -69 44 -112q47 -46 107 -46h313v828q0 79 75 79q70 0 70 -81v-891q0 -82 -75 -82h-393q-120 0 -208 94q-76 81 -76 208v669z" />
    <glyph glyph-name="uni01D7" unicode="&#x1d7;" horiz-adv-x="1206" 
d="M713 2324q32 25 53 25q76 0 76 -79q0 -32 -38 -60l-285 -215q-29 -20 -55 -20q-68 0 -68 75q0 37 36 63zM754 1745q0 108 70 108q82 0 82 -114q0 -102 -77 -102q-75 0 -75 108zM298 1744q0 107 71 107q82 0 82 -114q0 -100 -77 -100q-76 0 -76 107zM150 1437q0 78 70 78
q76 0 76 -78v-969q0 -161 108 -246q95 -74 196 -74q125 0 226 100q82 81 82 225v964q0 78 75 78q73 0 73 -88v-948q0 -213 -131 -338q-142 -136 -327 -136q-165 0 -294 108q-154 129 -154 332v992z" />
    <glyph glyph-name="uni01D8" unicode="&#x1d8;" horiz-adv-x="1012" 
d="M611 1855q32 25 53 25q76 0 76 -79q0 -32 -38 -60l-285 -215q-29 -20 -55 -20q-68 0 -68 75q0 37 36 63zM659 1276q0 108 70 108q82 0 82 -114q0 -102 -77 -102q-75 0 -75 108zM203 1275q0 107 71 107q82 0 82 -114q0 -100 -77 -100q-76 0 -76 107zM130 971q0 87 72 87
q71 0 71 -89v-664q0 -69 44 -112q47 -46 107 -46h313v828q0 79 75 79q70 0 70 -81v-891q0 -82 -75 -82h-393q-120 0 -208 94q-76 81 -76 208v669z" />
    <glyph glyph-name="uni01D9" unicode="&#x1d9;" horiz-adv-x="1206" 
d="M783 2323q27 27 55 27q31 0 53 -22q20 -20 20 -52q0 -34 -42 -75l-190 -189q-37 -37 -65 -37q-33 0 -70 37l-210 211q-22 22 -22 50q0 36 23 57q21 19 51 19q29 0 53 -25l175 -170zM754 1745q0 108 70 108q82 0 82 -114q0 -102 -77 -102q-75 0 -75 108zM298 1744
q0 107 71 107q82 0 82 -114q0 -100 -77 -100q-76 0 -76 107zM150 1437q0 78 70 78q76 0 76 -78v-969q0 -161 108 -246q95 -74 196 -74q125 0 226 100q82 81 82 225v964q0 78 75 78q73 0 73 -88v-948q0 -213 -131 -338q-142 -136 -327 -136q-165 0 -294 108
q-154 129 -154 332v992z" />
    <glyph glyph-name="uni01DA" unicode="&#x1da;" horiz-adv-x="1012" 
d="M659 1854q27 27 55 27q31 0 53 -22q20 -20 20 -52q0 -34 -42 -75l-190 -189q-37 -37 -65 -37q-33 0 -70 37l-210 211q-22 22 -22 50q0 36 23 57q21 19 51 19q29 0 53 -25l175 -170zM659 1276q0 108 70 108q82 0 82 -114q0 -102 -77 -102q-75 0 -75 108zM203 1275
q0 107 71 107q82 0 82 -114q0 -100 -77 -100q-76 0 -76 107zM130 971q0 87 72 87q71 0 71 -89v-664q0 -69 44 -112q47 -46 107 -46h313v828q0 79 75 79q70 0 70 -81v-891q0 -82 -75 -82h-393q-120 0 -208 94q-76 81 -76 208v669z" />
    <glyph glyph-name="uni01DB" unicode="&#x1db;" horiz-adv-x="1206" 
d="M513 2324l281 -211q36 -26 36 -63q0 -75 -68 -75q-26 0 -55 20l-285 215q-38 28 -38 60q0 79 76 79q21 0 53 -25zM754 1745q0 108 70 108q82 0 82 -114q0 -102 -77 -102q-75 0 -75 108zM298 1744q0 107 71 107q82 0 82 -114q0 -100 -77 -100q-76 0 -76 107zM150 1437
q0 78 70 78q76 0 76 -78v-969q0 -161 108 -246q95 -74 196 -74q125 0 226 100q82 81 82 225v964q0 78 75 78q73 0 73 -88v-948q0 -213 -131 -338q-142 -136 -327 -136q-165 0 -294 108q-154 129 -154 332v992z" />
    <glyph glyph-name="uni01DC" unicode="&#x1dc;" horiz-adv-x="1012" 
d="M419 1855l281 -211q36 -26 36 -63q0 -75 -68 -75q-26 0 -55 20l-285 215q-38 28 -38 60q0 79 76 79q21 0 53 -25zM659 1276q0 108 70 108q82 0 82 -114q0 -102 -77 -102q-75 0 -75 108zM203 1275q0 107 71 107q82 0 82 -114q0 -100 -77 -100q-76 0 -76 107zM130 971
q0 87 72 87q71 0 71 -89v-664q0 -69 44 -112q47 -46 107 -46h313v828q0 79 75 79q70 0 70 -81v-891q0 -82 -75 -82h-393q-120 0 -208 94q-76 81 -76 208v669z" />
    <glyph glyph-name="uni01F0" unicode="&#x1f0;" horiz-adv-x="699" 
d="M228 979q0 75 72.5 75t72.5 -74v-1151q0 -109 -82 -192q-92 -93 -201 -93h-87q-76 0 -76 74q0 71 73 71h85q50 0 100 52q43 45 43 99v1139zM471 1510q27 29 56 29q28 0 52 -22q20 -18 20 -52q0 -33 -42 -75l-190 -189q-37 -37 -64 -37q-33 0 -70 37l-210 211
q-23 23 -23 50q0 42 23 57q29 19 54 19q24 0 50 -27l176 -168z" />
    <glyph glyph-name="Scommaaccent" unicode="&#x218;" horiz-adv-x="1105" 
d="M492 -168q17 67 70 67q75 0 75 -65q0 -24 -6 -48l-65 -263q-18 -70 -74 -70q-72 0 -72 68q0 22 10 63zM100 1131q0 156 108 267.5t261 111.5q212 0 385 -65q72 -27 72 -83q0 -69 -69 -69q-29 0 -91 24q-129 50 -275 50q-132 0 -201 -94q-42 -57 -42 -150q0 -127 155 -206
l365 -185q237 -122 237 -354q0 -174 -124 -281q-112 -97 -269 -97q-238 0 -456 143q-56 37 -56 82q0 69 74 69q27 0 72 -32q158 -113 379 -113q65 0 117 27q115 60 115 207q0 139 -151 215l-393 199q-213 108 -213 334z" />
    <glyph glyph-name="scommaaccent" unicode="&#x219;" horiz-adv-x="954" 
d="M426 -169q17 67 70 67q75 0 75 -65q0 -24 -6 -48l-65 -263q-18 -70 -74 -70q-72 0 -72 68q0 22 10 63zM728 986q48 -26 48 -65q0 -78 -69 -78q-18 0 -57 15q-152 59 -263 59q-141 0 -141 -123q0 -71 75 -106l369 -173q164 -75 164 -242q0 -133 -119 -224
q-59 -45 -150 -45q-185 0 -420 76q-65 21 -65 70q0 74 66 74q39 0 80 -16q150 -58 318 -58q59 0 90 20q53 34 53 104q0 68 -93 112l-354 169q-160 76 -160 251q0 101 71 176q77 81 196 81q217 0 361 -77z" />
    <glyph glyph-name="uni021A" unicode="&#x21a;" horiz-adv-x="1101" 
d="M474 -169q17 67 70 67q75 0 75 -65q0 -24 -6 -48l-65 -263q-18 -70 -74 -70q-72 0 -72 68q0 22 10 63zM100 1446q0 69 88 69h741q72 0 72 -72q0 -73 -70 -73h-307v-1291q0 -79 -73 -79t-73 77v1293h-292q-86 0 -86 76z" />
    <glyph glyph-name="uni021B" unicode="&#x21b;" horiz-adv-x="711" 
d="M200 -169q17 67 70 67q75 0 75 -65q0 -24 -6 -48l-65 -263q-18 -70 -74 -70q-72 0 -72 68q0 22 10 63zM210 1435q0 76 75 76q69 0 69 -80v-377h229q78 0 78 -78q0 -64 -80 -64h-227v-835q0 -77 -72 -77t-72 84v828h-76q-74 0 -74 70q0 72 73 72h77v381z" />
    <glyph glyph-name="uni0228" unicode="&#x228;" horiz-adv-x="2371" 
d="M2133 716v448q0 76 69 76t69 -73v-672q0 -83 -66 -83q-17 0 -38 15q-23 15 -38 39l-292 447v-420q0 -80 -76 -80q-68 0 -68 82v654q0 89 72 89q44 0 73 -46zM219 3q-69 0 -69 93v1348q0 66 69 66q75 0 75 -75v-638l620 680q35 38 65 38t52 -21.5t22 -53.5q0 -15 -29 -48
l-424 -481l428 -764q26 -45 26 -68q0 -36 -26 -59q-23 -20 -52 -20q-37 0 -62 45l-417 753l-201 -220v-479q0 -96 -77 -96z" />
    <glyph glyph-name="uni0229" unicode="&#x229;" horiz-adv-x="1549" 
d="M323 1033q-80 -59 -80 -183v-71q0 -113 110 -182q64 -40 128 -40t129 44q98 66 98 209v19q0 127 -75 195q-72 66 -152 66t-158 -57zM463 1234q168 0 274 -105q112 -111 112 -236v-112q0 -169 -121 -274q-106 -92 -254 -92q-157 0 -253 96q-121 121 -121 275v91
q0 161 139 274q102 83 224 83z" />
    <glyph glyph-name="uni023B" unicode="&#x23b;" horiz-adv-x="1799" 
d="M1531 700v448q0 76 69 76t69 -73v-672q0 -83 -66 -83q-17 0 -38 15q-25 18 -38 39l-292 447v-420q0 -80 -76 -80q-68 0 -68 82v654q0 89 72 89q44 0 73 -46zM295 1433v-1288h521q91 0 91 -72.5t-94 -72.5h-592q-71 0 -71 89v1344q0 77 72.5 77t72.5 -77z" />
    <glyph glyph-name="uni023C" unicode="&#x23c;" horiz-adv-x="949" 
d="M323 1033q-80 -59 -80 -183v-71q0 -113 110 -182q64 -40 128 -40t129 44q98 66 98 209v19q0 127 -75 195q-72 66 -152 66t-158 -57zM463 1234q168 0 274 -105q112 -111 112 -236v-112q0 -169 -121 -274q-106 -92 -254 -92q-157 0 -253 96q-121 121 -121 275v91
q0 161 139 274q102 83 224 83z" />
    <glyph glyph-name="uni0259" unicode="&#x259;" horiz-adv-x="1015" 
d="M737 458h-461q0 -156 50 -224q63 -86 174 -86q103 0 185 88q52 56 52 222zM885 364q0 -158 -131 -268q-114 -96 -251 -96q-163 0 -277 125q-93 102 -93 213v190q0 72 67 72h537v132q0 184 -156 184h-363q-88 0 -88 74q0 72 87 72h368q121 0 213 -97q87 -92 87 -219v-382z
" />
    <glyph glyph-name="uni0275" unicode="&#x275;" horiz-adv-x="1009" 
d="M353 862q-80 -59 -80 -183v-81h465v60q0 127 -75 195q-72 66 -152 66t-158 -57zM493 1063q168 0 274 -105q112 -111 112 -236v-348q0 -168 -121 -274q-105 -92 -254 -92q-159 0 -253 96q-121 123 -121 275v327q0 161 139 274q102 83 224 83zM738 454h-465v-82
q0 -113 110 -182q64 -40 128 -40t129 44q98 66 98 209v51z" />
    <glyph glyph-name="uni02B9" unicode="&#x2b9;" horiz-adv-x="417" 
d="M172 1745q17 67 70 67q75 0 75 -65q0 -24 -6 -48l-65 -263q-18 -70 -74 -70q-72 0 -72 68q0 22 10 63z" />
    <glyph glyph-name="uni02BA" unicode="&#x2ba;" horiz-adv-x="801" 
d="M556 1740q15 64 64 64q81 0 81 -62q0 -23 -8 -58l-63 -260q-16 -68 -64 -68q-81 0 -81 67q0 20 4 34zM176 1740q16 63 69 63q78 0 78 -69q0 -10 -6 -34l-71 -280q-16 -64 -68 -64q-78 0 -78 65q0 16 5 36z" />
    <glyph glyph-name="afii64937" unicode="&#x2bd;" horiz-adv-x="477" 
d="M275 1745l62 -248q10 -41 10 -63q0 -68 -72 -68q-56 0 -74 70l-65 263q-6 24 -6 48q0 65 75 65q53 0 70 -67z" />
    <glyph glyph-name="dotaccent" unicode="&#x2d9;" horiz-adv-x="0" 
d="M-395 1403q0 107 70 107q82 0 82 -114q0 -100 -77 -100q-75 0 -75 107z" />
    <glyph glyph-name="ring" unicode="&#x2da;" horiz-adv-x="697" 
d="M351.5 1811q-110.5 0 -110.5 -107q0 -119 110 -119q111 0 111 119q0 107 -110.5 107zM348 1950q249 0 249 -246q0 -257 -248.5 -257t-248.5 253q0 250 248 250z" />
    <glyph glyph-name="hungarumlaut" unicode="&#x2dd;" horiz-adv-x="801" 
d="M556 1828q15 64 64 64q81 0 81 -62q0 -23 -8 -58l-63 -260q-16 -68 -64 -68q-81 0 -81 67q0 20 4 34zM176 1828q16 63 69 63q78 0 78 -69q0 -10 -6 -34l-71 -280q-16 -64 -68 -64q-78 0 -78 65q0 16 5 36z" />
    <glyph glyph-name="acutecomb" unicode="&#x301;" horiz-adv-x="646" 
d="M417 1740q32 25 53 25q76 0 76 -79q0 -32 -38 -60l-285 -215q-29 -20 -55 -20q-68 0 -68 75q0 37 36 63z" />
    <glyph glyph-name="uni0302" unicode="&#x302;" horiz-adv-x="798" 
d="M557 1474l-155 158l-158 -153q-42 -41 -71 -41q-73 0 -73 65q0 31 34 66l198 204q36 37 70 37q28 0 65 -37l195 -196q36 -36 36 -72q0 -67 -76 -67q-31 0 -65 36z" />
    <glyph glyph-name="uni0304" unicode="&#x304;" horiz-adv-x="1006" 
d="M76 1592h752q78 0 78 -70q0 -74 -77 -74h-755q-74 0 -74 76q0 68 76 68z" />
    <glyph glyph-name="uni0306" unicode="&#x306;" horiz-adv-x="804" 
d="M249 1728q0 -71 54 -111q50 -37 96 -37q59 0 97 30q58 46 58 111q0 82 81 82q69 0 69 -84q0 -122 -86 -201q-96 -88 -221 -88q-136 0 -220 102q-77 94 -77 200q0 71 83 71q66 0 66 -75z" />
    <glyph glyph-name="uni0307" unicode="&#x307;" horiz-adv-x="0" 
d="M-609 1739q0 107 70 107q82 0 82 -114q0 -100 -77 -100q-75 0 -75 107z" />
    <glyph glyph-name="uni0308" unicode="&#x308;" horiz-adv-x="808" 
d="M556 1550q0 108 70 108q82 0 82 -114q0 -102 -77 -102q-75 0 -75 108zM100 1549q0 107 71 107q82 0 82 -114q0 -100 -77 -100q-76 0 -76 107z" />
    <glyph glyph-name="hookabovecomb" unicode="&#x309;" horiz-adv-x="951" 
d="M262 1675q0 63 88 145q42 40 132 40q75 0 142 -62q55 -51 55 -131q0 -60 -44 -133l-84 -133v-30q0 -75 -68 -75q-66 0 -66 70v52q0 21 21 49l82 139q24 39 24 61q0 59 -68 59q-64 0 -78 -59t-71 -59q-65 0 -65 67z" />
    <glyph glyph-name="uni030C" unicode="&#x30c;" horiz-adv-x="799" 
d="M571 1782q27 27 55 27q31 0 53 -22q20 -20 20 -52q0 -34 -42 -75l-190 -189q-37 -37 -65 -37q-33 0 -70 37l-210 211q-22 22 -22 50q0 36 23 57q21 19 51 19q29 0 53 -25l175 -170z" />
    <glyph glyph-name="uni031B" unicode="&#x31b;" horiz-adv-x="1009" 
d="M320 767q0 15 16 40q15 23 49 23q52 0 62 -38t43 -60q24 -16 68 -16q76 0 76 126v56q0 82 66.5 82t66.5 -80v-84q0 -108 -66 -176q-54 -56 -158 -56q-103 0 -155 60q-68 78 -68 123z" />
    <glyph glyph-name="uni0321" unicode="&#x321;" horiz-adv-x="128" 
d="M-85 -122q0 121 84 121q68 0 68 -122q0 -106 -85 -189q-67 -65 -171 -65q-83 0 -83 68q0 72 78 72q109 0 109 115z" />
    <glyph glyph-name="uni0327" unicode="&#x327;" horiz-adv-x="418" 
d="M177 94q14 57 61 57q20 0 42 -10q38 -17 38 -60q0 -15 -5 -33l-71 -286q-15 -61 -65 -61q-15 0 -35 6q-42 13 -42 61q0 14 4 30z" />
    <glyph glyph-name="uni0328" unicode="&#x328;" horiz-adv-x="548" 
d="M369 148q79 0 79 -76q0 -72 -87 -72q-109 0 -109 -119q0 -115 109 -115q78 0 78 -72q0 -68 -83 -68q-102 0 -171 65q-85 80 -85 189t74 187q77 81 195 81z" />
    <glyph glyph-name="tonos" unicode="&#x384;" horiz-adv-x="423" 
d="M176 1817q16 63 69 63q78 0 78 -69q0 -10 -6 -34l-71 -280q-16 -64 -68 -64q-78 0 -78 65q0 16 5 36z" />
    <glyph glyph-name="dieresistonos" unicode="&#x385;" horiz-adv-x="808" 
d="M411 2072q16 63 69 63q78 0 78 -69q0 -10 -6 -34l-71 -280q-16 -64 -68 -64q-78 0 -78 65q0 16 5 36zM556 1550q0 108 70 108q82 0 82 -114q0 -102 -77 -102q-75 0 -75 108zM100 1549q0 107 71 107q82 0 82 -114q0 -100 -77 -100q-76 0 -76 107z" />
    <glyph glyph-name="Alphatonos" unicode="&#x386;" 
d="M646 2021q16 63 69 63q78 0 78 -69q0 -10 -6 -34l-71 -280q-16 -64 -68 -64q-78 0 -78 65q0 16 5 36zM564 1455q18 56 70 56q50 0 68 -56l447 -1344q9 -27 9 -44q0 -59 -72 -67q-53 0 -75 66l-102 316h-554l-109 -324q-21 -61 -68 -61q-78 0 -78 73q0 10 22 75zM630 1206
l-230 -683h461z" />
    <glyph glyph-name="Epsilontonos" unicode="&#x388;" horiz-adv-x="1003" 
d="M495 2021q16 63 69 63q78 0 78 -69q0 -10 -6 -34l-71 -280q-16 -64 -68 -64q-78 0 -78 65q0 16 5 36zM294 149h533q74 0 74 -72t-71 -72h-614q-66 0 -66 75v1357q0 78 89 78h583q81 0 81 -73q0 -72 -81 -72h-528v-466h386q73 0 73 -72q0 -68 -71 -68h-388v-615z" />
    <glyph glyph-name="Etatonos" unicode="&#x389;" horiz-adv-x="1210" 
d="M608 2021q16 63 69 63q78 0 78 -69q0 -10 -6 -34l-71 -280q-16 -64 -68 -64q-78 0 -78 65q0 16 5 36zM918 760h-621v-683q0 -77 -73.5 -77t-73.5 76v1349q0 86 73.5 86t73.5 -86v-521h621v527q0 75 71 75t71 -74v-1352q0 -80 -71 -80t-71 78v682z" />
    <glyph glyph-name="Iotatonos" unicode="&#x38a;" horiz-adv-x="452" 
d="M246 2021q16 63 69 63q78 0 78 -69q0 -10 -6 -34l-71 -280q-16 -64 -68 -64q-78 0 -78 65q0 16 5 36zM226 0q-76 0 -76 94v1326q0 91 76 91t76 -94v-1321q0 -96 -76 -96z" />
    <glyph glyph-name="Omicrontonos" unicode="&#x38c;" horiz-adv-x="1203" 
d="M624 2021q16 63 69 63q78 0 78 -69q0 -10 -6 -34l-71 -280q-16 -64 -68 -64q-78 0 -78 65q0 16 5 36zM297 423q0 -108 100 -198q87 -77 195 -77q126 0 205 71q111 100 111 233v608q0 146 -105 231q-94 76 -212 76q-99 0 -194 -77q-100 -81 -100 -226v-641zM150 1088
q0 166 131 296q132 131 322 131q181 0 312 -130q138 -137 138 -318v-611q0 -196 -137 -329q-131 -127 -320 -127q-178 0 -311 127q-135 130 -135 301v660z" />
    <glyph glyph-name="Upsilontonos" unicode="&#x38e;" 
d="M643 2021q16 63 69 63q78 0 78 -69q0 -10 -6 -34l-71 -280q-16 -64 -68 -64q-78 0 -78 65q0 16 5 36zM559 761l-443 631q-16 23 -16 46q0 73 79 73q35 0 64 -45l386 -560l390 569q26 36 63 36q76 0 76 -69q0 -25 -19 -54l-437 -631v-672q0 -85 -70 -85q-73 0 -73 87v674z
" />
    <glyph glyph-name="Omegatonos" unicode="&#x38f;" horiz-adv-x="1319" 
d="M688 2024q16 63 69 63q78 0 78 -69q0 -10 -6 -34l-71 -280q-16 -64 -68 -64q-78 0 -78 65q0 16 5 36zM656 1520q215 0 364 -140q164 -154 164 -361v-241q0 -125 -96 -256q-58 -80 -128 -118v-254h130q99 0 99 -69q0 -81 -94 -81h-204q-76 0 -76 81v357q0 48 46 75
q76 46 118 116q60 101 60 176v189q0 156 -105 256q-126 120 -278 120t-256 -102q-126 -123 -126 -280v-166q0 -114 88 -224q32 -40 101 -87q41 -27 41 -88v-346q0 -77 -69 -77h-222q-83 0 -83 76q0 73 84 73h141v248q-97 73 -133 131q-92 151 -92 311v140q0 236 154 386
q159 155 372 155z" />
    <glyph glyph-name="iotadieresistonos" unicode="&#x390;" horiz-adv-x="903" 
d="M216 1815q16 63 69 63q78 0 78 -69q0 -10 -6 -34l-71 -280q-16 -64 -68 -64q-78 0 -78 65q0 16 5 36zM361 1293q0 108 70 108q82 0 82 -114q0 -102 -77 -102q-75 0 -75 108zM-95 1292q0 107 71 107q82 0 82 -114q0 -100 -77 -100q-76 0 -76 107zM130 976q0 86 79 86
q77 0 77 -85v-558q0 -122 54 -188q67 -82 170 -82q94 0 161 64q25 24 63 24q69 0 69 -72q0 -37 -38 -72q-100 -93 -249 -93q-156 0 -267 106q-119 114 -119 320v550z" />
    <glyph glyph-name="Alpha" unicode="&#x391;" 
d="M564 1455q18 56 70 56q50 0 68 -56l447 -1344q9 -27 9 -44q0 -59 -72 -67q-53 0 -75 66l-102 316h-554l-109 -324q-21 -61 -68 -61q-78 0 -78 73q0 10 22 75zM630 1206l-230 -683h461z" />
    <glyph glyph-name="Beta" unicode="&#x392;" horiz-adv-x="1192" 
d="M1062 460q0 -220 -139.5 -340t-263.5 -120h-439q-70 0 -70 91v1325q0 95 93 95h312q190 0 277 -77q152 -135 152 -302q0 -184 -140 -294q93 -54 155.5 -155t62.5 -223zM304 748v-609h312q136 0 218 94t82 208t-77 211q-76 96 -220 96h-315zM304 1361v-457h305
q115 0 172.5 62.5t57.5 155.5q0 94 -61 166.5t-173 72.5h-301z" />
    <glyph glyph-name="Gamma" unicode="&#x393;" horiz-adv-x="1080" 
d="M295 77q0 -77 -72.5 -77t-72.5 77v1344q0 90 71 90h665q94 0 94 -73t-91 -73h-594v-1288z" />
    <glyph glyph-name="Delta" unicode="&#x394;" horiz-adv-x="1259" 
d="M1085 0h-906q-79 0 -79 69q0 15 6 33l453 1342q22 67 71 67q57 0 79 -69l441 -1326q9 -27 9 -46q0 -70 -74 -70zM985 150l-357 1060l-355 -1060h712z" />
    <glyph glyph-name="Epsilon" unicode="&#x395;" horiz-adv-x="1003" 
d="M294 149h533q74 0 74 -72t-71 -72h-614q-66 0 -66 75v1357q0 78 89 78h583q81 0 81 -73q0 -72 -81 -72h-528v-466h386q73 0 73 -72q0 -68 -71 -68h-388v-615z" />
    <glyph glyph-name="Zeta" unicode="&#x396;" horiz-adv-x="1106" 
d="M293 142h635q78 0 78 -75q0 -67 -79 -67h-751q-76 0 -76 72q0 27 23 68l686 1225h-623q-84 0 -84 79q0 67 87 67h720q94 0 94 -67q0 -30 -16 -59z" />
    <glyph glyph-name="Eta" unicode="&#x397;" horiz-adv-x="1210" 
d="M918 760h-621v-683q0 -77 -73.5 -77t-73.5 76v1349q0 86 73.5 86t73.5 -86v-521h621v527q0 75 71 75t71 -74v-1352q0 -80 -71 -80t-71 78v682z" />
    <glyph glyph-name="Theta" unicode="&#x398;" horiz-adv-x="1203" 
d="M530 828h144q72 0 72 -77q0 -67 -77 -67h-142q-74 0 -74 75q0 69 77 69zM297 423q0 -108 100 -198q87 -77 195 -77q126 0 205 71q111 100 111 233v608q0 146 -105 231q-94 76 -212 76q-99 0 -194 -77q-100 -81 -100 -226v-641zM150 1088q0 166 131 296q132 131 322 131
q181 0 312 -130q138 -137 138 -318v-611q0 -196 -137 -329q-131 -127 -320 -127q-178 0 -311 127q-135 130 -135 301v660z" />
    <glyph glyph-name="Iota" unicode="&#x399;" horiz-adv-x="452" 
d="M226 0q-76 0 -76 94v1326q0 91 76 91t76 -94v-1321q0 -96 -76 -96z" />
    <glyph glyph-name="Kappa" unicode="&#x39a;" horiz-adv-x="1155" 
d="M219 3q-69 0 -69 93v1348q0 67 69 67q75 0 75 -76v-638l620 680q35 38 65 38t52 -25q21 -24 21 -52q0 -26 -36 -66l-416 -461l436 -787q19 -34 19 -50q0 -31 -27 -54q-23 -20 -52 -20q-37 0 -62 45l-417 753l-201 -220v-479q0 -96 -77 -96z" />
    <glyph glyph-name="Lambda" unicode="&#x39b;" horiz-adv-x="1259" 
d="M628 1210l-380 -1136q-23 -70 -69 -70q-79 0 -79 65q0 15 6 33l453 1342q23 67 71 67q57 0 79 -69l441 -1326q9 -27 9 -46q0 -70 -74 -70q-50 0 -72 66z" />
    <glyph glyph-name="Mu" unicode="&#x39c;" horiz-adv-x="1364" 
d="M1074 1472q24 39 64 39q76 0 76 -81v-1331q0 -99 -74 -99t-74 99v1073l-312 -508q-38 -63 -76 -63t-74 61l-306 508v-1076q0 -94 -77 -94q-71 0 -71 92v1339q0 80 76 80q39 0 62 -36l386 -651z" />
    <glyph glyph-name="Nu" unicode="&#x39d;" horiz-adv-x="1202" 
d="M914 357v1082q0 76 69 76t69 -73v-1353q0 -83 -66 -83q-46 0 -76 54l-616 1099v-1070q0 -80 -76 -80q-68 0 -68 82v1335q0 89 72 89q47 0 73 -46z" />
    <glyph glyph-name="Xi" unicode="&#x39e;" horiz-adv-x="1100" 
d="M406 830h298q72 0 72 -77q0 -67 -77 -67h-296q-74 0 -74 75q0 69 77 69zM177 1514h751q72 0 72 -77q0 -67 -77 -67h-749q-74 0 -74 75q0 69 77 69zM177 144h751q72 0 72 -77q0 -67 -77 -67h-749q-74 0 -74 75q0 69 77 69z" />
    <glyph glyph-name="Omicron" unicode="&#x39f;" horiz-adv-x="1203" 
d="M297 423q0 -108 100 -198q87 -77 195 -77q126 0 205 71q111 100 111 233v608q0 146 -105 231q-94 76 -212 76q-99 0 -194 -77q-100 -81 -100 -226v-641zM150 1088q0 166 131 296q132 131 322 131q181 0 312 -130q138 -137 138 -318v-611q0 -196 -137 -329
q-131 -127 -320 -127q-178 0 -311 127q-135 130 -135 301v660z" />
    <glyph glyph-name="Pi" unicode="&#x3a0;" horiz-adv-x="1210" 
d="M236 1520h752q72 0 72 -80v-1347q0 -88 -77 -88q-73 0 -73 78v1287h-610v-1287q0 -78 -80 -78q-70 0 -70 78v1354q0 83 86 83z" />
    <glyph glyph-name="Rho" unicode="&#x3a1;" horiz-adv-x="1152" 
d="M298 1366v-611h332q101 0 190 89q88 88 88 218t-88.5 217t-231.5 87h-290zM298 88q0 -83 -74 -83t-74 85v1341q0 80 82 80h387q187 0 321 -151q112 -126 112 -274q0 -182 -78 -286q-145 -193 -344 -193h-332v-519z" />
    <glyph glyph-name="Sigma" unicode="&#x3a3;" horiz-adv-x="1098" 
d="M557 755l-264 -611h629q74 0 74 -72t-71 -72h-753q-71 0 -71 59q0 34 13 63l281 629l-278 628q-17 40 -17 68q0 64 95 64h722q81 0 81 -74q0 -72 -81 -72h-624z" />
    <glyph glyph-name="Tau" unicode="&#x3a4;" horiz-adv-x="1101" 
d="M100 1446q0 69 88 69h741q72 0 72 -72q0 -73 -70 -73h-307v-1291q0 -79 -73 -79t-73 77v1293h-292q-86 0 -86 76z" />
    <glyph glyph-name="Upsilon" unicode="&#x3a5;" 
d="M559 761l-443 631q-16 23 -16 46q0 73 79 73q35 0 64 -45l386 -560l390 569q26 36 63 36q76 0 76 -69q0 -25 -19 -54l-437 -631v-672q0 -85 -70 -85q-73 0 -73 87v674z" />
    <glyph glyph-name="Phi" unicode="&#x3a6;" horiz-adv-x="1416" 
d="M633 1437q0 83 78 83h290q86 0 86 -78q0 -72 -88 -72h-208v-72q216 0 366 -151q159 -160 159 -389t-204 -405q-137 -118 -321 -118v-134q0 -101 -91 -101h-282q-89 0 -89 73q0 76 90 76h214v86q-217 0 -373 156q-160 160 -160 361q0 228 120 355q184 195 413 195v135z
M633 1147q-132 0 -245 -88q-134 -104 -134 -293q0 -171 128 -284q102 -90 251 -90v755zM792 1147v-755q164 0 263 108q110 120 110 277q0 164 -134 282q-100 88 -239 88z" />
    <glyph glyph-name="Chi" unicode="&#x3a7;" horiz-adv-x="1262" 
d="M544 755l-425 637q-16 25 -16 49q0 66 74 66q37 0 67 -44l387 -574l393 584q26 38 66 38q72 0 72 -68q0 -27 -26 -66l-417 -622l424 -640q16 -23 16 -41q0 -74 -73 -74q-42 0 -70 43l-385 582l-390 -587q-26 -38 -60 -38q-81 0 -81 70q0 23 22 57z" />
    <glyph glyph-name="Psi" unicode="&#x3a8;" horiz-adv-x="1322" 
d="M130 1417q0 94 80 94q74 0 74 -104v-479q0 -165 116 -290q66 -71 188 -98v877q0 94 78 94q72 0 72 -102v-871q126 34 188 96q120 120 120 306v479q0 92 72 92q74 0 74 -94v-512q0 -223 -130 -353q-164 -164 -320 -164v-300q0 -88 -78 -88q-76 0 -76 90v294
q-195 33 -314 167q-144 162 -144 379v487z" />
    <glyph glyph-name="Omega" unicode="&#x3a9;" horiz-adv-x="1319" 
d="M656 1520q215 0 364 -140q164 -154 164 -361v-241q0 -125 -96 -256q-58 -80 -128 -118v-254h130q99 0 99 -69q0 -81 -94 -81h-204q-76 0 -76 81v357q0 48 46 75q76 46 118 116q60 101 60 176v189q0 156 -105 256q-126 120 -278 120t-256 -102q-126 -123 -126 -280v-166
q0 -114 88 -224q32 -40 101 -87q41 -27 41 -88v-346q0 -77 -69 -77h-222q-83 0 -83 76q0 73 84 73h141v248q-97 73 -133 131q-92 151 -92 311v140q0 236 154 386q159 155 372 155z" />
    <glyph glyph-name="Iotadieresis" unicode="&#x3aa;" horiz-adv-x="452" 
d="M378 1745q0 108 70 108q82 0 82 -114q0 -102 -77 -102q-75 0 -75 108zM-78 1744q0 107 71 107q82 0 82 -114q0 -100 -77 -100q-76 0 -76 107zM226 0q-76 0 -76 94v1326q0 91 76 91t76 -94v-1321q0 -96 -76 -96z" />
    <glyph glyph-name="Upsilondieresis" unicode="&#x3ab;" 
d="M782 1745q0 108 70 108q82 0 82 -114q0 -102 -77 -102q-75 0 -75 108zM326 1744q0 107 71 107q82 0 82 -114q0 -100 -77 -100q-76 0 -76 107zM559 761l-443 631q-16 23 -16 46q0 73 79 73q35 0 64 -45l386 -560l390 569q26 36 63 36q76 0 76 -69q0 -25 -19 -54l-437 -631
v-672q0 -85 -70 -85q-73 0 -73 87v674z" />
    <glyph glyph-name="alphatonos" unicode="&#x3ac;" horiz-adv-x="1245" 
d="M558 1551q16 63 69 63q78 0 78 -69q0 -10 -6 -34l-71 -280q-16 -64 -68 -64q-78 0 -78 65q0 16 5 36zM892 1011q22 54 71 54q80 0 80 -74q0 -25 -23 -76l-169 -401l99 -258q38 -102 91 -102q74 0 74 -76q0 -75 -73 -75q-152 0 -213 156l-61 154l-52 -118
q-85 -192 -288 -192q-104 0 -197 75q-101 83 -101 260v417q0 125 83 216q86 94 222 94q207 0 285 -207l52 -137zM689 521l-100 266q-47 125 -156 125q-150 0 -150 -174v-404q0 -177 150 -177q102 0 151 116z" />
    <glyph glyph-name="epsilontonos" unicode="&#x3ad;" horiz-adv-x="959" 
d="M492 1551q16 63 69 63q78 0 78 -69q0 -10 -6 -34l-71 -280q-16 -64 -68 -64q-78 0 -78 65q0 16 5 36zM791 986q60 -23 67 -66q3 -21 -9 -47q-18 -40 -63 -40q-25 0 -60 13q-161 60 -294 60q-179 0 -179 -159q0 -143 211 -143q87 0 87 -76t-89 -76q-112 0 -151 -31
q-59 -47 -59 -107q0 -167 167 -167q127 0 306 63q37 13 70 13q30 0 47 -23.5t17 -55.5q0 -46 -66 -73q-171 -71 -360 -71q-144 0 -233 75q-100 84 -100 221q0 142 101 234q-101 94 -101 240q0 99 73 184q86 100 250 100q194 0 368 -68z" />
    <glyph glyph-name="etatonos" unicode="&#x3ae;" horiz-adv-x="1155" 
d="M604 1551q16 63 69 63q78 0 78 -69q0 -10 -6 -34l-71 -280q-16 -64 -68 -64q-78 0 -78 65q0 16 5 36zM327 956q109 107 267 107q153 0 270 -117q101 -101 101 -235v-1075q0 -89 -68 -89q-80 0 -80 89v1062q0 81 -82 159q-56 53 -148 53q-90 0 -146 -55q-80 -78 -80 -179
v-584q0 -92 -69 -92q-84 0 -84 92v734q0 84 -73 84q-75 0 -75 79q0 71 80 71q126 0 187 -104z" />
    <glyph glyph-name="iotatonos" unicode="&#x3af;" horiz-adv-x="903" 
d="M210 1551q16 63 69 63q78 0 78 -69q0 -10 -6 -34l-71 -280q-16 -64 -68 -64q-78 0 -78 65q0 16 5 36zM130 976q0 86 79 86q77 0 77 -85v-558q0 -122 54 -188q67 -82 170 -82q94 0 161 64q25 24 63 24q69 0 69 -72q0 -37 -38 -72q-100 -93 -249 -93q-156 0 -267 106
q-119 114 -119 320v550z" />
    <glyph glyph-name="upsilondieresistonos" unicode="&#x3b0;" horiz-adv-x="1295" 
d="M711 1815q16 63 69 63q78 0 78 -69q0 -10 -6 -34l-71 -280q-16 -64 -68 -64q-78 0 -78 65q0 16 5 36zM856 1293q0 108 70 108q82 0 82 -114q0 -102 -77 -102q-75 0 -75 108zM400 1292q0 107 71 107q82 0 82 -114q0 -100 -77 -100q-76 0 -76 107zM179 912q-79 0 -79 77
q0 71 88 71t156 -70q58 -60 58 -154v-434q0 -114 65 -180q73 -73 184 -73h126q111 0 175 73q60 68 60 188v562q0 88 80 88q72 0 72 -96v-574q0 -165 -109 -278q-108 -112 -269 -112h-138q-175 0 -280 104q-115 114 -115 289v431q0 88 -74 88z" />
    <glyph glyph-name="alpha" unicode="&#x3b1;" horiz-adv-x="1245" 
d="M892 1011q22 54 71 54q80 0 80 -74q0 -25 -23 -76l-169 -401l99 -258q38 -102 91 -102q74 0 74 -76q0 -75 -73 -75q-152 0 -213 156l-61 154l-52 -118q-85 -192 -288 -192q-104 0 -197 75q-101 83 -101 260v417q0 125 83 216q86 94 222 94q207 0 285 -207l52 -137z
M689 521l-100 266q-47 125 -156 125q-150 0 -150 -174v-404q0 -177 150 -177q102 0 151 116z" />
    <glyph glyph-name="beta" unicode="&#x3b2;" horiz-adv-x="1209" 
d="M887 843q66 -32 113 -112q59 -100 59 -180v-194q0 -130 -106 -247q-100 -110 -267 -110q-80 0 -80 75q0 70 87 70q79 0 140 59q77 75 77 170v162q0 65 -44 129q-63 92 -180 92q-78 0 -78 77q0 71 75 71q54 0 103 41q50 42 50 115v139q0 68 -51 116t-111 48h-131
q-105 0 -171 -65q-69 -68 -69 -155v-1506q0 -99 -85 -99q-68 0 -68 100v1496q0 160 106 263q116 113 266 113h169q119 0 219 -102q72 -73 72 -194v-170q0 -123 -95 -202z" />
    <glyph glyph-name="gamma" unicode="&#x3b3;" horiz-adv-x="1114" 
d="M100 986q0 68 68 68q28 0 64 -17q188 -89 379 -305q92 141 259 292q33 30 65 30q79 0 79 -68q0 -32 -50 -80q-160 -154 -258 -299q123 -179 182 -393q51 -185 51 -340q0 -151 -75 -232q-90 -98 -231 -98q-136 0 -219 96q-80 95 -80 256q0 158 56 353q61 212 137 345
q-168 210 -371 312q-56 28 -56 80zM625 452q-144 -304 -144 -558q0 -199 153 -199q158 0 158 199q0 285 -167 558z" />
    <glyph glyph-name="delta" unicode="&#x3b4;" horiz-adv-x="1018" 
d="M130 696q0 120 93 235q59 73 165 106l-112 86q-67 50 -67 167q0 87 73 161q62 63 157 63h287q88 0 88 -81q0 -67 -93 -67h-263q-101 0 -101 -79q0 -42 36 -66l339 -233q156 -108 156 -320v-310q0 -146 -109 -252q-112 -109 -258 -109q-167 0 -282 109q-109 104 -109 264
v326zM281 684v-319q0 -99 103 -181q48 -38 130 -38q77 0 142 52q79 63 79 175v313q0 98 -81 165q-65 54 -147 54q-60 0 -117 -33q-109 -63 -109 -188z" />
    <glyph glyph-name="epsilon" unicode="&#x3b5;" horiz-adv-x="959" 
d="M791 986q60 -23 67 -66q3 -21 -9 -47q-18 -40 -63 -40q-25 0 -60 13q-161 60 -294 60q-179 0 -179 -159q0 -143 211 -143q87 0 87 -76t-89 -76q-112 0 -151 -31q-59 -47 -59 -107q0 -167 167 -167q127 0 306 63q37 13 70 13q30 0 47 -23.5t17 -55.5q0 -46 -66 -73
q-171 -71 -360 -71q-144 0 -233 75q-100 84 -100 221q0 142 101 234q-101 94 -101 240q0 99 73 184q86 100 250 100q194 0 368 -68z" />
    <glyph glyph-name="zeta" unicode="&#x3b6;" horiz-adv-x="961" 
d="M100 1438q0 82 76 82q75 0 75 -83v-55q0 -88 78 -88h352q105 0 105 -80q0 -29 -54 -90q-269 -304 -435 -679q-44 -99 -44 -150q0 -65 59 -111q44 -34 105 -34h210q112 0 177 -75q57 -66 57 -149v-142q0 -115 -74 -182q-64 -58 -142 -58q-84 0 -84 73q0 80 80 80
q69 0 69 82v130q0 91 -84 91h-205q-142 0 -225 82q-93 92 -93 219q0 70 46 182q131 319 396 658h-211q-119 0 -185 86q-49 64 -49 141v70z" />
    <glyph glyph-name="eta" unicode="&#x3b7;" horiz-adv-x="1155" 
d="M327 956q109 107 267 107q153 0 270 -117q101 -101 101 -235v-1075q0 -89 -68 -89q-80 0 -80 89v1062q0 81 -82 159q-56 53 -148 53q-90 0 -146 -55q-80 -78 -80 -179v-584q0 -92 -69 -92q-84 0 -84 92v734q0 84 -73 84q-75 0 -75 79q0 71 80 71q126 0 187 -104z" />
    <glyph glyph-name="theta" unicode="&#x3b8;" horiz-adv-x="1140" 
d="M755 987v206q0 59 -50 116q-52 59 -145 59q-73 0 -133 -62q-49 -51 -49 -132q0 -76 60 -133q57 -54 141 -54h176zM759 837h-219q-108 0 -220 107q-95 91 -95 235q0 123 103 244q80 94 235 94q154 0 259 -110q86 -90 86 -214v-208h63q89 0 89 -75q0 -73 -81 -73h-71v-427
q0 -200 -127 -314q-107 -96 -248 -96t-243 85q-139 116 -139 276q0 92 -105 92q-126 0 -126 73q0 84 99 84q147 0 211 -65q67 -68 67 -157q0 -119 97 -194q54 -42 146 -42q93 0 151 66q68 77 68 208v411z" />
    <glyph glyph-name="iota" unicode="&#x3b9;" horiz-adv-x="903" 
d="M130 976q0 86 79 86q77 0 77 -85v-558q0 -122 54 -188q67 -82 170 -82q94 0 161 64q25 24 63 24q69 0 69 -72q0 -37 -38 -72q-100 -93 -249 -93q-156 0 -267 106q-119 114 -119 320v550z" />
    <glyph glyph-name="kappa" unicode="&#x3ba;" horiz-adv-x="996" 
d="M64 906q-74 0 -74 78q0 70 85 70q89 0 155 -69q61 -64 61 -162v-283l389 481q28 33 67 33q75 0 75 -68q0 -32 -27 -64l-281 -346l243 -392q25 -39 68 -39q71 0 71 -76q0 -69 -91 -69q-113 0 -181 112l-207 342l-125 -153v-221q0 -80 -73 -80q-82 0 -82 77v753
q0 76 -73 76z" />
    <glyph glyph-name="lambda" unicode="&#x3bb;" horiz-adv-x="1112" 
d="M862 213q23 -65 79 -65q71 0 71 -83q0 -65 -87 -65q-148 0 -208 169l-193 549l-268 -653q-27 -65 -76 -65q-80 0 -80 67q0 22 12 53l338 827l-120 350q-23 68 -74 68q-78 0 -78 75q0 71 85 71q151 0 202 -150z" />
    <glyph glyph-name="mu" unicode="&#x3bc;" horiz-adv-x="1124" 
d="M150 971q0 83 79 83q74 0 74 -91v-579q0 -104 67 -169q71 -69 166 -69t152 59q76 79 76 171v600q0 81 77 81q71 0 71 -89v-743q0 -77 82 -77q70 0 70 -74t-83 -74q-118 0 -184 102q-94 -102 -264 -102q-125 0 -228 68v-449q0 -80 -80 -80q-75 0 -75 83v1349z" />
    <glyph glyph-name="nu" unicode="&#x3bd;" horiz-adv-x="1108" 
d="M858 993q9 70 76 70q74 0 74 -79q0 -21 -12 -83q-48 -243 -160 -459q-106 -205 -257 -367q-67 -72 -103 -72q-60 0 -73 79l-151 752q-16 78 -69 78q-83 0 -83 81q0 72 80 72q176 0 217 -201l128 -625q167 212 239 408t94 346z" />
    <glyph glyph-name="xi" unicode="&#x3be;" horiz-adv-x="1111" 
d="M796 146q85 0 153 -67q62 -61 62 -143v-164q0 -98 -67 -163t-160 -65q-70 0 -70 72q0 78 80 78q67 0 67 89v151q0 66 -82 66h-233q-184 0 -303 126q-139 147 -139 294v58q0 246 235 376q-83 76 -83 200q0 105 41 164q-107 26 -154 91q-43 61 -43 128q0 79 74 79
q75 0 75 -76q0 -73 82 -73h423q93 0 93 -71q0 -75 -93 -75h-124q-132 0 -181 -48q-45 -44 -45 -110q0 -53 47 -107q44 -50 177 -50h135q84 0 84 -66q0 -75 -83 -75h-152q-177 0 -262 -91q-94 -101 -94 -196v-82q0 -76 106 -178q75 -72 290 -72h144z" />
    <glyph glyph-name="omicron" unicode="&#x3bf;" horiz-adv-x="1009" 
d="M353 862q-80 -59 -80 -183v-307q0 -113 110 -182q64 -40 128 -40t129 44q98 66 98 209v255q0 127 -75 195q-72 66 -152 66t-158 -57zM493 1063q168 0 274 -105q112 -111 112 -236v-348q0 -168 -121 -274q-105 -92 -254 -92q-159 0 -253 96q-121 123 -121 275v327
q0 161 139 274q102 83 224 83z" />
    <glyph glyph-name="pi" unicode="&#x3c0;" horiz-adv-x="1317" 
d="M222 906q-92 0 -92 81q0 73 97 73h870q90 0 90 -78q0 -76 -84 -76h-142v-650q0 -109 76 -109t76 -69q0 -78 -74 -78q-228 0 -228 276v630h-306v-649q0 -257 -222 -257q-78 0 -78 67q0 85 87 85q65 0 65 104v650h-135z" />
    <glyph glyph-name="rho" unicode="&#x3c1;" horiz-adv-x="1009" 
d="M352 -147q0 108 -81 205q-141 169 -141 314v327q0 164 139 274q102 81 224 81q168 0 277 -107t109 -232v-348q0 -159 -121 -274q-98 -93 -276 -93q21 -82 21 -128v-50q0 -121 -75 -232q-31 -46 -76 -46q-70 0 -70 69q0 42 20 61q50 48 50 179zM352 855q-79 -59 -79 -183
v-298q0 -106 97 -182q58 -44 141 -44q80 0 129 39q98 79 98 222v242q0 126 -75 195q-72 66 -153 66q-82 0 -158 -57z" />
    <glyph glyph-name="sigma1" unicode="&#x3c2;" horiz-adv-x="1170" 
d="M252 908q119 146 402 146h135q84 0 84 -64q0 -75 -83 -75h-152q-181 0 -268 -91q-88 -92 -88 -236v-192q0 -77 106 -178q75 -72 290 -72h144q85 0 153 -67q62 -61 62 -143v-164q0 -98 -67 -163t-160 -65q-70 0 -70 72q0 78 80 78q67 0 67 89v151q0 66 -82 66h-233
q-184 0 -303 126q-139 146 -139 294v168q0 170 122 320z" />
    <glyph glyph-name="sigma" unicode="&#x3c3;" horiz-adv-x="1216" 
d="M897 1058q72 0 72 80q0 70 79 70q68 0 68 -80q0 -111 -87 -176q-66 -49 -211 -49q71 -91 71 -218v-304q0 -178 -121 -289q-100 -92 -254 -92q-151 0 -253 93q-131 120 -131 270v316q0 175 139 293q101 86 250 86h378zM363 854q-80 -59 -80 -183v-307q0 -98 89 -170
q59 -48 136 -48t142 45q93 64 93 204v255q0 125 -70 195q-56 58 -161 58q-81 0 -149 -49z" />
    <glyph glyph-name="tau" unicode="&#x3c4;" horiz-adv-x="1184" 
d="M633 908v-570q0 -103 34 -140q43 -46 92 -46q95 0 95 -76t-99 -76q-115 0 -202 102q-73 86 -73 219v587h-297q-83 0 -83 77.5t92 77.5h803q89 0 89 -75q0 -80 -83 -80h-368z" />
    <glyph glyph-name="upsilon" unicode="&#x3c5;" horiz-adv-x="1295" 
d="M179 912q-79 0 -79 77q0 71 88 71t156 -70q58 -60 58 -154v-434q0 -114 65 -180q73 -73 184 -73h126q111 0 175 73q60 68 60 188v562q0 88 80 88q72 0 72 -96v-574q0 -165 -109 -278q-108 -112 -269 -112h-138q-175 0 -280 104q-115 114 -115 289v431q0 88 -74 88z" />
    <glyph glyph-name="phi" unicode="&#x3c6;" horiz-adv-x="1316" 
d="M737 154q137 37 219 136q84 101 84 231v194q0 188 -154 188q-149 0 -149 -182v-567zM585 152v580q0 140 83 228q89 94 222 94q137 0 220 -90q75 -81 75 -230v-220q0 -209 -141 -354q-130 -134 -309 -160v-356q0 -100 -79 -100q-71 0 -71 100v356q-163 27 -265 114
q-190 162 -190 358v502q0 84 77 84q69 0 69 -90v-426q0 -146 96 -267q76 -96 213 -123z" />
    <glyph glyph-name="chi" unicode="&#x3c7;" horiz-adv-x="1114" 
d="M559 957l222 491q32 72 73 72q28 0 50 -14q33 -21 33 -58q0 -24 -15 -58l-282 -630l219 -547q26 -65 74 -65q81 0 81 -74t-88 -74q-140 0 -207 163l-166 403l-231 -518q-20 -45 -69 -45q-29 0 -49 17q-25 22 -25 56q0 27 11 47l285 636l-231 570q-15 38 -60 38
q-84 0 -84 76q0 77 84 77q144 0 210 -160z" />
    <glyph glyph-name="psi" unicode="&#x3c8;" horiz-adv-x="1322" 
d="M587 154v1113q0 90 77 90q73 0 73 -96v-1104q122 23 195 99q110 114 110 272v433q0 93 78 93q72 0 72 -96v-428q0 -226 -144 -370q-134 -134 -311 -160v-362q0 -94 -77 -94t-77 98v358q-132 16 -251 108q-202 156 -202 430v422q0 94 78 94q72 0 72 -102v-408
q0 -162 118 -292q76 -84 189 -98z" />
    <glyph glyph-name="omega" unicode="&#x3c9;" horiz-adv-x="1417" 
d="M1071 928q-15 34 -15 62q0 75 74 75q58 0 86 -97q101 -350 101 -560q0 -173 -94 -280q-112 -128 -270 -128q-156 0 -246 102q-101 -102 -244 -102q-145 0 -284 146q-79 83 -79 288q0 238 119 574q20 56 72 56q70 0 70 -70q0 -30 -16 -79q-100 -309 -100 -505
q0 -97 48 -161q73 -98 177 -98q72 0 121 49q44 44 44 120v196q0 92 76 92q72 0 72 -94v-188q0 -105 67 -146q47 -29 97 -29q110 0 166 83q52 77 52 192q0 291 -94 502z" />
    <glyph glyph-name="iotadieresis" unicode="&#x3ca;" horiz-adv-x="903" 
d="M361 1293q0 108 70 108q82 0 82 -114q0 -102 -77 -102q-75 0 -75 108zM-95 1292q0 107 71 107q82 0 82 -114q0 -100 -77 -100q-76 0 -76 107zM130 976q0 86 79 86q77 0 77 -85v-558q0 -122 54 -188q67 -82 170 -82q94 0 161 64q25 24 63 24q69 0 69 -72q0 -37 -38 -72
q-100 -93 -249 -93q-156 0 -267 106q-119 114 -119 320v550z" />
    <glyph glyph-name="upsilondieresis" unicode="&#x3cb;" horiz-adv-x="1295" 
d="M848 1293q0 108 70 108q82 0 82 -114q0 -102 -77 -102q-75 0 -75 108zM392 1292q0 107 71 107q82 0 82 -114q0 -100 -77 -100q-76 0 -76 107zM179 912q-79 0 -79 77q0 71 88 71t156 -70q58 -60 58 -154v-434q0 -114 65 -180q73 -73 184 -73h126q111 0 175 73
q60 68 60 188v562q0 88 80 88q72 0 72 -96v-574q0 -165 -109 -278q-108 -112 -269 -112h-138q-175 0 -280 104q-115 114 -115 289v431q0 88 -74 88z" />
    <glyph glyph-name="omicrontonos" unicode="&#x3cc;" horiz-adv-x="1009" 
d="M510 1551q16 63 69 63q78 0 78 -69q0 -10 -6 -34l-71 -280q-16 -64 -68 -64q-78 0 -78 65q0 16 5 36zM353 862q-80 -59 -80 -183v-307q0 -113 110 -182q64 -40 128 -40t129 44q98 66 98 209v255q0 127 -75 195q-72 66 -152 66t-158 -57zM493 1063q168 0 274 -105
q112 -111 112 -236v-348q0 -168 -121 -274q-105 -92 -254 -92q-159 0 -253 96q-121 123 -121 275v327q0 161 139 274q102 83 224 83z" />
    <glyph glyph-name="upsilontonos" unicode="&#x3cd;" horiz-adv-x="1295" 
d="M700 1551q16 63 69 63q78 0 78 -69q0 -10 -6 -34l-71 -280q-16 -64 -68 -64q-78 0 -78 65q0 16 5 36zM179 912q-79 0 -79 77q0 71 88 71t156 -70q58 -60 58 -154v-434q0 -114 65 -180q73 -73 184 -73h126q111 0 175 73q60 68 60 188v562q0 88 80 88q72 0 72 -96v-574
q0 -165 -109 -278q-108 -112 -269 -112h-138q-175 0 -280 104q-115 114 -115 289v431q0 88 -74 88z" />
    <glyph glyph-name="omegatonos" unicode="&#x3ce;" horiz-adv-x="1417" 
d="M724 1550q16 63 69 63q78 0 78 -69q0 -10 -6 -34l-71 -280q-16 -64 -68 -64q-78 0 -78 65q0 16 5 36zM1071 928q-15 34 -15 62q0 75 74 75q58 0 86 -97q101 -350 101 -560q0 -173 -94 -280q-112 -128 -270 -128q-156 0 -246 102q-101 -102 -244 -102q-145 0 -284 146
q-79 83 -79 288q0 238 119 574q20 56 72 56q70 0 70 -70q0 -30 -16 -79q-100 -309 -100 -505q0 -97 48 -161q73 -98 177 -98q72 0 121 49q44 44 44 120v196q0 92 76 92q72 0 72 -94v-188q0 -105 67 -146q47 -29 97 -29q110 0 166 83q52 77 52 192q0 291 -94 502z" />
    <glyph glyph-name="theta1" unicode="&#x3d1;" horiz-adv-x="1140" 
d="M755 987v206q0 59 -50 116q-52 59 -145 59q-73 0 -133 -62q-49 -51 -49 -132q0 -76 60 -133q57 -54 141 -54h176zM759 837h-219q-108 0 -220 107q-95 91 -95 235q0 123 103 244q80 94 235 94q154 0 259 -110q86 -90 86 -214v-208h63q89 0 89 -75q0 -73 -81 -73h-71v-427
q0 -200 -127 -314q-107 -96 -248 -96t-243 85q-139 116 -139 276q0 92 -105 92q-126 0 -126 73q0 84 99 84q147 0 211 -65q67 -68 67 -157q0 -119 97 -194q54 -42 146 -42q93 0 151 66q68 77 68 208v411z" />
    <glyph glyph-name="uni0400" unicode="&#x400;" horiz-adv-x="1024" 
d="M429 1986l281 -211q36 -26 36 -63q0 -75 -68 -75q-26 0 -55 20l-285 215q-38 28 -38 60q0 79 76 79q21 0 53 -25zM306 144h533q74 0 74 -72t-71 -72h-614q-66 0 -66 75v1357q0 79 89 79h583q81 0 81 -74q0 -72 -81 -72h-528v-466h386q73 0 73 -72q0 -68 -71 -68h-388
v-615z" />
    <glyph glyph-name="uni0401" unicode="&#x401;" horiz-adv-x="1024" 
d="M694 1745q0 108 70 108q82 0 82 -114q0 -102 -77 -102q-75 0 -75 108zM238 1744q0 107 71 107q82 0 82 -114q0 -100 -77 -100q-76 0 -76 107zM306 149h533q74 0 74 -72t-71 -72h-614q-66 0 -66 75v1357q0 78 89 78h583q81 0 81 -73q0 -72 -81 -72h-528v-466h386
q73 0 73 -72q0 -68 -71 -68h-388v-615z" />
    <glyph glyph-name="afii10051" unicode="&#x402;" horiz-adv-x="1370" 
d="M45 1446q0 69 88 69h741q72 0 72 -72q0 -73 -70 -73h-307v-452h406q119 0 217 -93q78 -74 78 -206v-581q0 -111 -80 -192q-92 -93 -201 -93h-87q-76 0 -76 74q0 71 71 71h87q47 0 99 52q44 44 44 99v553q0 172 -176 172h-382v-695q0 -79 -73 -79t-73 77v1293h-292
q-86 0 -86 76z" />
    <glyph glyph-name="afii10052" unicode="&#x403;" horiz-adv-x="1043" 
d="M701 1986q32 25 53 25q76 0 76 -79q0 -32 -38 -60l-285 -215q-29 -20 -55 -20q-68 0 -68 75q0 37 36 63zM309 77q0 -77 -72.5 -77t-72.5 77v1344q0 90 71 90h665q94 0 94 -73t-91 -73h-594v-1288z" />
    <glyph glyph-name="afii10053" unicode="&#x404;" horiz-adv-x="1004" 
d="M520 1515h306q74 0 74 -75q0 -76 -80 -76h-301q-84 0 -163 -73q-60 -56 -60 -150v-277h404q72 0 72 -77q0 -67 -76 -67h-400v-343q0 -94 63 -162q66 -70 137 -70h336q72 0 72 -73q0 -69 -73 -69h-341q-138 0 -258 133q-82 91 -82 233v783q0 150 118 261q108 102 252 102z
" />
    <glyph glyph-name="afii10054" unicode="&#x405;" horiz-adv-x="1105" 
d="M100 1131q0 156 108 267.5t261 111.5q212 0 385 -65q72 -27 72 -83q0 -69 -69 -69q-29 0 -91 24q-129 50 -275 50q-132 0 -201 -94q-42 -57 -42 -150q0 -127 155 -206l365 -185q237 -122 237 -354q0 -174 -124 -281q-112 -97 -269 -97q-238 0 -456 143q-56 37 -56 82
q0 69 74 69q27 0 72 -32q158 -113 379 -113q65 0 117 27q115 60 115 207q0 139 -151 215l-393 199q-213 108 -213 334z" />
    <glyph glyph-name="afii10055" unicode="&#x406;" horiz-adv-x="452" 
d="M226 0q-76 0 -76 94v1326q0 90 76 90t76 -93v-1321q0 -96 -76 -96z" />
    <glyph glyph-name="afii10056" unicode="&#x407;" horiz-adv-x="608" 
d="M304 0q-76 0 -76 94v1326q0 90 76 90t76 -93v-1321q0 -96 -76 -96zM456 1745q0 108 70 108q82 0 82 -114q0 -102 -77 -102q-75 0 -75 108zM0 1744q0 107 71 107q82 0 82 -114q0 -100 -77 -100q-76 0 -76 107z" />
    <glyph glyph-name="afii10057" unicode="&#x408;" horiz-adv-x="847" 
d="M554 1432q0 78 72 78q71 0 71 -77v-1067q0 -149 -107.5 -257.5t-261.5 -108.5h-154q-74 0 -74 74t87 74h148q94 0 156.5 68.5t62.5 153.5v1062z" />
    <glyph glyph-name="afii10058" unicode="&#x409;" horiz-adv-x="1966" 
d="M145 152q132 0 132 176v1098q0 82 86 82h676q72 0 72 -79v-527h315q128 0 224 -65q93 -55 154.5 -155t61.5 -222q0 -218 -139 -339t-263 -121h-436q-68 0 -68 79v1281h-532v-969q0 -207 -64 -293q-73 -98 -214 -98h-34q-98 0 -98 74q0 78 127 78zM1644 651
q-74 96 -218 96h-314v-607h310q136 0 218 93.5t82 207.5t-78 210z" />
    <glyph glyph-name="afii10059" unicode="&#x40a;" horiz-adv-x="1928" 
d="M932 760h-621v-683q0 -77 -73.5 -77t-73.5 76v1349q0 86 73.5 86t73.5 -86v-521h621v527q0 75 71 75t71 -74v-528h314q125 0 224 -67q91 -54 154 -155q62 -99 62 -222q0 -218 -138.5 -339t-263.5 -121h-423q-71 0 -71 78v682zM1606 651q-85 109 -218 109h-314v-620h310
q136 0 218 94q82 93 82 207t-78 210z" />
    <glyph glyph-name="afii10060" unicode="&#x40b;" horiz-adv-x="1370" 
d="M45 1446q0 69 88 69h741q72 0 72 -72q0 -73 -70 -73h-307v-452h406q119 0 217 -93q78 -74 78 -206v-535q0 -78 -66 -78q-77 0 -77 80v516q0 172 -176 172h-382v-695q0 -79 -73 -79t-73 77v1293h-292q-86 0 -86 76z" />
    <glyph glyph-name="afii10061" unicode="&#x40c;" horiz-adv-x="1072" 
d="M697 1986q32 25 53 25q76 0 76 -79q0 -32 -38 -60l-285 -215q-29 -20 -55 -20q-68 0 -68 75q0 37 36 63zM233 1502q77 0 77 -95v-510q153 0 235 64q88 69 154 234q62 155 130 219q69 65 144 84q29 7 56 -6q26 -13 35 -43q9 -28 -7 -55q-14 -25 -51 -36q-99 -30 -168 -202
q-87 -215 -202 -308q-87 -70 -198 -90l590 -620q35 -39 35 -66q0 -28 -21 -52t-51 -24t-65 38l-618 645v-603q0 -76 -75 -76q-69 0 -69 66v1344q0 92 69 92z" />
    <glyph glyph-name="uni040D" unicode="&#x40d;" horiz-adv-x="1222" 
d="M498 1982l281 -211q36 -26 36 -63q0 -75 -68 -75q-26 0 -55 20l-285 215q-38 28 -38 60q0 79 76 79q21 0 53 -25zM230 1500q76 0 76 -80v-1065l613 1094q30 54 76 54q65 0 65 -83v-1346q0 -74 -68.5 -74t-68.5 77v1076l-616 -1106q-26 -47 -73 -47q-72 0 -72 89v1329
q0 82 68 82z" />
    <glyph glyph-name="afii10062" unicode="&#x40e;" horiz-adv-x="851" 
d="M232 1935q0 -71 54 -111q50 -37 96 -37q59 0 97 30q58 46 58 111q0 82 81 82q69 0 69 -84q0 -122 -86 -201q-96 -88 -221 -88q-136 0 -220 102q-77 94 -77 200q0 71 83 71q66 0 66 -75zM785 1375l-436 -1302q-23 -69 -89 -69h-129q-81 0 -81 71q0 74 84 74h85l123 372
l-279 859q-13 37 -13 65q0 69 73 69q52 0 74 -69l224 -689l237 697q21 61 69 61q74 0 74 -69q0 -22 -16 -70z" />
    <glyph glyph-name="afii10145" unicode="&#x40f;" horiz-adv-x="1314" 
d="M548 0h-316q-72 0 -72 80v1338q0 88 76 88q73 0 73 -78v-1278h640v1278q0 78 81 78q69 0 69 -78v-1350q0 -43 -18.5 -60.5t-57.5 -17.5h-319v-322q0 -89 -80 -89q-76 0 -76 91v320z" />
    <glyph glyph-name="afii10017" unicode="&#x410;" 
d="M564 1455q18 55 70 55q50 0 68 -55l447 -1344q9 -27 9 -44q0 -59 -72 -67q-53 0 -75 66l-102 316h-554l-109 -324q-21 -61 -68 -61q-78 0 -78 73q0 10 22 75zM630 1206l-230 -683h461z" />
    <glyph glyph-name="uni0411" unicode="&#x411;" horiz-adv-x="1145" 
d="M851 649q-76 96 -219 96h-314v-607h311q137 0 218 94q88 102 88 209q0 102 -84 208zM257 1505h589q86 0 86 -75q0 -74 -87 -74h-527v-455h315q128 0 223 -66q93 -54 156 -155q62 -100 62 -222q0 -220 -139 -339t-263 -119h-438q-70 0 -70 90v1321q0 94 93 94z" />
    <glyph glyph-name="uni0412" unicode="&#x412;" horiz-adv-x="1170" 
d="M1064 460q0 -220 -139.5 -340t-263.5 -120h-439q-70 0 -70 91v1325q0 95 93 95h312q190 0 277 -77q152 -135 152 -302q0 -184 -140 -294q93 -54 155.5 -155t62.5 -223zM306 748v-609h312q136 0 218 94t82 208t-77 211q-76 96 -220 96h-315zM306 1361v-457h305
q115 0 172.5 62.5t57.5 155.5q0 94 -61 166.5t-173 72.5h-301z" />
    <glyph glyph-name="uni0413" unicode="&#x413;" horiz-adv-x="1043" 
d="M309 77q0 -77 -72.5 -77t-72.5 77v1344q0 90 71 90h665q94 0 94 -73t-91 -73h-594v-1288z" />
    <glyph glyph-name="uni0414" unicode="&#x414;" horiz-adv-x="1261" 
d="M447 1367v-33q0 -487 -29 -692q-39 -275 -130 -483h610v1208h-451zM1190 74v-291q0 -94 -76 -94h-2q-72 0 -72 83v228h-889v-228q0 -83 -79 -83h-2q-70 0 -70 83v299q0 88 87 88h40q119 216 149 496q17 161 17 456v314q0 83 86 83h597q71 0 71 -86v-1263h71q72 0 72 -85z
" />
    <glyph glyph-name="uni0415" unicode="&#x415;" horiz-adv-x="1024" 
d="M306 144h533q74 0 74 -72t-71 -72h-614q-66 0 -66 75v1357q0 79 89 79h583q81 0 81 -74q0 -72 -81 -72h-528v-466h386q73 0 73 -72q0 -68 -71 -68h-388v-615z" />
    <glyph glyph-name="uni0416" unicode="&#x416;" horiz-adv-x="1624" 
d="M6 1440q0 65 96 65q108 0 187 -41q109 -57 174 -256q63 -193 149 -270q85 -76 119 -76v564q0 91 77 91h2q80 0 80 -93v-562h2q32 0 116 74q87 77 150 269q64 196 175 259q72 41 187 41q96 0 96 -78q0 -80 -98 -80q-163 0 -242 -245q-82 -253 -244 -315q139 -65 257 -182
q216 -215 253 -514q4 -32 -16 -57q-27 -34 -57 -34t-52 15q-26 18 -31 57q-28 240 -219 432q-189 190 -277 201v-608q0 -97 -79 -97h-2q-74 0 -74 105v600q-91 0 -281 -194.5t-220 -432.5q-4 -32 -30 -53q-27 -22 -51 -22q-32 0 -59 37q-19 26 -15 57q40 299 257 512
q114 112 253 178q-164 64 -244 315q-78 245 -235 245q-104 0 -104 93z" />
    <glyph glyph-name="afii10025" unicode="&#x417;" horiz-adv-x="984" 
d="M197 1515h313q136 0 244 -117q100 -108 100 -253q0 -182 -156 -311q152 -110 152 -271v-220q0 -129 -111 -240q-98 -98 -256 -98h-298q-85 0 -85 74q0 67 90 67h264q121 0 191 72q65 67 65 175v130q0 102 -60 165q-73 77 -156 77h-152q-83 0 -83 75q0 66 84 66h135
q94 0 161 68q71 72 71 164q0 94 -57 152q-78 79 -160 79h-296q-93 0 -93 75q0 71 93 71z" />
    <glyph glyph-name="uni0418" unicode="&#x418;" horiz-adv-x="1222" 
d="M230 1500q76 0 76 -80v-1065l613 1094q30 54 76 54q65 0 65 -83v-1346q0 -74 -68.5 -74t-68.5 77v1076l-616 -1106q-26 -47 -73 -47q-72 0 -72 89v1329q0 82 68 82z" />
    <glyph glyph-name="uni0419" unicode="&#x419;" horiz-adv-x="1222" 
d="M230 1500q76 0 76 -80v-1065l613 1094q30 54 76 54q65 0 65 -83v-1346q0 -74 -68.5 -74t-68.5 77v1076l-616 -1106q-26 -47 -73 -47q-72 0 -72 89v1329q0 82 68 82zM848 1891q0 -107 -79 -180t-193 -73t-184 86t-70 175v3q0 62 72 62q58 0 58 -64q0 -63 45 -96.5
t91.5 -33.5t87.5 33t41 89q0 72 71 72q60 0 60 -73z" />
    <glyph glyph-name="uni041A" unicode="&#x41a;" horiz-adv-x="1072" 
d="M233 1502q77 0 77 -95v-510q153 0 235 64q88 69 154 234q62 155 130 219q69 65 144 84q29 7 56 -6q26 -13 35 -43q9 -28 -7 -55q-14 -25 -51 -36q-99 -30 -168 -202q-87 -215 -202 -308q-87 -70 -198 -90l590 -620q35 -39 35 -66q0 -28 -21 -52t-51 -24t-65 38l-618 645
v-603q0 -76 -75 -76q-69 0 -69 66v1344q0 92 69 92z" />
    <glyph glyph-name="uni041B" unicode="&#x41b;" horiz-adv-x="1275" 
d="M145 152q132 0 132 176v1098q0 82 86 82h676q72 0 72 -79v-1340q0 -89 -75.5 -89t-75.5 79v1281h-532v-969q0 -207 -64 -293q-73 -98 -214 -98h-34q-98 0 -98 74q0 78 127 78z" />
    <glyph glyph-name="uni041C" unicode="&#x41c;" horiz-adv-x="1376" 
d="M1080 1472q24 39 64 39q76 0 76 -81v-1331q0 -99 -74 -99t-74 99v1073l-312 -508q-38 -63 -76 -63t-74 61l-306 508v-1076q0 -94 -77 -94q-71 0 -71 92v1339q0 80 76 80q39 0 62 -36l386 -651z" />
    <glyph glyph-name="uni041D" unicode="&#x41d;" horiz-adv-x="1238" 
d="M932 760h-621v-683q0 -77 -73.5 -77t-73.5 76v1349q0 86 73.5 86t73.5 -86v-521h621v527q0 75 71 75t71 -74v-1352q0 -80 -71 -80t-71 78v682z" />
    <glyph glyph-name="uni041E" unicode="&#x41e;" horiz-adv-x="1093" 
d="M243 424q0 -108 100 -198q87 -77 195 -77q126 0 205 71q111 100 111 233v608q0 146 -105 231q-94 76 -212 76q-99 0 -194 -77q-100 -81 -100 -226v-641zM96 1089q0 166 131 296q132 131 322 131q181 0 312 -130q138 -137 138 -318v-611q0 -196 -137 -329
q-131 -127 -320 -127q-178 0 -311 127q-135 130 -135 301v660z" />
    <glyph glyph-name="uni041F" unicode="&#x41f;" horiz-adv-x="1238" 
d="M250 1520h752q72 0 72 -80v-1347q0 -88 -77 -88q-73 0 -73 78v1287h-610v-1287q0 -78 -80 -78q-70 0 -70 78v1354q0 83 86 83z" />
    <glyph glyph-name="uni0420" unicode="&#x420;" horiz-adv-x="1150" 
d="M306 1366v-611h332q101 0 190 89q88 88 88 218t-88.5 217t-231.5 87h-290zM306 88q0 -83 -74 -83t-74 85v1341q0 80 82 80h387q187 0 321 -151q112 -126 112 -274q0 -182 -78 -286q-145 -193 -344 -193h-332v-519z" />
    <glyph glyph-name="uni0421" unicode="&#x421;" horiz-adv-x="938" 
d="M474 1515h306q74 0 74 -75q0 -76 -80 -76h-301q-84 0 -163 -73q-60 -56 -60 -150v-764q0 -94 63 -162q66 -70 137 -70h336q72 0 72 -73q0 -69 -73 -69h-341q-138 0 -258 133q-82 91 -82 233v783q0 150 118 261q108 102 252 102z" />
    <glyph glyph-name="uni0422" unicode="&#x422;" horiz-adv-x="991" 
d="M45 1446q0 69 88 69h741q72 0 72 -72q0 -73 -70 -73h-307v-1291q0 -79 -73 -79t-73 77v1293h-292q-86 0 -86 76z" />
    <glyph glyph-name="uni0423" unicode="&#x423;" horiz-adv-x="851" 
d="M785 1375l-436 -1302q-23 -69 -89 -69h-129q-81 0 -81 71q0 74 84 74h85l123 372l-279 859q-13 37 -13 65q0 69 73 69q52 0 74 -69l224 -689l237 697q21 61 69 61q74 0 74 -69q0 -22 -16 -70z" />
    <glyph glyph-name="uni0424" unicode="&#x424;" horiz-adv-x="1379" 
d="M615 1437q0 83 78 83q80 0 80 -83v-139q216 0 366 -151q159 -160 159 -389t-204 -405q-137 -118 -320 -118v-148q0 -87 -78 -87q-81 0 -81 86v149q-217 0 -373 156q-160 160 -160 361q0 228 120 355q184 195 413 195v135zM615 1147q-132 0 -245 -88q-134 -104 -134 -293
q0 -171 128 -284q102 -90 251 -90v755zM774 1147v-755q164 0 263 108q110 120 110 277q0 164 -134 282q-100 88 -239 88z" />
    <glyph glyph-name="uni0425" unicode="&#x425;" horiz-adv-x="1084" 
d="M454 755l-425 637q-16 25 -16 49q0 66 74 66q37 0 67 -44l387 -574l393 584q26 38 66 38q72 0 72 -68q0 -27 -26 -66l-417 -622l424 -640q16 -23 16 -41q0 -74 -73 -74q-42 0 -70 43l-385 582l-390 -587q-26 -38 -60 -38q-81 0 -81 70q0 23 22 57z" />
    <glyph glyph-name="uni0426" unicode="&#x426;" horiz-adv-x="1314" 
d="M1244 -325q0 -85 -75 -85q-74 0 -74 87v323h-863q-72 0 -72 80v1338q0 88 76 88q73 0 73 -78v-1278h640v1278q0 78 81 78q69 0 69 -78v-1274h51q94 0 94 -93v-386z" />
    <glyph glyph-name="uni0427" unicode="&#x427;" horiz-adv-x="1027" 
d="M260 777q0 -170 175 -170h284v821q0 80 74 80q70 0 70 -84v-1335q0 -89 -74 -89q-70 0 -70 85v379h-308q-118 0 -215 92q-77 74 -77 204v671q0 77 65 77q76 0 76 -79v-652z" />
    <glyph glyph-name="uni0428" unicode="&#x428;" horiz-adv-x="1616" 
d="M1452 1436v-1350q0 -86 -62 -86h-1150q-76 0 -76 86v1340q0 94 81 94q77 0 77 -84v-1287h408v1277q0 94 81 94q76 0 76 -84v-1287h407v1287q0 84 84 84q74 0 74 -84z" />
    <glyph glyph-name="uni0429" unicode="&#x429;" horiz-adv-x="1668" 
d="M1444 1428v-1267h54q98 0 98 -97v-387q0 -89 -79 -89q-77 0 -77 91v321h-1201q-75 0 -75 84v1333q0 94 80 94q76 0 76 -83v-1270h406v1259q0 94 80 94q77 0 77 -83v-1270h404v1270q0 83 84 83q73 0 73 -83z" />
    <glyph glyph-name="uni042A" unicode="&#x42a;" horiz-adv-x="1474" 
d="M1177 651q-74 96 -218 96h-314v-607h310q136 0 218 93.5t82 207.5t-78 210zM551 1506q94 0 94 -93v-511h315q127 0 223 -65q93 -55 155 -155t62 -222q0 -218 -139 -339t-263 -121h-437q-70 0 -70 92v1265h-404q-87 0 -87 74q0 75 85 75h466z" />
    <glyph glyph-name="uni042B" unicode="&#x42b;" horiz-adv-x="1545" 
d="M829 230q88 86 88 215t-88 217q-89 88 -189 88h-330v-607h289q142 0 230 87zM237 1496q73 0 73 -83v-516h330q199 0 342 -192q78 -103 78 -284q0 -148 -112 -272q-133 -149 -319 -149h-384q-81 0 -81 78v1333q0 85 73 85zM1378 1405v-1313q0 -92 -75.5 -92t-75.5 89v1318
q0 93 75.5 93t75.5 -95z" />
    <glyph glyph-name="afii10046" unicode="&#x42c;" horiz-adv-x="1030" 
d="M585 148q172 0 172 170v429q0 77 -45.5 122.5t-118.5 45.5h-302v-767h294zM240 4q-90 0 -90 68v1369q0 74 69 74q74 0 74 -74v-383h330q127 0 220 -114q57 -70 57 -164v-502q0 -117 -86.5 -195.5t-214.5 -78.5h-359z" />
    <glyph glyph-name="uni042D" unicode="&#x42d;" horiz-adv-x="920" 
d="M171 1511h312q132 0 237 -109q106 -110 106 -248v-815q0 -128 -104.5 -233.5t-262.5 -105.5h-297q-84 0 -84 76q0 67 89 67h260q120 0 191 71q61 63 61 175v370h-364q-82 0 -82 75q0 66 84 66h362v278q0 66 -54 110q-97 79 -159 79h-295q-92 0 -92 75q0 69 92 69z" />
    <glyph glyph-name="uni042E" unicode="&#x42e;" horiz-adv-x="1575" 
d="M1336 1061q0 146 -99.5 226.5t-208 80.5t-206 -79t-97.5 -224v-641q0 -108 93.5 -191.5t210.5 -83.5t196 71q111 101 111 233v608zM1481 457q0 -195 -134 -326t-317.5 -131t-317.5 129t-134 300v251h-262v-586q0 -94 -76 -94t-76 91v1332q0 94 76 94t76 -96v-589h262v257
q0 167 131 296q132 130 317.5 130t320 -133t134.5 -314v-611z" />
    <glyph glyph-name="uni042F" unicode="&#x42f;" horiz-adv-x="1103" 
d="M790 756v617h-329q-110 0 -202 -95t-92 -203q0 -142 82 -219q105 -100 211 -100h330zM860 1517q79 0 79 -77v-1363q0 -81 -73 -81t-73 80v531h-343l-283 -553q-28 -58 -67 -58q-77 0 -77 77q0 21 17 51l264 520q-175 73 -228 197.5t-53 262.5t101 248q152 165 337 165
h399z" />
    <glyph glyph-name="afii10065" unicode="&#x430;" horiz-adv-x="986" 
d="M414 461q-83 0 -124.5 -49.5t-41.5 -109.5q0 -66 47.5 -108.5t104.5 -42.5h306v310h-292zM254 915q-75 0 -75 74q0 72 75 72h311q129 0 210 -96.5t81 -198.5v-672q0 -43 -23 -68.5t-63 -25.5h-380q-113 0 -201.5 92t-88.5 208q0 129 84.5 217.5t209.5 88.5h312v184
q0 38 -45 81.5t-100 43.5h-307z" />
    <glyph glyph-name="uni0431" unicode="&#x431;" horiz-adv-x="919" 
d="M695 657q0 126 -73 192t-152 66q-80 0 -158 -57t-78 -181v-315q0 -112 109 -181q63 -40 126 -40q65 0 129 44q97 66 97 207v265zM385 1379q-87 0 -123 -44q-29 -35 -29 -83v-274q99 80 219 80q167 0 275 -107t108 -231v-356q0 -166 -120 -272q-104 -92 -257 -92t-246 96
q-120 124 -120 273v860q0 128 68 205q80 86 221 86h308q75 0 75 -71q0 -70 -75 -70h-304z" />
    <glyph glyph-name="uni0432" unicode="&#x432;" horiz-adv-x="978" 
d="M286 455v-304h310q57 0 106 39q48 38 48 100t-42 113.5t-126 51.5h-296zM792 530q107 -88 107 -238q0 -117 -89.5 -204.5t-203.5 -87.5h-384q-41 0 -64 25t-23 69v870q0 42 23 68.5t64 26.5h380q124 0 210.5 -90t86.5 -211v-3q0 -149 -107 -225zM671 890q-25 16 -52 16
h-333v-302h310q58 0 106 43.5t48 105.5q0 87 -79 137z" />
    <glyph glyph-name="uni0433" unicode="&#x433;" horiz-adv-x="914" 
d="M280 77q0 -77 -72.5 -77t-72.5 77v896q0 89 71 89h575q94 0 94 -72.5t-91 -72.5h-504v-840z" />
    <glyph glyph-name="uni0434" unicode="&#x434;" horiz-adv-x="1111" 
d="M441 896q0 -552 -158 -736h475v761h-317v-25zM292 761v218q0 82 86 82h457q72 0 72 -85v-816h71q72 0 72 -85v-222q0 -93 -79 -93q-71 0 -71 83v157h-750v-157q0 -83 -81 -83q-69 0 -69 83v229q0 88 86 88h40q140 247 160 413q6 51 6 188z" />
    <glyph glyph-name="uni0435" unicode="&#x435;" horiz-adv-x="915" 
d="M230 604h459q0 310 -224 310q-106 0 -185 -88q-50 -56 -50 -222zM80 698q0 158 122.5 261t272.5 103t264 -125q93 -102 93 -213v-190q0 -72 -67 -72h-537v-132q0 -184 156 -184h363q88 0 88 -73t-87 -73h-368q-121 0 -210.5 94.5t-89.5 221.5v382z" />
    <glyph glyph-name="uni0436" unicode="&#x436;" horiz-adv-x="1160" 
d="M201 767q-22 83 -51 104q-36 27 -82 27q-19 0 -43 18q-25 19 -25 51q0 31 16 55q21 28 75 28q184 0 252 -240q53 -188 164 -188v354q0 32 21.5 55t52.5 23t51 -23q21 -23 21 -55v-354q107 0 167 188q78 240 268 240q31 0 53 -26q19 -22 19 -58q0 -31 -24 -50
q-23 -18 -42 -18q-53 0 -81.5 -28t-50.5 -103q-44 -150 -132 -224q66 -39 130 -105q136 -140 163 -345q4 -31 -14 -56q-22 -31 -56 -31q-32 0 -50 15q-23 19 -27 51q-21 157 -126 264q-116 118 -197 130v-385q0 -31 -20.5 -53t-51.5 -22t-52.5 22t-21.5 53v385
q-79 -12 -195 -130q-102 -104 -126 -264q-4 -27 -26 -49q-17 -17 -51 -17q-32 0 -53 29q-22 30 -17 58q30 208 169 351q58 60 124 99q-93 79 -131 224z" />
    <glyph glyph-name="afii10073" unicode="&#x437;" horiz-adv-x="832" 
d="M193 1295h199q130 0 244 -119q89 -93 89 -230q0 -132 -145 -251q152 -110 152 -272v-80q0 -129 -111 -240q-98 -98 -256 -98h-180q-85 0 -85 74q0 67 90 67h146q121 0 191 72q65 67 65 140v49q0 79 -60 142q-73 77 -156 77h-52q-83 0 -83 75q0 66 84 66h35q100 0 161 68
q54 60 54 121q0 71 -40 112q-80 81 -160 81h-182q-93 0 -93 75q0 71 93 71z" />
    <glyph glyph-name="uni0438" unicode="&#x438;" horiz-adv-x="1257" 
d="M210 1058q83 0 83 -88v-678l673 710q56 59 84 59q72 0 72 -91v-887q0 -80 -76 -80q-75 0 -75 83v691l-677 -724q-47 -50 -80 -50q-79 0 -79 97v868q0 90 75 90z" />
    <glyph glyph-name="uni0439" unicode="&#x439;" horiz-adv-x="1257" 
d="M210 1059q83 0 83 -88v-679l673 708q56 59 84 59q72 0 72 -91v-885q0 -80 -76 -80q-75 0 -75 83v699l-677 -732q-46 -50 -80 -50q-79 0 -79 97v869q0 90 75 90zM478 1443q0 -71 54 -111t105 -40h3q43 0 85 33q58 46 58 111q0 84 81 84q69 0 69 -86q0 -122 -86 -201
q-96 -88 -221 -88q-136 0 -220 102q-77 94 -77 200q0 73 83 73q66 0 66 -77z" />
    <glyph glyph-name="uni043A" unicode="&#x43a;" horiz-adv-x="959" 
d="M620 924q48 92 185 127q32 8 59 -6q28 -14 38 -42q9 -27 -7 -54q-15 -26 -46 -34q-72 -12 -100 -68l-65 -130q-51 -104 -125 -153q-49 -32 -110 -49l437 -394q23 -21 23 -50q0 -31 -22 -50q-24 -21 -55 -21q-32 0 -55 20l-487 440v-387q0 -29 -23 -51t-55 -22t-54.5 22
t-22.5 51v913q0 30 23 51q22 20 54 20q34 0 55 -20q23 -22 23 -51v-348q184 0 252 136z" />
    <glyph glyph-name="uni043B" unicode="&#x43b;" horiz-adv-x="1065" 
d="M930 978v-890q0 -88 -75.5 -88t-75.5 78v830h-349v-511q0 -207 -71 -302t-246 -95q-16 0 -34 5q-60 17 -60 79q0 70 97 70q163 0 163 178v644q0 83 86 83h493q72 0 72 -81z" />
    <glyph glyph-name="uni043C" unicode="&#x43c;" horiz-adv-x="1234" 
d="M959 1022q21 38 64 38q76 0 76 -80v-881q0 -99 -74 -99t-74 99v623l-262 -508q-32 -63 -76 -63q-43 0 -74 61l-256 508v-626q0 -94 -77 -94q-71 0 -71 92v889q0 79 76 79q44 0 62 -35l336 -651z" />
    <glyph glyph-name="uni043D" unicode="&#x43d;" horiz-adv-x="1080" 
d="M803 470h-521v-393q0 -77 -73.5 -77t-73.5 76v909q0 85 73.5 85t73.5 -85v-371h521v377q0 75 71 75t71 -74v-912q0 -80 -71 -80t-71 78v392z" />
    <glyph glyph-name="uni043E" unicode="&#x43e;" horiz-adv-x="893" 
d="M453 919q-80 0 -159 -58t-79 -182v-307q0 -113 110 -182q64 -40 128 -40t129 44q98 66 98 209v255q0 127 -73.5 194t-153.5 67zM435 1063q168 0 277 -108t109 -233v-348q0 -168 -113 -267t-267 -99t-248 96q-121 123 -121 275v327q0 161 139 274q102 83 224 83z" />
    <glyph glyph-name="uni043F" unicode="&#x43f;" horiz-adv-x="1082" 
d="M223 1060h652q72 0 72 -80v-887q0 -88 -77 -88q-73 0 -73 78v827h-510v-827q0 -78 -80 -78q-70 0 -70 78v894q0 83 86 83z" />
    <glyph glyph-name="uni0440" unicode="&#x440;" horiz-adv-x="976" 
d="M607 152q66 0 112 61q30 40 30 101v435q0 72 -42 117q-44 47 -111 47h-310v-761h321zM139 974q0 85 85 85h387q115 0 207 -99q80 -86 80 -206v-419q0 -142 -71 -224q-89 -103 -213 -103h-328v-327q0 -91 -78 -91q-69 0 -69 95v1289z" />
    <glyph glyph-name="uni0441" unicode="&#x441;" horiz-adv-x="697" 
d="M603 1062q76 0 76 -70q0 -75 -76 -75h-199q-178 0 -178 -168v-417q0 -181 168 -181h204q81 0 81 -77q0 -70 -77 -70h-233q-120 0 -204.5 85.5t-84.5 206.5v457q0 137 86 223t224 86h213z" />
    <glyph glyph-name="uni0442" unicode="&#x442;" horiz-adv-x="977" 
d="M37 991q0 69 88 69h741q72 0 72 -72q0 -73 -70 -73h-307v-836q0 -79 -73 -79t-73 77v838h-292q-86 0 -86 76z" />
    <glyph glyph-name="uni0443" unicode="&#x443;" horiz-adv-x="800" 
d="M768 917l-423 -1259q-23 -69 -89 -69h-129q-81 0 -81 71q0 74 84 74h85l110 327l-279 861q-13 40 -13 65q0 67 73 67q52 0 74 -67l224 -691l237 699q21 59 69 59q74 0 74 -67q0 -22 -16 -70z" />
    <glyph glyph-name="uni0444" unicode="&#x444;" horiz-adv-x="1233" 
d="M502 849q-58 67 -125 67t-109 -38t-51 -79q-12 -40 -12 -123v-314q0 -125 73 -182q51 -40 103 -40q51 0 99 40q47 40 67 101v487q-15 46 -45 81zM690 775v-494q22 -60 74 -101q52 -40 103 -40q53 0 96 37q42 38 57 85q14 47 14 131v262q0 152 -46 206q-47 55 -116 55
t-118 -46q-50 -47 -64 -95zM547 1396q0 30 21 50q21 21 50 21t51 -20q21 -21 21 -51v-404q75 67 162 67q135 0 222 -107q87 -108 87 -234v-354q0 -169 -90 -266q-91 -98 -202 -98t-179 61v-393q0 -31 -21 -52q-22 -20 -51 -20t-50 21t-21 51v392q-74 -60 -186 -60
q-113 0 -188 94q-97 122 -97 275v334q0 160 111 273q82 83 183 83t177 -65v402z" />
    <glyph glyph-name="uni0445" unicode="&#x445;" horiz-adv-x="779" 
d="M307 527l-277 413q-16 24 -16 45q0 72 78 72q34 0 58 -36l241 -362l242 362q23 33 62 33q67 0 67 -63q0 -36 -15 -60l-271 -403l264 -394q25 -39 25 -62q0 -72 -69 -72q-42 0 -65 35l-238 364l-240 -360q-26 -39 -63 -39q-76 0 -76 68q0 27 18 55z" />
    <glyph glyph-name="uni0446" unicode="&#x446;" horiz-adv-x="1106" 
d="M828 1059q70 0 70 -78v-832h52q95 0 95 -94v-380q0 -85 -76 -85q-74 0 -74 88v316h-687q-73 0 -73 80v897q0 88 78 88q73 0 73 -78v-837h462v837q0 78 80 78z" />
    <glyph glyph-name="uni0447" unicode="&#x447;" horiz-adv-x="962" 
d="M826 977v-883q0 -90 -73 -90q-69 0 -69 86v151h-302q-117 0 -212 95q-76 75 -76 209v440q0 79 64 79q75 0 75 -81v-420q0 -175 172 -175h279v594q0 82 74 82q68 0 68 -87z" />
    <glyph glyph-name="uni0448" unicode="&#x448;" horiz-adv-x="1211" 
d="M682 980v-831h228v831q0 78 81 78q72 0 72 -78v-901q0 -79 -60 -79h-789q-73 0 -73 79v891q0 88 78 88q75 0 75 -78v-831h235v821q0 88 78 88q75 0 75 -78z" />
    <glyph glyph-name="uni0449" unicode="&#x449;" horiz-adv-x="1293" 
d="M668 981v-836h221v836q0 77 80 77q70 0 70 -77v-832h97q93 0 93 -93v-382q0 -84 -75 -84q-73 0 -73 86v320h-869q-71 0 -71 80v895q0 87 76 87q73 0 73 -77v-836h229v826q0 87 76 87q73 0 73 -77z" />
    <glyph glyph-name="uni044A" unicode="&#x44a;" horiz-adv-x="1000" 
d="M633 529h-313v-385h305q169 0 169 168v51q0 77 -44.5 121.5t-116.5 44.5zM21 938.5q-21 21.5 -21 51t21 51t51 21.5h177q73 0 73 -73v-318h341q124 0 216 -113q57 -69 57 -162v-124q0 -117 -85.5 -194.5t-212.5 -77.5h-369q-89 0 -89 69v848h-108q-30 0 -51 21.5z" />
    <glyph glyph-name="uni044B" unicode="&#x44b;" horiz-adv-x="1333" 
d="M570 148q172 0 172 170v38q0 77 -45.5 122.5t-118.5 45.5h-302v-376h294zM220 4q-85 0 -85 86v901q0 74 69 74q74 0 74 -74v-324h330q127 0 220 -114q57 -70 57 -164v-111q0 -117 -86.5 -195.5t-214.5 -78.5h-364zM1121 0q-68 0 -68 84v898q0 80 68 80q67 0 67 -83v-894
q0 -85 -67 -85z" />
    <glyph glyph-name="afii10094" unicode="&#x44c;" horiz-adv-x="1030" 
d="M585 148q172 0 172 170v288q0 77 -45.5 122.5t-118.5 45.5h-302v-626h294zM150 96v1345q0 74 69 74q74 0 74 -74v-524h330q127 0 220 -114q57 -70 57 -164v-361q0 -117 -86.5 -195.5t-214.5 -78.5h-359q-90 0 -90 92z" />
    <glyph glyph-name="uni044D" unicode="&#x44d;" horiz-adv-x="881" 
d="M442 913h-298q-94 0 -94 76q0 71 94 71h316q137 0 246 -118q102 -110 102 -245v-355q0 -128 -114 -243q-99 -99 -258 -99h-301q-86 0 -86 75q0 68 91 68h263q125 0 193 72q62 66 62 177v138h-368q-84 0 -84 76q0 67 85 67h367v48q0 56 -54 112q-77 80 -162 80z" />
    <glyph glyph-name="uni044E" unicode="&#x44e;" horiz-adv-x="1270" 
d="M1198 717v-347q0 -169 -114 -269.5t-269.5 -100.5t-250.5 97q-122 125 -122 278v87h-158v-378q0 -84 -74.5 -84t-74.5 82v896q0 83 74.5 83t74.5 -82v-380h158v101q0 163 140 277q103 84 227 84q169 0 279 -109t110 -235zM827 916q-81 0 -161 -58.5t-80 -184.5v-305
q0 -114 111 -184q66 -40 130 -40t130 44q99 67 99 212v252q0 127 -74 195.5t-155 68.5z" />
    <glyph glyph-name="uni044F" unicode="&#x44f;" horiz-adv-x="921" 
d="M708 1059q32 0 54 -22.5t22 -54.5v-901q0 -33 -22 -54t-53.5 -21t-54.5 21q-22 20 -22 54v233h-183l-286 -286q-22 -22 -53.5 -22t-54.5 22q-22 22 -22 53.5t22 54.5l210 209q-60 27 -111 78q-109 109 -109 263t109 263.5t263 109.5h291zM417 906q-90 0 -155 -64.5
t-65 -155.5t64.5 -155.5t153.5 -64.5h217v440h-215z" />
    <glyph glyph-name="uni0450" unicode="&#x450;" horiz-adv-x="915" 
d="M382 1534l281 -211q36 -26 36 -63q0 -75 -68 -75q-26 0 -55 20l-285 215q-38 28 -38 60q0 79 76 79q21 0 53 -25zM230 604h459q0 310 -224 310q-106 0 -185 -88q-50 -56 -50 -222zM80 698q0 158 122.5 261t272.5 103t264 -125q93 -102 93 -213v-190q0 -72 -67 -72h-537
v-132q0 -184 156 -184h363q88 0 88 -73t-87 -73h-368q-121 0 -210.5 94.5t-89.5 221.5v382z" />
    <glyph glyph-name="uni0451" unicode="&#x451;" horiz-adv-x="915" 
d="M614 1276q0 108 70 108q82 0 82 -114q0 -102 -77 -102q-75 0 -75 108zM158 1275q0 107 71 107q82 0 82 -114q0 -100 -77 -100q-76 0 -76 107zM230 604h459q0 156 -50 224q-63 86 -174 86q-106 0 -185 -88q-50 -56 -50 -222zM80 698q0 158 131 268q114 96 251 96
q163 0 277 -125q93 -102 93 -213v-190q0 -72 -67 -72h-537v-132q0 -184 156 -184h363q88 0 88 -74q0 -72 -87 -72h-368q-121 0 -213 97q-87 92 -87 219v382z" />
    <glyph glyph-name="afii10099" unicode="&#x452;" horiz-adv-x="1077" 
d="M226 1426q0 89 75 89q71 0 71 -85v-376h390q72 0 72 -76q0 -67 -77 -67h-385v-232h310q119 0 217 -93q78 -74 78 -206v-343q0 -111 -80 -192q-92 -93 -201 -93h-87q-76 0 -76 74q0 71 71 71h87q51 0 100 52q43 45 43 99v315q0 172 -176 172h-286v-448q0 -81 -76 -81
q-70 0 -70 86v819h-152q-74 0 -74 75q0 68 77 68h149v372z" />
    <glyph glyph-name="afii10100" unicode="&#x453;" horiz-adv-x="914" 
d="M633 1529q32 25 53 25q76 0 76 -79q0 -32 -38 -60l-285 -215q-29 -20 -55 -20q-68 0 -68 75q0 37 36 63zM280 77q0 -77 -72.5 -77t-72.5 77v896q0 89 71 89h575q94 0 94 -72.5t-91 -72.5h-504v-840z" />
    <glyph glyph-name="uni0454" unicode="&#x454;" horiz-adv-x="829" 
d="M653 1062q76 0 76 -70q0 -75 -76 -75h-199q-178 0 -178 -168v-145h226q72 0 72 -77q0 -67 -78 -67h-220v-128q0 -181 168 -181h204q81 0 81 -77q0 -70 -77 -70h-233q-120 0 -207 88q-82 83 -82 204v457q0 137 80 217q92 92 230 92h213z" />
    <glyph glyph-name="afii10102" unicode="&#x455;" horiz-adv-x="954" 
d="M728 986q48 -26 48 -65q0 -78 -69 -78q-18 0 -57 15q-152 59 -263 59q-141 0 -141 -123q0 -71 75 -106l369 -173q164 -75 164 -242q0 -133 -119 -224q-59 -45 -150 -45q-185 0 -420 76q-65 21 -65 70q0 74 66 74q39 0 80 -16q150 -58 318 -58q59 0 90 20q53 34 53 104
q0 68 -93 112l-354 169q-160 76 -160 251q0 101 71 176q77 81 196 81q217 0 361 -77z" />
    <glyph glyph-name="afii10103" unicode="&#x456;" horiz-adv-x="447" 
d="M297 980v-892q0 -83 -72 -83q-75 0 -75 81v893q0 82 74 82q73 0 73 -81zM153 1445q0 70 69 70q74 0 74 -75v-65q0 -78 -76 -78q-67 0 -67 73v75z" />
    <glyph glyph-name="afii10104" unicode="&#x457;" horiz-adv-x="608" 
d="M378 986v-902q0 -84 -72 -84q-75 0 -75 82v898q0 77 74 77q73 0 73 -71zM456 1293q0 108 70 108q82 0 82 -114q0 -102 -77 -102q-75 0 -75 108zM0 1292q0 107 71 107q82 0 82 -114q0 -100 -77 -100q-76 0 -76 107z" />
    <glyph glyph-name="afii10105" unicode="&#x458;" horiz-adv-x="446" 
d="M151 979q0 75 72.5 75t72.5 -74v-1151q0 -109 -82 -192q-92 -93 -201 -93h-87q-76 0 -76 74q0 71 71 71h87q50 0 100 52q43 45 43 99v1139zM151 1434q0 81 79 81q66 0 66 -86v-62q0 -72 -72.5 -72t-72.5 67v72z" />
    <glyph glyph-name="afii10106" unicode="&#x459;" horiz-adv-x="1594" 
d="M930 474v-330h272q168 0 168 145v41q0 55 -39 97q-44 47 -121 47h-280zM854 0q-75 0 -75 78v830h-349v-511q0 -207 -71 -302t-246 -95q-16 0 -34 5q-60 17 -60 79q0 70 97 70q163 0 163 178v644q0 83 86 83h493q72 0 72 -81v-362h310q111 0 207 -100q65 -68 65 -181v-69
q0 -117 -85 -191.5t-213 -74.5h-360z" />
    <glyph glyph-name="afii10107" unicode="&#x45a;" horiz-adv-x="1561" 
d="M803 470h-521v-393q0 -77 -73.5 -77t-73.5 76v909q0 85 73.5 85t73.5 -85v-371h521v377q0 75 71 75t71 -74v-378h294q135 0 216 -113q56 -78 56 -162v-75q0 -117 -85 -190.5t-213 -73.5h-339q-71 0 -71 78v392zM947 470v-326h254q168 0 168 157v21q0 77 -44 112.5
t-116 35.5h-262z" />
    <glyph glyph-name="afii10108" unicode="&#x45b;" horiz-adv-x="1077" 
d="M226 1426q0 89 75 89q71 0 71 -85v-376h390q72 0 72 -76q0 -67 -77 -67h-385v-232h310q119 0 217 -93q78 -74 78 -206v-296q0 -78 -66 -78q-77 0 -77 80v277q0 172 -176 172h-286v-448q0 -81 -76 -81q-70 0 -70 86v819h-152q-74 0 -74 75q0 68 77 68h149v372z" />
    <glyph glyph-name="afii10109" unicode="&#x45c;" horiz-adv-x="959" 
d="M616 1529q32 25 53 25q76 0 76 -79q0 -32 -38 -60l-285 -215q-29 -20 -55 -20q-68 0 -68 75q0 37 36 63zM620 924q48 92 185 127q32 8 59 -6q28 -14 38 -42q9 -27 -7 -54q-15 -26 -46 -34q-72 -12 -100 -68l-65 -130q-51 -104 -125 -153q-49 -32 -110 -49l437 -394
q23 -21 23 -50q0 -31 -22 -50q-24 -21 -55 -21q-32 0 -55 20l-487 440v-387q0 -29 -23 -51t-55 -22t-54.5 22t-22.5 51v913q0 30 23 51q22 20 54 20q34 0 55 -20q23 -22 23 -51v-348q184 0 252 136z" />
    <glyph glyph-name="uni045D" unicode="&#x45d;" horiz-adv-x="1257" 
d="M532 1549l281 -211q36 -26 36 -63q0 -75 -68 -75q-26 0 -55 20l-285 215q-38 28 -38 60q0 79 76 79q21 0 53 -25zM210 1058q83 0 83 -88v-678l673 710q56 59 84 59q72 0 72 -91v-887q0 -80 -76 -80q-75 0 -75 83v691l-677 -724q-47 -50 -80 -50q-79 0 -79 97v868
q0 90 75 90z" />
    <glyph glyph-name="afii10110" unicode="&#x45e;" horiz-adv-x="800" 
d="M255 1483q0 -71 54 -111q50 -37 96 -37q59 0 97 30q58 46 58 111q0 82 81 82q69 0 69 -84q0 -122 -86 -201q-96 -88 -221 -88q-136 0 -220 102q-77 94 -77 200q0 71 83 71q66 0 66 -75zM768 917l-423 -1259q-23 -69 -89 -69h-129q-81 0 -81 71q0 74 84 74h85l110 327
l-279 861q-13 40 -13 65q0 67 73 67q52 0 74 -67l224 -691l237 699q21 59 69 59q74 0 74 -67q0 -22 -16 -70z" />
    <glyph glyph-name="afii10193" unicode="&#x45f;" horiz-adv-x="1106" 
d="M898 83q0 -37 -27 -63t-65 -26h-202v-316q0 -89 -78 -89t-78 91v314h-240q-73 0 -73 80v897q0 88 78 88q73 0 73 -78v-837h462v837q0 78 80 78q70 0 70 -78v-898z" />
    <glyph glyph-name="afii10050" unicode="&#x490;" horiz-adv-x="1043" 
d="M309 77q0 -77 -72.5 -77t-72.5 77v1344q0 90 71 90h615v229q0 72 78 72q66 0 66 -77v-297q0 -73 -90 -73h-595v-1288z" />
    <glyph glyph-name="afii10098" unicode="&#x491;" horiz-adv-x="914" 
d="M280 77q0 -77 -72.5 -77t-72.5 77v896q0 89 71 89h525v230q0 72 77 72q67 0 67 -77v-296q0 -74 -75 -74h-520v-840z" />
    <glyph glyph-name="uni0492" unicode="&#x492;" horiz-adv-x="1219" 
d="M484 77q0 -77 -72.5 -77t-72.5 77v450h-215q-74 0 -74 75q0 69 77 69h212v750q0 90 71 90h665q94 0 94 -73t-91 -73h-594v-694h246q72 0 72 -77q0 -67 -77 -67h-241v-450z" />
    <glyph glyph-name="uni0493" unicode="&#x493;" horiz-adv-x="1134" 
d="M489 77q0 -77 -72.5 -77t-72.5 77v384h-220q-74 0 -74 75q0 69 77 69h217v368q0 89 71 89h575q94 0 94 -72.5t-91 -72.5h-504v-312h241q72 0 72 -77q0 -67 -77 -67h-236v-384z" />
    <glyph glyph-name="uni049A" unicode="&#x49a;" horiz-adv-x="1279" 
d="M233 1511q77 0 77 -95v-519q153 0 235 64q78 60 154 234q81 184 132 230q91 86 166 86q17 0 34 -8q26 -12 35 -43q9 -27 -7 -55q-14 -25 -51 -36q-96 -30 -170 -213q-87 -215 -202 -308q-87 -70 -198 -90l582 -609h119q90 0 90 -89v-382q0 -84 -75 -84q-73 0 -73 86v320
h-90q-30 0 -65 38l-618 641v-603q0 -76 -75 -76q-69 0 -69 66v1353q0 92 69 92z" />
    <glyph glyph-name="uni049B" unicode="&#x49b;" horiz-adv-x="1120" 
d="M620 924q48 92 185 127q32 8 59 -6q28 -14 38 -42q9 -27 -7 -54q-15 -26 -46 -34q-72 -12 -100 -68l-65 -130q-51 -104 -125 -153q-49 -32 -110 -49l401 -362h127q93 0 93 -93v-382q0 -84 -75 -84q-73 0 -73 86v320h-90q-32 0 -55 20l-487 440v-387q0 -29 -23 -51
t-55 -22t-54.5 22t-22.5 51v913q0 30 23 51q22 20 54 20q34 0 55 -20q23 -22 23 -51v-348q184 0 252 136z" />
    <glyph glyph-name="uni04A2" unicode="&#x4a2;" horiz-adv-x="1381" 
d="M932 760h-621v-683q0 -77 -73.5 -77t-73.5 76v1349q0 86 73.5 86t73.5 -86v-521h621v527q0 75 71 75t71 -74v-1283h117q90 0 90 -89v-382q0 -84 -75 -84q-73 0 -73 86v320h-130q-71 0 -71 78v682z" />
    <glyph glyph-name="uni04A3" unicode="&#x4a3;" horiz-adv-x="1238" 
d="M803 470h-521v-393q0 -77 -73.5 -77t-73.5 76v909q0 85 73.5 85t73.5 -85v-371h521v377q0 75 71 75t71 -74v-843h103q90 0 90 -89v-382q0 -84 -75 -84q-73 0 -73 86v320h-116q-71 0 -71 78v392z" />
    <glyph glyph-name="uni04AE" unicode="&#x4ae;" 
d="M702 85q0 -85 -70 -85q-73 0 -73 87v674l-443 631q-16 23 -16 46q0 73 79 73q35 0 64 -45l386 -560l390 569q26 36 63 36q76 0 76 -69q0 -27 -19 -54l-437 -631v-672z" />
    <glyph glyph-name="uni04AF" unicode="&#x4af;" horiz-adv-x="951" 
d="M546 64v-438q0 -85 -70 -85q-73 0 -73 87v429l-290 863q-13 39 -13 65q0 69 73 69q52 0 74 -69l224 -689l237 697q21 61 69 61q74 0 74 -69q0 -23 -16 -70z" />
    <glyph glyph-name="uni04B0" unicode="&#x4b0;" 
d="M702 85q0 -85 -70 -85q-73 0 -73 87v373h-227q-74 0 -74 75q0 69 77 69h224v157l-443 631q-16 23 -16 46q0 73 79 73q35 0 64 -45l386 -560l390 569q26 36 63 36q76 0 76 -69q0 -27 -19 -54l-437 -631v-153h236q72 0 72 -77q0 -67 -77 -67h-231v-375z" />
    <glyph glyph-name="uni04B1" unicode="&#x4b1;" horiz-adv-x="951" 
d="M546 -246v-128q0 -85 -70 -85q-73 0 -73 87v126h-231q-74 0 -74 75q0 69 76 69h229v159l-290 863q-13 39 -13 65q0 69 73 69q52 0 74 -69l224 -689l237 697q21 61 69 61q74 0 74 -69q0 -23 -16 -70l-289 -851v-166h232q72 0 72 -77q0 -67 -78 -67h-226z" />
    <glyph glyph-name="uni04BA" unicode="&#x4ba;" horiz-adv-x="1031" 
d="M150 1422q0 89 75 89q69 0 69 -85v-629h441q119 0 217 -93q78 -74 78 -200v-426q0 -78 -66 -78q-77 0 -77 80v407q0 173 -176 173h-417v-579q0 -81 -74 -81q-70 0 -70 86v1336z" />
    <glyph glyph-name="uni04BB" unicode="&#x4bb;" horiz-adv-x="951" 
d="M753 731q0 170 -175 170h-284v-821q0 -80 -74 -80q-70 0 -70 84v1335q0 89 74 89q70 0 70 -85v-379h308q118 0 215 -92q77 -74 77 -204v-671q0 -77 -65 -77q-76 0 -76 79v652z" />
    <glyph glyph-name="uni04C1" unicode="&#x4c1;" horiz-adv-x="1624" 
d="M656 1937q0 -71 54 -111q50 -37 96 -37q59 0 97 30q58 46 58 111q0 82 81 82q69 0 69 -84q0 -122 -86 -201q-96 -88 -221 -88q-136 0 -220 102q-77 94 -77 200q0 71 83 71q66 0 66 -75zM6 1440q0 65 96 65q108 0 187 -41q109 -57 174 -256q63 -193 149 -270
q85 -76 119 -76v564q0 91 77 91h2q80 0 80 -93v-562h2q32 0 116 74q87 77 150 269q64 196 175 259q72 41 187 41q96 0 96 -78q0 -80 -98 -80q-163 0 -242 -245q-82 -253 -244 -315q139 -65 257 -182q216 -215 253 -514q4 -32 -16 -57q-27 -34 -57 -34t-52 15q-26 18 -31 57
q-28 240 -219 432q-189 190 -277 201v-608q0 -97 -79 -97h-2q-74 0 -74 105v600q-91 0 -281 -194.5t-220 -432.5q-4 -32 -30 -53q-27 -22 -51 -22q-32 0 -59 37q-19 26 -15 57q40 299 257 512q114 112 253 178q-164 64 -244 315q-78 245 -235 245q-104 0 -104 93z" />
    <glyph glyph-name="uni04C2" unicode="&#x4c2;" horiz-adv-x="1160" 
d="M428 1483q0 -71 54 -111q50 -37 96 -37q59 0 97 30q58 46 58 111q0 82 81 82q69 0 69 -84q0 -122 -86 -201q-96 -88 -221 -88q-136 0 -220 102q-77 94 -77 200q0 71 83 71q66 0 66 -75zM201 767q-22 83 -51 104q-36 27 -82 27q-19 0 -43 18q-25 19 -25 51q0 31 16 55
q21 28 75 28q184 0 252 -240q53 -188 164 -188v354q0 32 21.5 55t52.5 23t51 -23q21 -23 21 -55v-354q107 0 167 188q78 240 268 240q31 0 53 -26q19 -22 19 -58q0 -31 -24 -50q-23 -18 -42 -18q-53 0 -81.5 -28t-50.5 -103q-44 -150 -132 -224q66 -39 130 -105
q136 -140 163 -345q4 -31 -14 -56q-22 -31 -56 -31q-32 0 -50 15q-23 19 -27 51q-21 157 -126 264q-116 118 -197 130v-385q0 -31 -20.5 -53t-51.5 -22t-52.5 22t-21.5 53v385q-79 -12 -195 -130q-102 -104 -126 -264q-4 -27 -26 -49q-17 -17 -51 -17q-32 0 -53 29
q-22 30 -17 58q30 208 169 351q58 60 124 99q-93 79 -131 224z" />
    <glyph glyph-name="uni04D8" unicode="&#x4d8;" horiz-adv-x="1187" 
d="M907 715h-614v-292q0 -106 103 -198q86 -77 195 -77q126 0 205 71q111 100 111 233v263zM396 1290q-64 -47 -92 -47q-33 0 -43 14q-20 29 -20 39q0 50 39 88q136 131 322 131q177 0 312 -130q138 -133 138 -318v-611q0 -196 -137 -329q-131 -127 -320 -127
q-180 0 -311 127q-134 130 -134 301v336q0 99 80 99h677v197q0 147 -105 231q-95 76 -212 76q-89 0 -194 -77z" />
    <glyph glyph-name="afii10846" unicode="&#x4d9;" horiz-adv-x="1009" 
d="M737 458h-461q0 -156 50 -224q63 -86 174 -86q103 0 185 88q52 56 52 222zM885 364q0 -158 -131 -268q-114 -96 -251 -96q-163 0 -277 125q-93 102 -93 213v190q0 74 67 74h537v125q0 190 -156 190h-363q-88 0 -88 68.5t87 68.5h368q123 0 213 -94q87 -91 87 -219v-377z
" />
    <glyph glyph-name="uni04E8" unicode="&#x4e8;" horiz-adv-x="1203" 
d="M297 423q0 -108 100 -198q87 -77 195 -77q126 0 205 71q111 100 111 233v232h-611v-261zM150 1088q0 166 131 296q132 131 322 131q181 0 312 -130q138 -137 138 -318v-611q0 -196 -137 -329q-131 -127 -320 -127q-178 0 -311 127q-135 130 -135 301v660zM297 828h611
v232q0 146 -105 231q-94 76 -212 76q-99 0 -194 -77q-100 -81 -100 -226v-236z" />
    <glyph glyph-name="uni04E9" unicode="&#x4e9;" horiz-adv-x="893" 
d="M435 1063q168 0 277 -108t109 -233v-348q0 -168 -113 -267t-267 -99t-248 96q-121 123 -121 275v327q0 161 139 274q102 83 224 83zM453 919q-80 0 -159 -58t-79 -182v-74h465v53q0 127 -73.5 194t-153.5 67zM215 461v-89q0 -113 110 -182q64 -40 128 -40t129 44
q98 66 98 209v58h-465z" />
    <glyph glyph-name="uni1E02" unicode="&#x1e02;" horiz-adv-x="1192" 
d="M415 1739q0 107 70 107q82 0 82 -114q0 -100 -77 -100q-75 0 -75 107zM1062 460q0 -220 -139.5 -340t-263.5 -120h-439q-70 0 -70 91v1325q0 94 93 94h312q190 0 277 -76q152 -133 152 -302q0 -184 -140 -294q93 -54 155.5 -155t62.5 -223zM304 748v-609h312
q136 0 218 94t82 208t-77 211q-76 96 -220 96h-315zM304 1361v-457h305q115 0 172.5 62.5t57.5 155.5q0 94 -61 166.5t-173 72.5h-301z" />
    <glyph glyph-name="uni1E03" unicode="&#x1e03;" horiz-adv-x="1030" 
d="M454 1323q0 107 70 107q82 0 82 -114q0 -100 -77 -100q-75 0 -75 107zM585 148q172 0 172 170v429q0 77 -45.5 122.5t-118.5 45.5h-302v-767h294zM240 4q-90 0 -90 68v1369q0 74 69 74q74 0 74 -74v-383h330q127 0 220 -114q57 -70 57 -164v-502q0 -117 -86.5 -195.5
t-214.5 -78.5h-359z" />
    <glyph glyph-name="uni1E0A" unicode="&#x1e0a;" horiz-adv-x="1205" 
d="M491 1744q0 107 70 107q82 0 82 -114q0 -100 -77 -100q-75 0 -75 107zM297 144h347q134 0 200.5 69.5t66.5 170.5v751q0 89 -65 160t-172 71h-377v-1222zM150 1428q0 82 83 82h469q138 0 245.5 -108t107.5 -245v-807q0 -137 -108 -243.5t-231 -106.5h-499q-67 0 -67 89
v1339z" />
    <glyph glyph-name="uni1E0B" unicode="&#x1e0b;" horiz-adv-x="1031" 
d="M445 1314q0 107 70 107q82 0 82 -114q0 -100 -77 -100q-75 0 -75 107zM445 916q-173 0 -173 -192v-394q0 -179 184 -179h279v765h-290zM735 1438q0 77 73 77t73 -82v-1339q0 -94 -95 -94h-347q-130 0 -211 81q-98 98 -98 216v477q0 97 69 181q87 106 245 106h291v377z
" />
    <glyph glyph-name="uni1E1E" unicode="&#x1e1e;" horiz-adv-x="1003" 
d="M450 1744q0 107 70 107q82 0 82 -114q0 -100 -77 -100q-75 0 -75 107zM298 763v-677q0 -82 -75 -82q-73 0 -73 83v1358q0 70 78 70h596q79 0 79 -72t-78 -72h-526v-462h526q78 0 78 -73t-79 -73h-526z" />
    <glyph glyph-name="uni1E1F" unicode="&#x1e1f;" horiz-adv-x="899" 
d="M459 1747q0 107 70 107q82 0 82 -114q0 -100 -77 -100q-75 0 -75 107zM672 1518q76 0 76 -73q0 -75 -82 -75h-44q-68 0 -119 -41q-57 -46 -57 -122v-145h219q84 0 84 -74q0 -70 -85 -70h-219v-838q0 -76 -77 -76q-68 0 -68 83v831h-81q-69 0 -69 73q0 71 73 71h77v152
q0 125 83 205q103 99 216 99h73z" />
    <glyph glyph-name="uni1E20" unicode="&#x1e20;" horiz-adv-x="1187" 
d="M226 1781h752q78 0 78 -70q0 -74 -77 -74h-755q-74 0 -74 76q0 68 76 68zM911 149v614h-157q-71 0 -71 71q0 72 68 72h239q64 0 64 -95v-719q0 -87 -83 -87h-486q-109 0 -222 98.5t-113 312.5v745q0 141 114.5 247.5t262.5 106.5h442q88 0 88 -72t-87 -72h-427
q-110 0 -180 -72t-70 -175v-724q0 -111 65 -181t145 -70h408z" />
    <glyph glyph-name="uni1E21" unicode="&#x1e21;" horiz-adv-x="1029" 
d="M193.624 1320h629.543q65.2979 0 65.2979 -70q0 -74 -64.4609 -74h-632.055q-61.9492 0 -61.9492 76q0 68 63.624 68zM445 911q-70 0 -121 -44q-52 -45 -52 -124v-417q0 -90 44 -137q41 -44 122 -44h296v766h-289zM433 1057h371q75 0 75 -82v-1156q0 -114 -85 -195
q-84 -80 -200 -80h-313q-78 0 -78 71q0 74 82 74h252q194 0 194 142v169h-324q-122 0 -200 91q-77 90 -77 215v458q0 123 84 205q90 88 219 88z" />
    <glyph glyph-name="uni1E22" unicode="&#x1e22;" horiz-adv-x="1210" 
d="M522 1870q0 107 70 107q82 0 82 -114q0 -100 -77 -100q-75 0 -75 107zM918 760h-621v-683q0 -77 -73.5 -77t-73.5 76v1349q0 85 73.5 85t73.5 -85v-521h621v527q0 75 71 75t71 -74v-1352q0 -80 -71 -80t-71 78v682z" />
    <glyph glyph-name="uni1E23" unicode="&#x1e23;" horiz-adv-x="1031" 
d="M147 1880q0 107 70 107q82 0 82 -114q0 -100 -77 -100q-75 0 -75 107zM150 1426q0 89 75 89q71 0 71 -85v-370h310q119 0 217 -93q78 -74 78 -206v-677q0 -78 -66 -78q-77 0 -77 80v658q0 172 -176 172h-286v-829q0 -81 -76 -81q-70 0 -70 86v1334z" />
    <glyph glyph-name="uni1E40" unicode="&#x1e40;" horiz-adv-x="1364" 
d="M606 1744q0 107 70 107q82 0 82 -114q0 -100 -77 -100q-75 0 -75 107zM1074 1472q24 38 64 38q76 0 76 -80v-1331q0 -99 -74 -99t-74 99v1073l-312 -508q-38 -63 -76 -63t-74 61l-306 508v-1076q0 -94 -77 -94q-71 0 -71 92v1339q0 79 76 79q39 0 62 -35l386 -651z" />
    <glyph glyph-name="uni1E41" unicode="&#x1e41;" horiz-adv-x="1315" 
d="M575 1304q0 107 70 107q82 0 82 -114q0 -100 -77 -100q-75 0 -75 107zM130 991q0 35 26 59q16 15 57 15h656q130 0 215 -78q101 -92 101 -211v-684q0 -88 -70 -88q-77 0 -77 91v666q0 69 -42 109q-49 47 -122 47h-142v-823q0 -87 -71 -87q-80 0 -80 80v830h-307v-835
q0 -76 -72 -76t-72 71v914z" />
    <glyph glyph-name="uni1E44" unicode="&#x1e44;" horiz-adv-x="1202" 
d="M527 1744q0 107 70 107q82 0 82 -114q0 -100 -77 -100q-75 0 -75 107zM914 357v1082q0 76 69 76t69 -73v-1353q0 -83 -66 -83q-46 0 -76 54l-616 1099v-1070q0 -80 -76 -80q-68 0 -68 82v1335q0 89 72 89q47 0 73 -46z" />
    <glyph glyph-name="uni1E45" unicode="&#x1e45;" horiz-adv-x="1011" 
d="M399 1292q0 107 70 107q82 0 82 -114q0 -100 -77 -100q-75 0 -75 107zM130 988q0 75 73 75h385q121 0 219 -97q74 -73 74 -192v-671q0 -96 -70 -96q-76 0 -76 98v657q0 73 -39 108q-47 44 -103 44h-322v-822q0 -84 -70 -84q-71 0 -71 83v897z" />
    <glyph glyph-name="uni1E56" unicode="&#x1e56;" horiz-adv-x="1152" 
d="M404 1880q0 107 70 107q82 0 82 -114q0 -100 -77 -100q-75 0 -75 107zM298 1366v-611h332q101 0 190 89q88 88 88 218t-88.5 217t-231.5 87h-290zM298 88q0 -83 -74 -83t-74 85v1341q0 79 82 79h387q187 0 321 -150q112 -125 112 -274q0 -182 -78 -286
q-145 -193 -344 -193h-332v-519z" />
    <glyph glyph-name="uni1E57" unicode="&#x1e57;" horiz-adv-x="1039" 
d="M406 1428q0 107 70 107q82 0 82 -114q0 -100 -77 -100q-75 0 -75 107zM618 144q66 0 112 61q30 40 30 101v438q0 72 -42 117q-44 47 -111 47h-310v-764h321zM150 969q0 85 85 85h387q115 0 207 -99q80 -86 80 -206v-422q0 -142 -71 -224q-89 -103 -213 -103h-328v-365
q0 -91 -78 -91q-69 0 -69 95v1330z" />
    <glyph glyph-name="uni1E58" unicode="&#x1e58;" horiz-adv-x="1155" 
d="M422 1880q0 107 70 107q82 0 82 -114q0 -100 -77 -100q-75 0 -75 107zM297 751h327q104 0 208 99q81 77 81 217q0 106 -88 197q-93 97 -202 97h-326v-610zM228 1504h395q183 0 333 -164q99 -108 99 -247q0 -134 -50 -252q-55 -129 -227 -201l261 -513q15 -31 15 -51
q0 -76 -74 -76q-39 0 -67 57l-280 547h-339v-525q0 -79 -73 -79q-71 0 -71 80v1347q0 77 78 77z" />
    <glyph glyph-name="uni1E59" unicode="&#x1e59;" horiz-adv-x="834" 
d="M356 1428q0 107 70 107q82 0 82 -114q0 -100 -77 -100q-75 0 -75 107zM130 979q0 82 85 82h435q84 0 84 -69v-147q0 -83 -66 -83q-80 0 -80 78v74h-310v-832q0 -79 -77 -79q-71 0 -71 82v894z" />
    <glyph glyph-name="uni1E5A" unicode="&#x1e5a;" horiz-adv-x="1155" 
d="M524 -93q0 107 70 107q82 0 82 -114q0 -100 -77 -100q-75 0 -75 107zM297 751h327q104 0 208 99q81 77 81 217q0 106 -88 197q-93 97 -202 97h-326v-610zM228 1504h395q183 0 333 -164q99 -108 99 -247q0 -134 -50 -252q-55 -129 -227 -201l261 -513q15 -31 15 -51
q0 -76 -74 -76q-39 0 -67 57l-280 547h-339v-525q0 -79 -73 -79q-71 0 -71 80v1347q0 77 78 77z" />
    <glyph glyph-name="uni1E5B" unicode="&#x1e5b;" horiz-adv-x="834" 
d="M131 -171q0 107 70 107q82 0 82 -114q0 -100 -77 -100q-75 0 -75 107zM130 979q0 82 85 82h435q84 0 84 -69v-147q0 -83 -66 -83q-80 0 -80 78v74h-310v-832q0 -79 -77 -79q-71 0 -71 82v894z" />
    <glyph glyph-name="uni1E60" unicode="&#x1e60;" horiz-adv-x="1105" 
d="M433 1739q0 107 70 107q82 0 82 -114q0 -100 -77 -100q-75 0 -75 107zM100 1131q0 156 108 267.5t261 111.5q212 0 385 -65q72 -27 72 -83q0 -69 -69 -69q-29 0 -91 24q-129 50 -275 50q-132 0 -201 -94q-42 -57 -42 -150q0 -127 155 -206l365 -185q237 -122 237 -354
q0 -174 -124 -281q-112 -97 -269 -97q-238 0 -456 143q-56 37 -56 82q0 69 74 69q27 0 72 -32q158 -113 379 -113q65 0 117 27q115 60 115 207q0 139 -151 215l-393 199q-213 108 -213 334z" />
    <glyph glyph-name="uni1E61" unicode="&#x1e61;" horiz-adv-x="954" 
d="M361 1297q0 107 70 107q82 0 82 -114q0 -100 -77 -100q-75 0 -75 107zM728 986q48 -26 48 -65q0 -78 -69 -78q-18 0 -57 15q-152 59 -263 59q-141 0 -141 -123q0 -71 75 -106l369 -173q164 -75 164 -242q0 -133 -119 -224q-59 -45 -150 -45q-185 0 -420 76q-65 21 -65 70
q0 74 66 74q39 0 80 -16q150 -58 318 -58q59 0 90 20q53 34 53 104q0 68 -93 112l-354 169q-160 76 -160 251q0 101 71 176q77 81 196 81q217 0 361 -77z" />
    <glyph glyph-name="uni1E6A" unicode="&#x1e6a;" horiz-adv-x="1101" 
d="M482 1880q0 107 70 107q82 0 82 -114q0 -100 -77 -100q-75 0 -75 107zM100 1446q0 69 88 69h741q72 0 72 -72q0 -73 -70 -73h-307v-1291q0 -79 -73 -79t-73 77v1293h-292q-86 0 -86 76z" />
    <glyph glyph-name="uni1E6B" unicode="&#x1e6b;" horiz-adv-x="711" 
d="M206 1876q0 107 70 107q82 0 82 -114q0 -100 -77 -100q-75 0 -75 107zM210 1435q0 76 75 76q69 0 69 -80v-377h229q78 0 78 -78q0 -64 -80 -64h-227v-835q0 -77 -72 -77t-72 84v828h-76q-74 0 -74 70q0 72 73 72h77v381z" />
    <glyph glyph-name="uni1EA0" unicode="&#x1ea0;" 
d="M554 -209q0 107 70 107q82 0 82 -114q0 -100 -77 -100q-75 0 -75 107zM564 1455q18 55 70 55q50 0 68 -55l447 -1344q9 -27 9 -44q0 -59 -72 -67q-53 0 -75 66l-102 316h-554l-109 -324q-21 -61 -68 -61q-78 0 -78 73q0 10 22 75zM630 1206l-230 -683h461z" />
    <glyph glyph-name="uni1EA1" unicode="&#x1ea1;" horiz-adv-x="986" 
d="M426 -213q0 107 70 107q82 0 82 -114q0 -100 -77 -100q-75 0 -75 107zM414 461q-83 0 -124.5 -49.5t-41.5 -109.5q0 -66 47.5 -108.5t104.5 -42.5h306v310h-292zM254 915q-75 0 -75 74q0 72 75 72h311q129 0 210 -96.5t81 -198.5v-672q0 -43 -23 -68.5t-63 -25.5h-380
q-113 0 -201.5 92t-88.5 208q0 129 84.5 217.5t209.5 88.5h312v184q0 38 -45 81.5t-100 43.5h-307z" />
    <glyph glyph-name="uni1EA2" unicode="&#x1ea2;" 
d="M413 2016q0 63 88 145q42 40 132 40q75 0 142 -62q55 -51 55 -131q0 -60 -44 -133l-84 -133v-30q0 -75 -68 -75q-66 0 -66 70v52q0 21 21 49l82 139q24 39 24 61q0 59 -68 59q-64 0 -78 -59t-71 -59q-65 0 -65 67zM564 1455q18 55 70 55q50 0 68 -55l447 -1344
q9 -27 9 -44q0 -59 -72 -67q-53 0 -75 66l-102 316h-554l-109 -324q-21 -61 -68 -61q-78 0 -78 73q0 10 22 75zM630 1206l-230 -683h461z" />
    <glyph glyph-name="uni1EA3" unicode="&#x1ea3;" horiz-adv-x="986" 
d="M285 1567q0 63 88 145q42 40 132 40q75 0 142 -62q55 -51 55 -131q0 -60 -44 -133l-84 -133v-30q0 -75 -68 -75q-66 0 -66 70v52q0 21 21 49l82 139q24 39 24 61q0 59 -68 59q-64 0 -78 -59t-71 -59q-65 0 -65 67zM414 461q-83 0 -124.5 -49.5t-41.5 -109.5
q0 -66 47.5 -108.5t104.5 -42.5h306v310h-292zM254 915q-75 0 -75 74q0 72 75 72h311q129 0 210 -96.5t81 -198.5v-672q0 -43 -23 -68.5t-63 -25.5h-380q-113 0 -201.5 92t-88.5 208q0 129 84.5 217.5t209.5 88.5h312v184q0 38 -45 81.5t-100 43.5h-307z" />
    <glyph glyph-name="uni1EA4" unicode="&#x1ea4;" 
d="M886 2480q32 25 53 25q76 0 76 -79q0 -32 -38 -60l-285 -215q-29 -20 -55 -20q-68 0 -68 75q0 37 36 63zM792 1673l-155 158l-158 -153q-42 -41 -71 -41q-73 0 -73 65q0 31 34 66l198 204q36 37 70 37q28 0 65 -37l195 -196q36 -36 36 -72q0 -67 -76 -67q-31 0 -65 36z
M564 1455q18 55 70 55q50 0 68 -55l447 -1344q9 -27 9 -44q0 -59 -72 -67q-53 0 -75 66l-102 316h-554l-109 -324q-21 -61 -68 -61q-78 0 -78 73q0 10 22 75zM630 1206l-230 -683h461z" />
    <glyph glyph-name="uni1EA5" unicode="&#x1ea5;" horiz-adv-x="986" 
d="M775 2011q32 25 53 25q76 0 76 -79q0 -32 -38 -60l-285 -215q-29 -20 -55 -20q-68 0 -68 75q0 37 36 63zM681 1204l-155 158l-158 -153q-42 -41 -71 -41q-73 0 -73 65q0 31 34 66l198 204q36 37 70 37q28 0 65 -37l195 -196q36 -36 36 -72q0 -67 -76 -67q-31 0 -65 36z
M414 461q-83 0 -124.5 -49.5t-41.5 -109.5q0 -66 47.5 -108.5t104.5 -42.5h306v310h-292zM254 915q-75 0 -75 74q0 72 75 72h311q129 0 210 -96.5t81 -198.5v-672q0 -43 -23 -68.5t-63 -25.5h-380q-113 0 -201.5 92t-88.5 208q0 129 84.5 217.5t209.5 88.5h312v184
q0 38 -45 81.5t-100 43.5h-307z" />
    <glyph glyph-name="uni1EA6" unicode="&#x1ea6;" 
d="M388 2480l281 -211q36 -26 36 -63q0 -75 -68 -75q-26 0 -55 20l-285 215q-38 28 -38 60q0 79 76 79q21 0 53 -25zM792 1673l-155 158l-158 -153q-42 -41 -71 -41q-73 0 -73 65q0 31 34 66l198 204q36 37 70 37q28 0 65 -37l195 -196q36 -36 36 -72q0 -67 -76 -67
q-31 0 -65 36zM564 1455q18 55 70 55q50 0 68 -55l447 -1344q9 -27 9 -44q0 -59 -72 -67q-53 0 -75 66l-102 316h-554l-109 -324q-21 -61 -68 -61q-78 0 -78 73q0 10 22 75zM630 1206l-230 -683h461z" />
    <glyph glyph-name="uni1EA7" unicode="&#x1ea7;" horiz-adv-x="986" 
d="M277 2011l281 -211q36 -26 36 -63q0 -75 -68 -75q-26 0 -55 20l-285 215q-38 28 -38 60q0 79 76 79q21 0 53 -25zM681 1204l-155 158l-158 -153q-42 -41 -71 -41q-73 0 -73 65q0 31 34 66l198 204q36 37 70 37q28 0 65 -37l195 -196q36 -36 36 -72q0 -67 -76 -67
q-31 0 -65 36zM414 461q-83 0 -124.5 -49.5t-41.5 -109.5q0 -66 47.5 -108.5t104.5 -42.5h306v310h-292zM254 915q-75 0 -75 74q0 72 75 72h311q129 0 210 -96.5t81 -198.5v-672q0 -43 -23 -68.5t-63 -25.5h-380q-113 0 -201.5 92t-88.5 208q0 129 84.5 217.5t209.5 88.5
h312v184q0 38 -45 81.5t-100 43.5h-307z" />
    <glyph glyph-name="uni1EA8" unicode="&#x1ea8;" 
d="M416 2510q0 63 88 145q42 40 132 40q75 0 142 -62q55 -51 55 -131q0 -60 -44 -133l-84 -133v-30q0 -75 -68 -75q-66 0 -66 70v52q0 21 21 49l82 139q24 39 24 61q0 59 -68 59q-64 0 -78 -59t-71 -59q-65 0 -65 67zM792 1673l-155 158l-158 -153q-42 -41 -71 -41
q-73 0 -73 65q0 31 34 66l198 204q36 37 70 37q28 0 65 -37l195 -196q36 -36 36 -72q0 -67 -76 -67q-31 0 -65 36zM564 1455q18 55 70 55q50 0 68 -55l447 -1344q9 -27 9 -44q0 -59 -72 -67q-53 0 -75 66l-102 316h-554l-109 -324q-21 -61 -68 -61q-78 0 -78 73q0 10 22 75z
M630 1206l-230 -683h461z" />
    <glyph glyph-name="uni1EA9" unicode="&#x1ea9;" horiz-adv-x="986" 
d="M306 2041q0 63 88 145q42 40 132 40q75 0 142 -62q55 -51 55 -131q0 -60 -44 -133l-84 -133v-30q0 -75 -68 -75q-66 0 -66 70v52q0 21 21 49l82 139q24 39 24 61q0 59 -68 59q-64 0 -78 -59t-71 -59q-65 0 -65 67zM681 1204l-155 158l-158 -153q-42 -41 -71 -41
q-73 0 -73 65q0 31 34 66l198 204q36 37 70 37q28 0 65 -37l195 -196q36 -36 36 -72q0 -67 -76 -67q-31 0 -65 36zM414 461q-83 0 -124.5 -49.5t-41.5 -109.5q0 -66 47.5 -108.5t104.5 -42.5h306v310h-292zM254 915q-75 0 -75 74q0 72 75 72h311q129 0 210 -96.5t81 -198.5
v-672q0 -43 -23 -68.5t-63 -25.5h-380q-113 0 -201.5 92t-88.5 208q0 129 84.5 217.5t209.5 88.5h312v184q0 38 -45 81.5t-100 43.5h-307z" />
    <glyph glyph-name="uni1EAA" unicode="&#x1eaa;" 
d="M862 2308q34 39 83 39q69 0 69 -75q0 -25 -37 -60q-85 -81 -192 -81q-92 0 -157 61q-94 88 -146 88q-31 0 -76 -37t-75 -37q-71 0 -71 82q0 22 34 52q94 84 190 84q99 0 195 -86q70 -63 106 -63q48 0 77 33zM792 1673l-155 158l-158 -153q-42 -41 -71 -41q-73 0 -73 65
q0 31 34 66l198 204q36 37 70 37q28 0 65 -37l195 -196q36 -36 36 -72q0 -67 -76 -67q-31 0 -65 36zM564 1455q18 55 70 55q50 0 68 -55l447 -1344q9 -27 9 -44q0 -59 -72 -67q-53 0 -75 66l-102 316h-554l-109 -324q-21 -61 -68 -61q-78 0 -78 73q0 10 22 75zM630 1206
l-230 -683h461z" />
    <glyph glyph-name="uni1EAB" unicode="&#x1eab;" horiz-adv-x="986" 
d="M752 1839q34 39 83 39q69 0 69 -75q0 -25 -37 -60q-85 -81 -192 -81q-92 0 -157 61q-94 88 -146 88q-31 0 -76 -37t-75 -37q-71 0 -71 82q0 22 34 52q94 84 190 84q99 0 195 -86q70 -63 106 -63q48 0 77 33zM681 1204l-155 158l-158 -153q-42 -41 -71 -41q-73 0 -73 65
q0 31 34 66l198 204q36 37 70 37q28 0 65 -37l195 -196q36 -36 36 -72q0 -67 -76 -67q-31 0 -65 36zM414 461q-83 0 -124.5 -49.5t-41.5 -109.5q0 -66 47.5 -108.5t104.5 -42.5h306v310h-292zM254 915q-75 0 -75 74q0 72 75 72h311q129 0 210 -96.5t81 -198.5v-672
q0 -43 -23 -68.5t-63 -25.5h-380q-113 0 -201.5 92t-88.5 208q0 129 84.5 217.5t209.5 88.5h312v184q0 38 -45 81.5t-100 43.5h-307z" />
    <glyph glyph-name="uni1EAC" unicode="&#x1eac;" 
d="M792 1673l-155 158l-158 -153q-42 -41 -71 -41q-73 0 -73 65q0 31 34 66l198 204q36 37 70 37q28 0 65 -37l195 -196q36 -36 36 -72q0 -67 -76 -67q-31 0 -65 36zM554 -209q0 107 70 107q82 0 82 -114q0 -100 -77 -100q-75 0 -75 107zM564 1455q18 55 70 55q50 0 68 -55
l447 -1344q9 -27 9 -44q0 -59 -72 -67q-53 0 -75 66l-102 316h-554l-109 -324q-21 -61 -68 -61q-78 0 -78 73q0 10 22 75zM630 1206l-230 -683h461z" />
    <glyph glyph-name="uni1EAD" unicode="&#x1ead;" horiz-adv-x="986" 
d="M653 1224l-155 158l-158 -153q-42 -41 -71 -41q-73 0 -73 65q0 31 34 66l198 204q36 37 70 37q28 0 65 -37l195 -196q36 -36 36 -72q0 -67 -76 -67q-31 0 -65 36zM426 -213q0 107 70 107q82 0 82 -114q0 -100 -77 -100q-75 0 -75 107zM414 461q-83 0 -124.5 -49.5
t-41.5 -109.5q0 -66 47.5 -108.5t104.5 -42.5h306v310h-292zM254 915q-75 0 -75 74q0 72 75 72h311q129 0 210 -96.5t81 -198.5v-672q0 -43 -23 -68.5t-63 -25.5h-380q-113 0 -201.5 92t-88.5 208q0 129 84.5 217.5t209.5 88.5h312v184q0 38 -45 81.5t-100 43.5h-307z" />
    <glyph glyph-name="uni1EAE" unicode="&#x1eae;" 
d="M890 2476q32 25 53 25q76 0 76 -79q0 -32 -38 -60l-285 -215q-29 -20 -55 -20q-68 0 -68 75q0 37 36 63zM481 1930q0 -71 54 -111q50 -37 96 -37q59 0 97 30q58 46 58 111q0 82 81 82q69 0 69 -84q0 -122 -86 -201q-96 -88 -221 -88q-136 0 -220 102q-77 94 -77 200
q0 71 83 71q66 0 66 -75zM564 1455q18 55 70 55q50 0 68 -55l447 -1344q9 -27 9 -44q0 -59 -72 -67q-53 0 -75 66l-102 316h-554l-109 -324q-21 -61 -68 -61q-78 0 -78 73q0 10 22 75zM630 1206l-230 -683h461z" />
    <glyph glyph-name="uni1EAF" unicode="&#x1eaf;" horiz-adv-x="986" 
d="M751 2011q32 25 53 25q76 0 76 -79q0 -32 -38 -60l-285 -215q-29 -20 -55 -20q-68 0 -68 75q0 37 36 63zM341 1465q0 -71 54 -111q50 -37 96 -37q59 0 97 30q58 46 58 111q0 82 81 82q69 0 69 -84q0 -122 -86 -201q-96 -88 -221 -88q-136 0 -220 102q-77 94 -77 200
q0 71 83 71q66 0 66 -75zM414 461q-83 0 -124.5 -49.5t-41.5 -109.5q0 -66 47.5 -108.5t104.5 -42.5h306v310h-292zM254 915q-75 0 -75 74q0 72 75 72h311q129 0 210 -96.5t81 -198.5v-672q0 -43 -23 -68.5t-63 -25.5h-380q-113 0 -201.5 92t-88.5 208q0 129 84.5 217.5
t209.5 88.5h312v184q0 38 -45 81.5t-100 43.5h-307z" />
    <glyph glyph-name="uni1EB0" unicode="&#x1eb0;" 
d="M392 2476l281 -211q36 -26 36 -63q0 -75 -68 -75q-26 0 -55 20l-285 215q-38 28 -38 60q0 79 76 79q21 0 53 -25zM481 1930q0 -71 54 -111q50 -37 96 -37q59 0 97 30q58 46 58 111q0 82 81 82q69 0 69 -84q0 -122 -86 -201q-96 -88 -221 -88q-136 0 -220 102
q-77 94 -77 200q0 71 83 71q66 0 66 -75zM564 1455q18 55 70 55q50 0 68 -55l447 -1344q9 -27 9 -44q0 -59 -72 -67q-53 0 -75 66l-102 316h-554l-109 -324q-21 -61 -68 -61q-78 0 -78 73q0 10 22 75zM630 1206l-230 -683h461z" />
    <glyph glyph-name="uni1EB1" unicode="&#x1eb1;" horiz-adv-x="986" 
d="M253 2011l281 -211q36 -26 36 -63q0 -75 -68 -75q-26 0 -55 20l-285 215q-38 28 -38 60q0 79 76 79q21 0 53 -25zM341 1465q0 -71 54 -111q50 -37 96 -37q59 0 97 30q58 46 58 111q0 82 81 82q69 0 69 -84q0 -122 -86 -201q-96 -88 -221 -88q-136 0 -220 102
q-77 94 -77 200q0 71 83 71q66 0 66 -75zM414 461q-83 0 -124.5 -49.5t-41.5 -109.5q0 -66 47.5 -108.5t104.5 -42.5h306v310h-292zM254 915q-75 0 -75 74q0 72 75 72h311q129 0 210 -96.5t81 -198.5v-672q0 -43 -23 -68.5t-63 -25.5h-380q-113 0 -201.5 92t-88.5 208
q0 129 84.5 217.5t209.5 88.5h312v184q0 38 -45 81.5t-100 43.5h-307z" />
    <glyph glyph-name="uni1EB2" unicode="&#x1eb2;" 
d="M416 2298q0 63 88 145q42 40 132 40q75 0 142 -62q55 -51 55 -131q0 -60 -44 -133l-84 -133v-30q0 -75 -68 -75q-66 0 -66 70v52q0 21 21 49l82 139q24 39 24 61q0 59 -68 59q-64 0 -78 -59t-71 -59q-65 0 -65 67zM481 1930q0 -71 54 -111q50 -37 96 -37q59 0 97 30
q58 46 58 111q0 82 81 82q69 0 69 -84q0 -122 -86 -201q-96 -88 -221 -88q-136 0 -220 102q-77 94 -77 200q0 71 83 71q66 0 66 -75zM564 1455q18 55 70 55q50 0 68 -55l447 -1344q9 -27 9 -44q0 -59 -72 -67q-53 0 -75 66l-102 316h-554l-109 -324q-21 -61 -68 -61
q-78 0 -78 73q0 10 22 75zM630 1206l-230 -683h461z" />
    </font>
</defs>
</svg>
