<?xml version="1.0" standalone="no"?>
<!DOCTYPE svg PUBLIC "-//W3C//DTD SVG 1.1//EN" "http://www.w3.org/Graphics/SVG/1.1/DTD/svg11.dtd" >
<svg xmlns="http://www.w3.org/2000/svg" xmlns:xlink="http://www.w3.org/1999/xlink" version="1.1">
<metadata>
Created by FontForge 20170731 at Tue Nov  1 13:32:23 2005
 By Aleksey,,,
Copyright (c) This Font is designed by Ralph Oliver du Carrois, 2005. All rights reserved.
</metadata>
<defs>
<font id="Share-TechMono" horiz-adv-x="540" >
  <font-face 
    font-family="Share-TechMono"
    font-weight="400"
    font-stretch="normal"
    units-per-em="1000"
    panose-1="2 0 5 9 4 0 0 2 0 4"
    ascent="808"
    descent="-192"
    x-height="500"
    cap-height="700"
    bbox="9 -235 535 855"
    underline-thickness="75"
    underline-position="-209"
    unicode-range="U+0020-FB02"
  />
<missing-glyph 
d="M84 700h372v-700h-372v700zM381 72v556h-222v-556h222z" />
    <glyph glyph-name="fi" unicode="fi" 
d="M220 260v100h100v-100h-100z" />
    <glyph glyph-name="fl" unicode="fl" 
d="M220 260v100h100v-100h-100z" />
    <glyph glyph-name=".notdef" 
d="M84 700h372v-700h-372v700zM381 72v556h-222v-556h222z" />
    <glyph glyph-name=".null" horiz-adv-x="0" 
 />
    <glyph glyph-name="nonmarkingreturn" 
 />
    <glyph glyph-name="space" unicode=" " 
 />
    <glyph glyph-name="exclam" unicode="!" 
d="M220 0v100h100v-100h-100zM227 208v492h85v-492h-85z" />
    <glyph glyph-name="quotedbl" unicode="&#x22;" 
d="M220 453h-55l-20 157v90h95v-90zM375 453h-55l-20 157v90h95v-90z" />
    <glyph glyph-name="numbersign" unicode="#" 
d="M310 455h-80v-200h80v200zM390 180v-180h-80v180h-80v-180h-80v180h-70v75h70v200h-70v75h70v170h80v-170h80v170h80v-170h70v-75h-70v-200h70v-75h-70z" />
    <glyph glyph-name="dollar" unicode="$" 
d="M227 -110v110h-105v76h142q38 0 60.5 22.5t22.5 52.5v84q0 29 -15 48t-47 19h-20q-72 0 -116 42t-44 128v28q0 70 31 110.5t91 53.5v116h85v-110h106v-76h-143q-38 0 -60.5 -22.5t-22.5 -52.5v-66q0 -30 19.5 -51t52.5 -21h20q69 0 109.5 -39.5t40.5 -125.5v-46
q0 -70 -31.5 -111t-90.5 -54v-115h-85z" />
    <glyph glyph-name="percent" unicode="%" 
d="M12 281v62l515 73v-62zM289 532q0 -65 -32.5 -96.5t-89.5 -31.5h-8q-57 0 -89.5 31.5t-32.5 96.5v40q0 65 32.5 96.5t89.5 31.5h8q57 0 89.5 -31.5t32.5 -96.5v-40v0zM219 583q0 23 -12 40t-40 17h-8q-28 0 -40 -17t-12 -40v-62q0 -23 12 -40t40 -17h8q28 0 40 17t12 40
v62zM499 128q0 -65 -32.5 -96.5t-89.5 -31.5h-8q-57 0 -89.5 31.5t-32.5 96.5v40q0 65 32.5 96.5t89.5 31.5h8q57 0 89.5 -31.5t32.5 -96.5v-40v0zM429 179q0 23 -12 40t-40 17h-8q-28 0 -40 -17t-12 -40v-62q0 -23 12 -40t40 -17h8q28 0 40 17t12 40v62z" />
    <glyph glyph-name="ampersand" unicode="&#x26;" 
d="M253 0q-91 0 -130.5 37.5t-39.5 120.5v126q0 45 16.5 75.5t48.5 47.5q-26 18 -40.5 47t-14.5 69v21q0 83 44.5 119.5t127.5 36.5h106v-75h-118q-38 0 -55.5 -17t-17.5 -55v-40q0 -34 21.5 -53.5t51.5 -19.5h243v-75h-79v-365h-164zM243 365q-32 0 -52.5 -19.5
t-20.5 -52.5v-145q0 -38 18 -55.5t56 -17.5h92v290h-93v0z" />
    <glyph glyph-name="quotesingle" unicode="'" 
d="M297 453h-55l-20 157v90h95v-90z" />
    <glyph glyph-name="parenleft" unicode="(" 
d="M170 505q0 63 9 111.5t24 86t35.5 65.5t43.5 52h88q-33 -40 -55 -71.5t-35.5 -65.5t-19 -75.5t-5.5 -100.5v-314q0 -59 5.5 -100.5t19 -75.5t35.5 -65.5t55 -71.5h-88q-23 24 -43.5 52t-35.5 65.5t-24 86t-9 111.5v310v0z" />
    <glyph glyph-name="parenright" unicode=")" 
d="M370 195q0 -63 -9 -111.5t-24 -86t-35.5 -65.5t-43.5 -52h-88q33 40 55 71.5t35.5 65.5t19 75.5t5.5 100.5v314q0 59 -5.5 100.5t-19 75.5t-35.5 65.5t-55 71.5h88q23 -24 43.5 -52t35.5 -65.5t24 -86t9 -111.5v-310z" />
    <glyph glyph-name="asterisk" unicode="*" 
d="M323 515l106 -123l-72 -52l-88 142l-91 -142l-70 53l107 122l-145 32l27 80l141 -57l-13 152h90l-13 -152l143 55l25 -79z" />
    <glyph glyph-name="plus" unicode="+" 
d="M310 275v-157h-80v157h-151v75h151v158h80v-158h150v-75h-150z" />
    <glyph glyph-name="comma" unicode="," 
d="M278 -140h-78l40 140v100h100v-100z" />
    <glyph glyph-name="hyphen" unicode="-" 
d="M107 275v75h325v-75h-325z" />
    <glyph glyph-name="period" unicode="." 
d="M220 0v100h100v-100h-100z" />
    <glyph glyph-name="slash" unicode="/" 
d="M134 -110h-84l356 920h84z" />
    <glyph glyph-name="zero" unicode="0" 
d="M448 170q0 -86 -46.5 -128t-121.5 -42h-20q-75 0 -121.5 42t-46.5 128v360q0 87 46.5 128.5t121.5 41.5h20q75 0 121.5 -41.5t46.5 -128.5v-360v0zM177 278l186 271q0 30 -22.5 53t-60.5 23h-20q-38 0 -60.5 -23t-22.5 -53v-271zM363 421l-186 -270q0 -30 22.5 -53
t60.5 -23h20q38 0 60.5 23t22.5 53v270z" />
    <glyph glyph-name="one" unicode="1" 
d="M112 0v75h131v546l-141 -52v81l131 50h95v-625h109v-75h-325z" />
    <glyph glyph-name="two" unicode="2" 
d="M105 0v88l160 228q21 30 33.5 49t19 35.5t8.5 34t2 44.5v70q0 30 -22.5 52.5t-60.5 22.5h-120v76h110q87 0 133.5 -42t46.5 -128v-42q0 -38 -4 -64.5t-12.5 -48t-21.5 -42.5t-32 -48l-148 -209h238v-76h-330z" />
    <glyph glyph-name="three" unicode="3" 
d="M419 158q0 -83 -39.5 -120.5t-130.5 -37.5h-128v75h137q38 0 56 17.5t18 55.5v103q0 33 -20.5 52.5t-52.5 19.5h-107v75h97q30 0 51.5 19.5t21.5 53.5v82q0 38 -17.5 55t-55.5 17h-128v75h116q83 0 127.5 -36.5t44.5 -119.5v-63q0 -40 -14.5 -69t-40.5 -47
q32 -17 48.5 -47.5t16.5 -75.5v-84v0z" />
    <glyph glyph-name="four" unicode="4" 
d="M378 156v-156h-85v156h-206v86l107 458h81l-102 -471h120v228h85v-228h75v-73h-75z" />
    <glyph glyph-name="five" unicode="5" 
d="M420 158q0 -83 -39.5 -120.5t-130.5 -37.5h-131v75h140q38 0 56 17.5t18 55.5v127q0 33 -20.5 52.5t-52.5 19.5h-131v353h276v-75h-191v-203h41q73 0 119 -36.5t46 -119.5v-108v0z" />
    <glyph glyph-name="six" unicode="6" 
d="M448 170q0 -43 -12.5 -75t-34.5 -53t-50.5 -31.5t-60.5 -10.5h-35q-32 0 -60.5 10.5t-50.5 31.5t-34.5 53t-12.5 75v360q0 86 45.5 128t132.5 42h125v-76h-135q-38 0 -60.5 -22.5t-22.5 -52.5v-109h98q85 0 126.5 -37t41.5 -123v-110v0zM182 365v-214q0 -30 20 -53
t58 -23h25q38 0 58 23t20 53v148q0 30 -17.5 48t-55.5 18h-108z" />
    <glyph glyph-name="seven" unicode="7" 
d="M253 0h-89l182 625h-242v75h325v-97z" />
    <glyph glyph-name="eight" unicode="8" 
d="M454 158q0 -83 -39.5 -120.5t-130.5 -37.5h-28q-91 0 -130.5 37.5t-39.5 120.5v84q0 45 16.5 75.5t48.5 47.5q-53 37 -53 116v63q0 83 43.5 119.5t118.5 36.5h20q75 0 118.5 -36.5t43.5 -119.5v-63q0 -79 -53 -116q32 -17 48.5 -47.5t16.5 -75.5v-84v0zM367 251
q0 33 -20.5 52.5t-52.5 19.5h-48q-32 0 -52.5 -19.5t-20.5 -52.5v-103q0 -37 15.5 -55t50.5 -18h54q38 0 56 17.5t18 55.5v103v0zM248 625q-34 -2 -48.5 -19t-14.5 -53v-82q0 -32 18.5 -51.5t46.5 -21.5h34q30 0 50.5 19.5t20.5 53.5v82q0 38 -16.5 55t-54.5 17h-36z" />
    <glyph glyph-name="nine" unicode="9" 
d="M96 530q0 43 12.5 75t34.5 53t50.5 31.5t60.5 10.5h35q32 0 60.5 -10.5t50.5 -31.5t34.5 -53t12.5 -75v-360q0 -86 -45.5 -128t-132.5 -42h-115v76h125q38 0 60.5 22.5t22.5 52.5v109h-98q-85 0 -126.5 37t-41.5 123v110v0zM362 335v214q0 30 -20 53t-58 23h-25
q-38 0 -58 -23t-20 -53v-148q0 -30 17.5 -48t55.5 -18h108z" />
    <glyph glyph-name="colon" unicode=":" 
d="M220 0v100h100v-100h-100zM220 400v100h100v-100h-100z" />
    <glyph glyph-name="semicolon" unicode=";" 
d="M278 -140h-78l40 140v100h100v-100zM240 400v100h100v-100h-100z" />
    <glyph glyph-name="less" unicode="&#x3c;" 
d="M80 280v105l380 179v-92l-310 -136l310 -137v-94z" />
    <glyph glyph-name="equal" unicode="=" 
d="M80 175v75h380v-75h-380zM80 375v75h380v-75h-380z" />
    <glyph glyph-name="greater" unicode="&#x3e;" 
d="M80 105v94l316 137l-316 136v92l380 -179v-105z" />
    <glyph glyph-name="question" unicode="?" 
d="M409 518q0 -28 -1.5 -47t-8.5 -35.5t-21 -34t-40 -43.5l-53 -54v-96h-85v121l58 61q23 24 36.5 39.5t20 27.5t8 24t1.5 28v50q0 30 -17.5 47.5t-55.5 17.5h-125v76h115q81 0 124.5 -35.5t43.5 -114.5v-32v0zM193 0v100h100v-100h-100z" />
    <glyph glyph-name="at" unicode="@" 
d="M166 0q-70 0 -103.5 32t-33.5 108v410q0 78 36.5 114t123.5 36h165q84 0 120.5 -34t36.5 -116v-327q0 -63 -26 -85.5t-74 -22.5q-32 0 -54 15t-25 45q-14 -16 -31.5 -23.5t-49.5 -7.5q-49 0 -73 25t-24 90v144q0 41 8 67t26.5 41.5t48 21.5t71.5 6h72v-328q0 -20 6 -30.5
t24 -10.5q19 0 25 9t6 37v344q0 37 -17.5 57t-59.5 20h-185q-45 0 -62.5 -19.5t-17.5 -57.5v-430q0 -30 14.5 -48.5t52.5 -18.5h185v-63h-185zM260 202q29 0 40.5 17t11.5 35v228h-15q-42 0 -58.5 -14t-16.5 -59v-156q0 -20 6 -35.5t32 -15.5z" />
    <glyph glyph-name="A" unicode="A" 
d="M270 634l-81 -382h163zM406 0l-38 177h-195l-39 -177h-89l169 700h115l166 -700h-89z" />
    <glyph glyph-name="B" unicode="B" 
d="M455 158q0 -86 -40 -122t-130 -36h-200v700h188q86 0 129 -35t43 -121v-57q0 -40 -14.5 -69t-40.5 -47q32 -17 48.5 -47.5t16.5 -75.5v-90v0zM358 553q0 38 -17.5 55t-55.5 17h-113v-221h113q30 0 51.5 19.5t21.5 53.5v76zM368 257q0 33 -20.5 52.5t-52.5 19.5h-123v-254
h122q38 0 56 17.5t18 55.5v109z" />
    <glyph glyph-name="C" unicode="C" 
d="M289 0q-87 0 -133.5 42t-46.5 128v360q0 86 46.5 128t133.5 42h142v-76h-152q-38 0 -60.5 -22.5t-22.5 -52.5v-398q0 -30 22.5 -52.5t60.5 -22.5h152v-76h-142z" />
    <glyph glyph-name="D" unicode="D" 
d="M458 158q0 -86 -40 -122t-130 -36h-206v700h194q86 0 134 -35t48 -121v-386v0zM371 553q0 33 -20.5 52.5t-52.5 19.5h-129v-550h128q38 0 56 17.5t18 55.5v405z" />
    <glyph glyph-name="E" unicode="E" 
d="M103 0v700h334v-73h-247v-229h222v-73h-222v-252h247v-73h-334z" />
    <glyph glyph-name="F" unicode="F" 
d="M193 627v-239h222v-73h-222v-315h-87v700h334v-73h-247z" />
    <glyph glyph-name="G" unicode="G" 
d="M274 0q-87 0 -133.5 42t-46.5 128v360q0 86 46.5 128t133.5 42h141v-76h-151q-38 0 -60.5 -22.5t-22.5 -52.5v-398q0 -30 22.5 -52.5t60.5 -22.5h98v217h-87v75h170v-368h-171z" />
    <glyph glyph-name="H" unicode="H" 
d="M373 0v322h-206v-322h-87v700h87v-304h206v304h87v-700h-87z" />
    <glyph glyph-name="I" unicode="I" 
d="M136 0v73h90v554h-90v73h267v-73h-90v-554h90v-73h-267z" />
    <glyph glyph-name="J" unicode="J" 
d="M410 170q0 -86 -46.5 -128t-133.5 -42h-105v76h115q38 0 60.5 22.5t22.5 52.5v474h-161v75h248v-530v0z" />
    <glyph glyph-name="K" unicode="K" 
d="M365 0l-159 315l-38 -57v-258h-87v700h87v-302l190 302h95l-193 -309l205 -391h-100z" />
    <glyph glyph-name="L" unicode="L" 
d="M115 0v700h87v-624h223v-76h-310z" />
    <glyph glyph-name="M" unicode="M" 
d="M410 0v628l-100 -393h-83l-98 393v-628h-76v700h139l80 -358l81 358h135v-700h-78z" />
    <glyph glyph-name="N" unicode="N" 
d="M317 0l-157 626v-626h-81v700h142l158 -626v626h81v-700h-143z" />
    <glyph glyph-name="O" unicode="O" 
d="M470 170q0 -86 -46.5 -128t-133.5 -42h-40q-87 0 -133.5 42t-46.5 128v360q0 86 46.5 128t133.5 42h40q87 0 133.5 -42t46.5 -128v-360v0zM383 549q0 30 -22.5 52.5t-60.5 22.5h-60q-38 0 -60.5 -22.5t-22.5 -52.5v-398q0 -30 22.5 -52.5t60.5 -22.5h60q38 0 60.5 22.5
t22.5 52.5v398z" />
    <glyph glyph-name="P" unicode="P" 
d="M451 430q0 -83 -43.5 -120.5t-126.5 -37.5h-104v-272h-87v700h189q83 0 127.5 -36.5t44.5 -119.5v-114v0zM364 553q0 38 -17.5 55t-55.5 17h-114v-278h114q38 0 55.5 17.5t17.5 55.5v133z" />
    <glyph glyph-name="Q" unicode="Q" 
d="M463 -59l-77 77q-39 -18 -96 -18h-40q-87 0 -133.5 42t-46.5 128v360q0 86 46.5 128t133.5 42h40q87 0 133.5 -42t46.5 -128v-360q0 -59 -23 -99l73 -73zM383 549q0 30 -22.5 52.5t-60.5 22.5h-60q-38 0 -60.5 -22.5t-22.5 -52.5v-398q0 -30 22.5 -52.5t60.5 -22.5h60
q38 0 60.5 22.5t22.5 52.5v398z" />
    <glyph glyph-name="R" unicode="R" 
d="M384 0l-129 290h-98v-290h-87v700h188q83 0 127.5 -36.5t44.5 -119.5v-96q0 -60 -23.5 -93.5t-66.5 -47.5l139 -307h-95zM343 553q0 38 -17.5 55t-55.5 17h-113v-260h113q38 0 55.5 17.5t17.5 55.5v115z" />
    <glyph glyph-name="S" unicode="S" 
d="M439 170q0 -86 -46.5 -128t-133.5 -42h-142v76h152q38 0 60.5 22.5t22.5 52.5v104q0 29 -15 48t-47 19h-30q-72 0 -116 42t-44 128v38q0 86 46.5 128t133.5 42h143v-76h-153q-38 0 -60.5 -22.5t-22.5 -52.5v-76q0 -30 19.5 -51t52.5 -21h30q69 0 109.5 -39.5t40.5 -125.5
v-66v0z" />
    <glyph glyph-name="T" unicode="T" 
d="M313 624v-624h-87v624h-159v76h405v-76h-159z" />
    <glyph glyph-name="U" unicode="U" 
d="M462 170q0 -86 -46.5 -128t-133.5 -42h-25q-87 0 -133.5 42t-46.5 128v530h87v-549q0 -30 22.5 -52.5t60.5 -22.5h45q38 0 60.5 22.5t22.5 52.5v549h87v-530v0z" />
    <glyph glyph-name="V" unicode="V" 
d="M322 0h-119l-147 700h88l120 -612l129 612h86z" />
    <glyph glyph-name="W" unicode="W" 
d="M451 0h-126l-57 284l-63 -284h-120l-34 700h74l30 -625l83 330h62l85 -330l31 625h69z" />
    <glyph glyph-name="X" unicode="X" 
d="M391 0l-120 263l-126 -263h-94l174 362l-158 338h95l110 -237l114 237h93l-162 -337l172 -363h-98z" />
    <glyph glyph-name="Y" unicode="Y" 
d="M313 325v-325h-90v325l-179 375h96l132 -291l132 291h91z" />
    <glyph glyph-name="Z" unicode="Z" 
d="M178 74h263v-74h-354v88l274 538h-251v74h341v-88z" />
    <glyph glyph-name="bracketleft" unicode="[" 
d="M165 -120v940h210v-75h-130v-790h130v-75h-210z" />
    <glyph glyph-name="backslash" unicode="\" 
d="M50 810h84l356 -920h-84z" />
    <glyph glyph-name="bracketright" unicode="]" 
d="M165 -120v75h130v790h-130v75h210v-940h-210z" />
    <glyph glyph-name="asciicircum" unicode="^" 
d="M377 420l-104 280l-114 -280h-88l144 340h114l139 -340h-91z" />
    <glyph glyph-name="underscore" unicode="_" 
d="M18 -170v75h504v-75h-504z" />
    <glyph glyph-name="grave" unicode="`" 
d="M285 580l-122 135h104l104 -135h-86z" />
    <glyph glyph-name="a" unicode="a" 
d="M417 0q-14 0 -29 8t-26 22q-11 -14 -26 -22t-35 -8h-89q-75 0 -110 30t-35 105v20q0 75 35.5 115t110.5 40h124v50q0 30 -18.5 47.5t-56.5 17.5h-155v75h145q87 0 128.5 -37t41.5 -123v-240q0 -15 11 -22.5t39 -7.5v-70h-55zM291 75q17 0 26.5 5t14 12.5t5 16.5t0.5 16
v110h-125q-26 0 -43 -17t-17 -43v-50q0 -50 50 -50h89v0z" />
    <glyph glyph-name="b" unicode="b" 
d="M453 160q0 -86 -41.5 -123t-128.5 -37h-196v700h85v-220q16 11 35 15.5t40 4.5h36q87 0 128.5 -36.5t41.5 -123.5v-180v0zM237 425q-19 0 -31.5 -6t-20 -14t-10.5 -17.5t-3 -17.5v-295h121q38 0 56.5 17.5t18.5 47.5v220q0 30 -18.5 47.5t-56.5 17.5h-56v0z" />
    <glyph glyph-name="c" unicode="c" 
d="M290 0q-87 0 -128.5 36.5t-41.5 123.5v180q0 86 41.5 123t128.5 37h129v-75h-139q-38 0 -56.5 -17.5t-18.5 -47.5v-220q0 -30 18.5 -47.5t56.5 -17.5h139v-75h-129z" />
    <glyph glyph-name="d" unicode="d" 
d="M375 0v23q-33 -23 -80 -23h-41q-87 0 -128.5 36.5t-41.5 123.5v180q0 86 41.5 123t128.5 37h116v200h85v-700h-80zM305 75q19 0 31.5 6t20 14t10.5 18t3 17v295h-126q-38 0 -56.5 -17.5t-18.5 -47.5v-220q0 -30 18.5 -47.5t56.5 -17.5h61v0z" />
    <glyph glyph-name="e" unicode="e" 
d="M264 0q-87 0 -128.5 36.5t-41.5 123.5v180q0 86 37 123t123 37h47q72 0 108 -40t36 -115v-130h-266v-75q0 -30 18.5 -47.5t56.5 -17.5h159v-75h-149zM179 290h183v75q0 26 -17 43t-43 17h-58q-38 0 -51.5 -17.5t-13.5 -47.5v-70z" />
    <glyph glyph-name="f" unicode="f" 
d="M304 625q-17 0 -26 -8.5t-9 -21.5v-95h161v-75h-161v-350h121v-75h-291v75h85v350h-85v75h85v90q0 53 29.5 81.5t74.5 28.5h152v-75h-136z" />
    <glyph glyph-name="g" unicode="g" 
d="M467 -35q0 -68 -40 -101.5t-127 -33.5h-208v75h218q38 0 55 15t17 35v32q0 23 -17 36.5t-55 13.5h-173v138q-33 18 -49 52t-16 88v25q0 86 41.5 123t128.5 37h210v-185q0 -76 -41 -118t-109 -42h-80v-43h78q87 0 127 -33.5t40 -101.5v-12v0zM302 230q18 0 30 6.5
t19.5 16.5t11 20.5t4.5 18.5v133h-135q-38 0 -56.5 -17.5t-18.5 -47.5v-65q0 -30 18.5 -47.5t56.5 -17.5h70v0z" />
    <glyph glyph-name="h" unicode="h" 
d="M87 0v700h85v-220q16 11 35 15.5t40 4.5h46q79 0 119.5 -36.5t40.5 -123.5v-340h-85v360q0 30 -17.5 47.5t-47.5 17.5h-66q-18 0 -30.5 -5.5t-20 -13t-11 -16.5t-3.5 -17v-373h-85z" />
    <glyph glyph-name="i" unicode="i" 
d="M222 610v90h95v-90h-95zM227 0v425h-147v75h232v-425h148v-75h-233z" />
    <glyph glyph-name="j" unicode="j" 
d="M278 -95q17 0 26 8.5t9 21.5v490h-147v75h232v-560q0 -53 -29.5 -81.5t-74.5 -28.5h-157v75h141zM307 610v90h95v-90h-95z" />
    <glyph glyph-name="k" unicode="k" 
d="M354 0l-147 244l-26 -30v-214h-85v700h85v-378l157 178h107l-174 -197l188 -303h-105z" />
    <glyph glyph-name="l" unicode="l" 
d="M302 0q-15 0 -30 5t-27 16.5t-20 31t-8 47.5v525h-147v75h232v-595q0 -16 7.5 -23t27.5 -7h133v-75h-168z" />
    <glyph glyph-name="m" unicode="m" 
d="M43 0v500h75v-23q26 23 62 23h6q70 0 99 -40q18 22 40.5 31t46.5 9h6q29 0 51.5 -6.5t37.5 -23t22.5 -43.5t7.5 -68v-359h-80v360q0 38 -7.5 55.5t-39.5 17.5h-6q-17 0 -27.5 -7t-16 -17.5t-8 -21.5t-2.5 -20v-367h-80v360q0 43 -10 58t-36 15h-6q-17 0 -27.5 -6
t-16.5 -14.5t-8.5 -18.5t-2.5 -18v-376h-80z" />
    <glyph glyph-name="n" unicode="n" 
d="M87 0v500h80v-24q17 13 37 18.5t43 5.5h46q79 0 119.5 -36.5t40.5 -123.5v-340h-85v360q0 30 -17.5 47.5t-47.5 17.5h-66q-19 0 -31.5 -6t-20 -14t-10.5 -17.5t-3 -17.5v-370h-85z" />
    <glyph glyph-name="o" unicode="o" 
d="M456 160q0 -86 -41.5 -123t-128.5 -37h-33q-87 0 -128.5 37t-41.5 123v180q0 86 41.5 123t128.5 37h33q87 0 128.5 -37t41.5 -123v-180v0zM371 360q0 30 -18.5 47.5t-56.5 17.5h-53q-38 0 -56.5 -17.5t-18.5 -47.5v-220q0 -30 18.5 -47.5t56.5 -17.5h53q38 0 56.5 17.5
t18.5 47.5v220z" />
    <glyph glyph-name="p" unicode="p" 
d="M87 -170v670h80v-24q17 13 37 18.5t43 5.5h36q87 0 128.5 -36.5t41.5 -123.5v-180q0 -86 -41.5 -123t-128.5 -37h-111v-170h-85zM237 425q-19 0 -31.5 -6t-20 -14t-10.5 -17.5t-3 -17.5v-295h121q38 0 56.5 17.5t18.5 47.5v220q0 30 -18.5 47.5t-56.5 17.5h-56v0z" />
    <glyph glyph-name="q" unicode="q" 
d="M370 -170v190q-31 -20 -75 -20h-41q-87 0 -128.5 36.5t-41.5 123.5v180q0 86 41.5 123t128.5 37h201v-670h-85zM305 75q19 0 31.5 6t20 14t10.5 18t3 17v295h-126q-38 0 -56.5 -17.5t-18.5 -47.5v-220q0 -30 18.5 -47.5t56.5 -17.5h61v0z" />
    <glyph glyph-name="r" unicode="r" 
d="M100 0v75h73v350h-73v75h153v-27q33 27 80 27h103v-80h-113q-18 0 -30.5 -6.5t-20 -16.5t-11 -20.5t-3.5 -18.5v-283h109v-75h-267z" />
    <glyph glyph-name="s" unicode="s" 
d="M422 125q0 -65 -39 -95t-111 -30h-149v75h159q55 0 55 45v53q0 45 -43 45h-37q-69 0 -104 29.5t-35 97.5v29q0 70 39 98t111 28h134v-75h-144q-24 0 -39.5 -11t-15.5 -34v-36q0 -24 14.5 -34.5t33.5 -10.5h34q67 0 102 -32.5t35 -96.5v-45v0z" />
    <glyph glyph-name="t" unicode="t" 
d="M307 0q-53 0 -79 33.5t-26 86.5v305h-95v75h95v120h85v-120h146v-75h-146v-310q0 -23 11 -31.5t34 -8.5h101v-75h-126z" />
    <glyph glyph-name="u" unicode="u" 
d="M367 0v23q-33 -23 -80 -23h-34q-79 0 -119.5 36.5t-40.5 123.5v340h85v-360q0 -30 17.5 -47.5t47.5 -17.5h54q18 0 30 5t19.5 13t11 17t4.5 17v373h85v-500h-80z" />
    <glyph glyph-name="v" unicode="v" 
d="M332 0h-123l-145 500h92l117 -431l114 431h89z" />
    <glyph glyph-name="w" unicode="w" 
d="M416 0h-96l-48 251l-54 -251h-93l-90 500h85l57 -397l66 307h65l60 -307l57 397h80z" />
    <glyph glyph-name="x" unicode="x" 
d="M374 0l-105 189l-110 -189h-94l156 258l-144 242h99l95 -168l97 168h93l-146 -238l159 -262h-100z" />
    <glyph glyph-name="y" unicode="y" 
d="M180 -95q23 0 35.5 8.5t18.5 31.5l14 55h-20l-165 500h92l125 -419l109 419h87l-155 -554q-10 -40 -23.5 -63t-30.5 -35t-37 -15t-44 -3h-48v75h42z" />
    <glyph glyph-name="z" unicode="z" 
d="M202 74h222v-74h-318v80l234 346h-214v74h308v-89z" />
    <glyph glyph-name="braceleft" unicode="{" 
d="M147 405q38 0 54.5 12t16.5 52v229q0 67 24.5 94.5t84.5 27.5h65v-70h-51q-23 0 -34 -7t-11 -30v-244q0 -53 -25.5 -84t-59.5 -36q34 -4 59.5 -34.5t25.5 -83.5v-244q0 -23 11 -30t34 -7h51v-70h-65q-60 0 -84.5 27.5t-24.5 94.5v229q0 20 -4 32.5t-12.5 19.5t-22 9.5
t-32.5 2.5v110z" />
    <glyph glyph-name="bar" unicode="|" 
d="M230 -110v920h80v-920h-80z" />
    <glyph glyph-name="braceright" unicode="}" 
d="M392 295q-19 0 -32.5 -2.5t-22 -9.5t-12.5 -19.5t-4 -32.5v-229q0 -67 -24.5 -94.5t-84.5 -27.5h-65v70h51q23 0 34 7t11 30v244q0 53 25.5 83.5t59.5 34.5q-34 5 -59.5 36t-25.5 84v244q0 23 -11 30t-34 7h-51v70h65q60 0 84.5 -27.5t24.5 -94.5v-229q0 -40 16.5 -52
t54.5 -12v-110z" />
    <glyph glyph-name="asciitilde" unicode="~" 
d="M100 346q22 10 41 18q17 7 33 12t23 5h15q9 0 27.5 -6t38.5 -13.5t38 -14t27 -6.5h10q5 0 19 5.5t29 12.5q18 8 39 18v-80q-20 -9 -38 -17q-15 -7 -29 -12.5t-21 -5.5h-15q-5 0 -23 6.5t-39.5 14t-40.5 13.5t-27 6h-10q-5 0 -21 -5.5t-33 -12.5q-20 -8 -43 -18v80z" />
    <glyph glyph-name="uni00A0" unicode="&#xa0;" 
 />
    <glyph glyph-name="exclamdown" unicode="&#xa1;" 
d="M320 500v-100h-100v100h100zM313 292v-492h-85v492h85z" />
    <glyph glyph-name="cent" unicode="&#xa2;" 
d="M260 -110v110q-72 6 -106 43t-34 116v180q0 78 34 115t106 43v103h80v-101h79v-75h-139q-38 0 -56.5 -17.5t-18.5 -47.5v-220q0 -30 18.5 -47.5t56.5 -17.5h139v-75h-79v-109h-80z" />
    <glyph glyph-name="sterling" unicode="&#xa3;" 
d="M92 413h70v117q0 86 46.5 128t133.5 42h97v-76h-107q-38 0 -60.5 -22.5t-22.5 -52.5v-136h128v-73h-128v-267h198v-73h-355v73h70v267h-70v73z" />
    <glyph glyph-name="currency" unicode="&#xa4;" 
d="M85 174q-12 32 -12 78v98q0 48 12 79l-71 72l57 57l68 -68q37 20 104 20h53q65 0 104 -21l69 69l57 -57l-73 -73q13 -30 13 -78v-98q0 -45 -12 -77l72 -72l-57 -57l-67 67q-40 -21 -106 -21h-53q-33 0 -59 5t-46 16l-67 -67l-57 57zM381 370q0 30 -18.5 47.5t-56.5 17.5
h-73q-38 0 -56.5 -17.5t-18.5 -47.5v-138q0 -30 18.5 -47.5t56.5 -17.5h73q38 0 56.5 17.5t18.5 47.5v138z" />
    <glyph glyph-name="yen" unicode="&#xa5;" 
d="M314 115v-115h-90v115h-130v75h130v75h-130v75h127l-166 360h96l122 -273l121 273h91l-169 -360h128v-75h-130v-75h130v-75h-130z" />
    <glyph glyph-name="brokenbar" unicode="&#xa6;" 
d="M230 -110v360h80v-360h-80zM230 450v360h80v-360h-80z" />
    <glyph glyph-name="section" unicode="&#xa7;" 
d="M113 355q0 37 12.5 65t31.5 42q-14 14 -22 36.5t-8 51.5v10q0 75 39 107.5t111 32.5h124v-75h-134q-23 0 -39 -11t-16 -34v-40q0 -24 13.5 -34.5t34.5 -10.5h29q67 0 102 -35t35 -110v-5q0 -38 -12.5 -64t-31.5 -43q14 -11 22 -35t8 -53v-10q0 -75 -39 -107.5t-111 -32.5
h-124v75h134q23 0 39 11t16 34v40q0 45 -44 45h-33q-67 0 -102 35t-35 110v5v0zM233 420q-35 0 -35 -45v-45q0 -21 12 -35.5t41 -14.5h55q16 0 25.5 11t9.5 34v45q0 20 -9.5 35t-42.5 15h-56z" />
    <glyph glyph-name="dieresis" unicode="&#xa8;" 
d="M327 595v80h85v-80h-85zM127 595v80h85v-80h-85z" />
    <glyph glyph-name="copyright" unicode="&#xa9;" 
d="M283 157q-52 0 -80 23t-28 71v198q0 48 28 71t80 23h75v-51h-80q-23 0 -34.5 -12.5t-11.5 -29.5v-200q0 -17 11.5 -29.5t34.5 -12.5h79v-51h-74zM515 170q0 -86 -44 -128t-119 -42h-164q-75 0 -119 42t-44 128v360q0 87 44 128.5t119 41.5h164q75 0 119 -41.5t44 -128.5
v-360v0zM443 552q0 15 -6 30t-17 27t-28 19.5t-40 7.5h-164q-23 0 -40 -7.5t-28.5 -19.5t-17 -27t-5.5 -30v-405q0 -15 5.5 -30t17 -27t28.5 -19.5t40 -7.5h164q23 0 40.5 7.5t28.5 19.5t16.5 27t5.5 30v405z" />
    <glyph glyph-name="ordfeminine" unicode="&#xaa;" 
d="M369 324q-9 0 -20.5 5t-19.5 15q-8 -9 -18.5 -14.5t-24.5 -5.5h-52q-57 0 -83 22.5t-26 79.5v15q0 57 26.5 86.5t83.5 29.5h74v38q0 23 -12 33.5t-41 10.5h-101v61h94q65 0 96.5 -28t31.5 -92v-181q0 -11 8 -16.5t29 -5.5v-53h-45zM147 0v75h251v-75h-251zM274 383
q13 0 20 3.5t10.5 9t4 12t0.5 12.5v79h-71q-20 0 -32.5 -12.5t-12.5 -32.5v-32q0 -39 37 -39h44v0z" />
    <glyph glyph-name="guillemotleft" unicode="&#xab;" 
d="M201 92l-89 207l89 207h66l-63 -207l63 -207h-66zM361 92l-89 207l89 207h66l-63 -207l63 -207h-66z" />
    <glyph glyph-name="logicalnot" unicode="&#xac;" 
d="M392 106v169h-330v75h415v-244h-85z" />
    <glyph glyph-name="uni00AD" unicode="&#xad;" 
d="M107 275v75h325v-75h-325z" />
    <glyph glyph-name="registered" unicode="&#xae;" 
d="M515 170q0 -86 -44 -128t-119 -42h-164q-75 0 -119 42t-44 128v360q0 87 44 128.5t119 41.5h164q75 0 119 -41.5t44 -128.5v-360v0zM443 552q0 15 -6 30t-17 27t-28 19.5t-40 7.5h-164q-23 0 -40 -7.5t-28.5 -19.5t-17 -27t-5.5 -30v-405q0 -15 5.5 -30t17 -27
t28.5 -19.5t40 -7.5h164q23 0 40.5 7.5t28.5 19.5t16.5 27t5.5 30v405zM348 159l-78 158h-45v-158h-56v384h107q50 0 77 -20.5t27 -65.5v-53q0 -33 -14 -51.5t-40 -26.5l83 -167h-61zM319 457q0 21 -10 30t-33 9h-51v-133h51q43 0 43 40v54z" />
    <glyph glyph-name="macron" unicode="&#xaf;" 
d="M142 605v70h255v-70h-255z" />
    <glyph glyph-name="degree" unicode="&#xb0;" 
d="M411 516q0 -30 -10 -52.5t-27 -37t-40.5 -22t-49.5 -7.5h-28q-26 0 -49 7.5t-40.5 22t-27.5 37t-10 52.5v66q0 30 10 52.5t27.5 37.5t40.5 22t49 7h28q26 0 49.5 -7t40.5 -22t27 -37.5t10 -52.5v-66v0zM342 585q0 21 -16 37.5t-42 16.5h-28q-26 0 -42 -16.5t-16 -37.5
v-72q0 -21 16 -37.5t42 -16.5h28q26 0 42 16.5t16 37.5v72z" />
    <glyph glyph-name="plusminus" unicode="&#xb1;" 
d="M310 275v-132h-80v132h-150v75h150v158h80v-158h150v-75h-150zM80 0v75h380v-75h-380z" />
    <glyph glyph-name="twosuperior" unicode="&#xb2;" 
d="M150 205v73l112 153q16 21 25.5 35.5t15 26.5t7.5 25.5t2 32.5v36q0 23 -14 36t-47 13h-86v64h79q75 0 108 -28.5t33 -90.5v-23q0 -31 -3 -51t-9 -35t-16.5 -29.5t-25.5 -34.5l-103 -139h162v-64h-240z" />
    <glyph glyph-name="threesuperior" unicode="&#xb3;" 
d="M381 324q0 -63 -29 -91t-98 -28h-96v64h93q26 0 41 10.5t15 39.5v55q0 25 -15.5 38.5t-39.5 13.5h-71v64h63q23 0 39 13t16 39v42q0 29 -13 40.5t-42 11.5h-86v64h87q63 0 96 -27.5t33 -89.5v-35q0 -29 -12 -51t-32 -36q24 -13 37.5 -35.5t13.5 -56.5v-45v0z" />
    <glyph glyph-name="acute" unicode="&#xb4;" 
d="M168 580l104 135h104l-122 -135h-86z" />
    <glyph glyph-name="mu" unicode="&#xb5;" 
d="M103 -170v670h85v-360q0 -30 17.5 -47.5t47.5 -17.5h34q19 0 31.5 6t20 14t10.5 18t3 17v370h85v-500h-80v23q-33 -23 -80 -23h-14q-45 0 -75 10v-180h-85z" />
    <glyph glyph-name="paragraph" unicode="&#xb6;" 
d="M235 0v374h-6q-86 0 -126.5 33.5t-40.5 119.5v13q0 86 40 123t127 37h89v-70h-100q-38 0 -56.5 -20t-18.5 -50v-53q0 -30 18.5 -47.5t56.5 -17.5h100v-442h-83zM373 0v700h80v-700h-80z" />
    <glyph glyph-name="periodcentered" unicode="&#xb7;" 
d="M220 260v100h100v-100h-100z" />
    <glyph glyph-name="cedilla" unicode="&#xb8;" 
d="M183 -200v64h67q33 0 33 31q0 17 -9 23t-26 6h-49v126h70v-71q44 0 65.5 -16t21.5 -68q0 -33 -9 -52t-22 -28.5t-28.5 -12t-28.5 -2.5h-85z" />
    <glyph glyph-name="onesuperior" unicode="&#xb9;" 
d="M154 205v64h91v364l-99 -39v68l91 38h82v-431h74v-64h-239z" />
    <glyph glyph-name="ordmasculine" unicode="&#xba;" 
d="M132 0v75h276v-75h-276zM400 446q0 -64 -31 -92t-96 -28h-10q-66 0 -97 28t-31 92v136q0 64 31 92t97 28h10q65 0 96 -28t31 -92v-136v0zM332 593q0 23 -13.5 35.5t-42.5 12.5h-17q-28 0 -42 -12.5t-14 -35.5v-158q0 -23 14 -35.5t42 -12.5h17q29 0 42.5 12.5t13.5 35.5
v158z" />
    <glyph glyph-name="guillemotright" unicode="&#xbb;" 
d="M272 92l63 207l-63 207h66l89 -207l-89 -207h-66zM112 92l63 207l-63 207h66l89 -207l-89 -207h-66z" />
    <glyph glyph-name="onequarter" unicode="&#xbc;" 
d="M29 205v64h48v361l-66 -39v71l68 38h72v-431h34v-64h-156zM498 117v-117h-70v117h-101v74l54 304h69l-62 -314h36l27 143h47v-143h30v-64h-30zM193 -110h-74l256 920h74z" />
    <glyph glyph-name="onehalf" unicode="&#xbd;" 
d="M29 205v64h48v361l-66 -39v71l68 38h72v-431h34v-64h-156zM365 0v73l78 173q5 11 7.5 19.5t4 19.5t2 25.5t0.5 35.5v46q0 17 -9 28t-32 11h-36v64h29q37 0 60.5 -6t37 -19t18.5 -33.5t5 -50.5v-33q0 -33 -0.5 -54.5t-2.5 -36t-5.5 -25t-9.5 -21.5l-71 -152h94v-64h-170z
M197 -110h-74l242 920h88z" />
    <glyph glyph-name="threequarters" unicode="&#xbe;" 
d="M198 324q0 -62 -26.5 -90.5t-94.5 -28.5h-56v62h53q26 0 40 10.5t14 39.5v59q0 25 -14.5 38.5t-38.5 13.5h-31v60h23q23 0 38 13t15 39v46q0 29 -12 40.5t-41 11.5h-46v62h47q63 0 93 -27.5t30 -89.5v-35q0 -29 -12 -51t-32 -36q24 -13 37.5 -35.5t13.5 -56.5v-45v0z
M498 117v-117h-70v117h-101v74l54 304h69l-62 -314h36l27 143h47v-143h30v-64h-30zM187 -110h-74l256 920h74z" />
    <glyph glyph-name="questiondown" unicode="&#xbf;" 
d="M347 500v-100h-100v100h100zM131 -18q0 29 1.5 47.5t8.5 35t21.5 34t39.5 43.5l53 54v96h85v-121l-58 -61q-23 -24 -36 -39.5t-20 -27.5t-8.5 -23.5t-1.5 -28.5v-50q0 -30 17.5 -47.5t55.5 -17.5h125v-76h-115q-81 0 -124.5 35.5t-43.5 114.5v32v0z" />
    <glyph glyph-name="Agrave" unicode="&#xc0;" 
d="M274 726l-132 115h111l104 -115h-83zM270 634l-81 -382h163zM406 0l-38 177h-195l-39 -177h-89l169 700h115l166 -700h-89z" />
    <glyph glyph-name="Aacute" unicode="&#xc1;" 
d="M181 726l104 115h111l-132 -115h-83zM270 634l-89 -382h171zM406 0l-38 177h-195l-39 -177h-89l169 700h115l166 -700h-89z" />
    <glyph glyph-name="Acircumflex" unicode="&#xc2;" 
d="M329 730l-60 64l-60 -64h-96l110 115h92l111 -115h-97zM270 634l-81 -382h163zM406 0l-38 177h-195l-39 -177h-89l169 700h115l166 -700h-89z" />
    <glyph glyph-name="Atilde" unicode="&#xc3;" 
d="M270 634l-81 -382h163zM406 0l-38 177h-195l-39 -177h-89l169 700h115l166 -700h-89zM135 807q16 10 31 17q13 6 26 11t20 5h15q9 0 24 -6t31.5 -13.5t31.5 -14t24 -6.5h10q5 0 16 5.5t22 12.5q13 8 29 18v-72q-15 -9 -28 -16q-11 -6 -22 -11.5t-18 -5.5h-15
q-5 0 -20 6.5t-32.5 14t-33.5 13.5t-24 6h-10q-5 0 -17.5 -5.5t-26.5 -12.5q-16 -8 -33 -18v72z" />
    <glyph glyph-name="Adieresis" unicode="&#xc4;" 
d="M270 634l-81 -382h163zM406 0l-38 177h-195l-39 -177h-89l169 700h115l166 -700h-89zM332 735v80h74l11 -80h-85zM132 735v80h85v-80h-85z" />
    <glyph glyph-name="Aring" unicode="&#xc5;" 
d="M363 741q-2 -45 -28 -66l160 -675h-89l-38 177h-195l-39 -177h-89l163 674q-29 23 -29 67v29q0 44 25.5 64.5t63.5 20.5h6q38 0 63.5 -20.5t25.5 -64.5v-29v0zM270 634l-81 -382h163zM306 771q0 15 -6.5 26.5t-25.5 11.5h-6q-19 0 -26.5 -11.5t-7.5 -26.5v-31
q0 -15 7.5 -26.5t26.5 -11.5h6q19 0 25.5 11.5t6.5 26.5v31z" />
    <glyph glyph-name="AE" unicode="&#xc6;" 
d="M307 0l-15 177h-151l-42 -177h-84l176 700h307v-73h-173l23 -229h145v-73h-137l25 -252h137v-73h-211zM159 252h124l-36 375z" />
    <glyph glyph-name="Ccedilla" unicode="&#xc7;" 
d="M236 -200v64h67q33 0 33 31q0 17 -9 23t-26 6h-49v78q-69 8 -106 50t-37 118v360q0 86 46.5 128t133.5 42h142v-76h-152q-38 0 -60.5 -22.5t-22.5 -52.5v-398q0 -30 22.5 -52.5t60.5 -22.5h152v-76h-109v-21q44 0 65.5 -16t21.5 -68q0 -33 -9 -52t-22 -28.5t-28.5 -12
t-28.5 -2.5h-85z" />
    <glyph glyph-name="Egrave" unicode="&#xc8;" 
d="M269 726l-132 115h111l104 -115h-83zM103 0v700h334v-73h-247v-229h222v-73h-222v-252h247v-73h-334z" />
    <glyph glyph-name="Eacute" unicode="&#xc9;" 
d="M182 726l104 115h111l-132 -115h-83zM103 0v700h334v-73h-247v-229h222v-73h-222v-252h247v-73h-334z" />
    <glyph glyph-name="Ecircumflex" unicode="&#xca;" 
d="M330 730l-60 64l-60 -64h-96l110 115h92l111 -115h-97zM103 0v700h334v-73h-247v-229h222v-73h-222v-252h247v-73h-334z" />
    <glyph glyph-name="Edieresis" unicode="&#xcb;" 
d="M103 0v700h334v-73h-247v-229h222v-73h-222v-252h247v-73h-334zM327 735v80h85v-80h-85zM127 735v80h85v-80h-85z" />
    <glyph glyph-name="Igrave" unicode="&#xcc;" 
d="M268 726l-132 115h111l104 -115h-83zM139 0v73h90v554h-90v73h267v-73h-90v-554h90v-73h-267z" />
    <glyph glyph-name="Iacute" unicode="&#xcd;" 
d="M177 726l104 115h111l-132 -115h-83zM136 0v73h90v554h-90v73h267v-73h-90v-554h90v-73h-267z" />
    <glyph glyph-name="Icircumflex" unicode="&#xce;" 
d="M330 730l-60 64l-60 -64h-96l110 115h92l111 -115h-97zM137 0v73h90v554h-90v73h267v-73h-90v-554h90v-73h-267z" />
    <glyph glyph-name="Idieresis" unicode="&#xcf;" 
d="M136 0v73h90v554h-90v73h267v-73h-90v-554h90v-73h-267zM328 735v80h85v-80h-85zM128 735v80h85v-80h-85z" />
    <glyph glyph-name="Eth" unicode="&#xd0;" 
d="M467 158q0 -86 -40 -122t-130 -36h-206v325h-57v75h57v300h194q86 0 134 -35t48 -121v-386v0zM380 553q0 33 -20.5 52.5t-52.5 19.5h-129v-225h116v-75h-116v-250h128q38 0 56 17.5t18 55.5v405z" />
    <glyph glyph-name="Ntilde" unicode="&#xd1;" 
d="M317 0l-157 626v-626h-81v700h142l158 -626v626h81v-700h-143zM133 807q16 10 31 17q13 6 26 11t20 5h15q9 0 24 -6t31.5 -13.5t31.5 -14t24 -6.5h10q5 0 16 5.5t22 12.5q13 8 29 18v-72q-15 -9 -28 -16q-11 -6 -22 -11.5t-18 -5.5h-15q-5 0 -20 6.5t-32.5 14t-33.5 13.5
t-24 6h-10q-5 0 -17.5 -5.5t-26.5 -12.5q-16 -8 -33 -18v72z" />
    <glyph glyph-name="Ograve" unicode="&#xd2;" 
d="M268 726l-132 115h111l104 -115h-83zM470 170q0 -86 -46.5 -128t-133.5 -42h-40q-87 0 -133.5 42t-46.5 128v360q0 86 46.5 128t133.5 42h40q87 0 133.5 -42t46.5 -128v-360v0zM383 549q0 30 -22.5 52.5t-60.5 22.5h-60q-38 0 -60.5 -22.5t-22.5 -52.5v-398
q0 -30 22.5 -52.5t60.5 -22.5h60q38 0 60.5 22.5t22.5 52.5v398z" />
    <glyph glyph-name="Oacute" unicode="&#xd3;" 
d="M184 726l104 115h111l-132 -115h-83zM470 170q0 -86 -46.5 -128t-133.5 -42h-40q-87 0 -133.5 42t-46.5 128v360q0 86 46.5 128t133.5 42h40q87 0 133.5 -42t46.5 -128v-360v0zM383 549q0 30 -22.5 52.5t-60.5 22.5h-60q-38 0 -60.5 -22.5t-22.5 -52.5v-398
q0 -30 22.5 -52.5t60.5 -22.5h60q38 0 60.5 22.5t22.5 52.5v398z" />
    <glyph glyph-name="Ocircumflex" unicode="&#xd4;" 
d="M329 730l-60 64l-60 -64h-96l110 115h92l111 -115h-97zM470 170q0 -86 -46.5 -128t-133.5 -42h-40q-87 0 -133.5 42t-46.5 128v360q0 86 46.5 128t133.5 42h40q87 0 133.5 -42t46.5 -128v-360v0zM383 549q0 30 -22.5 52.5t-60.5 22.5h-60q-38 0 -60.5 -22.5t-22.5 -52.5
v-398q0 -30 22.5 -52.5t60.5 -22.5h60q38 0 60.5 22.5t22.5 52.5v398z" />
    <glyph glyph-name="Otilde" unicode="&#xd5;" 
d="M470 170q0 -86 -46.5 -128t-133.5 -42h-40q-87 0 -133.5 42t-46.5 128v360q0 86 46.5 128t133.5 42h40q87 0 133.5 -42t46.5 -128v-360v0zM383 549q0 30 -22.5 52.5t-60.5 22.5h-60q-38 0 -60.5 -22.5t-22.5 -52.5v-398q0 -30 22.5 -52.5t60.5 -22.5h60q38 0 60.5 22.5
t22.5 52.5v398zM132 807q16 10 31 17q13 6 26 11t20 5h15q9 0 24 -6t31.5 -13.5t31.5 -14t24 -6.5h10q5 0 16 5.5t22 12.5q13 8 29 18v-72q-15 -9 -28 -16q-11 -6 -22 -11.5t-18 -5.5h-15q-5 0 -20 6.5t-32.5 14t-33.5 13.5t-24 6h-10q-5 0 -17.5 -5.5t-26.5 -12.5
q-16 -8 -33 -18v72z" />
    <glyph glyph-name="Odieresis" unicode="&#xd6;" 
d="M331 735v80h85v-80h-85zM131 735v80h85v-80h-85zM470 170q0 -86 -46.5 -128t-133.5 -42h-40q-87 0 -133.5 42t-46.5 128v360q0 86 46.5 128t133.5 42h40q87 0 133.5 -42t46.5 -128v-360v0zM383 549q0 30 -22.5 52.5t-60.5 22.5h-60q-38 0 -60.5 -22.5t-22.5 -52.5v-398
q0 -30 22.5 -52.5t60.5 -22.5h60q38 0 60.5 22.5t22.5 52.5v398z" />
    <glyph glyph-name="multiply" unicode="&#xd7;" 
d="M270 253l-117 -116l-56 56l116 117l-116 117l56 56l117 -116l117 116l56 -56l-116 -117l116 -117l-56 -56z" />
    <glyph glyph-name="Oslash" unicode="&#xd8;" 
d="M470 170q0 -86 -46.5 -128t-133.5 -42h-40h-20.5t-18.5 2l-26 -93h-76l32 115q-71 42 -71 146v360q0 86 46.5 128t133.5 42h40q10 0 19 -0.5t18 -1.5l26 93h76l-32 -115q73 -40 73 -146v-360v0zM383 549q0 20 -11 37l-141 -510h69q38 0 60.5 22.5t22.5 52.5v398zM157 151
q0 -20 9 -35l140 508h-66q-38 0 -60.5 -22.5t-22.5 -52.5v-398v0z" />
    <glyph glyph-name="Ugrave" unicode="&#xd9;" 
d="M248 726l-132 115h111l104 -115h-83zM462 170q0 -86 -46.5 -128t-133.5 -42h-25q-87 0 -133.5 42t-46.5 128v530h87v-549q0 -30 22.5 -52.5t60.5 -22.5h45q38 0 60.5 22.5t22.5 52.5v549h87v-530v0z" />
    <glyph glyph-name="Uacute" unicode="&#xda;" 
d="M211 726l104 115h111l-132 -115h-83zM462 170q0 -86 -46.5 -128t-133.5 -42h-25q-87 0 -133.5 42t-46.5 128v530h87v-549q0 -30 22.5 -52.5t60.5 -22.5h45q38 0 60.5 22.5t22.5 52.5v549h87v-530v0z" />
    <glyph glyph-name="Ucircumflex" unicode="&#xdb;" 
d="M334 730l-60 64l-60 -64h-96l110 115h92l111 -115h-97zM462 170q0 -86 -46.5 -128t-133.5 -42h-25q-87 0 -133.5 42t-46.5 128v530h87v-549q0 -30 22.5 -52.5t60.5 -22.5h45q38 0 60.5 22.5t22.5 52.5v549h87v-530v0z" />
    <glyph glyph-name="Udieresis" unicode="&#xdc;" 
d="M329 735v80h85v-80h-85zM129 735v80h85v-80h-85zM462 170q0 -86 -46.5 -128t-133.5 -42h-25q-87 0 -133.5 42t-46.5 128v530h87v-549q0 -30 22.5 -52.5t60.5 -22.5h45q38 0 60.5 22.5t22.5 52.5v549h87v-530v0z" />
    <glyph glyph-name="Yacute" unicode="&#xdd;" 
d="M186 726l104 115h111l-132 -115h-83zM313 325v-325h-90v325l-179 375h96l132 -291l132 291h91z" />
    <glyph glyph-name="Thorn" unicode="&#xde;" 
d="M455 300q0 -83 -43.5 -120.5t-126.5 -37.5h-104v-142h-87v700h87v-130h102q83 0 127.5 -36.5t44.5 -119.5v-114v0zM368 423q0 38 -17.5 55t-55.5 17h-114v-278h114q38 0 55.5 17.5t17.5 55.5v133z" />
    <glyph glyph-name="germandbls" unicode="&#xdf;" 
d="M78 0v560q0 38 12.5 64.5t33.5 43t48 24.5t56 8h39q87 0 128.5 -36.5t41.5 -123.5v-125h-78q-31 0 -43 -11t-12 -34v-15q0 -24 12 -34.5t31 -10.5q56 0 87.5 -32t31.5 -88v-65q0 -26 -8 -49t-25 -40t-43 -26.5t-62 -9.5h-112v75h118q47 0 47 45v70q0 20 -10 32.5
t-36 12.5q-51 0 -83.5 32.5t-32.5 88.5v10q0 34 9.5 56.5t27 36t42 20t54.5 7.5v74q0 30 -18.5 47.5t-56.5 17.5h-54q-19 0 -30.5 -6t-18 -14t-9 -17.5t-2.5 -17.5v-570h-85z" />
    <glyph glyph-name="agrave" unicode="&#xe0;" 
d="M417 0q-14 0 -29 8t-26 22q-11 -14 -26 -22t-35 -8h-89q-75 0 -110 30t-35 105v20q0 75 35.5 115t110.5 40h124v50q0 30 -18.5 47.5t-56.5 17.5h-155v75h145q87 0 128.5 -37t41.5 -123v-240q0 -15 11 -22.5t39 -7.5v-70h-55zM291 75q17 0 26.5 5t14 12.5t5 16.5t0.5 16
v110h-125q-26 0 -43 -17t-17 -43v-50q0 -50 50 -50h89v0zM256 580l-122 135h104l104 -135h-86z" />
    <glyph glyph-name="aacute" unicode="&#xe1;" 
d="M417 0q-14 0 -29 8t-26 22q-11 -14 -26 -22t-35 -8h-89q-75 0 -110 30t-35 105v20q0 75 35.5 115t110.5 40h124v50q0 30 -18.5 47.5t-56.5 17.5h-155v75h145q87 0 128.5 -37t41.5 -123v-240q0 -15 11 -22.5t39 -7.5v-70h-55zM291 75q17 0 26.5 5t14 12.5t5 16.5t0.5 16
v110h-125q-26 0 -43 -17t-17 -43v-50q0 -50 50 -50h89v0zM202 580l104 135h104l-122 -135h-86z" />
    <glyph glyph-name="acircumflex" unicode="&#xe2;" 
d="M417 0q-14 0 -29 8t-26 22q-11 -14 -26 -22t-35 -8h-89q-75 0 -110 30t-35 105v20q0 75 35.5 115t110.5 40h124v50q0 30 -18.5 47.5t-56.5 17.5h-155v75h145q87 0 128.5 -37t41.5 -123v-240q0 -15 11 -22.5t39 -7.5v-70h-55zM291 75q17 0 26.5 5t14 12.5t5 16.5t0.5 16
v110h-125q-26 0 -43 -17t-17 -43v-50q0 -50 50 -50h89v0zM314 580l-60 75l-60 -75h-96l112 135h88l113 -135h-97z" />
    <glyph glyph-name="atilde" unicode="&#xe3;" 
d="M417 0q-14 0 -29 8t-26 22q-11 -14 -26 -22t-35 -8h-89q-75 0 -110 30t-35 105v20q0 75 35.5 115t110.5 40h124v50q0 30 -18.5 47.5t-56.5 17.5h-155v75h145q87 0 128.5 -37t41.5 -123v-240q0 -15 11 -22.5t39 -7.5v-70h-55zM291 75q17 0 26.5 5t14 12.5t5 16.5t0.5 16
v110h-125q-26 0 -43 -17t-17 -43v-50q0 -50 50 -50h89v0zM106 667q16 10 31 17q13 6 26 11t20 5h15q9 0 24 -6t31.5 -13.5t31.5 -14t24 -6.5h10q5 0 16 5.5t22 12.5q13 8 29 18v-72q-15 -9 -28 -16q-11 -6 -22 -11.5t-18 -5.5h-15q-5 0 -20 6.5t-32.5 14t-33.5 13.5t-24 6
h-10q-5 0 -17.5 -5.5t-26.5 -12.5q-16 -8 -33 -18v72z" />
    <glyph glyph-name="adieresis" unicode="&#xe4;" 
d="M417 0q-14 0 -29 8t-26 22q-11 -14 -26 -22t-35 -8h-89q-75 0 -110 30t-35 105v20q0 75 35.5 115t110.5 40h124v50q0 30 -18.5 47.5t-56.5 17.5h-155v75h145q87 0 128.5 -37t41.5 -123v-240q0 -15 11 -22.5t39 -7.5v-70h-55zM291 75q17 0 26.5 5t14 12.5t5 16.5t0.5 16
v110h-125q-26 0 -43 -17t-17 -43v-50q0 -50 50 -50h89v0zM306 595v80h85v-80h-85zM106 595v80h85v-80h-85z" />
    <glyph glyph-name="aring" unicode="&#xe5;" 
d="M344 633q0 -43 -25.5 -64t-63.5 -21h-6q-38 0 -63.5 21t-25.5 64v29q0 44 25.5 64.5t63.5 20.5h6q38 0 63.5 -20.5t25.5 -64.5v-29v0zM287 663q0 15 -6.5 26.5t-25.5 11.5h-6q-19 0 -26.5 -11.5t-7.5 -26.5v-31q0 -15 7.5 -26.5t26.5 -11.5h6q19 0 25.5 11.5t6.5 26.5v31
zM417 0q-14 0 -29 8t-26 22q-11 -14 -26 -22t-35 -8h-89q-75 0 -110 30t-35 105v20q0 75 35.5 115t110.5 40h124v50q0 30 -18.5 47.5t-56.5 17.5h-155v75h145q87 0 128.5 -37t41.5 -123v-240q0 -15 11 -22.5t39 -7.5v-70h-55zM291 75q17 0 26.5 5t14 12.5t5 16.5t0.5 16v110
h-125q-26 0 -43 -17t-17 -43v-50q0 -50 50 -50h89v0z" />
    <glyph glyph-name="ae" unicode="&#xe6;" 
d="M395 0q-48 0 -78 10.5t-44 36.5q-10 -18 -34 -32.5t-65 -14.5h-14q-64 0 -99.5 30t-35.5 105v12q0 75 33 115t108 40h66v58q0 30 -14.5 47.5t-52.5 17.5h-105v75h95q47 0 73 -9.5t47 -27.5q9 9 18.5 16t20.5 11.5t25.5 7t35.5 2.5h7q72 0 103 -40t31 -115v-116h-201v-97
q2 -28 18 -43.5t52 -15.5h99v-73h-89zM232 229h-69q-26 0 -40.5 -18t-14.5 -44v-44q0 -50 50 -50h26q17 0 27 5t14.5 12.5t5.5 16.5t1 16v106zM315 302h120v65q0 26 -13 43t-39 17h-8q-38 0 -49 -17.5t-11 -47.5v-60z" />
    <glyph glyph-name="ccedilla" unicode="&#xe7;" 
d="M226 -200v64h67q33 0 33 31q0 17 -9 23t-26 6h-49v79q-62 9 -92 46t-30 111v180q0 86 41.5 123t128.5 37h129v-75h-139q-38 0 -56.5 -17.5t-18.5 -47.5v-220q0 -30 18.5 -47.5t56.5 -17.5h139v-75h-107v-21q44 0 65.5 -16t21.5 -68q0 -33 -9 -52t-22 -28.5t-28.5 -12
t-28.5 -2.5h-85z" />
    <glyph glyph-name="egrave" unicode="&#xe8;" 
d="M264 0q-87 0 -128.5 36.5t-41.5 123.5v180q0 86 37 123t123 37h47q72 0 108 -40t36 -115v-130h-266v-75q0 -30 18.5 -47.5t56.5 -17.5h159v-75h-149zM179 290h183v75q0 26 -17 43t-43 17h-58q-38 0 -51.5 -17.5t-13.5 -47.5v-70zM279 580l-122 135h104l104 -135h-86z" />
    <glyph glyph-name="eacute" unicode="&#xe9;" 
d="M264 0q-87 0 -128.5 36.5t-41.5 123.5v180q0 86 37 123t123 37h47q72 0 108 -40t36 -115v-130h-266v-75q0 -30 18.5 -47.5t56.5 -17.5h159v-75h-149zM179 290h183v75q0 26 -17 43t-43 17h-58q-38 0 -51.5 -17.5t-13.5 -47.5v-70zM218 580l104 135h104l-122 -135h-86z" />
    <glyph glyph-name="ecircumflex" unicode="&#xea;" 
d="M264 0q-87 0 -128.5 36.5t-41.5 123.5v180q0 86 37 123t123 37h47q72 0 108 -40t36 -115v-130h-266v-75q0 -30 18.5 -47.5t56.5 -17.5h159v-75h-149zM179 290h183v75q0 26 -17 43t-43 17h-58q-38 0 -51.5 -17.5t-13.5 -47.5v-70zM331 580l-60 75l-60 -75h-96l112 135h88
l113 -135h-97z" />
    <glyph glyph-name="edieresis" unicode="&#xeb;" 
d="M264 0q-87 0 -128.5 36.5t-41.5 123.5v180q0 86 37 123t123 37h47q72 0 108 -40t36 -115v-130h-266v-75q0 -30 18.5 -47.5t56.5 -17.5h159v-75h-149zM179 290h183v75q0 26 -17 43t-43 17h-58q-38 0 -51.5 -17.5t-13.5 -47.5v-70zM333 595v80h85v-80h-85zM133 595v80h85
v-80h-85z" />
    <glyph glyph-name="igrave" unicode="&#xec;" 
d="M271 580l-122 135h104l104 -135h-86zM227 0v425h-147v75h232v-425h148v-75h-233z" />
    <glyph glyph-name="iacute" unicode="&#xed;" 
d="M205 580l104 135h104l-122 -135h-86zM227 0v425h-147v75h232v-425h148v-75h-233z" />
    <glyph glyph-name="icircumflex" unicode="&#xee;" 
d="M333 580l-60 75l-60 -75h-96l112 135h88l113 -135h-97zM227 0v425h-147v75h232v-425h148v-75h-233z" />
    <glyph glyph-name="idieresis" unicode="&#xef;" 
d="M328 595v80h85v-80h-85zM128 595v80h85v-80h-85zM227 0v425h-147v75h232v-425h148v-75h-233z" />
    <glyph glyph-name="eth" unicode="&#xf0;" 
d="M270 566h-82l35 60h-76v74h119l30 50h82l-36 -60q103 -32 103 -160v-360q0 -43 -12.5 -75t-34.5 -53t-50.5 -31.5t-60.5 -10.5h-35q-32 0 -60.5 10.5t-50.5 31.5t-34.5 53t-12.5 75v130q0 86 41.5 123t126.5 37h98v89q0 24 -15.5 44.5t-41.5 28.5zM252 385
q-38 0 -55.5 -18t-17.5 -48v-168q0 -30 20 -53t58 -23h25q38 0 58 23t20 53v234h-108z" />
    <glyph glyph-name="ntilde" unicode="&#xf1;" 
d="M87 0v500h80v-24q17 13 37 18.5t43 5.5h46q79 0 119.5 -36.5t40.5 -123.5v-340h-85v360q0 30 -17.5 47.5t-47.5 17.5h-66q-19 0 -31.5 -6t-20 -14t-10.5 -17.5t-3 -17.5v-370h-85zM137 667q16 10 31 17q13 6 26 11t20 5h15q9 0 24 -6t31.5 -13.5t31.5 -14t24 -6.5h10
q5 0 16 5.5t22 12.5q13 8 29 18v-72q-15 -9 -28 -16q-11 -6 -22 -11.5t-18 -5.5h-15q-5 0 -20 6.5t-32.5 14t-33.5 13.5t-24 6h-10q-5 0 -17.5 -5.5t-26.5 -12.5q-16 -8 -33 -18v72z" />
    <glyph glyph-name="ograve" unicode="&#xf2;" 
d="M452 160q0 -86 -41.5 -123t-128.5 -37h-33q-87 0 -128.5 37t-41.5 123v180q0 86 41.5 123t128.5 37h33q87 0 128.5 -37t41.5 -123v-180v0zM367 360q0 30 -18.5 47.5t-56.5 17.5h-53q-38 0 -56.5 -17.5t-18.5 -47.5v-220q0 -30 18.5 -47.5t56.5 -17.5h53q38 0 56.5 17.5
t18.5 47.5v220zM279 580l-122 135h104l104 -135h-86z" />
    <glyph glyph-name="oacute" unicode="&#xf3;" 
d="M456 160q0 -86 -41.5 -123t-128.5 -37h-33q-87 0 -128.5 37t-41.5 123v180q0 86 41.5 123t128.5 37h33q87 0 128.5 -37t41.5 -123v-180v0zM371 360q0 30 -18.5 47.5t-56.5 17.5h-53q-38 0 -56.5 -17.5t-18.5 -47.5v-220q0 -30 18.5 -47.5t56.5 -17.5h53q38 0 56.5 17.5
t18.5 47.5v220zM169 580l104 135h104l-122 -135h-86z" />
    <glyph glyph-name="ocircumflex" unicode="&#xf4;" 
d="M456 160q0 -86 -41.5 -123t-128.5 -37h-33q-87 0 -128.5 37t-41.5 123v180q0 86 41.5 123t128.5 37h33q87 0 128.5 -37t41.5 -123v-180v0zM371 360q0 30 -18.5 47.5t-56.5 17.5h-53q-38 0 -56.5 -17.5t-18.5 -47.5v-220q0 -30 18.5 -47.5t56.5 -17.5h53q38 0 56.5 17.5
t18.5 47.5v220zM330 580l-60 75l-60 -75h-96l112 135h88l113 -135h-97z" />
    <glyph glyph-name="otilde" unicode="&#xf5;" 
d="M456 160q0 -86 -41.5 -123t-128.5 -37h-33q-87 0 -128.5 37t-41.5 123v180q0 86 41.5 123t128.5 37h33q87 0 128.5 -37t41.5 -123v-180v0zM371 360q0 30 -18.5 47.5t-56.5 17.5h-53q-38 0 -56.5 -17.5t-18.5 -47.5v-220q0 -30 18.5 -47.5t56.5 -17.5h53q38 0 56.5 17.5
t18.5 47.5v220zM130 667q16 10 31 17q13 6 26 11t20 5h15q9 0 24 -6t31.5 -13.5t31.5 -14t24 -6.5h10q5 0 16 5.5t22 12.5q13 8 29 18v-72q-15 -9 -28 -16q-11 -6 -22 -11.5t-18 -5.5h-15q-5 0 -20 6.5t-32.5 14t-33.5 13.5t-24 6h-10q-5 0 -17.5 -5.5t-26.5 -12.5
q-16 -8 -33 -18v72z" />
    <glyph glyph-name="odieresis" unicode="&#xf6;" 
d="M456 160q0 -86 -41.5 -123t-128.5 -37h-33q-87 0 -128.5 37t-41.5 123v180q0 86 41.5 123t128.5 37h33q87 0 128.5 -37t41.5 -123v-180v0zM371 360q0 30 -18.5 47.5t-56.5 17.5h-53q-38 0 -56.5 -17.5t-18.5 -47.5v-220q0 -30 18.5 -47.5t56.5 -17.5h53q38 0 56.5 17.5
t18.5 47.5v220zM328 595v80h85v-80h-85zM128 595v80h85v-80h-85z" />
    <glyph glyph-name="divide" unicode="&#xf7;" 
d="M80 275v75h380v-75h-380zM220 65v100h100v-100h-100zM220 460v100h100v-100h-100z" />
    <glyph glyph-name="oslash" unicode="&#xf8;" 
d="M456 160q0 -86 -41.5 -123t-128.5 -37h-53l-27 -89h-78l31 104q-38 17 -57 52t-19 93v180q0 86 41.5 123t128.5 37h33h10t10 -1l28 90h77l-32 -105q39 -17 58 -51.5t19 -92.5v-180v0zM168 140q0 -28 15 -45l101 330h-41q-38 0 -56.5 -17.5t-18.5 -47.5v-220v0zM371 360
q0 28 -16 44l-100 -329h41q38 0 56.5 17.5t18.5 47.5v220z" />
    <glyph glyph-name="ugrave" unicode="&#xf9;" 
d="M367 0v23q-33 -23 -80 -23h-34q-79 0 -119.5 36.5t-40.5 123.5v340h85v-360q0 -30 17.5 -47.5t47.5 -17.5h54q18 0 30 5t19.5 13t11 17t4.5 17v373h85v-500h-80zM257 580l-122 135h104l104 -135h-86z" />
    <glyph glyph-name="uacute" unicode="&#xfa;" 
d="M367 0v23q-33 -23 -80 -23h-34q-79 0 -119.5 36.5t-40.5 123.5v340h85v-360q0 -30 17.5 -47.5t47.5 -17.5h54q18 0 30 5t19.5 13t11 17t4.5 17v373h85v-500h-80zM217 580l104 135h104l-122 -135h-86z" />
    <glyph glyph-name="ucircumflex" unicode="&#xfb;" 
d="M367 0v23q-33 -23 -80 -23h-34q-79 0 -119.5 36.5t-40.5 123.5v340h85v-360q0 -30 17.5 -47.5t47.5 -17.5h54q18 0 30 5t19.5 13t11 17t4.5 17v373h85v-500h-80zM329 580l-60 75l-60 -75h-96l112 135h88l113 -135h-97z" />
    <glyph glyph-name="udieresis" unicode="&#xfc;" 
d="M367 0v23q-33 -23 -80 -23h-34q-79 0 -119.5 36.5t-40.5 123.5v340h85v-360q0 -30 17.5 -47.5t47.5 -17.5h54q18 0 30 5t19.5 13t11 17t4.5 17v373h85v-500h-80zM325 595v80h85v-80h-85zM125 595v80h85v-80h-85z" />
    <glyph glyph-name="yacute" unicode="&#xfd;" 
d="M180 -95q23 0 35.5 8.5t18.5 31.5l14 55h-20l-165 500h92l125 -419l109 419h87l-155 -554q-10 -40 -23.5 -63t-30.5 -35t-37 -15t-44 -3h-48v75h42zM195 580l104 135h104l-122 -135h-86z" />
    <glyph glyph-name="thorn" unicode="&#xfe;" 
d="M97 -170v870h85v-870h-85zM453 160q0 -86 -41.5 -123t-128.5 -37h-131v75h141q38 0 56.5 17.5t18.5 47.5v220q0 30 -18.5 47.5t-56.5 17.5h-46q-19 0 -31.5 -6t-20 -14t-10.5 -17.5t-3 -17.5l-57 29q17 54 52 77.5t80 23.5h26q87 0 128.5 -36.5t41.5 -123.5v-180v0z" />
    <glyph glyph-name="ydieresis" unicode="&#xff;" 
d="M180 -95q23 0 35.5 8.5t18.5 31.5l14 55h-20l-165 500h92l125 -419l109 419h87l-155 -554q-10 -40 -23.5 -63t-30.5 -35t-37 -15t-44 -3h-48v75h42zM327 595v80h85v-80h-85zM127 595v80h85v-80h-85z" />
    <glyph glyph-name="dotlessi" unicode="&#x131;" 
d="M227 0v425h-147v75h232v-425h148v-75h-233z" />
    <glyph glyph-name="Lslash" unicode="&#x141;" 
d="M165 0v343l-90 -43v80l90 43v277h87v-235l113 55v-80l-113 -55v-309h223v-76h-310z" />
    <glyph glyph-name="lslash" unicode="&#x142;" 
d="M302 0q-15 0 -30 5t-27 16.5t-20 31t-8 47.5v223l-82 -23v78l82 24v223h-147v75h232v-274l104 31v-79l-104 -30v-243q0 -16 7.5 -23t27.5 -7h133v-75h-168z" />
    <glyph glyph-name="OE" unicode="&#x152;" 
d="M206 0q-87 0 -133.5 42t-46.5 128v360q0 86 46.5 128t133.5 42h317v-73h-176q11 -20 17.5 -44t6.5 -53v-132h137v-73h-137v-155q0 -29 -6.5 -53.5t-17.5 -43.5h176v-73h-317zM284 549q0 30 -22.5 52.5t-60.5 22.5h-5q-38 0 -60.5 -22.5t-22.5 -52.5v-398
q0 -30 22.5 -52.5t60.5 -22.5h5q38 0 60.5 22.5t22.5 52.5v398z" />
    <glyph glyph-name="oe" unicode="&#x153;" 
d="M397 0q-50 0 -76 9.5t-41 29.5q-16 -17 -37.5 -28t-66.5 -11h-3q-78 0 -112.5 37t-34.5 118v190q0 86 34.5 120.5t112.5 34.5h3q43 0 64 -11.5t38 -27.5q14 17 38 28t67 11h1q68 0 100 -35t32 -110v-140h-193v-77q0 -30 17 -47.5t55 -17.5h94v-73h-92zM240 362
q0 30 -12.5 47.5t-41.5 17.5h-23q-29 0 -41.5 -17.5t-12.5 -47.5v-224q0 -30 12 -47.5t42 -17.5h23q30 0 42 17.5t12 47.5v224zM323 288h112v79q0 26 -10.5 43t-41.5 17h-3q-36 0 -46.5 -17.5t-10.5 -47.5v-74z" />
    <glyph glyph-name="Scaron" unicode="&#x160;" 
d="M223 845l60 -67l60 67h96l-112 -115h-88l-113 115h97zM439 170q0 -86 -46.5 -128t-133.5 -42h-142v76h152q38 0 60.5 22.5t22.5 52.5v104q0 29 -15 48t-47 19h-30q-72 0 -116 42t-44 128v38q0 86 46.5 128t133.5 42h143v-76h-153q-38 0 -60.5 -22.5t-22.5 -52.5v-76
q0 -30 19.5 -51t52.5 -21h30q69 0 109.5 -39.5t40.5 -125.5v-66v0z" />
    <glyph glyph-name="scaron" unicode="&#x161;" 
d="M415 125q0 -65 -39 -95t-111 -30h-149v75h159q55 0 55 45v53q0 45 -43 45h-37q-69 0 -104 29.5t-35 97.5v29q0 70 39 98t111 28h134v-75h-144q-24 0 -39.5 -11t-15.5 -34v-36q0 -24 14.5 -34.5t33.5 -10.5h34q67 0 102 -32.5t35 -96.5v-45v0zM216 714l60 -75l60 75h96
l-112 -135h-88l-113 135h97z" />
    <glyph glyph-name="Ydieresis" unicode="&#x178;" 
d="M313 325v-325h-90v325l-179 375h96l132 -291l132 291h91zM328 735v80h85v-80h-85zM128 735v80h85v-80h-85z" />
    <glyph glyph-name="Zcaron" unicode="&#x17d;" 
d="M226 845l60 -67l60 67h96l-112 -115h-88l-113 115h97zM178 74h263v-74h-354v88l274 538h-251v74h341v-88z" />
    <glyph glyph-name="zcaron" unicode="&#x17e;" 
d="M263 74h222v-74h-318v80l234 346h-214v74h308v-89zM286 714l60 -75l60 75h96l-112 -135h-88l-113 135h97z" />
    <glyph glyph-name="florin" unicode="&#x192;" 
d="M345 625q-17 0 -26 -8.5t-9 -21.5v-95h161v-75h-161v-485q0 -53 -29.5 -81.5t-74.5 -28.5h-127v75h111q17 0 26 8.5t9 21.5v490h-85v75h85v90q0 53 29.5 81.5t74.5 28.5h152v-75h-136z" />
    <glyph glyph-name="circumflex" unicode="&#x2c6;" 
d="M329 580l-60 75l-60 -75h-96l112 135h88l113 -135h-97z" />
    <glyph glyph-name="caron" unicode="&#x2c7;" 
d="M210 714l60 -75l60 75h96l-112 -135h-88l-113 135h97z" />
    <glyph glyph-name="uni02C9" unicode="&#x2c9;" 
d="M142 605v70h255v-70h-255z" />
    <glyph glyph-name="breve" unicode="&#x2d8;" 
d="M280 649q33 0 41.5 19.5t8.5 46.5h82q0 -21 -6 -43.5t-21 -42t-40.5 -32t-64.5 -12.5h-20q-39 0 -64.5 12.5t-40.5 32t-21 42t-6 43.5h82q0 -27 8.5 -46.5t41.5 -19.5h20v0z" />
    <glyph glyph-name="dotaccent" unicode="&#x2d9;" 
d="M227 615v85h85v-85h-85z" />
    <glyph glyph-name="ring" unicode="&#x2da;" 
d="M362 633q0 -43 -25.5 -64t-63.5 -21h-6q-38 0 -63.5 21t-25.5 64v29q0 44 25.5 64.5t63.5 20.5h6q38 0 63.5 -20.5t25.5 -64.5v-29v0zM305 663q0 15 -6.5 26.5t-25.5 11.5h-6q-19 0 -26.5 -11.5t-7.5 -26.5v-31q0 -15 7.5 -26.5t26.5 -11.5h6q19 0 25.5 11.5t6.5 26.5v31
z" />
    <glyph glyph-name="ogonek" unicode="&#x2db;" 
d="M269 -180q-13 0 -28.5 2.5t-28.5 12t-22 28.5t-9 52v145h74v-145q0 -17 8 -22.5t24 -5.5h71v-67h-89z" />
    <glyph glyph-name="tilde" unicode="&#x2dc;" 
d="M130 667q16 10 31 17q13 6 26 11t20 5h15q9 0 24 -6t31.5 -13.5t31.5 -14t24 -6.5h10q5 0 16 5.5t22 12.5q13 8 29 18v-72q-15 -9 -28 -16q-11 -6 -22 -11.5t-18 -5.5h-15q-5 0 -20 6.5t-32.5 14t-33.5 13.5t-24 6h-10q-5 0 -17.5 -5.5t-26.5 -12.5q-16 -8 -33 -18v72z
" />
    <glyph glyph-name="hungarumlaut" unicode="&#x2dd;" 
d="M168 598h-91l103 147h115zM338 598h-91l103 147h115z" />
    <glyph glyph-name="uni03BC" unicode="&#x3bc;" 
d="M103 -170v670h85v-360q0 -30 17.5 -47.5t47.5 -17.5h34q19 0 31.5 6t20 14t10.5 18t3 17v370h85v-500h-80v23q-33 -23 -80 -23h-14q-45 0 -75 10v-180h-85z" />
    <glyph glyph-name="pi" unicode="&#x3c0;" 
d="M127 0v427h-79v73h444v-73h-90v-322q0 -16 7.5 -23t27.5 -7h15v-75h-50q-15 0 -30 5t-27 16.5t-20 31t-8 47.5v327h-105v-427h-85z" />
    <glyph glyph-name="endash" unicode="&#x2013;" 
d="M80 275v75h380v-75h-380z" />
    <glyph glyph-name="emdash" unicode="&#x2014;" 
d="M32 275v75h475v-75h-475z" />
    <glyph glyph-name="quoteleft" unicode="&#x2018;" 
d="M262 699h70l-30 -157v-90h-95v90z" />
    <glyph glyph-name="quoteright" unicode="&#x2019;" 
d="M277 453h-70l30 157v90h95v-90z" />
    <glyph glyph-name="quotesinglbase" unicode="&#x201a;" 
d="M277 -157h-70l30 157v90h95v-90z" />
    <glyph glyph-name="quotedblleft" unicode="&#x201c;" 
d="M185 699h70l-30 -157v-90h-95v90zM340 699h70l-30 -157v-90h-95v90z" />
    <glyph glyph-name="quotedblright" unicode="&#x201d;" 
d="M355 453h-70l30 157v90h95v-90zM200 453h-70l30 157v90h95v-90z" />
    <glyph glyph-name="quotedblbase" unicode="&#x201e;" 
d="M355 -157h-70l30 157v90h95v-90zM200 -157h-70l30 157v90h95v-90z" />
    <glyph glyph-name="dagger" unicode="&#x2020;" 
d="M230 0v425h-141v75h141v200h80v-200h140v-75h-140v-425h-80z" />
    <glyph glyph-name="daggerdbl" unicode="&#x2021;" 
d="M230 0v210h-141v75h141v140h-141v75h141v200h80v-200h140v-75h-140v-140h140v-75h-140v-210h-80z" />
    <glyph glyph-name="bullet" unicode="&#x2022;" 
d="M195 235v155h150v-155h-150z" />
    <glyph glyph-name="ellipsis" unicode="&#x2026;" 
d="M40 0v100h100v-100h-100zM220 0v100h100v-100h-100zM400 0v100h100v-100h-100z" />
    <glyph glyph-name="perthousand" unicode="&#x2030;" 
d="M14 301v62l515 73v-62zM261 532q0 -65 -32.5 -96.5t-89.5 -31.5h-8q-57 0 -89.5 31.5t-32.5 96.5v40q0 65 32.5 96.5t89.5 31.5h8q57 0 89.5 -31.5t32.5 -96.5v-40v0zM191 583q0 23 -12 40t-40 17h-8q-28 0 -40 -17t-12 -40v-62q0 -23 12 -40t40 -17h8q28 0 40 17t12 40
v62zM261 128q0 -65 -32.5 -96.5t-89.5 -31.5h-8q-57 0 -89.5 31.5t-32.5 96.5v40q0 65 32.5 96.5t89.5 31.5h8q57 0 89.5 -31.5t32.5 -96.5v-40v0zM191 179q0 23 -12 40t-40 17h-8q-28 0 -40 -17t-12 -40v-62q0 -23 12 -40t40 -17h8q28 0 40 17t12 40v62zM531 128
q0 -65 -32.5 -96.5t-89.5 -31.5h-8q-57 0 -89.5 31.5t-32.5 96.5v40q0 65 32.5 96.5t89.5 31.5h8q57 0 89.5 -31.5t32.5 -96.5v-40v0zM461 179q0 23 -12 40t-40 17h-8q-28 0 -40 -17t-12 -40v-62q0 -23 12 -40t40 -17h8q28 0 40 17t12 40v62z" />
    <glyph glyph-name="guilsinglleft" unicode="&#x2039;" 
d="M281 92l-89 207l89 207h66l-63 -207l63 -207h-66z" />
    <glyph glyph-name="guilsinglright" unicode="&#x203a;" 
d="M192 92l63 207l-63 207h66l89 -207l-89 -207h-66z" />
    <glyph glyph-name="fraction" unicode="&#x2044;" 
d="M179 -110h-74l256 920h74z" />
    <glyph glyph-name="Euro" unicode="&#x20ac;" 
d="M415 407h-169v-97h169v-73h-169v-86q0 -30 22.5 -52.5t60.5 -22.5h122v-76h-112q-87 0 -133.5 42t-46.5 128v67h-70v73h70v97h-70v73h70v50q0 86 46.5 128t133.5 42h112v-76h-122q-38 0 -60.5 -22.5t-22.5 -52.5v-69h169v-73z" />
    <glyph glyph-name="trademark" unicode="&#x2122;" 
d="M458 194v420l-53 -253h-53l-54 253v-420h-65v447h-65v-447h-68v447h-86v59h325l42 -207l40 207h103v-506h-66z" />
    <glyph glyph-name="Omega" unicode="&#x2126;" 
d="M312 0v76q28 0 46.5 22.5t18.5 52.5v398q0 30 -22.5 52.5t-60.5 22.5h-54q-38 0 -60.5 -22.5t-22.5 -52.5v-398q0 -30 20.5 -52.5t50.5 -22.5v-76h-183v76h49q-11 20 -17.5 44t-6.5 50v360q0 86 46.5 128t133.5 42h34q87 0 133.5 -42t46.5 -128v-360q0 -53 -23 -94h54
v-76h-183z" />
    <glyph glyph-name="partialdiff" unicode="&#x2202;" 
d="M96 280q0 86 41.5 123t126.5 37h98v109q0 30 -22.5 52.5t-60.5 22.5h-135v76h125q87 0 132.5 -42t45.5 -128v-360q0 -43 -12.5 -75t-34.5 -53t-50.5 -31.5t-60.5 -10.5h-35q-32 0 -60.5 10.5t-50.5 31.5t-34.5 53t-12.5 75v110zM254 365q-38 0 -55.5 -18t-17.5 -48v-148
q0 -30 20 -53t58 -23h25q38 0 58 23t20 53v214h-108z" />
    <glyph glyph-name="Delta" unicode="&#x2206;" 
d="M50 0l168 700h111l161 -700h-440zM273 625l-115 -550h224z" />
    <glyph glyph-name="product" unicode="&#x220f;" 
d="M122 0v625h-79v75h454v-75h-91v-520q0 -16 6.5 -23t26.5 -7h15v-75h-50q-15 0 -30 5t-27 16.5t-20 31t-8 47.5v525h-110v-625h-87z" />
    <glyph glyph-name="summation" unicode="&#x2211;" 
d="M77 -170v94l168 343l-155 338v95h361v-75h-273l162 -358l-177 -363h299v-74h-385z" />
    <glyph glyph-name="minus" unicode="&#x2212;" 
d="M80 275v75h380v-75h-380z" />
    <glyph glyph-name="uni2215" unicode="&#x2215;" 
d="M150 -100h-80l320 910h80z" />
    <glyph glyph-name="uni2219" unicode="&#x2219;" 
d="M220 260v100h100v-100h-100z" />
    <glyph glyph-name="radical" unicode="&#x221a;" 
d="M411 745l-165 -745h-125l-99 392h89l72 -311l157 739h177v-75h-106z" />
    <glyph glyph-name="infinity" unicode="&#x221e;" 
d="M270 194q-18 -26 -42 -39.5t-64 -13.5h-10q-41 0 -68.5 10.5t-43.5 30.5t-22.5 49.5t-6.5 66.5v20q0 38 6.5 67t22.5 49t43.5 30.5t68.5 10.5h10q40 0 65 -13.5t43 -39.5q18 26 41 39.5t63 13.5h10q41 0 68.5 -10.5t43.5 -30.5t22.5 -49t6.5 -67v-15q0 -37 -6.5 -67
t-22.5 -51t-43.5 -32.5t-68.5 -11.5h-10q-40 0 -64 13.5t-42 39.5zM448 342q-2 34 -16.5 48.5t-50.5 14.5h-7q-32 0 -46.5 -18.5t-16.5 -46.5v-58q0 -30 14.5 -50.5t48.5 -20.5h7q38 0 52.5 16.5t14.5 54.5v60zM92 274q2 -34 16.5 -48.5t50.5 -14.5h7q32 0 46.5 18.5
t16.5 46.5v58q0 30 -14.5 50.5t-48.5 20.5h-7q-38 0 -52.5 -16.5t-14.5 -54.5v-60z" />
    <glyph glyph-name="uni2224" unicode="&#x2224;" 
d="M220 260v100h100v-100h-100z" />
    <glyph glyph-name="logicaland" unicode="&#x2227;" 
d="M220 260v100h100v-100h-100z" />
    <glyph glyph-name="integral" unicode="&#x222b;" 
d="M190 -160q17 0 26 8.5t9 21.5v840q0 53 29.5 81.5t74.5 28.5h142v-75h-126q-17 0 -26 -8.5t-9 -21.5v-840q0 -53 -29.5 -81.5t-74.5 -28.5h-137v75h121z" />
    <glyph glyph-name="approxequal" unicode="&#x2248;" 
d="M100 423q22 10 41 18q17 7 33 12t23 5h15q9 0 27.5 -6t38.5 -13.5t38 -14t27 -6.5h10q5 0 19 5.5t29 12.5q18 8 39 18v-80q-20 -9 -38 -17q-15 -7 -29 -12.5t-21 -5.5h-15q-5 0 -23 6.5t-39.5 14t-40.5 13.5t-27 6h-10q-5 0 -21 -5.5t-33 -12.5q-20 -8 -43 -18v80z
M100 254q22 10 41 18q17 7 33 12t23 5h15q9 0 27.5 -6t38.5 -13.5t38 -14t27 -6.5h10q5 0 19 5.5t29 12.5q18 8 39 18v-80q-20 -9 -38 -17q-15 -7 -29 -12.5t-21 -5.5h-15q-5 0 -23 6.5t-39.5 14t-40.5 13.5t-27 6h-10q-5 0 -21 -5.5t-33 -12.5q-20 -8 -43 -18v80z" />
    <glyph glyph-name="notequal" unicode="&#x2260;" 
d="M349 375l-78 -125h189v-75h-235l-65 -105h-80l65 105h-65v75h111l78 125h-189v75h235l65 105h80l-65 -105h65v-75h-111z" />
    <glyph glyph-name="lessequal" unicode="&#x2264;" 
d="M80 280v105l380 179v-92l-308 -136l308 -117v-94zM80 0v75h380v-75h-380z" />
    <glyph glyph-name="greaterequal" unicode="&#x2265;" 
d="M80 125v94l308 117l-308 136v92l380 -179v-105zM80 0v75h380v-75h-380z" />
    <glyph glyph-name="dotmath" unicode="&#x22c5;" 
d="M220 260v100h100v-100h-100z" />
    <glyph glyph-name="uni25AF" unicode="&#x25af;" 
d="M84 700h372v-700h-372v700zM381 72v556h-222v-556h222z" />
    <glyph glyph-name="lozenge" unicode="&#x25ca;" 
d="M325 0h-112l-138 350l140 350h110l140 -350zM270 630l-108 -280l108 -280l108 280z" />
  </font>
</defs>
</svg>
