<?xml version="1.0" encoding="UTF-8"?>
<!DOCTYPE svg PUBLIC "-//W3C//DTD SVG 1.1//EN" "http://www.w3.org/Graphics/SVG/1.1/DTD/svg11.dtd">
<svg version="1.1" xmlns="http://www.w3.org/2000/svg" xmlns:xlink="http://www.w3.org/1999/xlink" x="0" y="0" width="297.905" height="234.333" viewBox="0, 0, 297.905, 234.333">
  <g id="Layer_1">
    <path d="M0,-0 L297.905,-0 L297.905,234.333 L0,234.333 L0,-0 z" fill="#FFFFFF"/>
    <g>
      <g>
        <g>
          <path d="M126.55,93.114 C126.55,99.048 121.74,103.858 115.807,103.858 C109.874,103.858 105.064,99.048 105.064,93.114 C105.064,87.181 109.874,82.371 115.807,82.371 C121.74,82.371 126.55,87.181 126.55,93.114 z" fill="#FFFFFF"/>
          <path d="M126.55,93.114 C126.55,99.048 121.74,103.858 115.807,103.858 C109.874,103.858 105.064,99.048 105.064,93.114 C105.064,87.181 109.874,82.371 115.807,82.371 C121.74,82.371 126.55,87.181 126.55,93.114 z" fill-opacity="0" stroke="#000000" stroke-width="2"/>
        </g>
        <g>
          <path d="M193.841,93.114 C193.841,99.048 189.031,103.858 183.098,103.858 C177.165,103.858 172.355,99.048 172.355,93.114 C172.355,87.181 177.165,82.371 183.098,82.371 C189.031,82.371 193.841,87.181 193.841,93.114 z" fill="#FFFFFF"/>
          <path d="M193.841,93.114 C193.841,99.048 189.031,103.858 183.098,103.858 C177.165,103.858 172.355,99.048 172.355,93.114 C172.355,87.181 177.165,82.371 183.098,82.371 C189.031,82.371 193.841,87.181 193.841,93.114 z" fill-opacity="0" stroke="#000000" stroke-width="2"/>
        </g>
        <path d="M105.063,82.371 L172.354,46.476" fill-opacity="0" stroke="#000000" stroke-width="6"/>
        <path d="M105.064,93.114 L48.531,93.114" fill-opacity="0" stroke="#000000" stroke-width="3"/>
        <path d="M250.374,93.114 L193.841,93.114" fill-opacity="0" stroke="#000000" stroke-width="3"/>
      </g>
      <g>
        <g>
          <path d="M126.55,178.114 C126.55,184.048 121.74,188.858 115.807,188.858 C109.874,188.858 105.064,184.048 105.064,178.114 C105.064,172.181 109.874,167.371 115.807,167.371 C121.74,167.371 126.55,172.181 126.55,178.114 z" fill="#FFFFFF"/>
          <path d="M126.55,178.114 C126.55,184.048 121.74,188.858 115.807,188.858 C109.874,188.858 105.064,184.048 105.064,178.114 C105.064,172.181 109.874,167.371 115.807,167.371 C121.74,167.371 126.55,172.181 126.55,178.114 z" fill-opacity="0" stroke="#000000" stroke-width="2"/>
        </g>
        <g>
          <path d="M193.841,178.114 C193.841,184.048 189.031,188.858 183.098,188.858 C177.165,188.858 172.355,184.048 172.355,178.114 C172.355,172.181 177.165,167.371 183.098,167.371 C189.031,167.371 193.841,172.181 193.841,178.114 z" fill="#FFFFFF"/>
          <path d="M193.841,178.114 C193.841,184.048 189.031,188.858 183.098,188.858 C177.165,188.858 172.355,184.048 172.355,178.114 C172.355,172.181 177.165,167.371 183.098,167.371 C189.031,167.371 193.841,172.181 193.841,178.114 z" fill-opacity="0" stroke="#000000" stroke-width="2"/>
        </g>
        <path d="M105.063,167.371 L172.354,131.476" fill-opacity="0" stroke="#000000" stroke-width="6"/>
        <path d="M105.064,178.114 L48.531,178.114" fill-opacity="0" stroke="#000000" stroke-width="3"/>
        <path d="M250.374,178.114 L193.841,178.114" fill-opacity="0" stroke="#000000" stroke-width="3"/>
      </g>
      <path d="M138.681,148 L138.681,68" fill-opacity="0" stroke="#000000" stroke-width="2" stroke-dasharray="12,10"/>
    </g>
  </g>
</svg>
