<?xml version="1.0" encoding="UTF-8"?>
<!DOCTYPE svg PUBLIC "-//W3C//DTD SVG 1.1//EN" "http://www.w3.org/Graphics/SVG/1.1/DTD/svg11.dtd">
<svg version="1.1" xmlns="http://www.w3.org/2000/svg" xmlns:xlink="http://www.w3.org/1999/xlink" x="0" y="0" width="297.905" height="234.333" viewBox="0, 0, 297.905, 234.333">
  <g id="Layer_1">
    <path d="M0,-0 L297.905,-0 L297.905,234.333 L0,234.333 L0,-0 z" fill="#FFFFFF"/>
    <path d="M148.452,10.167 L148.452,225.167" fill-opacity="0" stroke="#000000" stroke-width="3"/>
    <path d="M148.452,119.167 L257.452,119.167" fill-opacity="0" stroke="#000000" stroke-width="3"/>
    <g>
      <path d="M148.652,124.367 C145.615,124.367 143.152,121.904 143.152,118.867 C143.152,115.829 145.615,113.367 148.652,113.367 C151.69,113.367 154.152,115.829 154.152,118.867 C154.152,121.904 151.69,124.367 148.652,124.367 z" fill="#000000"/>
      <path d="M148.652,124.367 C145.615,124.367 143.152,121.904 143.152,118.867 C143.152,115.829 145.615,113.367 148.652,113.367 C151.69,113.367 154.152,115.829 154.152,118.867 C154.152,121.904 151.69,124.367 148.652,124.367 z" fill-opacity="0" stroke="#000000" stroke-width="3"/>
    </g>
  </g>
</svg>
