<?xml version="1.0" encoding="UTF-8"?>
<!DOCTYPE svg PUBLIC "-//W3C//DTD SVG 1.1//EN" "http://www.w3.org/Graphics/SVG/1.1/DTD/svg11.dtd">
<svg version="1.1" xmlns="http://www.w3.org/2000/svg" xmlns:xlink="http://www.w3.org/1999/xlink" x="0" y="0" width="189" height="91.184" viewBox="0, 0, 630, 303.945">
  <g id="Layer_1">
    <g>
      <path d="M315.956,146.639 L254.16,241.356 L377.185,241.356 L315.956,146.639 z" fill="#000000"/>
      <path d="M315.956,146.639 L254.16,241.356 L377.185,241.356 L315.956,146.639 z" fill-opacity="0" stroke="#000000" stroke-width="3"/>
    </g>
    <g>
      <path d="M254.16,146.639 L254.16,126.536 L377.185,126.536 L377.185,146.639 L254.16,146.639 z" fill="#000000"/>
      <path d="M254.16,146.639 L254.16,126.536 L377.185,126.536 L377.185,146.639 L254.16,146.639 z" fill-opacity="0" stroke="#000000" stroke-width="5"/>
    </g>
    <g>
      <path d="M254.16,104.639 L254.16,84.536 L377.185,84.536 L377.185,104.639 L254.16,104.639 z" fill="#000000"/>
      <path d="M254.16,104.639 L254.16,84.536 L377.185,84.536 L377.185,104.639 L254.16,104.639 z" fill-opacity="0" stroke="#000000" stroke-width="5"/>
    </g>
    <text transform="matrix(1, 0, 0, 1, 460.878, 79.139)">
      <tspan x="-70.38" y="11" font-family="Avenir-Medium" font-size="36" fill="#656565">Cathode</tspan>
    </text>
    <text transform="matrix(1, 0, 0, 1, 460.878, 235.945)">
      <tspan x="-54.378" y="11" font-family="Avenir-Medium" font-size="36" fill="#656565">Anode</tspan>
    </text>
    <path d="M315.5,135.5 L315.5,291.445" fill-opacity="0" stroke="#000000" stroke-width="7"/>
    <path d="M315.672,30.5 L315.672,104.639" fill-opacity="0" stroke="#000000" stroke-width="7"/>
    <path d="M0,0 L630,0 L630,30 L0,30 L0,0 z" fill="#FFFFFF"/>
  </g>
</svg>
