<?xml version="1.0" encoding="UTF-8"?>
<!DOCTYPE svg PUBLIC "-//W3C//DTD SVG 1.1//EN" "http://www.w3.org/Graphics/SVG/1.1/DTD/svg11.dtd">
<svg version="1.1" xmlns="http://www.w3.org/2000/svg" xmlns:xlink="http://www.w3.org/1999/xlink" x="0" y="0" width="297.905" height="234.333" viewBox="0, 0, 297.905, 234.333">
  <g id="Layer_1">
    <path d="M0,-0 L297.905,-0 L297.905,234.333 L0,234.333 L0,-0 z" fill="#FFFFFF"/>
    <path d="M148.452,10.167 L148.452,225.167" fill-opacity="0" stroke="#000000" stroke-width="3"/>
    <path d="M148.452,176.167 L257.452,176.167" fill-opacity="0" stroke="#000000" stroke-width="3"/>
    <path d="M39.452,53.5 L148.452,53.5" fill-opacity="0" stroke="#000000" stroke-width="3"/>
    <g>
      <path d="M147.986,181.667 C144.948,181.667 142.486,179.204 142.486,176.167 C142.486,173.129 144.948,170.667 147.986,170.667 C151.023,170.667 153.486,173.129 153.486,176.167 C153.486,179.204 151.023,181.667 147.986,181.667 z" fill="#000000"/>
      <path d="M147.986,181.667 C144.948,181.667 142.486,179.204 142.486,176.167 C142.486,173.129 144.948,170.667 147.986,170.667 C151.023,170.667 153.486,173.129 153.486,176.167 C153.486,179.204 151.023,181.667 147.986,181.667 z" fill-opacity="0" stroke="#000000" stroke-width="3"/>
    </g>
    <g>
      <path d="M147.986,59 C144.948,59 142.486,56.538 142.486,53.5 C142.486,50.462 144.948,48 147.986,48 C151.023,48 153.486,50.462 153.486,53.5 C153.486,56.538 151.023,59 147.986,59 z" fill="#000000"/>
      <path d="M147.986,59 C144.948,59 142.486,56.538 142.486,53.5 C142.486,50.462 144.948,48 147.986,48 C151.023,48 153.486,50.462 153.486,53.5 C153.486,56.538 151.023,59 147.986,59 z" fill-opacity="0" stroke="#000000" stroke-width="3"/>
    </g>
  </g>
</svg>
