<?xml version="1.0" encoding="UTF-8"?>
<!DOCTYPE svg PUBLIC "-//W3C//DTD SVG 1.1//EN" "http://www.w3.org/Graphics/SVG/1.1/DTD/svg11.dtd">
<svg version="1.1" xmlns="http://www.w3.org/2000/svg" xmlns:xlink="http://www.w3.org/1999/xlink" x="0" y="0" width="297.905" height="234.333" viewBox="0, 0, 297.905, 234.333">
  <g id="Layer_1">
    <g>
      <path d="M0,-0 L297.905,-0 L297.905,234.333 L0,234.333 L0,-0 z" fill="#FFFFFF"/>
      <path d="M169.09,89.933 L169.09,150.23" fill-opacity="0" stroke="#000000" stroke-width="5"/>
      <path d="M174.368,163.239 C150.047,163.239 130.332,143.524 130.332,119.203 C130.332,94.882 150.047,75.166 174.368,75.166 C198.689,75.166 218.405,94.882 218.405,119.203 C218.405,143.524 198.689,163.239 174.368,163.239 z" fill-opacity="0" stroke="#000000" stroke-width="3"/>
      <path d="M157.016,146.614 L157.016,95.614" fill-opacity="0" stroke="#000000" stroke-width="3"/>
      <path d="M157.016,146.614 L73.84,146.614" fill-opacity="0" stroke="#000000" stroke-width="3"/>
      <path d="M193.59,95.614 L193.59,41.933" fill-opacity="0" stroke="#000000" stroke-width="3"/>
      <g>
        <path d="M171.944,143.433 L182.836,143.433" fill-opacity="0" stroke="#000000" stroke-width="3"/>
        <path d="M182.836,143.433 L180.036,147.633 L191.236,143.433 L180.036,139.233 z" fill="#000000" fill-opacity="1" stroke="#000000" stroke-width="3" stroke-opacity="1"/>
      </g>
      <path d="M170.59,94.683 L194.944,94.683" fill-opacity="0" stroke="#000000" stroke-width="3"/>
      <path d="M193.59,143.433 L193.59,197.183" fill-opacity="0" stroke="#000000" stroke-width="3"/>
      <text transform="matrix(1, 0, 0, 1, 211.227, 184.667)">
        <tspan x="-10.008" y="11" font-family="Avenir-Medium" font-size="36" fill="#656565">S</tspan>
      </text>
      <text transform="matrix(1, 0, 0, 1, 87.344, 125)">
        <tspan x="-14.004" y="11" font-family="Avenir-Medium" font-size="36" fill="#656565">G</tspan>
      </text>
      <text transform="matrix(1, 0, 0, 1, 211.227, 49.666)">
        <tspan x="-13.338" y="11" font-family="Avenir-Medium" font-size="36" fill="#656565">D</tspan>
      </text>
    </g>
  </g>
</svg>
