<?xml version="1.0" encoding="UTF-8"?>
<!DOCTYPE svg PUBLIC "-//W3C//DTD SVG 1.1//EN" "http://www.w3.org/Graphics/SVG/1.1/DTD/svg11.dtd">
<svg version="1.1" xmlns="http://www.w3.org/2000/svg" xmlns:xlink="http://www.w3.org/1999/xlink" x="0" y="0" width="297.905" height="234.333" viewBox="0, 0, 297.905, 234.333">
  <g id="Layer_1">
    <g>
      <path d="M0,-0 L297.905,-0 L297.905,234.333 L0,234.333 L0,-0 z" fill="#FFFFFF"/>
      <path d="M167.6,86.347 L167.6,97.347" fill-opacity="0" stroke="#000000" stroke-width="3"/>
      <path d="M167.6,109.597 L167.6,121.597" fill-opacity="0" stroke="#000000" stroke-width="3"/>
      <path d="M167.6,134.097 L167.6,145.347" fill-opacity="0" stroke="#000000" stroke-width="3"/>
      <path d="M172.878,159.653 C148.558,159.653 128.842,139.937 128.842,115.617 C128.842,91.296 148.558,71.58 172.878,71.58 C197.199,71.58 216.915,91.296 216.915,115.617 C216.915,139.937 197.199,159.653 172.878,159.653 z" fill-opacity="0" stroke="#000000" stroke-width="3"/>
      <path d="M155.526,143.028 L155.526,92.028" fill-opacity="0" stroke="#000000" stroke-width="3"/>
      <path d="M155.526,143.028 L72.351,143.028" fill-opacity="0" stroke="#000000" stroke-width="3"/>
      <g>
        <path d="M178.5,115.617 L192.1,115.617" fill-opacity="0" stroke="#000000" stroke-width="3"/>
        <path d="M178.5,115.617 L181.3,111.417 L170.1,115.617 L181.3,119.817 z" fill="#000000" fill-opacity="1" stroke="#000000" stroke-width="3" stroke-opacity="1"/>
      </g>
      <path d="M192.1,92.028 L192.1,38.347" fill-opacity="0" stroke="#000000" stroke-width="3"/>
      <path d="M169.1,92.028 L192.1,92.028" fill-opacity="0" stroke="#000000" stroke-width="3"/>
      <path d="M169.1,139.847 L192.1,139.847" fill-opacity="0" stroke="#000000" stroke-width="3"/>
      <path d="M192.1,115.617 L192.1,193.597" fill-opacity="0" stroke="#000000" stroke-width="3"/>
      <text transform="matrix(1, 0, 0, 1, 209.387, 184.153)">
        <tspan x="-10.008" y="11" font-family="Avenir-Medium" font-size="36" fill="#656565">S</tspan>
      </text>
      <text transform="matrix(1, 0, 0, 1, 85.855, 125)">
        <tspan x="-14.004" y="11" font-family="Avenir-Medium" font-size="36" fill="#656565">G</tspan>
      </text>
      <text transform="matrix(1, 0, 0, 1, 212.717, 50.18)">
        <tspan x="-13.338" y="11" font-family="Avenir-Medium" font-size="36" fill="#656565">D</tspan>
      </text>
    </g>
  </g>
</svg>
