<?xml version="1.0" encoding="UTF-8"?>
<!DOCTYPE svg PUBLIC "-//W3C//DTD SVG 1.1//EN" "http://www.w3.org/Graphics/SVG/1.1/DTD/svg11.dtd">
<svg version="1.1" xmlns="http://www.w3.org/2000/svg" xmlns:xlink="http://www.w3.org/1999/xlink" x="0" y="0" width="297.905" height="234.333" viewBox="0, 0, 297.905, 234.333">
  <g id="Layer_1">
    <path d="M0,-0 L297.905,-0 L297.905,234.333 L0,234.333 L0,-0 z" fill="#FFFFFF"/>
    <path d="M229.67,127.167 C224.424,127.167 220.17,122.913 220.17,117.667 C220.17,112.42 224.424,108.167 229.67,108.167 C234.917,108.167 239.17,112.42 239.17,117.667 C239.17,122.913 234.917,127.167 229.67,127.167 z" fill-opacity="0" stroke="#000000" stroke-width="3"/>
    <g>
      <path d="M220.17,117.667 C220.17,149.78 194.001,175.813 161.719,175.813" fill-opacity="0" stroke="#000000" stroke-width="3"/>
      <path d="M220.17,117.667 C220.17,85.553 194.001,59.52 161.719,59.52" fill-opacity="0" stroke="#000000" stroke-width="3"/>
      <path d="M161.719,59.52 L102.863,59.52" fill-opacity="0" stroke="#000000" stroke-width="3"/>
      <path d="M161.719,175.813 L102.863,175.813" fill-opacity="0" stroke="#000000" stroke-width="3"/>
      <path d="M102.863,59.52 C134.523,89.839 135.539,145.706 102.863,175.813" fill-opacity="0" stroke="#000000" stroke-width="3"/>
      <path d="M78.734,59.52 C110.395,89.839 111.411,145.706 78.734,175.813" fill-opacity="0" stroke="#000000" stroke-width="3"/>
    </g>
  </g>
</svg>
