<?xml version="1.0" encoding="UTF-8"?>
<!DOCTYPE svg PUBLIC "-//W3C//DTD SVG 1.1//EN" "http://www.w3.org/Graphics/SVG/1.1/DTD/svg11.dtd">
<svg version="1.1" xmlns="http://www.w3.org/2000/svg" xmlns:xlink="http://www.w3.org/1999/xlink" x="0" y="0" width="297.905" height="234.333" viewBox="0, 0, 297.905, 234.333">
  <g id="Layer_1">
    <path d="M0,-0 L297.905,-0 L297.905,234.333 L0,234.333 L0,-0 z" fill="#FFFFFF"/>
    <g>
      <g>
        <path d="M126.55,119.167 C126.55,125.1 121.74,129.91 115.807,129.91 C109.874,129.91 105.064,125.1 105.064,119.167 C105.064,113.233 109.874,108.423 115.807,108.423 C121.74,108.423 126.55,113.233 126.55,119.167 z" fill="#FFFFFF"/>
        <path d="M126.55,119.167 C126.55,125.1 121.74,129.91 115.807,129.91 C109.874,129.91 105.064,125.1 105.064,119.167 C105.064,113.233 109.874,108.423 115.807,108.423 C121.74,108.423 126.55,113.233 126.55,119.167 z" fill-opacity="0" stroke="#000000" stroke-width="2"/>
      </g>
      <g>
        <path d="M193.841,147.167 C193.841,153.1 189.031,157.91 183.098,157.91 C177.165,157.91 172.354,153.1 172.354,147.167 C172.354,141.233 177.165,136.423 183.098,136.423 C189.031,136.423 193.841,141.233 193.841,147.167 z" fill="#FFFFFF"/>
        <path d="M193.841,147.167 C193.841,153.1 189.031,157.91 183.098,157.91 C177.165,157.91 172.354,153.1 172.354,147.167 C172.354,141.233 177.165,136.423 183.098,136.423 C189.031,136.423 193.841,141.233 193.841,147.167 z" fill-opacity="0" stroke="#000000" stroke-width="2"/>
      </g>
      <path d="M125.138,114.392 L173.938,92.192" fill-opacity="0" stroke="#000000" stroke-width="6"/>
      <path d="M105.064,119.167 L48.531,119.167" fill-opacity="0" stroke="#000000" stroke-width="3"/>
      <path d="M250.374,147.167 L193.841,147.167" fill-opacity="0" stroke="#000000" stroke-width="3"/>
      <g>
        <path d="M193.841,88.167 C193.841,94.1 189.031,98.91 183.098,98.91 C177.165,98.91 172.354,94.1 172.354,88.167 C172.354,82.233 177.165,77.423 183.098,77.423 C189.031,77.423 193.841,82.233 193.841,88.167 z" fill="#FFFFFF"/>
        <path d="M193.841,88.167 C193.841,94.1 189.031,98.91 183.098,98.91 C177.165,98.91 172.354,94.1 172.354,88.167 C172.354,82.233 177.165,77.423 183.098,77.423 C189.031,77.423 193.841,82.233 193.841,88.167 z" fill-opacity="0" stroke="#000000" stroke-width="2"/>
      </g>
      <path d="M250.374,88.167 L193.841,88.167" fill-opacity="0" stroke="#000000" stroke-width="3"/>
    </g>
  </g>
</svg>
