<svg xmlns="http://www.w3.org/2000/svg" viewBox="0 0 300 300">
  <path d="M192.6 176.3l-8 8h.2l8-8h-.2zm16.8 0l-8 8h.1l8-8h-.1zm7.9 3.4l-4.7 4.7h.1l5.4-5.4c-.3.1-.5.4-.8.7zm-10.7-3.4l-8 8h.2l8-8h-.2zm-11.2 0l-8 8h.1l8-8h-.1zm27.3 0c-.2.6-.5 1.1-.8 1.6 2.2.1 4 1.4 5 3.3.5 1 .7 2 .6 3.1h60.9l-74.2 74.2H14.9l59.6-59.7c.1-.3.2-.5.3-.8.7-1.8 2.2-3 4-3.5l.8-.8-.1-.1c-1.1-1.7-1.3-3.8-.6-5.6.9-2.2 3-3.6 5.3-3.7-.2-.2-.4-.4-.5-.7-.9-1.3-1.2-2.9-.9-4.5L3.6 258.5v24h214l78.8-78.8v-27.3h-73.7zm-13.1 98.2h-198v-8h198v8zm11.6-7l-3.7 3.7v-4.7l3.7-3.7v4.7zm6.2-6.1l-4.2 4.2v-4.7l4.2-4.2v4.7zm6.2-6.2l-4.2 4.2v-4.7l4.2-4.2v4.7zm6.2-6.2l-4.2 4.2v-4.7l4.2-4.2v4.7zm6.1-6.1l-4.2 4.2v-4.7l4.2-4.2v4.7zm6.2-6.2l-4.2 4.2v-4.7l4.2-4.2v4.7zm6.1-6.2l-4.2 4.2V230l4.2-4.2v4.7zm6.2-6.2l-4.2 4.2v-4.7l4.2-4.2v4.7zm6.2-6.1l-4.2 4.2v-4.7l4.2-4.2v4.7zm6.2-6.2l-4.2 4.2v-4.7l4.2-4.2v4.7zm6.1-6.2l-4.2 4.2v-4.7l4.2-4.2v4.7zm5.5-5.5l-3.5 3.5v-4.7l3.5-3.5v4.7zm-69.7-19.2l-3.2 3.2h.1l3.8-3.8c-.3.2-.5.4-.7.6zm-71.5-4.8c-.5 3.3-2.5 6.2-5.2 8h21.5c4.9-.3 9.4-2.3 12.9-5.8l2.2-2.2h-31.4z"/>
  <path d="M145.4 169.5v4.9c0 .7-.1 1.3-.2 1.9-.8 4.3-4.5 7.6-8.9 8H88.7c-2.9 0-4.8-2.9-3.7-5.5.3-.7.8-1.4 1.5-1.8.7-.4 1.4-.7 2.2-.7h47.1c.9-.2 1.6-1 1.6-1.9v-4.9h8zm-9.2 14.8H88.9h47.3z"/>
  <path d="M210.9 158.2l-1.7 1.7c-.3.2-.6.5-.9.7l-15.7 15.7-8 8-4.2 4.2-.7.7-.1.1-.1.1h-.1c-.2.2-.5.4-.7.6l-.9.6c-.2.1-.3.2-.5.3-.2.1-.4.2-.6.4-.1 0-.2.1-.3.2-.3.2-.6.3-.9.5-.3.2-.6.3-.9.4-.2.1-.4.2-.7.3-.3.1-.7.3-1 .4-.3.1-.7.2-1 .3-.4.1-.7.2-1.1.3-.3.1-.6.2-.9.2H169.6c-.3.1-.6.1-.9.1-.2 0-.3.1-.5.1h-.1c-.3 0-.6.1-.9.1-.3 0-.7.1-1 .1H83.9c-.2 0-.3 0-.4-.1-.1 0-.1 0-.2-.1-.2 0-.3-.1-.4-.2-.2-.1-.3-.1-.4-.2 0 0-.1 0-.1-.1-.1-.1-.2-.1-.2-.2-.1-.1-.2-.1-.2-.2l-.3-.3-.2-.2-.2-.2c-.1-.1-.2-.2-.2-.3v-.1c0-.1-.1-.1-.1-.2s-.1-.1-.1-.2c-.1-.1-.1-.3-.1-.5v-.1c0-.1-.1-.3-.1-.4V190.1c0-.5.1-1 .3-1.5.3-.8.8-1.4 1.5-1.8.7-.4 1.4-.7 2.2-.7h79c.4 0 .7 0 1.1-.1.3 0 .7-.1 1-.1h.1c.3 0 .5-.1.8-.1.2 0 .3-.1.5-.1s.3-.1.5-.1h.1c.1 0 .3-.1.4-.1.2 0 .4-.1.6-.2.2 0 .4-.1.5-.2.2-.1.4-.1.7-.2.7-.2 1.3-.5 1.9-.8.7-.3 1.4-.7 2.1-1.1.3-.2.5-.3.8-.5.2-.2.5-.3.7-.5.1-.1.2-.1.2-.2.2-.1.4-.3.6-.4.1-.1.2-.2.3-.2.2-.2.5-.4.7-.6.3-.2.5-.5.8-.8l3.6-3.6 23.8-23.8c.8-.8 1.8-1.2 2.8-1.2 1.5 0 2.9.8 3.6 2.3.5 1.7.2 3.5-1 4.7z"/>
  <path d="M209.2 159.9l-24.4 24.4-3.3 3.3c-.2.2-.4.4-.6.5l-.4.4c-.2.1-.3.3-.5.4-.1.1-.2.1-.2.2l.7-.7 4.2-4.2 8-8 15.7-15.7c.2-.1.5-.4.8-.6z"/>
  <path fill="#FFF" d="M87.1 186.2l-.2.2h1.7c-.5 0-1-.1-1.5-.2zm122.6-24.1l-14.3 14.3-8 8-5.6 5.6-.6.6c.6-.4 1.1-.9 1.6-1.5l12.7-12.7 14.8-14.8c-.1.1-.4.2-.6.5zm-30.3 27.3c-.2.2-.5.4-.7.6l-.9.6c-.2.1-.3.2-.5.3-.2.1-.4.2-.6.4-.1 0-.2.1-.3.2-.3.2-.6.3-.9.5-.3.2-.6.3-.9.4-.2.1-.4.2-.7.3-.3.1-.7.3-1 .4-.3.1-.7.2-1 .3-.4.1-.7.2-1.1.3-.3.1-.6.2-.9.2H169.6c-.3.1-.6.1-.9.1-.2 0-.3.1-.5.1h-.1c-.3 0-.6.1-.9.1-.3 0-.7.1-1 .1h-1.1 1.1c5 .1 9.6-1.7 13.2-4.9.1 0 0 0 0 0z"/>
  <path d="M216.5 164.9c0 1-.4 2.1-1.2 2.8l-1.7 1.7c-.3.2-.6.4-.8.7l-6.2 6.2-8 8-14.2 14.2-.7.7-.1.1-.1.1-.2.2c-.2.1-.4.3-.5.4l-.9.6c-.2.1-.3.2-.5.3-.2.1-.3.2-.5.3 0 0-.1 0-.1.1-.1 0-.2.1-.3.2-.3.2-.6.3-.9.5-.3.2-.6.3-.9.4-.2.1-.4.2-.7.3-.3.1-.7.3-1 .4-.3.1-.7.2-1 .3-.4.1-.7.2-1.1.3-.3.1-.6.2-.9.2H173.7c-.3.1-.6.1-.9.1-.2 0-.3.1-.5.1h-.1c-.3 0-.6.1-.9.1-.3 0-.7.1-1 .1h-90c-2.9 0-4.8-2.9-3.7-5.5.6-1.5 2.1-2.5 3.7-2.5h87.1c.4 0 .7 0 1.1-.1.4 0 .7-.1 1.1-.1.3 0 .6-.1.9-.2.2 0 .3-.1.4-.1.2 0 .4-.1.7-.2.3-.1.5-.1.8-.2.2 0 .3-.1.5-.1h.1c.2-.1.5-.2.7-.2h.1c.2-.1.5-.2.7-.3.2-.1.4-.2.6-.2h.3l.6-.3c.3-.1.6-.3.9-.4 1.2-.6 2.3-1.4 3.3-2.2.2-.2.4-.3.6-.5 0 0 .1 0 .1-.1.1 0 .1-.1.2-.1h.1l.1-.1c.6-.4 1.1-.9 1.6-1.5l12.7-12.7 14.8-14.8c.1-.1.2-.1.3-.2.1-.1.2-.1.4-.2.1 0 .2-.1.3-.1h1.2c1.5 0 2.9.8 3.6 2.3.2 0 .3.6.3 1.2z"/>
  <path d="M182.9 189c-.5.5-1.1 1-1.6 1.5l.6-.6 5.6-5.6 8-8 14.3-14.3c.2-.2.4-.4.7-.5l-14.8 14.8-12.8 12.7zm30.7-19.6l-6.9 6.9-8 8-13.3 13.3c-.2.2-.4.4-.6.5l-.4.4c-.2.1-.3.3-.5.4-.1.1-.2.1-.2.2l.7-.7 14.2-14.2 8-8 6.2-6.2c.3-.1.5-.4.8-.6z"/>
  <path fill="#FFF" d="M165.2 196.4h2.2c.4 0 .7 0 1.1-.1.4 0 .7-.1 1.1-.1.3 0 .6-.1.9-.2.2 0 .3-.1.4-.1.2 0 .4-.1.7-.2.3-.1.5-.1.8-.2.2 0 .3-.1.5-.1h.1c.2-.1.5-.2.7-.2h.1c.2-.1.5-.2.7-.3.2-.1.4-.2.6-.2h.3l.6-.3c.3-.1.6-.3.9-.4 1.2-.6 2.3-1.4 3.3-2.2.2-.2.4-.3.6-.5-4.5 3.2-9.9 5.1-15.6 5.1zm43.1-35.8l-15.7 15.7-8 8-4.2 4.2-.7.7c.1-.1.2-.1.2-.2.2-.1.3-.3.5-.4.1-.1.3-.2.4-.4.2-.2.4-.4.6-.5l3.3-3.3 24.4-24.4c-.2.1-.5.4-.8.6zm6.4 10.5c-.1 0-.1.1-.2.1l-.3.3-12.8 12.8-15.6 15.6-.6.6c.6-.4 1.1-.9 1.6-1.5l14.7-14.7 8-8 5.3-5.3c.1 0 0 .1-.1.1zm-32 28.9l-.9.6c-.2.1-.3.2-.5.3-.2.1-.3.2-.5.3 0 0-.1 0-.1.1-.1 0-.2.1-.3.2-.3.2-.6.3-.9.5-.3.2-.6.3-.9.4-.2.1-.4.2-.7.3-.3.1-.7.3-1 .4-.3.1-.7.2-1 .3-.4.1-.7.2-1.1.3-.3.1-.6.2-.9.2H173.6c-.3.1-.6.1-.9.1-.2 0-.3.1-.5.1h-.1c-.3 0-.6.1-.9.1-.3 0-.7.1-1 .1h-1.1 1.1c4.8 0 9.3-1.7 12.9-4.8 0 .2-.2.3-.4.5z"/>
  <path d="M221.1 174.4v.4c0 .1 0 .2-.1.3 0 .1 0 .2-.1.3 0 .2-.1.3-.2.4-.1.1-.1.3-.2.4-.1.1-.2.3-.2.4l-.1.1c-.1.1-.2.3-.3.4l-1.7 1.7c-.3.2-.6.5-.9.7l-4.7 4.7-24.2 24.2-.7.7-.1.1-.1.1-.2.2c-.2.1-.4.3-.5.4l-.9.6c-.2.1-.3.2-.5.3-.2.1-.3.2-.5.3 0 0-.1 0-.1.1-.1 0-.2.1-.3.2-.3.2-.6.3-.9.5-.3.2-.6.3-.9.4-.2.1-.4.2-.7.3-.3.1-.7.3-1 .4-.3.1-.7.2-1 .3-.4.1-.7.2-1.1.3-.3.1-.6.2-.9.2H177.7c-.3.1-.6.1-.9.1-.2 0-.3.1-.5.1h-.1c-.3 0-.6.1-.9.1-.3 0-.7.1-1 .1H76.1c-2.9 0-4.8-2.9-3.7-5.5.3-.7.8-1.4 1.5-1.8s1.4-.7 2.2-.7h95.3c.4 0 .7 0 1.1-.1.4 0 .7-.1 1.1-.1.3 0 .6-.1.9-.2.2 0 .3-.1.4-.1.2 0 .4-.1.7-.2.3-.1.5-.1.8-.2.2 0 .3-.1.5-.1h.1c.2-.1.5-.2.7-.2h.1c.2-.1.5-.2.7-.3.2-.1.4-.2.6-.2h.3l.6-.3c.3-.1.6-.3.9-.4 1.2-.6 2.3-1.4 3.3-2.2.2-.2.4-.3.6-.5 0 0 .1 0 .1-.1.1 0 .1-.1.2-.1h.1l.1-.1c.6-.4 1.1-.9 1.6-1.5l14.7-14.7 8-8 5.3-5.3c.1-.1.3-.2.4-.2.2-.1.3-.2.5-.2h.2c.1 0 .2-.1.4-.1h.5c.7 0 1.5.2 2.1.6.3.2.6.4.9.7.2.3.5.6.6 1 .4.1.6.7.6 1.3z"/>
  <path d="M201.6 184.3L186.9 199c-.5.5-1.1 1-1.6 1.5l.6-.6 15.6-15.6 12.8-12.8.3-.3c.1 0 .1-.1.2-.1l.2-.2-5.3 5.3-8.1 8.1zm16.6-5.4l-5.4 5.4-23.3 23.3c-.2.2-.4.4-.6.5l-.4.4c-.2.1-.3.3-.5.4-.1.1-.2.1-.2.2l.7-.7 24.2-24.2 4.7-4.7c.2-.1.4-.4.8-.6z"/>
  <path fill="#FFF" d="M169.2 206.4h2.2c.4 0 .7 0 1.1-.1.4 0 .7-.1 1.1-.1.3 0 .6-.1.9-.2.2 0 .3-.1.4-.1.2 0 .4-.1.7-.2.3-.1.5-.1.8-.2.2 0 .3-.1.5-.1h.1c.2-.1.5-.2.7-.2h.1c.2-.1.5-.2.7-.3.2-.1.4-.2.6-.2h.3l.6-.3c.3-.1.6-.3.9-.4 1.2-.6 2.3-1.4 3.3-2.2.2-.2.4-.3.6-.5-4.5 3.2-9.9 5.1-15.6 5.1zm17.5 3.6l-.9.6c-.2.1-.3.2-.5.3-.2.1-.3.2-.5.3 0 0-.1 0-.1.1-.1 0-.2.1-.3.2-.3.2-.6.3-.9.5-.3.2-.6.3-.9.4-.2.1-.4.2-.7.3-.3.1-.7.3-1 .4-.3.1-.7.2-1 .3-.4.1-.7.2-1.1.3-.3.1-.6.2-.9.2H177.6c-.3.1-.6.1-.9.1-.2 0-.3.1-.5.1h-.1c-.3 0-.6.1-.9.1-.3 0-.7.1-1 .1h-1.1 1.1c4.8 0 9.3-1.7 12.9-4.8 0 .2-.2.3-.4.5zm32-28.9l-3.2 3.2-25.6 25.6-.6.6c.6-.4 1.1-.9 1.6-1.5l28.5-28.5c-.3.2-.5.4-.7.6zm-5.9-11l-6.2 6.2-8 8-14.2 14.2-.7.7c.1-.1.2-.1.2-.2.2-.1.3-.3.5-.4.1-.1.3-.2.4-.4.2-.2.4-.4.6-.5l13.3-13.3 8-8 6.9-6.9c-.3.1-.5.4-.8.6z"/>
  <path d="M225.5 183.9v.4c0 .1 0 .2-.1.4 0 .1 0 .3-.1.4-.1.2-.2.5-.3.7-.1.1-.1.2-.2.3-.1.1-.2.2-.2.3l-.3.3-1.7 1.7c-.3.2-.6.4-.8.7l-29.4 29.4-.7.7-.1.1-.1.1-.2.2c-.2.1-.4.3-.5.4l-.9.6c-.2.1-.3.2-.5.3-.2.1-.3.2-.5.3 0 0-.1 0-.1.1-.1 0-.2.1-.3.2-.3.2-.6.3-.9.5-.3.2-.6.3-.9.4-.2.1-.4.2-.7.3-.3.1-.7.3-1 .4-.3.1-.7.2-1 .3-.4.1-.7.2-1.1.3-.3.1-.6.2-.9.2H181.7c-.3.1-.6.1-.9.1-.2 0-.3.1-.5.1h-.1c-.3 0-.6.1-.9.1-.3 0-.7.1-1 .1H71.8c-2.8 0-4.8-2.9-3.7-5.5.6-1.5 2.1-2.5 3.7-2.5h103.6c.4 0 .7 0 1.1-.1.4 0 .7-.1 1.1-.1.3 0 .6-.1.9-.2.2 0 .3-.1.4-.1.2 0 .4-.1.7-.2.3-.1.5-.1.8-.2.2 0 .3-.1.5-.1h.1c.2-.1.5-.2.7-.2h.1c.2-.1.5-.2.7-.3.2-.1.4-.2.6-.2h.3l.6-.3c.3-.1.6-.3.9-.4 1.2-.6 2.3-1.4 3.3-2.2.2-.2.4-.3.6-.5 0 0 .1 0 .1-.1.1 0 .1-.1.2-.1h.1l.1-.1c.6-.4 1.1-.9 1.6-1.5l28.5-28.5h.1c.1-.1.2-.1.3-.2.1 0 .1-.1.2-.1s.2-.1.2-.1c.1 0 .1-.1.2-.1s.2 0 .2-.1h.8c1.4 0 2.9.8 3.6 2.2.4.2.5.8.5 1.4z"/>
  <path d="M190.9 209c-.5.5-1.1 1-1.6 1.5l.6-.6 25.6-25.6 3.2-3.2c.2-.2.5-.4.7-.5L190.9 209zm31.8-20.6l-29.2 29.2c-.2.2-.4.4-.6.5l-.4.4c-.2.1-.3.3-.5.4-.1.1-.2.1-.2.2l.7-.7 29.4-29.4c.2-.1.5-.4.8-.6z"/>
  <path fill="#FFF" d="M217.3 179.7l-4.7 4.7-24.2 24.2-.7.7c.1-.1.2-.1.2-.2.2-.1.3-.3.5-.4.1-.1.3-.2.4-.4.2-.2.4-.4.6-.5l23.3-23.3 5.4-5.4c-.3 0-.5.3-.8.6zm6.5 10.3c-.1 0-.2.1-.2.2l-.3.3-29.4 29.4-.6.6c.6-.4 1.1-.9 1.6-1.5l29.1-29.1c-.1.1-.1.1-.2.1zm-33.1 30l-.9.6c-.2.1-.3.2-.5.3-.2.1-.3.2-.5.3 0 0-.1 0-.1.1-.1 0-.2.1-.3.2-.3.2-.6.3-.9.5-.3.2-.6.3-.9.4-.2.1-.4.2-.7.3-.3.1-.7.3-1 .4-.3.1-.7.2-1 .3-.4.1-.7.2-1.1.3-.3.1-.6.2-.9.2H181.6c-.3.1-.6.1-.9.1-.2 0-.3.1-.5.1h-.1c-.3 0-.6.1-.9.1-.3 0-.7.1-1 .1h-1.1 1.1c4.8 0 9.3-1.7 12.9-4.8 0 .2-.2.3-.4.5zm-17.5-3.6h2.2c.4 0 .7 0 1.1-.1.4 0 .7-.1 1.1-.1.3 0 .6-.1.9-.2.2 0 .3-.1.4-.1.2 0 .4-.1.7-.2.3-.1.5-.1.8-.2.2 0 .3-.1.5-.1h.1c.2-.1.5-.2.7-.2h.1c.2-.1.5-.2.7-.3.2-.1.4-.2.6-.2h.3l.6-.3c.3-.1.6-.3.9-.4 1.2-.6 2.3-1.4 3.3-2.2.2-.2.4-.3.6-.5-4.5 3.2-9.9 5.1-15.6 5.1z"/>
  <g>
    <path d="M230.1 193.4c0 1-.4 2.1-1.2 2.8l-31.4 31.4c-4.3 4.3-10.2 6.7-16.3 6.7H67.5c-2.8 0-4.8-2.8-3.7-5.5.3-.8.8-1.4 1.5-1.8.6-.5 1.4-.7 2.2-.7h111.9c.4 0 .7 0 1.1-.1.4 0 .7-.1 1.1-.1.3 0 .6-.1.9-.2.2 0 .3-.1.4-.1.2 0 .4-.1.7-.2.3-.1.5-.1.8-.2.2 0 .3-.1.5-.1h.1c.2-.1.5-.2.7-.2h.1c.2-.1.5-.2.7-.3.2-.1.4-.2.6-.2h.3l.6-.3c.3-.1.6-.3.9-.4 1.2-.6 2.3-1.4 3.3-2.2.2-.2.4-.3.6-.5 0 0 .1 0 .1-.1.1 0 .1-.1.2-.1h.1l.1-.1.6-.6 29.4-29.4.3-.3.2-.2s.1 0 .1-.1c.1 0 .1-.1.2-.1s.1-.1.2-.1.1 0 .2-.1.3-.1.4-.2c.1 0 .2 0 .2-.1h1.4c.1 0 .3 0 .5.1h.1c.2 0 .3.1.5.2s.3.2.5.3c.2.1.3.2.5.3.1.1.3.2.4.4.1.1.2.3.4.5.1.2.2.3.3.5.2.2.4.8.4 1.4z"/>
    <path fill="#FFF" d="M177.2 226.4h2.2c.4 0 .7 0 1.1-.1.4 0 .7-.1 1.1-.1.3 0 .6-.1.9-.2.2 0 .3-.1.4-.1.2 0 .4-.1.7-.2.3-.1.5-.1.8-.2.2 0 .3-.1.5-.1h.1c.2-.1.5-.2.7-.2h.1c.2-.1.5-.2.7-.3.2-.1.4-.2.6-.2h.3l.6-.3c.3-.1.6-.3.9-.4 1.2-.6 2.3-1.4 3.3-2.2.2-.2.4-.3.6-.5-4.5 3.2-9.9 5.1-15.6 5.1zm44.6-37.3l-29.4 29.4-.7.7c.1-.1.2-.1.2-.2.2-.1.3-.3.5-.4.1-.1.3-.2.4-.4.2-.2.4-.4.6-.5l29.2-29.2c-.2.1-.5.4-.8.6z"/>
  </g>
  <path d="M187.1 18.4v-.9h-65.5l-24.2 24 .2.2v98.8h22.7l-.2.1 10.3 23.9c4.5 3 17.1 3 21.7 0l10.3-23.9-.3-.1h5.5l20-20V17.9l-.5.5zm-7.5 84.4l-12 12v-10.5l12-12v10.5zm0-53.4l-12 12V49.6l12-12.1v11.9zm0 40l-12 12V90.9l12-12v10.5zm0-13.3l-12 12V77.6l12-12v10.5zm0-13.3l-12 12V64.2l12-12v10.6zm-42.1-21.3l16-16h10.8l-16 16h-10.8zm-13.6 0l16-16h10.8l-16 16h-10.8zm1-16h12.2l-16 16h-12.4l16.2-16zM146 158.3c-1.3.3-3.1.4-4.8.4-1.7 0-3.4-.1-4.7-.4l-7.7-17.8h25l-7.8 17.8zm13.6-25.8h-54v-83h54v83zm-8.4-91l16-16h12.9l-15.7 16h-13.2zm16.4 87.7v-11.6l12-12v11.6l-12 12z"/>
</svg>
