<?xml version="1.0" encoding="UTF-8" standalone="no"?>
<!-- Created with Inkscape (http://www.inkscape.org/) -->

<svg
   xmlns:dc="http://purl.org/dc/elements/1.1/"
   xmlns:cc="http://creativecommons.org/ns#"
   xmlns:rdf="http://www.w3.org/1999/02/22-rdf-syntax-ns#"
   xmlns:svg="http://www.w3.org/2000/svg"
   xmlns="http://www.w3.org/2000/svg"
   xmlns:sodipodi="http://sodipodi.sourceforge.net/DTD/sodipodi-0.dtd"
   xmlns:inkscape="http://www.inkscape.org/namespaces/inkscape"
   width="64mm"
   height="64mm"
   viewBox="0 0 64 64"
   version="1.1"
   id="svg8"
   inkscape:version="0.92.5 (2060ec1f9f, 2020-04-08)"
   sodipodi:docname="borland.svg"
   inkscape:export-filename="/home/roman/borland.png"
   inkscape:export-xdpi="101.6"
   inkscape:export-ydpi="101.6">
  <defs
     id="defs2" />
  <sodipodi:namedview
     id="base"
     pagecolor="#ffffff"
     bordercolor="#666666"
     borderopacity="1.0"
     inkscape:pageopacity="0.0"
     inkscape:pageshadow="2"
     inkscape:zoom="1.6929199"
     inkscape:cx="97.771871"
     inkscape:cy="58.915703"
     inkscape:document-units="mm"
     inkscape:current-layer="layer1"
     showgrid="false"
     inkscape:window-width="1920"
     inkscape:window-height="989"
     inkscape:window-x="0"
     inkscape:window-y="0"
     inkscape:window-maximized="1" />
  <metadata
     id="metadata5">
    <rdf:RDF>
      <cc:Work
         rdf:about="">
        <dc:format>image/svg+xml</dc:format>
        <dc:type
           rdf:resource="http://purl.org/dc/dcmitype/StillImage" />
        <dc:title></dc:title>
      </cc:Work>
    </rdf:RDF>
  </metadata>
  <g
     inkscape:label="Layer 1"
     inkscape:groupmode="layer"
     id="layer1"
     transform="translate(542.81158,7.8983389)">
    <g
       id="g839"
       transform="translate(0,3.6847757)">
      <path
         inkscape:connector-curvature="0"
         id="path826"
         d="m -506.45971,6.5094203 c -0.99293,-0.088648 -1.72598,-0.7302757 -2.09638,-1.834927 -0.3186,-0.9501379 -0.38395,-2.5436778 -0.14859,-3.6223977 0.14848,-0.68054977 0.4562,-1.25369866 0.8988,-1.67412395 0.3753,-0.35649669 0.74536,-0.55567435 1.92889,-1.03818905 0.82389,-0.3358919 1.39047,-0.6051554 1.6832,-0.7999322 0.28585,-0.1901961 0.53944,-0.4492689 0.65051,-0.6645336 0.13615,-0.263903 0.15872,-0.3752846 0.15568,-0.7681336 -0.005,-0.5859224 -0.0851,-0.938699 -0.25956,-1.1369083 -0.14084,-0.1599907 -0.27231,-0.1987811 -0.62727,-0.1850862 -0.23455,0.0091 -0.29824,0.020864 -0.42472,0.078794 -0.17232,0.078929 -0.26474,0.1595896 -0.35151,0.3067696 -0.11675,0.1980093 -0.1314,0.3139322 -0.13173,1.0418136 l -2.8e-4,0.6757141 h -1.72634 -1.72635 l 0.0134,-0.712909 c 0.0143,-0.7577071 0.031,-0.8946617 0.15797,-1.2941149 0.081,-0.2546498 0.26133,-0.6145553 0.4205,-0.83916 0.29538,-0.4168086 0.82214,-0.8463739 1.32526,-1.0807119 0.7066,-0.3291305 1.32645,-0.4554137 2.35387,-0.4795587 1.69082,-0.039728 2.82886,0.240413 3.50407,0.8625733 0.39057,0.3598751 0.62365,0.7711952 0.77168,1.361759 0.14136,0.5639351 0.13807,0.4162427 0.13807,6.16806446 V 6.1622993 h -1.711 -1.71097 V 5.8696979 c 0,-0.3184511 -0.0125,-0.3521159 -0.13073,-0.3521159 -0.0544,0 -0.11213,0.039672 -0.24388,0.1673791 -0.0949,0.092063 -0.23643,0.2097919 -0.31438,0.2616312 -0.44712,0.2973857 -1.08668,0.496941 -1.8031,0.5626156 -0.293,0.026853 -0.29659,0.026864 -0.59511,2.809e-4 z m 2.58194,-2.3436765 c 0.21679,-0.1060628 0.35039,-0.2891558 0.45193,-0.6193783 0.0325,-0.105692 0.0394,-0.3920356 0.047,-1.9287914 l 0.009,-1.80467555 -0.0737,-0.0736934 c -0.0405,-0.0405263 -0.0997,-0.0736709 -0.13139,-0.0736597 -0.0736,2.472e-5 -0.29058,0.10270334 -0.72422,0.34266018 -0.46535,0.25750887 -0.62272,0.43914694 -0.79315,0.91548212 l -0.0778,0.21724995 -0.008,1.0369589 c -0.006,0.8395944 -4.7e-4,1.0743335 0.0297,1.2333085 0.0885,0.4692805 0.35698,0.7876282 0.70743,0.8388631 0.16785,0.024538 0.41662,-0.01273 0.56297,-0.084333 z m -22.86038,2.2416371 c -0.45725,-0.044054 -1.04518,-0.188786 -1.48793,-0.3662715 -1.25261,-0.5021216 -1.99488,-1.4647893 -2.12444,-2.7552403 -0.0207,-0.2061943 -0.0263,-1.3323368 -0.0201,-4.06668149 l 0.009,-3.78151871 0.0554,-0.2416174 c 0.14938,-0.6522525 0.42678,-1.1665826 0.85937,-1.5933503 0.61888,-0.6105574 1.55075,-1.014962 2.61894,-1.1365556 1.25272,-0.142597 2.42208,0.00169 3.3313,0.4111089 1.07011,0.4818484 1.73415,1.3028369 1.94135,2.4002035 0.0414,0.2190735 0.0443,0.4963916 0.0443,4.18969736 V 3.422253 l -0.0667,0.2783439 c -0.21095,0.8804544 -0.6602,1.5205386 -1.4055,2.0026083 -0.5563,0.3598089 -1.40014,0.6309284 -2.19773,0.7061127 -0.31622,0.029796 -1.23931,0.028662 -1.55682,-0.00191 z m 1.03163,-2.3154945 c 0.27444,-0.07148 0.45993,-0.2019057 0.60134,-0.4228376 0.17009,-0.265704 0.1594,0.017977 0.1594,-4.23908843 0,-4.25989427 0.0112,-3.97514837 -0.16052,-4.23908727 -0.1046,-0.1611221 -0.21709,-0.264967 -0.37554,-0.3466746 -0.59253,-0.3054925 -1.31554,0.061098 -1.42376,0.7218974 -0.0321,0.1966025 -0.0317,7.5341173 5.7e-4,7.730903 0.0764,0.4663064 0.48266,0.8142113 0.96842,0.8292455 0.0483,0.00146 0.15184,-0.013966 0.23014,-0.034358 z m 38.5179,2.3172057 c -0.73708,-0.1237136 -1.3084,-0.5978321 -1.73007,-1.4357468 -0.23808,-0.473087 -0.41798,-1.1386218 -0.46954,-1.7370684 -0.0182,-0.2111188 -0.0236,-1.551426 -0.0171,-4.20306644 0.0101,-4.25614496 0.003,-4.02408556 0.15534,-4.59749096 0.14788,-0.5555418 0.36744,-0.9504311 0.73136,-1.3152971 0.54595,-0.5473747 1.28515,-0.8053117 2.18148,-0.7612058 0.70017,0.034459 1.0678,0.2043978 1.696,0.7840542 0.22493,0.2075347 0.2528,0.225798 0.33419,0.2189432 0.0656,-0.00551 0.097,-0.023651 0.12,-0.069469 0.0243,-0.048166 0.0312,-0.4810687 0.0316,-1.9403538 l 3.8e-4,-1.8783602 h 1.71098 1.71098 v 8.3441384 8.3441379 h -1.71098 -1.71098 V 5.7643261 c 0,-0.3082381 -0.009,-0.4144772 -0.0379,-0.471141 -0.0656,-0.1268079 -0.12327,-0.099142 -0.42133,0.2020282 -0.58736,0.5934873 -0.96766,0.8189088 -1.52458,0.9037006 -0.25041,0.038122 -0.84884,0.043931 -1.0499,0.010224 z m 2.2838,-2.6731148 c 0.3441,-0.1070964 0.58555,-0.3941815 0.70181,-0.8344587 0.0439,-0.1664544 0.0654,-6.1703617 0.0236,-6.60812 -0.0637,-0.6680469 -0.22615,-1.0382756 -0.52896,-1.206094 -0.11742,-0.065076 -0.14971,-0.071177 -0.37641,-0.071154 -0.22095,1.69e-5 -0.26147,0.00719 -0.37195,0.066053 -0.16433,0.087513 -0.29307,0.2249665 -0.3714,0.3965331 -0.13979,0.3061427 -0.13694,0.2238216 -0.13694,3.95003261 0,2.01823129 0.009,3.47898829 0.0232,3.55079969 0.0572,0.3013957 0.2091,0.5536093 0.40734,0.6761264 0.0895,0.055368 0.31229,0.1219103 0.41661,0.1244922 0.0363,9.079e-4 0.13224,-0.018988 0.21323,-0.0442 z m -55.98531,-5.9178122 v -8.3441381 h 2.98994 c 1.91678,0 3.0983,0.0096 3.29178,0.0265 1.74056,0.152829 2.74353,0.9781022 3.05435,2.513166 0.20354,1.0052344 0.0885,2.658248 -0.24638,3.5422611 -0.27537,0.7267927 -0.72407,1.2386533 -1.37169,1.5647782 -0.14904,0.075053 -0.17978,0.1008383 -0.17978,0.1508069 0,0.075682 0.0722,0.1277483 0.24797,0.1787292 0.57536,0.166914 1.12059,0.6582552 1.43939,1.2971698 0.43803,0.87781406 0.59273,2.25253773 0.40691,3.6159653 -0.2515,1.845276 -1.16632,3.1204456 -2.57406,3.5879441 -0.62965,0.2091009 -0.66563,0.2109536 -4.09786,0.2109536 h -2.96059 z m 5.01777,5.6763892 c 0.47452,-0.1223441 0.76845,-0.4600202 0.91976,-1.0566467 0.0988,-0.3893098 0.12501,-0.6785218 0.12227,-1.3465587 -0.002,-0.51771534 -0.0112,-0.66844803 -0.0556,-0.91426865 -0.14983,-0.83032408 -0.48224,-1.29717425 -1.03953,-1.46005695 -0.13179,-0.038515 -0.27106,-0.051335 -0.6686,-0.061525 l -0.50214,-0.012876 v 2.4456133 2.4456113 h 0.53575 c 0.40823,0 0.57202,-0.00933 0.68812,-0.039279 z m -0.0607,-7.5105971 c 0.22664,-0.055919 0.432,-0.1739788 0.57527,-0.330727 0.20582,-0.2251901 0.312,-0.492148 0.38165,-0.959467 0.0425,-0.2848391 0.049,-1.002075 0.0116,-1.2646398 -0.11033,-0.7726895 -0.44529,-1.1812198 -1.05819,-1.2904768 -0.11504,-0.020516 -0.371,-0.034774 -0.63323,-0.035291 l -0.44015,-8.325e-4 v 1.9748994 1.974901 l 0.50214,-0.014572 c 0.32785,-0.00955 0.55728,-0.028179 0.66102,-0.053762 z m 15.69869,3.44600317 V -7.3023825 h 1.68619 1.68619 v 0.8323228 c 0,0.5487983 0.009,0.8493783 0.0268,0.8823881 0.0147,0.027527 0.0652,0.066064 0.1119,0.085625 0.0745,0.031134 0.0942,0.03092 0.15724,-0.00169 0.0565,-0.029201 0.0892,-0.081558 0.1508,-0.2412983 0.35406,-0.9181 0.94049,-1.5013361 1.69031,-1.6810934 0.11345,-0.027201 0.25925,-0.049526 0.32405,-0.049627 l 0.11779,-2.427e-4 v 2.0953335 2.0953338 h -0.3788 c -0.64073,0 -0.97325,0.066873 -1.30978,0.2633997 -0.32498,0.1897871 -0.59659,0.574014 -0.70361,0.9953797 -0.12385,0.4876077 -0.11981,0.3511081 -0.12973,4.4011004 l -0.009,3.7877173 h -1.71002 -1.71001 v -6.73234259 z m 6.86873,-1.61196377 v -8.3443096 l 1.71718,0.0064 1.71717,0.0064 0.006,8.3379396 0.006,8.3379393 h -1.72342 -1.72342 z m 14.28297,1.61196377 V -7.3023825 h 1.72339 1.72337 v 0.5648099 c 0,0.6240747 0.0112,0.6750309 0.14546,0.6750309 0.0927,0 0.12188,-0.028381 0.28394,-0.2759339 0.33396,-0.5101528 0.89648,-0.9366385 1.51528,-1.1488673 0.5085,-0.1743991 1.17826,-0.2226554 1.58889,-0.1144826 0.80124,0.2110862 1.37366,0.8168954 1.63016,1.7252599 l 0.0561,0.1983755 0.007,5.92024726 0.007,5.92024584 h -1.71067 -1.71066 l -0.008,-4.8663799 c -0.008,-4.5343766 -0.0112,-4.8773783 -0.0512,-5.0275604 -0.0869,-0.3238217 -0.25755,-0.5304688 -0.49495,-0.5991759 -0.0574,-0.016617 -0.19999,-0.030358 -0.31684,-0.030572 -0.18452,-2.809e-4 -0.23182,0.0091 -0.35924,0.071424 -0.27194,0.1330446 -0.45528,0.3754935 -0.54337,0.7185166 -0.0335,0.1301819 -0.038,0.7188717 -0.038,4.9407699 v 4.7929799 h -1.72339 -1.72338 z"
         style="fill:#000000;stroke-width:0.02479685" />
      <text
         xml:space="preserve"
         style="font-style:normal;font-variant:normal;font-weight:normal;font-stretch:normal;font-size:25.26657104px;line-height:1.25;font-family:'Century Gothic';-inkscape-font-specification:'Century Gothic';letter-spacing:0px;word-spacing:0px;fill:#000000;fill-opacity:1;stroke:none;stroke-width:0.63166428;"
         x="-510.8486"
         y="-7.5487275"
         id="text834"><tspan
           sodipodi:role="line"
           x="-510.8486"
           y="15.390151"
           style="font-style:normal;font-variant:normal;font-weight:bold;font-stretch:normal;font-family:'Liberation Sans';-inkscape-font-specification:'Liberation Sans Bold';text-align:center;text-anchor:middle;fill:#000000;stroke-width:0.63166428;"
           id="tspan841"></tspan><tspan
           sodipodi:role="line"
           x="-510.8486"
           y="46.973366"
           style="font-style:normal;font-variant:normal;font-weight:bold;font-stretch:normal;font-family:'Liberation Sans';-inkscape-font-specification:'Liberation Sans Bold';text-align:center;text-anchor:middle;fill:#000000;stroke-width:0.63166428;"
           id="tspan868">5.5</tspan></text>
      <text
         xml:space="preserve"
         style="font-style:normal;font-variant:normal;font-weight:normal;font-stretch:normal;font-size:19.08575249px;line-height:1.25;font-family:'Century Gothic';-inkscape-font-specification:'Century Gothic';letter-spacing:0px;word-spacing:0px;fill:#2a7fff;fill-opacity:1;stroke:none;stroke-width:0.47714379"
         x="-510.81625"
         y="23.669666"
         id="text834-3"><tspan
           sodipodi:role="line"
           x="-510.81625"
           y="23.669666"
           style="font-style:normal;font-variant:normal;font-weight:bold;font-stretch:normal;font-family:'Liberation Sans';-inkscape-font-specification:'Liberation Sans Bold';text-align:center;text-anchor:middle;fill:#2a7fff;stroke-width:0.47714379"
           id="tspan841-7">C++</tspan></text>
    </g>
  </g>
</svg>
