<svg xmlns="http://www.w3.org/2000/svg" width="48" height="48" viewBox="0 0 12.7 12.7">
  <path d="M5.12 6.431v.881m-.404-1.94v1.033h.805V5.358m3.343-1.364H4.27l-.115.115v1.11l.115.115h4.594m.274-3.424l.378 1.479m.305-1.665l.38 1.48m.524-2.948a1.61 1.61 0 01-3.219 0zm.908 4.42a1.455 1.455 0 01-1.454 1.455 1.455 1.455 0 01-1.454-1.455 1.455 1.455 0 011.456-1.452 1.455 1.455 0 011.455 1.455zm-.619 0a.836.836 0 01-.835.836.836.836 0 01-.836-.836.836.836 0 01.836-.836.836.836 0 01.835.836zm0 0a.836.836 0 01-.835.836.836.836 0 01-.836-.836.836.836 0 01.836-.836.836.836 0 01.835.836zM2.33 12.443a1.445 1.445 0 110-2.89h8.041a1.445 1.445 0 010 2.89zm1.592-2.955v-.743l-.23-.229h-.698l-.228.229v.743m2.9 0v-.743l-.229-.229h-.7l-.228.229v.743m2.9 0v-.743l-.229-.229h-.7l-.229.229v.743m2.901 0v-.743l-.23-.229h-.699l-.229.229v.743M3.286 11a.836.836 0 01-.836.836.836.836 0 01-.836-.836.836.836 0 01.836-.836.836.836 0 01.836.836zm2.602 0a.836.836 0 01-.836.836.836.836 0 01-.836-.836.836.836 0 01.836-.836.836.836 0 01.836.836zm2.602 0a.836.836 0 01-.838.836.836.836 0 01-.835-.836.836.836 0 01.835-.836.836.836 0 01.838.836zm2.6 0a.836.836 0 01-.836.836.836.836 0 01-.836-.836.836.836 0 01.836-.836.836.836 0 01.836.836z" fill="none" stroke="#fff" stroke-width=".397"/>
</svg>
