<?xml version="1.0" encoding="UTF-8"?>
<svg id="svg5672" width="12.094" height="2912.8" version="1.1" viewBox="0 0 12.094 2912.8" xmlns="http://www.w3.org/2000/svg">
 <g id="text4786" aria-label="█">
  <path id="path5680" d="m0.50381 14.256v-14.256h9.4629v14.256z" stroke-width=".265"/>
 </g>
 <g id="text4790" aria-label="!">
  <path id="path5683" d="m2.4315 22.768h1.1895v1.4883h-1.1895zm0-7.2598h1.1895v3.8379l-0.11719 2.0918h-0.94922l-0.12305-2.0918z" stroke-width=".265"/>
 </g>
 <g id="text4794" aria-label='"'>
  <path id="path5686" d="m2.7714 28.508v3.252h-0.99609v-3.252zm2.2148 0v3.252h-0.99609v-3.252z" stroke-width=".265"/>
 </g>
 <g id="text4798" aria-label="#">
  <path id="path5689" d="m6.7558 44.977h-1.7051l-0.49219 1.957h1.7168zm-0.87891-3.334-0.60938 2.4316h1.7109l0.61523-2.4316h0.9375l-0.60352 2.4316h1.8281v0.90234h-2.0566l-0.48047 1.957h1.8633v0.89648h-2.0918l-0.60938 2.4258h-0.9375l0.60352-2.4258h-1.7168l-0.60352 2.4258h-0.94336l0.60938-2.4258h-1.8457v-0.89648h2.0625l0.49219-1.957h-1.8867v-0.90234h2.1152l0.59766-2.4316z" stroke-width=".265"/>
 </g>
 <g id="text4802" aria-label="$">
  <path id="path5692" d="m4.6757 65.02h-0.58594l-0.00586-1.7637q-0.61523-0.011719-1.2305-0.14062-0.61523-0.13477-1.2363-0.39844v-1.0547q0.59766 0.375 1.207 0.56836 0.61523 0.1875 1.2656 0.19336v-2.6719q-1.2949-0.21094-1.8867-0.71484-0.58594-0.50391-0.58594-1.3828 0-0.95508 0.63867-1.5059 0.63867-0.55078 1.834-0.63281v-1.377h0.58594v1.3594q0.54492 0.02344 1.0547 0.11719 0.50977 0.08789 0.99609 0.24609v1.0254q-0.48633-0.24609-1.002-0.38086-0.50977-0.13477-1.0488-0.1582v2.502q1.3301 0.20508 1.957 0.73242 0.62695 0.52734 0.62695 1.4414 0 0.99023-0.66797 1.5645-0.66211 0.56836-1.916 0.65625zm-0.58594-6.2754v-2.4023q-0.67969 0.07617-1.0371 0.38672-0.35742 0.31055-0.35742 0.82617 0 0.50391 0.32812 0.78516 0.33398 0.28125 1.0664 0.4043zm0.58594 1.125v2.5371q0.74414-0.09961 1.1191-0.42188 0.38086-0.32226 0.38086-0.84961 0-0.51562-0.36328-0.82031-0.35742-0.30469-1.1367-0.44531z" stroke-width=".265"/>
 </g>
 <g id="text4806" aria-label="%">
  <path id="path5695" d="m9.3456 72.406q-0.50977 0-0.80273 0.43359-0.28711 0.43359-0.28711 1.207 0 0.76172 0.28711 1.2012 0.29297 0.43359 0.80273 0.43359 0.49805 0 0.78516-0.43359 0.29297-0.43945 0.29297-1.2012 0-0.76758-0.29297-1.2012-0.28711-0.43945-0.78516-0.43945zm0-0.74414q0.92578 0 1.4707 0.64453 0.54492 0.64453 0.54492 1.7402t-0.55078 1.7402q-0.54492 0.63867-1.4648 0.63867-0.9375 0-1.4824-0.63867-0.54492-0.64453-0.54492-1.7402 0-1.1016 0.54492-1.7402 0.55078-0.64453 1.4824-0.64453zm-6.0469-3.5684q-0.50391 0-0.79688 0.43945-0.28711 0.43359-0.28711 1.1953 0 0.77344 0.28711 1.207 0.28711 0.43359 0.79688 0.43359 0.50977 0 0.79688-0.43359 0.29297-0.43359 0.29297-1.207 0-0.75586-0.29297-1.1953-0.29297-0.43945-0.79688-0.43945zm5.291-0.74414h0.9375l-5.4727 9.0762h-0.9375zm-5.291 0q0.92578 0 1.4766 0.64453 0.55078 0.63867 0.55078 1.7344 0 1.1074-0.55078 1.7461-0.54492 0.63867-1.4766 0.63867-0.93164 0-1.4766-0.63867-0.53906-0.64453-0.53906-1.7461 0-1.0898 0.54492-1.7344 0.54492-0.64453 1.4707-0.64453z" stroke-width=".265"/>
 </g>
 <g id="text4810" aria-label="&amp;">
  <path id="path5698" d="m3.539 84.551q-0.5332 0.47461-0.78516 0.94922-0.24609 0.46875-0.24609 0.98438 0 0.85547 0.62109 1.4238 0.62109 0.56836 1.5586 0.56836 0.55664 0 1.043-0.18164 0.48633-0.1875 0.91406-0.5625zm0.82617-0.65625 2.9766 3.0469q0.3457-0.52148 0.53906-1.1133 0.19336-0.59766 0.22852-1.2656h1.0898q-0.070312 0.77344-0.375 1.5293-0.30469 0.75586-0.84961 1.4941l1.6348 1.6699h-1.4766l-0.83789-0.86133q-0.60938 0.52148-1.2773 0.7793-0.66797 0.25195-1.4355 0.25195-1.4121 0-2.3086-0.80274-0.89648-0.80859-0.89648-2.0684 0-0.75 0.39258-1.4062 0.39258-0.66211 1.1777-1.2422-0.28125-0.36914-0.42773-0.73242-0.14648-0.36914-0.14648-0.7207 0-0.94922 0.65039-1.5234 0.65039-0.58008 1.7285-0.58008 0.48633 0 0.9668 0.10547 0.48633 0.10547 0.98438 0.31641v1.0664q-0.50977-0.27539-0.97266-0.41602-0.46289-0.14648-0.86133-0.14648-0.61523 0-1.002 0.32812-0.38086 0.32227-0.38086 0.83789 0 0.29883 0.16992 0.60352 0.17578 0.29883 0.70898 0.84961z" stroke-width=".265"/>
 </g>
 <g id="text4814" aria-label="'">
  <path id="path5701" d="m2.7714 93.508v3.252h-0.99609v-3.252z" stroke-width=".265"/>
 </g>
 <g id="text4818" aria-label="(">
  <path id="path5704" d="m4.3417 106.15q-0.78516 1.3476-1.166 2.666t-0.38086 2.6719q0 1.3535 0.38086 2.6836 0.38672 1.3242 1.166 2.666h-0.9375q-0.87891-1.377-1.3184-2.707-0.43359-1.3301-0.43359-2.6426 0-1.3066 0.43359-2.6309 0.43359-1.3242 1.3184-2.707z" stroke-width=".265"/>
 </g>
 <g id="text4822" aria-label=")">
  <path id="path5707" d="m1.5819 119.15h0.9375q0.87891 1.3828 1.3125 2.707 0.43945 1.3242 0.43945 2.6309 0 1.3125-0.43945 2.6426-0.43359 1.3301-1.3125 2.707h-0.9375q0.7793-1.3418 1.1602-2.666 0.38672-1.3301 0.38672-2.6836 0-1.3535-0.38672-2.6719-0.38086-1.3184-1.1602-2.666z" stroke-width=".265"/>
 </g>
 <g id="text4826" aria-label="*">
  <path id="path5710" d="m6.2636 133.95-2.1035 1.1367 2.1035 1.1426-0.33984 0.57422-1.9688-1.1894v2.209h-0.66797v-2.209l-1.9688 1.1894-0.33984-0.57422 2.1035-1.1426-2.1035-1.1367 0.33984-0.58008 1.9688 1.1894v-2.209h0.66797v2.209l1.9688-1.1894z" stroke-width=".265"/>
 </g>
 <g id="text4830" aria-label="+">
  <path id="path5713" d="m6.1405 146.73v3.2637h3.2637v0.99609h-3.2637v3.2637h-0.98438v-3.2637h-3.2637v-0.99609h3.2637v-3.2637z" stroke-width=".265"/>
 </g>
 <g id="text4834" aria-label=",">
  <path id="path5716" d="m2.0272 165.77h1.2363v1.0078l-0.96094 1.875h-0.75586l0.48047-1.875z" stroke-width=".265"/>
 </g>
 <g id="text4838" aria-label="-">
  <path id="path5719" d="m1.2069 176.49h3.1582v0.96094h-3.1582z" stroke-width=".265"/>
 </g>
 <g id="text4842" aria-label=".">
  <path id="path5722" d="m1.9042 191.77h1.2363v1.4883h-1.2363z" stroke-width=".265"/>
 </g>
 <g id="text4846" aria-label="/">
  <path id="path5725" d="m3.6679 197.51h0.99609l-3.0469 9.8613h-0.99609z" stroke-width=".265"/>
 </g>
 <g id="text4850" aria-label="0">
  <path id="path5728" d="m4.4355 211.29q-0.91406 0-1.377 0.90234-0.45703 0.89648-0.45703 2.7012 0 1.7988 0.45703 2.7012 0.46289 0.89649 1.377 0.89649 0.91992 0 1.377-0.89649 0.46289-0.90234 0.46289-2.7012 0-1.8047-0.46289-2.7012-0.45703-0.90234-1.377-0.90234zm0-0.9375q1.4707 0 2.2441 1.166 0.7793 1.1602 0.7793 3.375 0 2.209-0.7793 3.375-0.77344 1.1602-2.2441 1.1602t-2.25-1.1602q-0.77344-1.166-0.77344-3.375 0-2.2148 0.77344-3.375 0.7793-1.166 2.25-1.166z" stroke-width=".265"/>
 </g>
 <g id="text4854" aria-label="1">
  <path id="path5731" d="m2.1093 231.26h1.9336v-6.6738l-2.1035 0.42188v-1.0781l2.0918-0.42187h1.1836v7.752h1.9336v0.9961h-5.0391z" stroke-width=".265"/>
 </g>
 <g id="text4858" aria-label="2">
  <path id="path5734" d="m2.9237 244.26h4.1309v0.9961h-5.5547v-0.9961q0.67383-0.69726 1.834-1.8691 1.166-1.1777 1.4648-1.5176 0.56836-0.63867 0.79102-1.0781 0.22852-0.44531 0.22852-0.87305 0-0.69726-0.49219-1.1367-0.48633-0.43945-1.2715-0.43945-0.55664 0-1.1777 0.19336-0.61523 0.19336-1.3184 0.58594v-1.1953q0.71484-0.2871 1.3359-0.43359 0.62109-0.14648 1.1367-0.14648 1.3594 0 2.168 0.67968 0.80859 0.67969 0.80859 1.8164 0 0.53906-0.20508 1.0254-0.19922 0.48047-0.73242 1.1367-0.14648 0.16992-0.93164 0.98437-0.78516 0.8086-2.2148 2.2676z" stroke-width=".265"/>
 </g>
 <g id="text4862" aria-label="3">
  <path id="path5737" d="m5.4901 253.54q0.84961 0.18164 1.3242 0.75585 0.48047 0.57422 0.48047 1.418 0 1.2949-0.89062 2.0039t-2.5312 0.70898q-0.55078 0-1.1367-0.11132-0.58008-0.10547-1.2012-0.32227v-1.1426q0.49219 0.28711 1.0781 0.4336 0.58594 0.14648 1.2246 0.14648 1.1133 0 1.6934-0.43945 0.58594-0.43946 0.58594-1.2774 0-0.77343-0.54492-1.207-0.53906-0.43945-1.5059-0.43945h-1.0195v-0.97266h1.0664q0.87305 0 1.3359-0.3457 0.46289-0.35156 0.46289-1.0078 0-0.67383-0.48047-1.0312-0.47461-0.36328-1.3652-0.36328-0.48633 0-1.043 0.10546-0.55664 0.10547-1.2246 0.32813v-1.0547q0.67383-0.1875 1.2598-0.28125 0.5918-0.0937 1.1133-0.0937 1.3477 0 2.1328 0.61524 0.78516 0.60937 0.78516 1.6523 0 0.72656-0.41602 1.2305-0.41602 0.49805-1.1836 0.69141z" stroke-width=".265"/>
 </g>
 <g id="text4866" aria-label="4">
  <path id="path5740" d="m5.1562 263.54-2.9883 4.6699h2.9883zm-0.31055-1.0312h1.4883v5.7012h1.248v0.98437h-1.248v2.0625h-1.1777v-2.0625h-3.9492v-1.1426z" stroke-width=".265"/>
 </g>
 <g id="text4870" aria-label="5">
  <path id="path5743" d="m1.9159 275.51h4.6465v0.99609h-3.5625v2.1445q0.25781-0.0879 0.51562-0.12891 0.25781-0.0469 0.51562-0.0469 1.4648 0 2.3203 0.80273 0.85547 0.80274 0.85547 2.1738 0 1.4121-0.87891 2.1973-0.87891 0.77929-2.4785 0.77929-0.55078 0-1.125-0.0937-0.56836-0.0937-1.1777-0.28125v-1.1894q0.52734 0.28711 1.0898 0.42774 0.5625 0.14062 1.1895 0.14062 1.0137 0 1.6055-0.5332 0.5918-0.53321 0.5918-1.4473t-0.5918-1.4473q-0.5918-0.53321-1.6055-0.53321-0.47461 0-0.94922 0.10547-0.46875 0.10547-0.96094 0.32813z" stroke-width=".265"/>
 </g>
 <g id="text4874" aria-label="6">
  <path id="path5746" d="m4.5819 292.41q-0.79688 0-1.2656 0.54492-0.46289 0.54492-0.46289 1.4941 0 0.94336 0.46289 1.4941 0.46875 0.54492 1.2656 0.54492t1.2598-0.54492q0.46875-0.55078 0.46875-1.4941 0-0.94922-0.46875-1.4941-0.46289-0.54492-1.2598-0.54492zm2.3496-3.709v1.0781q-0.44531-0.21094-0.90234-0.32227-0.45117-0.11132-0.89648-0.11132-1.1719 0-1.793 0.79101-0.61523 0.79102-0.70312 2.3906 0.3457-0.50977 0.86719-0.7793 0.52148-0.27539 1.1484-0.27539 1.3184 0 2.0801 0.80273 0.76758 0.79688 0.76758 2.1738 0 1.3477-0.79688 2.1621t-2.1211 0.81445q-1.5176 0-2.3203-1.1602-0.80273-1.166-0.80273-3.375 0-2.0742 0.98438-3.3047 0.98438-1.2363 2.6426-1.2363 0.44531 0 0.89648 0.0879 0.45703 0.0879 0.94922 0.26367z" stroke-width=".265"/>
 </g>
 <g id="text4878" aria-label="7">
  <path id="path5749" d="m1.6054 301.51h5.625v0.5039l-3.1758 8.2441h-1.2363l2.9883-7.752h-4.2012z" stroke-width=".265"/>
 </g>
 <g id="text4882" aria-label="8">
  <path id="path5752" d="m4.4355 319.1q-0.84375 0-1.3301 0.45117-0.48047 0.45117-0.48047 1.2422 0 0.79102 0.48047 1.2422 0.48633 0.45117 1.3301 0.45117t1.3301-0.45117q0.48633-0.45703 0.48633-1.2422 0-0.79101-0.48633-1.2422-0.48047-0.45117-1.3301-0.45117zm-1.1836-0.50391q-0.76172-0.1875-1.1895-0.70899-0.42188-0.52148-0.42188-1.2715 0-1.0488 0.74414-1.6582 0.75-0.60938 2.0508-0.60938 1.3066 0 2.0508 0.60938 0.74414 0.60937 0.74414 1.6582 0 0.75-0.42773 1.2715-0.42188 0.52149-1.1777 0.70899 0.85547 0.19922 1.3301 0.7793 0.48047 0.58007 0.48047 1.418 0 1.2715-0.7793 1.9512-0.77344 0.67968-2.2207 0.67968t-2.2266-0.67968q-0.77344-0.67969-0.77344-1.9512 0-0.83789 0.48047-1.418 0.48047-0.58008 1.3359-0.7793zm-0.43359-1.8691q0 0.67969 0.42188 1.0606 0.42773 0.38085 1.1953 0.38085 0.76172 0 1.1895-0.38085 0.43359-0.38086 0.43359-1.0606t-0.43359-1.0606q-0.42773-0.38086-1.1895-0.38086-0.76758 0-1.1953 0.38086-0.42188 0.38086-0.42188 1.0606z" stroke-width=".265"/>
 </g>
 <g id="text4886" aria-label="9">
  <path id="path5755" d="m1.9394 336.07v-1.0781q0.44531 0.21093 0.90234 0.32226 0.45703 0.11133 0.89648 0.11133 1.1719 0 1.7871-0.78516 0.62109-0.79101 0.70898-2.3965-0.33984 0.50391-0.86133 0.77344t-1.1543 0.26953q-1.3125 0-2.0801-0.79102-0.76172-0.79687-0.76172-2.1738 0-1.3476 0.79688-2.1621 0.79688-0.81446 2.1211-0.81446 1.5176 0 2.3145 1.166 0.80273 1.1602 0.80273 3.375 0 2.0684-0.98438 3.3047-0.97852 1.2305-2.6367 1.2305-0.44531 0-0.90234-0.0879-0.45703-0.0879-0.94922-0.26367zm2.3555-3.709q0.79688 0 1.2598-0.54492 0.46875-0.54493 0.46875-1.4942 0-0.94335-0.46875-1.4883-0.46289-0.55078-1.2598-0.55078t-1.2656 0.55078q-0.46289 0.54493-0.46289 1.4883 0 0.94922 0.46289 1.4942 0.46875 0.54492 1.2656 0.54492z" stroke-width=".265"/>
 </g>
 <g id="text4890" aria-label=":">
  <path id="path5758" d="m2.0272 347.77h1.2363v1.4883h-1.2363zm0-4.7168h1.2363v1.4883h-1.2363z" stroke-width=".265"/>
 </g>
 <g id="text4894" aria-label=";">
  <path id="path5761" d="m2.0272 356.05h1.2363v1.4883h-1.2363zm0 4.7168h1.2363v1.0078l-0.96094 1.875h-0.75586l0.48047-1.875z" stroke-width=".265"/>
 </g>
 <g id="text4898" aria-label="&lt;">
  <path id="path5764" d="m9.4042 369.35-6.0469 2.1504 6.0469 2.1387v1.0664l-7.5117-2.7246v-0.97265l7.5117-2.7246z" stroke-width=".265"/>
 </g>
 <g id="text4902" aria-label="=">
  <path id="path5767" d="m1.8925 382.81h7.5117v0.98438h-7.5117zm0 2.3906h7.5117v0.99609h-7.5117z" stroke-width=".265"/>
 </g>
 <g id="text4906" aria-label="&gt;">
  <path id="path5770" d="m1.8925 395.35v-1.0664l7.5117 2.7246v0.97265l-7.5117 2.7246v-1.0664l6.0352-2.1387z" stroke-width=".265"/>
 </g>
 <g id="text4910" aria-label="?">
  <path id="path5773" d="m2.912 412.77h1.1895v1.4883h-1.1895zm1.1543-0.86133h-1.1191v-0.90234q0-0.5918 0.16406-0.97266t0.69141-0.88476l0.52734-0.52149q0.33398-0.31054 0.48047-0.58593 0.15234-0.2754 0.15234-0.5625 0-0.52149-0.38672-0.84375-0.38086-0.32227-1.0137-0.32227-0.46289 0-0.99023 0.20508-0.52148 0.20508-1.0898 0.59765v-1.1016q0.55078-0.33398 1.1133-0.49805 0.56836-0.16406 1.1719-0.16406 1.0781 0 1.7285 0.56836 0.65625 0.56836 0.65625 1.5 0 0.44531-0.21094 0.84961-0.21094 0.39844-0.73828 0.90234l-0.51562 0.50391q-0.27539 0.27539-0.39258 0.43359-0.11133 0.15235-0.1582 0.29883-0.035156 0.12305-0.052734 0.29883t-0.017578 0.48047z" stroke-width=".265"/>
 </g>
 <g id="text4914" aria-label="@">
  <path id="path5776" d="m5.0858 424.11q0 0.83789 0.41602 1.3184 0.41602 0.47461 1.1426 0.47461 0.7207 0 1.1309-0.48047 0.41602-0.48047 0.41602-1.3125 0-0.82031-0.42188-1.3008-0.42188-0.48633-1.1367-0.48633-0.70898 0-1.1309 0.48047-0.41602 0.48047-0.41602 1.3066zm3.1934 1.752q-0.35156 0.45117-0.80859 0.66797-0.45117 0.21094-1.0547 0.21094-1.0078 0-1.6406-0.72657-0.62695-0.73242-0.62695-1.9043 0-1.1719 0.63281-1.9043t1.6348-0.73242q0.60352 0 1.0605 0.22266 0.45703 0.21679 0.80273 0.6621v-0.76757h0.83789v4.3125q0.85547-0.12891 1.3359-0.7793 0.48633-0.65625 0.48633-1.6934 0-0.62695-0.1875-1.1777-0.18164-0.55079-0.55664-1.0195-0.60938-0.76757-1.4883-1.1719-0.87305-0.41016-1.9043-0.41016-0.7207 0-1.3828 0.19336-0.66211 0.1875-1.2246 0.5625-0.91992 0.59766-1.4414 1.5703-0.51562 0.96679-0.51562 2.0976 0 0.93164 0.33398 1.7461 0.33984 0.81445 0.97852 1.4355 0.61523 0.60938 1.4238 0.92578 0.80859 0.32227 1.7285 0.32227 0.75586 0 1.4824-0.25781 0.73242-0.25196 1.3418-0.72657l0.52734 0.65039q-0.73242 0.56836-1.5996 0.86719-0.86133 0.30469-1.752 0.30469-1.084 0-2.0449-0.38672-0.96094-0.38086-1.7109-1.1133t-1.1426-1.6934q-0.39258-0.9668-0.39258-2.0742 0-1.0664 0.39844-2.0332t1.1367-1.6992q0.75586-0.74414 1.7461-1.1367 0.99023-0.39844 2.0977-0.39844 1.2422 0 2.3027 0.50977 1.0664 0.50976 1.7871 1.4473 0.43945 0.57422 0.66797 1.248 0.23438 0.67383 0.23438 1.3945 0 1.541-0.93164 2.4316-0.93164 0.89063-2.5723 0.92578z" stroke-width=".265"/>
 </g>
 <g id="text4918" aria-label="A">
  <path id="path5779" d="m4.7226 432.67-1.6055 4.3535h3.2168zm-0.66797-1.166h1.3418l3.334 8.748h-1.2305l-0.79688-2.2441h-3.9434l-0.79688 2.2441h-1.248z" stroke-width=".265"/>
 </g>
 <g id="text4922" aria-label="B">
  <path id="path5782" d="m2.9823 449.08v3.2051h1.8984q0.95508 0 1.4121-0.39258 0.46289-0.39844 0.46289-1.2129 0-0.82032-0.46289-1.207-0.45703-0.39258-1.4121-0.39258zm0-3.5977v2.6367h1.752q0.86719 0 1.2891-0.32227 0.42773-0.32812 0.42773-0.99609 0-0.66211-0.42773-0.99023-0.42188-0.32813-1.2891-0.32813zm-1.1836-0.97265h3.0234q1.3535 0 2.0859 0.5625 0.73242 0.5625 0.73242 1.5996 0 0.80274-0.375 1.2774t-1.1016 0.5918q0.87305 0.1875 1.3535 0.78515 0.48633 0.5918 0.48633 1.4824 0 1.1719-0.79688 1.8106t-2.2676 0.63867h-3.1406z" stroke-width=".265"/>
 </g>
 <g id="text4926" aria-label="C">
  <path id="path5785" d="m8.3495 458.18v1.248q-0.59766-0.55664-1.2773-0.83203-0.67383-0.27539-1.4355-0.27539-1.5 0-2.2969 0.91992-0.79688 0.91406-0.79688 2.6484 0 1.7285 0.79688 2.6484 0.79688 0.91406 2.2969 0.91406 0.76172 0 1.4355-0.27539 0.67969-0.27539 1.2773-0.83203v1.2363q-0.62109 0.42188-1.3184 0.63282-0.69141 0.21093-1.4648 0.21093-1.9863 0-3.1289-1.2129-1.1426-1.2188-1.1426-3.3223 0-2.1094 1.1426-3.3223 1.1426-1.2188 3.1289-1.2188 0.78516 0 1.4766 0.21094 0.69727 0.20508 1.3066 0.62109z" stroke-width=".265"/>
 </g>
 <g id="text4930" aria-label="D">
  <path id="path5788" d="m2.9823 471.48v6.8027h1.4297q1.8105 0 2.6484-0.82032 0.84375-0.82031 0.84375-2.5898 0-1.7578-0.84375-2.5723-0.83789-0.82031-2.6484-0.82031zm-1.1836-0.97265h2.4316q2.543 0 3.7324 1.0605 1.1895 1.0547 1.1895 3.3047 0 2.2617-1.1953 3.3223-1.1953 1.0605-3.7266 1.0605h-2.4316z" stroke-width=".265"/>
 </g>
 <g id="text4934" aria-label="E">
  <path id="path5791" d="m1.7987 483.51h5.5312v0.99609h-4.3477v2.5898h4.166v0.9961h-4.166v3.1699h4.4531v0.99609h-5.6367z" stroke-width=".265"/>
 </g>
 <g id="text4938" aria-label="F">
  <path id="path5794" d="m1.7987 496.51h5.0273v0.99609h-3.8438v2.5781h3.4688v0.9961h-3.4688v4.1777h-1.1836z" stroke-width=".265"/>
 </g>
 <g id="text4942" aria-label="G">
  <path id="path5797" d="m7.7636 517.01v-2.3496h-1.9336v-0.97266h3.1055v3.7559q-0.68555 0.48633-1.5117 0.73828-0.82617 0.24609-1.7637 0.24609-2.0508 0-3.2109-1.1953-1.1543-1.2012-1.1543-3.3398 0-2.1445 1.1543-3.3398 1.1602-1.2012 3.2109-1.2012 0.85547 0 1.623 0.21094 0.77344 0.21094 1.4238 0.62109v1.2598q-0.65625-0.55664-1.3945-0.83789-0.73828-0.28125-1.5527-0.28125-1.6055 0-2.4141 0.89648-0.80273 0.89649-0.80273 2.6719 0 1.7695 0.80273 2.666 0.80859 0.89649 2.4141 0.89649 0.62695 0 1.1191-0.10547 0.49219-0.11133 0.88477-0.33985z" stroke-width=".265"/>
 </g>
 <g id="text4946" aria-label="H">
  <path id="path5800" d="m1.7987 522.51h1.1836v3.5859h4.3008v-3.5859h1.1836v8.748h-1.1836v-4.166h-4.3008v4.166h-1.1836z" stroke-width=".265"/>
 </g>
 <g id="text4950" aria-label="I">
  <path id="path5803" d="m1.7987 535.51h1.1836v8.748h-1.1836z" stroke-width=".265"/>
 </g>
 <g id="text4954" aria-label="J">
  <path id="path5806" d="m1.7987 548.51h1.1836v8.1387q0 1.582-0.60352 2.2969-0.59766 0.71485-1.9277 0.71485h-0.45117v-0.9961h0.36914q0.78516 0 1.1074-0.43945 0.32227-0.43945 0.32227-1.5762z" stroke-width=".265"/>
 </g>
 <g id="text4958" aria-label="K">
  <path id="path5809" d="m1.7987 561.51h1.1836v3.6973l3.9258-3.6973h1.5234l-4.3418 4.0781 4.6523 4.6699h-1.5586l-4.2012-4.2129v4.2129h-1.1836z" stroke-width=".265"/>
 </g>
 <g id="text4962" aria-label="L">
  <path id="path5812" d="m1.7987 574.51h1.1836v7.752h4.2598v0.99609h-5.4434z" stroke-width=".265"/>
 </g>
 <g id="text4966" aria-label="M">
  <path id="path5815" d="m1.7987 587.51h1.7637l2.2324 5.9531 2.2441-5.9531h1.7637v8.748h-1.1543v-7.6816l-2.2559 6h-1.1895l-2.2559-6v7.6816h-1.1484z" stroke-width=".265"/>
 </g>
 <g id="text4970" aria-label="N">
  <path id="path5818" d="m1.7987 600.51h1.5938l3.8789 7.3184v-7.3184h1.1484v8.748h-1.5938l-3.8789-7.3184v7.3184h-1.1484z" stroke-width=".265"/>
 </g>
 <g id="text4974" aria-label="O">
  <path id="path5821" d="m5.3495 614.31q-1.2891 0-2.0508 0.96094-0.75586 0.96093-0.75586 2.6191 0 1.6523 0.75586 2.6133 0.76172 0.96094 2.0508 0.96094t2.0391-0.96094q0.75586-0.96094 0.75586-2.6133 0-1.6582-0.75586-2.6191-0.75-0.96094-2.0391-0.96094zm0-0.96094q1.8398 0 2.9414 1.2363 1.1016 1.2305 1.1016 3.3047 0 2.0684-1.1016 3.3047-1.1016 1.2305-2.9414 1.2305-1.8457 0-2.9531-1.2305-1.1016-1.2305-1.1016-3.3047t1.1016-3.3047q1.1074-1.2363 2.9531-1.2363z" stroke-width=".265"/>
 </g>
 <g id="text4978" aria-label="P">
  <path id="path5824" d="m2.9823 627.48v3.2871h1.4883q0.82617 0 1.2773-0.42773 0.45117-0.42774 0.45117-1.2188 0-0.78516-0.45117-1.2129-0.45117-0.42774-1.2773-0.42774zm-1.1836-0.97266h2.6719q1.4707 0 2.2207 0.66797 0.75586 0.66211 0.75586 1.9453 0 1.2949-0.75586 1.957-0.75 0.66211-2.2207 0.66211h-1.4883v3.5156h-1.1836z" stroke-width=".265"/>
 </g>
 <g id="text4982" aria-label="Q">
  <path id="path5827" d="m5.3495 640.31q-1.2891 0-2.0508 0.96094-0.75586 0.96093-0.75586 2.6191 0 1.6523 0.75586 2.6133 0.76172 0.96094 2.0508 0.96094t2.0391-0.96094q0.75586-0.96094 0.75586-2.6133 0-1.6582-0.75586-2.6191-0.75-0.96094-2.0391-0.96094zm1.6582 7.7871 1.5586 1.7051h-1.4297l-1.2949-1.4004q-0.19336 0.0117-0.29883 0.0176-0.099609 6e-3 -0.19336 6e-3 -1.8457 0-2.9531-1.2305-1.1016-1.2363-1.1016-3.3047 0-2.0742 1.1016-3.3047 1.1074-1.2363 2.9531-1.2363 1.8398 0 2.9414 1.2363 1.1016 1.2305 1.1016 3.3047 0 1.5234-0.61523 2.6074-0.60938 1.084-1.7695 1.5996z" stroke-width=".265"/>
 </g>
 <g id="text4986" aria-label="R">
  <path id="path5830" d="m5.9472 657.15q0.38086 0.12891 0.73828 0.55078 0.36328 0.42188 0.72656 1.1602l1.2012 2.3906h-1.2715l-1.1191-2.2441q-0.43359-0.87891-0.84375-1.166-0.4043-0.28711-1.1074-0.28711h-1.2891v3.6973h-1.1836v-8.748h2.6719q1.5 0 2.2383 0.62696 0.73828 0.62695 0.73828 1.8926 0 0.82617-0.38672 1.3711-0.38086 0.54492-1.1133 0.75586zm-2.9648-3.6738v3.1055h1.4883q0.85547 0 1.2891-0.39258 0.43945-0.39844 0.43945-1.166 0-0.76758-0.43945-1.1543-0.43359-0.39258-1.2891-0.39258z" stroke-width=".265"/>
 </g>
 <g id="text4990" aria-label="S">
  <path id="path5833" d="m7.0429 665.8v1.1543q-0.67383-0.32226-1.2715-0.48047-0.59766-0.1582-1.1543-0.1582-0.9668 0-1.4941 0.375-0.52148 0.375-0.52148 1.0664 0 0.58007 0.3457 0.8789 0.35156 0.29297 1.3242 0.47461l0.71484 0.14649q1.3242 0.25195 1.9512 0.89062 0.63281 0.63281 0.63281 1.6992 0 1.2715-0.85547 1.9277-0.84961 0.65625-2.4961 0.65625-0.62109 0-1.3242-0.14062-0.69727-0.14063-1.4473-0.41602v-1.2188q0.7207 0.4043 1.4121 0.60938 0.69141 0.20508 1.3594 0.20508 1.0137 0 1.5645-0.39844 0.55078-0.39844 0.55078-1.1367 0-0.64453-0.39844-1.0078-0.39258-0.36328-1.2949-0.54492l-0.7207-0.14063q-1.3242-0.26367-1.916-0.82617t-0.5918-1.5644q0-1.1602 0.81445-1.8281 0.82031-0.66797 2.2559-0.66797 0.61523 0 1.2539 0.11133 0.63867 0.11133 1.3066 0.33398z" stroke-width=".265"/>
 </g>
 <g id="text4994" aria-label="T">
  <path id="path5836" d="m0.58584 678.51h7.4004v0.9961h-3.1055v7.752h-1.1895v-7.752h-3.1055z" stroke-width=".265"/>
 </g>
 <g id="text4998" aria-label="U">
  <path id="path5839" d="m1.664 691.51h1.1895v5.3145q0 1.4062 0.50977 2.0273 0.50977 0.61524 1.6523 0.61524 1.1367 0 1.6465-0.61524 0.50977-0.62109 0.50977-2.0273v-5.3145h1.1895v5.4609q0 1.7109-0.84961 2.584-0.84375 0.87304-2.4961 0.87304-1.6582 0-2.5078-0.87304-0.84375-0.87305-0.84375-2.584z" stroke-width=".265"/>
 </g>
 <g id="text5002" aria-label="V">
  <path id="path5842" d="m4.0546 713.26-3.3398-8.748h1.2363l2.7715 7.3652 2.7773-7.3652h1.2305l-3.334 8.748z" stroke-width=".265"/>
 </g>
 <g id="text5006" aria-label="W">
  <path id="path5845" d="m1.0194 717.51h1.1953l1.8398 7.3945 1.834-7.3945h1.3301l1.8398 7.3945 1.834-7.3945h1.2012l-2.1973 8.748h-1.4883l-1.8457-7.5938-1.8633 7.5938h-1.4883z" stroke-width=".265"/>
 </g>
 <g id="text5010" aria-label="X">
  <path id="path5848" d="m1.3769 730.51h1.2715l2.1738 3.252 2.1855-3.252h1.2715l-2.8125 4.2012 3 4.5469h-1.2715l-2.4609-3.7207-2.4785 3.7207h-1.2773l3.123-4.6699z" stroke-width=".265"/>
 </g>
 <g id="text5014" aria-label="Y">
  <path id="path5851" d="m0.59756 743.51h1.2715l2.4258 3.5977 2.4082-3.5977h1.2715l-3.0938 4.582v4.166h-1.1895v-4.166z" stroke-width=".265"/>
 </g>
 <g id="text5018" aria-label="Z">
  <path id="path5854" d="m1.2948 756.51h6.873v0.90235l-5.5312 6.8496h5.666v0.99609h-7.1426v-0.90234l5.5312-6.8496h-5.3965z" stroke-width=".265"/>
 </g>
 <g id="text5022" aria-label="[">
  <path id="path5857" d="m1.6522 769.14h2.4844v0.83789h-1.4062v9.0234h1.4062v0.83789h-2.4844z" stroke-width=".265"/>
 </g>
 <g id="text5026" aria-label="\">
  <path id="path5860" d="m1.6171 782.51 3.0469 9.8613h-0.99609l-3.0469-9.8613z" stroke-width=".265"/>
 </g>
 <g id="text5030" aria-label="]">
  <path id="path5863" d="m4.2714 795.14v10.699h-2.4844v-0.83789h1.4004v-9.0234h-1.4004v-0.83789z" stroke-width=".265"/>
 </g>
 <g id="text5034" aria-label="^">
  <path id="path5866" d="m6.2226 808.51 3.1816 3.2637h-1.1777l-2.5781-2.3145-2.5781 2.3145h-1.1777l3.1816-3.2637z" stroke-width=".265"/>
 </g>
 <g id="text5038" aria-label="_">
  <path id="path5869" d="m6.7382 832.25v0.83789h-6.2344v-0.83789z" stroke-width=".265"/>
 </g>
 <g id="text5042" aria-label="`">
  <path id="path5872" d="m2.7714 833.66 1.6523 2.1914h-0.89648l-1.9102-2.1914z" stroke-width=".265"/>
 </g>
 <g id="text5046" aria-label="a">
  <path id="path5875" d="m4.7343 852.96q-1.3066 0-1.8105 0.29883-0.50391 0.29883-0.50391 1.0195 0 0.57422 0.375 0.91407 0.38086 0.33398 1.0312 0.33398 0.89648 0 1.4355-0.63281 0.54492-0.63867 0.54492-1.6934v-0.24024zm2.1504-0.44531v3.7441h-1.0781v-0.99609q-0.36914 0.59765-0.91992 0.88476-0.55078 0.28125-1.3477 0.28125-1.0078 0-1.6055-0.5625-0.5918-0.56836-0.5918-1.5176 0-1.1074 0.73828-1.6699 0.74414-0.5625 2.2148-0.5625h1.5117v-0.10547q0-0.74414-0.49219-1.1484-0.48633-0.41016-1.3711-0.41016-0.5625 0-1.0957 0.13477-0.5332 0.13476-1.0254 0.40429v-0.99609q0.5918-0.22852 1.1484-0.33984 0.55664-0.11719 1.084-0.11719 1.4238 0 2.127 0.73828t0.70312 2.2383z" stroke-width=".265"/>
 </g>
 <g id="text5050" aria-label="b">
  <path id="path5878" d="m6.4628 865.98q0-1.1894-0.49219-1.8633-0.48633-0.67969-1.3418-0.67969-0.85547 0-1.3477 0.67969-0.48633 0.67383-0.48633 1.8633t0.48633 1.8691q0.49219 0.67383 1.3477 0.67383 0.85547 0 1.3418-0.67383 0.49219-0.67969 0.49219-1.8691zm-3.668-2.291q0.33984-0.58594 0.85547-0.86719 0.52148-0.28711 1.2422-0.28711 1.1953 0 1.9395 0.94922 0.75 0.94922 0.75 2.4961 0 1.5469-0.75 2.4961-0.74414 0.94922-1.9395 0.94922-0.7207 0-1.2422-0.28125-0.51562-0.28711-0.85547-0.87304v0.98437h-1.084v-9.1172h1.084z" stroke-width=".265"/>
 </g>
 <g id="text5054" aria-label="c">
  <path id="path5881" d="m6.4745 875.95v1.0078q-0.45703-0.25196-0.91992-0.375-0.45703-0.12891-0.92578-0.12891-1.0488 0-1.6289 0.66797-0.58008 0.66211-0.58008 1.8633t0.58008 1.8691q0.58008 0.66211 1.6289 0.66211 0.46875 0 0.92578-0.12305 0.46289-0.1289 0.91992-0.38086v0.9961q-0.45117 0.21094-0.9375 0.3164-0.48047 0.10547-1.0254 0.10547-1.4824 0-2.3555-0.93164-0.87305-0.93164-0.87305-2.5137 0-1.6055 0.87891-2.5254 0.88477-0.91992 2.4199-0.91992 0.49805 0 0.97266 0.10547 0.47461 0.0996 0.91992 0.30468z" stroke-width=".265"/>
 </g>
 <g id="text5058" aria-label="d">
  <path id="path5884" d="m6.0702 889.69v-3.5508h1.0781v9.1172h-1.0781v-0.98437q-0.33984 0.58593-0.86133 0.87304-0.51562 0.28125-1.2422 0.28125-1.1895 0-1.9395-0.94922-0.74414-0.94921-0.74414-2.4961 0-1.5469 0.74414-2.4961 0.75-0.94922 1.9395-0.94922 0.72656 0 1.2422 0.28711 0.52148 0.28125 0.86133 0.86719zm-3.6738 2.291q0 1.1894 0.48633 1.8691 0.49219 0.67383 1.3477 0.67383 0.85547 0 1.3477-0.67383 0.49219-0.67969 0.49219-1.8691t-0.49219-1.8633q-0.49219-0.67969-1.3477-0.67969-0.85547 0-1.3477 0.67969-0.48633 0.67383-0.48633 1.8633z" stroke-width=".265"/>
 </g>
 <g id="text5062" aria-label="e">
  <path id="path5887" d="m7.3651 904.71v0.52734h-4.957q0.070312 1.1133 0.66797 1.6992 0.60352 0.58008 1.6758 0.58008 0.62109 0 1.2012-0.15234 0.58594-0.15235 1.1602-0.45703v1.0195q-0.58008 0.24609-1.1895 0.375-0.60938 0.1289-1.2363 0.1289-1.5703 0-2.4902-0.91406-0.91406-0.91406-0.91406-2.4727 0-1.6113 0.86719-2.5547 0.87305-0.94922 2.3496-0.94922 1.3242 0 2.0918 0.85547 0.77344 0.84961 0.77344 2.3144zm-1.0781-0.31641q-0.011719-0.88476-0.49805-1.4121-0.48047-0.52734-1.2773-0.52734-0.90234 0-1.4473 0.50977-0.53906 0.50976-0.62109 1.4355z" stroke-width=".265"/>
 </g>
 <g id="text5066" aria-label="f">
  <path id="path5890" d="m5.0741 912.14v0.89649h-1.0312q-0.58008 0-0.80859 0.23437-0.22266 0.23438-0.22266 0.84375v0.58008h1.7754v0.83789h-1.7754v5.7246h-1.084v-5.7246h-1.0312v-0.83789h1.0312v-0.45703q0-1.0957 0.50977-1.5938 0.50977-0.50391 1.6172-0.50391z" stroke-width=".265"/>
 </g>
 <g id="text5070" aria-label="g">
  <path id="path5893" d="m6.0702 930.9q0-1.1719-0.48633-1.8164-0.48047-0.64453-1.3535-0.64453-0.86719 0-1.3535 0.64453-0.48047 0.64453-0.48047 1.8164 0 1.166 0.48047 1.8106 0.48633 0.64453 1.3535 0.64453 0.87305 0 1.3535-0.64453 0.48633-0.64453 0.48633-1.8106zm1.0781 2.543q0 1.6758-0.74414 2.4902-0.74414 0.82032-2.2793 0.82032-0.56836 0-1.0723-0.0879-0.50391-0.082-0.97852-0.25781v-1.0488q0.47461 0.25782 0.9375 0.38086 0.46289 0.12305 0.94336 0.12305 1.0605 0 1.5879-0.55664 0.52734-0.55078 0.52734-1.6699v-0.53321q-0.33398 0.58008-0.85547 0.86719t-1.248 0.28711q-1.207 0-1.9453-0.91992-0.73828-0.91992-0.73828-2.4375 0-1.5234 0.73828-2.4434 0.73828-0.91992 1.9453-0.91992 0.72656 0 1.248 0.28711t0.85547 0.86719v-0.9961h1.0781z" stroke-width=".265"/>
 </g>
 <g id="text5074" aria-label="h">
  <path id="path5896" d="m7.2069 943.3v3.9609h-1.0781v-3.9258q0-0.93164-0.36328-1.3945-0.36328-0.46289-1.0898-0.46289-0.87305 0-1.377 0.55664-0.50391 0.55664-0.50391 1.5176v3.709h-1.084v-9.1172h1.084v3.5742q0.38672-0.59179 0.9082-0.88476 0.52734-0.29297 1.2129-0.29297 1.1309 0 1.7109 0.70312 0.58008 0.69727 0.58008 2.0566z" stroke-width=".265"/>
 </g>
 <g id="text5078" aria-label="i">
  <path id="path5899" d="m1.7519 953.69h1.0781v6.5625h-1.0781zm0-2.5547h1.0781v1.3652h-1.0781z" stroke-width=".265"/>
 </g>
 <g id="text5082" aria-label="j">
  <path id="path5902" d="m1.7519 966.69h1.0781v6.6797q0 1.2539-0.48047 1.8164-0.47461 0.5625-1.5352 0.5625h-0.41016v-0.91407h0.28711q0.61523 0 0.83789-0.28711 0.22266-0.28125 0.22266-1.1777zm0-2.5547h1.0781v1.3652h-1.0781z" stroke-width=".265"/>
 </g>
 <g id="text5086" aria-label="k">
  <path id="path5905" d="m1.7108 977.14h1.084v5.3848l3.2168-2.8301h1.377l-3.4805 3.0703 3.627 3.4922h-1.4062l-3.334-3.2051v3.2051h-1.084z" stroke-width=".265"/>
 </g>
 <g id="text5090" aria-label="l">
  <path id="path5908" d="m1.7519 990.14h1.0781v9.1172h-1.0781z" stroke-width=".265"/>
 </g>
 <g id="text5094" aria-label="m">
  <path id="path5911" d="m6.8612 1007q0.4043-0.7265 0.9668-1.0722t1.3242-0.3457q1.0254 0 1.582 0.7207 0.55664 0.7148 0.55664 2.039v3.961h-1.084v-3.9258q0-0.9434-0.33398-1.4004-0.33398-0.457-1.0195-0.457-0.83789 0-1.3242 0.5566-0.48633 0.5567-0.48633 1.5176v3.709h-1.084v-3.9258q0-0.9492-0.33398-1.4004-0.33398-0.457-1.0312-0.457-0.82617 0-1.3125 0.5625-0.48633 0.5566-0.48633 1.5117v3.709h-1.084v-6.5625h1.084v1.0195q0.36914-0.6035 0.88477-0.8906t1.2246-0.2871q0.71484 0 1.2129 0.3633 0.50391 0.3632 0.74414 1.0546z" stroke-width=".265"/>
 </g>
 <g id="text5098" aria-label="n">
  <path id="path5914" d="m7.2069 1021.3v3.961h-1.0781v-3.9258q0-0.9316-0.36328-1.3945-0.36328-0.4629-1.0898-0.4629-0.87305 0-1.377 0.5566-0.50391 0.5567-0.50391 1.5176v3.709h-1.084v-6.5625h1.084v1.0195q0.38672-0.5918 0.9082-0.8848 0.52734-0.2929 1.2129-0.2929 1.1309 0 1.7109 0.7031 0.58008 0.6973 0.58008 2.0566z" stroke-width=".265"/>
 </g>
 <g id="text5102" aria-label="o">
  <path id="path5917" d="m4.2948 1032.4q-0.86719 0-1.3711 0.6797-0.50391 0.6739-0.50391 1.8516t0.49805 1.8574q0.50391 0.6738 1.377 0.6738 0.86133 0 1.3652-0.6796 0.50391-0.6797 0.50391-1.8516 0-1.166-0.50391-1.8457-0.50391-0.6856-1.3652-0.6856zm0-0.914q1.4062 0 2.209 0.914 0.80273 0.9141 0.80273 2.5313 0 1.6113-0.80273 2.5312-0.80273 0.9141-2.209 0.9141-1.4121 0-2.2148-0.9141-0.79688-0.9199-0.79688-2.5312 0-1.6172 0.79688-2.5313 0.80273-0.914 2.2148-0.914z" stroke-width=".265"/>
 </g>
 <g id="text5106" aria-label="p">
  <path id="path5920" d="m2.7948 1050.3v3.4805h-1.084v-9.0586h1.084v0.9961q0.33984-0.586 0.85547-0.8672 0.52148-0.2871 1.2422-0.2871 1.1953 0 1.9395 0.9492 0.75 0.9492 0.75 2.4961t-0.75 2.4961q-0.74414 0.9492-1.9395 0.9492-0.7207 0-1.2422-0.2812-0.51562-0.2872-0.85547-0.8731zm3.668-2.291q0-1.1895-0.49219-1.8633-0.48633-0.6797-1.3418-0.6797-0.85547 0-1.3477 0.6797-0.48633 0.6738-0.48633 1.8633 0 1.1894 0.48633 1.8691 0.49219 0.6739 1.3477 0.6739 0.85547 0 1.3418-0.6739 0.49219-0.6797 0.49219-1.8691z" stroke-width=".265"/>
 </g>
 <g id="text5110" aria-label="q">
  <path id="path5923" d="m2.3964 1061q0 1.1894 0.48633 1.8691 0.49219 0.6739 1.3477 0.6739 0.85547 0 1.3477-0.6739 0.49219-0.6797 0.49219-1.8691 0-1.1895-0.49219-1.8633-0.49219-0.6797-1.3477-0.6797-0.85547 0-1.3477 0.6797-0.48633 0.6738-0.48633 1.8633zm3.6738 2.291q-0.33984 0.5859-0.86133 0.8731-0.51562 0.2812-1.2422 0.2812-1.1895 0-1.9395-0.9492-0.74414-0.9492-0.74414-2.4961t0.74414-2.4961q0.75-0.9492 1.9395-0.9492 0.72656 0 1.2422 0.2871 0.52148 0.2812 0.86133 0.8672v-0.9961h1.0781v9.0586h-1.0781z" stroke-width=".265"/>
 </g>
 <g id="text5114" aria-label="r">
  <path id="path5926" d="m5.5546 1071.7q-0.18164-0.1055-0.39844-0.1523-0.21094-0.053-0.46875-0.053-0.91406 0-1.4062 0.5977-0.48633 0.5918-0.48633 1.7051v3.457h-1.084v-6.5625h1.084v1.0195q0.33984-0.5976 0.88477-0.8848 0.54492-0.2929 1.3242-0.2929 0.11133 0 0.24609 0.018 0.13477 0.012 0.29883 0.041z" stroke-width=".265"/>
 </g>
 <g id="text5118" aria-label="s">
  <path id="path5929" d="m5.9355 1083.9v1.0196q-0.45703-0.2344-0.94922-0.3516t-1.0195-0.1172q-0.80273 0-1.207 0.2461-0.39844 0.2461-0.39844 0.7383 0 0.375 0.28711 0.5918 0.28711 0.2109 1.1543 0.4043l0.36914 0.082q1.1484 0.2461 1.6289 0.6973 0.48633 0.4453 0.48633 1.248 0 0.9141-0.72656 1.4473-0.7207 0.5332-1.9863 0.5332-0.52734 0-1.1016-0.1055-0.56836-0.1-1.2012-0.3047v-1.1132q0.59766 0.3105 1.1777 0.4687 0.58008 0.1524 1.1484 0.1524 0.76172 0 1.1719-0.2579 0.41016-0.2636 0.41016-0.7382 0-0.4395-0.29883-0.6739-0.29297-0.2343-1.2949-0.4511l-0.375-0.088q-1.002-0.211-1.4473-0.6446-0.44531-0.4394-0.44531-1.2011 0-0.9258 0.65625-1.4297t1.8633-0.5039q0.59766 0 1.125 0.088 0.52734 0.088 0.97266 0.2636z" stroke-width=".265"/>
 </g>
 <g id="text5122" aria-label="t">
  <path id="path5932" d="m2.8183 1094.8v1.8633h2.2207v0.8379h-2.2207v3.5625q0 0.8027 0.2168 1.0312 0.22266 0.2285 0.89648 0.2285h1.1074v0.9024h-1.1074q-1.248 0-1.7227-0.4629-0.47461-0.4688-0.47461-1.6992v-3.5625h-0.79102v-0.8379h0.79102v-1.8633z" stroke-width=".265"/>
 </g>
 <g id="text5126" aria-label="u">
  <path id="path5935" d="m1.6405 1113.7v-3.9726h1.0781v3.9316q0 0.9317 0.36328 1.4004 0.36328 0.4629 1.0898 0.4629 0.87305 0 1.377-0.5566 0.50977-0.5567 0.50977-1.5176v-3.7207h1.0781v6.5625h-1.0781v-1.0078q-0.39258 0.5976-0.91406 0.8906-0.51562 0.2871-1.2012 0.2871-1.1309 0-1.7168-0.7031t-0.58594-2.0567z" stroke-width=".265"/>
 </g>
 <g id="text5130" aria-label="v">
  <path id="path5938" d="m0.97842 1122.7h1.1426l2.0508 5.5078 2.0508-5.5078h1.1426l-2.4609 6.5625h-1.4648z" stroke-width=".265"/>
 </g>
 <g id="text5134" aria-label="w">
  <path id="path5941" d="m1.1249 1135.7h1.0781l1.3477 5.1211 1.3418-5.1211h1.2715l1.3477 5.1211 1.3418-5.1211h1.0781l-1.7168 6.5625h-1.2715l-1.4121-5.3789-1.418 5.3789h-1.2715z" stroke-width=".265"/>
 </g>
 <g id="text5138" aria-label="x">
  <path id="path5944" d="m7.2069 1148.7-2.373 3.1933 2.4961 3.3692h-1.2715l-1.9102-2.5781-1.9102 2.5781h-1.2715l2.5488-3.4336-2.332-3.1289h1.2715l1.7402 2.3379 1.7402-2.3379z" stroke-width=".265"/>
 </g>
 <g id="text5142" aria-label="y">
  <path id="path5947" d="m4.4823 1168.9q-0.45703 1.1718-0.89062 1.5293-0.43359 0.3574-1.1602 0.3574h-0.86133v-0.9024h0.63281q0.44531 0 0.69141-0.2109 0.24609-0.2109 0.54492-0.9961l0.19336-0.4922-2.6543-6.457h1.1426l2.0508 5.1328 2.0508-5.1328h1.1426z" stroke-width=".265"/>
 </g>
 <g id="text5146" aria-label="z">
  <path id="path5950" d="m1.2831 1174.7h5.1211v0.9844l-4.0547 4.7168h4.0547v0.8613h-5.2676v-0.9844l4.0547-4.7168h-3.9082z" stroke-width=".265"/>
 </g>
 <g id="text5150" aria-label="{">
  <path id="path5953" d="m6.7558 1195.4v0.8437h-0.36328q-1.459 0-1.957-0.4336-0.49219-0.4336-0.49219-1.7285v-1.4004q0-0.8848-0.31641-1.2246-0.31641-0.3398-1.1484-0.3398h-0.35742v-0.8379h0.35742q0.83789 0 1.1484-0.334 0.31641-0.3399 0.31641-1.2129v-1.4063q0-1.2949 0.49219-1.7226 0.49805-0.4336 1.957-0.4336h0.36328v0.8379h-0.39844q-0.82617 0-1.0781 0.2578t-0.25195 1.084v1.4531q0 0.9199-0.26953 1.3359-0.26367 0.4161-0.9082 0.5625 0.65039 0.1582 0.91406 0.5743 0.26367 0.416 0.26367 1.33v1.4532q0 0.8261 0.25195 1.084 0.25195 0.2578 1.0781 0.2578z" stroke-width=".265"/>
 </g>
 <g id="text5154" aria-label="|">
  <path id="path5956" d="m3.1405 1198.1v12h-0.99609v-12z" stroke-width=".265"/>
 </g>
 <g id="text5158" aria-label="}">
  <path id="path5959" d="m2.121 1221.4h0.41016q0.82031 0 1.0664-0.252 0.25195-0.2519 0.25195-1.0898v-1.4532q0-0.914 0.26367-1.33 0.26367-0.4161 0.91406-0.5743-0.65039-0.1464-0.91406-0.5625-0.26367-0.416-0.26367-1.3359v-1.4531q0-0.832-0.25195-1.084-0.24609-0.2578-1.0664-0.2578h-0.41016v-0.8379h0.36914q1.459 0 1.9453 0.4336 0.49219 0.4277 0.49219 1.7226v1.4063q0 0.873 0.31641 1.2129 0.31641 0.334 1.1484 0.334h0.36328v0.8379h-0.36328q-0.83203 0-1.1484 0.3398-0.31641 0.3398-0.31641 1.2246v1.4004q0 1.2949-0.49219 1.7285-0.48633 0.4336-1.9453 0.4336h-0.36914z" stroke-width=".265"/>
 </g>
 <g id="text5162" aria-label="~">
  <path id="path5962" d="m9.4042 1228.5v1.0429q-0.61523 0.4629-1.1426 0.6622-0.52148 0.1992-1.0898 0.1992-0.64453 0-1.5-0.3457-0.064453-0.024-0.09375-0.035-0.041016-0.018-0.12891-0.047-0.9082-0.3632-1.459-0.3632-0.51562 0-1.0195 0.2285-0.50391 0.2226-1.0781 0.709v-1.043q0.61523-0.4629 1.1367-0.6621 0.52734-0.2051 1.0957-0.2051 0.64453 0 1.5059 0.3516 0.058594 0.023 0.087891 0.035 0.046875 0.018 0.12891 0.047 0.9082 0.3633 1.459 0.3633 0.50391 0 0.99609-0.2227 0.49805-0.2226 1.1016-0.7148z" stroke-width=".265"/>
 </g>
 <g id="text5294" aria-label="¡">
  <path id="path5997" d="m3.621 1683.2h-1.1895v-1.4883h1.1895zm0 7.2597h-1.1895v-3.8379l0.12305-2.0918h0.94922l0.11719 2.0918z" stroke-width=".265"/>
 </g>
 <g id="text5298" aria-label="¢">
  <path id="path6000" d="m4.5937 1700.5v-5.0156q-0.86133 0.1054-1.3418 0.7676-0.48047 0.6621-0.48047 1.7402 0 1.084 0.48047 1.7461 0.48047 0.6621 1.3418 0.7617zm2.2324-5.543v1.0078q-0.43359-0.2402-0.83203-0.3632-0.39844-0.1231-0.79688-0.1407l-0.00586 5.0625q0.41016-0.029 0.80859-0.1523 0.4043-0.123 0.82617-0.3516v0.9961q-0.38086 0.1758-0.78516 0.2754-0.39844 0.1055-0.84961 0.1465v1.6641h-0.59766v-1.6875q-1.4121-0.1172-2.1914-1.0137-0.77344-0.9023-0.77344-2.4082 0-1.5117 0.77344-2.4082 0.7793-0.8965 2.1914-1.0254v-1.6816h0.59766l0.00586 1.6816q0.42773 0.023 0.82617 0.123 0.4043 0.094 0.80273 0.2754z" stroke-width=".265"/>
 </g>
 <g id="text5302" aria-label="£">
  <path id="path6003" d="m7.078 1705.7v1.0664q-0.44531-0.2402-0.84375-0.3574-0.39844-0.1231-0.75586-0.1231-0.86719 0-1.207 0.4571-0.33984 0.4511-0.33984 1.6933v1.2598h2.291v0.8379h-2.291v2.7246h3.2637v0.9961h-5.8184v-0.9961h1.3828v-2.7246h-1.166v-0.8379h1.166v-1.3945q0-1.5293 0.62695-2.2383 0.62695-0.7149 1.9863-0.7149 0.35742 0 0.79688 0.094 0.44531 0.088 0.9082 0.2578z" stroke-width=".265"/>
 </g>
 <g id="text5306" aria-label="¤">
  <path id="path6006" d="m5.8417 1721.4 1.2129-1.2246 0.66797 0.6738-1.207 1.2071q0.2168 0.3457 0.32227 0.6972 0.10547 0.3457 0.10547 0.709 0 0.3692-0.11133 0.709-0.11133 0.334-0.3457 0.668l1.2246 1.2129-0.66797 0.6621-1.2129-1.2129q-0.3457 0.2344-0.68555 0.3457-0.33984 0.1113-0.69727 0.1113-0.33984 0-0.69141-0.1055-0.35156-0.1113-0.70898-0.3281l-1.2129 1.2129-0.66211-0.6738 1.2129-1.207q-0.2168-0.3633-0.32812-0.709-0.10547-0.3457-0.10547-0.6856 0-0.375 0.11133-0.7148 0.11133-0.3399 0.33398-0.668l-1.2129-1.207 0.67383-0.6738 1.2129 1.2128q0.32227-0.2285 0.66211-0.3339 0.33984-0.1114 0.71484-0.1114 0.35156 0 0.69141 0.1055 0.3457 0.1055 0.70312 0.3281zm0.18164 2.0508q0-0.6562-0.45703-1.1074-0.45117-0.4512-1.1191-0.4512-0.65625 0-1.1191 0.4512-0.46289 0.4512-0.46289 1.1074 0 0.668 0.45703 1.125 0.46289 0.457 1.125 0.457 0.66211 0 1.1191-0.457 0.45703-0.4629 0.45703-1.125z" stroke-width=".265"/>
 </g>
 <g id="text5310" aria-label="¥">
  <path id="path6009" d="m7.4472 1737.6h-2.4199v2.666h-1.1777v-2.666h-2.4375v-0.7207h2.4375v-0.2989l-0.49219-0.9082h-1.9453v-0.7207h1.5469l-1.8574-3.4336h1.1133l2.2207 4.1016 2.209-4.1016h1.1191l-1.8633 3.4336h1.5469v0.7207h-1.9395l-0.49219 0.9082v0.2989h2.4316z" stroke-width=".265"/>
 </g>
 <g id="text5314" aria-label="¦">
  <path id="path6012" d="m3.1405 1750.9v4.4414h-0.99609v-4.4414zm0-6v4.4414h-0.99609v-4.4414z" stroke-width=".265"/>
 </g>
 <g id="text5318" aria-label="§">
  <path id="path6015" d="m2.8417 1760.8q-0.36914 0.2695-0.55078 0.5332-0.18164 0.2637-0.18164 0.5332 0 0.4453 0.4043 0.8379 0.41016 0.3867 1.875 1.1777 0.36914-0.2636 0.55078-0.5273 0.18164-0.2695 0.18164-0.5391 0-0.4394-0.42188-0.8379-0.41602-0.3984-1.8574-1.1777zm2.6367-3.082v0.9609q-0.48633-0.2285-0.9082-0.3398-0.41602-0.1172-0.74414-0.1172-0.56836 0-0.88477 0.2344-0.31641 0.2343-0.31641 0.6503 0 0.5274 1.207 1.2012 0.15234 0.088 0.23438 0.1348 1.2363 0.6973 1.6172 1.1484 0.38672 0.4512 0.38672 1.043 0 0.5273-0.26953 0.9375-0.26953 0.4101-0.81445 0.7207 0.36328 0.3047 0.52734 0.6269 0.16992 0.3165 0.16992 0.6915 0 0.832-0.59766 1.3242-0.59766 0.4922-1.6113 0.4922-0.42773 0-0.87891-0.088-0.45117-0.082-0.9668-0.252v-0.9609q0.50977 0.2285 0.94336 0.3398 0.43359 0.1172 0.77344 0.1172 0.59766 0 0.92578-0.2461 0.33398-0.2461 0.33398-0.6914 0-0.5976-1.2949-1.3183l-0.14648-0.082q-1.2539-0.7031-1.6289-1.1484-0.375-0.4512-0.375-1.0488 0-0.5332 0.26953-0.9493 0.27539-0.4218 0.80859-0.7089-0.3457-0.2579-0.52148-0.586-0.16992-0.3281-0.16992-0.7324 0-0.7617 0.58594-1.2246 0.58594-0.4688 1.5586-0.4688 0.42773 0 0.87305 0.088 0.45117 0.082 0.91406 0.252z" stroke-width=".265"/>
 </g>
 <g id="text5322" aria-label="¨">
  <path id="path6018" d="m4.1718 1770.2h1.1895v1.1836h-1.1895zm-2.291 0h1.1895v1.1836h-1.1895z" stroke-width=".265"/>
 </g>
 <g id="text5326" aria-label="©">
  <path id="path6021" d="m6.621 1783.6q0.89062 0 1.6582 0.3223 0.77344 0.3222 1.4121 0.9609 0.63867 0.6387 0.95508 1.4063 0.31641 0.7675 0.31641 1.6699 0 0.8906-0.31641 1.6582-0.31641 0.7617-0.95508 1.4004-0.63867 0.6387-1.4121 0.9609-0.76758 0.3223-1.6582 0.3223t-1.6641-0.3223q-0.76758-0.3222-1.4062-0.9609t-0.95508-1.4004q-0.31641-0.7676-0.31641-1.6582 0-0.9024 0.31641-1.6699 0.31641-0.7676 0.95508-1.4063t1.4062-0.9609q0.77344-0.3223 1.6641-0.3223zm0 0.6035q-0.76758 0-1.4297 0.2754t-1.2129 0.8262q-0.55078 0.5508-0.83203 1.2246-0.28125 0.668-0.28125 1.4297 0 0.7558 0.28125 1.4238 0.28125 0.6621 0.83203 1.2129 0.55078 0.5508 1.2129 0.832 0.66211 0.2754 1.4297 0.2754 0.77344 0 1.4355-0.2754 0.66797-0.2812 1.2188-0.832 0.54492-0.5449 0.81445-1.207 0.27539-0.6621 0.27539-1.4297 0-0.7793-0.27539-1.4414-0.27539-0.668-0.81445-1.2129-0.55078-0.5508-1.2188-0.8262-0.66211-0.2754-1.4355-0.2754zm1.752 1.4356v0.7558q-0.38672-0.1933-0.76758-0.2871-0.38086-0.094-0.76758-0.094-0.87305 0-1.3652 0.5156-0.48633 0.5098-0.48633 1.4297 0 0.9316 0.49805 1.4414 0.50391 0.5098 1.4121 0.5098 0.375 0 0.73242-0.088 0.35742-0.094 0.74414-0.293v0.7441q-0.39258 0.17-0.79688 0.252-0.39844 0.082-0.80859 0.082-1.2656 0-2.0039-0.7148-0.73242-0.7149-0.73242-1.9336 0-1.2246 0.73242-1.9336 0.73828-0.709 2.0039-0.709 0.42773 0 0.82617 0.082t0.7793 0.2403z" stroke-width=".265"/>
 </g>
 <g id="text5330" aria-label="ª">
  <path id="path6024" d="m1.4355 1801.8h4.0312v0.7207h-4.0312zm4.0195-3.3574v2.625h-0.87305v-0.6562q-0.25781 0.3691-0.67969 0.5683t-0.9668 0.1992q-0.75 0-1.1953-0.3925-0.44531-0.3985-0.44531-1.0606 0-0.791 0.55664-1.1953 0.5625-0.4043 1.6641-0.4043h1.0664v-0.023q0-0.5332-0.3457-0.7969-0.33984-0.2695-1.0254-0.2695-0.36328 0-0.76172 0.1t-0.79688 0.2988v-0.7441q0.42773-0.1641 0.84961-0.2461 0.42773-0.082 0.83203-0.082 1.0723 0 1.5938 0.5157 0.52734 0.5156 0.52734 1.5644zm-1.6172 0.3574q-0.94336 0-1.3125 0.1993-0.36914 0.1933-0.36914 0.6562 0 0.375 0.28711 0.6035 0.28711 0.2227 0.76758 0.2227 0.60938 0 0.99023-0.4219t0.38086-1.0898v-0.17z" stroke-width=".265"/>
 </g>
 <g id="text5334" aria-label="«">
  <path id="path6027" d="m6.8378 1812.1v1.1191l-1.7637 1.5704 1.7637 1.5703v1.1191l-2.748-2.4492v-0.4805zm-2.543 0v1.1191l-1.7637 1.5704 1.7637 1.5703v1.1191l-2.748-2.4492v-0.4805z" stroke-width=".265"/>
 </g>
 <g id="text5338" aria-label="¬">
  <path id="path6030" d="m1.8925 1826.2h7.5117v3.3691h-0.98438v-2.373h-6.5273z" stroke-width=".265"/>
 </g>
 <g id="text5346" aria-label="®">
  <path id="path6034" d="m6.621 1849.2q-0.76758 0-1.4297 0.2754t-1.2129 0.8262q-0.55078 0.5508-0.83203 1.2246-0.28125 0.668-0.28125 1.4297 0 0.7558 0.28125 1.4238 0.28125 0.6621 0.83203 1.2129 0.55078 0.5508 1.2129 0.832 0.66211 0.2754 1.4297 0.2754 0.77344 0 1.4355-0.2754 0.66797-0.2812 1.2188-0.832 0.54492-0.5449 0.81445-1.207 0.27539-0.6621 0.27539-1.4297 0-0.7793-0.27539-1.4414-0.27539-0.668-0.81445-1.2129-0.55078-0.5508-1.2188-0.8262-0.66211-0.2754-1.4355-0.2754zm0-0.6035q0.89062 0 1.6582 0.3223 0.77344 0.3222 1.4121 0.9609 0.63867 0.6387 0.95508 1.4063 0.31641 0.7675 0.31641 1.6699 0 0.8906-0.31641 1.6582-0.31641 0.7617-0.95508 1.4004-0.63867 0.6387-1.4121 0.9609-0.76758 0.3223-1.6582 0.3223t-1.6641-0.3223q-0.76758-0.3222-1.4062-0.9609t-0.95508-1.4004q-0.31641-0.7676-0.31641-1.6582 0-0.9024 0.31641-1.6699 0.31641-0.7676 0.95508-1.4063t1.4062-0.9609q0.77344-0.3223 1.6641-0.3223zm-0.1582 2.4258h-0.7207v1.6172h0.7207q0.64453 0 0.89648-0.1817 0.25781-0.1816 0.25781-0.6211 0-0.4453-0.25781-0.6269-0.25781-0.1875-0.89648-0.1875zm0.041016-0.6035q1.0312 0 1.541 0.3515 0.50977 0.3457 0.50977 1.0547 0 0.5039-0.31055 0.8321-0.30469 0.3281-0.86719 0.4277 0.14062 0.047 0.33398 0.2754 0.19922 0.2226 0.46875 0.6504l0.80273 1.3066h-1.0078l-0.75586-1.2246q-0.3457-0.5625-0.5625-0.709-0.21094-0.1523-0.52734-0.1523h-0.38672v2.0859h-0.9082v-4.8984z" stroke-width=".265"/>
 </g>
 <g id="text5350" aria-label="¯">
  <path id="path6037" d="m1.869 1861.3h3.5039v0.8672h-3.5039z" stroke-width=".265"/>
 </g>
 <g id="text5354" aria-label="°">
  <path id="path6040" d="m3.621 1875.1q-0.46875 0-0.79102 0.3281-0.32227 0.3223-0.32227 0.791 0 0.4629 0.32227 0.7852 0.32227 0.3164 0.79102 0.3164t0.79102-0.3164q0.32227-0.3223 0.32227-0.7852t-0.32812-0.791q-0.32227-0.3281-0.78516-0.3281zm0-0.7559q0.375 0 0.7207 0.1465 0.3457 0.1406 0.59766 0.4102 0.26953 0.2636 0.4043 0.5976 0.13477 0.334 0.13477 0.7207 0 0.7735-0.54492 1.3125-0.53906 0.5332-1.3242 0.5332-0.79102 0-1.3184-0.5273-0.52734-0.5274-0.52734-1.3184 0-0.7851 0.53906-1.33 0.53906-0.545 1.3184-0.545z" stroke-width=".265"/>
 </g>
 <g id="text5358" aria-label="±">
  <path id="path6043" d="m6.1405 1888.7v2.2676h3.2637v0.9961h-3.2637v2.2676h-0.98438v-2.2676h-3.2637v-0.9961h3.2637v-2.2676zm-4.248 6.5274h7.5117v0.9961h-7.5117z" stroke-width=".265"/>
 </g>
 <g id="text5362" aria-label="²">
  <path id="path6046" d="m2.1913 1904.7h2.4844v0.6679h-3.5039v-0.6445q0.19922-0.1817 0.56836-0.5098 2.0156-1.7871 2.0156-2.3379 0-0.3867-0.30469-0.6211-0.30469-0.2402-0.80273-0.2402-0.30469 0-0.66211 0.1055-0.35742 0.1-0.7793 0.3047v-0.7207q0.45117-0.1641 0.83789-0.2461 0.39258-0.082 0.72656-0.082 0.84961 0 1.3594 0.3868 0.50977 0.3867 0.50977 1.0195 0 0.8144-1.9395 2.4785-0.32812 0.2812-0.50977 0.4395z" stroke-width=".265"/>
 </g>
 <g id="text5366" aria-label="³">
  <path id="path6049" d="m3.6913 1915.7q0.53906 0.1055 0.83203 0.4277 0.29883 0.3164 0.29883 0.7969 0 0.7266-0.55664 1.1191-0.55664 0.3926-1.5938 0.3926-0.33398 0-0.70312-0.059-0.36328-0.064-0.77344-0.1816v-0.709q0.30469 0.1582 0.65039 0.2344 0.35156 0.076 0.74414 0.076 0.63867 0 0.99023-0.2285 0.35156-0.2344 0.35156-0.6445 0-0.4336-0.32812-0.6563-0.32227-0.2226-0.95508-0.2226h-0.50391v-0.6328h0.55078q0.55078 0 0.83203-0.1817 0.28711-0.1875 0.28711-0.539 0-0.3399-0.29297-0.5157-0.29297-0.1816-0.84961-0.1816-0.23438 0-0.5332 0.053t-0.77344 0.1875v-0.6738q0.42773-0.1 0.80273-0.1523 0.375-0.053 0.69727-0.053 0.84375 0 1.3359 0.3457 0.49805 0.3457 0.49805 0.9258 0 0.4043-0.26367 0.6856-0.26367 0.2812-0.74414 0.3867z" stroke-width=".265"/>
 </g>
 <g id="text5370" aria-label="´">
  <path id="path6052" d="m4.4355 1925.7h1.166l-1.9102 2.2032h-0.89648z" stroke-width=".265"/>
 </g>
 <g id="text5374" aria-label="µ">
  <path id="path6055" d="m1.6405 1950.8v-9.0586h1.0781v4.0781q0 0.8496 0.4043 1.2832t1.1953 0.4336q0.86719 0 1.3008-0.4922 0.43945-0.4922 0.43945-1.4765v-3.8262h1.0781v5.0508q0 0.3515 0.099609 0.5214 0.10547 0.1641 0.32227 0.1641 0.052734 0 0.14648-0.029 0.09375-0.035 0.25781-0.1055v0.8672q-0.24023 0.1348-0.45703 0.1993-0.21094 0.064-0.41602 0.064-0.4043 0-0.64453-0.2285-0.24023-0.2285-0.32812-0.6973-0.29297 0.4629-0.7207 0.6973-0.42188 0.2285-0.99609 0.2285-0.59766 0-1.0195-0.2285-0.41602-0.2285-0.66211-0.6856v3.2403z" stroke-width=".265"/>
 </g>
 <g id="text5378" aria-label="¶">
  <path id="path6058" d="m4.33 1952.5h2.625v9.9024h-0.82617v-9.1817h-1.1133v9.1817h-0.83203v-4.9571q-1.2598-0.1-1.9512-0.7441-0.68555-0.6504-0.68555-1.7285 0-1.1133 0.76172-1.793 0.76172-0.6797 2.0215-0.6797z" stroke-width=".265"/>
 </g>
 <g id="text5382" aria-label="·">
  <path id="path6061" d="m1.9042 1969.3h1.2363v1.4883h-1.2363z" stroke-width=".265"/>
 </g>
 <g id="text5386" aria-label="¸">
  <path id="path6064" d="m4.1132 1987.3q0.32227 0.3633 0.48047 0.668 0.1582 0.3105 0.1582 0.5917 0 0.5215-0.35156 0.7852-0.35156 0.2695-1.043 0.2695-0.26953 0-0.52734-0.035-0.25195-0.035-0.50391-0.1055v-0.7676q0.19922 0.1 0.41602 0.1407 0.2168 0.047 0.49219 0.047 0.3457 0 0.52148-0.1406 0.17578-0.1406 0.17578-0.4101 0-0.1758-0.12891-0.4336-0.12305-0.252-0.38672-0.6094z" stroke-width=".265"/>
 </g>
 <g id="text5390" aria-label="¹">
  <path id="path6067" d="m1.5351 1995.7h1.1953v-3.5801l-1.3066 0.2402v-0.6796l1.3477-0.2286h0.80273v4.2481h1.2012v0.6445h-3.2402z" stroke-width=".265"/>
 </g>
 <g id="text5394" aria-label="º">
  <path id="path6070" d="m1.4355 2009.8h4.0312v0.7207h-4.0312zm2.0156-5.4375q1.0488 0 1.6523 0.6504 0.60352 0.6446 0.60352 1.7637t-0.60352 1.7637q-0.60352 0.6386-1.6523 0.6386t-1.6582-0.6445-0.60938-1.7578q0-1.1191 0.60938-1.7637 0.60938-0.6504 1.6582-0.6504zm0 0.6739q-0.61523 0-0.98438 0.4746-0.36914 0.4687-0.36914 1.2656 0 0.7793 0.36914 1.248 0.375 0.4688 0.98438 0.4688 0.61523 0 0.97852-0.4688 0.36914-0.4687 0.36914-1.248 0-0.8027-0.36328-1.2715-0.36328-0.4687-0.98438-0.4687z" stroke-width=".265"/>
 </g>
 <g id="text5398" aria-label="»">
  <path id="path6073" d="m1.7519 2020.1 2.748 2.4492v0.4805l-2.748 2.4492v-1.1191l1.7637-1.5703-1.7637-1.5704zm2.543 0 2.748 2.4492v0.4805l-2.748 2.4492v-1.1191l1.7637-1.5703-1.7637-1.5704z" stroke-width=".265"/>
 </g>
 <g id="text5402" aria-label="¼">
  <path id="path6076" d="m1.5351 2034.7h1.1953v-3.5801l-1.3066 0.2402v-0.6796l1.3477-0.2286h0.80273v4.2481h1.2012v0.6445h-3.2402zm8.6953 0.375-1.8105 2.4551h1.8105zm-0.12891-0.709h0.97266v3.1641h0.79102v0.6386h-0.79102v1.0899h-0.84375v-1.0899h-2.4258v-0.7089zm-1.4063-4.0137h0.9375l-5.4609 9.0762h-0.9375z" stroke-width=".265"/>
 </g>
 <g id="text5406" aria-label="½">
  <path id="path6079" d="m1.5351 2047.7h1.1953v-3.5801l-1.3066 0.2403v-0.6797l1.3477-0.2285h0.80273v4.248h1.2012v0.6445h-3.2402zm7.4707 3.8906h2.4844v0.668h-3.5039v-0.6445q0.19922-0.1817 0.56836-0.5098 2.0156-1.7871 2.0156-2.3379 0-0.3867-0.30469-0.6211-0.30469-0.2402-0.80273-0.2402-0.30469 0-0.66211 0.1055-0.35742 0.1-0.7793 0.3046v-0.7207q0.45117-0.164 0.83789-0.2461 0.39258-0.082 0.72656-0.082 0.84961 0 1.3594 0.3867 0.50976 0.3868 0.50976 1.0196 0 0.8144-1.9395 2.4785-0.32812 0.2812-0.50977 0.4394zm-0.31055-8.2382h0.9375l-5.4609 9.0761h-0.9375z" stroke-width=".265"/>
 </g>
 <g id="text5410" aria-label="¾">
  <path id="path6082" d="m3.6913 2058.7q0.53906 0.1055 0.83203 0.4277 0.29883 0.3164 0.29883 0.7969 0 0.7266-0.55664 1.1192-0.55664 0.3925-1.5938 0.3925-0.33398 0-0.70312-0.059-0.36328-0.064-0.77344-0.1816v-0.709q0.30469 0.1582 0.65039 0.2344 0.35156 0.076 0.74414 0.076 0.63867 0 0.99023-0.2286 0.35156-0.2343 0.35156-0.6445 0-0.4336-0.32812-0.6562-0.32227-0.2227-0.95508-0.2227h-0.50391v-0.6328h0.55078q0.55078 0 0.83203-0.1816 0.28711-0.1875 0.28711-0.5391 0-0.3399-0.29297-0.5156-0.29297-0.1817-0.84961-0.1817-0.23438 0-0.5332 0.053t-0.77344 0.1875v-0.6739q0.42773-0.1 0.80273-0.1523 0.375-0.053 0.69727-0.053 0.84375 0 1.3359 0.3457 0.49805 0.3457 0.49805 0.9257 0 0.4043-0.26367 0.6856-0.26367 0.2812-0.74414 0.3867zm6.5391 2.3789-1.8105 2.4551h1.8105zm-0.12891-0.709h0.97266v3.1641h0.79102v0.6387h-0.79102v1.0898h-0.84375v-1.0898h-2.4258v-0.709zm-1.4063-4.0136h0.9375l-5.4609 9.0761h-0.9375z" stroke-width=".265"/>
 </g>
 <g id="text5414" aria-label="¿">
  <path id="path6085" d="m3.5507 2074h1.1133v0.9141q0 0.5918-0.16406 0.9726-0.1582 0.3809-0.68555 0.8907l-0.52734 0.5156q-0.33984 0.3105-0.49219 0.5859-0.14648 0.2754-0.14648 0.5625 0 0.5215 0.38086 0.8438 0.38672 0.3222 1.0254 0.3222 0.45703 0 0.98438-0.205 0.52734-0.2051 1.0898-0.5977v1.1016q-0.55078 0.3339-1.1133 0.498t-1.166 0.1641q-1.0781 0-1.7344-0.5684-0.65625-0.5683-0.65625-1.5 0-0.4453 0.21094-0.8437 0.2168-0.4043 0.73828-0.9082l0.51562-0.5039q0.28125-0.2754 0.39258-0.4278 0.11133-0.1582 0.1582-0.3047 0.041016-0.123 0.058594-0.2988t0.017578-0.4922zm1.1484-0.8613h-1.1836v-1.4883h1.1836z" stroke-width=".265"/>
 </g>
 <g id="text5418" aria-label="À">
  <path id="path6088" d="m4.7226 2083.7-1.6055 4.3535h3.2168zm-0.66797-1.166h1.3418l3.334 8.748h-1.2305l-0.79688-2.2441h-3.9434l-0.79688 2.2441h-1.248zm0.33398-2.3789 1.1484 1.5468h-0.89648l-1.3477-1.5468z" stroke-width=".265"/>
 </g>
 <g id="text5422" aria-label="Á">
  <path id="path6091" d="m4.7226 2096.7-1.6055 4.3535h3.2168zm-0.66797-1.166h1.3418l3.334 8.748h-1.2305l-0.79688-2.2441h-3.9434l-0.79688 2.2441h-1.248zm0.99023-2.3789h1.084l-1.3359 1.5468h-0.89648z" stroke-width=".265"/>
 </g>
 <g id="text5426" aria-label="Â">
  <path id="path6094" d="m4.7226 2109.7-1.6055 4.3535h3.2168zm-0.66797-1.166h1.3418l3.334 8.748h-1.2305l-0.79688-2.2441h-3.9434l-0.79688 2.2441h-1.248zm0.11719-2.3907h1.1016l1.2363 1.5586h-0.81445l-0.97266-1.0429-0.97266 1.0429h-0.81445z" stroke-width=".265"/>
 </g>
 <g id="text5430" aria-label="Ã">
  <path id="path6097" d="m4.7226 2122.7-1.6055 4.3535h3.2168zm-0.66797-1.166h1.3418l3.334 8.748h-1.2305l-0.79688-2.2441h-3.9434l-0.79688 2.2441h-1.248zm0.64453-1.2715-0.33398-0.1934q-0.14648-0.082-0.24023-0.1113-0.087891-0.035-0.1582-0.035-0.21094 0-0.32812 0.1465t-0.11719 0.4102v0.035h-0.73242q0-0.5918 0.29883-0.9375 0.30469-0.3457 0.80859-0.3457 0.21094 0 0.38672 0.047 0.18164 0.047 0.46289 0.2051l0.33398 0.1758q0.13477 0.076 0.23438 0.1113 0.099609 0.035 0.1875 0.035 0.1875 0 0.30469-0.1464 0.11719-0.1524 0.11719-0.3926v-0.035h0.73242q-0.011719 0.586-0.31641 0.9375-0.29883 0.3457-0.79102 0.3457-0.19922 0-0.375-0.047-0.16992-0.047-0.47461-0.2051z" stroke-width=".265"/>
 </g>
 <g id="text5434" aria-label="Ä">
  <path id="path6100" d="m4.7226 2135.7-1.6055 4.3535h3.2168zm-0.66797-1.166h1.3418l3.334 8.748h-1.2305l-0.79688-2.2441h-3.9434l-0.79688 2.2441h-1.248zm1.2188-2.209h1.1895v1.1894h-1.1895zm-2.291 0h1.1895v1.1894h-1.1895z" stroke-width=".265"/>
 </g>
 <g id="text5438" aria-label="Å">
  <path id="path6103" d="m5.6132 2146.7q0-0.3692-0.26367-0.627-0.25781-0.2637-0.62695-0.2637-0.375 0-0.63281 0.2578-0.25195 0.252-0.25195 0.6329 0 0.3691 0.25781 0.6269t0.62695 0.2578 0.62695-0.2578q0.26367-0.2578 0.26367-0.6269zm-0.89062 1.9453-1.5938 4.3535h3.1934zm-0.88477-0.6035q-0.35742-0.2403-0.53906-0.5743-0.18164-0.3398-0.18164-0.7675 0-0.6739 0.46289-1.1426 0.46875-0.4688 1.1426-0.4688 0.66797 0 1.1367 0.4746 0.47461 0.4688 0.47461 1.1368 0 0.4101-0.1875 0.7558-0.18164 0.3457-0.5332 0.586l3.1172 8.1855h-1.2305l-0.79688-2.2441h-3.9434l-0.79688 2.2441h-1.248z" stroke-width=".265"/>
 </g>
 <g id="text5442" aria-label="Æ">
  <path id="path6106" d="m11.432 2160.5v0.9961h-4.3418v2.5898h4.166v0.9961h-4.166v3.1699h4.4531v0.9961h-5.6426v-2.2441h-3.0938l-0.9375 2.2441h-1.2012l3.6621-8.748zm-6.2871 0.9257-1.9336 4.5938h2.6895v-4.5938z" stroke-width=".265"/>
 </g>
 <g id="text5446" aria-label="Ç">
  <path id="path6109" d="m8.3495 2174.2v1.248q-0.59766-0.5566-1.2773-0.832-0.67383-0.2754-1.4355-0.2754-1.5 0-2.2969 0.9199-0.79688 0.9141-0.79688 2.6485 0 1.7285 0.79688 2.6484 0.79688 0.9141 2.2969 0.9141 0.76172 0 1.4355-0.2754 0.67969-0.2754 1.2773-0.8321v1.2364q-0.62109 0.4219-1.3184 0.6328-0.69141 0.2109-1.4648 0.2109-1.9863 0-3.1289-1.2129-1.1426-1.2187-1.1426-3.3222 0-2.1094 1.1426-3.3223 1.1426-1.2187 3.1289-1.2187 0.78516 0 1.4766 0.2109 0.69727 0.2051 1.3066 0.6211zm-2.4727 8.0742q0.32227 0.3633 0.48047 0.668 0.1582 0.3105 0.1582 0.5918 0 0.5215-0.35156 0.7851-0.35156 0.2696-1.043 0.2696-0.26953 0-0.52734-0.035-0.25195-0.035-0.50391-0.1055v-0.7675q0.19922 0.1 0.41602 0.1406 0.2168 0.047 0.49219 0.047 0.3457 0 0.52148-0.1407 0.17578-0.1406 0.17578-0.4101 0-0.1758-0.12891-0.4336-0.12305-0.252-0.38672-0.6094z" stroke-width=".265"/>
 </g>
 <g id="text5450" aria-label="È">
  <path id="path6112" d="m1.7987 2186.5h5.5312v0.9961h-4.3477v2.5898h4.166v0.9961h-4.166v3.1699h4.4531v0.9961h-5.6367zm2.4141-2.3789 1.1484 1.5468h-0.89648l-1.3477-1.5468z" stroke-width=".265"/>
 </g>
 <g id="text5454" aria-label="É">
  <path id="path6115" d="m1.7987 2199.5h5.5312v0.9961h-4.3477v2.5898h4.166v0.9961h-4.166v3.1699h4.4531v0.9961h-5.6367zm3.0703-2.3789h1.084l-1.3359 1.5468h-0.89648z" stroke-width=".265"/>
 </g>
 <g id="text5458" aria-label="Ê">
  <path id="path6118" d="m1.7987 2212.5h5.5312v0.9961h-4.3477v2.5898h4.166v0.9961h-4.166v3.1699h4.4531v0.9961h-5.6367zm2.1973-2.3907h1.1016l1.2363 1.5586h-0.81445l-0.97266-1.0429-0.97266 1.0429h-0.81445z" stroke-width=".265"/>
 </g>
 <g id="text5462" aria-label="Ë">
  <path id="path6121" d="m1.7987 2225.5h5.5312v0.9961h-4.3477v2.5898h4.166v0.9961h-4.166v3.1699h4.4531v0.9961h-5.6367zm3.2988-2.209h1.1895v1.1894h-1.1895zm-2.291 0h1.1895v1.1894h-1.1895z" stroke-width=".265"/>
 </g>
 <g id="text5466" aria-label="Ì">
  <path id="path6124" d="m1.7987 2238.5h1.1836v8.748h-1.1836zm0.26367-2.3789 1.1484 1.5468h-0.89648l-1.3477-1.5468z" stroke-width=".265"/>
 </g>
 <g id="text5470" aria-label="Í">
  <path id="path6127" d="m1.7987 2251.5h1.1836v8.748h-1.1836zm0.91992-2.3789h1.084l-1.3359 1.5468h-0.89648z" stroke-width=".265"/>
 </g>
 <g id="text5474" aria-label="Î">
  <path id="path6130" d="m1.7987 2264.5h1.1836v8.748h-1.1836zm0.046875-2.3907h1.1016l1.2363 1.5586h-0.81445l-0.97266-1.0429-0.97266 1.0429h-0.81445z" stroke-width=".265"/>
 </g>
 <g id="text5478" aria-label="Ï">
  <path id="path6133" d="m1.7987 2277.5h1.1836v8.748h-1.1836zm1.1484-2.209h1.1895v1.1894h-1.1895zm-2.291 0h1.1895v1.1894h-1.1895z" stroke-width=".265"/>
 </g>
 <g id="text5482" aria-label="Ð">
  <path id="path6136" d="m1.8573 2290.5h2.4375q2.5371 0 3.7266 1.0605 1.1895 1.0547 1.1895 3.3047 0 2.2617-1.1953 3.3223-1.1895 1.0605-3.7207 1.0605h-2.4375v-4.1016h-1.1777v-0.8437h1.1777zm1.1895 0.9726v2.8301h1.9688v0.8437h-1.9688v3.1289h1.4238q1.8105 0 2.6484-0.8203 0.84375-0.8203 0.84375-2.5898 0-1.7578-0.84375-2.5723-0.83789-0.8203-2.6484-0.8203z" stroke-width=".265"/>
 </g>
 <g id="text5486" aria-label="Ñ">
  <path id="path6139" d="m1.7987 2303.5h1.5938l3.8789 7.3183v-7.3183h1.1484v8.748h-1.5938l-3.8789-7.3184v7.3184h-1.1484zm3.2871-1.2715-0.33398-0.1934q-0.14648-0.082-0.24023-0.1113-0.087891-0.035-0.1582-0.035-0.21094 0-0.32812 0.1465t-0.11719 0.4102v0.035h-0.73242q0-0.5918 0.29883-0.9375 0.30469-0.3457 0.80859-0.3457 0.21094 0 0.38672 0.047 0.18164 0.047 0.46289 0.2051l0.33398 0.1758q0.13477 0.076 0.23438 0.1113 0.099609 0.035 0.1875 0.035 0.1875 0 0.30469-0.1464 0.11719-0.1524 0.11719-0.3926v-0.035h0.73242q-0.011719 0.586-0.31641 0.9375-0.29883 0.3457-0.79102 0.3457-0.19922 0-0.375-0.047-0.16992-0.047-0.47461-0.2051z" stroke-width=".265"/>
 </g>
 <g id="text5490" aria-label="Ò">
  <path id="path6142" d="m5.3495 2317.3q-1.2891 0-2.0508 0.9609-0.75586 0.961-0.75586 2.6192 0 1.6523 0.75586 2.6133 0.76172 0.9609 2.0508 0.9609t2.0391-0.9609q0.75586-0.961 0.75586-2.6133 0-1.6582-0.75586-2.6192-0.75-0.9609-2.0391-0.9609zm0-0.9609q1.8398 0 2.9414 1.2363 1.1016 1.2305 1.1016 3.3047 0 2.0683-1.1016 3.3047-1.1016 1.2304-2.9414 1.2304-1.8457 0-2.9531-1.2304-1.1016-1.2305-1.1016-3.3047t1.1016-3.3047q1.1074-1.2363 2.9531-1.2363zm-0.33398-2.2207 1.1484 1.5468h-0.89648l-1.3477-1.5468z" stroke-width=".265"/>
 </g>
 <g id="text5494" aria-label="Ó">
  <path id="path6145" d="m5.3495 2330.3q-1.2891 0-2.0508 0.9609-0.75586 0.961-0.75586 2.6192 0 1.6523 0.75586 2.6133 0.76172 0.9609 2.0508 0.9609t2.0391-0.9609q0.75586-0.961 0.75586-2.6133 0-1.6582-0.75586-2.6192-0.75-0.9609-2.0391-0.9609zm0-0.9609q1.8398 0 2.9414 1.2363 1.1016 1.2305 1.1016 3.3047 0 2.0683-1.1016 3.3047-1.1016 1.2304-2.9414 1.2304-1.8457 0-2.9531-1.2304-1.1016-1.2305-1.1016-3.3047t1.1016-3.3047q1.1074-1.2363 2.9531-1.2363zm0.32227-2.2207h1.084l-1.3359 1.5468h-0.89648z" stroke-width=".265"/>
 </g>
 <g id="text5498" aria-label="Ô">
  <path id="path6148" d="m5.3495 2343.3q-1.2891 0-2.0508 0.9609-0.75586 0.961-0.75586 2.6192 0 1.6523 0.75586 2.6133 0.76172 0.9609 2.0508 0.9609t2.0391-0.9609q0.75586-0.961 0.75586-2.6133 0-1.6582-0.75586-2.6192-0.75-0.9609-2.0391-0.9609zm0-0.9609q1.8398 0 2.9414 1.2363 1.1016 1.2305 1.1016 3.3047 0 2.0683-1.1016 3.3047-1.1016 1.2304-2.9414 1.2304-1.8457 0-2.9531-1.2304-1.1016-1.2305-1.1016-3.3047t1.1016-3.3047q1.1074-1.2363 2.9531-1.2363zm-0.55078-2.2325h1.1016l1.2363 1.5586h-0.81445l-0.97266-1.0429-0.97266 1.0429h-0.81445z" stroke-width=".265"/>
 </g>
 <g id="text5502" aria-label="Õ">
  <path id="path6151" d="m5.3495 2356.3q-1.2891 0-2.0508 0.9609-0.75586 0.961-0.75586 2.6192 0 1.6523 0.75586 2.6133 0.76172 0.9609 2.0508 0.9609t2.0391-0.9609q0.75586-0.961 0.75586-2.6133 0-1.6582-0.75586-2.6192-0.75-0.9609-2.0391-0.9609zm0-0.9609q1.8398 0 2.9414 1.2363 1.1016 1.2305 1.1016 3.3047 0 2.0683-1.1016 3.3047-1.1016 1.2304-2.9414 1.2304-1.8457 0-2.9531-1.2304-1.1016-1.2305-1.1016-3.3047t1.1016-3.3047q1.1074-1.2363 2.9531-1.2363zm-0.023437-1.1133-0.33398-0.1934q-0.14648-0.082-0.24023-0.1113-0.087891-0.035-0.1582-0.035-0.21094 0-0.32812 0.1465t-0.11719 0.4102v0.035h-0.73242q0-0.5918 0.29883-0.9375 0.30469-0.3457 0.80859-0.3457 0.21094 0 0.38672 0.047 0.18164 0.047 0.46289 0.2051l0.33398 0.1758q0.13477 0.076 0.23438 0.1113 0.099609 0.035 0.1875 0.035 0.1875 0 0.30469-0.1464 0.11719-0.1524 0.11719-0.3926v-0.035h0.73242q-0.011719 0.586-0.31641 0.9375-0.29883 0.3457-0.79102 0.3457-0.19922 0-0.375-0.047-0.16992-0.047-0.47461-0.2051z" stroke-width=".265"/>
 </g>
 <g id="text5506" aria-label="Ö">
  <path id="path6154" d="m5.3495 2369.3q-1.2891 0-2.0508 0.9609-0.75586 0.961-0.75586 2.6192 0 1.6523 0.75586 2.6133 0.76172 0.9609 2.0508 0.9609t2.0391-0.9609q0.75586-0.961 0.75586-2.6133 0-1.6582-0.75586-2.6192-0.75-0.9609-2.0391-0.9609zm0-0.9609q1.8398 0 2.9414 1.2363 1.1016 1.2305 1.1016 3.3047 0 2.0683-1.1016 3.3047-1.1016 1.2304-2.9414 1.2304-1.8457 0-2.9531-1.2304-1.1016-1.2305-1.1016-3.3047t1.1016-3.3047q1.1074-1.2363 2.9531-1.2363zm0.55078-2.0508h1.1895v1.1894h-1.1895zm-2.291 0h1.1895v1.1894h-1.1895z" stroke-width=".265"/>
 </g>
 <g id="text5510" aria-label="×">
  <path id="path6157" d="m9.0351 2383.8-2.6777 2.6894 2.6777 2.6778-0.69727 0.709-2.6895-2.6895-2.6895 2.6895-0.69141-0.709 2.6719-2.6778-2.6719-2.6894 0.69141-0.709 2.6895 2.6895 2.6895-2.6895z" stroke-width=".265"/>
 </g>
 <g id="text5514" aria-label="Ø">
  <path id="path6160" d="m7.6874 2396.7-4.2012 4.957q0.36328 0.375 0.83203 0.5742 0.47461 0.1934 1.0312 0.1934 1.2891 0 2.0391-0.9609 0.75586-0.961 0.75586-2.6133 0-0.6563-0.11719-1.1953-0.11133-0.5391-0.33984-0.9551zm-0.48047-0.6621q-0.35742-0.375-0.83203-0.5684-0.46875-0.1992-1.0254-0.1992-1.2891 0-2.0508 0.9609-0.75586 0.961-0.75586 2.6192 0 0.6562 0.11133 1.207 0.11719 0.5508 0.3457 0.9492zm-4.9922 5.8945q-0.45703-0.5977-0.69141-1.3711-0.22852-0.7734-0.22852-1.7109 0-2.0742 1.1016-3.3047 1.1074-1.2363 2.9531-1.2363 0.76172 0 1.4062 0.2285 0.65039 0.2226 1.1602 0.6621l0.94922-1.1192 0.59766 0.5215-0.99609 1.1602q0.45703 0.6035 0.69141 1.3828t0.23438 1.7051q0 2.0683-1.1016 3.3047-1.1016 1.2304-2.9414 1.2304-0.75 0-1.4004-0.2168-0.64453-0.2226-1.1777-0.6621l-0.94922 1.1192-0.60352-0.5157z" stroke-width=".265"/>
 </g>
 <g id="text5518" aria-label="Ù">
  <path id="path6163" d="m1.664 2407.5h1.1895v5.3144q0 1.4063 0.50977 2.0274 0.50977 0.6152 1.6523 0.6152 1.1367 0 1.6465-0.6152 0.50977-0.6211 0.50977-2.0274v-5.3144h1.1895v5.4609q0 1.7109-0.84961 2.584-0.84375 0.873-2.4961 0.873-1.6582 0-2.5078-0.873-0.84375-0.8731-0.84375-2.584zm3.0176-2.3789 1.1484 1.5468h-0.89648l-1.3477-1.5468z" stroke-width=".265"/>
 </g>
 <g id="text5522" aria-label="Ú">
  <path id="path6166" d="m1.664 2420.5h1.1895v5.3144q0 1.4063 0.50977 2.0274 0.50977 0.6152 1.6523 0.6152 1.1367 0 1.6465-0.6152 0.50977-0.6211 0.50977-2.0274v-5.3144h1.1895v5.4609q0 1.7109-0.84961 2.584-0.84375 0.873-2.4961 0.873-1.6582 0-2.5078-0.873-0.84375-0.8731-0.84375-2.584zm3.6738-2.3789h1.084l-1.3359 1.5468h-0.89648z" stroke-width=".265"/>
 </g>
 <g id="text5526" aria-label="Û">
  <path id="path6169" d="m1.664 2433.5h1.1895v5.3144q0 1.4063 0.50977 2.0274 0.50977 0.6152 1.6523 0.6152 1.1367 0 1.6465-0.6152 0.50977-0.6211 0.50977-2.0274v-5.3144h1.1895v5.4609q0 1.7109-0.84961 2.584-0.84375 0.873-2.4961 0.873-1.6582 0-2.5078-0.873-0.84375-0.8731-0.84375-2.584zm2.8008-2.3907h1.1016l1.2363 1.5586h-0.81445l-0.97266-1.0429-0.97266 1.0429h-0.81445z" stroke-width=".265"/>
 </g>
 <g id="text5530" aria-label="Ü">
  <path id="path6172" d="m1.664 2446.5h1.1895v5.3144q0 1.4063 0.50977 2.0274 0.50977 0.6152 1.6523 0.6152 1.1367 0 1.6465-0.6152 0.50977-0.6211 0.50977-2.0274v-5.3144h1.1895v5.4609q0 1.7109-0.84961 2.584-0.84375 0.873-2.4961 0.873-1.6582 0-2.5078-0.873-0.84375-0.8731-0.84375-2.584zm3.9023-2.209h1.1895v1.1894h-1.1895zm-2.291 0h1.1895v1.1894h-1.1895z" stroke-width=".265"/>
 </g>
 <g id="text5534" aria-label="Ý">
  <path id="path6175" d="m0.59756 2459.5h1.2715l2.4258 3.5976 2.4082-3.5976h1.2715l-3.0938 4.582v4.166h-1.1895v-4.166zm4.0195-2.3789h1.084l-1.3359 1.5468h-0.89648z" stroke-width=".265"/>
 </g>
 <g id="text5538" aria-label="Þ">
  <path id="path6178" d="m1.7987 2472.5h1.1836v1.5468h1.4883q1.4707 0 2.2207 0.6621 0.75586 0.6563 0.75586 1.9454 0 1.289-0.75586 1.9511-0.75 0.6621-2.2207 0.6621h-1.4883v1.9805h-1.1836zm1.1836 2.5195v3.2754h1.4883q0.82617 0 1.2773-0.4278 0.45117-0.4277 0.45117-1.2128 0-0.7852-0.45117-1.2071-0.44531-0.4277-1.2773-0.4277z" stroke-width=".265"/>
 </g>
 <g id="text5542" aria-label="ß">
  <path id="path6181" d="m1.7108 2487.6q0-1.1719 0.69727-1.8106 0.70312-0.6445 1.9805-0.6445 1.2188 0 1.8574 0.6797 0.64453 0.6797 0.66211 1.9922-0.88477 0.047-1.377 0.3867-0.49219 0.334-0.49219 0.8965 0 0.2754 0.16992 0.5156 0.16992 0.2344 0.55078 0.4805l0.33398 0.2168q0.97266 0.6211 1.2539 1.0371t0.28125 1.0019q0 1.0079-0.66211 1.5469-0.65625 0.5332-1.8926 0.5332-0.375 0-0.77344-0.076-0.39844-0.07-0.82617-0.211v-0.9609q0.46875 0.1758 0.87891 0.2637 0.41016 0.082 0.79102 0.082 0.67969 0 1.0312-0.2754 0.35156-0.2813 0.35156-0.8145 0-0.3691-0.17578-0.6152-0.16992-0.2461-0.76172-0.6094l-0.53906-0.3222q-0.5625-0.3457-0.82031-0.7383-0.25195-0.3985-0.25195-0.9317 0-0.7441 0.48633-1.248 0.49219-0.5039 1.377-0.6738-0.046875-0.6035-0.43359-0.9317-0.38086-0.3281-1.043-0.3281-0.76172 0-1.1602 0.4102-0.39844 0.4043-0.39844 1.1718v6.6387h-1.0957z" stroke-width=".265"/>
 </g>
 <g id="text5546" aria-label="à">
  <path id="path6184" d="m4.7343 2504q-1.3066 0-1.8105 0.2988-0.50391 0.2988-0.50391 1.0195 0 0.5743 0.375 0.9141 0.38086 0.334 1.0312 0.334 0.89648 0 1.4355-0.6328 0.54492-0.6387 0.54492-1.6934v-0.2402zm2.1504-0.4453v3.7441h-1.0781v-0.9961q-0.36914 0.5977-0.91992 0.8848-0.55078 0.2812-1.3477 0.2812-1.0078 0-1.6055-0.5625-0.5918-0.5683-0.5918-1.5176 0-1.1074 0.73828-1.6699 0.74414-0.5625 2.2148-0.5625h1.5117v-0.1054q0-0.7442-0.49219-1.1485-0.48633-0.4101-1.3711-0.4101-0.5625 0-1.0957 0.1347-0.5332 0.1348-1.0254 0.4043v-0.9961q0.5918-0.2285 1.1484-0.3398 0.55664-0.1172 1.084-0.1172 1.4238 0 2.127 0.7383t0.70312 2.2383zm-3.6328-5.8536 1.6523 2.1915h-0.89648l-1.9102-2.1915z" stroke-width=".265"/>
 </g>
 <g id="text5550" aria-label="á">
  <path id="path6187" d="m4.7343 2517q-1.3066 0-1.8105 0.2988-0.50391 0.2988-0.50391 1.0195 0 0.5743 0.375 0.9141 0.38086 0.334 1.0312 0.334 0.89648 0 1.4355-0.6328 0.54492-0.6387 0.54492-1.6934v-0.2402zm2.1504-0.4453v3.7441h-1.0781v-0.9961q-0.36914 0.5977-0.91992 0.8848-0.55078 0.2812-1.3477 0.2812-1.0078 0-1.6055-0.5625-0.5918-0.5683-0.5918-1.5176 0-1.1074 0.73828-1.6699 0.74414-0.5625 2.2148-0.5625h1.5117v-0.1054q0-0.7442-0.49219-1.1485-0.48633-0.4101-1.3711-0.4101-0.5625 0-1.0957 0.1347-0.5332 0.1348-1.0254 0.4043v-0.9961q0.5918-0.2285 1.1484-0.3398 0.55664-0.1172 1.084-0.1172 1.4238 0 2.127 0.7383t0.70312 2.2383zm-1.9688-5.8536h1.166l-1.9102 2.2032h-0.89648z" stroke-width=".265"/>
 </g>
 <g id="text5554" aria-label="â">
  <path id="path6190" d="m4.7343 2530q-1.3066 0-1.8105 0.2988-0.50391 0.2988-0.50391 1.0195 0 0.5743 0.375 0.9141 0.38086 0.334 1.0312 0.334 0.89648 0 1.4355-0.6328 0.54492-0.6387 0.54492-1.6934v-0.2402zm2.1504-0.4453v3.7441h-1.0781v-0.9961q-0.36914 0.5977-0.91992 0.8848-0.55078 0.2812-1.3477 0.2812-1.0078 0-1.6055-0.5625-0.5918-0.5683-0.5918-1.5176 0-1.1074 0.73828-1.6699 0.74414-0.5625 2.2148-0.5625h1.5117v-0.1054q0-0.7442-0.49219-1.1485-0.48633-0.4101-1.3711-0.4101-0.5625 0-1.0957 0.1347-0.5332 0.1348-1.0254 0.4043v-0.9961q0.5918-0.2285 1.1484-0.3398 0.55664-0.1172 1.084-0.1172 1.4238 0 2.127 0.7383t0.70312 2.2383zm-3.2168-5.8536h0.86719l1.4355 2.2032h-0.81445l-1.0547-1.4356-1.0547 1.4356h-0.81445z" stroke-width=".265"/>
 </g>
 <g id="text5558" aria-label="ã">
  <path id="path6193" d="m4.7343 2543q-1.3066 0-1.8105 0.2988-0.50391 0.2988-0.50391 1.0195 0 0.5743 0.375 0.9141 0.38086 0.334 1.0312 0.334 0.89648 0 1.4355-0.6328 0.54492-0.6387 0.54492-1.6934v-0.2402zm2.1504-0.4453v3.7441h-1.0781v-0.9961q-0.36914 0.5977-0.91992 0.8848-0.55078 0.2812-1.3477 0.2812-1.0078 0-1.6055-0.5625-0.5918-0.5683-0.5918-1.5176 0-1.1074 0.73828-1.6699 0.74414-0.5625 2.2148-0.5625h1.5117v-0.1054q0-0.7442-0.49219-1.1485-0.48633-0.4101-1.3711-0.4101-0.5625 0-1.0957 0.1347-0.5332 0.1348-1.0254 0.4043v-0.9961q0.5918-0.2285 1.1484-0.3398 0.55664-0.1172 1.084-0.1172 1.4238 0 2.127 0.7383t0.70312 2.2383zm-2.8066-4.2832-0.33398-0.3223q-0.12891-0.1172-0.22852-0.1699-0.09375-0.059-0.16992-0.059-0.22266 0-0.32812 0.2168-0.10547 0.2109-0.11719 0.6914h-0.73242q0.011719-0.791 0.31055-1.2188 0.29883-0.4336 0.83203-0.4336 0.22266 0 0.41016 0.082t0.4043 0.2754l0.33398 0.3222q0.12891 0.1172 0.22266 0.1758 0.099609 0.053 0.17578 0.053 0.22266 0 0.32812-0.2109 0.10547-0.2168 0.11719-0.6973h0.73242q-0.011719 0.7911-0.31055 1.2246-0.29883 0.4278-0.83203 0.4278-0.22266 0-0.41016-0.082t-0.4043-0.2754z" stroke-width=".265"/>
 </g>
 <g id="text5562" aria-label="ä">
  <path id="path6196" d="m4.7343 2556q-1.3066 0-1.8105 0.2988-0.50391 0.2988-0.50391 1.0195 0 0.5743 0.375 0.9141 0.38086 0.334 1.0312 0.334 0.89648 0 1.4355-0.6328 0.54492-0.6387 0.54492-1.6934v-0.2402zm2.1504-0.4453v3.7441h-1.0781v-0.9961q-0.36914 0.5977-0.91992 0.8848-0.55078 0.2812-1.3477 0.2812-1.0078 0-1.6055-0.5625-0.5918-0.5683-0.5918-1.5176 0-1.1074 0.73828-1.6699 0.74414-0.5625 2.2148-0.5625h1.5117v-0.1054q0-0.7442-0.49219-1.1485-0.48633-0.4101-1.3711-0.4101-0.5625 0-1.0957 0.1347-0.5332 0.1348-1.0254 0.4043v-0.9961q0.5918-0.2285 1.1484-0.3398 0.55664-0.1172 1.084-0.1172 1.4238 0 2.127 0.7383t0.70312 2.2383zm-2.2324-5.3496h1.1895v1.1835h-1.1895zm-2.291 0h1.1895v1.1835h-1.1895z" stroke-width=".265"/>
 </g>
 <g id="text5566" aria-label="å">
  <path id="path6199" d="m4.7343 2569q-1.3066 0-1.8105 0.2988-0.50391 0.2988-0.50391 1.0195 0 0.5743 0.375 0.9141 0.38086 0.334 1.0312 0.334 0.89648 0 1.4355-0.6328 0.54492-0.6387 0.54492-1.6934v-0.2402zm2.1504-0.4453v3.7441h-1.0781v-0.9961q-0.36914 0.5977-0.91992 0.8848-0.55078 0.2812-1.3477 0.2812-1.0078 0-1.6055-0.5625-0.5918-0.5683-0.5918-1.5176 0-1.1074 0.73828-1.6699 0.74414-0.5625 2.2148-0.5625h1.5117v-0.1054q0-0.7442-0.49219-1.1485-0.48633-0.4101-1.3711-0.4101-0.5625 0-1.0957 0.1347-0.5332 0.1348-1.0254 0.4043v-0.9961q0.5918-0.2285 1.1484-0.3398 0.55664-0.1172 1.084-0.1172 1.4238 0 2.127 0.7383t0.70312 2.2383zm-1.8926-5.1856q0-0.3691-0.25781-0.6269t-0.63281-0.2578q-0.38086 0-0.63867 0.2578-0.25195 0.2519-0.25195 0.6269 0 0.3809 0.25195 0.6387 0.25781 0.2519 0.63867 0.2519 0.375 0 0.63281-0.2578t0.25781-0.6328zm0.71484 0q0 0.6738-0.46875 1.1426-0.46289 0.4687-1.1367 0.4687-0.67383 0-1.1426-0.4687-0.46289-0.4688-0.46289-1.1426t0.46289-1.1367q0.46875-0.4688 1.1426-0.4688 0.67383 0 1.1367 0.4688 0.46875 0.4629 0.46875 1.1367z" stroke-width=".265"/>
 </g>
 <g id="text5570" aria-label="æ">
  <path id="path6202" d="m10.687 2581.4q-0.0059-0.8847-0.49219-1.4121-0.48047-0.5273-1.2832-0.5273-0.89648 0-1.4414 0.5097-0.53906 0.5098-0.62109 1.4356zm-4.2363-1.7754q0.43359-0.5273 1.0547-0.8027 0.62109-0.2754 1.3945-0.2754 1.3242 0 2.0977 0.8555 0.77344 0.8496 0.77344 2.3144v0.5274h-4.957q0.070312 1.1191 0.66797 1.705 0.59766 0.586 1.6699 0.586 0.60938 0 1.1953-0.1524 0.58594-0.1582 1.1719-0.4687v1.0195q-0.58594 0.2461-1.1953 0.375t-1.2305 0.1289q-0.97852 0-1.7051-0.3515-0.72656-0.3575-1.1777-1.0547-0.42773 0.7031-1.0605 1.0547-0.63281 0.3515-1.4707 0.3515-1.1074 0-1.7227-0.5449-0.61523-0.5508-0.61523-1.5352 0-1.1074 0.73828-1.6699 0.74414-0.5625 2.2148-0.5625h1.5117v-0.1054q0-0.7442-0.49219-1.1485-0.48633-0.4101-1.3711-0.4101-0.5625 0-1.0957 0.1347-0.5332 0.1348-1.0254 0.4043v-0.9961q0.5918-0.2285 1.1484-0.3398 0.55664-0.1172 1.084-0.1172 0.83203 0 1.4531 0.2813 0.62695 0.2812 0.94336 0.7968zm-1.7168 2.3438q-1.3066 0-1.8105 0.2988-0.50391 0.2988-0.50391 1.0195 0 0.5743 0.375 0.9141 0.38086 0.334 1.0312 0.334 0.89648 0 1.4355-0.6328 0.54492-0.6387 0.54492-1.6934v-0.2402z" stroke-width=".265"/>
 </g>
 <g id="text5574" aria-label="ç">
  <path id="path6205" d="m6.4745 2591.9v1.0078q-0.45703-0.252-0.91992-0.375-0.45703-0.1289-0.92578-0.1289-1.0488 0-1.6289 0.6679-0.58008 0.6621-0.58008 1.8633t0.58008 1.8692q0.58008 0.6621 1.6289 0.6621 0.46875 0 0.92578-0.1231 0.46289-0.1289 0.91992-0.3808v0.9961q-0.45117 0.2109-0.9375 0.3164-0.48047 0.1054-1.0254 0.1054-1.4824 0-2.3555-0.9316-0.87305-0.9317-0.87305-2.5137 0-1.6055 0.87891-2.5254 0.88477-0.9199 2.4199-0.9199 0.49805 0 0.97266 0.1055 0.47461 0.1 0.91992 0.3047zm-1.5234 6.3105q0.32227 0.3633 0.48047 0.668 0.1582 0.3105 0.1582 0.5918 0 0.5215-0.35156 0.7851-0.35156 0.2696-1.043 0.2696-0.26953 0-0.52734-0.035-0.25195-0.035-0.50391-0.1055v-0.7675q0.19922 0.1 0.41602 0.1406 0.2168 0.047 0.49219 0.047 0.3457 0 0.52148-0.1407 0.17578-0.1406 0.17578-0.4101 0-0.1758-0.12891-0.4336-0.12305-0.252-0.38672-0.6094z" stroke-width=".265"/>
 </g>
 <g id="text5578" aria-label="è">
  <path id="path6208" d="m7.3651 2607.7v0.5274h-4.957q0.070312 1.1132 0.66797 1.6992 0.60352 0.5801 1.6758 0.5801 0.62109 0 1.2012-0.1524 0.58594-0.1523 1.1602-0.457v1.0195q-0.58008 0.2461-1.1895 0.375t-1.2363 0.1289q-1.5703 0-2.4902-0.914-0.91406-0.9141-0.91406-2.4727 0-1.6113 0.86719-2.5547 0.87305-0.9492 2.3496-0.9492 1.3242 0 2.0918 0.8555 0.77344 0.8496 0.77344 2.3144zm-1.0781-0.3164q-0.011719-0.8847-0.49805-1.4121-0.48047-0.5273-1.2773-0.5273-0.90234 0-1.4473 0.5097-0.53906 0.5098-0.62109 1.4356zm-2.7012-5.7305 1.6523 2.1915h-0.89648l-1.9102-2.1915z" stroke-width=".265"/>
 </g>
 <g id="text5582" aria-label="é">
  <path id="path6211" d="m7.3651 2620.7v0.5274h-4.957q0.070312 1.1132 0.66797 1.6992 0.60352 0.5801 1.6758 0.5801 0.62109 0 1.2012-0.1524 0.58594-0.1523 1.1602-0.457v1.0195q-0.58008 0.2461-1.1895 0.375t-1.2363 0.1289q-1.5703 0-2.4902-0.914-0.91406-0.9141-0.91406-2.4727 0-1.6113 0.86719-2.5547 0.87305-0.9492 2.3496-0.9492 1.3242 0 2.0918 0.8555 0.77344 0.8496 0.77344 2.3144zm-1.0781-0.3164q-0.011719-0.8847-0.49805-1.4121-0.48047-0.5273-1.2773-0.5273-0.90234 0-1.4473 0.5097-0.53906 0.5098-0.62109 1.4356zm-1.0371-5.7305h1.166l-1.9102 2.2032h-0.89648z" stroke-width=".265"/>
 </g>
 <g id="text5586" aria-label="ê">
  <path id="path6214" d="m7.3651 2633.7v0.5274h-4.957q0.070312 1.1132 0.66797 1.6992 0.60352 0.5801 1.6758 0.5801 0.62109 0 1.2012-0.1524 0.58594-0.1523 1.1602-0.457v1.0195q-0.58008 0.2461-1.1895 0.375t-1.2363 0.1289q-1.5703 0-2.4902-0.914-0.91406-0.9141-0.91406-2.4727 0-1.6113 0.86719-2.5547 0.87305-0.9492 2.3496-0.9492 1.3242 0 2.0918 0.8555 0.77344 0.8496 0.77344 2.3144zm-1.0781-0.3164q-0.011719-0.8847-0.49805-1.4121-0.48047-0.5273-1.2773-0.5273-0.90234 0-1.4473 0.5097-0.53906 0.5098-0.62109 1.4356zm-2.2852-5.7305h0.86719l1.4355 2.2032h-0.81445l-1.0547-1.4356-1.0547 1.4356h-0.81445z" stroke-width=".265"/>
 </g>
 <g id="text5590" aria-label="ë">
  <path id="path6217" d="m7.3651 2646.7v0.5274h-4.957q0.070312 1.1132 0.66797 1.6992 0.60352 0.5801 1.6758 0.5801 0.62109 0 1.2012-0.1524 0.58594-0.1523 1.1602-0.457v1.0195q-0.58008 0.2461-1.1895 0.375t-1.2363 0.1289q-1.5703 0-2.4902-0.914-0.91406-0.9141-0.91406-2.4727 0-1.6113 0.86719-2.5547 0.87305-0.9492 2.3496-0.9492 1.3242 0 2.0918 0.8555 0.77344 0.8496 0.77344 2.3144zm-1.0781-0.3164q-0.011719-0.8847-0.49805-1.4121-0.48047-0.5273-1.2773-0.5273-0.90234 0-1.4473 0.5097-0.53906 0.5098-0.62109 1.4356zm-1.3008-5.2265h1.1895v1.1835h-1.1895zm-2.291 0h1.1895v1.1835h-1.1895z" stroke-width=".265"/>
 </g>
 <g id="text5594" aria-label="ì">
  <path id="path6220" d="m1.4413 2653.7 1.6523 2.1915h-0.89648l-1.9102-2.1915zm0.31055 3.0352h1.0781v6.5625h-1.0781z" stroke-width=".265"/>
 </g>
 <g id="text5598" aria-label="í">
  <path id="path6223" d="m3.1054 2666.7h1.166l-1.9102 2.2032h-0.89648zm-1.3535 3.0352h1.0781v6.5625h-1.0781z" stroke-width=".265"/>
 </g>
 <g id="text5602" aria-label="î">
  <path id="path6226" d="m1.7519 2682.7h1.0781v6.5625h-1.0781zm0.53906-0.1582m-0.43359-2.877h0.86719l1.4355 2.2032h-0.81445l-1.0547-1.4356-1.0547 1.4356h-0.81445z" stroke-width=".265"/>
 </g>
 <g id="text5606" aria-label="ï">
  <path id="path6229" d="m1.7519 2695.7h1.0781v6.5625h-1.0781zm0.53906-0.1582m0.55078-2.373h1.1895v1.1835h-1.1895zm-2.291 0h1.1895v1.1835h-1.1895z" stroke-width=".265"/>
 </g>
 <g id="text5610" aria-label="ð">
  <path id="path6232" d="m5.5312 2709.9q-0.29297-0.1-0.55078-0.1465-0.25781-0.047-0.49805-0.047-0.97852 0-1.5234 0.6328-0.53906 0.6328-0.53906 1.7754 0 1.1016 0.50977 1.752 0.50977 0.6504 1.3652 0.6504 0.84961 0 1.3594-0.6504t0.50977-1.752q0-0.7148-0.1582-1.2656t-0.47461-0.9492zm0.36914-1.3242q0.73828 0.8378 1.0723 1.6816 0.33398 0.8437 0.33398 1.8574 0 1.4942-0.83203 2.4082-0.83203 0.9082-2.1797 0.9082-1.3535 0-2.1855-0.9082-0.82617-0.914-0.82617-2.4082 0-1.4648 0.80859-2.373 0.80859-0.9141 2.1035-0.9141 0.10547 0 0.25781 0.018 0.15234 0.012 0.39844 0.041l-0.93164-1.0547-1.8691 0.627-0.19336-0.5801 1.6465-0.5391-1.0605-1.1953h1.3359l0.74414 0.8496 1.9512-0.6504 0.19336 0.5684-1.7285 0.5742z" stroke-width=".265"/>
 </g>
 <g id="text5614" aria-label="ñ">
  <path id="path6235" d="m7.2069 2724.3v3.9609h-1.0781v-3.9258q0-0.9316-0.36328-1.3945-0.36328-0.4629-1.0898-0.4629-0.87305 0-1.377 0.5566-0.50391 0.5567-0.50391 1.5176v3.709h-1.084v-6.5625h1.084v1.0195q0.38672-0.5918 0.9082-0.8847 0.52734-0.293 1.2129-0.293 1.1309 0 1.7109 0.7031 0.58008 0.6973 0.58008 2.0567zm-2.7188-4.0664-0.33398-0.3223q-0.12891-0.1172-0.22852-0.1699-0.09375-0.059-0.16992-0.059-0.22266 0-0.32812 0.2168-0.10547 0.2109-0.11719 0.6914h-0.73242q0.011719-0.791 0.31055-1.2188 0.29883-0.4336 0.83203-0.4336 0.22266 0 0.41016 0.082t0.4043 0.2754l0.33398 0.3222q0.12891 0.1172 0.22266 0.1758 0.099609 0.053 0.17578 0.053 0.22266 0 0.32812-0.2109 0.10547-0.2168 0.11719-0.6973h0.73242q-0.011719 0.7911-0.31055 1.2246-0.29883 0.4278-0.83203 0.4278-0.22266 0-0.41016-0.082t-0.4043-0.2754z" stroke-width=".265"/>
 </g>
 <g id="text5618" aria-label="ò">
  <path id="path6238" d="m4.2948 2735.4q-0.86719 0-1.3711 0.6797-0.50391 0.6738-0.50391 1.8515t0.49805 1.8574q0.50391 0.6739 1.377 0.6739 0.86133 0 1.3652-0.6797 0.50391-0.6797 0.50391-1.8516 0-1.166-0.50391-1.8457-0.50391-0.6855-1.3652-0.6855zm0-0.9141q1.4062 0 2.209 0.9141 0.80273 0.914 0.80273 2.5312 0 1.6113-0.80273 2.5313-0.80273 0.914-2.209 0.914-1.4121 0-2.2148-0.914-0.79688-0.92-0.79688-2.5313 0-1.6172 0.79688-2.5312 0.80273-0.9141 2.2148-0.9141zm-0.84961-2.877 1.6523 2.1915h-0.89648l-1.9102-2.1915z" stroke-width=".265"/>
 </g>
 <g id="text5622" aria-label="ó">
  <path id="path6241" d="m4.2948 2748.4q-0.86719 0-1.3711 0.6797-0.50391 0.6738-0.50391 1.8515t0.49805 1.8574q0.50391 0.6739 1.377 0.6739 0.86133 0 1.3652-0.6797 0.50391-0.6797 0.50391-1.8516 0-1.166-0.50391-1.8457-0.50391-0.6855-1.3652-0.6855zm0-0.9141q1.4062 0 2.209 0.9141 0.80273 0.914 0.80273 2.5312 0 1.6113-0.80273 2.5313-0.80273 0.914-2.209 0.914-1.4121 0-2.2148-0.914-0.79688-0.92-0.79688-2.5313 0-1.6172 0.79688-2.5312 0.80273-0.9141 2.2148-0.9141zm0.81445-2.877h1.166l-1.9102 2.2032h-0.89648z" stroke-width=".265"/>
 </g>
 <g id="text5626" aria-label="ô">
  <path id="path6244" d="m4.2948 2761.4q-0.86719 0-1.3711 0.6797-0.50391 0.6738-0.50391 1.8515t0.49805 1.8574q0.50391 0.6739 1.377 0.6739 0.86133 0 1.3652-0.6797 0.50391-0.6797 0.50391-1.8516 0-1.166-0.50391-1.8457-0.50391-0.6855-1.3652-0.6855zm0-0.9141q1.4062 0 2.209 0.9141 0.80273 0.914 0.80273 2.5312 0 1.6113-0.80273 2.5313-0.80273 0.914-2.209 0.914-1.4121 0-2.2148-0.914-0.79688-0.92-0.79688-2.5313 0-1.6172 0.79688-2.5312 0.80273-0.9141 2.2148-0.9141zm-0.43359-2.877h0.86719l1.4355 2.2032h-0.81445l-1.0547-1.4356-1.0547 1.4356h-0.81445z" stroke-width=".265"/>
 </g>
 <g id="text5630" aria-label="õ">
  <path id="path6247" d="m4.2948 2774.4q-0.86719 0-1.3711 0.6797-0.50391 0.6738-0.50391 1.8515t0.49805 1.8574q0.50391 0.6739 1.377 0.6739 0.86133 0 1.3652-0.6797 0.50391-0.6797 0.50391-1.8516 0-1.166-0.50391-1.8457-0.50391-0.6855-1.3652-0.6855zm0-0.9141q1.4062 0 2.209 0.9141 0.80273 0.914 0.80273 2.5312 0 1.6113-0.80273 2.5313-0.80273 0.914-2.209 0.914-1.4121 0-2.2148-0.914-0.79688-0.92-0.79688-2.5313 0-1.6172 0.79688-2.5312 0.80273-0.9141 2.2148-0.9141zm-0.023437-1.3066-0.33398-0.3223q-0.12891-0.1172-0.22852-0.1699-0.09375-0.059-0.16992-0.059-0.22266 0-0.32812 0.2168-0.10547 0.2109-0.11719 0.6914h-0.73242q0.011719-0.791 0.31055-1.2188 0.29883-0.4336 0.83203-0.4336 0.22266 0 0.41016 0.082t0.4043 0.2754l0.33398 0.3222q0.12891 0.1172 0.22266 0.1758 0.099609 0.053 0.17578 0.053 0.22266 0 0.32812-0.2109 0.10547-0.2168 0.11719-0.6973h0.73242q-0.011719 0.7911-0.31055 1.2246-0.29883 0.4278-0.83203 0.4278-0.22266 0-0.41016-0.082t-0.4043-0.2754z" stroke-width=".265"/>
 </g>
 <g id="text5634" aria-label="ö">
  <path id="path6250" d="m4.2948 2787.4q-0.86719 0-1.3711 0.6797-0.50391 0.6738-0.50391 1.8515t0.49805 1.8574q0.50391 0.6739 1.377 0.6739 0.86133 0 1.3652-0.6797 0.50391-0.6797 0.50391-1.8516 0-1.166-0.50391-1.8457-0.50391-0.6855-1.3652-0.6855zm0-0.9141q1.4062 0 2.209 0.9141 0.80273 0.914 0.80273 2.5312 0 1.6113-0.80273 2.5313-0.80273 0.914-2.209 0.914-1.4121 0-2.2148-0.914-0.79688-0.92-0.79688-2.5313 0-1.6172 0.79688-2.5312 0.80273-0.9141 2.2148-0.9141zm0.55078-2.373h1.1895v1.1835h-1.1895zm-2.291 0h1.1895v1.1835h-1.1895z" stroke-width=".265"/>
 </g>
 <g id="text5638" aria-label="÷">
  <path id="path6253" d="m4.9276 2799.6h1.4414v1.4414h-1.4414zm0 4.336h1.4414v1.4355h-1.4414zm-3.0352-1.9454h7.5117v0.9961h-7.5117z" stroke-width=".265"/>
 </g>
 <g id="text5642" aria-label="ø">
  <path id="path6256" d="m5.9237 2814.6-2.8535 3.4688q0.24023 0.2461 0.53906 0.3633 0.30469 0.1172 0.68555 0.1172 0.86133 0 1.3652-0.6797 0.50391-0.6797 0.50391-1.8516 0-0.4629-0.058594-0.8027-0.058594-0.3457-0.18164-0.6153zm-0.41602-0.6328q-0.24609-0.2402-0.55078-0.3574-0.29883-0.123-0.66211-0.123-0.88477 0-1.3828 0.6914-0.49219 0.6855-0.49219 1.9218 0 0.4219 0.052734 0.7442 0.058594 0.3223 0.17578 0.5918zm-3.5918 4.3535q-0.31641-0.4511-0.47461-1.0253-0.1582-0.5801-0.1582-1.2774 0-1.6172 0.79688-2.5312 0.80273-0.9141 2.2148-0.9141 0.54492 0 1.0078 0.1523 0.46875 0.1465 0.86133 0.4512l0.81445-0.9844 0.55664 0.4629-0.85547 1.0489q0.31055 0.4511 0.46875 1.0312 0.1582 0.5801 0.1582 1.2832 0 1.6113-0.80273 2.5313-0.80273 0.914-2.209 0.914-0.5625 0-1.0371-0.1523-0.46875-0.1524-0.83789-0.4512l-0.81445 0.9844-0.5625-0.457z" stroke-width=".265"/>
 </g>
 <g id="text5646" aria-label="ù">
  <path id="path6259" d="m1.6405 2829.7v-3.9727h1.0781v3.9316q0 0.9317 0.36328 1.4004 0.36328 0.4629 1.0898 0.4629 0.87305 0 1.377-0.5566 0.50977-0.5567 0.50977-1.5176v-3.7207h1.0781v6.5625h-1.0781v-1.0078q-0.39258 0.5976-0.91406 0.8906-0.51562 0.2871-1.2012 0.2871-1.1309 0-1.7168-0.7031t-0.58594-2.0566zm2.7129-4.1309m-0.86133-2.877 1.6523 2.1915h-0.89648l-1.9102-2.1915z" stroke-width=".265"/>
 </g>
 <g id="text5650" aria-label="ú">
  <path id="path6262" d="m1.6405 2842.7v-3.9727h1.0781v3.9316q0 0.9317 0.36328 1.4004 0.36328 0.4629 1.0898 0.4629 0.87305 0 1.377-0.5566 0.50977-0.5567 0.50977-1.5176v-3.7207h1.0781v6.5625h-1.0781v-1.0078q-0.39258 0.5976-0.91406 0.8906-0.51562 0.2871-1.2012 0.2871-1.1309 0-1.7168-0.7031t-0.58594-2.0566zm2.7129-4.1309m0.80273-2.877h1.166l-1.9102 2.2032h-0.89648z" stroke-width=".265"/>
 </g>
 <g id="text5654" aria-label="û">
  <path id="path6265" d="m1.6405 2855.7v-3.9727h1.0781v3.9316q0 0.9317 0.36328 1.4004 0.36328 0.4629 1.0898 0.4629 0.87305 0 1.377-0.5566 0.50977-0.5567 0.50977-1.5176v-3.7207h1.0781v6.5625h-1.0781v-1.0078q-0.39258 0.5976-0.91406 0.8906-0.51562 0.2871-1.2012 0.2871-1.1309 0-1.7168-0.7031t-0.58594-2.0566zm2.7129-4.1309m-0.44531-2.877h0.86719l1.4355 2.2032h-0.81445l-1.0547-1.4356-1.0547 1.4356h-0.81445z" stroke-width=".265"/>
 </g>
 <g id="text5658" aria-label="ü">
  <path id="path6268" d="m1.6405 2868.7v-3.9727h1.0781v3.9316q0 0.9317 0.36328 1.4004 0.36328 0.4629 1.0898 0.4629 0.87305 0 1.377-0.5566 0.50977-0.5567 0.50977-1.5176v-3.7207h1.0781v6.5625h-1.0781v-1.0078q-0.39258 0.5976-0.91406 0.8906-0.51562 0.2871-1.2012 0.2871-1.1309 0-1.7168-0.7031t-0.58594-2.0566zm2.7129-4.1309m0.53906-2.373h1.1895v1.1835h-1.1895zm-2.291 0h1.1895v1.1835h-1.1895z" stroke-width=".265"/>
 </g>
 <g id="text5662" aria-label="ý">
  <path id="path6271" d="m4.4823 2884.9q-0.45703 1.1719-0.89062 1.5293-0.43359 0.3574-1.1602 0.3574h-0.86133v-0.9023h0.63281q0.44531 0 0.69141-0.211 0.24609-0.2109 0.54492-0.9961l0.19336-0.4922-2.6543-6.457h1.1426l2.0508 5.1328 2.0508-5.1328h1.1426zm0.50391-10.207h1.166l-1.9102 2.2032h-0.89648z" stroke-width=".265"/>
 </g>
 <g id="text5666" aria-label="þ">
  <path id="path6274" d="m2.7948 2896.3v3.4805h-1.084v-11.613h1.084v3.5508q0.33984-0.5859 0.85547-0.8672 0.52148-0.2871 1.2422-0.2871 1.1953 0 1.9395 0.9492 0.75 0.9492 0.75 2.4961t-0.75 2.4961q-0.74414 0.9492-1.9395 0.9492-0.7207 0-1.2422-0.2812-0.51562-0.2871-0.85547-0.8731zm3.668-2.291q0-1.1894-0.49219-1.8633-0.48633-0.6797-1.3418-0.6797-0.85547 0-1.3477 0.6797-0.48633 0.6739-0.48633 1.8633 0 1.1895 0.48633 1.8692 0.49219 0.6738 1.3477 0.6738 0.85547 0 1.3418-0.6738 0.49219-0.6797 0.49219-1.8692z" stroke-width=".265"/>
 </g>
 <g id="text5670" aria-label="ÿ">
  <path id="path6277" d="m4.4823 2910.9q-0.45703 1.1719-0.89062 1.5293-0.43359 0.3574-1.1602 0.3574h-0.86133v-0.9023h0.63281q0.44531 0 0.69141-0.211 0.24609-0.2109 0.54492-0.9961l0.19336-0.4922-2.6543-6.457h1.1426l2.0508 5.1328 2.0508-5.1328h1.1426zm0.24023-9.7031h1.1895v1.1835h-1.1895zm-2.291 0h1.1895v1.1835h-1.1895z" stroke-width=".265"/>
 </g>
</svg>
