<svg xmlns="http://www.w3.org/2000/svg" viewBox="0 0 100 100">
  <defs>
    <clipPath id="clip-path">
      <circle id="Ellipse_33" data-name="Ellipse 33" cx="50" cy="50" r="50" transform="translate(670 1465)" fill="#fff"/>
    </clipPath>
    <style>
      .cls-4{fill:#fff}.cls-3{fill:none}.cls-3,.cls-4{stroke:#0e2336;stroke-width:2px}
    </style>
  </defs>
  <g id="Mask_Group_22" data-name="Mask Group 22" transform="translate(-670 -1465)" clip-path="url(#clip-path)">
    <g id="Group_64" data-name="Group 64">
      <path id="Path_80" data-name="Path 80" class="cls-3" d="M8626 1524h40.432v16.3h73.23" transform="translate(-7964)"/>
      <path id="Path_81" data-name="Path 81" class="cls-3" d="M8435.806 1524s-2.753 11.835 4.73 10.815 12.586-6.463 7.484-8.164-11.906 8.844-7.484 12.926 24.152 2.721 14.628-2.041-11.227 8.844-11.227 8.844" transform="rotate(-90 4590.021 5385.69)"/>
      <g id="Group_63" data-name="Group 63" transform="translate(-5)">
        <path id="Rectangle_114" data-name="Rectangle 114" class="cls-4" transform="translate(717 1493)" d="M0 0h16v47H0z"/>
        <path id="Rectangle_115" data-name="Rectangle 115" class="cls-4" transform="translate(709 1463)" d="M0 0h32v30H0z"/>
        <path id="Path_82" data-name="Path 82" class="cls-3" d="M8673 1535.384l16.432-16.432" transform="translate(-7956)"/>
        <path id="Path_83" data-name="Path 83" class="cls-3" d="M8673 1535.384l16.432-16.432" transform="translate(-7956 -10)"/>
        <path id="Path_84" data-name="Path 84" class="cls-3" d="M8673 1535.384l16.432-16.432" transform="translate(-7956 -20)"/>
        <path id="Path_85" data-name="Path 85" class="cls-3" d="M8673 1535.384l12.324-12.324" transform="translate(-7956 -30)"/>
        <path id="Path_86" data-name="Path 86" class="cls-3" d="M8678.135 1530.249l11.3-11.3" transform="translate(-7956 10)"/>
      </g>
    </g>
  </g>
</svg>
