<svg xmlns="http://www.w3.org/2000/svg" width="350" height="233" viewBox="0 0 350 233">
  <g fill="none" stroke="#454545" stroke-width="6" stroke-linecap="round" stroke-linejoin="round" stroke-miterlimit="10">
    <circle cx="172.171" cy="116.263" r="22.365"/>
    <path d="M161.433 47.612l-12.215-16.741c-8.017 2.16-15.55 5.37-22.38 9.517l3.622 20.677a69.533 69.533 0 00-13.927 14.396l-20.942-3.292c-4.008 7.028-7.107 14.601-9.091 22.534l17.578 12.369c-.364 2.873-.615 5.782-.615 8.756 0 3.644.367 7.194.909 10.686l-17.501 12.769c2.16 8.018 5.37 15.55 9.517 22.38l21.427-3.753a69.506 69.506 0 0013.733 13.493l-3.379 21.507c7.028 4.008 14.601 7.107 22.538 9.091l12.444-17.694c3.12.429 6.285.731 9.521.731 3.378 0 6.677-.324 9.925-.793l12.685 17.384c8.018-2.159 15.55-5.369 22.38-9.517M235.63 75.239h-37.282V30.5m59.652 0v44.739h-11.185"/>
    <path d="M246.815 116.25h-37.283V75.239m37.283 0v29.826m-33.554 41.01h-14.913V116.25H258v29.825h-33.555m18.642 0v11.186h-29.826v-11.186m22.369 33.555l-7.455 7.457-7.457-7.457v-22.369h14.912z"/>
  </g>
</svg>
