<svg xmlns="http://www.w3.org/2000/svg" width="40" height="40" viewBox="0 0 40 40">
  <path stroke-miterlimit="10" stroke-linejoin="round" stroke-linecap="round" stroke-width="1.856" stroke="#fff" fill="none" d="M35.593 20h-7.796v-8.576m7.796 0v6.237m-7.017 8.576h-3.118V20h12.474v6.237h-7.017m3.898 0v2.338h-6.237v-2.338m4.677 7.017l-1.559 1.56-1.559-1.56v-4.678h3.118zM17.738 5.647l-2.554-3.501a18.068 18.068 0 00-4.68 1.99l.757 4.324a14.541 14.541 0 00-2.913 3.01l-4.38-.688a18.662 18.662 0 00-1.9 4.712l3.676 2.587a14.522 14.522 0 00-.128 1.83c0 .763.076 1.505.19 2.235l-3.66 2.67a18.064 18.064 0 001.99 4.68l4.48-.784a14.535 14.535 0 002.873 2.82l-.707 4.499a18.656 18.656 0 004.714 1.901l2.602-3.7c.652.09 1.314.152 1.99.152a14.5 14.5 0 002.076-.165l2.652 3.635a18.05 18.05 0 004.68-1.99m3.758-24.44h-7.798V2.068m12.475 0v9.356h-2.338m-10.934 8.579a4.677 4.677 0 01-4.677 4.677 4.677 4.677 0 01-4.677-4.677 4.677 4.677 0 014.677-4.677 4.677 4.677 0 014.677 4.677"/>
</svg>
