$
<svg xmlns="http://www.w3.org/2000/svg" viewBox="0 0 300 300">
  <path d="M30.8 238.5h3.7-3.7zm14.9 0h-7.1 7.1zm-7.1 0h-7.8 7.8z"/>
  <path fill="none" stroke="#000" stroke-width="4" stroke-miterlimit="10" d="M43.8 87.8v-11l14.5 14.5zm5.7-34.2l7.8-7.8v20.5zm187-3.4l10.8-2.2L236 65.1zm6.4 28.4l9.8 4.8-19.4 6.6z"/>
  <path d="M166.8 130.5v-5c22-2.5 26.7-9.3 27.6-10.8l.4-.9V80.4c12.4-3.9 15.8-8.8 16.6-10.2l.4-.9V7.5h-8v9L191.3 29l1.4 1.4 11.1-11.1V28l-12.5 12.5 1.4 1.4 11.1-11.1v8.7L191.3 52l1.4 1.4 11.1-11.1V51l-12.5 12.5 1.4 1.4 11.1-11.1v13c-2.3 2.2-14.1 10.9-56 10.9-41.8 0-53.5-8.5-56-10.9V7.5h-8v61.8l.5.9c.8 1.5 4.1 6.3 16.5 10.2v33.4l.5.9c.8 1.6 5.6 8.3 27.5 10.8v5h-45l-57.3 57.3v102.7h191.3l55.7-55.7V130.5H166.8zm52 102.1l22.8 22.8-10 10-12.8-12.8v-20zm0-2.9v-19.9L253 244l-10 10-24.2-24.3zm0-22.7v-17.4l1.3-1.3 44.3 44.3-10 10-35.6-35.6zm2.7-20.1l10-10 34.1 34.1v19.9l-44.1-44zm11.4-11.4l10-10 22.7 22.7v19.9l-32.7-32.6zm11.3-11.4l10-10 11.3 11.3v19.9l-21.3-21.2zm21.3-1.5l-9.9-9.9 9.9-9.9v19.8zm-156.7-51.3V82.5c4.6 1 10.1 1.8 16.6 2.4v19.6h8v-19c4.4.2 9.2.4 14.4.4 5.1 0 9.7-.1 14-.3v19h8V84.9c6.7-.6 12.3-1.4 17-2.4v28.8c-2.2 1.8-10.9 7.2-39 7.2s-36.8-5.4-39-7.2zm58 64.2c.7.9 1.6 1.7 2.4 2.5v38.8c-1.5-3.1-2.4-6.6-2.4-10.6v-30.7zm-18.2-25l10.3-10.3v9.4l-11.7 11.7 1.4 1.4 10.3-10.3v9.4l-11.7 11.7 1.4 1.4 10.3-10.3v9.4l-11.7 11.7 1.4 1.4 10.3-10.3v9.4l-11.7 11.7 1.4 1.4 10.3-10.3v9.4L147.2 210l1.4 1.4 10.3-10.3V213c-1.8 1.1-5.6 2.7-11.7 2.7-5.9 0-9-1.9-10.3-2.9v-86.7c3.3.2 7 .3 11 .3 3.6 0 6.9-.1 10-.2l-10.7 10.7 1.4 1.4 10.3-10.3v9.4l-11.7 11.7 1.4 1.4zm-17.8 67.7c2.1 2.1 7.1 5.6 16.4 5.6 7 0 11.9-1.8 14.9-3.4 3.7 7.6 10.5 13.7 20.1 18.1h-80.5c11.1-4.2 21.3-10.6 29.1-20.3zm40.5 2v-40.4c.9.7 1.8 1.4 2.8 2.1v41.6c-1.1-1.1-2-2.2-2.8-3.3zm4.7 5.1v-42.1c1 .6 2.1 1.3 3.2 1.9v42.7c-1.1-.8-2.2-1.6-3.2-2.5zm5.3 3.7v-43c1.3.6 2.6 1.2 4 1.7V231c-1.4-.5-2.8-1.2-4-2zm-82.8 2.1V187c1.6-.5 3.2-1.1 4.8-1.8v43.9c-1.6.7-3.2 1.4-4.8 2zm6.8-2.9v-43.8l4.5-2.1v43.5l-4.5 2.4zm6.5-3.7v-43.3c1.1-.6 2.2-1.2 3.2-1.9v42.9c-1.1.8-2.1 1.6-3.2 2.3zm5.2-3.8V178l3-2.1V218l-3 2.7zm5-4.7v-41.7c.8-.7 1.7-1.4 2.5-2.2v41c-.8 1-1.6 2-2.5 2.9zm4.5-5.5v-40.3c.8-.8 1.6-1.6 2.3-2.5v39.2c-.7 1.2-1.5 2.4-2.3 3.6zm-39.3-72h41.7v15.7c-18.2 30.5-59.5 31.7-89 31.6l47.3-47.3zm9.3 49.1v44.2c-1.6.6-3.3 1.1-5 1.6V189c1.7-.4 3.4-.9 5-1.4zm-7 1.9v44.4c-2 .5-4 1-6 1.4v-44.5c2-.4 4-.8 6-1.3zm-8 1.7v44.5c-2.2.4-4.3.7-6.5 1v-44.6c2.2-.2 4.3-.5 6.5-.9zm-8.5 1.2V237c-2.4.3-4.8.5-7.2.7V193c2.4-.1 4.8-.3 7.2-.6zm-9.2.8v44.7c-2.4.2-4.9.3-7.2.4v-44.7c2.3-.1 4.7-.2 7.2-.4zm-9.3.5v44.7c-2.9.1-5.8.1-8.7.2v-44.7c2.9-.1 5.8-.2 8.7-.2zm-23.7 44.8h3.7v-44.7h9.3v44.7h-13zm179.7 44h-176v-35.9h176v35.9zM187.3 232v-43.5c.1 0 .1.1.2.1 1.6.6 3.2 1.1 4.8 1.6v43.7c-1.7-.6-3.4-1.2-5-1.9zm7 2.5v-43.7c2.4.6 4.6 1.1 6.8 1.5v43.9c-2.2-.5-4.5-1.1-6.8-1.7zm16.5 3.1c-2-.2-4.7-.5-7.8-1.1v-43.9c3.1.5 5.8.8 7.8 1v44zm-44-83.5v-15.6h91.8l-47.1 47.1c-10.6-.9-44.4-6-44.7-31.5zm52 101.2l11.4 11.4-11.4 11.4v-22.8z"/>
</svg>
