<svg xmlns="http://www.w3.org/2000/svg" width="40" height="40" viewBox="0 0 40 40">
  <path d="M23.24 13.114a1.215 1.215 0 11-2.43 0 1.215 1.215 0 012.43 0M11.09 10.28H8.66a3.24 3.24 0 01-3.241-3.24v0a3.24 3.24 0 013.24-3.241h4.861m21.873 9.721a3.24 3.24 0 00-3.24-3.24H26.48M20 5.418h3.24v3.24H20zM15.14 22.43h-1.62V1.367h12.96V22.43h-8.91m7.29 2.43v4.051h-9.72v-6.48m8.1 9.72L20 35.393l-3.24-3.24v-3.24h6.48zm5.671-18.632h9.722v25.114H1.367V13.519H13.52" fill="none" stroke="#fff" stroke-width="2" stroke-linecap="round" stroke-linejoin="round" stroke-miterlimit="10"/>
</svg>
