<svg xmlns="http://www.w3.org/2000/svg" viewBox="0 0 58.91 58.91"><title>Element 3</title><g id="Ebene_2" data-name="Ebene 2"><g id="Ebene_1-2" data-name="Ebene 1"><path d="M29,47l2.69-2.68V45a2.31,2.31,0,0,1-2.26,2Z"/><path d="M28.22,46.64a2.24,2.24,0,0,1-1-1.31l4.45-4.45v2.26h0Z"/><polygon points="31.71 37.48 31.71 39.74 31.71 39.75 27.19 44.27 27.19 42.01 27.19 42 31.71 37.48"/><polygon points="22.66 27.75 22.66 24.36 36.25 24.36 36.25 27.75 33.98 30.02 24.93 30.02 22.66 27.75"/><rect x="23.79" y="20.96" width="11.33" height="2.27"/><polygon points="38.51 15.3 37.38 16.43 38.51 17.56 38.51 19.83 20.39 19.83 20.39 17.56 21.52 16.43 20.39 15.3 20.39 11.9 38.51 11.9 38.51 15.3"/><polygon points="31.72 34.08 31.72 34.55 31.71 36.34 31.71 36.35 27.19 40.87 27.19 38.61 27.19 38.6 31.72 34.08"/><polygon points="31.25 31.15 31.72 31.15 31.72 32.95 27.19 37.47 27.19 35.21 31.25 31.15"/><polygon points="27.19 34.09 27.19 31.15 30.13 31.15 27.19 34.09"/><path d="M29.45,2.27A27.19,27.19,0,0,0,2.27,29.45,27.18,27.18,0,0,0,29.45,56.63,27.18,27.18,0,0,0,56.63,29.45,27.19,27.19,0,0,0,29.45,2.27m0-2.26A29.43,29.43,0,0,1,58.9,29.45,29.45,29.45,0,0,1,29.45,58.9,29.45,29.45,0,0,1,0,29.45,29.43,29.43,0,0,1,29.45,0"/></g></g></svg>