<svg xmlns="http://www.w3.org/2000/svg" viewBox="0 0 58.91 58.91">
  <title>
    Element 3
  </title>
  <g data-name="Ebene 2">
    <g data-name="Ebene 1">
      <path d="M29 47l2.69-2.68V45a2.31 2.31 0 01-2.26 2zM28.22 46.64a2.24 2.24 0 01-1-1.31l4.45-4.45v2.26zM31.71 37.48V39.75l-4.52 4.52V42l4.52-4.52zM22.66 27.75v-3.39h13.59v3.39l-2.27 2.27h-9.05l-2.27-2.27zM23.79 20.96h11.33v2.27H23.79zM38.51 15.3l-1.13 1.13 1.13 1.13v2.27H20.39v-2.27l1.13-1.13-1.13-1.13v-3.4h18.12v3.4zM31.72 34.08v.47l-.01 1.79v.01l-4.52 4.52V38.6l4.53-4.52zM31.25 31.15h.47v1.8l-4.53 4.52v-2.26l4.06-4.06zM27.19 34.09v-2.94h2.94l-2.94 2.94z"/>
      <path d="M29.45 2.27A27.19 27.19 0 002.27 29.45a27.18 27.18 0 0027.18 27.18 27.18 27.18 0 0027.18-27.18A27.19 27.19 0 0029.45 2.27m0-2.26A29.43 29.43 0 0158.9 29.45 29.45 29.45 0 0129.45 58.9 29.45 29.45 0 010 29.45 29.43 29.43 0 0129.45 0"/>
    </g>
  </g>
</svg>
