<?xml version="1.0" encoding="UTF-8" standalone="no"?>
<svg
   xmlns:dc="http://purl.org/dc/elements/1.1/"
   xmlns:cc="http://creativecommons.org/ns#"
   xmlns:rdf="http://www.w3.org/1999/02/22-rdf-syntax-ns#"
   xmlns:svg="http://www.w3.org/2000/svg"
   xmlns="http://www.w3.org/2000/svg"
   xmlns:sodipodi="http://sodipodi.sourceforge.net/DTD/sodipodi-0.dtd"
   xmlns:inkscape="http://www.inkscape.org/namespaces/inkscape"
   inkscape:version="1.0 (1.0+r73+1)"
   height="40"
   width="40"
   sodipodi:docname="CNC_Fraesen-1-.svg"
   id="svg268"
   version="1.1"
   viewBox="0 0 40 40">
  <metadata
     id="metadata274">
    <rdf:RDF>
      <cc:Work
         rdf:about="">
        <dc:format>image/svg+xml</dc:format>
        <dc:type
           rdf:resource="http://purl.org/dc/dcmitype/StillImage" />
      </cc:Work>
    </rdf:RDF>
  </metadata>
  <defs
     id="defs272" />
  <sodipodi:namedview
     inkscape:current-layer="svg268"
     inkscape:window-maximized="1"
     inkscape:window-y="0"
     inkscape:window-x="0"
     inkscape:cy="26.019211"
     inkscape:cx="26.312847"
     inkscape:zoom="13.406032"
     showgrid="false"
     id="namedview270"
     inkscape:window-height="980"
     inkscape:window-width="1918"
     inkscape:pageshadow="2"
     inkscape:pageopacity="0"
     guidetolerance="10"
     gridtolerance="10"
     objecttolerance="10"
     borderopacity="1"
     bordercolor="#666666"
     pagecolor="#ffffff" />
  <title
     id="title244">Element 3</title>
  <g
     style="fill:#ffffff"
     transform="matrix(1.1804948,0,0,1.2074229,-3.6098954,-4.1484589)"
     id="g11403">
    <path
       d="m 19.694399,31.918507 1.826825,-1.820034 v 0.4618 a 1.5687604,1.5687604 0 0 1 -1.534805,1.358234 z"
       id="path246"
       style="stroke-width:0.679117;fill:#ffffff" />
    <path
       d="m 19.164688,31.674025 a 1.5212222,1.5212222 0 0 1 -0.679117,-0.889644 l 3.022071,-3.022071 v 1.534805 0 z"
       id="path248"
       style="stroke-width:0.679117;fill:#ffffff" />
    <polygon
       style="fill:#ffffff"
       points="31.71,39.75 27.19,44.27 27.19,42.01 27.19,42 31.71,37.48 31.71,39.74 "
       id="polygon250"
       transform="matrix(0.67911705,0,0,0.67911707,4.6182741e-6,4.6182742e-6)" />
    <polygon
       style="fill:#ffffff"
       points="36.25,24.36 36.25,27.75 33.98,30.02 24.93,30.02 22.66,27.75 22.66,24.36 "
       id="polygon252"
       transform="matrix(0.67911705,0,0,0.67911707,4.6182741e-6,4.6182742e-6)" />
    <rect
       x="16.1562"
       y="14.234298"
       width="7.694396"
       height="1.5415957"
       id="rect254"
       style="stroke-width:0.679117;fill:#ffffff" />
    <polygon
       style="fill:#ffffff"
       points="20.39,19.83 20.39,17.56 21.52,16.43 20.39,15.3 20.39,11.9 38.51,11.9 38.51,15.3 37.38,16.43 38.51,17.56 38.51,19.83 "
       id="polygon256"
       transform="matrix(0.67911705,0,0,0.67911707,4.6182741e-6,4.6182742e-6)" />
    <polygon
       style="fill:#ffffff"
       points="31.72,34.08 31.72,34.55 31.71,36.34 31.71,36.35 27.19,40.87 27.19,38.61 27.19,38.6 "
       id="polygon258"
       transform="matrix(0.67911705,0,0,0.67911707,4.6182741e-6,4.6182742e-6)" />
    <polygon
       style="fill:#ffffff"
       points="27.19,35.21 31.25,31.15 31.72,31.15 31.72,32.95 27.19,37.47 "
       id="polygon260"
       transform="matrix(0.67911705,0,0,0.67911707,4.6182741e-6,4.6182742e-6)" />
    <polygon
       style="fill:#ffffff"
       points="30.13,31.15 27.19,34.09 27.19,31.15 "
       id="polygon262"
       transform="matrix(0.67911705,0,0,0.67911707,4.6182741e-6,4.6182742e-6)" />
    <path
       d="M 20.000002,4.7125653 A 15.64191,15.293061 0 0 0 4.3638445,20.000002 15.636156,15.287437 0 0 0 20.000002,35.287438 15.636156,15.287437 0 0 0 35.636158,20.000002 15.64191,15.293061 0 0 0 20.000002,4.7125653 m 0,-1.2711409 A 16.930541,16.552953 0 0 1 36.942048,20.000002 16.942046,16.564202 0 0 1 20.000002,36.564204 16.942046,16.564202 0 0 1 3.057955,20.000002 16.930541,16.552953 0 0 1 20.000002,3.4357999"
       id="path264"
       style="stroke-width:0.56883;fill:#ffffff" />
  </g>
</svg>
