<svg xmlns="http://www.w3.org/2000/svg" viewBox="0 0 300 300">
  <path d="M85.7 181.2L3.6 263.4v24h214l78.8-78.8v-27.3H85.7zm123.9 98.2h-198v-8h198v8zm11.7-7l-3.7 3.7v-4.7l3.7-3.7v4.7zm6.1-6.1l-4.2 4.2v-4.7l4.2-4.2v4.7zm6.2-6.2l-4.2 4.2v-4.7l4.2-4.2v4.7zm6.2-6.2l-4.2 4.2v-4.7l4.2-4.2v4.7zm6.1-6.1l-4.2 4.2v-4.7l4.2-4.2v4.7zm6.2-6.2l-4.2 4.2v-4.7l4.2-4.2v4.7zm6.2-6.2l-4.2 4.2v-4.7l4.2-4.2v4.7zm6.1-6.1l-4.2 4.2v-4.7l4.2-4.2v4.7zm6.2-6.2l-4.2 4.2v-4.7l4.2-4.2v4.7zm6.2-6.2l-4.2 4.2v-4.7l4.2-4.2v4.7zm6.1-6.1l-4.2 4.2v-4.7l4.2-4.2v4.7zm5.5-5.5l-3.5 3.5v-4.7l3.5-3.5v4.7zm-74.1 58.1H14.9L89 189.2h199.4l-74.1 74.2z"/>
  <path fill="none" stroke="#000" stroke-width="4" stroke-miterlimit="10" d="M116.3 279.4v-16l32.7-32.7m4.1-62.8v44m27.7 15h15.6M177.2 213l13.5-7.9m-23.5-2.3l7.8-13.6m-52.6 37.7h-15.7m19.2-13.9l-13.5-7.9m23.5-2.3l-7.8-13.6"/>
  <path fill="none" stroke="#000" stroke-width="4" stroke-miterlimit="10" d="M168.8 226.9c0-8.3-7.5-15-16.7-15s-16.7 6.7-16.7 15c0 3 7.5 4.8 16.7 4.8s16.7-2.8 16.7-4.8z"/>
  <path d="M194.7 34.7zm0 0v-.2c-.4-6.8-10.1-14.8-36.5-14.8-2 0-4 .1-6 .2-10.5.5-20.3 2.5-27.7 5.4-10.9 4.4-13.1 9.6-13 13.4v97.5c0 5.7 8.1 9.7 18.2 12.1l11.7 21.2c4.5 3 17.1 3 21.7 0l11.6-20.9c10.6-2.4 20-6.5 20-12.4V34.7zm-8 .2c0 1.2-2.2 3.2-6.6 5.1l-11.8-11.8c12.5 1.4 18.3 5.1 18.4 6.7zm-21.5-7l12.9 12.9c-2.5 1-5.7 1.9-9.3 2.7l-15.7-15.7c1.7-.1 3.4-.1 5.1-.1 2.5 0 4.8.1 7 .2zm-24.3 17.4L128 32.4c2.5-1 5.7-1.9 9.3-2.7L153 45.4c-1.7.1-3.4.1-5.1.1-2.4.1-4.8 0-7-.2zm14.8 0l-16-16c3.2-.6 6.7-1.1 10.7-1.3l16 16c-3.2.6-6.7 1-10.7 1.3zm-29.6-12L137.8 45c-12.4-1.4-18.2-5.1-18.3-6.7-.1-1 2.2-3 6.6-5zm31.3 129.9c-1.4.3-3.3.5-5.2.5-1.9 0-3.8-.2-5.1-.5l-7.3-13.2c4.8.6 9.6.9 13.9.9 3.2 0 6.9-.2 10.8-.7l-7.1 13zm-3.6-20.3c-18.9 0-32.1-5-34.3-7.4v-87c5.8 3 14.9 5.1 28.5 5.1 2 0 4 0 6-.2 10.5-.5 20.3-2.5 27.7-5.4 1.9-.8 3.6-1.6 5-2.4v.1l-13.5 13.5 1.4 1.4 12.1-12.1v8.7l-13.5 13.5 1.4 1.4L186.7 60v8.7l-13.5 13.5 1.4 1.4 12.1-12.1v8.7l-13.5 13.5 1.4 1.4L186.7 83v8.7l-13.5 13.5 1.4 1.4 12.1-12.1v8.7l-13.5 13.5 1.4 1.4 12.1-12.1v8.7l-13.5 13.5 1.4 1.4 12.1-12.1v17.8c-2.5 2.5-15.7 7.6-32.9 7.6z"/>
</svg>
