<?xml version="1.0" encoding="UTF-8" standalone="no"?>
<svg
   xmlns:dc="http://purl.org/dc/elements/1.1/"
   xmlns:cc="http://creativecommons.org/ns#"
   xmlns:rdf="http://www.w3.org/1999/02/22-rdf-syntax-ns#"
   xmlns:svg="http://www.w3.org/2000/svg"
   xmlns="http://www.w3.org/2000/svg"
   xmlns:sodipodi="http://sodipodi.sourceforge.net/DTD/sodipodi-0.dtd"
   xmlns:inkscape="http://www.inkscape.org/namespaces/inkscape"
   inkscape:version="1.0 (1.0+r73+1)"
   height="40"
   width="40"
   sodipodi:docname="cutting-machines.svg"
   id="svg236"
   version="1.1"
   viewBox="0 0 40 40">
  <metadata
     id="metadata242">
    <rdf:RDF>
      <cc:Work
         rdf:about="">
        <dc:format>image/svg+xml</dc:format>
        <dc:type
           rdf:resource="http://purl.org/dc/dcmitype/StillImage" />
        <dc:title></dc:title>
      </cc:Work>
    </rdf:RDF>
  </metadata>
  <defs
     id="defs240" />
  <sodipodi:namedview
     inkscape:current-layer="svg236"
     inkscape:window-maximized="1"
     inkscape:window-y="0"
     inkscape:window-x="0"
     inkscape:cy="14.184046"
     inkscape:cx="5.3855294"
     inkscape:zoom="12.749662"
     showgrid="false"
     id="namedview238"
     inkscape:window-height="980"
     inkscape:window-width="1918"
     inkscape:pageshadow="2"
     inkscape:pageopacity="0"
     guidetolerance="10"
     gridtolerance="10"
     objecttolerance="10"
     borderopacity="1"
     bordercolor="#666666"
     pagecolor="#ffffff" />
  <path
     style="stroke-width:0.134241;fill:#ffffff"
     id="path228"
     d="M 11.368283,23.711773 0.34707011,34.74641 v 3.221792 H 29.074714 L 39.65293,27.389985 V 23.725197 H 11.368283 Z m 16.6325,13.182497 H 1.4210007 V 35.82034 H 28.000783 Z m 1.570623,-0.939689 -0.496692,0.496693 V 35.82034 l 0.496692,-0.496693 z m 0.818873,-0.818871 -0.563814,0.563813 v -0.630935 l 0.563814,-0.563813 z m 0.832296,-0.832297 -0.563814,0.563814 v -0.630934 l 0.563814,-0.563815 z m 0.832295,-0.832296 -0.563813,0.563813 v -0.630934 l 0.563813,-0.563813 z m 0.818873,-0.818872 -0.563814,0.563813 v -0.630934 l 0.563814,-0.563813 z m 0.832296,-0.832297 -0.563813,0.563815 v -0.630935 l 0.563813,-0.563814 z m 0.832297,-0.832295 -0.563814,0.563813 v -0.630935 l 0.563814,-0.563813 z m 0.818872,-0.818873 -0.563814,0.563814 V 30.10166 l 0.563814,-0.563814 z m 0.832295,-0.832296 -0.563813,0.563813 V 29.269364 L 36.189503,28.70555 Z M 37.0218,28.504188 36.457986,29.068001 V 28.437067 L 37.0218,27.873254 Z m 0.818872,-0.818873 -0.563813,0.563815 v -0.630935 l 0.563813,-0.563814 z m 0.738327,-0.738326 -0.469845,0.469844 v -0.630934 l 0.469845,-0.469844 z M 28.631717,34.74641 H 1.8639971 L 11.81128,24.785703 h 26.767719 z" />
  <path
     style="stroke:#ffffff"
     id="path230"
     d="m 15.476068,36.89427 v -2.14786 l 4.389691,-4.389692 m 0.550389,-8.430355 v 5.906618 m 3.718484,2.01362 h 2.094166 m -2.577434,-1.865954 1.812258,-1.060507 m -3.154672,-0.308755 1.047083,-1.825682 m -7.061094,5.060898 h -2.107588 m 2.577433,-1.865954 -1.812258,-1.060507 m 3.154671,-0.308755 -1.047082,-1.825682"
     stroke-miterlimit="10"
     stroke-width="0.536965"
     stroke="#000000"
     fill="none" />
  <path
     style="stroke:#ffffff"
     id="path232"
     d="m 22.523737,29.846601 c 0,-1.114203 -1.00681,-2.01362 -2.24183,-2.01362 -1.235021,0 -2.24183,0.899417 -2.24183,2.01362 0,0.402724 1.006809,0.644359 2.24183,0.644359 1.23502,0 2.24183,-0.375876 2.24183,-0.644359 z"
     stroke-miterlimit="10"
     stroke-width="0.536965"
     stroke="#000000"
     fill="none" />
  <path
     style="stroke-width:0.134241;fill:#ffffff"
     id="path234"
     d="m 26.000587,4.0454186 z m 0,0 V 4.0185706 C 25.946897,3.1057296 24.644749,2.031799 21.100779,2.031799 c -0.268483,0 -0.536965,0.013424 -0.805448,0.026848 -1.409534,0.06712 -2.725099,0.3356033 -3.718485,0.7249032 -1.46323,0.5906618 -1.758561,1.2887167 -1.745137,1.7988337 V 17.670913 c 0,0.765176 1.087355,1.302141 2.443192,1.62432 l 1.570624,2.845917 c 0.604085,0.402723 2.295526,0.402723 2.913036,0 l 1.5572,-2.805645 c 1.422958,-0.322178 2.684826,-0.872568 2.684826,-1.664592 z m -1.07393,0.026848 c 0,0.1610895 -0.295332,0.4295722 -0.885993,0.6846308 L 22.456617,3.17285 c 1.678015,0.1879378 2.456615,0.6846308 2.47004,0.8994166 z m -2.886189,-0.939689 1.731714,1.7317131 C 23.436578,4.9985321 23.007006,5.1193492 22.523737,5.2267423 L 20.416148,3.1191535 c 0.228211,-0.013424 0.45642,-0.013424 0.684631,-0.013424 0.335603,0 0.644358,0.013424 0.939689,0.026848 z M 18.778404,5.4683767 17.046691,3.7366635 C 17.382294,3.6024223 17.811867,3.4816051 18.295136,3.374212 l 2.107588,2.1075888 c -0.22821,0.013424 -0.456421,0.013424 -0.684631,0.013424 -0.322179,0.013424 -0.644359,0 -0.939689,-0.026848 z m 1.986772,0 -2.147862,-2.1478613 C 19.046886,3.2399708 19.516731,3.17285 20.053696,3.1460018 l 2.147862,2.1478611 c -0.429573,0.080545 -0.899417,0.1342414 -1.436382,0.1745138 z M 16.791632,3.8574808 18.362256,5.4281043 C 16.697663,5.2401664 15.919064,4.7434735 15.90564,4.5286874 15.892215,4.3944461 16.20097,4.1259634 16.791632,3.8574808 Z m 4.201754,17.4379482 c -0.187938,0.04027 -0.442996,0.06713 -0.698055,0.06713 -0.255059,0 -0.510117,-0.02685 -0.68463,-0.06713 l -0.979963,-1.771986 c 0.644359,0.08055 1.288717,0.120817 1.865954,0.120817 0.429573,0 0.926266,-0.02685 1.449808,-0.09397 z M 20.510117,18.57033 c -2.537161,0 -4.309147,-0.671207 -4.604477,-0.993386 V 5.8979489 c 0.778599,0.402724 2.000195,0.6846308 3.825878,0.6846308 0.268482,0 0.536965,0 0.805448,-0.026848 1.409534,-0.06712 2.725098,-0.3356032 3.718484,-0.724903 0.255058,-0.1073932 0.483269,-0.2147862 0.671207,-0.3221792 v 0.013424 l -1.812258,1.8122578 0.187937,0.1879379 1.624321,-1.62432 v 1.1678995 l -1.812258,1.8122579 0.187937,0.1879379 1.624321,-1.6243201 V 8.609624 l -1.812258,1.812257 0.187937,0.187939 1.624321,-1.6243203 v 1.1678993 l -1.812258,1.812258 0.187937,0.187938 1.624321,-1.624321 v 1.1679 l -1.812258,1.812258 0.187937,0.187938 1.624321,-1.62432 v 1.167899 l -1.812258,1.812258 0.187937,0.187938 1.624321,-1.62432 v 1.1679 l -1.812258,1.812258 0.187937,0.187937 1.624321,-1.62432 v 2.389496 c -0.335604,0.335603 -2.10759,1.020234 -4.41654,1.020234 z" />
</svg>
