<?xml version="1.0" encoding="UTF-8"?>
<svg enable-background="new 0 0 301.219 301.219" version="1.1" viewBox="0 0 301.22 301.22" xml:space="preserve" xmlns="http://www.w3.org/2000/svg">
<path d="m298.29 216.88-7.07-7.071c-1.875-1.875-4.419-2.929-7.071-2.929s-5.195 1.054-7.071 2.929l-34.394 34.393v-225.46c0-5.523-4.477-10-10-10h-10c-5.522 0-10 4.477-10 10v225.46l-34.394-34.393c-1.876-1.876-4.419-2.929-7.071-2.929s-5.196 1.054-7.071 2.929l-7.07 7.071c-3.905 3.905-3.905 10.237 0 14.142l63.535 63.536c1.876 1.875 4.419 2.929 7.071 2.929s5.195-1.054 7.071-2.929l63.535-63.536c3.905-3.905 3.905-10.236 0-14.141zm-288.29-183.14h64.244c5.522 0 10-4.477 10-10v-10c0-5.523-4.478-10-10-10h-64.244c-5.523 0-10 4.477-10 10v10c0 5.523 4.477 10 10 10zm0 63h83.025c5.522 0 10-4.477 10-10v-10c0-5.523-4.478-10-10-10h-83.025c-5.523 0-10 4.477-10 10v10c0 5.523 4.477 10 10 10zm0 70h101.8c5.522 0 10-4.477 10-10v-10c0-5.523-4.478-10-10-10h-101.8c-5.523 0-10 4.477-10 10v10c0 5.523 4.477 10 10 10zm0 63h120.59c5.522 0 10-4.477 10-10v-10c0-5.523-4.478-10-10-10h-120.59c-5.523 0-10 4.477-10 10v10c0 5.523 4.477 10 10 10zm139.36 33h-139.36c-5.523 0-10 4.477-10 10v10c0 5.523 4.477 10 10 10h139.36c5.522 0 10-4.477 10-10v-10c0-5.523-4.477-10-10-10z"/>















</svg>
