<svg xmlns="http://www.w3.org/2000/svg" width="40" height="40" viewBox="0 0 33.073 33.073">
  <path d="M7.052 16.462c.083 1.4 3.625 3.502 5.195 3.933.562.154.87.094.68-.289l-.394-2.167 1.3-.002c1.967.025 5.013-.05 6.969.038l-.446 2.32s.094.27.24.376c1.914-.594 3.968-2.498 5.427-3.705-1.765-2.214-4.915-4.46-4.915-4.46a.685.685 0 00-.673-.03l.51 2.635c-2.522.728-5.878.372-8.635.252l.636-2.548a.663.663 0 00-.275-.33c-1.8.86-4.176 2.677-5.62 3.977z" color="#000" fill="#fefefe" stroke="#fefefe" stroke-linejoin="round"/>
</svg>
