<svg xmlns="http://www.w3.org/2000/svg" width="40" height="40" viewBox="0 0 33.073 33.073">
  <path d="M16.463 26.022c1.4-.083 3.501-3.625 3.932-5.195.154-.562.094-.87-.289-.68l-2.167.394-.002-1.3c.025-1.967-.05-5.013.038-6.969l2.32.446s.27-.094.376-.24c-.594-1.914-2.498-3.968-3.705-5.427-2.214 1.765-4.46 4.915-4.46 4.915a.685.685 0 00-.03.673l2.635-.51c.728 2.522.372 5.878.252 8.635l-2.548-.636a.664.664 0 00-.33.275c.86 1.8 2.676 4.175 3.976 5.62z" color="#000" fill="#fefefe" stroke="#fefefe" stroke-linejoin="round"/>
</svg>
