<svg xmlns="http://www.w3.org/2000/svg" fill="none" height="256" width="256">
  <mask fill="#000" height="216" width="160" y="21" x="41" maskUnits="userSpaceOnUse" id="c">
    <path fill="#fff" d="M41 21h160v216H41z"/>
    <path d="M172.709 85.747c2.248-6.016 3.341-12.243 3.469-20.012h.006c-.051-.439-.102-.987-.161-1.614-.148-1.578-.341-3.648-.683-5.69-2.409-14.395-9.579-25.889-21.277-34.574-1.776-1.32-3.613-1.076-4.745.466-1.055 1.443-.716 3.17.921 4.546.539.453 1.095.888 1.65 1.324 1.083.85 2.165 1.699 3.123 2.671 14.246 14.485 18.186 31.389 11.709 50.674-.86 2.558-.355 4.406 1.527 5.067 1.959.688 3.496-.272 4.461-2.858ZM90.541 24.673C76.945 35.412 70.101 49.53 69.57 65.496l-.005-.005c-.211 17.52 7.82 33.775 20.983 43.798 2.714 2.064 4.379 2.192 5.76.443 1.316-1.664.633-3.424-1.881-5.471-14.707-11.999-20.794-27.388-17.542-46.135 2.03-11.715 8.147-21.144 17.542-28.425 2.547-1.97 3.197-3.796 1.887-5.483-1.32-1.698-3.152-1.615-5.772.455Zm63.782 78.061c-6.443-5.283-9.973-5.883-17.714-2.897v-2.464c0-2.178.006-4.356.013-6.533.015-5.023.03-10.045-.036-15.066-.105-7.936-5.893-13.935-13.407-14.074-7.232-.133-13.592 5.722-13.797 13.003-.152 5.238-.109 10.487-.067 15.733V90.457c.011 1.255.021 2.51.028 3.765.011 2.025 1.371 3.446 3.114 3.496 1.72.044 3.08-1.343 3.218-3.368.054-.814.046-1.634.039-2.456v-.001a82.51 82.51 0 0 1-.005-.862c.001-1.618-.003-3.235-.008-4.853-.011-3.505-.022-7.01.035-10.514.067-4.057 2.592-7.015 6.116-7.431 4.801-.566 8.275 2.536 8.28 7.509.019 11.86.017 23.717.016 35.575 0 5.932-.001 11.863.001 17.795l-.001.155v.101l-.001.099v.001c-.005.646-.01 1.3.135 1.914.372 1.576 1.343 2.542 3.063 2.547 1.704.006 2.714-.899 3.086-2.502.155-.666.167-1.371.167-2.059.004-2.127.003-4.254.003-6.382v-.001c-.001-3.547-.002-7.095.019-10.644.011-1.021.061-2.097.372-3.057 1.093-3.402 4.395-5.35 7.974-4.84 3.269.466 5.889 3.241 5.961 6.721.083 3.904.079 7.814.075 11.723v.001c-.002 2.114-.004 4.227.008 6.34 0 .163-.005.333-.011.506-.022.706-.046 1.456.288 1.919.655.91 1.715 2.087 2.631 2.115 1.032.027 2.264-.933 3.097-1.771.415-.415.407-1.334.401-2.103l-.001-.127-.001-.145c.011-2.47.009-4.94.007-7.409v-.003c-.004-3.621-.008-7.241.032-10.863.044-3.896 3.18-6.909 7.048-6.948 4.307-.045 7.331 3.047 7.392 7.736.055 3.909.044 7.819.032 11.728a1592.847 1592.847 0 0 0-.01 5.514c-.003.416-.005.83.017 1.244.122 2.114 1.321 3.346 3.191 3.307 1.826-.033 3.086-1.343 3.097-3.418.019-3.149.016-6.298.014-9.448-.003-3.149-.006-6.299.014-9.449.022-3.257 1.981-5.86 5.022-6.87 2.914-.96 6.304-.105 7.886 2.547.971 1.626 1.554 3.735 1.559 5.633.1 24.369.111 48.731.05 73.1-.005 2.057.016 3.715.033 5.085.041 3.314.061 4.94-.35 6.448-.395 1.453-1.189 2.797-2.749 5.434v.001l-.001.002-.001.001c-.699 1.183-1.552 2.626-2.592 4.456-.522.921-.933 2.053-.944 3.091-.079 6.723-.058 13.45-.036 20.173v.004l.003 1.006c.011 2.264 1.204 3.58 3.119 3.574 1.903-.005 3.113-1.354 3.124-3.585.007-1.154.032-2.309.057-3.465v-.005c.065-2.934.129-5.869-.118-8.778-.494-5.833.838-10.922 4.157-15.772 1.41-2.065 2.425-4.862 2.442-7.331.166-28.52.139-57.039.083-85.559-.011-6.165-5.333-11.81-11.443-12.603-4.962-.644-9.068.977-12.498 4.606-2.869-3.047-6.249-4.75-10.35-4.761-4.157-.012-7.609 1.659-10.378 4.689Zm-26.982 128.258c-.028 1.892.305 3.535 1.898 4.728h2.491c1.588-1.055 2.098-2.525 2.07-4.418a491.466 491.466 0 0 1 0-16.604c.034-1.981-.654-3.391-2.097-4.695-1.607-1.452-3.179-2.946-4.75-4.439-2.495-2.371-4.989-4.741-7.62-6.943-6.416-5.372-11.649-11.544-14.729-19.402-.084-.215-.204-.418-.323-.62v-.001l-.048-.082-.018-.03c-1.004-1.72-2.819-2.375-4.373-1.587-1.576.799-2.153 2.653-1.276 4.451.506 1.032 1.043 2.048 1.579 3.064.722 1.367 1.443 2.733 2.089 4.134 1.715 3.707 4.173 6.759 7.215 9.49 5.66 5.083 11.193 10.317 16.698 15.572.655.616 1.138 1.743 1.16 2.642.117 4.911.1 9.828.034 14.74Zm-18.009-94.35v3.964c-1.467-1.36-2.887-2.688-4.279-3.988l-.002-.002-.001-.001c-2.991-2.796-5.848-5.466-8.76-8.075-4.234-3.796-10.355-4.001-14.672-.655-4.307 3.335-5.728 9.19-3.214 14.174 3.78 7.498 7.641 14.957 11.502 22.417l2.228 4.304c1.055 2.032 2.692 2.675 4.412 1.871 1.748-.822 2.242-2.67 1.204-4.768-.923-1.855-1.875-3.696-2.827-5.537l-.002-.003-1.139-2.207c-.887-1.727-1.777-3.453-2.666-5.179l-.001-.003-.002-.003-.002-.003-.001-.003-.002-.003-.001-.003-.006-.01-.001-.003-.002-.004a1901.388 1901.388 0 0 1-6.867-13.41c-1.315-2.598-.732-5.101 1.377-6.666 2.009-1.492 4.478-1.298 6.643.533.33.28.644.582.96.884v.001c.134.129.269.258.405.386 1.397 1.302 2.796 2.602 4.195 3.903l.003.003.003.002.002.003.003.002.002.002.003.003.001.001v.001h.001v.001h.001c4.018 3.736 8.038 7.473 12.03 11.235 1.171 1.105 2.442 1.637 3.945 1.038 1.577-.633 1.937-2.042 1.921-3.591v-.621c0-12.465 0-24.924-.006-37.383 0-.688-.028-1.387-.15-2.064-.277-1.482-1.248-2.275-2.714-2.425-1.47-.15-2.613.466-3.152 1.837-.294.743-.355 1.615-.355 2.425-.021 7.158-.02 14.317-.018 21.475v.007l.001 6.138ZM97.046 67.089c.01 5.644 1.781 10.683 5.011 15.3.671.955 1.015 2.481.799 3.602-.155.794-1.493 1.854-2.342 1.887-1.049.044-2.47-.577-3.141-1.393-3.363-4.068-5.372-8.84-6.266-14.018-2.874-16.721 7.692-32.826 24.219-36.772 9.445-2.259 18.225-.466 26.194 5.117 2.259 1.581 2.747 3.307 1.488 5.022-1.194 1.615-2.908 1.67-5.106.166-11.183-7.658-25.573-6.06-34.369 3.863-4.345 4.9-6.504 10.672-6.493 17.232l.005-.006ZM155 66.933c.011 6.91-2.003 13.175-6.021 18.791-1.537 2.148-3.224 2.653-4.878 1.51-1.632-1.132-1.776-2.991-.355-5.072 5.566-8.17 6.493-16.805 2.591-25.923-.971-2.275-.516-4.007 1.227-4.817 1.815-.843 3.513 0 4.578 2.27 1.904 4.068 2.847 8.452 2.853 13.241H155Zm-98.744-20.45c.188-.267.371-.527.56-.743-.126-.368-.213-.693-.29-.98-.138-.518-.242-.906-.481-1.174l-.243-.271c-2.356-2.63-4.716-5.264-7.216-7.754-1.238-1.226-2.808-1.082-4.085.14-1.276 1.22-1.47 2.802-.36 4.095 2.33 2.72 4.767 5.366 7.375 7.814.655.616 2.27.743 3.191.405.635-.234 1.106-.903 1.55-1.532Zm-2.492 30.612c.23.179.499.347.773.518.629.393 1.281.8 1.524 1.38.389.927.45 2.536-.11 3.219-2.31 2.819-4.829 5.483-7.443 8.024-1.232 1.2-2.852.988-4.084-.255-1.154-1.16-1.388-2.708-.333-3.934 2.375-2.77 4.911-5.4 7.459-8.02.28-.287.715-.427 1.265-.603.288-.093.608-.195.954-.335l-.005.006Zm-5.74-12.275c.433-.009.866-.017 1.3-.017l-.005-.006c.442-.002.885.007 1.329.015.937.018 1.875.036 2.805-.043 1.97-.166 3.102-1.432 3.075-3.213-.028-1.76-1.227-3.058-3.17-3.124a126.145 126.145 0 0 0-8.069-.006c-1.959.055-3.207 1.293-3.285 3.025-.083 1.859 1.099 3.174 3.18 3.335.944.072 1.891.053 2.84.034Z" clip-rule="evenodd" fill-rule="evenodd"/>
  </mask>
  <path style="fill:#8657e2;fill-opacity:.22695037;filter:url(#a)" d="M224 68.5c1.514 39.882-42.058 71.937-79.674 58.753-38.524-10.347-56.34-61.426-32.584-93.479 21.27-33.758 75.328-35.672 98.933-3.503 8.583 10.76 13.36 24.467 13.325 38.229Z" transform="translate(-16.975 18.615)"/>
  <g style="filter:url(#b)" transform="translate(-16.975 18.615)">
    <circle style="fill:#fff;fill-opacity:.15" cx="98" cy="171" r="15"/>
  </g>
  <path d="M176.178 65.735v-1h-.984l-.016.983zm-3.469 20.012-.936-.35zm3.475-20.012v1h1.121l-.128-1.115zm-.161-1.614.996-.093-.001-.01-.001-.009zm0 0 .994-.112-.002-.018-.003-.017zm0 0-.996.092.003.027.004.027zm-.683-5.69-.986.166zm-21.277-34.574-.597.803h.001zm-4.745.466-.807-.591-.001.001zm.921 4.546-.644.765h.001zm1.65 1.324.64-.768-.011-.01-.012-.009zm0 0-.64.768.011.01.011.009zm3.123 2.671.713-.7-.001-.001zm11.709 50.674.948.319zm1.527 5.067.331-.944zM69.569 65.496l-.707.707 1.63 1.63.077-2.303zm20.972-40.823.62.785zM69.564 65.491l.707-.707-1.679-1.68-.028 2.375zm20.983 43.798-.606.795zm5.76.443.785.621v-.001zm-1.881-5.471-.632.774v.001zM76.884 58.126l.985.171zm17.542-28.425-.612-.79zm1.887-5.483.79-.613zm40.296 75.62h-1v1.457l1.359-.525zm17.714 2.896-.634.773.733.601.639-.699zM136.622 90.84l-1-.003zm-.036-15.066 1-.013zM123.179 61.7l.018-1zm-13.797 13.003 1 .029v-.001zm-.067 15.733h1v-.008zm0 0h-1v.01zm0 .008 1-.01zm0 .012 1-.008zm.028 3.765 1-.006zm3.114 3.496-.029 1h.003zm3.218-3.368.998.068v-.003Zm.039-2.456 1-.009v-.002zm0-.001-1 .009v.003zm-.005-.862-1-.001zm-.008-4.853 1-.003zm.035-10.514-.999-.017zm6.116-7.431-.117-.993zm8.28 7.509h-1v.001zm.016 35.575h-1zm.001 17.795h1zm-.001.155 1 .007v-.001zm0 .101 1 .007v-.001zm-.001.099-1-.008v.008zm0 .001 1 .008v-.008zm.135 1.914.973-.229v-.001zm3.063 2.547.004-1zm3.086-2.502-.974-.228v.002zm.167-2.059-1-.002v.002zm.003-6.382h-1zm0-.001h1zm.019-10.644-1-.01v.005zm.372-3.057.951.308.001-.002zm7.974-4.84-.141.99zm5.961 6.721-1 .021zm.075 11.723-1-.001v.001zm0 .001 1 .001v-.001zm.008 6.34h1v-.006zm-.011.506 1 .032zm.288 1.919.812-.584v-.001zm2.631 2.115-.03.999h.003zm3.097-1.771-.707-.707-.003.002zm.401-2.103-1 .008v.001zm-.001-.127-1 .007v.001zm-.001-.145-1-.005v.005zm.007-7.409h-1v.001zm0-.003h1v-.001zm.032-10.863-1-.011zm7.048-6.948.01 1zm7.392 7.736-1 .013v.001zm.032 11.728 1 .003zm-.01 4.888h-1v.008zm0 .626-1-.006v.006zm0 0 1 .006v-.006zm.017 1.244-.999.053.001.005zm3.191 3.307-.018-.999h-.003zm3.097-3.418-1-.006v.001zm.014-9.448-1 .001zm.014-9.449-1-.006zm5.022-6.87-.313-.95-.002.001zm7.886 2.547-.859.512v.001zm1.559 5.633-1 .003v.001zm.05 73.1-1-.003v.001zm.033 5.085h1v-.013zm0 0h-1v.013zm-.35 6.448-.965-.262zm-2.749 5.434.854.522.003-.006.004-.007zm0 .001-.854-.521-.004.007zm-.001.002-.858-.514-.004.007-.004.007zm-.001.001.861.509.005-.009zm-2.592 4.456-.87-.494v.001zm-.944 3.091 1 .012v-.001zm-.036 20.173h1v-.003zm0 .004h-1v.003zm.003 1.006-1 .003v.002zm3.119 3.574.003 1zm3.124-3.585-1-.005zm.057-3.465 1 .022v-.022zm0-.005-.999-.022-.001.011v.011zm-.118-8.778-.996.084v.001zm4.157-15.772.825.565.001-.001zm2.442-7.331 1 .007v-.001zm.083-85.559-1 .002zM187.549 98.2l.129-.992h-.001zm-12.498 4.606-.728.686.727.771.728-.77zm-10.35-4.762.003-1zM129.239 235.72l-.6.8.267.2h.333zm-1.898-4.728 1 .014v-.001zm4.389 4.728v1h.302l.252-.167zm2.07-4.418 1-.014v-.002zm0-16.604 1 .018v-.001zm-2.097-4.695-.671.742zm-4.75-4.439-.689.725zm-7.62-6.943-.642.766zm-14.729-19.402-.931.364v.001zm-.323-.62-.876.482.007.013.008.012zm0 0 .876-.482-.007-.013-.007-.013zm0-.001-.862.507v.001zm-.048-.082-.864.504.001.003zm-.018-.03.864-.503v-.001zm-4.373-1.587.452.892h.001zm-1.276 4.451-.899.438.001.003zm1.579 3.064.884-.467zm2.089 4.134-.908.419.001.001zm7.215 9.49.668-.744zm16.698 15.572-.69.723.005.005zm1.16 2.642 1-.024v-.001zm-17.975-75.646-.679.734 1.679 1.557v-2.291zm-4.279-3.988-.707.707.012.012.013.012zm0 0 .707-.707-.01-.011-.012-.01zm-.002-.002.685-.728-.004-.004zm-.001-.001-.683.731.003.002zm-8.76-8.075-.667.745zm-14.672-.655.612.791zm-3.214 14.174.893-.45v-.001zm11.503 22.417.888-.46zm2.227 4.304-.888.46v.001zm4.412 1.871.424.905h.001zm1.204-4.768.897-.443-.001-.002zm-2.827-5.537-.889.459v.001zm-.002-.003.889-.458v-.002zm-1.139-2.207-.889.457zm-2.666-5.179-.889.458zm-.01-.018.89-.458v-.001zm-.005-.01.889-.459v-.002zm-.001-.003-.89.457.002.003zm-.002-.004.89-.457-.001-.001zm-6.866-13.41.892-.451v-.001zm1.376-6.666.596.804v-.001zm6.643.533.646-.763zm.96.884-.693.722zm0 .001.692-.721v-.001zm.405.386-.685.729.003.003zm4.195 3.903.681-.732zm.016.015.689-.725-.008-.007zm.003.003-.689.725.01.009.01.009zm0 0 .681-.732-.006-.006-.006-.005zm12.03 11.235.686-.727v-.001zm3.945 1.038.371.929.002-.001zm1.921-3.591h-1v.011zm-.006-38.004h-1v.001zm-.15-2.064.984-.177-.001-.007zm-2.714-2.425.102-.995zm-3.152 1.837.93.368.001-.003zm-.355 2.425 1 .003v-.003zm-.018 21.475h1zm0 .007h-1zm-7.274-48.114-.82.573.002.002zm-5.011-15.3 1-.003-.005-2.407-1.703 1.702zm5.81 18.901.981.192.001-.002zm-2.342 1.887-.039-1h-.003zm-3.141-1.393.772-.635-.001-.002zm-6.266-14.018-.985.17zm24.219-36.772.232.973h.001zm26.194 5.117-.573.819zm1.488 5.022.804.594.002-.002zm-5.106.167-.565.825zm-34.369 3.862.748.664zM97.04 67.095l-1 .001.004 2.409 1.703-1.703zm51.939 18.63.813.581zM155 66.932l1-.001-.001-.999H155Zm-10.899 20.3-.57.823h.001zm-.355-5.071.826.563zm2.591-25.923-.919.393zm1.227-4.817-.422-.907zm4.578 2.27.906-.424-.001-.001zm2.853 13.241-1 .001.001 1h.999zM56.816 45.74l.754.657.38-.436-.188-.546zm-.56.744-.817-.576zm.27-1.722-.966.258zm-.481-1.175.745-.666v-.001zm-.243-.271-.76.65.008.009.007.008zm0 0 .759-.65-.007-.01-.008-.007zm-7.216-7.754.706-.708-.002-.002zm-4.085.14-.69-.723zm-.36 4.095.759-.651zm7.375 7.814.685-.729zm3.191.405.345.938zm-.17 29.598-.53.849zm-.773-.518-.707-.707-.8.8.892.696zm2.297 1.898.923-.387zm-.11 3.219-.773-.635-.001.001zm-7.443 8.024-.697-.717zm-4.084-.255.71-.704-.001-.001zm-.333-3.934.758.651zm7.459-8.02-.717-.698v.001zm1.265-.603-.306-.952zm.954-.335.707.708-1.08-1.635zm-4.445-12.287v1h2.414l-1.707-1.707zm-1.3.018.02 1zm1.295-.023-.005-1-2.4.01 1.697 1.697zm1.329.015-.02 1zm2.805-.043-.084-.996zm3.074-3.213 1-.016zm-3.168-3.124-.035.999zm-8.07-.006.029 1zm-3.285 3.025-.999-.045zm3.18 3.335-.077.997zm129.994.932c-.126 7.677-1.204 13.788-3.405 19.679l1.873.7c2.294-6.14 3.403-12.483 3.532-20.346zm1.006-.983h-.006v2h.006zm-1.157-.52c.059.622.111 1.183.163 1.634l1.987-.229c-.049-.425-.099-.962-.158-1.592zm.002.017v.001l1.988-.224zm.005.035 1.978-.293zm-.68-5.67c.334 2 .525 4.035.673 5.616l1.992-.186c-.148-1.574-.344-3.678-.693-5.76zM153.467 24.66c11.495 8.535 18.522 19.802 20.887 33.936l1.972-.33c-2.452-14.656-9.766-26.376-21.667-35.212Zm-3.343.255c.422-.576.924-.85 1.432-.904.519-.056 1.176.103 1.91.649l1.193-1.605c-1.042-.775-2.191-1.154-3.318-1.033-1.137.123-2.12.743-2.83 1.71zm.758 3.188c-.692-.582-1.031-1.17-1.133-1.679-.098-.488.001-.998.376-1.51l-1.615-1.18c-.679.93-.938 2.004-.721 3.084.212 1.06.861 2.021 1.806 2.816zm1.624 1.303a63.727 63.727 0 0 1-1.624-1.303l-1.286 1.531c.554.466 1.123.912 1.675 1.345zm.023.019-1.281 1.536h.001zm3.195 2.738c-1.01-1.026-2.143-1.914-3.218-2.757l-1.235 1.573c1.093.858 2.123 1.668 3.028 2.587zm11.945 51.693c3.287-9.787 3.947-19.024 1.943-27.68-2.005-8.657-6.658-16.662-13.887-24.013l-1.426 1.403c7.016 7.133 11.456 14.822 13.364 23.06 1.908 8.239 1.3 17.096-1.89 26.594zm.91 3.805c-.656-.23-1.006-.623-1.163-1.16-.174-.593-.142-1.47.253-2.644l-1.895-.638c-.466 1.384-.611 2.71-.277 3.846.35 1.192 1.194 2.053 2.419 2.483zm3.194-2.264c-.445 1.19-.966 1.85-1.459 2.163-.446.284-.991.363-1.735.101l-.663 1.887c1.215.427 2.418.37 3.472-.3 1.007-.642 1.737-1.755 2.258-3.151zM70.569 65.53c.522-15.671 7.225-29.515 20.592-40.072l-1.24-1.57C76.095 34.809 69.112 49.201 68.57 65.464Zm-1.713.668.006.005 1.414-1.414-.005-.005zm22.297 42.295c-12.908-9.828-20.797-25.78-20.59-42.99l-2-.024c-.214 17.83 7.958 34.387 21.378 44.605zm4.37.619c-.546.69-1.01.87-1.52.831-.627-.048-1.528-.444-2.85-1.45l-1.212 1.591c1.391 1.058 2.68 1.759 3.909 1.853 1.347.104 2.406-.526 3.242-1.584zm-1.729-4.076c1.21.986 1.838 1.795 2.066 2.438.194.547.13 1.047-.337 1.639l1.569 1.239c.848-1.073 1.1-2.285.653-3.546-.413-1.164-1.384-2.259-2.687-3.321zm-17.896-47.08c-3.316 19.116 2.92 34.862 17.896 47.079l1.264-1.549c-14.438-11.78-20.377-26.812-17.19-45.189ZM93.813 28.91c-9.573 7.418-15.837 17.06-17.915 29.045l1.97.341c1.985-11.446 7.953-20.662 17.17-27.805zm1.71-4.08c.47.607.542 1.135.348 1.695-.223.643-.843 1.446-2.057 2.384l1.224 1.582c1.334-1.031 2.312-2.127 2.723-3.31.44-1.269.18-2.497-.658-3.577zm-4.362.627c1.255-.991 2.173-1.382 2.824-1.428.555-.04 1.041.163 1.539.802l1.578-1.228c-.823-1.059-1.913-1.664-3.259-1.569-1.25.089-2.557.775-3.922 1.854zm45.807 75.312c3.824-1.475 6.436-1.991 8.822-1.599 2.389.393 4.714 1.724 7.899 4.336l1.268-1.546c-3.258-2.672-5.919-4.282-8.842-4.763-2.924-.481-5.948.195-9.866 1.706zm-1.359-.95v.017h2v-.017zm0-2.447v2.447h2v-2.447Zm.013-6.536c-.007 2.177-.013 4.356-.013 6.536h2c0-2.176.006-4.352.013-6.53zm-.035-15.05c.065 5.012.05 10.025.035 15.05l2 .006c.015-5.022.03-10.051-.036-15.082zM123.16 62.7c6.938.128 12.328 5.654 12.427 13.087l1.999-.026c-.112-8.44-6.299-14.911-14.389-15.06ZM110.382 74.73c.189-6.714 6.077-12.155 12.778-12.031l.037-2c-7.761-.143-14.593 6.127-14.814 13.975zm-.067 15.697c-.042-5.249-.085-10.48.067-15.696l-1.999-.058c-.153 5.26-.11 10.528-.068 15.77zm0 .009v-.001h-2zm0-.008v-.002l-2 .019v.002zm0 .003v-.003l-2 .02v.002zm0 .002v-.002l-2 .019v.002zm0 .003v-.002l-2 .018v.002zm0 .003v-.003l-2 .018v.003zm0 .002v-.002l-2 .018v.002zm0 .003v-.003l-2 .018v.003zm0 .002v-.002l-2 .018v.002zm.028 3.768a1180.46 1180.46 0 0 0-.028-3.767l-2 .016c.011 1.256.021 2.51.028 3.763zm2.142 2.502c-1.139-.032-2.133-.948-2.142-2.502l-2 .011c.014 2.498 1.739 4.423 4.085 4.49zm2.193-2.437c-.111 1.617-1.128 2.465-2.196 2.437l-.051 2c2.374.061 4.075-1.866 4.242-4.3zm.036-2.377c.007.827.014 1.61-.036 2.38l1.995.131c.057-.857.048-1.715.041-2.53zm0 0v.002l2-.023v-.002zm-.005-.873c0 .292.002.584.005.87l2-.018c-.003-.287-.005-.57-.005-.852zm-.008-4.85c.005 1.618.009 3.234.008 4.849l2 .002c.001-1.62-.003-3.24-.008-4.857zm.036-10.533c-.058 3.516-.047 7.03-.036 10.533l2-.006c-.011-3.506-.021-7.001.035-10.495zm6.998-8.408c-4.092.483-6.925 3.924-6.998 8.407l1.999.033c.06-3.63 2.277-6.105 5.233-6.454zm9.397 8.5c-.003-2.723-.961-5.028-2.672-6.572-1.712-1.546-4.08-2.24-6.725-1.928l.234 1.986c2.155-.254 3.925.32 5.151 1.427 1.228 1.108 2.01 2.84 2.012 5.09zm.016 35.578c.001-11.859.003-23.717-.016-35.578l-2 .003c.019 11.86.017 23.716.016 35.574zm.001 17.794c-.002-5.932-.001-11.863-.001-17.794l-2-.001c0 5.932-.001 11.863.001 17.796zm-.001.161.001-.161h-2l-.001.15zm0 .101v-.1l-2-.013v.1zm-.001.101.001-.1-2-.015-.001.099zm0-.007v-.001h-2v.001zm0 0h-2zm.108 1.684c-.112-.476-.113-1.006-.108-1.676l-2-.016c-.005.623-.016 1.4.162 2.152zm2.094 1.777c-.665-.002-1.092-.184-1.384-.438-.304-.264-.557-.69-.71-1.338l-1.946.459c.219.928.637 1.773 1.342 2.387.717.624 1.635.927 2.691.93zm2.108-1.728c-.151.65-.407 1.061-.709 1.312-.295.245-.73.419-1.399.416l-.007 2c1.035.004 1.957-.272 2.685-.879.723-.601 1.157-1.444 1.378-2.398zm.141-1.833c0 .694-.015 1.291-.141 1.831l1.948.455c.185-.792.193-1.604.193-2.286zm.003-6.382c0 2.128.001 4.255-.003 6.38l2 .004c.004-2.128.003-4.256.003-6.384zm0 0h2zm0 0h2zm0 0h2zm0 0h2zm0-.001v.001h2v-.001zm0 0h2zm0 0h2zm0 0h2zm.019-10.649c-.021 3.551-.02 7.103-.019 10.649h2c-.001-3.548-.002-7.093.019-10.638zm.42-3.36c-.362 1.118-.409 2.33-.42 3.355l2 .021c.011-1.017.063-1.958.323-2.76zm9.068-5.522c-4.032-.575-7.817 1.629-9.068 5.524l1.904.612c.935-2.91 3.754-4.602 6.881-4.156zm6.818 7.69c-.082-3.986-3.082-7.157-6.818-7.69l-.283 1.98c2.801.4 5.04 2.779 5.102 5.752zm.076 11.745c.004-3.908.008-7.828-.076-11.745l-1.999.042c.082 3.892.079 7.79.075 11.701zm0 0v-.001h-2v.001zm.008 6.334c-.012-2.109-.01-4.219-.008-6.333l-2-.002c-.002 2.113-.004 4.23.008 6.346zm-.011.544c.005-.17.011-.357.011-.538h-2c0 .144-.005.298-.01.474zm.1 1.302c-.017-.023-.068-.12-.094-.382a7.237 7.237 0 0 1-.006-.92l-1.999-.064c-.011.339-.026.771.014 1.181.041.405.145.914.462 1.355zm1.849 1.7c-.086-.003-.351-.093-.778-.473-.387-.345-.767-.804-1.071-1.226l-1.623 1.168c.351.489.828 1.073 1.363 1.551.496.442 1.219.954 2.049.979zm2.357-1.476c-.383.386-.84.781-1.297 1.069-.48.303-.841.413-1.063.407l-.054 1.999c.811.022 1.582-.334 2.184-.714.625-.394 1.2-.899 1.649-1.351zm.111-1.389c.003.4.005.75-.034 1.046-.043.328-.111.377-.074.341l1.414 1.414c.452-.452.588-1.069.643-1.497.06-.459.054-.952.051-1.321zm-.001-.128.001.127 2-.016-.001-.127zm-.001-.153.001.152 2-.014-.001-.138zm.007-7.408c.002 2.47.004 4.936-.007 7.403l2 .01c.011-2.474.009-4.946.007-7.415zm0-.003v.002h2v-.002zm0 0h2zm0 0h2zm0-.001v.001h2v-.001zm0 0h2zm0 0h2zm0 0h2zm0 0h2zm.032-10.874a896.51 896.51 0 0 0-.032 10.875l2-.002c-.004-3.621-.008-7.236.032-10.851zm8.038-7.937c-4.393.044-7.987 3.478-8.038 7.937l2 .022c.038-3.332 2.715-5.926 6.058-5.959zm8.402 8.723c-.033-2.558-.879-4.76-2.383-6.324-1.509-1.568-3.614-2.424-6.019-2.399l.02 2c1.902-.02 3.462.648 4.558 1.786 1.099 1.143 1.797 2.832 1.824 4.963zm.032 11.744c.012-3.908.023-7.826-.032-11.745l-2 .028c.055 3.9.044 7.8.032 11.711zm-.01 4.885c0-1.628.005-3.255.01-4.885l-2-.006a1593.5 1593.5 0 0 0-.01 4.891zm0 .632c.001-.207.002-.423 0-.641l-2 .017c.002.201.001.402 0 .612zm0-.006h-2zm.016 1.19a19.017 19.017 0 0 1-.016-1.184l-2-.012c-.003.411-.006.855.018 1.303zm2.171 2.362c-.699.014-1.183-.203-1.511-.542-.34-.352-.609-.937-.661-1.824l-1.996.116c.071 1.227.462 2.315 1.219 3.098.77.796 1.82 1.176 2.991 1.151zm2.118-2.424c-.005.836-.258 1.427-.603 1.802-.341.371-.844.609-1.512.622l.036 1.999c1.158-.021 2.198-.453 2.946-1.265.744-.807 1.126-1.909 1.133-3.148zm.014-9.442c.002 3.15.005 6.296-.014 9.441l2 .012c.019-3.153.016-6.306.014-9.454zm.014-9.456c-.02 3.154-.017 6.307-.014 9.456l2-.001c-.003-3.151-.006-6.297.014-9.442zm5.707-7.813c-3.438 1.142-5.682 4.116-5.707 7.813l2 .013c.019-2.818 1.692-5.05 4.337-5.928zm9.06 2.984c-1.876-3.146-5.808-4.056-9.058-2.985l.626 1.9c2.577-.85 5.426-.05 6.714 2.109zm1.7 6.142c-.006-2.076-.637-4.361-1.7-6.143l-1.718 1.026c.879 1.471 1.413 3.404 1.418 5.123zm.05 73.105c.061-24.37.05-48.735-.05-73.106l-2 .008c.1 24.366.111 48.727.05 73.093zm.033 5.07c-.017-1.369-.037-3.02-.033-5.07l-2-.004c-.005 2.065.016 3.729.033 5.099zm0 .013h-2zm0 0h-2zm0 0h-2zm-.385 6.711c.456-1.675.425-3.467.385-6.723l-2 .025c.042 3.372.051 4.831-.315 6.173zm-2.853 5.68c1.532-2.591 2.414-4.067 2.853-5.68l-1.93-.525c-.351 1.292-1.058 2.503-2.645 5.187zm-.008.014.001-.001-1.707-1.043v.001zm.003-.005.001-.002-1.715-1.029-.001.002zm.008-.014.001-.001-1.732-1-.001.001zm-2.589 4.45c1.035-1.822 1.885-3.258 2.584-4.441l-1.722-1.018c-.699 1.184-1.556 2.633-2.601 4.471zm-.813 2.608c.009-.81.341-1.773.814-2.609l-1.74-.986c-.57 1.007-1.06 2.308-1.074 3.573zm-.036 20.159c-.022-6.725-.043-13.444.036-20.158l-2-.024c-.079 6.731-.058 13.466-.036 20.188zm0 .003h-2zm0 0h-2zm0 0h-2zm0 0h-2zm0 0h-2zm0 .001v-.001h-2v.001zm0 0h-2zm0 .003v-.003h-2v.003zm.003 1.003-.003-1.006-2 .006.003 1.006zm2.116 2.577c-.715.002-1.2-.234-1.52-.597-.335-.38-.591-1.016-.596-1.982l-2 .01c.006 1.298.353 2.452 1.096 3.295.757.859 1.826 1.278 3.026 1.274zm2.127-2.59c-.004.943-.261 1.582-.603 1.972-.33.375-.822.616-1.524.618l.006 2c1.201-.003 2.266-.44 3.02-1.298.741-.843 1.095-1.994 1.101-3.282zm.058-3.482a211.133 211.133 0 0 0-.058 3.482l2 .011c.007-1.145.032-2.292.057-3.449zm-.001.022h2zm0-.001v.001h2v-.001zm0 0h2zm0-.001v.001h2v-.001zm0-.001v.001h2v-.001zm0 0h2zm0-.001v.001h2v-.001zm0 0h2zm0-.001v.001h2v-.001zm-.114-8.693c.241 2.847.179 5.728.115 8.671l1.999.044c.064-2.925.131-5.913-.121-8.885zm4.328-16.422c-3.45 5.041-4.841 10.36-4.328 16.421l1.993-.168c-.475-5.604.797-10.464 3.985-15.123zm2.267-6.773c-.015 2.236-.949 4.843-2.268 6.774l1.652 1.128c1.5-2.198 2.598-5.185 2.616-7.888zm.083-85.55c.056 28.519.083 57.036-.083 85.551l2 .012c.166-28.524.139-57.047.083-85.567zM187.42 99.192c5.651.734 10.562 5.987 10.572 11.613l2-.004c-.012-6.705-5.745-12.74-12.314-13.593zm-11.642 4.301c3.227-3.415 7.022-4.9 11.642-4.301l.257-1.984c-5.302-.688-9.72 1.067-13.353 4.911zm-11.08-4.449c3.783.01 6.912 1.567 9.625 4.448l1.456-1.371c-3.026-3.213-6.656-5.064-11.075-5.076zm-9.637 4.365c2.597-2.841 5.787-4.375 9.637-4.365l.006-2c-4.463-.011-8.177 1.796-11.119 5.015zM129.838 234.92c-1.21-.907-1.523-2.142-1.497-3.914l-2-.029c-.03 2.013.323 4.064 2.298 5.543zm1.892-.2h-2.491v2h2.491zm1.071-3.403c.012.858-.099 1.544-.346 2.107-.24.548-.632 1.034-1.278 1.463l1.107 1.666c.941-.626 1.598-1.402 2.003-2.326.399-.91.528-1.905.513-2.939zm0-16.637a485.69 485.69 0 0 0 0 16.638l1.999-.032a489.456 489.456 0 0 1 0-16.57zm-1.769-3.935c1.25 1.129 1.797 2.27 1.769 3.936l1.999.034c.039-2.297-.79-3.975-2.427-5.454zm-4.768-4.456a262.862 262.862 0 0 0 4.768 4.456l1.341-1.484c-1.596-1.442-3.158-2.927-4.731-4.422zm-7.573-6.902c2.603 2.18 5.075 4.528 7.573 6.902l1.378-1.45c-2.491-2.367-5.008-4.759-7.668-6.985zm-15.018-19.803c3.159 8.061 8.518 14.361 15.018 19.803l1.284-1.533c-6.332-5.302-11.439-11.344-14.44-19zm-.253-.478c.126.214.202.349.253.477l1.862-.728c-.118-.302-.281-.574-.392-.763zm-.015-.025 1.753-.964h-.001zm.014.025.001.001 1.723-1.016h-.001zm-.049-.083.049.082 1.724-1.013-.048-.083zm-.019-.033.018.03 1.728-1.008-.018-.029zm-3.056-1.199c.985-.499 2.261-.163 3.057 1.2l1.727-1.009c-1.213-2.077-3.566-3.051-5.69-1.975zm-.83 3.121c-.67-1.372-.197-2.6.829-3.121l-.904-1.784c-2.125 1.078-2.808 3.557-1.723 5.781zm1.564 3.035c-.537-1.018-1.067-2.021-1.566-3.038l-1.795.882c.514 1.047 1.057 2.076 1.593 3.09zm2.113 4.182c-.659-1.429-1.393-2.819-2.113-4.182l-1.768.934c.723 1.371 1.432 2.713 2.065 4.086zm6.975 9.165c-2.963-2.66-5.329-5.606-6.975-9.166l-1.815.84c1.783 3.855 4.333 7.013 7.454 9.814zm16.721 15.593c-5.507-5.257-11.049-10.499-16.721-15.593l-1.337 1.488c5.649 5.073 11.173 10.297 16.677 15.551zm1.469 3.34c-.028-1.153-.615-2.537-1.474-3.345l-1.371 1.456c.451.424.83 1.293.846 1.938zm.034 14.778c.066-4.917.083-9.848-.034-14.777l-1.999.047c.116 4.894.099 9.798.033 14.703zm-18.009-90.399v-3.964h-2v3.964zm-5.961-3.257c1.391 1.3 2.812 2.628 4.282 3.991l1.359-1.467c-1.466-1.359-2.884-2.685-4.276-3.985zm-.025-.024 1.415-1.414h-.001zm.02.02.002.001 1.37-1.456-.002-.002zm.004.003.001.001 1.361-1.465-.001-.001zm-8.747-8.063c2.903 2.6 5.752 5.264 8.744 8.061l1.366-1.461c-2.989-2.795-5.854-5.473-8.775-8.09zm-13.393-.609c3.928-3.045 9.511-2.871 13.393.609l1.335-1.49c-4.586-4.111-11.246-4.349-15.953-.7zm-2.933 12.932c-2.294-4.548-1.002-9.885 2.933-12.932l-1.225-1.581c-4.678 3.623-6.227 9.995-3.494 15.414zm11.498 22.408c-3.862-7.46-7.721-14.915-11.498-22.407l-1.786.9c3.783 7.504 7.646 14.968 11.507 22.426zm2.227 4.305-2.227-4.305-1.777.919 2.228 4.305zm3.1 1.424c-.645.302-1.19.301-1.648.111-.478-.199-.999-.663-1.452-1.536l-1.775.921c.6 1.158 1.426 2.032 2.46 2.461 1.053.438 2.188.357 3.263-.146zm.732-3.418c.443.895.508 1.633.37 2.17-.131.513-.475.953-1.103 1.249l.85 1.81c1.12-.526 1.898-1.421 2.19-2.562.287-1.117.08-2.352-.514-3.554zm-2.82-5.521c.953 1.842 1.902 3.676 2.821 5.523l1.79-.891a410.212 410.212 0 0 0-2.834-5.551zm-.002-.005.002.004 1.778-.917-.002-.003zm-1.139-2.208c.379.738.76 1.474 1.14 2.209l1.776-.919c-.38-.735-.76-1.469-1.137-2.204zm-2.666-5.178c.89 1.726 1.779 3.451 2.666 5.178l1.779-.914c-.888-1.728-1.778-3.454-2.667-5.18zm-.002-.003.002.003 1.778-.916-.002-.003zm-.001-.003.001.003 1.778-.916-.001-.003zm-.002-.003.002.003 1.778-.916-.002-.003zm-.001-.003.001.003L92 152.49l-.001-.003zm-.002-.003.002.003 1.778-.916-.002-.003zm-.001-.003.001.003 1.778-.916-.001-.003zm-.005-.01.005.011 1.777-.918-.005-.01zm-.001-.001.001.003 1.776-.921-.002-.003zm-.003-.006.001.003 1.779-.915-.002-.003zm-6.87-13.417c2.267 4.487 4.57 8.953 6.87 13.417l1.778-.916c-2.302-4.466-4.6-8.925-6.863-13.403zm1.673-7.92c-1.23.913-2.054 2.133-2.354 3.54-.3 1.404-.063 2.911.681 4.38l1.785-.903c-.572-1.128-.7-2.171-.51-3.059.189-.885.71-1.699 1.59-2.351zm7.885.573c-1.211-1.025-2.562-1.636-3.947-1.747-1.394-.111-2.75.292-3.939 1.175l1.193 1.605c.821-.61 1.703-.856 2.587-.786.894.071 1.86.473 2.814 1.28zm1.006.926a22.022 22.022 0 0 0-1.006-.926l-1.293 1.526c.303.257.595.536.914.843zm0 0-1.385 1.443zm.397.379-.397-.378-1.385 1.442c.134.128.272.262.413.394zm4.192 3.9-4.195-3.903-1.363 1.464 4.196 3.904zm.003.003-.003-.003-1.362 1.464.003.003zm.003.002-.003-.002-1.362 1.464.002.002zm.002.002-.002-.002-1.363 1.464.003.003zm.003.003-.003-.003-1.362 1.465.003.002zm.003.002-.003-.002-1.362 1.464.002.003zm.002.003-.002-.003-1.363 1.465.003.002zm.008.007-1.378 1.45zm0 .001v-.001l-1.377 1.45v.001zm.001 0-1.378 1.45zm0 .001v-.001l-1.377 1.45v.001zm.001 0-1.378 1.45zm0 .001v-.001l-1.377 1.45v.001zm-.019-.018v-.001l-1.338 1.487zm12.047 11.25c-3.995-3.764-8.018-7.504-12.035-11.239l-1.362 1.464c4.018 3.736 8.036 7.472 12.025 11.231zm2.889.837c-.549.219-1.011.22-1.439.091-.452-.136-.931-.437-1.45-.927l-1.372 1.455c.651.614 1.393 1.131 2.245 1.388.876.263 1.802.231 2.757-.149zm1.291-2.651c.007.71-.076 1.28-.273 1.713-.181.396-.475.72-1.02.939l.745 1.856c1.031-.414 1.705-1.111 2.095-1.965.373-.817.462-1.726.453-2.564zm0-.632v.621h2v-.621zm-.006-37.382c.006 12.459.006 24.917.006 37.382h2c0-12.465 0-24.924-.006-37.383zm-.134-1.888c.107.591.134 1.221.134 1.887h2c0-.709-.028-1.478-.166-2.241zm-1.831-1.607c.578.059.976.235 1.246.471.264.231.482.585.586 1.143l1.966-.368c-.173-.924-.579-1.707-1.236-2.281-.652-.569-1.472-.864-2.359-.955zm-2.12 1.207c.197-.501.477-.806.792-.986.32-.183.756-.28 1.328-.221l.203-1.99c-.899-.092-1.77.045-2.523.475-.76.433-1.32 1.121-1.661 1.991zm-.286 2.06c0-.784.064-1.497.285-2.057l-1.86-.736c-.366.927-.425 1.956-.425 2.793zm-.018 21.475c-.002-7.159-.003-14.316.018-21.472l-2-.006c-.021 7.16-.02 14.32-.018 21.478zm0 .007v-.007h-2v.007zm.001 6.138-.001-6.138h-2l.001 6.138zm-7.456-54.826c-3.125-4.468-4.82-9.31-4.83-14.729l-2 .004c.011 5.87 1.857 11.105 5.191 15.872zm.962 4.365c.27-1.4-.142-3.2-.963-4.367l-1.636 1.15c.522.743.798 1.995.635 2.838zm-3.285 2.696c.74-.029 1.493-.457 2.017-.877.283-.226.552-.492.77-.78.21-.276.418-.632.497-1.037l-1.962-.384c.001-.008-.017.066-.128.213a2.5 2.5 0 0 1-.427.427c-.395.317-.736.436-.845.44zm-3.952-1.756c.463.562 1.13 1.003 1.797 1.298.668.295 1.44.489 2.158.458l-.084-1.998c-.331.014-.793-.08-1.266-.29-.473-.209-.852-.486-1.061-.74zm-6.479-14.484c.92 5.327 2.992 10.266 6.48 14.485l1.542-1.274c-3.239-3.917-5.183-8.523-6.051-13.551Zm24.972-37.915c-17.042 4.069-27.936 20.675-24.972 37.914l1.971-.339c-2.786-16.203 7.454-31.807 23.465-35.63zm27 5.27c-8.195-5.74-17.267-7.597-27.001-5.27l.466 1.945c9.157-2.19 17.644-.46 25.388 4.964zm1.72 6.434c.771-1.05 1.082-2.228.729-3.434-.337-1.151-1.228-2.145-2.449-3l-1.147 1.639c1.038.727 1.52 1.387 1.677 1.923.141.48.066 1.023-.422 1.688zm-6.477.4c1.183.81 2.373 1.298 3.527 1.26 1.213-.04 2.205-.652 2.948-1.658l-1.609-1.188c-.45.61-.912.831-1.404.847-.551.018-1.318-.217-2.332-.912zm-33.056 3.7c8.449-9.53 22.273-11.085 33.056-3.7l1.13-1.65c-11.582-7.933-26.539-6.29-35.682 4.024zM98.04 67.093c-.01-6.318 2.061-11.852 6.241-16.567l-1.496-1.326c-4.51 5.085-6.756 11.095-6.745 17.896zm-1.702-.711-.005.006 1.414 1.414.006-.006zm53.454 19.924c4.139-5.785 6.22-12.255 6.208-19.374l-2 .003c.011 6.7-1.938 12.76-5.834 18.208zm-6.26 1.75c1.033.714 2.182.97 3.345.613 1.113-.341 2.08-1.196 2.915-2.363l-1.626-1.164c-.703.982-1.347 1.453-1.876 1.615-.478.147-.999.084-1.621-.346zm-.612-6.458c-.789 1.155-1.223 2.362-1.139 3.527.087 1.204.716 2.213 1.75 2.93l1.14-1.643c-.598-.415-.857-.901-.895-1.43-.041-.568.164-1.331.796-2.257zm2.498-24.965c3.764 8.798 2.879 17.073-2.499 24.965l1.653 1.127c5.755-8.446 6.723-17.441 2.685-26.88zm1.724-6.118c-1.109.516-1.884 1.374-2.178 2.518-.283 1.104-.084 2.34.454 3.599l1.839-.785c-.434-1.017-.492-1.784-.355-2.317.126-.494.45-.906 1.083-1.201zm5.905 2.752c-.593-1.263-1.417-2.252-2.469-2.773-1.085-.539-2.283-.514-3.436.021l.843 1.814c.663-.308 1.221-.284 1.705-.044.518.257 1.075.825 1.547 1.832zm2.948 13.665c-.006-4.925-.977-9.455-2.947-13.664l-1.811.848c1.837 3.926 2.752 8.165 2.758 12.819zm-.995-.999h-.005v2H155Zm-98.938-20.85c-.229.263-.442.568-.623.824l1.635 1.152c.195-.278.348-.493.496-.663zm-.502-.064c.076.285.171.642.31 1.046l1.892-.65c-.114-.33-.193-.626-.27-.913zm-.261-.767c.046.052.101.168.261.767l1.932-.517c-.116-.437-.269-1.098-.702-1.582Zm-.242-.27.243.271 1.49-1.334-.244-.271zm-.015-.016 1.519-1.302zM47.88 36.27c2.477 2.466 4.818 5.08 7.177 7.712l1.49-1.334c-2.353-2.626-4.732-5.282-7.255-7.795zm-2.687.153c.508-.487 1.003-.69 1.415-.711.393-.02.83.12 1.274.56l1.408-1.42c-.793-.787-1.76-1.189-2.782-1.138-1.001.05-1.93.53-2.698 1.264zm-.294 2.722c-.396-.462-.518-.916-.478-1.327.042-.424.269-.914.772-1.395l-1.383-1.446c-.773.74-1.282 1.652-1.38 2.647-.098 1.008.238 1.992.952 2.823zM52.2 46.88c-2.573-2.414-4.984-5.033-7.3-7.735l-1.519 1.302c2.346 2.736 4.808 5.412 7.45 7.892zm2.162.196c-.277.102-.747.155-1.24.1-.52-.057-.827-.207-.92-.295l-1.371 1.457c.561.528 1.389.75 2.07.826.71.079 1.507.026 2.151-.21zm1.077-1.169c-.23.326-.42.595-.622.814-.2.218-.348.316-.455.355l.69 1.877c.529-.194.933-.547 1.238-.88.305-.33.57-.71.784-1.014zm-.372 30.858a8.373 8.373 0 0 1-.688-.459l-1.23 1.578c.278.216.595.413.858.578zm1.916 1.84c-.21-.502-.573-.872-.905-1.145-.331-.272-.709-.506-1.011-.695l-1.06 1.697c.327.203.59.369.802.544.212.174.298.297.33.374zm-.26 4.241c.5-.61.632-1.468.639-2.142.007-.713-.122-1.487-.378-2.098l-1.845.774c.132.315.228.81.223 1.304-.006.532-.124.82-.184.893zm-7.517 8.107c2.633-2.56 5.18-5.252 7.518-8.108l-1.547-1.267c-2.28 2.783-4.771 5.419-7.366 7.942zm-5.492-.268c.745.753 1.67 1.255 2.67 1.336 1.022.084 2.014-.282 2.822-1.068L47.81 89.52c-.424.412-.859.54-1.264.508-.426-.035-.927-.26-1.413-.75zm-.381-5.29c-.699.812-.999 1.775-.899 2.747.099.954.574 1.834 1.281 2.545l1.418-1.411c-.448-.45-.666-.923-.71-1.34-.04-.4.07-.823.426-1.238zm7.5-8.065c-2.547 2.619-5.103 5.27-7.501 8.065l1.518 1.303c2.352-2.743 4.868-5.353 7.416-7.974zm1.676-.858c-.466.15-1.184.353-1.676.857l1.433 1.396c.069-.07.221-.146.854-.349zm.886-.31c-.307.124-.595.217-.886.31l.611 1.904c.286-.091.64-.204 1.023-.36zm1.076 1.64.005-.005-1.413-1.415-.006.006zm-5.147-14c-.445 0-.89.01-1.321.018l.04 2c.436-.009.86-.017 1.281-.017zm-.713 1.702.006.006 1.414-1.414-.005-.006zm2.056-1.692c-.442-.008-.897-.017-1.352-.015l.008 2c.428-.002.86.006 1.305.015zm2.701-.04c-.87.075-1.755.059-2.701.04l-.039 2c.928.018 1.919.038 2.91-.046zm2.16-2.2c.01.669-.194 1.167-.517 1.512-.327.347-.855.622-1.642.689l.168 1.993c1.183-.1 2.206-.54 2.931-1.313.728-.775 1.077-1.8 1.06-2.913zm-2.204-2.141c.75.026 1.282.282 1.625.63.346.35.568.859.579 1.51l2-.03c-.018-1.108-.408-2.128-1.155-2.885-.748-.757-1.788-1.183-2.98-1.224Zm-8.006-.005c2.67-.078 5.345-.089 8.006.005l.07-1.999c-2.712-.095-5.431-.084-8.133-.006zm-2.315 2.07c.028-.63.263-1.119.623-1.458.363-.34.92-.59 1.692-.612l-.057-2c-1.186.034-2.234.43-3.005 1.155-.773.727-1.201 1.722-1.25 2.825zm2.258 2.293c-.847-.066-1.409-.355-1.75-.718-.334-.358-.54-.876-.508-1.576l-1.998-.09c-.052 1.16.293 2.229 1.048 3.034.75.8 1.82 1.248 3.054 1.344zm2.742.031c-.956.02-1.854.037-2.743-.031l-.152 1.994c1 .077 1.996.056 2.935.037z" mask="url(#c)" style="fill:#000;fill-opacity:1;stroke:#000;stroke-width:.1;stroke-miterlimit:4;stroke-dasharray:none;stroke-opacity:1" transform="translate(-16.975 18.615)"/>
  <path d="M172.709 85.747c2.248-6.016 3.341-12.243 3.469-20.012h.006c-.051-.439-.102-.987-.161-1.614-.148-1.578-.341-3.648-.683-5.69-2.409-14.395-9.579-25.889-21.277-34.574-1.776-1.32-3.613-1.076-4.745.466-1.055 1.443-.716 3.17.921 4.546.539.453 1.095.888 1.65 1.324 1.083.85 2.165 1.699 3.123 2.671 14.246 14.485 18.186 31.389 11.709 50.674-.86 2.558-.355 4.406 1.527 5.067 1.959.688 3.496-.272 4.461-2.858zM90.541 24.673C76.945 35.412 70.101 49.53 69.57 65.496l-.005-.005c-.211 17.52 7.82 33.775 20.983 43.798 2.714 2.064 4.378 2.192 5.76.443 1.316-1.664.633-3.424-1.881-5.471-14.707-11.999-20.794-27.388-17.542-46.135 2.03-11.715 8.147-21.144 17.542-28.425 2.547-1.97 3.197-3.796 1.887-5.483-1.32-1.698-3.152-1.615-5.772.455zm63.782 78.061c-6.443-5.283-9.973-5.883-17.714-2.897v-2.464c0-2.178.006-4.356.013-6.533.015-5.023.03-10.045-.036-15.066-.105-7.936-5.893-13.935-13.407-14.074-7.232-.133-13.592 5.722-13.797 13.003-.152 5.238-.109 10.487-.067 15.733V90.457c.011 1.255.021 2.51.028 3.765.011 2.025 1.371 3.446 3.114 3.496 1.72.044 3.08-1.343 3.218-3.369.054-.813.046-1.633.039-2.455v-.001a82.51 82.51 0 0 1-.005-.862c.001-1.618-.003-3.235-.008-4.853-.011-3.505-.022-7.01.035-10.514.067-4.057 2.592-7.015 6.116-7.431 4.801-.566 8.275 2.536 8.28 7.509.019 11.86.017 23.717.016 35.575 0 5.932-.001 11.863.001 17.795l-.001.155v.101l-.001.099v.001c-.005.646-.01 1.3.135 1.914.372 1.576 1.343 2.542 3.063 2.547 1.704.006 2.714-.899 3.086-2.502.155-.666.167-1.371.167-2.059.004-2.127.003-4.254.003-6.382v-.001c-.001-3.547-.002-7.095.019-10.644.011-1.021.061-2.097.372-3.057 1.093-3.402 4.395-5.35 7.974-4.84 3.269.466 5.889 3.241 5.961 6.721.083 3.904.079 7.814.075 11.723v.001c-.002 2.114-.004 4.227.008 6.34 0 .163-.005.333-.011.506-.022.706-.046 1.456.288 1.919.655.91 1.715 2.087 2.631 2.115 1.032.027 2.264-.933 3.097-1.771.415-.415.407-1.334.401-2.103l-.001-.127-.001-.145c.011-2.47.009-4.94.007-7.409v-.003c-.004-3.621-.008-7.241.032-10.863.044-3.896 3.18-6.909 7.048-6.948 4.307-.045 7.331 3.047 7.392 7.736.055 3.909.044 7.819.032 11.728a1592.847 1592.847 0 0 0-.01 5.514c-.003.416-.005.83.017 1.244.122 2.114 1.321 3.346 3.191 3.307 1.826-.033 3.086-1.343 3.097-3.418.019-3.149.016-6.298.014-9.448-.003-3.149-.006-6.299.014-9.449.022-3.257 1.981-5.86 5.022-6.87 2.914-.96 6.304-.105 7.886 2.547.971 1.626 1.554 3.735 1.559 5.633.1 24.369.111 48.731.05 73.1-.005 2.057.016 3.715.033 5.085.041 3.314.061 4.94-.35 6.448-.395 1.453-1.189 2.797-2.749 5.434v.001l-.001.002-.001.001c-.699 1.183-1.552 2.626-2.592 4.456-.522.921-.933 2.053-.944 3.091-.079 6.723-.058 13.45-.036 20.173v.004l.003 1.006c.011 2.264 1.204 3.58 3.119 3.574 1.903-.005 3.113-1.354 3.124-3.585.007-1.154.032-2.309.057-3.465v-.005c.065-2.934.129-5.869-.118-8.778-.494-5.833.838-10.922 4.157-15.772 1.41-2.065 2.425-4.862 2.442-7.331.166-28.52.139-57.039.083-85.559-.011-6.165-5.333-11.81-11.443-12.603-4.962-.644-9.068.977-12.498 4.606-2.869-3.047-6.249-4.75-10.35-4.762-4.157-.01-7.609 1.66-10.378 4.69zm-26.982 128.258c-.028 1.892.305 3.535 1.898 4.728h2.491c1.588-1.055 2.098-2.525 2.07-4.418a491.466 491.466 0 0 1 0-16.604c.034-1.981-.654-3.391-2.097-4.695-1.607-1.452-3.179-2.946-4.75-4.439-2.495-2.371-4.989-4.741-7.62-6.943-6.416-5.372-11.649-11.544-14.729-19.402-.084-.215-.204-.418-.323-.62v-.001l-.048-.082-.018-.03c-1.004-1.72-2.819-2.375-4.373-1.587-1.576.799-2.153 2.653-1.276 4.451.506 1.032 1.043 2.048 1.579 3.064.722 1.367 1.443 2.733 2.089 4.134 1.715 3.707 4.173 6.759 7.215 9.49 5.66 5.083 11.193 10.317 16.698 15.572.655.616 1.138 1.743 1.16 2.642.117 4.911.1 9.828.034 14.74zm-18.009-94.35v3.964c-1.467-1.36-2.887-2.688-4.279-3.988l-.002-.002-.001-.001c-2.991-2.796-5.848-5.466-8.76-8.075-4.233-3.796-10.355-4.001-14.672-.655-4.307 3.335-5.728 9.19-3.214 14.174 3.78 7.498 7.641 14.957 11.503 22.417l2.227 4.304c1.055 2.032 2.692 2.675 4.412 1.871 1.748-.822 2.242-2.67 1.204-4.768a408.108 408.108 0 0 0-2.827-5.537l-.002-.003-1.139-2.207c-.887-1.727-1.777-3.453-2.666-5.179l-.001-.003-.002-.003-.002-.003-.001-.003-.002-.003-.001-.003-.006-.01-.001-.003-.002-.004a1901.388 1901.388 0 0 1-6.866-13.41c-1.316-2.598-.733-5.101 1.376-6.666 2.009-1.492 4.478-1.298 6.643.533.33.28.644.582.96.884v.001c.134.129.269.258.405.386 1.397 1.302 2.796 2.602 4.195 3.903l.003.003.003.002.002.003.003.002.002.002.003.003.001.001v.001h.001v.001h.001c4.018 3.736 8.038 7.473 12.03 11.235 1.171 1.105 2.442 1.637 3.945 1.038 1.577-.633 1.937-2.042 1.921-3.591v-.621c0-12.465 0-24.924-.006-37.383 0-.688-.028-1.387-.15-2.064-.277-1.482-1.248-2.275-2.714-2.425-1.47-.15-2.613.466-3.152 1.837-.294.743-.355 1.615-.355 2.425-.021 7.158-.02 14.317-.018 21.475v.007l.001 6.138zM97.046 67.089c.01 5.644 1.781 10.683 5.011 15.3.671.955 1.015 2.481.799 3.602-.155.794-1.493 1.854-2.342 1.887-1.049.044-2.47-.577-3.141-1.393-3.363-4.068-5.372-8.84-6.266-14.018-2.874-16.721 7.692-32.826 24.219-36.772 9.445-2.259 18.225-.466 26.194 5.117 2.259 1.581 2.747 3.307 1.488 5.022-1.194 1.615-2.908 1.67-5.106.166-11.183-7.658-25.573-6.06-34.369 3.863-4.345 4.9-6.504 10.672-6.493 17.232zM155 66.933c.011 6.91-2.003 13.175-6.021 18.791-1.537 2.148-3.224 2.653-4.878 1.51-1.632-1.132-1.776-2.991-.355-5.072 5.566-8.17 6.493-16.805 2.591-25.923-.971-2.275-.516-4.007 1.227-4.817 1.815-.843 3.513 0 4.578 2.27 1.904 4.068 2.847 8.452 2.853 13.241zm-98.744-20.45c.188-.267.371-.527.56-.744-.126-.367-.213-.692-.29-.978-.138-.519-.242-.907-.481-1.175l-.243-.271c-2.356-2.63-4.716-5.264-7.216-7.754-1.238-1.226-2.808-1.082-4.085.14-1.276 1.22-1.47 2.802-.36 4.095 2.33 2.72 4.767 5.366 7.375 7.814.655.616 2.27.743 3.191.405.635-.234 1.106-.903 1.55-1.532zm-2.492 30.612c.23.179.499.347.773.518.629.393 1.281.8 1.524 1.38.389.927.45 2.536-.11 3.219-2.31 2.819-4.829 5.483-7.443 8.024-1.232 1.2-2.852.988-4.084-.255-1.155-1.16-1.388-2.708-.333-3.935 2.375-2.769 4.911-5.4 7.458-8.019.28-.287.716-.427 1.266-.603.288-.093.608-.195.954-.335zm-5.74-12.275c.433-.009.866-.018 1.3-.018l-.005-.005c.442-.002.885.007 1.329.015.937.018 1.875.036 2.805-.043 1.97-.166 3.102-1.432 3.074-3.213-.027-1.76-1.226-3.058-3.168-3.124a126.145 126.145 0 0 0-8.07-.006c-1.959.055-3.207 1.293-3.285 3.025-.083 1.859 1.099 3.174 3.18 3.335.944.072 1.891.053 2.84.034z" style="clip-rule:evenodd;fill:#fff;fill-opacity:1;fill-rule:evenodd" transform="translate(-16.975 18.615)"/>
  <defs>
    <filter color-interpolation-filters="sRGB" filterUnits="userSpaceOnUse" height="173" width="173" y="-18" x="76" id="a">
      <feFlood result="BackgroundImageFix" flood-opacity="0"/>
      <feGaussianBlur stdDeviation="12.5" in="BackgroundImage"/>
      <feComposite result="effect1_backgroundBlur_1629_79459" operator="in" in2="SourceAlpha"/>
      <feBlend result="shape" in2="effect1_backgroundBlur_1629_79459" in="SourceGraphic"/>
    </filter>
    <filter color-interpolation-filters="sRGB" filterUnits="userSpaceOnUse" height="80" width="80" y="131" x="58" id="b">
      <feFlood result="BackgroundImageFix" flood-opacity="0"/>
      <feGaussianBlur stdDeviation="12.5" in="BackgroundImage"/>
      <feComposite result="effect1_backgroundBlur_1629_79459" operator="in" in2="SourceAlpha"/>
      <feBlend result="shape" in2="effect1_backgroundBlur_1629_79459" in="SourceGraphic"/>
    </filter>
  </defs>
</svg>
