<?xml version="1.0" encoding="UTF-8" standalone="no"?>
<svg
   xmlns:dc="http://purl.org/dc/elements/1.1/"
   xmlns:cc="http://creativecommons.org/ns#"
   xmlns:rdf="http://www.w3.org/1999/02/22-rdf-syntax-ns#"
   xmlns:svg="http://www.w3.org/2000/svg"
   xmlns="http://www.w3.org/2000/svg"
   id="svg4295"
   version="1.1"
   fill="none"
   viewBox="0 0 256 256"
   height="256px"
   width="256px">
  <metadata
     id="metadata4299">
    <rdf:RDF>
      <cc:Work
         rdf:about="">
        <dc:format>image/svg+xml</dc:format>
        <dc:type
           rdf:resource="http://purl.org/dc/dcmitype/StillImage" />
        <dc:title></dc:title>
      </cc:Work>
    </rdf:RDF>
  </metadata>
  <mask
     fill="black"
     height="216"
     width="160"
     y="21"
     x="41"
     maskUnits="userSpaceOnUse"
     id="path-3-outside-1_1629_79459">
    <rect
       id="rect4266"
       height="216"
       width="160"
       y="21"
       x="41"
       fill="white" />
    <path
       id="path4268"
       d="M172.709 85.7467C174.957 79.7309 176.05 73.5043 176.178 65.7348H176.184C176.133 65.2963 176.082 64.7476 176.023 64.1213L176.023 64.1205L176.023 64.1201C175.875 62.5426 175.682 60.4728 175.34 58.4314C172.931 44.0357 165.761 32.5424 154.063 23.8572C152.287 22.5364 150.45 22.7806 149.318 24.3234C148.263 25.7663 148.602 27.4922 150.239 28.8685C150.778 29.3215 151.334 29.7573 151.889 30.1928L151.889 30.1928C152.972 31.043 154.054 31.8918 155.012 32.8643C169.258 47.3488 173.198 64.253 166.721 83.538C165.861 86.0964 166.366 87.9444 168.248 88.6048C170.207 89.293 171.744 88.3329 172.709 85.7467ZM90.5412 24.6732C76.9446 35.4118 70.1019 49.53 69.5692 65.4963L69.5636 65.4908C69.3527 83.011 77.3831 99.2659 90.5468 109.289C93.2606 111.353 94.9255 111.481 96.3073 109.732C97.6226 108.068 96.94 106.308 94.426 104.261C79.7195 92.2622 73.6315 76.8731 76.8836 58.1264C78.9148 46.4111 85.0305 36.9823 94.426 29.7012C96.9733 27.7311 97.6226 25.9052 96.3129 24.2182C94.9921 22.52 93.1607 22.6032 90.5412 24.6732ZM154.323 102.734C147.88 97.4507 144.35 96.8514 136.609 99.8371V99.8204V97.373C136.609 95.1949 136.615 93.0173 136.622 90.8401C136.637 85.8168 136.652 80.7953 136.586 75.7739C136.481 67.8379 130.693 61.8387 123.179 61.7C115.947 61.5668 109.587 67.4217 109.382 74.7028C109.23 79.9412 109.273 85.1904 109.315 90.4359V90.4366L109.315 90.439L109.315 90.4414L109.315 90.4438L109.315 90.4463L109.315 90.4488L109.315 90.4513L109.315 90.4538L109.315 90.4563C109.326 91.7114 109.336 92.9663 109.343 94.2208C109.354 96.2465 110.714 97.6672 112.457 97.7171C114.177 97.7615 115.537 96.3741 115.675 94.3485C115.729 93.5347 115.721 92.7149 115.714 91.8935L115.714 91.8916C115.711 91.6044 115.709 91.3171 115.709 91.0298C115.71 89.4123 115.706 87.7948 115.701 86.1773C115.69 82.6725 115.679 79.1677 115.736 75.6629C115.803 71.6061 118.328 68.6481 121.852 68.2319C126.653 67.6658 130.127 70.7681 130.132 75.7406C130.151 87.6006 130.149 99.4581 130.148 111.316C130.148 117.248 130.147 123.179 130.149 129.111C130.149 129.163 130.149 129.214 130.148 129.266L130.148 129.367L130.147 129.466V129.467V129.467C130.142 130.113 130.137 130.767 130.282 131.381C130.654 132.957 131.625 133.923 133.345 133.928C135.049 133.934 136.059 133.029 136.431 131.426C136.586 130.76 136.598 130.055 136.598 129.367C136.602 127.24 136.601 125.113 136.601 122.985V122.985V122.985V122.985V122.985V122.984V122.984V122.984V122.984C136.6 119.437 136.599 115.889 136.62 112.34C136.631 111.319 136.681 110.243 136.992 109.283C138.085 105.881 141.387 103.933 144.966 104.443C148.235 104.909 150.855 107.684 150.927 111.164C151.01 115.068 151.006 118.978 151.002 122.887V122.888C151 125.002 150.998 127.115 151.01 129.228C151.01 129.391 151.005 129.561 150.999 129.734C150.977 130.44 150.953 131.19 151.287 131.653C151.942 132.563 153.002 133.74 153.918 133.768C154.95 133.795 156.182 132.835 157.015 131.997C157.43 131.582 157.422 130.663 157.416 129.894L157.415 129.767C157.414 129.718 157.414 129.669 157.414 129.622C157.425 127.152 157.423 124.682 157.421 122.213V122.211V122.211V122.211V122.21V122.21V122.21V122.21V122.21C157.417 118.589 157.413 114.969 157.453 111.347C157.497 107.451 160.633 104.438 164.501 104.399C168.808 104.354 171.832 107.446 171.893 112.135C171.948 116.044 171.937 119.954 171.925 123.863C171.92 125.492 171.915 127.122 171.915 128.751C171.917 128.96 171.916 129.169 171.915 129.377V129.377C171.912 129.793 171.91 130.207 171.932 130.621C172.054 132.735 173.253 133.967 175.123 133.928C176.949 133.895 178.209 132.585 178.22 130.51C178.239 127.361 178.236 124.212 178.234 121.062C178.231 117.913 178.228 114.763 178.248 111.613C178.27 108.356 180.229 105.753 183.27 104.743C186.184 103.783 189.574 104.638 191.156 107.29C192.127 108.916 192.71 111.025 192.715 112.923C192.815 137.292 192.826 161.654 192.765 186.023C192.76 188.08 192.781 189.738 192.798 191.108V191.108V191.108V191.108C192.839 194.422 192.859 196.048 192.448 197.556C192.053 199.009 191.259 200.353 189.699 202.99L189.699 202.991L189.698 202.993L189.697 202.994C188.998 204.177 188.145 205.62 187.105 207.45C186.583 208.371 186.172 209.503 186.161 210.541C186.082 217.264 186.103 223.991 186.125 230.714V230.714V230.714V230.714V230.714V230.714V230.715V230.715V230.718L186.128 231.724C186.139 233.988 187.332 235.304 189.247 235.298C191.15 235.293 192.36 233.944 192.371 231.713C192.378 230.559 192.403 229.404 192.428 228.248V228.248V228.247V228.247V228.246V228.245V228.245V228.244V228.244V228.243C192.493 225.309 192.557 222.374 192.31 219.465C191.816 213.632 193.148 208.543 196.467 203.693C197.877 201.628 198.892 198.831 198.909 196.362C199.075 167.842 199.048 139.323 198.992 110.803C198.981 104.638 193.659 98.9935 187.549 98.1999C182.587 97.5562 178.481 99.1767 175.051 102.806C172.182 99.7594 168.802 98.0556 164.701 98.0445C160.544 98.0334 157.092 99.7039 154.323 102.734ZM127.341 230.992C127.313 232.884 127.646 234.527 129.239 235.72H131.73C133.318 234.665 133.828 233.195 133.8 231.302C133.712 225.769 133.701 220.231 133.8 214.698C133.834 212.717 133.146 211.307 131.703 210.003C130.096 208.551 128.524 207.057 126.953 205.564C124.458 203.193 121.964 200.823 119.333 198.621C112.917 193.249 107.684 187.077 104.604 179.219C104.52 179.004 104.4 178.801 104.281 178.599L104.281 178.599L104.281 178.598L104.233 178.516L104.215 178.486C103.211 176.766 101.396 176.111 99.8422 176.899C98.2661 177.698 97.689 179.552 98.5658 181.35C99.0721 182.382 99.6086 183.398 100.145 184.414C100.867 185.781 101.588 187.147 102.234 188.548C103.949 192.255 106.407 195.307 109.449 198.038C115.109 203.121 120.642 208.355 126.147 213.61C126.802 214.226 127.285 215.353 127.307 216.252C127.424 221.163 127.407 226.08 127.341 230.992ZM109.332 136.642V140.606C107.865 139.246 106.445 137.918 105.053 136.618L105.053 136.618L105.051 136.616L105.05 136.615C102.059 133.819 99.2021 131.149 96.2908 128.54C92.0565 124.744 85.9352 124.539 81.6176 127.885C77.3111 131.22 75.8904 137.075 78.4044 142.059C82.1837 149.557 86.045 157.016 89.9065 164.476C90.6492 165.91 91.392 167.345 92.1342 168.78C93.1886 170.812 94.8257 171.455 96.5461 170.651C98.2943 169.829 98.7882 167.981 97.7504 165.883C96.8268 164.028 95.8749 162.187 94.923 160.346L94.9211 160.343C94.5409 159.607 94.1608 158.872 93.7824 158.136C92.8947 156.409 92.0053 154.683 91.116 152.957L91.1145 152.954L91.1129 152.951L91.1114 152.948L91.1098 152.945L91.1083 152.942L91.1067 152.939L91.1013 152.929L91.0997 152.926L91.098 152.922C88.7967 148.457 86.4968 143.994 84.2315 139.512C82.9162 136.914 83.4989 134.411 85.6078 132.846C87.6168 131.354 90.0863 131.548 92.2507 133.379C92.5812 133.659 92.8953 133.961 93.2103 134.263L93.2106 134.264C93.3451 134.393 93.4798 134.522 93.6159 134.65C95.0133 135.952 96.4122 137.252 97.8113 138.553L97.8139 138.556L97.8165 138.558L97.8192 138.561L97.8218 138.563L97.8244 138.565L97.827 138.568L97.8275 138.568L97.828 138.569L97.8284 138.569L97.8289 138.57L97.8293 138.57L97.8298 138.571L97.8303 138.571C101.848 142.307 105.868 146.044 109.86 149.806C111.031 150.911 112.302 151.443 113.805 150.844C115.382 150.211 115.742 148.802 115.726 147.253V146.632C115.726 134.167 115.726 121.708 115.72 109.249C115.72 108.561 115.692 107.862 115.57 107.185C115.293 105.703 114.322 104.91 112.856 104.76C111.386 104.61 110.243 105.226 109.704 106.597C109.41 107.34 109.349 108.212 109.349 109.022C109.328 116.18 109.329 123.339 109.331 130.497V130.504C109.332 132.55 109.332 134.596 109.332 136.642ZM97.0455 67.0891C97.0566 72.7331 98.827 77.7722 102.057 82.3895C102.728 83.344 103.072 84.8701 102.856 85.9912C102.701 86.7848 101.363 87.8448 100.514 87.8781C99.4652 87.9224 98.0445 87.3009 97.373 86.4851C94.0099 82.4172 92.0009 77.6445 91.1074 72.4667C88.2327 55.7457 98.7992 39.6406 115.326 35.6948C124.771 33.4361 133.551 35.2287 141.52 40.8116C143.779 42.3932 144.267 44.1192 143.008 45.834C141.814 47.449 140.1 47.5045 137.902 46.0005C126.719 38.342 112.329 39.9403 103.533 49.8631C99.1877 54.7634 97.0289 60.535 97.04 67.0947L97.0455 67.0891ZM155 66.9333C155.011 73.8426 152.997 80.1082 148.979 85.7244C147.442 87.8721 145.755 88.3771 144.101 87.2339C142.469 86.1018 142.325 84.2426 143.746 82.1615C149.312 73.9925 150.239 65.3572 146.337 56.2392C145.366 53.9638 145.821 52.2323 147.564 51.4221C149.379 50.5785 151.077 51.4221 152.142 53.6919C154.046 57.7598 154.989 62.144 154.995 66.9333H155ZM56.2564 46.483C56.4445 46.216 56.6275 45.956 56.816 45.7395C56.6897 45.3723 56.6027 45.0466 56.5262 44.7605C56.3878 44.2423 56.2842 43.8544 56.0446 43.5862L55.8016 43.3149L55.8015 43.3148C53.4461 40.6854 51.086 38.0508 48.5859 35.5614C47.3483 34.335 45.7778 34.4792 44.5014 35.7002C43.2249 36.9211 43.0307 38.5027 44.1406 39.7958C46.4715 42.5151 48.9078 45.1623 51.5161 47.6097C52.171 48.2257 53.7859 48.3533 54.7071 48.0148C55.3422 47.781 55.8132 47.1123 56.2564 46.483ZM53.7638 77.0949C53.9931 77.2736 54.2628 77.442 54.5371 77.6133C55.1656 78.0059 55.818 78.4133 56.0614 78.9929C56.4499 79.9197 56.5109 81.5291 55.9504 82.2117C53.6417 85.0309 51.1222 87.6947 48.5083 90.2364C47.2763 91.4352 45.6558 91.2243 44.4238 89.9812C43.2695 88.8213 43.0364 87.2729 44.0908 86.0465C46.4661 83.2772 49.0023 80.6467 51.5495 78.0272C51.8297 77.7398 52.265 77.6002 52.8147 77.424C53.1033 77.3315 53.4235 77.2288 53.7694 77.0894L53.7638 77.0949ZM48.0232 64.82C48.4567 64.8113 48.8904 64.8025 49.3241 64.8025L49.3185 64.797C49.7607 64.7952 50.2041 64.8037 50.6476 64.8123C51.5847 64.8303 52.5227 64.8483 53.453 64.7692C55.4231 64.6028 56.5553 63.3374 56.5275 61.556C56.4998 59.7968 55.301 58.4982 53.3587 58.4316C50.6727 58.3372 47.9755 58.3483 45.2895 58.426C43.3305 58.4815 42.0818 59.7191 42.0041 61.4506C41.9209 63.3097 43.1029 64.625 45.1841 64.7859C46.1284 64.8582 47.0754 64.8391 48.0232 64.82Z"
       clip-rule="evenodd"
       fill-rule="evenodd" />
  </mask>
  <g
     transform="translate(-16.97501,18.615)"
     id="g4862">
    <path
       style="fill:#8657e2;fill-opacity:0.22695037;filter:url(#filter0_b_1629_79459)"
       d="m 224,68.5 c 1.51431,39.88234 -42.05752,71.93748 -79.67449,58.75319 C 105.80242,116.9063 87.98683,65.82709 111.74186,33.774488 133.01157,0.01635035 187.07022,-1.8980259 210.6746,30.270987 219.25836,41.031009 224.03424,54.737549 224,68.5 Z"
       id="circle4258" />
    <g
       style="filter:url(#filter1_b_1629_79459)"
       id="g4264">
      <circle
         style="fill:#ffffff;fill-opacity:0.15"
         cx="98"
         cy="171"
         r="15"
         id="circle4262" />
    </g>
    <path
       d="m 176.178,65.7348 v -1 h -0.984 l -0.016,0.9835 z m -3.469,20.0119 -0.936,-0.3499 v 1e-4 z m 3.475,-20.0119 v 1 h 1.121 l -0.128,-1.1144 z m -0.161,-1.6135 0.996,-0.0932 -0.001,-0.0094 -0.001,-0.0094 z m 0,-8e-4 0.994,-0.112 -0.002,-0.0173 -0.003,-0.0173 z m 0,-4e-4 -0.996,0.0932 0.003,0.0268 0.004,0.0266 z m -0.683,-5.6887 -0.986,0.1651 v 0 z m -21.277,-34.5742 -0.597,0.8024 0.001,5e-4 z m -4.745,0.4662 -0.807,-0.5916 -0.001,0.0016 z m 0.921,4.5451 -0.644,0.7655 0.001,4e-4 z m 1.65,1.3243 0.64,-0.7683 -0.011,-0.0094 -0.012,-0.009 z m 0,0 -0.64,0.7682 0.011,0.0095 0.011,0.009 z m 3.123,2.6715 0.713,-0.7012 -0.001,-5e-4 z m 11.709,50.6737 0.948,0.3187 v -4e-4 z m 1.527,5.0668 0.331,-0.9435 v 0 z m -98.6788,-23.1085 -0.7073,0.707 1.6298,1.6304 0.0769,-2.304 z m 20.972,-40.8231 0.6198,0.7848 3e-4,-2e-4 z m -20.9776,40.8176 0.7073,-0.707 -1.6786,-1.6792 -0.0286,2.3742 z m 20.9832,43.7982 -0.6058,0.795 h 3e-4 z m 5.7605,0.443 0.7845,0.621 2e-4,-10e-4 z m -1.8813,-5.471 -0.6322,0.774 6e-4,0.001 z m -17.5424,-46.1346 0.9853,0.1709 v -1e-4 z m 17.5424,-28.4252 -0.6118,-0.791 -8e-4,6e-4 z m 1.8869,-5.483 0.7899,-0.6133 -6e-4,-7e-4 z m 40.2961,75.6189 h -1 v 1.4579 l 1.359,-0.525 z m 17.714,2.8969 -0.634,0.773 0.733,0.601 0.639,-0.699 z m -17.701,-11.8939 -1,-0.003 v 0 z m -0.036,-15.0662 1,-0.0132 v -1e-4 z M 123.179,61.7 l 0.018,-0.9998 v 0 z m -13.797,13.0028 1,0.029 v -8e-4 z m -0.067,15.7331 h 1 v -0.0081 z m 0,7e-4 h -1 v 0.0094 z m 0,0.0072 1,-0.0091 v -3e-4 z m 0,0.0125 1,-0.0081 v -0.0011 z m 0.028,3.7645 1,-0.0054 v -5e-4 z m 3.114,3.4963 -0.029,0.9996 0.003,1e-4 z m 3.218,-3.3686 0.998,0.0683 V 94.414 Z m 0.039,-2.455 1,-0.0091 v -0.0028 z m 0,-0.0019 -1,0.009 v 0.0029 z m -0.005,-0.8618 -1,-0.0011 v 0.0011 z m -0.008,-4.8525 1,-0.003 v 0 z m 0.035,-10.5144 -0.999,-0.0165 v 2e-4 z m 6.116,-7.431 -0.117,-0.9931 v 0 z m 8.28,7.5087 -1,0.0011 v 4e-4 z m 0.016,35.5754 h -1 v 0 z m 0.001,17.795 h 1 v 0 z m -0.001,0.155 1,0.007 v -0.001 z m 0,0.101 1,0.007 v -0.001 z m -0.001,0.099 -1,-0.008 v 0.008 z m 0,0.001 1,0.008 v -0.008 z m 0.135,1.914 0.973,-0.229 v -10e-4 z m 3.063,2.547 0.004,-1 v 0 z m 3.086,-2.502 -0.974,-0.228 v 0.002 z m 0.167,-2.059 -1,-0.002 v 0.002 z m 0.003,-6.382 h -1 v 0 z m 0,-0.001 h 1 v 0 z m 0.019,-10.644 -1,-0.01 v 0.005 z m 0.372,-3.057 0.951,0.308 10e-4,-0.002 z m 7.974,-4.84 -0.141,0.99 v 0 z m 5.961,6.721 -1,0.021 v 0 z m 0.075,11.723 -1,-0.001 v 0.001 z m 0,0.001 1,10e-4 v -10e-4 z m 0.008,6.34 h 1 v -0.006 z m -0.011,0.506 1,0.032 v 0 z m 0.288,1.919 0.812,-0.584 v -10e-4 z m 2.631,2.115 -0.03,0.999 h 0.003 z m 3.097,-1.771 -0.707,-0.707 -0.003,0.002 z m 0.401,-2.103 -1,0.008 v 0.001 z m -0.001,-0.127 -1,0.007 v 0.001 z m -0.001,-0.145 -1,-0.005 v 0.005 z m 0.007,-7.409 h -1 v 0.001 z m 0,-0.003 h 1 v -10e-4 z m 0.032,-10.863 -1,-0.011 v 0 z m 7.048,-6.948 0.01,1 v 0 z m 7.392,7.736 -1,0.013 v 0.001 z m 0.032,11.728 1,0.003 v 0 z m -0.01,4.888 h -1 v 0.008 z m 0,0.626 -1,-0.006 v 0.006 z m 0,0 1,0.006 v -0.006 z m 0.017,1.244 -0.999,0.053 0.001,0.005 z m 3.191,3.307 -0.018,-0.999 h -0.003 z m 3.097,-3.418 -1,-0.006 v 0.001 z m 0.014,-9.448 -1,0.001 v 0 z m 0.014,-9.449 -1,-0.006 v 0 z m 5.022,-6.87 -0.313,-0.95 -0.002,10e-4 z m 7.886,2.547 -0.859,0.512 v 10e-4 z m 1.559,5.633 -1,0.003 v 0.001 z m 0.05,73.1 -1,-0.003 v 10e-4 z m 0.033,5.085 h 1 v -0.013 z m 0,0 h -1 v 0.013 z m -0.35,6.448 -0.965,-0.262 v 0 z m -2.749,5.434 0.854,0.522 0.003,-0.006 0.004,-0.007 z m 0,0.001 -0.854,-0.521 -0.004,0.007 z m -0.001,0.002 -0.858,-0.514 -0.004,0.007 -0.004,0.007 z m -0.001,0.001 0.861,0.509 0.005,-0.009 z m -2.592,4.456 -0.87,-0.494 v 0.001 z m -0.944,3.091 1,0.012 v -0.001 z m -0.036,20.173 h 1 v -0.003 z m 0,0.004 h -1 v 0.003 z m 0.003,1.006 -1,0.003 v 0.002 z m 3.119,3.574 0.003,1 v 0 z m 3.124,-3.585 -1,-0.005 v 0 z m 0.057,-3.465 1,0.022 v -0.011 -0.011 z m 0,-0.005 -0.999,-0.022 -0.001,0.011 v 0.011 z m -0.118,-8.778 -0.996,0.084 v 0.001 z m 4.157,-15.772 0.825,0.565 0.001,-0.001 z m 2.442,-7.331 1,0.007 v -0.001 z m 0.083,-85.559 -1,0.002 v 0 z m -11.443,-12.6031 0.129,-0.9916 -0.001,-10e-5 z m -12.498,4.6061 -0.728,0.686 0.727,0.771 0.728,-0.77 z m -10.35,-4.7615 0.003,-1 v 0 z m -35.462,137.6755 -0.6,0.8 0.267,0.2 h 0.333 z m -1.898,-4.728 1,0.014 v -0.001 z m 4.389,4.728 v 1 h 0.302 l 0.252,-0.167 z m 2.07,-4.418 1,-0.014 v -0.002 z m 0,-16.604 1,0.018 v -0.001 z m -2.097,-4.695 -0.671,0.742 v 0 z m -4.75,-4.439 -0.689,0.725 v 0 z m -7.62,-6.943 -0.642,0.766 v 0 z m -14.729,-19.402 -0.931,0.364 v 0.001 z m -0.323,-0.62 -0.876,0.482 0.007,0.013 0.008,0.012 z m 0,0 0.876,-0.482 -0.007,-0.013 -0.007,-0.013 z m 0,-10e-4 -0.862,0.507 v 0.001 z m -0.048,-0.082 -0.864,0.504 0.001,0.003 z m -0.018,-0.03 0.864,-0.503 v -0.001 z m -4.3728,-1.587 0.4518,0.892 h 0.001 z m -1.2764,4.451 -0.8988,0.438 0.0011,0.003 z m 1.5792,3.064 0.884,-0.467 v 0 z m 2.089,4.134 -0.908,0.419 0.001,10e-4 z m 7.215,9.49 0.668,-0.744 v 0 z m 16.698,15.572 -0.69,0.723 0.005,0.005 z m 1.16,2.642 1,-0.024 v -0.001 z m -17.975,-75.646 -0.679,0.734 1.679,1.557 v -2.291 z m -4.279,-3.988 -0.707,0.707 0.012,0.012 0.013,0.012 z m 0,0 0.707,-0.707 -0.01,-0.011 -0.012,-0.01 z m -0.002,-0.002 0.685,-0.728 -0.004,-0.004 z m -0.001,-0.001 -0.683,0.731 0.003,0.002 z m -8.7592,-8.075 -0.6675,0.745 h 2e-4 z m -14.6732,-0.655 0.6123,0.791 h 3e-4 z m -3.2132,14.174 0.8929,-0.45 -1e-4,-0.001 z m 11.5021,22.417 0.8881,-0.46 v 0 z m 2.2277,4.304 -0.8883,0.46 7e-4,0.001 z m 4.4119,1.871 0.4237,0.905 h 0.0016 z m 1.2043,-4.768 0.8963,-0.443 -0.0011,-0.002 z m -2.8274,-5.537 -0.8889,0.459 6e-4,0.001 z m -0.0019,-0.003 0.8888,-0.458 -6e-4,-0.002 z m -1.1387,-2.207 -0.8894,0.457 v 0 z m -2.6664,-5.179 -0.8889,0.458 v 0 z m -0.0093,-0.018 0.889,-0.458 -4e-4,-0.001 z m -0.0054,-0.01 0.8885,-0.459 -7e-4,-0.002 z m -0.0016,-0.003 -0.8893,0.457 0.0014,0.003 z m -0.0017,-0.004 0.8893,-0.457 -4e-4,-0.001 z m -6.8665,-13.41 0.8925,-0.451 -4e-4,-0.001 z m 1.3763,-6.666 0.5959,0.804 5e-4,-0.001 z m 6.6429,0.533 0.6464,-0.763 h -5e-4 z m 0.9596,0.884 -0.6927,0.722 h 2e-4 z m 3e-4,0.001 0.6927,-0.721 -2e-4,-0.001 z m 0.4053,0.386 -0.6845,0.729 0.003,0.003 z m 4.1954,3.903 0.6811,-0.732 h -2e-4 z m 0.0157,0.015 0.6888,-0.725 -0.0076,-0.007 z m 0.0028,0.003 -0.6888,0.725 0.0098,0.009 0.01,0.009 z m 5e-4,0 0.6809,-0.732 -0.0059,-0.006 -0.0061,-0.005 z m 12.0297,11.235 0.686,-0.727 v -0.001 z m 3.945,1.038 0.371,0.929 0.002,-0.001 z m 1.921,-3.591 h -1 v 0.011 z m -0.006,-38.004 h -1 v 0.001 z m -0.15,-2.064 0.984,-0.177 -0.001,-0.007 z m -2.714,-2.425 0.102,-0.995 v 0 z m -3.152,1.837 0.93,0.368 0.001,-0.003 z m -0.355,2.425 1,0.003 v -0.003 z m -0.018,21.475 h 1 v 0 z m 0,0.007 h -1 v 0 z m -7.274,-48.1145 -0.82,0.5732 0.002,0.0021 z m -5.0115,-15.3004 1,-0.0019 -0.0047,-2.4076 -1.7024,1.7024 z m 5.8105,18.9021 0.981,0.1921 10e-4,-0.0026 z m -2.342,1.8869 -0.039,-0.9993 -0.003,1e-4 z m -3.141,-1.393 0.772,-0.6355 -0.0013,-0.0017 z m -6.2656,-14.0184 -0.9855,0.1695 1e-4,6e-4 z m 24.2186,-36.7719 0.232,0.9727 10e-4,-10e-5 z m 26.194,5.1168 -0.573,0.819 v 10e-5 z m 1.488,5.0224 0.804,0.5943 0.002,-0.0022 z m -5.106,0.1665 -0.565,0.8251 v 2e-4 z m -34.369,3.8626 0.748,0.6634 v -10e-5 z m -6.493,17.2316 -1,0.0017 0.004,2.4084 1.7031,-1.703 z m 51.939,18.6297 0.813,0.582 v -2e-4 z M 155,66.9333 l 1,-0.0016 -0.001,-0.9984 H 155 Z m -10.899,20.3006 -0.57,0.8216 0.001,0.001 z m -0.355,-5.0724 0.826,0.5638 v -7e-4 z m 2.591,-25.9223 -0.919,0.3925 v 9e-4 z m 1.227,-4.8171 -0.422,-0.9068 v 0 z m 4.578,2.2698 0.906,-0.4238 -0.001,-0.0012 z m 2.853,13.2414 -1,0.0012 0.001,0.9988 h 0.999 z m -98.179,-21.1938 0.7544,0.6564 0.3791,-0.4357 -0.1879,-0.5461 z m -0.5596,0.7435 -0.8176,-0.5758 v 0 z m 0.2698,-1.7225 -0.9661,0.2581 v 0 z m -0.4816,-1.1743 0.7458,-0.6662 -10e-4,-0.0011 z m -0.243,-0.2713 -0.7593,0.6508 0.0072,0.0083 0.0073,0.0082 z m -1e-4,-1e-4 0.7593,-0.6507 -0.0071,-0.0083 -0.0073,-0.0082 z m -7.2156,-7.7534 0.7056,-0.7086 -0.0017,-0.0017 z m -4.0845,0.1388 -0.6913,-0.7227 v 0 z m -0.3608,4.0956 0.7593,-0.6508 -5e-4,-5e-4 z m 7.3755,7.8139 0.6852,-0.7284 -0.001,-9e-4 z m 3.191,0.4051 0.345,0.9386 5e-4,-2e-4 z m -0.17,29.5985 -0.5298,0.8482 v 0 z m -0.7733,-0.5184 -0.7069,-0.7073 -0.8006,0.8002 0.8928,0.6958 z m 2.2976,1.898 0.9222,-0.3866 -2e-4,-7e-4 z m -0.111,3.2188 -0.7728,-0.6346 -9e-4,0.001 z m -7.4421,8.0247 -0.6971,-0.7169 -2e-4,2e-4 z m -4.0845,-0.2552 0.7103,-0.704 -0.0015,-0.0015 z m -0.333,-3.9347 0.7583,0.6519 8e-4,-9e-4 z m 7.4587,-8.0193 -0.7161,-0.6979 -8e-4,8e-4 z m 1.2652,-0.6032 -0.3053,-0.9522 v 0 z m 0.9547,-0.3346 0.7069,0.7072 -1.081,-1.6347 z M 49.3241,64.8025 v 1 h 2.4138 l -1.7066,-1.707 z m -1.3009,0.0175 0.0201,0.9998 h 10e-5 z m 1.2953,-0.023 -0.004,-1 -2.4001,0.0097 1.6969,1.6973 z m 1.3291,0.0153 -0.0192,0.9998 v 0 z m 2.8054,-0.0431 -0.0842,-0.9964 h -5e-4 z m 3.0745,-3.2132 0.9999,-0.0156 v -2e-4 z m -3.1688,-3.1244 -0.0351,0.9993 8e-4,10e-5 z m -8.0692,-0.0056 0.0283,0.9996 h 6e-4 z m -3.2854,3.0246 -0.999,-0.0449 v 10e-5 z m 3.18,3.3353 -0.0771,0.997 7e-4,1e-4 z m 129.9939,0.9324 c -0.126,7.6765 -1.204,13.7874 -3.405,19.6785 l 1.873,0.6999 c 2.294,-6.1406 3.403,-12.483 3.532,-20.3455 z m 1.006,-0.9835 h -0.006 v 2 h 0.006 z m -1.157,-0.5204 c 0.059,0.6226 0.111,1.1834 0.163,1.6347 l 1.987,-0.2287 c -0.049,-0.4255 -0.099,-0.9622 -0.158,-1.5923 z m 0.002,0.018 v 8e-4 l 1.988,-0.2239 v -8e-4 z m 0.005,0.0343 v 3e-4 l 1.978,-0.2931 v -3e-4 z m -0.68,-5.6702 c 0.334,2.0004 0.525,4.0354 0.673,5.6168 l 1.992,-0.1864 c -0.148,-1.5736 -0.344,-3.6781 -0.693,-5.7605 z M 153.467,24.6601 c 11.495,8.5347 18.522,19.8017 20.887,33.9364 l 1.972,-0.3301 C 173.874,43.6096 166.56,31.89 154.659,23.0543 Z m -3.343,0.2549 c 0.422,-0.5757 0.924,-0.8495 1.432,-0.9043 0.519,-0.056 1.176,0.1032 1.91,0.6489 l 1.193,-1.6048 c -1.042,-0.7751 -2.191,-1.1542 -3.318,-1.0326 -1.137,0.1228 -2.12,0.7425 -2.83,1.7096 z m 0.758,3.1881 c -0.692,-0.5819 -1.031,-1.171 -1.133,-1.6791 -0.098,-0.488 0.001,-0.9978 0.376,-1.5106 l -1.615,-1.18 c -0.679,0.9301 -0.938,2.0047 -0.721,3.0845 0.212,1.0597 0.861,2.0216 1.806,2.8161 z m 1.624,1.303 c -0.557,-0.4372 -1.099,-0.8628 -1.624,-1.3034 l -1.286,1.5317 c 0.554,0.4654 1.123,0.9114 1.675,1.3451 z m 0.023,0.0185 v -1e-4 l -1.281,1.5365 h 0.001 z m 3.195,2.738 c -1.01,-1.0258 -2.143,-1.9132 -3.218,-2.7565 l -1.235,1.5734 c 1.093,0.8571 2.123,1.6672 3.028,2.5865 z m 11.945,51.6937 c 3.287,-9.7876 3.947,-19.0247 1.943,-27.6809 -2.005,-8.656 -6.658,-16.6618 -13.887,-24.0123 l -1.426,1.4024 c 7.016,7.134 11.456,14.8226 13.364,23.0611 1.908,8.2382 1.3,17.0957 -1.89,26.593 z m 0.91,3.805 c -0.656,-0.2303 -1.006,-0.6234 -1.163,-1.16 -0.174,-0.5929 -0.142,-1.4697 0.253,-2.6446 l -1.895,-0.6374 c -0.466,1.3834 -0.611,2.7099 -0.277,3.8457 0.35,1.1921 1.194,2.0533 2.419,2.4834 z m 3.194,-2.2644 c -0.445,1.19 -0.966,1.8494 -1.459,2.1631 -0.446,0.2841 -0.991,0.3627 -1.735,0.1013 l -0.663,1.887 c 1.215,0.4268 2.418,0.3695 3.472,-0.301 1.007,-0.6409 1.737,-1.7546 2.258,-3.1508 z M 70.5686,65.5297 C 71.0915,49.8587 77.7944,36.0149 91.161,25.458 L 89.9214,23.8885 C 76.0948,34.8087 69.1123,49.2014 68.5697,65.463 Z m -1.7122,0.6681 0.0055,0.0055 1.4145,-1.4139 -0.0055,-0.0056 z M 91.1526,108.493 C 78.2453,98.6655 70.3564,82.7125 70.5636,65.5028 l -1.9999,-0.024 c -0.2146,17.8307 7.9571,34.3875 21.3773,44.6052 z m 4.3702,0.619 c -0.5455,0.69 -1.0107,0.87 -1.5195,0.831 -0.6276,-0.048 -1.5279,-0.444 -2.851,-1.45 l -1.211,1.591 c 1.3907,1.058 2.6796,1.759 3.9085,1.853 1.3475,0.104 2.4057,-0.526 3.242,-1.584 z m -1.7284,-4.076 c 1.2104,0.986 1.8376,1.795 2.0657,2.438 0.194,0.547 0.1296,1.047 -0.3375,1.639 l 1.5694,1.239 c 0.8482,-1.073 1.1001,-2.285 0.6531,-3.546 -0.4128,-1.164 -1.3839,-2.259 -2.6876,-3.321 z M 75.8983,57.9555 c -3.3163,19.1167 2.9204,34.8624 17.8955,47.0795 l 1.2643,-1.549 C 80.6202,91.7065 74.681,76.674 77.8689,58.2973 Z M 93.8134,28.9108 c -9.573,7.4187 -15.8373,17.0603 -17.9151,29.0448 l 1.9706,0.3416 c 1.9845,-11.446 7.9517,-20.6621 17.1696,-27.8056 z m 1.7096,-4.0794 c 0.4709,0.6066 0.5421,1.1351 0.3481,1.6943 -0.2234,0.6437 -0.8435,1.446 -2.0569,2.3845 l 1.2236,1.582 c 1.3338,-1.0316 2.3121,-2.1273 2.7227,-3.3108 0.44,-1.2681 0.181,-2.4961 -0.6577,-3.5765 z m -4.3617,0.6264 c 1.2543,-0.9913 2.1727,-1.3816 2.8234,-1.4277 0.5554,-0.0393 1.0416,0.1627 1.5388,0.802 l 1.5787,-1.2279 c -0.8236,-1.0589 -1.9134,-1.6643 -3.2588,-1.5691 -1.25,0.0885 -2.5571,0.7748 -3.9222,1.8535 z M 136.968,100.77 c 3.824,-1.4745 6.436,-1.9914 8.822,-1.5986 2.389,0.3931 4.714,1.7236 7.899,4.3356 l 1.268,-1.546 c -3.258,-2.6716 -5.919,-4.2821 -8.842,-4.7631 -2.924,-0.4813 -5.948,0.195 -9.866,1.7061 z m -1.359,-0.9496 v 0.0167 h 2 v -0.0167 z m 0,-2.4474 v 2.4474 h 2 V 97.373 Z m 0.013,-6.5359 c -0.007,2.177 -0.013,4.3561 -0.013,6.5359 h 2 c 0,-2.1763 0.006,-4.3524 0.013,-6.5299 z M 135.587,75.787 c 0.065,5.012 0.05,10.0254 0.035,15.0501 l 2,0.006 c 0.015,-5.022 0.03,-10.0515 -0.036,-15.0824 z M 123.16,62.6998 c 6.938,0.1281 12.328,5.6542 12.427,13.0873 l 1.999,-0.0265 C 137.474,67.3217 131.287,60.8495 123.197,60.7002 Z M 110.382,74.731 c 0.189,-6.7143 6.077,-12.1546 12.778,-12.0312 l 0.037,-1.9996 c -7.761,-0.143 -14.593,6.1264 -14.814,13.9744 z m -0.067,15.6968 c -0.042,-5.2486 -0.085,-10.4793 0.067,-15.696 l -1.999,-0.058 c -0.153,5.26 -0.11,10.5278 -0.068,15.7702 z m 0,0.0088 v -7e-4 h -2 v 7e-4 z m 0,-0.0071 v -0.0024 l -2,0.0189 v 0.0024 z m 0,0.0025 v -0.0025 l -2,0.0189 v 0.0024 z m 0,0.0024 V 90.432 l -2,0.0188 v 0.0025 z m 0,0.0028 v -0.0025 l -2,0.0183 v 0.0025 z m 0,0.0024 v -0.0024 l -2,0.0183 v 0.0025 z m 0,0.0025 v -0.0025 l -2,0.0184 v 0.0025 z m 0,0.0025 v -0.0025 l -2,0.0184 v 0.0025 z m 0,0.0025 v -0.0025 l -2,0.0184 v 0.0025 z m 0.028,3.7678 c -0.007,-1.2558 -0.017,-2.5118 -0.028,-3.7667 l -2,0.0162 c 0.011,1.2553 0.021,2.5092 0.028,3.7624 z m 2.142,2.5026 c -1.139,-0.0326 -2.133,-0.9482 -2.142,-2.5021 l -2,0.0109 c 0.014,2.4973 1.739,4.4232 4.085,4.4904 z m 2.193,-2.4374 c -0.111,1.6171 -1.128,2.4649 -2.196,2.4373 l -0.051,1.9994 c 2.374,0.0612 4.075,-1.8658 4.242,-4.3 z m 0.036,-2.3775 c 0.007,0.8278 0.014,1.6101 -0.036,2.3804 l 1.995,0.131 c 0.057,-0.8573 0.048,-1.7146 0.041,-2.5296 z m 0,9e-4 v 0.0019 l 2,-0.0238 v -0.0019 z m -0.005,-0.8737 c 0,0.2926 0.002,0.5845 0.005,0.8708 l 2,-0.0181 c -0.003,-0.2879 -0.005,-0.5707 -0.005,-0.8527 z m -0.008,-4.8495 c 0.005,1.6179 0.009,3.2333 0.008,4.8484 l 2,0.0022 c 10e-4,-1.6199 -0.003,-3.2395 -0.008,-4.8566 z m 0.036,-10.5337 c -0.058,3.5161 -0.047,7.0305 -0.036,10.5337 l 2,-0.006 c -0.011,-3.5064 -0.021,-7.0016 0.035,-10.4952 z m 6.998,-8.4078 c -4.092,0.4833 -6.925,3.9246 -6.998,8.4076 l 1.999,0.0329 c 0.06,-3.6306 2.277,-6.1051 5.233,-6.4543 z m 9.397,8.5006 c -0.003,-2.7229 -0.961,-5.028 -2.672,-6.5724 -1.712,-1.5456 -4.08,-2.2402 -6.725,-1.9282 l 0.234,1.9862 c 2.155,-0.2541 3.925,0.3195 5.151,1.4266 1.228,1.1083 2.01,2.8405 2.012,5.0901 z m 0.016,35.5776 c 0.001,-11.8587 0.003,-23.717 -0.016,-35.578 l -2,0.0031 c 0.019,11.8591 0.017,23.7158 0.016,35.5739 z m 0.001,17.794 c -0.002,-5.932 -0.001,-11.863 -0.001,-17.794 l -2,-10e-4 c 0,5.932 -0.001,11.863 0.001,17.796 z m -0.001,0.161 c 0.001,-0.053 0.001,-0.107 0.001,-0.161 h -2 c 0,0.05 0,0.099 -0.001,0.15 z m 0,0.101 v -0.1 l -2,-0.013 v 0.1 z m -0.001,0.101 0.001,-0.1 -2,-0.015 -0.001,0.099 z m 0,-0.007 v -0.001 h -2 v 0.001 z m 0,0 v 0 h -2 v 0 z m 0.108,1.684 c -0.112,-0.476 -0.113,-1.006 -0.108,-1.676 l -2,-0.016 c -0.005,0.623 -0.016,1.4 0.162,2.152 z m 2.094,1.777 c -0.665,-0.002 -1.092,-0.184 -1.384,-0.438 -0.304,-0.264 -0.557,-0.69 -0.71,-1.338 l -1.946,0.459 c 0.219,0.928 0.637,1.773 1.342,2.387 0.717,0.624 1.635,0.927 2.691,0.93 z m 2.108,-1.728 c -0.151,0.65 -0.407,1.061 -0.709,1.312 -0.295,0.245 -0.73,0.419 -1.399,0.416 l -0.007,2 c 1.035,0.004 1.957,-0.272 2.685,-0.879 0.723,-0.601 1.157,-1.444 1.378,-2.398 z m 0.141,-1.833 c 0,0.694 -0.015,1.291 -0.141,1.831 l 1.948,0.455 c 0.185,-0.792 0.193,-1.604 0.193,-2.286 z m 0.003,-6.382 c 0,2.128 0.001,4.255 -0.003,6.38 l 2,0.004 c 0.004,-2.128 0.003,-4.256 0.003,-6.384 z m 0,0 v 0 h 2 v 0 z m 0,0 v 0 h 2 v 0 z m 0,0 v 0 h 2 v 0 z m 0,0 v 0 h 2 v 0 z m 0,-0.001 v 0.001 h 2 v -0.001 z m 0,0 v 0 h 2 v 0 z m 0,0 v 0 h 2 v 0 z m 0,0 v 0 h 2 v 0 z m 0.019,-10.649 c -0.021,3.551 -0.02,7.103 -0.019,10.649 h 2 c -0.001,-3.548 -0.002,-7.093 0.019,-10.638 z m 0.42,-3.36 c -0.362,1.118 -0.409,2.33 -0.42,3.355 l 2,0.021 c 0.011,-1.017 0.063,-1.958 0.323,-2.76 z m 9.068,-5.522 c -4.032,-0.575 -7.817,1.629 -9.068,5.524 l 1.904,0.612 c 0.935,-2.91 3.754,-4.602 6.881,-4.156 z m 6.818,7.69 c -0.082,-3.986 -3.082,-7.157 -6.818,-7.69 l -0.283,1.98 c 2.801,0.4 5.04,2.779 5.102,5.752 z m 0.076,11.745 c 0.004,-3.908 0.008,-7.828 -0.076,-11.745 l -1.999,0.042 c 0.082,3.892 0.079,7.79 0.075,11.701 z m 0,0 v -0.001 h -2 v 0.001 z m 0.008,6.334 c -0.012,-2.109 -0.01,-4.219 -0.008,-6.333 l -2,-0.002 c -0.002,2.113 -0.004,4.23 0.008,6.346 z m -0.011,0.544 c 0.005,-0.17 0.011,-0.357 0.011,-0.538 h -2 c 0,0.144 -0.005,0.298 -0.01,0.474 z m 0.1,1.302 c -0.017,-0.023 -0.068,-0.12 -0.094,-0.382 -0.026,-0.257 -0.018,-0.553 -0.006,-0.92 L 150,129.702 c -0.011,0.339 -0.026,0.771 0.014,1.181 0.041,0.405 0.145,0.914 0.462,1.355 z m 1.849,1.7 c -0.086,-0.003 -0.351,-0.093 -0.778,-0.473 -0.387,-0.345 -0.767,-0.804 -1.071,-1.226 l -1.623,1.168 c 0.351,0.489 0.828,1.073 1.363,1.551 0.496,0.442 1.219,0.954 2.049,0.979 z m 2.357,-1.476 c -0.383,0.386 -0.84,0.781 -1.297,1.069 -0.48,0.303 -0.841,0.413 -1.063,0.407 l -0.054,1.999 c 0.811,0.022 1.582,-0.334 2.184,-0.714 0.625,-0.394 1.2,-0.899 1.649,-1.351 z m 0.111,-1.389 c 0.003,0.4 0.005,0.75 -0.034,1.046 -0.043,0.328 -0.111,0.377 -0.074,0.341 l 1.414,1.414 c 0.452,-0.452 0.588,-1.069 0.643,-1.497 0.06,-0.459 0.054,-0.952 0.051,-1.321 z m -0.001,-0.128 0.001,0.127 2,-0.016 -0.001,-0.127 z m -0.001,-0.153 c 0,0.05 0,0.101 0.001,0.152 l 2,-0.014 c -0.001,-0.048 -0.001,-0.094 -0.001,-0.138 z m 0.007,-7.408 c 0.002,2.47 0.004,4.936 -0.007,7.403 l 2,0.01 c 0.011,-2.474 0.009,-4.946 0.007,-7.415 z m 0,-0.003 v 0.002 h 2 v -0.002 z m 0,0 v 0 h 2 v 0 z m 0,0 v 0 h 2 v 0 z m 0,-0.001 v 0.001 h 2 v -0.001 z m 0,0 v 0 h 2 v 0 z m 0,0 v 0 h 2 v 0 z m 0,0 v 0 h 2 v 0 z m 0,0 v 0 h 2 v 0 z m 0.032,-10.874 c -0.04,3.629 -0.036,7.255 -0.032,10.875 l 2,-0.002 c -0.004,-3.621 -0.008,-7.236 0.032,-10.851 z m 8.038,-7.937 c -4.393,0.044 -7.987,3.478 -8.038,7.937 l 2,0.022 c 0.038,-3.332 2.715,-5.926 6.058,-5.959 z m 8.402,8.723 c -0.033,-2.558 -0.879,-4.76 -2.383,-6.324 -1.509,-1.568 -3.614,-2.424 -6.019,-2.399 l 0.02,2 c 1.902,-0.02 3.462,0.648 4.558,1.786 1.099,1.143 1.797,2.832 1.824,4.963 z m 0.032,11.744 c 0.012,-3.908 0.023,-7.826 -0.032,-11.745 l -2,0.028 c 0.055,3.9 0.044,7.8 0.032,11.711 z m -0.01,4.885 c 0,-1.628 0.005,-3.255 0.01,-4.885 l -2,-0.006 c -0.005,1.629 -0.01,3.26 -0.01,4.891 z m 0,0.632 c 0.001,-0.207 0.002,-0.423 0,-0.641 l -2,0.017 c 0.002,0.201 0.001,0.402 0,0.612 z m 0,-0.006 v 0 h -2 v 0 z m 0.016,1.19 c -0.021,-0.379 -0.019,-0.763 -0.016,-1.184 l -2,-0.012 c -0.003,0.411 -0.006,0.855 0.018,1.303 z m 2.171,2.362 c -0.699,0.014 -1.183,-0.203 -1.511,-0.542 -0.34,-0.352 -0.609,-0.937 -0.661,-1.824 l -1.996,0.116 c 0.071,1.227 0.462,2.315 1.219,3.098 0.77,0.796 1.82,1.176 2.991,1.151 z m 2.118,-2.424 c -0.005,0.836 -0.258,1.427 -0.603,1.802 -0.341,0.371 -0.844,0.609 -1.512,0.622 l 0.036,1.999 c 1.158,-0.021 2.198,-0.453 2.946,-1.265 0.744,-0.807 1.126,-1.909 1.133,-3.148 z m 0.014,-9.442 c 0.002,3.15 0.005,6.296 -0.014,9.441 l 2,0.012 c 0.019,-3.153 0.016,-6.306 0.014,-9.454 z m 0.014,-9.456 c -0.02,3.154 -0.017,6.307 -0.014,9.456 l 2,-0.001 c -0.003,-3.151 -0.006,-6.297 0.014,-9.442 z m 5.707,-7.813 c -3.438,1.142 -5.682,4.116 -5.707,7.813 l 2,0.013 c 0.019,-2.818 1.692,-5.05 4.337,-5.928 z m 9.06,2.984 c -1.876,-3.146 -5.808,-4.056 -9.058,-2.985 l 0.626,1.9 c 2.577,-0.85 5.426,-0.05 6.714,2.109 z m 1.7,6.142 c -0.006,-2.076 -0.637,-4.361 -1.7,-6.143 l -1.718,1.026 c 0.879,1.471 1.413,3.404 1.418,5.123 z m 0.05,73.105 c 0.061,-24.37 0.05,-48.735 -0.05,-73.106 l -2,0.008 c 0.1,24.366 0.111,48.727 0.05,73.093 z m 0.033,5.07 c -0.017,-1.369 -0.037,-3.02 -0.033,-5.07 l -2,-0.004 c -0.005,2.065 0.016,3.729 0.033,5.099 z m 0,0.013 v 0 h -2 v 0 z m 0,0 v 0 h -2 v 0 z m 0,0 v 0 h -2 v 0 z m -0.385,6.711 c 0.456,-1.675 0.425,-3.467 0.385,-6.723 l -2,0.025 c 0.042,3.372 0.051,4.831 -0.315,6.173 z m -2.853,5.68 c 1.532,-2.591 2.414,-4.067 2.853,-5.68 l -1.93,-0.525 c -0.351,1.292 -1.058,2.503 -2.645,5.187 z m -0.008,0.014 0.001,-0.001 -1.707,-1.043 v 0.001 z m 0.003,-0.005 0.001,-0.002 -1.715,-1.029 -0.001,0.002 z m 0.008,-0.014 0.001,-0.001 -1.732,-1 -0.001,0.001 z m -2.589,4.45 c 1.035,-1.822 1.885,-3.258 2.584,-4.441 l -1.722,-1.018 c -0.699,1.184 -1.556,2.633 -2.601,4.471 z m -0.813,2.608 c 0.009,-0.81 0.341,-1.773 0.814,-2.609 l -1.74,-0.986 c -0.57,1.007 -1.06,2.308 -1.074,3.573 z m -0.036,20.159 c -0.022,-6.725 -0.043,-13.444 0.036,-20.158 l -2,-0.024 c -0.079,6.731 -0.058,13.466 -0.036,20.188 z m 0,0.003 v 0 h -2 v 0 z m 0,0 v 0 h -2 v 0 z m 0,0 v 0 h -2 v 0 z m 0,0 v 0 h -2 v 0 z m 0,0 v 0 h -2 v 0 z m 0,0.001 v -0.001 h -2 v 0.001 z m 0,0 v 0 h -2 v 0 z m 0,0.003 v -0.003 h -2 v 0.003 z m 0.003,1.003 -0.003,-1.006 -2,0.006 0.003,1.006 z m 2.116,2.577 c -0.715,0.002 -1.2,-0.234 -1.52,-0.597 -0.335,-0.38 -0.591,-1.016 -0.596,-1.982 l -2,0.01 c 0.006,1.298 0.353,2.452 1.096,3.295 0.757,0.859 1.826,1.278 3.026,1.274 z m 2.127,-2.59 c -0.004,0.943 -0.261,1.582 -0.603,1.972 -0.33,0.375 -0.822,0.616 -1.524,0.618 l 0.006,2 c 1.201,-0.003 2.266,-0.44 3.02,-1.298 0.741,-0.843 1.095,-1.994 1.101,-3.282 z m 0.058,-3.482 c -0.026,1.155 -0.051,2.318 -0.058,3.482 l 2,0.011 c 0.007,-1.145 0.032,-2.292 0.057,-3.449 z m -0.001,0.022 v 0 h 2 v 0 z m 0,-10e-4 v 10e-4 h 2 v -10e-4 z m 0,0 v 0 h 2 v 0 z m 0,-0.001 v 0.001 h 2 v -0.001 z m 0,-0.001 v 0.001 h 2 v -0.001 z m 0,0 v 0 h 2 v 0 z m 0,-0.001 v 0.001 h 2 v -0.001 z m 0,0 v 0 h 2 v 0 z m 0,-0.001 v 0.001 h 2 v -0.001 z m -0.114,-8.693 c 0.241,2.847 0.179,5.728 0.115,8.671 l 1.999,0.044 c 0.064,-2.925 0.131,-5.913 -0.121,-8.885 z m 4.328,-16.422 c -3.45,5.041 -4.841,10.36 -4.328,16.421 l 1.993,-0.168 c -0.475,-5.604 0.797,-10.464 3.985,-15.123 z m 2.267,-6.773 c -0.015,2.236 -0.949,4.843 -2.268,6.774 l 1.652,1.128 c 1.5,-2.198 2.598,-5.185 2.616,-7.888 z m 0.083,-85.55 c 0.056,28.519 0.083,57.036 -0.083,85.551 l 2,0.012 c 0.166,-28.524 0.139,-57.047 0.083,-85.567 z M 187.42,99.1916 c 5.651,0.7339 10.562,5.9874 10.572,11.6134 l 2,-0.004 c -0.012,-6.705 -5.745,-12.7395 -12.314,-13.5927 z m -11.642,4.3014 c 3.227,-3.415 7.022,-4.9008 11.642,-4.3014 l 0.257,-1.9834 c -5.302,-0.688 -9.72,1.0671 -13.353,4.9108 z m -11.08,-4.4485 c 3.783,0.0103 6.912,1.5665 9.625,4.4475 l 1.456,-1.371 c -3.026,-3.2132 -6.656,-5.0645 -11.075,-5.0765 z m -9.637,4.3645 c 2.597,-2.841 5.787,-4.3747 9.637,-4.3645 l 0.006,-2 c -4.463,-0.0119 -8.177,1.7956 -11.119,5.0145 z M 129.838,234.92 c -1.21,-0.907 -1.523,-2.142 -1.497,-3.914 l -2,-0.029 c -0.03,2.013 0.323,4.064 2.298,5.543 z m 1.892,-0.2 h -2.491 v 2 h 2.491 z m 1.071,-3.403 c 0.012,0.858 -0.099,1.544 -0.346,2.107 -0.24,0.548 -0.632,1.034 -1.278,1.463 l 1.107,1.666 c 0.941,-0.626 1.598,-1.402 2.003,-2.326 0.399,-0.91 0.528,-1.905 0.513,-2.939 z m 0,-16.637 c -0.101,5.546 -0.089,11.096 0,16.638 l 1.999,-0.032 c -0.088,-5.523 -0.099,-11.05 0,-16.57 z m -1.769,-3.935 c 1.25,1.129 1.797,2.27 1.769,3.936 l 1.999,0.034 c 0.039,-2.297 -0.79,-3.975 -2.427,-5.454 z m -4.768,-4.456 c 1.57,1.492 3.151,2.994 4.768,4.456 l 1.341,-1.484 c -1.596,-1.442 -3.158,-2.927 -4.731,-4.422 z m -7.573,-6.902 c 2.603,2.18 5.075,4.528 7.573,6.902 l 1.378,-1.45 c -2.491,-2.367 -5.008,-4.759 -7.668,-6.985 z m -15.018,-19.803 c 3.159,8.061 8.518,14.361 15.018,19.803 l 1.284,-1.533 c -6.332,-5.302 -11.439,-11.344 -14.44,-19 z m -0.253,-0.478 c 0.126,0.214 0.202,0.349 0.253,0.477 l 1.862,-0.728 c -0.118,-0.302 -0.281,-0.574 -0.392,-0.763 z m -0.015,-0.025 v 0 l 1.753,-0.964 h -0.001 z m 0.014,0.025 0.001,0.001 1.723,-1.016 h -0.001 z m -0.049,-0.083 0.049,0.082 1.724,-1.013 -0.048,-0.083 z m -0.019,-0.033 0.018,0.03 1.728,-1.008 -0.018,-0.029 z m -3.056,-1.199 c 0.985,-0.499 2.261,-0.163 3.057,1.2 l 1.727,-1.009 c -1.213,-2.077 -3.566,-3.051 -5.6891,-1.975 z m -0.8304,3.121 c -0.6691,-1.372 -0.197,-2.6 0.8294,-3.121 l -0.904,-1.784 c -2.1254,1.078 -2.8076,3.557 -1.723,5.781 z m 1.5644,3.035 c -0.537,-1.018 -1.0668,-2.021 -1.5655,-3.038 l -1.7954,0.882 c 0.5139,1.047 1.0573,2.076 1.5925,3.09 z m 2.113,4.182 c -0.659,-1.429 -1.393,-2.819 -2.113,-4.182 l -1.7684,0.934 c 0.7238,1.371 1.4324,2.713 2.0654,4.086 z m 6.975,9.165 c -2.963,-2.66 -5.329,-5.606 -6.975,-9.166 l -1.815,0.84 c 1.783,3.855 4.333,7.013 7.454,9.814 z m 16.721,15.593 c -5.507,-5.257 -11.049,-10.499 -16.721,-15.593 l -1.337,1.488 c 5.649,5.073 11.173,10.297 16.677,15.551 z m 1.469,3.34 c -0.028,-1.153 -0.615,-2.537 -1.474,-3.345 l -1.371,1.456 c 0.451,0.424 0.83,1.293 0.846,1.938 z m 0.034,14.778 c 0.066,-4.917 0.083,-9.848 -0.034,-14.777 l -1.999,0.047 c 0.116,4.894 0.099,9.798 0.033,14.703 z m -18.009,-90.399 v -3.964 h -2 v 3.964 z m -5.961,-3.257 c 1.391,1.3 2.812,2.628 4.282,3.991 l 1.359,-1.467 c -1.466,-1.359 -2.884,-2.685 -4.276,-3.985 z m -0.025,-0.024 v 0 l 1.415,-1.414 h -10e-4 z m 0.02,0.02 0.002,0.001 1.37,-1.456 -0.002,-0.002 z m 0.004,0.003 10e-4,10e-4 1.361,-1.465 -0.001,-10e-4 z m -8.7465,-8.063 c 2.9021,2.6 5.7515,5.264 8.7435,8.061 l 1.366,-1.461 c -2.989,-2.795 -5.8543,-5.473 -8.7748,-8.09 z m -13.3933,-0.609 c 3.9282,-3.045 9.5112,-2.871 13.3931,0.609 l 1.335,-1.49 c -4.5867,-4.111 -11.2463,-4.349 -15.9533,-0.7 z m -2.933,12.932 c -2.2944,-4.548 -1.0022,-9.885 2.9327,-12.932 l -1.2246,-1.581 c -4.6781,3.623 -6.2273,9.995 -3.4938,15.414 z m 11.4974,22.408 c -3.8619,-7.46 -7.7207,-14.915 -11.4973,-22.407 l -1.7859,0.9 c 3.7822,7.504 7.646,14.968 11.507,22.426 z m 2.2278,4.305 c -0.7423,-1.435 -1.4851,-2.87 -2.2278,-4.305 l -1.7762,0.919 c 0.7428,1.435 1.4855,2.87 2.2275,4.305 z m 3.1,1.424 c -0.6454,0.302 -1.1899,0.301 -1.6482,0.111 -0.4784,-0.199 -0.9989,-0.663 -1.4525,-1.536 l -1.7751,0.921 c 0.6009,1.158 1.4262,2.032 2.46,2.461 1.0539,0.438 2.1883,0.357 3.2632,-0.146 z m 0.7317,-3.418 c 0.4429,0.895 0.508,1.633 0.3703,2.17 -0.1317,0.513 -0.4752,0.953 -1.1035,1.249 l 0.8505,1.81 c 1.1198,-0.526 1.8973,-1.421 2.1902,-2.562 0.2868,-1.117 0.08,-2.352 -0.5149,-3.554 z m -2.8194,-5.521 c 0.9525,1.842 1.9009,3.676 2.8205,5.523 l 1.7904,-0.891 c -0.9276,-1.863 -1.883,-3.711 -2.8343,-5.551 z m -0.0025,-0.005 0.0019,0.004 1.7778,-0.917 -0.002,-0.003 z m -1.1392,-2.208 c 0.379,0.738 0.7597,1.474 1.1398,2.209 l 1.7765,-0.919 c -0.3802,-0.735 -0.7598,-1.469 -1.1375,-2.204 z m -2.6659,-5.178 c 0.8893,1.726 1.7785,3.451 2.6659,5.178 l 1.7789,-0.914 c -0.8881,-1.728 -1.7778,-3.454 -2.667,-5.18 z m -0.0016,-0.003 0.0016,0.003 1.7779,-0.916 -0.0015,-0.003 z m -0.0015,-0.003 0.0015,0.003 1.778,-0.916 -0.0016,-0.003 z m -0.0016,-0.003 0.0016,0.003 1.7779,-0.916 -0.0016,-0.003 z m -0.0016,-0.003 0.0016,0.003 1.7779,-0.916 -0.0015,-0.003 z m -0.0015,-0.003 0.0015,0.003 1.778,-0.916 -0.0016,-0.003 z m -0.0016,-0.003 0.0016,0.003 1.7779,-0.916 -0.0015,-0.003 z m -0.005,-0.01 0.0054,0.011 1.7772,-0.918 -0.0055,-0.01 z m -9e-4,-0.001 0.0017,0.003 1.7756,-0.921 -0.0016,-0.003 z m -0.0031,-0.006 0.0017,0.003 1.7785,-0.915 -0.0016,-0.003 z M 83.339,139.963 c 2.2674,4.487 4.5691,8.953 6.8701,13.417 l 1.7778,-0.916 c -2.3016,-4.466 -4.5996,-8.925 -6.8629,-13.403 z m 1.6729,-7.92 c -1.2297,0.913 -2.0535,2.133 -2.3542,3.54 -0.3,1.404 -0.0623,2.911 0.6817,4.38 l 1.7842,-0.903 c -0.5713,-1.128 -0.6999,-2.171 -0.5101,-3.059 0.1891,-0.885 0.7111,-1.699 1.5902,-2.351 z m 7.8847,0.573 c -1.2109,-1.025 -2.5614,-1.636 -3.9461,-1.747 -1.394,-0.111 -2.7514,0.292 -3.9392,1.175 l 1.1929,1.605 c 0.8213,-0.61 1.7031,-0.856 2.5873,-0.786 0.8934,0.071 1.8599,0.473 2.8133,1.28 z m 1.0064,0.926 c -0.3111,-0.299 -0.6476,-0.622 -1.0059,-0.926 l -1.2927,1.526 c 0.3026,0.257 0.5943,0.536 0.9132,0.843 z m 10e-5,0 h -3e-4 l -1.385,1.443 h 2e-4 z m 0.3973,0.379 c -0.1313,-0.123 -0.2619,-0.249 -0.3971,-0.378 l -1.3854,1.442 c 0.1338,0.128 0.2725,0.262 0.4135,0.394 z m 4.1918,3.9 c -1.3991,-1.301 -2.7977,-2.602 -4.1947,-3.903 l -1.3631,1.464 c 1.3977,1.302 2.7969,2.603 4.1959,3.904 z m 0.0029,0.003 -0.0027,-0.003 -1.3623,1.464 0.0026,0.003 z m 0.0026,0.002 -0.0026,-0.002 -1.3624,1.464 0.0026,0.002 z m 0.0026,0.002 -0.0026,-0.002 -1.3624,1.464 0.0027,0.003 z m 0.0027,0.003 -0.0027,-0.003 -1.3623,1.465 0.0026,0.002 z m 0.0026,0.002 -0.0026,-0.002 -1.3624,1.464 0.0026,0.003 z m 0.0026,0.003 -0.0026,-0.003 -1.3624,1.465 0.0027,0.002 z m 0.0081,0.007 h -5e-4 l -1.3775,1.45 h 5e-4 z m 4e-4,0.001 -4e-4,-0.001 -1.3775,1.45 4e-4,0.001 z m 5e-4,0 h -5e-4 l -1.3775,1.45 h 5e-4 z m 4e-4,0.001 -4e-4,-0.001 -1.3775,1.45 4e-4,10e-4 z m 5e-4,0 h -5e-4 l -1.3775,1.45 h 5e-4 z m 4e-4,0.001 -4e-4,-0.001 -1.3775,1.45 4e-4,0.001 z m -0.0193,-0.018 -4e-4,-0.001 -1.338,1.487 h 5e-4 z m 12.0468,11.25 c -3.995,-3.764 -8.018,-7.504 -12.0348,-11.239 l -1.3619,1.464 c 4.0177,3.736 8.0357,7.472 12.0247,11.231 z m 2.889,0.837 c -0.549,0.219 -1.011,0.22 -1.439,0.091 -0.452,-0.136 -0.931,-0.437 -1.45,-0.927 l -1.372,1.455 c 0.651,0.614 1.393,1.131 2.245,1.388 0.876,0.263 1.802,0.231 2.757,-0.149 z m 1.291,-2.651 c 0.007,0.71 -0.076,1.28 -0.273,1.713 -0.181,0.396 -0.475,0.72 -1.02,0.939 l 0.745,1.856 c 1.031,-0.414 1.705,-1.111 2.095,-1.965 0.373,-0.817 0.462,-1.726 0.453,-2.564 z m 0,-0.632 v 0.621 h 2 v -0.621 z M 114.72,109.25 c 0.006,12.459 0.006,24.917 0.006,37.382 h 2 c 0,-12.465 0,-24.924 -0.006,-37.383 z m -0.134,-1.888 c 0.107,0.591 0.134,1.221 0.134,1.887 h 2 c 0,-0.709 -0.028,-1.478 -0.166,-2.241 z m -1.831,-1.607 c 0.578,0.059 0.976,0.235 1.246,0.471 0.264,0.231 0.482,0.585 0.586,1.143 l 1.966,-0.368 c -0.173,-0.924 -0.579,-1.707 -1.236,-2.281 -0.652,-0.569 -1.472,-0.864 -2.359,-0.955 z m -2.12,1.207 c 0.197,-0.501 0.477,-0.806 0.792,-0.986 0.32,-0.183 0.756,-0.28 1.328,-0.221 l 0.203,-1.99 c -0.899,-0.092 -1.77,0.045 -2.523,0.475 -0.76,0.433 -1.32,1.121 -1.661,1.991 z m -0.286,2.06 c 0,-0.784 0.064,-1.497 0.285,-2.057 l -1.86,-0.736 c -0.366,0.927 -0.425,1.956 -0.425,2.793 z m -0.018,21.475 c -0.002,-7.159 -0.003,-14.316 0.018,-21.472 l -2,-0.006 c -0.021,7.16 -0.02,14.32 -0.018,21.478 z m 0,0.007 v -0.007 h -2 v 0.007 z m 10e-4,6.138 c 0,-2.046 0,-4.092 -10e-4,-6.138 h -2 c 10e-4,2.046 10e-4,4.092 10e-4,6.138 z M 102.876,81.8163 C 99.7507,77.3481 98.0562,72.5054 98.0455,67.0872 l -2,0.0039 c 0.0116,5.8697 1.8577,11.1052 5.1915,15.8716 z m 0.962,4.3644 c 0.27,-1.3992 -0.142,-3.1997 -0.963,-4.3666 l -1.636,1.1507 c 0.522,0.7422 0.798,1.994 0.635,2.8368 z m -3.285,2.6966 c 0.74,-0.029 1.493,-0.4569 2.017,-0.8771 0.283,-0.2265 0.552,-0.492 0.77,-0.7795 0.21,-0.2768 0.418,-0.6326 0.497,-1.0374 l -1.962,-0.3843 c 0.001,-0.008 -0.017,0.0663 -0.128,0.2126 -0.102,0.1355 -0.25,0.2858 -0.427,0.4276 -0.395,0.3166 -0.736,0.4353 -0.845,0.4396 z m -3.9521,-1.7567 c 0.4626,0.562 1.13,1.0037 1.7971,1.2983 0.6676,0.2948 1.4397,0.4887 2.158,0.4583 l -0.084,-1.9983 c -0.331,0.014 -0.7932,-0.0807 -1.266,-0.2895 -0.4734,-0.209 -0.852,-0.486 -1.061,-0.7398 z M 90.122,72.6368 c 0.9192,5.327 2.9924,10.2667 6.4802,14.4855 l 1.5415,-1.2744 C 94.9053,81.9309 92.9606,77.3252 92.0929,72.2967 Z M 115.094,34.7222 C 98.0518,38.791 87.1582,55.3975 90.1219,72.6362 l 1.9711,-0.3389 c -2.7858,-16.2035 7.4536,-31.807 23.465,-35.6298 z m 27,5.2704 c -8.195,-5.7414 -17.267,-7.5979 -27.001,-5.2703 l 0.466,1.9451 c 9.157,-2.1898 17.644,-0.4613 25.388,4.9632 z m 1.72,6.4335 c 0.771,-1.0501 1.082,-2.2282 0.729,-3.4342 -0.337,-1.1514 -1.228,-2.1447 -2.449,-2.9994 l -1.147,1.6382 c 1.038,0.7269 1.52,1.3874 1.677,1.9231 0.141,0.4811 0.066,1.0234 -0.422,1.6882 z m -6.477,0.3997 c 1.183,0.8096 2.373,1.2981 3.527,1.2605 1.213,-0.0395 2.205,-0.6524 2.948,-1.658 l -1.609,-1.1885 c -0.45,0.6093 -0.912,0.8316 -1.404,0.8476 -0.551,0.0179 -1.318,-0.2178 -2.332,-0.9122 z m -33.056,3.7006 c 8.449,-9.531 22.273,-11.0856 33.056,-3.7008 l 1.13,-1.6502 c -11.582,-7.9322 -26.539,-6.2902 -35.682,4.0243 z M 98.04,67.093 c -0.0107,-6.3177 2.061,-11.8518 6.241,-16.5665 l -1.496,-1.3269 c -4.5101,5.0859 -6.7565,11.0951 -6.745,17.8968 z m -1.7016,-0.711 -0.0055,0.0056 1.4142,1.4142 0.0055,-0.0056 z m 53.4536,19.9242 c 4.139,-5.7856 6.22,-12.2551 6.208,-19.3745 l -2,0.0032 c 0.011,6.6992 -1.938,12.7608 -5.834,18.2076 z m -6.26,1.7503 c 1.033,0.7136 2.182,0.9697 3.345,0.6127 1.113,-0.3414 2.08,-1.1965 2.915,-2.3628 l -1.626,-1.164 c -0.703,0.9814 -1.347,1.4526 -1.876,1.6148 -0.478,0.1467 -0.999,0.0837 -1.621,-0.3459 z m -0.612,-6.4588 c -0.789,1.1555 -1.223,2.3627 -1.139,3.5277 0.087,1.2036 0.716,2.2129 1.75,2.9301 l 1.14,-1.6432 c -0.598,-0.415 -0.857,-0.9013 -0.895,-1.4306 -0.041,-0.5679 0.164,-1.3307 0.796,-2.2564 z m 2.498,-24.9651 c 3.764,8.7979 2.879,17.0731 -2.499,24.9658 l 1.653,1.1262 c 5.755,-8.4454 6.723,-17.4406 2.685,-26.8788 z m 1.724,-6.1173 c -1.109,0.5156 -1.884,1.3739 -2.178,2.5172 -0.283,1.1041 -0.084,2.3403 0.454,3.5992 l 1.839,-0.7851 c -0.434,-1.0164 -0.492,-1.7836 -0.355,-2.3167 0.126,-0.4938 0.45,-0.9064 1.083,-1.201 z m 5.905,2.7516 c -0.593,-1.2634 -1.417,-2.2519 -2.469,-2.7733 -1.085,-0.5383 -2.283,-0.514 -3.436,0.0217 l 0.843,1.8136 c 0.663,-0.3079 1.221,-0.2836 1.705,-0.0436 0.518,0.257 1.075,0.8251 1.547,1.8315 z m 2.948,13.6653 c -0.006,-4.9253 -0.977,-9.4551 -2.947,-13.6641 l -1.811,0.8476 c 1.837,3.9267 2.752,8.1654 2.758,12.8188 z M 155,65.9333 h -0.005 v 2 H 155 Z M 56.0616,45.083 c -0.2286,0.2627 -0.4421,0.5676 -0.6228,0.8242 l 1.6352,1.1516 c 0.1954,-0.2775 0.3481,-0.4925 0.4964,-0.6629 z m -0.5015,-0.0644 c 0.0762,0.2851 0.1712,0.6419 0.3103,1.0462 l 1.8912,-0.6507 c -0.1136,-0.33 -0.1926,-0.6247 -0.2692,-0.9117 z m -0.2613,-0.7662 c 0.0465,0.052 0.1013,0.1673 0.2613,0.7662 l 1.9323,-0.5162 C 57.3755,44.065 57.223,43.4043 56.7904,42.92 Z m -0.242,-0.2702 0.243,0.2712 1.4896,-1.3345 -0.243,-0.2712 z m -0.0145,-0.0166 v 10e-5 l 1.5185,-1.3016 v 0 z M 47.8803,36.27 c 2.4765,2.4659 4.8177,5.0791 7.1764,7.7121 l 1.4897,-1.3345 c -2.3523,-2.6258 -4.7312,-5.2819 -7.2549,-7.7948 z m -2.6877,0.1528 c 0.5088,-0.4867 1.0034,-0.6904 1.4156,-0.711 0.3928,-0.0197 0.8295,0.1197 1.2738,0.5599 l 1.4078,-1.4206 c -0.7933,-0.7862 -1.7606,-1.1879 -2.7816,-1.1368 -1.0016,0.0501 -1.9304,0.529 -2.6981,1.2632 z m -0.2932,2.7217 c -0.3964,-0.4619 -0.5182,-0.9158 -0.478,-1.3263 0.0415,-0.4244 0.2682,-0.9143 0.7712,-1.3954 l -1.3825,-1.4453 c -0.7734,0.7398 -1.282,1.6512 -1.3792,2.6461 -0.0987,1.0089 0.2375,1.9923 0.9509,2.8235 z m 7.3009,7.7359 c -2.5734,-2.4146 -4.9841,-5.033 -7.3004,-7.7354 l -1.5185,1.3016 c 2.3454,2.7363 4.8072,5.4122 7.4504,7.8923 z m 2.1619,0.1958 c -0.2771,0.1018 -0.7473,0.1547 -1.2403,0.1001 -0.5199,-0.0577 -0.8272,-0.2072 -0.9206,-0.295 l -1.3704,1.4568 c 0.5615,0.5281 1.3891,0.7504 2.0706,0.826 0.7086,0.0785 1.5065,0.026 2.1506,-0.2107 z m 1.0766,-1.169 c -0.2293,0.3256 -0.4207,0.5948 -0.6217,0.8137 -0.2001,0.218 -0.3486,0.3162 -0.4554,0.3555 l 0.6909,1.8768 c 0.5283,-0.1944 0.9328,-0.5475 1.2378,-0.8797 0.3041,-0.3312 0.5697,-0.711 0.7836,-1.0147 z m -0.372,30.8579 C 54.782,76.5873 54.5591,76.4469 54.3786,76.3062 l -1.2295,1.5774 c 0.278,0.2167 0.5945,0.4132 0.8582,0.5779 z m 1.9166,1.8405 c -0.2111,-0.5025 -0.5733,-0.8731 -0.9052,-1.1455 -0.3312,-0.2719 -0.709,-0.5061 -1.0114,-0.695 l -1.0595,1.6964 c 0.3262,0.2037 0.5888,0.3695 0.8018,0.5444 0.2123,0.1742 0.298,0.2972 0.3303,0.3742 z m -0.2602,4.2407 c 0.5004,-0.6094 0.6315,-1.468 0.6385,-2.1421 0.0074,-0.7137 -0.1219,-1.4869 -0.3781,-2.0979 l -1.8445,0.7732 c 0.1324,0.3157 0.2278,0.8106 0.2227,1.304 -0.0055,0.5329 -0.1241,0.8203 -0.1842,0.8936 z m -7.5177,8.1071 c 2.6333,-2.5607 5.1801,-5.2526 7.5186,-8.1082 l -1.5474,-1.2671 c -2.2788,2.7828 -4.7711,5.4186 -7.3655,7.9414 z m -5.492,-0.2683 c 0.7458,0.7525 1.6712,1.2544 2.6711,1.3361 1.0215,0.0834 2.0133,-0.282 2.8211,-1.068 L 47.811,89.5197 c -0.4242,0.4127 -0.8587,0.5412 -1.2635,0.5081 -0.4263,-0.0348 -0.9272,-0.26 -1.4134,-0.7506 z m -0.381,-5.2906 c -0.6981,0.812 -0.9984,1.7759 -0.8982,2.747 0.0985,0.954 0.5737,1.8347 1.2807,2.5451 l 1.4176,-1.4109 c -0.4473,-0.4494 -0.6658,-0.9229 -0.7089,-1.3396 -0.0412,-0.3997 0.0691,-0.8232 0.4254,-1.2377 z m 7.5001,-8.0644 c -2.5465,2.6186 -5.1028,5.2695 -7.5008,8.0653 l 1.5181,1.3021 c 2.3525,-2.7427 4.8685,-5.3529 7.4165,-7.9731 z m 1.6768,-0.8583 c -0.4665,0.1495 -1.1846,0.3533 -1.676,0.8575 l 1.4322,1.3959 c 0.069,-0.0707 0.2215,-0.146 0.8544,-0.3489 z m 0.8859,-0.3099 c -0.3075,0.1241 -0.595,0.2166 -0.8859,0.3099 l 0.6106,1.9045 c 0.2864,-0.0918 0.6393,-0.2046 1.0234,-0.3595 z m 1.0755,1.6403 0.0055,-0.0056 -1.4138,-1.4145 -0.0056,0.0055 z M 49.3241,63.8025 c -0.4455,0 -0.8892,0.009 -1.3211,0.0177 l 0.0404,1.9996 c 0.4352,-0.0087 0.8588,-0.0173 1.2807,-0.0173 z m -0.7128,1.7015 0.0056,0.0056 1.4144,-1.4141 -0.0056,-0.0055 z m 2.0556,-1.6915 C 50.2253,63.804 49.7703,63.7952 49.3145,63.797 l 0.0081,2 c 0.4286,-0.0017 0.8603,0.0065 1.3058,0.0151 z m 2.7014,-0.0397 c -0.8697,0.074 -1.7555,0.0579 -2.7014,0.0397 l -0.0385,1.9996 c 0.9281,0.0178 1.9184,0.0378 2.9093,-0.0464 z m 2.1593,-2.2012 c 0.0105,0.669 -0.1935,1.1675 -0.517,1.512 -0.3261,0.3472 -0.8541,0.6226 -1.6418,0.6892 l 0.1684,1.9929 c 1.1824,-0.0999 2.2056,-0.5404 2.9312,-1.3128 0.7281,-0.7752 1.0763,-1.8 1.059,-2.9125 z M 53.3244,59.431 c 0.7499,0.0257 1.2814,0.2825 1.6251,0.6307 0.345,0.3494 0.5679,0.8581 0.5781,1.5101 l 1.9998,-0.0316 C 57.5099,60.4329 57.1195,59.4128 56.3726,58.6564 55.6245,57.8988 54.5854,57.473 53.3929,57.4322 Z m -8.006,-0.0054 c 2.6698,-0.0772 5.345,-0.0881 8.0052,0.0053 l 0.0702,-1.9987 c -2.7119,-0.0953 -5.4309,-0.0839 -8.1332,-0.0058 z m -2.3153,2.0698 c 0.0282,-0.6291 0.2625,-1.118 0.6231,-1.457 0.3629,-0.3411 0.9192,-0.5909 1.6916,-0.6128 l -0.0566,-1.9992 c -1.1866,0.0336 -2.2341,0.4303 -3.0048,1.1548 -0.7729,0.7265 -1.2018,1.7221 -1.2513,2.8245 z m 2.2581,2.2935 c -0.8468,-0.0655 -1.4092,-0.3553 -1.7494,-0.718 -0.3352,-0.3574 -0.54,-0.8756 -0.5087,-1.5756 l -1.998,-0.0895 c -0.0519,1.1592 0.2927,2.2281 1.048,3.0334 0.7504,0.8 1.8196,1.2483 3.0539,1.3437 z m 2.7418,0.0313 c -0.9559,0.0193 -1.8544,0.0367 -2.7425,-0.0314 l -0.1528,1.9942 c 1.0006,0.0766 1.996,0.0558 2.9356,0.0368 z"
       mask="url(#path-3-outside-1_1629_79459)"
       id="path4273"
       style="fill:#000000;fill-opacity:1;stroke:#000000;stroke-width:0.1;stroke-miterlimit:4;stroke-dasharray:none;stroke-opacity:1" />
    <path
       d="m 172.709,85.7467 c 2.248,-6.0158 3.341,-12.2424 3.469,-20.0119 h 0.006 c -0.051,-0.4385 -0.102,-0.9872 -0.161,-1.6135 v -8e-4 -4e-4 c -0.148,-1.5775 -0.341,-3.6473 -0.683,-5.6887 -2.409,-14.3957 -9.579,-25.889 -21.277,-34.5742 -1.776,-1.3208 -3.613,-1.0766 -4.745,0.4662 -1.055,1.4429 -0.716,3.1688 0.921,4.5451 0.539,0.453 1.095,0.8888 1.65,1.3243 v 0 c 1.083,0.8502 2.165,1.699 3.123,2.6715 14.246,14.4845 18.186,31.3887 11.709,50.6737 -0.86,2.5584 -0.355,4.4064 1.527,5.0668 1.959,0.6882 3.496,-0.2719 4.461,-2.8581 z M 90.5412,24.6732 C 76.9446,35.4118 70.1019,49.53 69.5692,65.4963 l -0.0056,-0.0055 c -0.2109,17.5202 7.8195,33.7751 20.9832,43.7982 2.7138,2.064 4.3787,2.192 5.7605,0.443 1.3153,-1.664 0.6327,-3.424 -1.8813,-5.471 C 79.7195,92.2622 73.6315,76.8731 76.8836,58.1264 78.9148,46.4111 85.0305,36.9823 94.426,29.7012 c 2.5473,-1.9701 3.1966,-3.796 1.8869,-5.483 -1.3208,-1.6982 -3.1522,-1.615 -5.7717,0.455 z M 154.323,102.734 C 147.88,97.4507 144.35,96.8514 136.609,99.8371 V 99.8204 97.373 c 0,-2.1781 0.006,-4.3557 0.013,-6.5329 0.015,-5.0233 0.03,-10.0448 -0.036,-15.0662 -0.105,-7.936 -5.893,-13.9352 -13.407,-14.0739 -7.232,-0.1332 -13.592,5.7217 -13.797,13.0028 -0.152,5.2384 -0.109,10.4876 -0.067,15.7331 v 7e-4 0.0024 0.0024 0.0024 0.0025 0.0025 0.0025 0.0025 0.0025 c 0.011,1.2551 0.021,2.51 0.028,3.7645 0.011,2.0257 1.371,3.4464 3.114,3.4963 1.72,0.0444 3.08,-1.343 3.218,-3.3686 0.054,-0.8138 0.046,-1.6336 0.039,-2.455 v -0.0019 c -0.003,-0.2872 -0.005,-0.5745 -0.005,-0.8618 10e-4,-1.6175 -0.003,-3.235 -0.008,-4.8525 -0.011,-3.5048 -0.022,-7.0096 0.035,-10.5144 0.067,-4.0568 2.592,-7.0148 6.116,-7.431 4.801,-0.5661 8.275,2.5362 8.28,7.5087 0.019,11.86 0.017,23.7175 0.016,35.5754 0,5.932 -0.001,11.863 0.001,17.795 0,0.052 0,0.103 -0.001,0.155 v 0.101 l -0.001,0.099 v 0.001 0 c -0.005,0.646 -0.01,1.3 0.135,1.914 0.372,1.576 1.343,2.542 3.063,2.547 1.704,0.006 2.714,-0.899 3.086,-2.502 0.155,-0.666 0.167,-1.371 0.167,-2.059 0.004,-2.127 0.003,-4.254 0.003,-6.382 v 0 0 0 0 -0.001 0 0 0 c -0.001,-3.547 -0.002,-7.095 0.019,-10.644 0.011,-1.021 0.061,-2.097 0.372,-3.057 1.093,-3.402 4.395,-5.35 7.974,-4.84 3.269,0.466 5.889,3.241 5.961,6.721 0.083,3.904 0.079,7.814 0.075,11.723 v 0.001 c -0.002,2.114 -0.004,4.227 0.008,6.34 0,0.163 -0.005,0.333 -0.011,0.506 -0.022,0.706 -0.046,1.456 0.288,1.919 0.655,0.91 1.715,2.087 2.631,2.115 1.032,0.027 2.264,-0.933 3.097,-1.771 0.415,-0.415 0.407,-1.334 0.401,-2.103 l -0.001,-0.127 c -0.001,-0.049 -0.001,-0.098 -0.001,-0.145 0.011,-2.47 0.009,-4.94 0.007,-7.409 v -0.002 0 0 -0.001 0 0 0 0 c -0.004,-3.621 -0.008,-7.241 0.032,-10.863 0.044,-3.896 3.18,-6.909 7.048,-6.948 4.307,-0.045 7.331,3.047 7.392,7.736 0.055,3.909 0.044,7.819 0.032,11.728 -0.005,1.629 -0.01,3.259 -0.01,4.888 0.002,0.209 0.001,0.418 0,0.626 v 0 c -0.003,0.416 -0.005,0.83 0.017,1.244 0.122,2.114 1.321,3.346 3.191,3.307 1.826,-0.033 3.086,-1.343 3.097,-3.418 0.019,-3.149 0.016,-6.298 0.014,-9.448 -0.003,-3.149 -0.006,-6.299 0.014,-9.449 0.022,-3.257 1.981,-5.86 5.022,-6.87 2.914,-0.96 6.304,-0.105 7.886,2.547 0.971,1.626 1.554,3.735 1.559,5.633 0.1,24.369 0.111,48.731 0.05,73.1 -0.005,2.057 0.016,3.715 0.033,5.085 v 0 0 0 c 0.041,3.314 0.061,4.94 -0.35,6.448 -0.395,1.453 -1.189,2.797 -2.749,5.434 v 0.001 l -0.001,0.002 -0.001,0.001 c -0.699,1.183 -1.552,2.626 -2.592,4.456 -0.522,0.921 -0.933,2.053 -0.944,3.091 -0.079,6.723 -0.058,13.45 -0.036,20.173 v 0 0 0 0 0 0.001 0 0.003 l 0.003,1.006 c 0.011,2.264 1.204,3.58 3.119,3.574 1.903,-0.005 3.113,-1.354 3.124,-3.585 0.007,-1.154 0.032,-2.309 0.057,-3.465 v 0 -10e-4 0 -0.001 -0.001 0 -0.001 0 -0.001 c 0.065,-2.934 0.129,-5.869 -0.118,-8.778 -0.494,-5.833 0.838,-10.922 4.157,-15.772 1.41,-2.065 2.425,-4.862 2.442,-7.331 0.166,-28.52 0.139,-57.039 0.083,-85.559 -0.011,-6.165 -5.333,-11.8095 -11.443,-12.6031 -4.962,-0.6437 -9.068,0.9768 -12.498,4.6061 -2.869,-3.0466 -6.249,-4.7504 -10.35,-4.7615 -4.157,-0.0111 -7.609,1.6594 -10.378,4.6895 z m -26.982,128.258 c -0.028,1.892 0.305,3.535 1.898,4.728 h 2.491 c 1.588,-1.055 2.098,-2.525 2.07,-4.418 -0.088,-5.533 -0.099,-11.071 0,-16.604 0.034,-1.981 -0.654,-3.391 -2.097,-4.695 -1.607,-1.452 -3.179,-2.946 -4.75,-4.439 -2.495,-2.371 -4.989,-4.741 -7.62,-6.943 -6.416,-5.372 -11.649,-11.544 -14.729,-19.402 -0.084,-0.215 -0.204,-0.418 -0.323,-0.62 v 0 -10e-4 l -0.048,-0.082 -0.018,-0.03 c -1.004,-1.72 -2.819,-2.375 -4.3728,-1.587 -1.5761,0.799 -2.1532,2.653 -1.2764,4.451 0.5063,1.032 1.0428,2.048 1.5792,3.064 0.722,1.367 1.443,2.733 2.089,4.134 1.715,3.707 4.173,6.759 7.215,9.49 5.66,5.083 11.193,10.317 16.698,15.572 0.655,0.616 1.138,1.743 1.16,2.642 0.117,4.911 0.1,9.828 0.034,14.74 z m -18.009,-94.35 v 3.964 c -1.467,-1.36 -2.887,-2.688 -4.279,-3.988 v 0 l -0.002,-0.002 -0.001,-0.001 c -2.991,-2.796 -5.8479,-5.466 -8.7592,-8.075 -4.2343,-3.796 -10.3556,-4.001 -14.6732,-0.655 -4.3065,3.335 -5.7272,9.19 -3.2132,14.174 3.7793,7.498 7.6406,14.957 11.5021,22.417 0.7427,1.434 1.4855,2.869 2.2277,4.304 1.0544,2.032 2.6915,2.675 4.4119,1.871 1.7482,-0.822 2.2421,-2.67 1.2043,-4.768 -0.9236,-1.855 -1.8755,-3.696 -2.8274,-5.537 l -0.0019,-0.003 c -0.3802,-0.736 -0.7603,-1.471 -1.1387,-2.207 -0.8877,-1.727 -1.7771,-3.453 -2.6664,-5.179 l -0.0015,-0.003 -0.0016,-0.003 -0.0015,-0.003 -0.0016,-0.003 -0.0015,-0.003 -0.0016,-0.003 -0.0054,-0.01 -0.0016,-0.003 -0.0017,-0.004 c -2.3013,-4.465 -4.6012,-8.928 -6.8665,-13.41 -1.3153,-2.598 -0.7326,-5.101 1.3763,-6.666 2.009,-1.492 4.4785,-1.298 6.6429,0.533 0.3305,0.28 0.6446,0.582 0.9596,0.884 l 3e-4,0.001 c 0.1345,0.129 0.2692,0.258 0.4053,0.386 1.3974,1.302 2.7963,2.602 4.1954,3.903 l 0.0026,0.003 0.0026,0.002 0.0027,0.003 0.0026,0.002 0.0026,0.002 0.0026,0.003 h 5e-4 l 5e-4,10e-4 h 4e-4 l 5e-4,0.001 h 4e-4 l 5e-4,0.001 h 5e-4 c 4.0177,3.736 8.0377,7.473 12.0297,11.235 1.171,1.105 2.442,1.637 3.945,1.038 1.577,-0.633 1.937,-2.042 1.921,-3.591 v -0.621 c 0,-12.465 0,-24.924 -0.006,-37.383 0,-0.688 -0.028,-1.387 -0.15,-2.064 -0.277,-1.482 -1.248,-2.275 -2.714,-2.425 -1.47,-0.15 -2.613,0.466 -3.152,1.837 -0.294,0.743 -0.355,1.615 -0.355,2.425 -0.021,7.158 -0.02,14.317 -0.018,21.475 v 0.007 c 10e-4,2.046 10e-4,4.092 10e-4,6.138 z M 97.0455,67.0891 c 0.0111,5.644 1.7815,10.6831 5.0115,15.3004 0.671,0.9545 1.015,2.4806 0.799,3.6017 -0.155,0.7936 -1.493,1.8536 -2.342,1.8869 -1.0488,0.0443 -2.4695,-0.5772 -3.141,-1.393 -3.3631,-4.0679 -5.3721,-8.8406 -6.2656,-14.0184 -2.8747,-16.721 7.6918,-32.8261 24.2186,-36.7719 9.445,-2.2587 18.225,-0.4661 26.194,5.1168 2.259,1.5816 2.747,3.3076 1.488,5.0224 -1.194,1.615 -2.908,1.6705 -5.106,0.1665 -11.183,-7.6585 -25.573,-6.0602 -34.369,3.8626 -4.3453,4.9003 -6.5041,10.6719 -6.493,17.2316 z M 155,66.9333 c 0.011,6.9093 -2.003,13.1749 -6.021,18.7911 -1.537,2.1477 -3.224,2.6527 -4.878,1.5095 -1.632,-1.1321 -1.776,-2.9913 -0.355,-5.0724 5.566,-8.169 6.493,-16.8043 2.591,-25.9223 -0.971,-2.2754 -0.516,-4.0069 1.227,-4.8171 1.815,-0.8436 3.513,0 4.578,2.2698 1.904,4.0679 2.847,8.4521 2.853,13.2414 z M 56.2564,46.483 c 0.1881,-0.267 0.3711,-0.527 0.5596,-0.7435 -0.1263,-0.3672 -0.2133,-0.6929 -0.2898,-0.979 -0.1384,-0.5182 -0.242,-0.9061 -0.4816,-1.1743 l -0.243,-0.2713 -1e-4,-1e-4 c -2.3554,-2.6294 -4.7155,-5.264 -7.2156,-7.7534 -1.2376,-1.2264 -2.8081,-1.0822 -4.0845,0.1388 -1.2765,1.2209 -1.4707,2.8025 -0.3608,4.0956 2.3309,2.7193 4.7672,5.3665 7.3755,7.8139 0.6549,0.616 2.2698,0.7436 3.191,0.4051 0.6351,-0.2338 1.1061,-0.9025 1.5493,-1.5318 z m -2.4926,30.6119 c 0.2293,0.1787 0.499,0.3471 0.7733,0.5184 0.6285,0.3926 1.2809,0.8 1.5243,1.3796 0.3885,0.9268 0.4495,2.5362 -0.111,3.2188 -2.3087,2.8192 -4.8282,5.483 -7.4421,8.0247 -1.232,1.1988 -2.8525,0.9879 -4.0845,-0.2552 -1.1543,-1.1599 -1.3874,-2.7083 -0.333,-3.9347 2.3753,-2.7693 4.9115,-5.3998 7.4587,-8.0193 0.2802,-0.2874 0.7155,-0.427 1.2652,-0.6032 0.2886,-0.0925 0.6088,-0.1952 0.9547,-0.3346 z M 48.0232,64.82 c 0.4335,-0.0087 0.8672,-0.0175 1.3009,-0.0175 L 49.3185,64.797 c 0.4422,-0.0018 0.8856,0.0067 1.3291,0.0153 0.9371,0.018 1.8751,0.036 2.8054,-0.0431 1.9701,-0.1664 3.1023,-1.4318 3.0745,-3.2132 -0.0277,-1.7592 -1.2265,-3.0578 -3.1688,-3.1244 -2.686,-0.0944 -5.3832,-0.0833 -8.0692,-0.0056 -1.959,0.0555 -3.2077,1.2931 -3.2854,3.0246 -0.0832,1.8591 1.0988,3.1744 3.18,3.3353 0.9443,0.0723 1.8913,0.0532 2.8391,0.0341 z"
       id="path4271"
       style="clip-rule:evenodd;fill:#ffffff;fill-opacity:1;fill-rule:evenodd" />
  </g>
  <defs
     id="defs4293">
    <filter
       color-interpolation-filters="sRGB"
       filterUnits="userSpaceOnUse"
       height="173"
       width="173"
       y="-18"
       x="76"
       id="filter0_b_1629_79459">
      <feFlood
         id="feFlood4275"
         result="BackgroundImageFix"
         flood-opacity="0" />
      <feGaussianBlur
         id="feGaussianBlur4277"
         stdDeviation="12.5"
         in="BackgroundImage" />
      <feComposite
         id="feComposite4279"
         result="effect1_backgroundBlur_1629_79459"
         operator="in"
         in2="SourceAlpha" />
      <feBlend
         id="feBlend4281"
         result="shape"
         in2="effect1_backgroundBlur_1629_79459"
         in="SourceGraphic"
         mode="normal" />
    </filter>
    <filter
       color-interpolation-filters="sRGB"
       filterUnits="userSpaceOnUse"
       height="80"
       width="80"
       y="131"
       x="58"
       id="filter1_b_1629_79459">
      <feFlood
         id="feFlood4284"
         result="BackgroundImageFix"
         flood-opacity="0" />
      <feGaussianBlur
         id="feGaussianBlur4286"
         stdDeviation="12.5"
         in="BackgroundImage" />
      <feComposite
         id="feComposite4288"
         result="effect1_backgroundBlur_1629_79459"
         operator="in"
         in2="SourceAlpha" />
      <feBlend
         id="feBlend4290"
         result="shape"
         in2="effect1_backgroundBlur_1629_79459"
         in="SourceGraphic"
         mode="normal" />
    </filter>
  </defs>
</svg>
