<?xml version="1.0" encoding="UTF-8" standalone="no"?>
<svg
   xmlns:dc="http://purl.org/dc/elements/1.1/"
   xmlns:cc="http://creativecommons.org/ns#"
   xmlns:rdf="http://www.w3.org/1999/02/22-rdf-syntax-ns#"
   xmlns:svg="http://www.w3.org/2000/svg"
   xmlns="http://www.w3.org/2000/svg"
   xmlns:sodipodi="http://sodipodi.sourceforge.net/DTD/sodipodi-0.dtd"
   xmlns:inkscape="http://www.inkscape.org/namespaces/inkscape"
   height="86.804"
   width="122.881"
   viewBox="0 0 122.881 86.804"
   version="1.1"
   id="svg6"
   sodipodi:docname="hide.svg"
   inkscape:version="0.92.4 5da689c313, 2019-01-14">
  <metadata
     id="metadata12">
    <rdf:RDF>
      <cc:Work
         rdf:about="">
        <dc:format>image/svg+xml</dc:format>
        <dc:type
           rdf:resource="http://purl.org/dc/dcmitype/StillImage" />
      </cc:Work>
    </rdf:RDF>
  </metadata>
  <defs
     id="defs10" />
  <sodipodi:namedview
     pagecolor="#ffffff"
     bordercolor="#666666"
     borderopacity="1"
     objecttolerance="10"
     gridtolerance="10"
     guidetolerance="10"
     inkscape:pageopacity="0"
     inkscape:pageshadow="2"
     inkscape:window-width="1918"
     inkscape:window-height="980"
     id="namedview8"
     showgrid="false"
     inkscape:zoom="1.4566395"
     inkscape:cx="81.16466"
     inkscape:cy="43.308163"
     inkscape:window-x="0"
     inkscape:window-y="0"
     inkscape:window-maximized="1"
     inkscape:current-layer="svg6" />
  <path
     d="M91.744 8.464L33.25 75.901l-2.115 2.439v0"
     fill="none"
     stroke="red"
     stroke-width="12"
     stroke-linecap="square"
     id="path2"
     style="stroke-width:20;stroke-miterlimit:4;stroke-dasharray:none" />
  <path
     d="M 61.439453 1.5117188 C 40.094554 1.3146282 20.508091 13.846239 8.125 30.634766 C 5.0815055 34.664905 2.3923451 38.956713 0 43.402344 C 4.2701108 51.311808 9.6158427 58.89465 16.013672 65.25 L 16.025391 65.236328 L 18.140625 62.796875 L 23.441406 56.685547 C 19.770979 52.637089 16.582899 48.145107 13.880859 43.400391 C 22.902432 27.237545 38.777678 13.400065 57.861328 11.953125 C 59.354798 11.832816 60.854024 11.795114 62.351562 11.826172 L 70.652344 2.2558594 C 67.606247 1.7686691 64.523067 1.5085329 61.439453 1.5117188 z M 106.86719 21.550781 L 106.85156 21.568359 L 99.439453 30.113281 C 103.10928 34.164009 106.29744 38.656468 109 43.402344 C 99.992115 59.574627 84.098151 73.389169 65.021484 74.839844 C 63.570119 75.185222 62.035523 75.18346 60.480469 75.029297 L 52.195312 84.582031 C 68.040304 87.058089 84.828133 82.774995 97.685547 73.105469 C 108.31532 65.406924 116.70305 54.916837 122.88086 43.400391 C 118.60908 35.422658 113.27353 27.951677 106.86719 21.550781 z "
     id="path896" />
  <path
     id="path4-1"
     d="m 82.052,43.562 a 12.653,12.653 0 0 1 -6.39,1.72 c -0.824,0 -1.626,-0.09 -2.407,-0.239 L 55.416,65.608 c 1.717,0.446 3.516,0.683 5.373,0.683 11.77,0 21.31,-9.538 21.31,-21.308 0,-0.48 -0.018,-0.95 -0.048,-1.42 z M 60.79,23.682 c -11.77,0 -21.309,9.54 -21.309,21.3 0,2.484 0.428,4.866 1.21,7.083 L 64.595,24.504 a 13.814,13.814 0 0 1 0.275,-0.432 z"
     inkscape:connector-curvature="0" />
</svg>
