<svg viewBox="0 0 40 40" xmlns="http://www.w3.org/2000/svg"><defs></defs><path d="M32.02 3.594c-21.347 24.27-10.673 12.135 0 0zm3.439 26.494a2.727 2.727 0 01-.7 1.675l-7.165 7.505a2.375 2.375 0 01-1.706.732H12.766c-3.32 0-5.978-2.8-5.978-6.245V6.25c0-1.735.675-3.302 1.754-4.433C9.629.702 11.108 0 12.766 0h16.708A5.86 5.86 0 0133.7 1.817 6.422 6.422 0 0135.46 6.25z" fill="#fff"></path><path d="M33.079 6.25a3.82 3.82 0 00-1.059-2.656 3.481 3.481 0 00-2.547-1.091H12.765c-.968 0-1.868.375-2.538 1.09A3.785 3.785 0 009.175 6.25v27.505c0 2.06 1.612 3.742 3.59 3.742h13.143V29.82h7.17zm2.38 23.838a2.728 2.728 0 01-.7 1.675l-7.165 7.505a2.375 2.375 0 01-1.706.733H12.766c-3.319 0-5.978-2.802-5.978-6.245V6.25c0-1.735.675-3.303
    1.754-4.434C9.63.702 11.108 0 12.766 0h16.708A5.86 5.86 0 0133.7 1.817a6.421 6.421 0 011.76 4.434z" fill="#444443"></path><path d="M33.074 24.821H4.535v-17.5h28.539z" fill="#b4b3b3"></path><path d="M13.695 18.812c.287.371.501.701.501 1.19 0 1.075-.817 1.621-1.806 1.621H9.234c-.546 0-1.019-.1-1.45-.46-.388-.315-.674-.831-.674-1.334 0-.458.258-.86.76-.86.416 0 .675.343.675.73 0 .432.229.49.631.49h3.113c.115 0 .472.043.472-.175 0-.112-.2-.328-.257-.415l-4.921-6.325c-.3-.387-.473-.675-.473-1.178 0-.574.273-1.062.76-1.375.401-.26.731-.26 1.19-.26h3.043c.545 0 1.003.115 1.42.475.375.328.675.86.675 1.362 0 .459-.23.831-.747.831-.43 0-.69-.272-.69-.673 0-.488-.242-.56-.687-.56H9.033c-.158 0-.488-.043-.488.2 0 .13.158.302.214.388l4.937 6.327zm4.933 2.811c-1.077 0-1.693-.43-2.153-1.364l-1.319-2.667c-.245-.488-.387-.946-.387-1.506 0-.632.112-1.02.4-1.593l1.32-2.655c.488-.989 1.106-1.376 2.21-1.376h2.437c.316 0 .72.171.72.718 0 .516-.389.717-.719.717h-2.395c-.617 0-.717.057-.99.602l-1.25 2.497c-.185.386-.3.645-.3 1.09 0 .402.13.645.3.99l1.22 2.48c.288.588.433.633 1.075.633h2.34c.315 0 .72.172.72.717 0 .516-.39.717-.72.717zm6.17-4.864v4.147c0 .46-.2.717-.717.717s-.717-.257-.717-.717v-9.728c0-.459.2-.717.717-.717.517 0 .717.258.717.717v4.146h4.218v-4.146c0-.459.2-.717.717-.717s.717.258.717.717v9.728c0 .46-.201.717-.717.717s-.717-.257-.717-.717v-4.147z" fill="#bf272f"></path></svg>
