<?xml version="1.0" encoding="UTF-8" standalone="no"?>
<svg
   xmlns:dc="http://purl.org/dc/elements/1.1/"
   xmlns:cc="http://creativecommons.org/ns#"
   xmlns:rdf="http://www.w3.org/1999/02/22-rdf-syntax-ns#"
   xmlns:svg="http://www.w3.org/2000/svg"
   xmlns="http://www.w3.org/2000/svg"
   id="svg8"
   version="1.1"
   viewBox="0 0 29.860764 29.872417"
   height="29.872417mm"
   width="29.860764mm">
  <defs
     id="defs2" />
  <metadata
     id="metadata5">
    <rdf:RDF>
      <cc:Work
         rdf:about="">
        <dc:format>image/svg+xml</dc:format>
        <dc:type
           rdf:resource="http://purl.org/dc/dcmitype/StillImage" />
        <dc:title></dc:title>
      </cc:Work>
    </rdf:RDF>
  </metadata>
  <g
     transform="translate(-57.641033,-38.269879)"
     id="layer1">
    <g
       id="g3760">
      <path
         id="path3740"
         d="m 69.360534,67.774228 c -2.83059,-0.61515 -5.01717,-1.84436 -7.2465,-4.07369 -5.964001,-5.964 -5.964001,-14.98858 0,-20.95258 5.97163,-5.97164 14.97706,-5.97057 20.95011,0.002 2.28989,2.28989 3.46161,4.38838 4.07537,7.29882 1.0955,5.19474 -0.30215,9.87559 -4.07537,13.64881 -3.75976,3.75976 -8.57241,5.19129 -13.70361,4.07617 z m -2.19075,-11.11217 c 1.02326,-0.52914 1.26853,-1.55967 1.37008,-5.75649 0.0944,-3.89989 0.23552,-3.70503 -2.69616,-3.72173 -2.032065,-0.0116 -3.223436,0.51343 -3.979715,1.75377 -0.612249,1.00412 -0.678652,2.8125 -0.141423,3.85139 0.662479,1.28109 2.475385,1.73333 3.922448,0.97847 0.6906,-0.36025 0.7276,-0.34928 0.7276,0.21565 0,1.09021 -0.63876,1.62472 -1.909971,1.59827 -0.637252,-0.0133 -1.480233,-0.10483 -1.873292,-0.20348 -0.636605,-0.15978 -0.714651,-0.10565 -0.714651,0.49566 0,0.45273 0.196038,0.75382 0.595312,0.91431 0.972522,0.3909 3.849482,0.31389 4.699772,-0.12582 z m -3.698275,-4.61104 c -0.809777,-1.51308 0.452119,-3.45698 2.244125,-3.45698 h 0.97122 l -0.1823,1.38906 c -0.25346,1.93132 -0.71806,2.57969 -1.848519,2.57969 -0.629528,0 -0.995182,-0.15798 -1.184526,-0.51177 z m 8.360215,1.7062 c 0.13343,-0.34771 0.21561,-0.34771 0.71203,0 0.30865,0.21619 1.00181,0.39307 1.54035,0.39307 2.334,0 3.85473,-3.03654 2.71917,-5.42955 -0.53375,-1.12478 -2.13056,-1.82197 -3.60316,-1.57318 l -1.02074,0.17245 0.17315,-1.08278 0.17314,-1.08277 h -1.04845 -1.04846 l -0.24213,4.38899 c -0.13317,2.41395 -0.19252,4.43801 -0.13189,4.49792 0.28665,0.28321 1.64247,0.0664 1.77699,-0.28415 z m 0.50902,-1.78247 c -0.55903,-0.79813 -0.55448,-3.00479 0.007,-3.22011 1.42074,-0.54519 2.75648,0.31005 2.75648,1.7649 0,1.84224 -1.82049,2.80101 -2.76312,1.45521 z m 7.80514,0.52189 c 0.008,-0.9095 0.15704,-2.07036 0.33073,-2.57968 0.27665,-0.81125 0.43892,-0.93623 1.309,-1.00822 0.93049,-0.077 0.98263,-0.12711 0.82573,-0.79375 -0.25215,-1.07141 -0.50419,-1.20913 -1.39733,-0.76357 -0.46015,0.22955 -0.87907,0.30031 -0.96403,0.16283 -0.0827,-0.13372 -0.55296,-0.24313 -1.04513,-0.24313 h -0.89487 l -0.0817,3.24115 c -0.0449,1.78263 -0.0449,3.33044 6e-5,3.43958 0.045,0.10914 0.49145,0.19844 0.99219,0.19844 h 0.91043 l 0.0149,-1.65365 z"
         style="fill:#ce1e24;stroke-width:0.26458332" />
      <path
         id="path3738"
         d="m 70.574874,59.667788 1.31586,-1.62625 -0.90698,-1.34678 c -0.49883,-0.74073 -0.90697,-1.43767 -0.90697,-1.54875 0,-0.11108 0.3391,-0.20197 0.75357,-0.20197 0.62583,0 0.83617,0.18319 1.2409,1.08072 l 0.48734,1.08072 0.8977,-1.08072 c 0.59715,-0.71889 1.11182,-1.08072 1.53722,-1.08072 0.71429,0 0.82526,0.31022 0.2745,0.76731 -0.20077,0.16662 -0.68727,0.76795 -1.08113,1.33628 l -0.7161,1.03333 1.09099,1.60654 1.09098,1.60654 h -0.79986 c -0.64283,0 -0.94028,-0.2122 -1.51517,-1.08093 l -0.71533,-1.08092 -0.89787,1.08092 c -0.68076,0.81954 -1.08742,1.08093 -1.6817,1.08093 h -0.78382 z m 5.58733,1.1857 c 0,-0.2423 0.71437,-1.1845 1.5875,-2.09377 2.1714,-2.26129 2.03517,-3.32844 -0.36736,-2.87772 -0.82531,0.15483 -0.90557,0.11866 -0.78234,-0.35257 0.18152,-0.69415 1.82288,-0.9621 3.17979,-0.51911 0.85503,0.27915 1.02516,0.45958 1.0932,1.1594 0.0651,0.66963 -0.1781,1.13965 -1.26641,2.44739 l -1.34701,1.6186 h 1.20027 c 1.02388,0 1.20027,0.0778 1.20027,0.52916 0,0.48767 -0.17639,0.52917 -2.24896,0.52917 -1.92177,0 -2.24895,-0.0641 -2.24895,-0.44055 z m 5.20038,-5.33497 c -0.91263,-1.00845 -0.2873,-3.22879 0.90586,-3.21641 0.20683,0.002 0.0784,0.15371 -0.28541,0.33681 -0.49013,0.24668 -0.68222,0.5798 -0.74162,1.28611 -0.0969,1.15228 0.46252,1.81276 1.53537,1.81276 0.95002,0 1.5887,-0.62126 1.58345,-1.54025 -0.005,-0.90949 -0.25122,-1.28133 -1.06175,-1.6048 -0.59223,-0.23634 -0.60165,-0.26258 -0.0997,-0.27776 1.292,-0.0391 1.97776,2.31597 0.94622,3.24951 -0.6539,0.59177 -2.22884,0.56575 -2.78243,-0.046 z m 0.55569,-1.50052 c -0.0791,-0.41384 -0.005,-0.66146 0.19705,-0.66146 0.20239,0 0.27616,0.24762 0.19705,0.66146 -0.0696,0.3638 -0.15822,0.66146 -0.19705,0.66146 -0.0388,0 -0.1275,-0.29766 -0.19705,-0.66146 z m 0.86256,0.0661 c -0.002,-0.40018 0.11501,-0.7276 0.26053,-0.7276 0.33454,0 0.33454,0.54067 0,1.05833 -0.19986,0.30927 -0.25737,0.23626 -0.26053,-0.33073 z m 0.70077,0.11066 c 0.0489,-0.19381 0.0889,-0.4617 0.0889,-0.59532 0,-0.13362 0.11906,-0.24294 0.26458,-0.24294 0.14552,0 0.26276,0.32742 0.26053,0.7276 -0.003,0.51141 -0.072,0.62044 -0.23255,0.36694 -0.12568,-0.19837 -0.28294,-0.2579 -0.34946,-0.13229 -0.0665,0.1256 -0.0809,0.0698 -0.032,-0.12399 z"
         style="fill:#301d1f;stroke-width:0.26458332" />
    </g>
  </g>
</svg>
