<?xml version="1.0" encoding="UTF-8" standalone="no"?>
<svg
   xmlns:dc="http://purl.org/dc/elements/1.1/"
   xmlns:cc="http://creativecommons.org/ns#"
   xmlns:rdf="http://www.w3.org/1999/02/22-rdf-syntax-ns#"
   xmlns:svg="http://www.w3.org/2000/svg"
   xmlns="http://www.w3.org/2000/svg"
   id="svg8"
   version="1.1"
   viewBox="0 0 12.7 12.7"
   height="48"
   width="48">
  <defs
     id="defs2" />
  <metadata
     id="metadata5">
    <rdf:RDF>
      <cc:Work
         rdf:about="">
        <dc:format>image/svg+xml</dc:format>
        <dc:type
           rdf:resource="http://purl.org/dc/dcmitype/StillImage" />
        <dc:title></dc:title>
      </cc:Work>
    </rdf:RDF>
  </metadata>
  <g
     transform="translate(-81.406669,-165.23758)"
     id="layer1">
    <path
       id="path3724"
       d="m 82.400084,176.29296 0.01454,-1.31585 0.149219,-0.0172 0.149221,-0.0172 v -3.31816 -3.31816 l 0.910655,-0.91065 0.910652,-0.91066 h 2.832159 2.832155 l 0.09242,-0.14921 c 0.306137,-0.49431 0.683307,-0.72461 1.247015,-0.76143 0.329699,-0.0215 0.430696,-0.005 0.678602,0.10804 0.36976,0.16928 0.625477,0.425 0.794759,0.79476 0.114008,0.24903 0.129664,0.34855 0.107979,0.68643 -0.04156,0.64756 -0.377582,1.0936 -1.001095,1.32885 -0.720631,0.27188 -1.506263,-0.0618 -1.884003,-0.80011 l -0.09022,-0.17636 h -2.59049 -2.590493 l -0.609558,0.61129 -0.609561,0.6113 v 3.10563 c 0,3.06947 0.0012,3.10564 0.108525,3.10564 0.105569,0 0.108522,0.0362 0.108522,1.32942 v 1.32941 h -0.78776 -0.78776 z m 9.580329,-8.55463 c 0.266701,-0.13693 0.391236,-0.36145 0.391236,-0.70537 0,-0.25024 -0.02062,-0.29712 -0.217048,-0.49355 -0.494527,-0.49453 -1.302283,-0.14944 -1.302283,0.55636 0,0.36249 0.39832,0.74563 0.775394,0.74584 0.08326,4e-5 0.241974,-0.0464 0.352701,-0.10328 z m -7.693769,8.54107 v -1.32942 h 0.217049 0.217046 v -1.41417 -1.41418 l 0.511268,-0.52568 0.511266,-0.52568 1.078093,-0.0175 1.078095,-0.0175 0.104472,-0.15544 c 0.250421,-0.37261 0.86201,-0.5004 1.224783,-0.25593 0.100696,0.0679 0.238605,0.20577 0.306463,0.30647 0.257245,0.38172 0.104505,1.01242 -0.306734,1.26658 -0.39389,0.24343 -1.005663,0.10008 -1.235853,-0.2896 l -0.09381,-0.15881 H 86.976042 86.0533 l -0.313579,0.31031 -0.31358,0.31031 v 1.29041 1.29042 h 0.189916 0.189918 v 1.32941 1.32942 H 85.04631 84.286644 Z m 4.815732,-4.5664 c 0.277651,-0.30314 0.05855,-0.77839 -0.358851,-0.77839 -0.173259,0 -0.241989,0.0323 -0.355294,0.16695 -0.221047,0.2627 -0.15589,0.57323 0.15161,0.72253 0.209204,0.10158 0.402754,0.0634 0.562535,-0.11109 z"
       style="fill:#000000;stroke-width:0.05426177" />
  </g>
</svg>
