<svg viewBox="0 0 40 40" xmlns="http://www.w3.org/2000/svg"><defs></defs><path d="M32.02 3.594c-21.347 24.27-10.673 12.135 0 0zm3.439 26.494a2.727 2.727 0 01-.7 1.675l-7.165 7.505a2.375 2.375 0 01-1.706.732H12.766c-3.32 0-5.978-2.8-5.978-6.245V6.25c0-1.735.675-3.302 1.754-4.433C9.629.702 11.108 0 12.766 0h16.708A5.86 5.86 0 0133.7 1.817 6.422 6.422 0 0135.46 6.25z" fill="#fff"></path><path d="M33.079 6.25a3.82 3.82 0 00-1.059-2.656 3.481 3.481 0 00-2.548-1.091H12.765c-.968 0-1.868.374-2.538 1.09A3.785 3.785 0 009.175 6.25v27.505c0 2.06 1.612 3.742 3.591 3.742H25.91V29.82h7.17V6.25zm2.38 23.837a2.728 2.728 0 01-.7 1.675l-7.165 7.505a2.375 2.375 0 01-1.707.733H12.765c-3.319 0-5.978-2.801-5.978-6.245V6.25a6.41 6.41 0 011.754-4.434C9.63.701 11.107 0 12.765 0h16.707A5.86 5.86 0 0133.7 1.816a6.421 6.421 0 011.759 4.434v23.837z" fill="#444443"></path><path d="M33.079 24.795H4.54v-17.5H33.08v17.5z" fill="#b4b3b3"></path><path d="M8.738 20.206h2.608c1.044 0 1.653-.462 1.653-1.565 0-1.217-.333-1.9-1.653-1.9H8.737v3.466zm0-4.914h2.608c1.044 0 1.653-.465 1.653-1.566 0-1.217-.333-1.899-1.653-1.899H8.737v3.465zm-1.45-4.915h4.058c2.132 0 3.103 1.305 3.103 3.35 0 .84-.188 1.608-.956 2.29.824.782.956 1.55.956 2.624 0 1.9-1.261 3.014-3.103 3.014H7.287V10.377zm10.15 3.712h3.217c.406 0 1.045-.029 1.045-.609v-1c0-.58-.595-.653-1.03-.653h-3.232v2.262zm0 6.842c0 .463-.204.724-.725.724-.523 0-.726-.261-.726-.724V10.377h4.872c1.146 0 2.291.813 2.291 2.103v1c0 1.364-1.13 2.059-2.291 2.059h-1.334l3.261 4.669c.159.216.363.49.363.767 0 .405-.334.68-.739.68-.29 0-.479-.173-.637-.405l-4.002-5.711h-.333v5.392zm9.63-.725h.276c.61 0 .754-.072 1.015-.607l1.275-2.582c.162-.333.275-.58.275-.943 0-.493-.159-.768-.361-1.188l-1.204-2.45c-.305-.624-.434-.609-1.1-.609h-.175v8.38zM25.62 11.83h-.537c-.48 0-.884-.175-.884-.725 0-.523.391-.725.84-.725h2.421c1.131 0 1.695.462 2.188 1.45l1.277 2.55c.288.595.435 1.015.435 1.682 0 .579-.159 1.073-.42 1.594l-1.321 2.637c-.505 1.032-1.16 1.363-2.29 1.363h-2.404c-.379 0-.725-.201-.725-.725 0-.52.346-.723.725-.723h.696v-8.38z" fill="#42ab3d"></path></svg>
