<svg xmlns="http://www.w3.org/2000/svg" viewBox="0 0 40 40">
  <path fill="#fff" d="M32.02 3.594c-21.347 24.27-10.673 12.135 0 0zm3.439 26.494a2.727 2.727 0 01-.7 1.675l-7.165 7.505a2.375 2.375 0 01-1.706.732H12.766c-3.32 0-5.978-2.8-5.978-6.245V6.25c0-1.735.675-3.302 1.754-4.433C9.629.702 11.108 0 12.766 0h16.708A5.86 5.86 0 0133.7 1.817a6.422 6.422 0 011.76 4.433z"/>
  <path fill="#fff" d="M33.079 6.25c-22.053 22.5-11.026 11.25 0 0zm2.38 23.837a2.728 2.728 0 01-.7 1.675l-7.165 7.505a2.375 2.375 0 01-1.707.733H12.765c-3.319 0-5.978-2.801-5.978-6.245V6.25a6.41 6.41 0 011.754-4.434C9.63.701 11.107 0 12.765 0h16.707A5.86 5.86 0 0133.7 1.816a6.421 6.421 0 011.759 4.434z"/>
  <path fill="#444443" d="M33.079 6.25a3.82 3.82 0 00-1.059-2.656 3.481 3.481 0 00-2.548-1.091H12.765c-.968 0-1.868.374-2.538 1.09A3.785 3.785 0 009.175 6.25v27.505c0 2.06 1.612 3.742 3.591 3.742H25.91V29.82h7.17V6.25zm2.38 23.837a2.728 2.728 0 01-.7 1.675l-7.165 7.505a2.375 2.375 0 01-1.707.733H12.765c-3.319 0-5.978-2.801-5.978-6.245V6.25a6.41 6.41 0 011.754-4.434C9.63.701 11.107 0 12.765 0h16.707A5.86 5.86 0 0133.7 1.816a6.421 6.421 0 011.759 4.434v23.837z"/>
  <path fill="#fff" d="M6.757 22.75c-.583-.583-.624-1.04-.624-6.87s.041-6.288.624-6.87c.606-.606 1.041-.625 14.366-.625s13.76.018 14.366.624c.583.583.624 1.041.624 6.87 0 5.83-.041 6.288-.624 6.871-.606.606-1.041.625-14.366.625s-13.76-.019-14.366-.625z"/>
  <path fill="#59f" d="M6.757 22.75c-.583-.583-.624-1.04-.624-6.87s.041-6.288.624-6.87c.606-.606 1.041-.625 14.366-.625s13.76.018 14.366.624c.583.583.624 1.041.624 6.87 0 5.83-.041 6.288-.624 6.871-.606.606-1.041.625-14.366.625s-13.76-.019-14.366-.625zm5.622-5.777c0-1.041-.122-1.406-.469-1.406-.312 0-.468.313-.468.937 0 1.022-.463 1.197-1.385.522-.724-.529-.736-2.067-.021-2.59.314-.23.928-.323 1.444-.22.764.153.899.081.899-.483 0-.579-.181-.664-1.406-.664-.989 0-1.59.185-2.03.625-.44.44-.624 1.04-.624 2.03 0 1.891.763 2.654 2.654 2.654h1.406zm4.996.741c0-.564-.134-.636-.898-.483-1.172.234-1.99-.385-1.99-1.507 0-1.123.818-1.742 1.99-1.507.764.152.898.08.898-.484 0-.571-.182-.664-1.307-.664-1.827 0-2.752.91-2.752 2.709 0 1.833.783 2.6 2.654 2.6 1.225 0 1.405-.085 1.405-.664zm5.211-.015c.974-.915.997-2.893.044-3.907-.915-.974-2.893-.996-3.907-.044-.974.915-.997 2.893-.044 3.907.915.975 2.893.997 3.907.044zm-2.603-.59c-1.185-.439-1.104-2.54.11-2.857.844-.22 1.856.233 2.033.91.372 1.423-.765 2.456-2.143 1.946zm7.912.59c.975-.915.997-2.893.044-3.907-.528-.562-1.014-.723-2.186-.723h-1.507V18.378h1.463c1.073 0 1.657-.181 2.186-.679zm-2.712-1.975v-1.786l.859.212c1.136.281 1.405.582 1.405 1.574 0 .991-.269 1.292-1.405 1.573l-.86.212zm7.807 2.186c0-.339-.347-.469-1.249-.469-1.04 0-1.25-.104-1.25-.624 0-.506.21-.625 1.094-.625.763 0 1.093-.141 1.093-.468 0-.328-.33-.469-1.093-.469-.885 0-1.093-.119-1.093-.624 0-.506.208-.625 1.093-.625.763 0 1.093-.141 1.093-.468 0-.354-.382-.469-1.561-.469h-1.562V18.378h1.718c1.318 0 1.717-.109 1.717-.468z"/>
</svg>
