<svg xmlns="http://www.w3.org/2000/svg" width="40" height="40" viewBox="0 0 490 490">
  <path d="M86.712 314.255l-61.235 33.843L245 467.848l219.523-119.75c-20.412-11.28-40.824-22.562-61.235-33.843l-158.29 85.931-158.286-85.931zm0-67.088l-61.235 33.844L245 400.76l219.523-119.75c-20.412-11.28-40.824-22.562-61.235-33.843L244.998 333.1 86.712 247.167zm0-67.087l-61.235 33.843L245 333.672l219.523-119.749c-20.412-11.28-40.824-22.562-61.235-33.843l-158.29 85.931L86.712 180.08zm377.818-36.41L245.008 266.545 25.485 143.67 245.008 22.199 464.53 143.671z" fill="none" stroke="#fff" stroke-width="24.461"/>
</svg>
