<?xml version="1.0" encoding="UTF-8" standalone="no"?>
<svg
   xmlns:dc="http://purl.org/dc/elements/1.1/"
   xmlns:cc="http://creativecommons.org/ns#"
   xmlns:rdf="http://www.w3.org/1999/02/22-rdf-syntax-ns#"
   xmlns:svg="http://www.w3.org/2000/svg"
   xmlns="http://www.w3.org/2000/svg"
   xmlns:xlink="http://www.w3.org/1999/xlink"
   id="svg8"
   version="1.1"
   viewBox="0 0 60 103.8679"
   height="103.8679mm"
   width="60mm">
  <defs
     id="defs2">
    <linearGradient
       id="linearGradient843-6">
      <stop
         id="stop839"
         offset="0"
         style="stop-color:#0067ff;stop-opacity:0.62383175" />
      <stop
         style="stop-color:#0066ff;stop-opacity:0.32941176;"
         offset="0.43748358"
         id="stop856" />
      <stop
         id="stop841"
         offset="1"
         style="stop-color:#0066ff;stop-opacity:0" />
    </linearGradient>
    <linearGradient
       y2="208.32903"
       x2="0.34254944"
       y1="281.95621"
       x1="-0.19499993"
       gradientUnits="userSpaceOnUse"
       id="linearGradient854"
       xlink:href="#linearGradient843-6" />
  </defs>
  <metadata
     id="metadata5">
    <rdf:RDF>
      <cc:Work
         rdf:about="">
        <dc:format>image/svg+xml</dc:format>
        <dc:type
           rdf:resource="http://purl.org/dc/dcmitype/StillImage" />
        <dc:title></dc:title>
      </cc:Work>
    </rdf:RDF>
  </metadata>
  <g
     transform="translate(30,-208.13209)"
     id="layer1">
    <path
       id="rect836"
       d="m -30,212 c 17.419882,-3.59226 24.0922431,-6.51855 60,0 l -15.053708,85 h -29.892586 z"
       style="opacity:1;vector-effect:none;fill:url(#linearGradient854);fill-opacity:1;stroke:none;stroke-width:0.107;stroke-miterlimit:4;stroke-dasharray:none" />
    <path
       transform="matrix(0.26458333,0,0,0.26458333,-30,208.13209)"
       id="path815-3"
       d="M 113.38672 279.37891 A 56.500314 56.500317 0 0 0 56.884766 335.87891 A 56.500314 56.500317 0 0 0 113.38672 392.37891 A 56.500314 56.500317 0 0 0 169.88672 335.87891 A 56.500314 56.500317 0 0 0 113.38672 279.37891 z M 113.38672 298.51562 A 37.363111 37.363114 0 0 1 150.74805 335.87891 A 37.363111 37.363114 0 0 1 113.38672 373.24219 A 37.363111 37.363114 0 0 1 76.023438 335.87891 A 37.363111 37.363114 0 0 1 113.38672 298.51562 z "
       style="opacity:1;vector-effect:none;fill:#ffffff;fill-opacity:1;stroke:#000000;stroke-width:0.38519281;stroke-miterlimit:4;stroke-dasharray:none" />
    <ellipse
       ry="9.8856573"
       rx="9.8856564"
       cy="297"
       cx="-5.3466795e-07"
       id="path815"
       style="opacity:1;vector-effect:none;fill:#0066ff;fill-opacity:1;stroke-width:0.83570778" />
  </g>
</svg>
