<?xml version="1.0" encoding="UTF-8" standalone="no"?>
<!-- Created with Inkscape (http://www.inkscape.org/) -->

<svg
   xmlns:dc="http://purl.org/dc/elements/1.1/"
   xmlns:cc="http://creativecommons.org/ns#"
   xmlns:rdf="http://www.w3.org/1999/02/22-rdf-syntax-ns#"
   xmlns:svg="http://www.w3.org/2000/svg"
   xmlns="http://www.w3.org/2000/svg"
   xmlns:sodipodi="http://sodipodi.sourceforge.net/DTD/sodipodi-0.dtd"
   xmlns:inkscape="http://www.inkscape.org/namespaces/inkscape"
   width="67.481895mm"
   height="135.35361mm"
   viewBox="0 0 67.481895 135.35361"
   version="1.1"
   id="svg1075"
   inkscape:version="0.92.5 (2060ec1f9f, 2020-04-08)"
   sodipodi:docname="map-pin-bw.svg">
  <defs
     id="defs1069" />
  <sodipodi:namedview
     id="base"
     pagecolor="#ffffff"
     bordercolor="#666666"
     borderopacity="1.0"
     inkscape:pageopacity="0.0"
     inkscape:pageshadow="2"
     inkscape:zoom="1.1183594"
     inkscape:cx="-71.832561"
     inkscape:cy="255.1119"
     inkscape:document-units="mm"
     inkscape:current-layer="layer1"
     showgrid="false"
     inkscape:window-width="1920"
     inkscape:window-height="989"
     inkscape:window-x="0"
     inkscape:window-y="0"
     inkscape:window-maximized="1" />
  <metadata
     id="metadata1072">
    <rdf:RDF>
      <cc:Work
         rdf:about="">
        <dc:format>image/svg+xml</dc:format>
        <dc:type
           rdf:resource="http://purl.org/dc/dcmitype/StillImage" />
        <dc:title></dc:title>
      </cc:Work>
    </rdf:RDF>
  </metadata>
  <g
     inkscape:label="Ebene 1"
     inkscape:groupmode="layer"
     id="layer1"
     transform="translate(-125.66707,-80.978078)">
    <path
       style="fill:#000000;stroke-width:0.26458332"
       d="m 150.95242,186.30068 c 0,-16.51705 0.0298,-30.03002 0.0662,-30.02881 0.0364,0.001 1.37583,0.17748 2.97656,0.39171 3.69415,0.4944 7.15376,0.4944 10.84791,0 1.60073,-0.21423 2.94019,-0.3905 2.97657,-0.39171 0.0364,-0.001 0.0661,11.60604 0.0661,25.79387 v 25.79608 l -8.46667,4.23493 -8.46667,4.23494 z m 3.30729,-38.07578 c -7.54955,-1.26823 -13.68987,-4.41279 -18.91771,-9.68805 -4.67151,-4.71389 -7.73868,-10.4622 -9.17337,-17.19218 -0.66875,-3.13703 -0.66875,-10.09213 0,-13.22916 1.45323,-6.81699 4.52752,-12.533605 9.3149,-17.320978 4.78737,-4.787374 10.50398,-7.861662 17.32097,-9.314894 3.13703,-0.668747 10.09213,-0.668747 13.22917,0 12.09236,2.577828 21.69298,11.028781 25.51139,22.456422 1.25037,3.7421 1.6039,6.1213 1.6039,10.79403 0,3.21084 -0.12681,4.96051 -0.47943,6.61458 -1.45423,6.82168 -4.52051,12.52076 -9.33104,17.34297 -4.65889,4.6702 -10.45858,7.81497 -17.04024,9.23974 -2.72101,0.58904 -9.3308,0.75239 -12.03854,0.29752 z m 0.16911,-42.81839 c 5.30606,-2.46145 6.56356,-9.416347 2.44688,-13.533033 -3.25503,-3.255026 -8.59154,-3.255026 -11.84656,0 -3.25449,3.254484 -3.25449,8.615823 0,11.835593 2.56169,2.53437 6.18502,3.18869 9.39968,1.69744 z"
       id="path1088"
       inkscape:connector-curvature="0" />
  </g>
</svg>
