<?xml version="1.0" encoding="UTF-8" standalone="no"?>
<!-- Created with Inkscape (http://www.inkscape.org/) -->

<svg
   xmlns:dc="http://purl.org/dc/elements/1.1/"
   xmlns:cc="http://creativecommons.org/ns#"
   xmlns:rdf="http://www.w3.org/1999/02/22-rdf-syntax-ns#"
   xmlns:svg="http://www.w3.org/2000/svg"
   xmlns="http://www.w3.org/2000/svg"
   xmlns:xlink="http://www.w3.org/1999/xlink"
   xmlns:sodipodi="http://sodipodi.sourceforge.net/DTD/sodipodi-0.dtd"
   xmlns:inkscape="http://www.inkscape.org/namespaces/inkscape"
   width="48"
   height="48"
   viewBox="0 0 135.46666 135.46667"
   version="1.1"
   id="svg1066"
   inkscape:version="0.92.5 (2060ec1f9f, 2020-04-08)"
   sodipodi:docname="map-pin.svg">
  <defs
     id="defs1060">
    <linearGradient
       id="linearGradient1059"
       inkscape:collect="always">
      <stop
         id="stop1047"
         offset="0"
         style="stop-color:#ff06a3;stop-opacity:1" />
      <stop
         style="stop-color:#fe6ecd;stop-opacity:1;"
         offset="0.28936955"
         id="stop1063" />
      <stop
         style="stop-color:#fe74d0;stop-opacity:1;"
         offset="0.3137964"
         id="stop1061" />
      <stop
         style="stop-color:#fe82d6;stop-opacity:1"
         offset="0.34278068"
         id="stop1049" />
      <stop
         id="stop1051"
         offset="0.44107196"
         style="stop-color:#eb2db2;stop-opacity:1" />
      <stop
         style="stop-color:#f837c2;stop-opacity:1"
         offset="0.57651961"
         id="stop1053" />
      <stop
         id="stop1055"
         offset="0.66666079"
         style="stop-color:#b8158d;stop-opacity:1" />
      <stop
         id="stop1057"
         offset="1"
         style="stop-color:#aa0088;stop-opacity:1" />
    </linearGradient>
    <linearGradient
       inkscape:collect="always"
       id="linearGradient1041">
      <stop
         style="stop-color:#ff06a3;stop-opacity:1"
         offset="0"
         id="stop1031" />
      <stop
         id="stop1045"
         offset="0.10937158"
         style="stop-color:#ff80d0;stop-opacity:1" />
      <stop
         id="stop1033"
         offset="0.52997237"
         style="stop-color:#ffe4f6;stop-opacity:1" />
      <stop
         style="stop-color:#eb2db2;stop-opacity:1"
         offset="0.64766985"
         id="stop1035" />
      <stop
         id="stop1043"
         offset="0.89729112"
         style="stop-color:#150410;stop-opacity:1" />
      <stop
         id="stop1037"
         offset="1"
         style="stop-color:#25031d;stop-opacity:1" />
      <stop
         style="stop-color:#b93fa9;stop-opacity:1"
         offset="1"
         id="stop1039" />
    </linearGradient>
    <linearGradient
       inkscape:collect="always"
       id="linearGradient1774-9">
      <stop
         style="stop-color:#ff06a3;stop-opacity:1"
         offset="0"
         id="stop1961" />
      <stop
         id="stop1963"
         offset="0.52997237"
         style="stop-color:#fe82d6;stop-opacity:1" />
      <stop
         style="stop-color:#f592d7;stop-opacity:1"
         offset="0.75392568"
         id="stop1965" />
      <stop
         id="stop1967"
         offset="0.95977563"
         style="stop-color:#ee28bf;stop-opacity:1" />
      <stop
         style="stop-color:#c657b7;stop-opacity:1"
         offset="1"
         id="stop1969" />
    </linearGradient>
    <linearGradient
       inkscape:collect="always"
       id="linearGradient1938">
      <stop
         style="stop-color:#ffe680;stop-opacity:1;"
         offset="0"
         id="stop1934" />
      <stop
         id="stop1948"
         offset="0.18121184"
         style="stop-color:#fb9424;stop-opacity:0.91764706" />
      <stop
         id="stop1944"
         offset="0.4025355"
         style="stop-color:#faef00;stop-opacity:0.81960785" />
      <stop
         id="stop1942"
         offset="0.59743673"
         style="stop-color:#ffe680;stop-opacity:0.72196263" />
      <stop
         style="stop-color:#c9a200;stop-opacity:0.43921569"
         offset="0.75457782"
         id="stop1946" />
      <stop
         style="stop-color:#ffe680;stop-opacity:0;"
         offset="1"
         id="stop1936" />
    </linearGradient>
    <linearGradient
       id="linearGradient1774-9-4"
       inkscape:collect="always">
      <stop
         id="stop1766"
         offset="0"
         style="stop-color:#ff06a3;stop-opacity:1" />
      <stop
         style="stop-color:#fe82d6;stop-opacity:1"
         offset="0.52997237"
         id="stop1768" />
      <stop
         id="stop1770"
         offset="0.93296272"
         style="stop-color:#eb2db2;stop-opacity:1" />
      <stop
         style="stop-color:#25031d;stop-opacity:1"
         offset="0.95977563"
         id="stop1776" />
      <stop
         id="stop1772"
         offset="1"
         style="stop-color:#b93fa9;stop-opacity:1" />
    </linearGradient>
    <linearGradient
       inkscape:collect="always"
       id="linearGradient1735-2">
      <stop
         style="stop-color:#ff06a3;stop-opacity:1"
         offset="0"
         id="stop1731" />
      <stop
         id="stop1741"
         offset="0.34278068"
         style="stop-color:#fe82d6;stop-opacity:1" />
      <stop
         style="stop-color:#eb2db2;stop-opacity:1"
         offset="0.44107196"
         id="stop1743" />
      <stop
         id="stop1778"
         offset="0.57651961"
         style="stop-color:#f837c2;stop-opacity:1" />
      <stop
         style="stop-color:#b8158d;stop-opacity:1"
         offset="0.66666079"
         id="stop1780" />
      <stop
         style="stop-color:#aa0088;stop-opacity:1"
         offset="1"
         id="stop1733" />
    </linearGradient>
    <linearGradient
       inkscape:collect="always"
       xlink:href="#linearGradient1059"
       id="linearGradient1739"
       x1="-541.46234"
       y1="-93.258736"
       x2="-240.19154"
       y2="-326.61166"
       gradientUnits="userSpaceOnUse"
       gradientTransform="matrix(0.25187974,0,0,0.25187974,-12.915805,-2.7267546)" />
    <radialGradient
       inkscape:collect="always"
       xlink:href="#linearGradient1041"
       id="radialGradient1755"
       cx="-56.236343"
       cy="-152.54346"
       fx="-56.236343"
       fy="-152.54346"
       r="42.549789"
       gradientTransform="matrix(0.77631778,-0.55100712,0.34054111,0.47979075,-41.656684,-43.606169)"
       gradientUnits="userSpaceOnUse" />
    <radialGradient
       inkscape:collect="always"
       xlink:href="#linearGradient1774-9"
       id="radialGradient1755-6"
       cx="-56.236343"
       cy="-152.54346"
       fx="-56.236343"
       fy="-152.54346"
       r="42.549789"
       gradientTransform="matrix(0.84209388,-0.57731755,0.3326879,0.48526919,3.060534,6.3138651)"
       gradientUnits="userSpaceOnUse" />
    <radialGradient
       inkscape:collect="always"
       xlink:href="#linearGradient1041"
       id="radialGradient1755-6-2-8"
       cx="-56.236343"
       cy="-152.54346"
       fx="-56.236343"
       fy="-152.54346"
       r="42.549789"
       gradientTransform="matrix(0.91609759,-0.65021865,0.40185722,0.56617942,17.773562,14.556506)"
       gradientUnits="userSpaceOnUse" />
    <linearGradient
       inkscape:collect="always"
       xlink:href="#linearGradient1938"
       id="linearGradient1940"
       x1="-60.026253"
       y1="-18.618567"
       x2="-74.785957"
       y2="-5.4699574"
       gradientUnits="userSpaceOnUse"
       gradientTransform="matrix(0.95198642,0,0,0.95198642,-9.5514724,1.6270876)" />
    <linearGradient
       inkscape:collect="always"
       xlink:href="#linearGradient1938"
       id="linearGradient204"
       gradientUnits="userSpaceOnUse"
       x1="-60.026253"
       y1="-18.618567"
       x2="-74.785957"
       y2="-5.4699574"
       gradientTransform="matrix(0.95198642,0,0,0.95198642,-9.5514724,1.6270876)" />
    <radialGradient
       inkscape:collect="always"
       xlink:href="#linearGradient1774-9-4"
       id="radialGradient206"
       gradientUnits="userSpaceOnUse"
       gradientTransform="matrix(0.91609759,-0.65021865,0.40185722,0.56617942,17.773562,14.556506)"
       cx="-56.236343"
       cy="-152.54346"
       fx="-56.236343"
       fy="-152.54346"
       r="42.549789" />
    <radialGradient
       inkscape:collect="always"
       xlink:href="#linearGradient1774-9"
       id="radialGradient208"
       gradientUnits="userSpaceOnUse"
       gradientTransform="matrix(0.84209388,-0.57731755,0.3326879,0.48526919,3.060534,6.3138651)"
       cx="-56.236343"
       cy="-152.54346"
       fx="-56.236343"
       fy="-152.54346"
       r="42.549789" />
    <linearGradient
       inkscape:collect="always"
       xlink:href="#linearGradient1735-2"
       id="linearGradient210"
       gradientUnits="userSpaceOnUse"
       gradientTransform="matrix(0.25187974,0,0,0.25187974,-12.915805,-2.7267546)"
       x1="-541.46234"
       y1="-93.258736"
       x2="-240.19154"
       y2="-326.61166" />
    <radialGradient
       inkscape:collect="always"
       xlink:href="#linearGradient1774-9-4"
       id="radialGradient212"
       gradientUnits="userSpaceOnUse"
       gradientTransform="matrix(0.77631778,-0.55100712,0.34054111,0.47979075,-41.656684,-43.606169)"
       cx="-56.236343"
       cy="-152.54346"
       fx="-56.236343"
       fy="-152.54346"
       r="42.549789" />
  </defs>
  <sodipodi:namedview
     id="base"
     pagecolor="#ffffff"
     bordercolor="#666666"
     borderopacity="1.0"
     inkscape:pageopacity="0.0"
     inkscape:pageshadow="2"
     inkscape:zoom="1.6178518"
     inkscape:cx="288.31853"
     inkscape:cy="246.62333"
     inkscape:document-units="mm"
     inkscape:current-layer="g224"
     showgrid="false"
     inkscape:window-width="1920"
     inkscape:window-height="989"
     inkscape:window-x="0"
     inkscape:window-y="0"
     inkscape:window-maximized="1"
     units="px"
     showguides="false" />
  <metadata
     id="metadata1063">
    <rdf:RDF>
      <cc:Work
         rdf:about="">
        <dc:format>image/svg+xml</dc:format>
        <dc:type
           rdf:resource="http://purl.org/dc/dcmitype/StillImage" />
        <dc:title></dc:title>
      </cc:Work>
    </rdf:RDF>
  </metadata>
  <g
     inkscape:label="Ebene 1"
     inkscape:groupmode="layer"
     id="layer1"
     transform="translate(172.04061,101.57855)">
    <g
       id="g224"
       transform="matrix(0.86550626,0,0,0.86550626,-4.9189662,4.5577394)">
      <path
         sodipodi:nodetypes="ccccc"
         inkscape:connector-curvature="0"
         id="path1659-6-1"
         d="M -38.998183,31.967718 C -54.273642,19.150471 -68.948321,5.6146801 -84.225183,-7.205224 l 15.272042,-14.082306 c 9.551108,14.9178437 22.552464,39.235568 31.79931,54.337981 -0.195911,1.227329 -1.74523,-2.000809 -1.844352,-1.082733 z"
         style="fill:url(#linearGradient204);fill-opacity:1;stroke:#000000;stroke-width:1.1090641;stroke-miterlimit:4;stroke-dasharray:none;stroke-opacity:1" />
      <path
         inkscape:connector-curvature="0"
         id="path1745-0-2-2"
         d="m -75.14007,-71.891787 a 29.542194,47.800273 54.634008 0 0 -37.00418,12.556598 29.542194,47.800273 54.634008 0 0 -21.88058,51.7573512 29.542194,47.800273 54.634008 0 0 56.078661,-3.5760032 29.542194,47.800273 54.634008 0 0 21.881068,-51.757349 29.542194,47.800273 54.634008 0 0 -19.074969,-8.980597 z m -3.037316,5.592026 a 25.034593,40.50682 54.634008 0 1 16.164578,7.610014 25.034593,40.50682 54.634008 0 1 -18.542184,43.860036 25.034593,40.50682 54.634008 0 1 -47.522128,3.030428 25.034593,40.50682 54.634008 0 1 18.54218,-43.860036 25.034593,40.50682 54.634008 0 1 31.357554,-10.640442 z"
         style="opacity:1;vector-effect:none;fill:url(#radialGradient206);fill-opacity:1;stroke:none;stroke-width:0.12020342;stroke-miterlimit:4;stroke-dasharray:none" />
      <path
         id="path1745-0"
         d="m -62.012946,-58.689786 a 25.034593,40.506821 54.634008 0 1 -18.542203,43.860238 25.034593,40.506821 54.634008 0 1 -47.522121,3.030236 25.034593,40.506821 54.634008 0 1 18.54221,-43.860228 25.034593,40.506821 54.634008 0 1 47.522114,-3.030246 z"
         style="opacity:1;vector-effect:none;fill:url(#radialGradient208);fill-opacity:1;stroke:none;stroke-width:0.10186255;stroke-miterlimit:4;stroke-dasharray:none"
         inkscape:connector-curvature="0" />
      <path
         sodipodi:nodetypes="ccccsccc"
         inkscape:connector-curvature="0"
         id="rect1708"
         d="m -121.81395,-93.416741 c -8.3252,7.070365 -20.55574,15.060989 -31.24538,20.562141 l 27.24729,30.582235 11.19974,14.906634 c 2.38408,-0.955402 4.83796,1.544924 9.24838,1.722058 4.63316,0.186079 11.220515,-1.966184 13.402764,-3.755037 6.423496,-3.406316 12.354717,-11.847906 8.323112,-17.150278 z"
         style="opacity:1;vector-effect:none;fill:url(#linearGradient210);fill-opacity:1;stroke:none;stroke-width:0.10186254;stroke-miterlimit:4;stroke-dasharray:none" />
      <path
         inkscape:connector-curvature="0"
         id="path1745"
         d="m -104.22912,-109.25373 a 25.034593,40.506821 54.634008 0 1 -18.5422,43.860242 25.034593,40.506821 54.634008 0 1 -47.52212,3.030238 25.034593,40.506821 54.634008 0 1 18.54221,-43.86023 25.034593,40.506821 54.634008 0 1 47.52211,-3.03025 z"
         style="opacity:1;vector-effect:none;fill:url(#radialGradient212);fill-opacity:1;stroke:none;stroke-width:0.10186254;stroke-miterlimit:4;stroke-dasharray:none" />
      <path
         style="fill:url(#linearGradient1940);fill-opacity:1;stroke:#000000;stroke-width:1.1090641;stroke-miterlimit:4;stroke-dasharray:none;stroke-opacity:1"
         d="M -38.998183,31.967718 C -54.273642,19.150471 -68.948321,5.6146801 -84.225183,-7.205224 l 15.272042,-14.082306 c 9.551108,14.9178437 22.552464,39.235568 31.79931,54.337981 -0.195911,1.227329 -1.74523,-2.000809 -1.844352,-1.082733 z"
         id="path1972"
         inkscape:connector-curvature="0"
         sodipodi:nodetypes="ccccc" />
      <path
         style="opacity:1;vector-effect:none;fill:url(#radialGradient1755-6-2-8);fill-opacity:1.0;stroke:none;stroke-width:0.12020342;stroke-miterlimit:4;stroke-dasharray:none"
         d="m -75.14007,-71.891787 a 29.542194,47.800273 54.634008 0 0 -37.00418,12.556598 29.542194,47.800273 54.634008 0 0 -21.88058,51.7573512 29.542194,47.800273 54.634008 0 0 56.078661,-3.5760032 29.542194,47.800273 54.634008 0 0 21.881068,-51.757349 29.542194,47.800273 54.634008 0 0 -19.074969,-8.980597 z m -3.037316,5.592026 a 25.034593,40.50682 54.634008 0 1 16.164578,7.610014 25.034593,40.50682 54.634008 0 1 -18.542184,43.860036 25.034593,40.50682 54.634008 0 1 -47.522128,3.030428 25.034593,40.50682 54.634008 0 1 18.54218,-43.860036 25.034593,40.50682 54.634008 0 1 31.357554,-10.640442 z"
         id="path1974"
         inkscape:connector-curvature="0" />
      <path
         inkscape:connector-curvature="0"
         style="opacity:1;vector-effect:none;fill:url(#radialGradient1755-6);fill-opacity:1;stroke:none;stroke-width:0.10186255;stroke-miterlimit:4;stroke-dasharray:none"
         d="m -62.012946,-58.689786 a 25.034593,40.506821 54.634008 0 1 -18.542203,43.860238 25.034593,40.506821 54.634008 0 1 -47.522121,3.030236 25.034593,40.506821 54.634008 0 1 18.54221,-43.860228 25.034593,40.506821 54.634008 0 1 47.522114,-3.030246 z"
         id="path1976" />
      <path
         style="opacity:1;vector-effect:none;fill:url(#linearGradient1739);fill-opacity:1;stroke:none;stroke-width:0.10186254;stroke-miterlimit:4;stroke-dasharray:none"
         d="m -121.81395,-93.416741 c -8.3252,7.070365 -20.55574,15.060989 -31.24538,20.562141 l 27.24729,30.582235 11.19974,14.906634 c 2.38408,-0.955402 4.83796,1.544924 9.24838,1.722058 4.63316,0.186079 11.220515,-1.966184 13.402764,-3.755037 6.423496,-3.406316 12.354717,-11.847906 8.323112,-17.150278 z"
         id="path1978"
         inkscape:connector-curvature="0"
         sodipodi:nodetypes="ccccsccc" />
      <path
         style="fill:none;stroke:#000000;stroke-width:2.65740424;stroke-linecap:round;stroke-linejoin:round;stroke-miterlimit:4;stroke-dasharray:none;stroke-opacity:1"
         d="m -139.35972,-57.444378 c 25.97022,29.467251 25.97022,29.467251 25.97022,29.467251 v 0"
         id="path1067"
         inkscape:connector-curvature="0" />
      <path
         inkscape:connector-curvature="0"
         style="opacity:1;vector-effect:none;fill:url(#radialGradient1755);fill-opacity:1;stroke:none;stroke-width:0.10186254;stroke-miterlimit:4;stroke-dasharray:none"
         d="m -104.22912,-109.25373 a 25.034593,40.506821 54.634008 0 1 -18.5422,43.860242 25.034593,40.506821 54.634008 0 1 -47.52212,3.030238 25.034593,40.506821 54.634008 0 1 18.54221,-43.86023 25.034593,40.506821 54.634008 0 1 47.52211,-3.03025 z"
         id="path1980" />
    </g>
  </g>
</svg>
