<?xml version="1.0" encoding="UTF-8" standalone="no"?>
<!-- Created with Inkscape (http://www.inkscape.org/) -->

<svg
   xmlns:dc="http://purl.org/dc/elements/1.1/"
   xmlns:cc="http://creativecommons.org/ns#"
   xmlns:rdf="http://www.w3.org/1999/02/22-rdf-syntax-ns#"
   xmlns:svg="http://www.w3.org/2000/svg"
   xmlns="http://www.w3.org/2000/svg"
   xmlns:sodipodi="http://sodipodi.sourceforge.net/DTD/sodipodi-0.dtd"
   xmlns:inkscape="http://www.inkscape.org/namespaces/inkscape"
   width="134.44971mm"
   height="259.21512mm"
   viewBox="0 0 134.44971 259.21512"
   version="1.1"
   id="svg8"
   inkscape:version="0.92.5 (2060ec1f9f, 2020-04-08)"
   sodipodi:docname="map-pin-circle.svg">
  <defs
     id="defs2" />
  <sodipodi:namedview
     id="base"
     pagecolor="#ffffff"
     bordercolor="#666666"
     borderopacity="1.0"
     inkscape:pageopacity="0.0"
     inkscape:pageshadow="2"
     inkscape:zoom="0.81452618"
     inkscape:cx="254.07819"
     inkscape:cy="489.85534"
     inkscape:document-units="mm"
     inkscape:current-layer="layer1"
     showgrid="false"
     inkscape:window-width="1920"
     inkscape:window-height="989"
     inkscape:window-x="0"
     inkscape:window-y="0"
     inkscape:window-maximized="1" />
  <metadata
     id="metadata5">
    <rdf:RDF>
      <cc:Work
         rdf:about="">
        <dc:format>image/svg+xml</dc:format>
        <dc:type
           rdf:resource="http://purl.org/dc/dcmitype/StillImage" />
        <dc:title></dc:title>
      </cc:Work>
    </rdf:RDF>
  </metadata>
  <g
     inkscape:label="Ebene 1"
     inkscape:groupmode="layer"
     id="layer1"
     transform="translate(-68.626109,-73.699103)">
    <path
       style="fill:#000000;stroke-width:0.26458332"
       d="m 128.38955,332.78319 c -25.57285,-1.37795 -46.053265,-7.6735 -55.301349,-16.99927 -3.118635,-3.14483 -4.287019,-5.44164 -4.44458,-8.73718 -0.182393,-3.81491 1.045513,-6.59127 4.363867,-9.86694 2.296033,-2.26649 4.080412,-3.5886 7.227893,-5.35539 10.906334,-6.12211 27.250709,-9.95543 47.426559,-11.12319 l 2.84427,-0.16462 v 5.17707 5.17707 h -0.67168 c -3.87264,0 -15.6212,1.02917 -21.27367,1.86357 -15.538334,2.29371 -26.720844,6.66438 -29.129167,11.38508 -3.516561,6.89303 10.026664,14.11917 32.685977,17.43997 8.20136,1.20194 12.23894,1.449 23.68021,1.449 11.46352,0 15.37509,-0.2402 23.8125,-1.46226 22.80351,-3.30282 36.65355,-10.90277 32.32051,-17.73526 -4.10451,-6.47214 -21.63241,-11.34738 -45.54968,-12.66926 -2.69213,-0.14879 -4.98408,-0.2706 -5.09322,-0.27068 -0.10914,-9e-5 -0.19844,-2.32909 -0.19844,-5.17555 v -5.1754 l 1.78594,0.14268 c 0.98226,0.0785 3.03609,0.21181 4.56406,0.29629 12.2195,0.6756 26.47497,3.50437 35.7761,7.09918 17.14008,6.62449 23.70942,15.9302 17.65082,25.00302 -7.75738,11.61677 -35.92436,20.09602 -65.86234,19.82687 -2.83765,-0.0255 -5.81422,-0.0817 -6.61458,-0.1248 z m 0.55736,-78.86803 c -3.69527,-37.36244 -6.75838,-67.97857 -6.80692,-68.03585 -0.0485,-0.0573 -1.66857,-0.62829 -3.60007,-1.2689 -6.42145,-2.12978 -12.91822,-5.69305 -18.3285,-10.05258 C 81.104065,159.1614 74.034726,133.81194 82.502942,111.05821 91.980774,85.591678 118.89738,70.00637 145.71976,74.454279 c 13.67547,2.267781 25.74888,9.192101 34.69763,19.899721 6.3876,7.6431 10.70144,17.21707 12.43611,27.60029 0.67608,4.04682 0.68474,13.36911 0.0161,17.35349 -3.73554,22.26054 -19.28687,39.90185 -40.57077,46.02317 l -2.9459,0.84724 -0.11986,1.22555 c -4.38397,44.82611 -13.3396,134.44295 -13.4352,134.44303 -0.0728,6e-5 -3.1557,-30.56916 -6.85097,-67.93161 z m -3.61802,-123.83979 c 4.56532,-1.67042 8.07734,-5.23061 9.70773,-9.84087 0.87537,-2.47529 0.88561,-7.05101 0.0214,-9.55816 -4.09142,-11.869494 -19.28427,-14.606633 -26.98515,-4.86163 -2.25016,2.84744 -3.29212,5.96017 -3.28654,9.81814 0.008,5.55278 3.13229,10.71565 8.08744,13.36457 2.71705,1.45247 4.3837,1.8203 7.84286,1.73089 2.31686,-0.0599 3.41713,-0.21564 4.61226,-0.65294 z"
       id="path826"
       inkscape:connector-curvature="0" />
  </g>
</svg>
