<svg xmlns="http://www.w3.org/2000/svg" xml:space="preserve" width="48" height="48">
  <defs>
    <linearGradient xmlns="http://www.w3.org/2000/svg" id="a" x1="0" x2="0" y1="0" y2="1">
      <stop offset="0" stop-color="red"/>
      <stop offset=".333" stop-color="#ff0"/>
      <stop offset=".5" stop-color="#0f0"/>
      <stop offset=".666" stop-color="#0ff"/>
      <stop offset=".833" stop-color="#00f"/>
      <stop offset="1" stop-color="#f0f"/>
    </linearGradient>
  </defs>
  <path fill="url(#a)" d="M24.39 1.054c.77.852 1.229 2.587 1.411 4 .068 4.567.042 9.327 0 13.889a776.135 776.135 0 0 1 19.13 13.215l-.007 1.644c-.003.902-.019 1.647-.042 1.65l-19.08-7.585v11.218c.646.47 7.185 5.853 7.39 6.064.242.525-.322 2.067-.443 2.698l-9.033-3.462-8.27 3.114-.582.239-.33-1.353c-.221-.927-.293-1.378-.217-1.439.065-.047.978-.74 2.027-1.533 4.718-3.591 4.89-4.085 4.945-4.16V27.867L12.2 31.54c-4.848 1.96-8.832 3.588-8.875 3.59-.08-.006-.315-2.677-.24-2.738 6.486-4.657 11.317-8.303 18.205-13.45-.058-4.09-.256-8.299 0-12.158.094-1.287-.095-2.83.23-3.728.296-.825.969-1.955 1.525-2.548l.333-.357.318.241c.18.13.488.427.696.662z" style="stroke:#000;stroke-width:.5;stroke-miterlimit:4;stroke-dasharray:none"/>
</svg>
