<?xml version="1.0" encoding="UTF-8" standalone="no"?>
<!-- Svg Vector Icons : http://www.onlinewebfonts.com/icon -->

<svg
   xmlns:dc="http://purl.org/dc/elements/1.1/"
   xmlns:cc="http://creativecommons.org/ns#"
   xmlns:rdf="http://www.w3.org/1999/02/22-rdf-syntax-ns#"
   xmlns:svg="http://www.w3.org/2000/svg"
   xmlns="http://www.w3.org/2000/svg"
   xmlns:sodipodi="http://sodipodi.sourceforge.net/DTD/sodipodi-0.dtd"
   xmlns:inkscape="http://www.inkscape.org/namespaces/inkscape"
   version="1.1"
   x="0px"
   y="0px"
   viewBox="0 0 48.000001 48"
   enable-background="new 0 0 1000 1000"
   xml:space="preserve"
   id="svg10"
   sodipodi:docname="plane.svg"
   width="48"
   height="48"
   inkscape:export-filename="/home/roman/plane.png"
   inkscape:export-xdpi="149.96001"
   inkscape:export-ydpi="149.96001"
   inkscape:version="0.92.5 (2060ec1f9f, 2020-04-08)"><defs
   id="defs14" /><sodipodi:namedview
   pagecolor="#ffffff"
   bordercolor="#666666"
   borderopacity="1"
   objecttolerance="10"
   gridtolerance="10"
   guidetolerance="10"
   inkscape:pageopacity="0"
   inkscape:pageshadow="2"
   inkscape:window-width="1920"
   inkscape:window-height="989"
   id="namedview12"
   showgrid="false"
   inkscape:lockguides="true"
   inkscape:zoom="12.468751"
   inkscape:cx="28.068673"
   inkscape:cy="31.999998"
   inkscape:window-x="0"
   inkscape:window-y="0"
   inkscape:window-maximized="1"
   inkscape:current-layer="svg10" />
<metadata
   id="metadata2"> Svg Vector Icons : http://www.onlinewebfonts.com/icon <rdf:RDF><cc:Work
     rdf:about=""><dc:format>image/svg+xml</dc:format><dc:type
       rdf:resource="http://purl.org/dc/dcmitype/StillImage" /><dc:title></dc:title></cc:Work></rdf:RDF></metadata>
<path
   d="m 24.39082,1.0541032 c 0.768244,0.8516898 1.228058,2.5865558 1.41031,3.9999098 0.06778,4.567049 0.04212,9.326719 0,13.888763 7.015923,4.703819 12.563127,8.540119 19.12932,13.215398 l -0.0067,1.64429 c -0.003,0.901047 -0.01855,1.646167 -0.04212,1.649908 L 25.801227,27.86666 v 11.218679 c 0.646802,0.469465 7.185989,5.852491 7.389919,6.063603 0.242554,0.525024 -0.321227,2.067396 -0.442593,2.698167 l -9.032849,-3.462228 -8.268846,3.1144 -0.582962,0.23852 -0.33069,-1.353209 c -0.220276,-0.926332 -0.292001,-1.377798 -0.216125,-1.438489 0.06531,-0.04698 0.977972,-0.739659 2.026598,-1.532827 4.718002,-3.591532 4.890664,-4.084882 4.945437,-4.16034 V 27.86666 l -9.089634,3.673738 c -4.8487791,1.959712 -8.8328295,3.587806 -8.8752674,3.58883 -0.080013,-0.0053 -0.3155199,-2.676495 -0.2402643,-2.737089 6.4861192,-4.65749 11.3167647,-8.302643 18.2051657,-13.449363 -0.05775,-4.091218 -0.256527,-8.299457 0,-12.158648 0.09372,-1.287125 -0.09526,-2.830253 0.230749,-3.727658 0.294813,-0.825679 0.967647,-1.9552535 1.524457,-2.54853091 l 0.332695,-0.357075 0.318445,0.2415435 c 0.178848,0.129281 0.487785,0.4270193 0.695456,0.66169561 z"
   id="path4"
   inkscape:connector-curvature="0"
   style="fill:#ff00cc;stroke:#000000;stroke-width:0.5;stroke-miterlimit:4;stroke-dasharray:none"
   sodipodi:nodetypes="ccccccccccccccccccscccccccccc" />
</svg>