<?xml version="1.0" encoding="UTF-8" standalone="no"?>
<!-- Svg Vector Icons : http://www.onlinewebfonts.com/icon -->

<svg
   xmlns:dc="http://purl.org/dc/elements/1.1/"
   xmlns:cc="http://creativecommons.org/ns#"
   xmlns:rdf="http://www.w3.org/1999/02/22-rdf-syntax-ns#"
   xmlns:svg="http://www.w3.org/2000/svg"
   xmlns="http://www.w3.org/2000/svg"
   xmlns:sodipodi="http://sodipodi.sourceforge.net/DTD/sodipodi-0.dtd"
   xmlns:inkscape="http://www.inkscape.org/namespaces/inkscape"
   version="1.1"
   x="0px"
   y="0px"
   viewBox="0 0 32.000001 32"
   enable-background="new 0 0 1000 1000"
   xml:space="preserve"
   id="svg10"
   sodipodi:docname="plane.svg"
   width="32"
   height="32"
   inkscape:export-filename="/home/roman/plane.png"
   inkscape:export-xdpi="149.96001"
   inkscape:export-ydpi="149.96001"
   inkscape:version="0.92.5 (2060ec1f9f, 2020-04-08)"><defs
   id="defs14" /><sodipodi:namedview
   pagecolor="#ffffff"
   bordercolor="#666666"
   borderopacity="1"
   objecttolerance="10"
   gridtolerance="10"
   guidetolerance="10"
   inkscape:pageopacity="0"
   inkscape:pageshadow="2"
   inkscape:window-width="1920"
   inkscape:window-height="989"
   id="namedview12"
   showgrid="false"
   inkscape:lockguides="true"
   inkscape:zoom="12.468751"
   inkscape:cx="28.068673"
   inkscape:cy="31.999998"
   inkscape:window-x="0"
   inkscape:window-y="0"
   inkscape:window-maximized="1"
   inkscape:current-layer="svg10" />
<metadata
   id="metadata2"> Svg Vector Icons : http://www.onlinewebfonts.com/icon <rdf:RDF><cc:Work
     rdf:about=""><dc:format>image/svg+xml</dc:format><dc:type
       rdf:resource="http://purl.org/dc/dcmitype/StillImage" /><dc:title></dc:title></cc:Work></rdf:RDF></metadata>
<path
   d="m 16.261235,0.66321762 c 0.513485,0.56925998 0.82082,1.72882498 0.942635,2.67349498 0.0453,3.0525654 0.02815,6.2338754 0,9.2830954 4.689365,3.14398 8.397055,5.70812 12.785825,8.833025 l -0.0045,1.099025 c -0.002,0.60225 -0.0124,1.10028 -0.02815,1.10278 l -12.75314,-5.070205 v 7.49844 c 0.432315,0.313785 4.803035,3.91174 4.93934,4.052845 0.16212,0.35092 -0.214705,1.381825 -0.295825,1.803425 l -6.037455,-2.314115 -5.526805,2.08163 -0.3896454,0.159425 -0.22103,-0.90447 c -0.14723,-0.61915 -0.19517,-0.920905 -0.144455,-0.96147 0.04365,-0.0314 0.6536654,-0.49438 1.3545554,-1.024525 3.15346,-2.40054 3.268865,-2.73029 3.305475,-2.780725 v -7.61046 l -6.0754104,2.455485 c -3.24087,1.30985 -5.903765,2.39805 -5.93213,2.398735 -0.05348,-0.0035 -0.21089,-1.78894 -0.16059,-1.82944 4.33525,-3.113015 7.564,-5.549395 12.1681304,-8.989405 -0.0386,-2.734525 -0.17146,-5.547265 0,-8.1267054 0.06264,-0.8603 -0.06367,-1.89171 0.15423,-2.491525 0.19705,-0.551875 0.646765,-1.30686998 1.01893,-1.70340998 l 0.22237,-0.238665 0.212845,0.161445 c 0.11954,0.08641 0.32603,0.285415 0.464835,0.44227 z"
   id="path4"
   inkscape:connector-curvature="0"
   style="fill:#ffdd55;stroke:#000000;stroke-width:0.15000001;stroke-miterlimit:4;stroke-dasharray:none"
   sodipodi:nodetypes="ccccccccccccccccccscccccccccc" />
</svg>