<?xml version="1.0" encoding="UTF-8" standalone="no"?>
<svg
   xmlns:dc="http://purl.org/dc/elements/1.1/"
   xmlns:cc="http://creativecommons.org/ns#"
   xmlns:rdf="http://www.w3.org/1999/02/22-rdf-syntax-ns#"
   xmlns:svg="http://www.w3.org/2000/svg"
   xmlns="http://www.w3.org/2000/svg"
   xmlns:sodipodi="http://sodipodi.sourceforge.net/DTD/sodipodi-0.dtd"
   xmlns:inkscape="http://www.inkscape.org/namespaces/inkscape"
   inkscape:version="1.0 (1.0+r73+1)"
   height="86.80368"
   width="122.88086"
   sodipodi:docname="show-black.svg"
   id="svg6"
   version="1.1"
   viewBox="0 0 122.88086 86.803681">
  <metadata
     id="metadata10">
    <rdf:RDF>
      <cc:Work
         rdf:about="">
        <dc:format>image/svg+xml</dc:format>
        <dc:type
           rdf:resource="http://purl.org/dc/dcmitype/StillImage" />
        <dc:title></dc:title>
      </cc:Work>
    </rdf:RDF>
  </metadata>
  <sodipodi:namedview
     inkscape:document-rotation="0"
     inkscape:guide-bbox="true"
     inkscape:object-nodes="false"
     inkscape:snap-intersection-paths="false"
     inkscape:snap-others="false"
     inkscape:snap-to-guides="false"
     inkscape:snap-grids="false"
     inkscape:current-layer="svg6"
     inkscape:window-maximized="1"
     inkscape:window-y="0"
     inkscape:window-x="0"
     inkscape:cy="16.795348"
     inkscape:cx="61.439998"
     inkscape:zoom="9.020355"
     showguides="true"
     showgrid="false"
     id="namedview8"
     inkscape:window-height="980"
     inkscape:window-width="1920"
     inkscape:pageshadow="2"
     inkscape:pageopacity="0"
     guidetolerance="10"
     gridtolerance="10"
     objecttolerance="10"
     borderopacity="1"
     bordercolor="#666666"
     pagecolor="#000000">
    <sodipodi:guide
       inkscape:locked="false"
       id="guide2793"
       orientation="0,1"
       position="66.42874,74.986968" />
  </sodipodi:namedview>
  <defs
     id="defs2" />
  <path
     style="fill:#ffffff;fill-opacity:1"
     id="path14"
     d="m 95.73,12.321841 c 10.53,7.09 19.6,17.37 26.48,29.86 l 0.67,1.22 -0.67,1.21 c -6.88,12.49 -15.96,22.77 -26.48,29.86 -10.27,6.92 -21.93,10.82 -34.29,10.82 -12.36,0 -24.02,-3.9 -34.28,-10.81 -10.54,-7.1 -19.61,-17.38 -26.49,-29.87 l -0.67,-1.21 0.67,-1.22 c 6.88,-12.49 15.95,-22.77 26.48,-29.86 10.27,-6.91 21.93,-10.81 34.29,-10.81 12.36,0 24.01,3.9 34.29,10.81 z m -34.94,11.36 4.08,0.39 a 13.814,13.814 0 0 0 -2.31,7.67 c 0,7.48 5.86,13.54 13.1,13.54 2.32,0 4.5,-0.62 6.39,-1.72 0.03,0.47 0.05,0.94 0.05,1.42 0,11.77 -9.54,21.31 -21.31,21.31 -11.77,0 -21.31,-9.54 -21.31,-21.31 0,-11.76 9.54,-21.3 21.31,-21.3 z m 48.21,19.72 c -5.5,-9.66 -12.61,-17.6 -20.79,-23.11 -8.05,-5.42 -17.15,-8.48 -26.77,-8.48 -9.61,0 -18.71,3.06 -26.76,8.48 -8.18,5.51 -15.29,13.45 -20.8,23.11 5.5,9.66 12.62,17.6 20.8,23.1 8.05,5.42 17.15,8.48 26.76,8.48 9.62,0 18.71,-3.06 26.77,-8.48 8.18,-5.5 15.29,-13.44 20.79,-23.1 z"
     inkscape:connector-curvature="0" />
</svg>
