<?xml version="1.0" encoding="UTF-8"?>
<svg enable-background="new 0 0 413.156 413.156" version="1.1" viewBox="0 0 413.16 413.16" xml:space="preserve" xmlns="http://www.w3.org/2000/svg">
<path d="m271.82 222.6-7.873-6.165c-1.564-1.226-3.55-1.78-5.53-1.54-1.975 0.241-3.772 1.255-4.999 2.822l-18.231 23.285v-113.76c0-4.142-3.357-7.5-7.5-7.5h-10c-4.143 0-7.5 3.358-7.5 7.5v113.76l-18.232-23.285c-1.227-1.566-3.024-2.581-4.999-2.822-1.981-0.241-3.965 0.314-5.53 1.54l-7.873 6.165c-3.261 2.553-3.835 7.267-1.281 10.528l44.51 56.847c1.422 1.816 3.6 2.876 5.905 2.876 2.306 0 4.483-1.061 5.905-2.876l44.51-56.847c2.552-3.261 1.978-7.975-1.282-10.528zm140.55-90.688-3.99-8.014c-1.269-2.547-3.868-4.157-6.714-4.157h-111.95c-4.143 0-7.5 3.358-7.5 7.5v10c0 4.142 3.357 7.5 7.5 7.5h86.968l-95.702 128.51c-1.689 2.267-1.958 5.292-0.698 7.822l3.99 8.015c1.269 2.547 3.868 4.157 6.714 4.157h111.32c4.142 0 7.5-3.358 7.5-7.5v-10c0-4.142-3.358-7.5-7.5-7.5h-86.339l95.702-128.51c1.688-2.267 1.958-5.291 0.698-7.822zm-315.26-4.068c-1.251-2.594-3.877-4.243-6.756-4.243h-0.016l-9.018 0.019c-2.885 6e-3 -5.512 1.666-6.754 4.271l-73.838 154.79c-1.108 2.324-0.947 5.054 0.427 7.231 1.373 2.177 3.769 3.498 6.343 3.498h11.08c2.891 0 5.524-1.662 6.769-4.271l19.321-40.504h82.928l19.544 40.533c1.251 2.594 3.876 4.243 6.756 4.243h11.101 0.019c4.143 0 7.5-3.358 7.5-7.5 0-1.359-0.361-2.634-0.993-3.734zm-40.514 95.788 29.314-61.453 29.631 61.453z"/>















</svg>
