<?xml version="1.0" encoding="UTF-8"?>
<svg id="svg22" width="225" height="225" version="1.1" viewBox="0 0 225 225" xmlns="http://www.w3.org/2000/svg">
 <path id="path89" d="m23.652 203.15c-26.245-26.267-26.063-25.532-6.4071-25.93l13.745-0.27819 0.51091-175.44h30l0.51091 175.44 13.745 0.27819c19.656 0.39783 19.838-0.33727-6.4071 25.93-13.35 13.361-21.555 20.848-22.848 20.848s-9.4987-7.4872-22.848-20.848zm88.023 20.19c-0.37131-0.37132-0.67512-7.1166-0.67512-14.989 0-14.016 0.0469-14.326 2.25-14.86 1.2375-0.3002 26.1-0.42127 55.25-0.26905l53 0.27675v30l-54.575 0.25846c-30.016 0.14215-54.879-0.0454-55.25-0.41667zm-0.23191-64.629c-0.27625-0.7199-0.37649-7.5872-0.22274-15.261l0.27953-13.952h86v30l-42.777 0.26076c-34.512 0.21037-42.874 8e-3 -43.28-1.0482zm1e-3 -63.996c-0.27661-0.72195-0.37749-7.591-0.22374-15.264l0.27953-13.952h62v30l-30.776 0.26449c-24.67 0.21201-30.876 0.0041-31.28-1.0482zm0.77685-63.546c-0.96295-0.62051-1.2098-4.3839-1-15.247l0.27894-14.423h38v30l-18 0.24721c-9.9 0.13597-18.575-0.12352-19.279-0.57664z"/>
</svg>
