<?xml version="1.0" encoding="UTF-8"?>
<svg enable-background="new 0 0 1000 1000" version="1.1" viewBox="0 0 1e3 1e3" xml:space="preserve" xmlns="http://www.w3.org/2000/svg">

<g transform="matrix(.1 0 0 -.1 0 511)"><path d="m4570.5 4977.4c-145-22.7-217.6-102-217.6-235.7 2.3-176.8 113.3-256.1 330.9-231.2l145.1 15.9v-548.4h408l4.5 97.5c2.3 52.1 4.5 172.2 6.8 265.2v170l136-6.8c231.2-13.6 621-88.4 904.3-174.5 1643.2-498.6 2889.7-1965 3127.7-3680.7 20.4-138.3 36.3-262.9 36.3-274.2 0-13.6-115.6-22.7-283.3-22.7h-283.3v-476h573.4l-15.9-197.2c-9.1-111.1-40.8-324.1-72.5-478.2-242.5-1214.8-990.4-2259.6-2089.7-2919.2-553-333.2-1307.7-573.4-1829-582.5l-204-4.5v781.9h-419.3v-793.2h-83.9c-145.1 0-523.5 65.7-788.7 133.7-747.9 194.9-1402.9 573.4-1980.9 1142.3-781.9 770.4-1226.1 1686.1-1350.7 2787.6l-13.6 129.2h523.5v476h-521.3v63.3c0 34 15.9 167.7 34 299.2 99.7 747.9 387.6 1450.5 838.6 2051.1 140.5 185.9 419.3 494.1 435.2 478.2 4.5-4.5-9.1-290.1-29.5-634.6-45.3-693.5-43-711.7 95.2-779.6 147.3-70.3 310.5 20.4 337.7 185.8 4.5 38.5 38.5 476 70.2 970 54.4 838.6 56.7 906.6 22.7 958.7-77 117.9-79.3 117.9-1128.7 181.3-1108.3 65.7-1083.3 68-1158.1-86.1-52.1-104.3-38.5-179.1 47.6-265.2 70.2-68 52.1-65.7 949.6-115.6l480.5-27.2-131.4-142.8c-670.9-716.1-1106.1-1627.2-1262.5-2638-49.8-319.6-56.7-1047.1-11.3-1348.5 167.7-1162.7 668.6-2150.9 1477.7-2923.7 1160.4-1106 2833-1575.2 4428.6-1242 1103.8 228.9 2135 877.1 2792.2 1747.4 933.8 1239.7 1230.7 2826.2 813.6 4333.4-512.2 1849.4-2076 3222.9-4018.4 3526.6-249.2 38.5-958.5 61.2-1126.3 34z"/><path d="m6555.9 2871.9c-52.1-27.2-383-426.1-1056.2-1273.7l-979-1235.3-1164.9-11.3c-890.7-9.1-1178.5-18.1-1217.1-40.8-61.2-34-120.1-140.5-120.1-213.1 0-88.4 81.6-194.9 163.2-215.3 122.4-29.5 2490.8-20.4 2547.5 11.3 27.2 13.6 525.8 623.3 1106 1355.3 958.7 1205.7 1056.2 1337.2 1056.2 1412 0 104.3-52.1 179-149.6 219.8-95.3 40.9-95.3 40.9-186-8.9z"/></g>
</svg>
