<?xml version="1.0" encoding="UTF-8"?>
<svg id="svg12" width="225" height="225" version="1.1" viewBox="0 0 225 225" xmlns="http://www.w3.org/2000/svg">
 <path id="path117" d="m62.236 169.74c-7.2799-7.2949-13.236-14.045-13.236-15 0-1.5126 1.0964-1.7366 8.5-1.7366h8.5v-54.3c0-40.9 0.29613-54.596 1.2-55.5 1.2485-1.2485 14.335-1.6993 17.218-0.59301 1.4158 0.54329 1.5818 6.3672 1.5818 55.5v54.893h8.441c5.1058 0 8.712 0.43854 9.1269 1.1099 0.59231 0.95838-26.062 28.89-27.568 28.89-0.29001 0-6.4835-5.9685-13.763-13.263zm61.797 9.5134c0.028-3.198 2.3062-6.9883 15.478-25.75l15.445-22-9.6569-0.28837c-5.3113-0.1586-10.251-0.0602-10.978 0.21862-0.79258 0.30414-1.3212 2.1199-1.3212 4.5384v4.0314h-9v-17h45v2.8959c0 2.6388-11.634 20.318-28.171 42.811-2.1057 2.864-3.8295 5.339-3.8306 5.5-1e-3 0.16099 5.1739 0.15296 11.5-0.0178l11.502-0.31058v-8.8789h9v18h-45l0.0328-3.75zm-7.0328-81.25c0-3.6942 0.21022-4.0009 2.75-4.0113 2.6984-0.0111 2.918-0.49942 11.694-26l8.9444-25.989h12.157l8.9768 25.99c8.8064 25.497 9.0291 25.991 11.727 26 2.5401 0.0089 2.75 0.31503 2.75 4.0097v4h-22v-4c0-3.7594 0.17682-4 2.9391-4h2.9391l-3.5691-10.5h-19.618l-3.5691 10.5h2.9391c2.7623 0 2.9391 0.24064 2.9391 4v4h-22zm35.989-24.25c-6e-3 -0.6875-1.5015-5.8274-3.3234-11.422l-3.3125-10.172-3.5218 10.91c-1.937 6.0006-3.2914 11.141-3.0099 11.422 0.28152 0.28152 3.3618 0.51185 6.8452 0.51185 4.4058 0 6.33-0.38043 6.3224-1.25z"/>
</svg>
