<?xml version="1.0" encoding="UTF-8"?>
<svg enable-background="new 0 0 1000 1000" version="1.1" viewBox="0 0 1e3 1e3" xml:space="preserve" xmlns="http://www.w3.org/2000/svg">

<path d="m191.2 528h88.6v30.5h-88.6zm319.2-27.8c8.4 0 16.3 1.9 23.4 5.4 27.3-33.1 57.8-62.8 92.2-88.4 8.4 8 16.8 16 25.3 24-25.9 39.3-55.7 72.8-88.5 101.8 0.7 3.5 1.1 7 1.1 10.7 0 29.5-23.9 53.4-53.4 53.4s-53.4-23.9-53.4-53.4c0-11.3 3.5-21.8 9.5-30.4-39.5-53.2-73.2-110.5-100.7-172 8.9-4.9 17.9-9.8 26.8-14.7 39.5 53.1 74 108.3 102.4 166 4.7-1.6 9.9-2.4 15.3-2.4zm-76.4-291-0.1 91.2 251.8-144.7-251.3-145.7-0.2 93.5c-94.4 14-181.6 58-249.3 125.7-83.8 83.9-130.6 196.6-130.6 315.1 0 118.6 46.7 231.3 130.6 315.1 83.8 83.9 196.5 130.6 315.1 130.6s231.3-46.7 315.2-130.6c49.9-50 87.5-111.1 109.1-178.3l5.2-16.1-99.8-29.6-5 15.2c-16.7 50.9-45.2 97.3-83.1 135.1-64.2 64.3-150.6 100-241.5 100s-177.2-35.8-241.4-100c-64.3-64.3-100-150.6-100-241.5s35.8-177.2 100-241.4c47.9-48 108.9-80.5 175.3-93.6zm403.7 283.9c-3.3-21.9-8.7-43.4-16.2-64.1l-5.5-15.3 97.6-36.4 5.7 15.6c10.9 30.1 18.4 61.3 22.6 93.1l2.4 17.9-104.4 3.8zm-1.9 113.8c3.8-20.6 5.7-41.6 5.7-62.5 0-2.1 0-4.1-0.1-6.2l-0.2-16.2 104.1-3.8 0.4 16.7c0.1 3.1 0.1 6.2 0.1 9.4 0 29.9-3 59.9-8.9 89.2l-3.6 17.6-100.1-29.7zm-32.4-219.4c-9.2-17.7-19.9-34.6-32-50.4l-9.9-12.9 82-64.2 10.1 13.2c17.9 23.2 33.4 48.2 46.3 74.5l8 16.3-97.9 36.6zm-51.5-74.2-10.5-10.4c-15.2-15.2-31.8-29-49.6-41.1l-14.7-10 65.1-81.9 12.7 8.9c21.4 15 41.6 31.9 60.1 50.4 2.2 2.2 4.3 4.4 6.4 6.6l12.6 13.2zm-251.7 534.1v-88.5h30.5v88.5zm223.7-88.4-62.6-62.6 21.6-21.6 62.6 62.6zm-444.4-7.3 62.7-62.6 21.6 21.6-62.6 62.6zm7.3-444.4 62.6 62.7-21.5 21.6-62.7-62.6zm444.4 7.3-21.6-21.6-62.6 62.7 21.6 21.6zm88.4 223.8h-88.6v-30.5h88.6z"/>
</svg>
