<svg xmlns="http://www.w3.org/2000/svg" height="32" width="32">
  <g style="line-height:1.25;-inkscape-font-specification:'Airmole Bold';font-variant-ligatures:normal;font-variant-caps:normal;font-variant-numeric:normal;font-feature-settings:normal;text-align:start">
    <path fill="white" style="-inkscape-font-specification:'Verana Sans Bold';text-align:center" d="M12.099 31.314c.944.315 1.919.472 2.989.472 1.667 0 2.973-.535 3.932-1.62.96-1.085 1.448-2.564 1.448-4.468 0-3.696-1.7-5.789-4.704-5.789-1.337 0-2.423.378-3.225 1.117-.802.74-1.195 1.715-1.195 2.958 0 1.117.361 2.029 1.07 2.705.723.677 1.667 1.023 2.847 1.023.928 0 1.699-.268 2.39-.77-.172 1.934-1.163 2.91-2.925 2.91-.834 0-1.683-.22-2.627-.661zm3.65-5.521c-1.023 0-1.558-.677-1.558-2.014 0-1.337.535-2.013 1.557-2.013 1.023 0 1.558.676 1.558 2.013 0 1.337-.535 2.014-1.558 2.014zM17.761 6.16c0 2.895-.504 3.949-1.762 3.949s-1.762-1.054-1.762-3.949c0-2.879.504-3.917 1.762-3.917.645 0 1.085.3 1.353.881.267.582.409 1.605.409 3.036zm2.957.016C20.72 2.385 19.02.23 16 .23c-3.02 0-4.72 2.155-4.72 5.946s1.7 5.946 4.72 5.946c3.02 0 4.72-2.155 4.72-5.946z" font-size="15.731" font-family="Verana Sans" text-anchor="middle" aria-label="9" font-weight="700" letter-spacing="0" word-spacing="0" stroke-width=".082"/>
  </g>
</svg>
