<svg xmlns="http://www.w3.org/2000/svg" width="428.884" height="428.884">
  <path d="M40.347 274.298l70.832 27.992V5.675c0-3.136 2.551-5.669 5.675-5.675h56.772a5.673 5.673 0 015.672 5.669V302.29l70.856-27.992a5.71 5.71 0 016.613 1.863 5.638 5.638 0 01-.037 6.875L149.75 422.191a5.746 5.746 0 01-4.509 2.223 5.692 5.692 0 01-4.494-2.223L33.761 283.036a5.635 5.635 0 01-1.172-3.459 5.746 5.746 0 011.136-3.428 5.702 5.702 0 016.622-1.851zm355.948 154.586H371.92l-13.762-33.089h-41.425l-13.384 33.089h-23.821l46.12-110.786h24.319l46.328 110.786zm-43.922-49.311l-11.039-26.463c-1.56-3.751-2.85-7.319-4.001-10.766a227.386 227.386 0 01-3.794 10.546l-11.058 26.677h29.892v.006zM381.145 183h-93.158v17.017h62.633l-68.752 82.088v11.697h100.228v-17.014h-69.319l68.369-81.752V183h-.001z"/>
</svg>
