<?xml version="1.0" encoding="UTF-8" standalone="no"?>
<!-- Svg Vector Icons : http://www.onlinewebfonts.com/icon -->

<svg
   xmlns:dc="http://purl.org/dc/elements/1.1/"
   xmlns:cc="http://creativecommons.org/ns#"
   xmlns:rdf="http://www.w3.org/1999/02/22-rdf-syntax-ns#"
   xmlns:svg="http://www.w3.org/2000/svg"
   xmlns="http://www.w3.org/2000/svg"
   xmlns:sodipodi="http://sodipodi.sourceforge.net/DTD/sodipodi-0.dtd"
   xmlns:inkscape="http://www.inkscape.org/namespaces/inkscape"
   version="1.1"
   x="0px"
   y="0px"
   viewBox="0 0 1000 1000"
   enable-background="new 0 0 1000 1000"
   xml:space="preserve"
   id="svg871"
   sodipodi:docname="sort-alpha-1.svg"
   inkscape:version="0.92.5 (2060ec1f9f, 2020-04-08)"><defs
   id="defs875" /><sodipodi:namedview
   pagecolor="#ffffff"
   bordercolor="#666666"
   borderopacity="1"
   objecttolerance="10"
   gridtolerance="10"
   guidetolerance="10"
   inkscape:pageopacity="0"
   inkscape:pageshadow="2"
   inkscape:window-width="1920"
   inkscape:window-height="989"
   id="namedview873"
   showgrid="false"
   inkscape:zoom="0.28956023"
   inkscape:cx="840.09157"
   inkscape:cy="458.33611"
   inkscape:window-x="0"
   inkscape:window-y="0"
   inkscape:window-maximized="1"
   inkscape:current-layer="svg871" />
<metadata
   id="metadata865"> Svg Vector Icons : http://www.onlinewebfonts.com/icon <rdf:RDF><cc:Work
     rdf:about=""><dc:format>image/svg+xml</dc:format><dc:type
       rdf:resource="http://purl.org/dc/dcmitype/StillImage" /><dc:title></dc:title></cc:Work></rdf:RDF></metadata>

<g
   aria-label="A
Z"
   style="font-style:normal;font-variant:normal;font-weight:normal;font-stretch:normal;font-size:91.17584991px;line-height:1.25;font-family:'Century Gothic';-inkscape-font-specification:'Century Gothic';letter-spacing:0px;word-spacing:0px;fill:#000000;fill-opacity:1;stroke:none;stroke-width:2.2793963"
   id="text927" /><g
   aria-label="0
9"
   style="font-style:normal;font-variant:normal;font-weight:normal;font-stretch:normal;font-size:91.17584991px;line-height:1.25;font-family:'Century Gothic';-inkscape-font-specification:'Century Gothic';letter-spacing:0px;word-spacing:0px;fill:#000000;fill-opacity:1;stroke:none;stroke-width:2.2793963"
   id="text927-2"><path
     id="path1080"
     style="font-style:normal;font-variant:normal;font-weight:bold;font-stretch:normal;font-size:437.64407349px;font-family:'Century Gothic';-inkscape-font-specification:'Century Gothic Bold';text-align:center;text-anchor:middle;stroke-width:2.2793963"
     d="m 215.10471,938.6057 -50.85902,-25.21582 54.9192,-106.8467 q -39.96067,0 -67.9545,-28.63491 -27.99384,-28.63492 -27.99384,-71.1599 0,-41.24283 28.63492,-69.66405 28.84861,-28.63492 69.45035,-28.63492 42.52499,0 70.73252,29.70339 28.42122,29.48968 28.42122,67.95449 0,14.53116 -4.48756,29.276 -4.27387,14.53115 -20.08718,45.08931 z m 7.47927,-188.69127 q 16.66809,0 27.99384,-12.18052 11.32575,-12.18053 11.32575,-30.13077 0,-18.37763 -11.96683,-30.77185 -11.75314,-12.39422 -27.56645,-12.39422 -16.66809,0 -28.63492,12.39422 -11.96683,12.18052 -11.96683,30.55816 0,18.16393 11.53945,30.34446 11.75313,12.18052 29.27599,12.18052 z M 218.52381,61.394311 q 34.40463,0 59.19307,16.881779 25.00213,16.881778 38.46481,51.7138 13.67638,34.61833 13.67638,96.58942 0,62.61216 -13.89007,97.44418 -13.67638,34.83203 -36.96896,51.28642 -23.29258,16.2407 -58.76569,16.2407 -35.4731,0 -59.62045,-16.45439 -24.14736,-16.4544 -37.82373,-50.00426 -13.67638,-33.54986 -13.67638,-95.52095 0,-86.54582 26.71167,-125.43802 29.70339,-42.738679 82.69935,-42.738679 z m 1.49585,56.842439 q -15.17223,0 -26.92537,9.8299 -11.75313,9.6162 -17.95024,33.33617 -6.19711,23.71997 -6.19711,69.45035 0,59.62046 14.10376,82.48565 14.31746,22.6515 36.96896,22.6515 21.79673,0 34.61833,-21.58303 15.59962,-26.07059 15.59962,-87.1869 0,-61.97109 -14.10376,-85.47736 -13.89008,-23.50628 -36.11419,-23.50628 z M 649.3068,616.35606 H 839.49392 L 727.30489,873.21552 h 104.92346 v 57.48352 H 640.11798 L 751.87963,675.54913 H 649.3068 Z m 59.941,-547.055093 h 60.68892 L 890.88718,383.64395 h -62.18477 l -24.57475,-64.7491 H 675.91163 l -25.64321,64.7491 h -62.18478 z m 30.77185,83.340423 -41.88391,107.91517 h 83.55412 z" /></g></svg>