<svg width="225" height="225" xmlns="http://www.w3.org/2000/svg">
  <path d="M60.241 165.61c-7.166-7.109-12.292-12.967-12.033-13.75.322-.97 2.808-1.448 8.613-1.655l8.16-.29.26-51.21.258-51.21h17l.518 102.5h7.523c11.24 0 11.032.892-3.633 15.593-6.808 6.824-12.783 12.407-13.28 12.407s-6.52-5.574-13.387-12.385zM112 168.963v-9.033l22.5.565.303 6.47c.534 11.37.899 11.03-11.822 11.03h-10.98zm0-37.967v-9.045l36.5.545v17l-36.5.545zm0-37V84.96l50.5.535v17l-50.5.534zm0-38v-9.028l64.5.528v17l-64.5.527z"/>
</svg>
