<?xml version="1.0" encoding="UTF-8"?>
<svg id="svg32" width="225" height="225" version="1.1" viewBox="0 0 225 225" xmlns="http://www.w3.org/2000/svg">
 <path id="path44" d="m138.54 220.04c-1.1177-1.235-1.6172-2.9928-1.3499-4.75 0.23342-1.5342 11.315-19.102 24.626-39.039l24.202-36.25h-21.872c-20.613 0-22.024-0.11929-24.507-2.0726-3.1348-2.4658-3.5135-6.8223-0.80612-9.2724 1.6176-1.4639 5.3526-1.655 32.345-1.655 29.042 0 30.602 0.0947 32.291 1.9606 1.1177 1.235 1.6172 2.9928 1.3499 4.75-0.23342 1.5342-11.315 19.102-24.626 39.039l-24.202 36.25h21.573c25.064 0 27.388 0.60117 27.426 7.095 0.0341 5.7707-0.74278 5.905-34.158 5.905-29.042 0-30.602-0.0947-32.291-1.9606zm-108.54-28.539-23.484-23.5h33.484v-165h27v165h34.484l-23.484 23.5c-12.916 12.925-23.716 23.5-24 23.5s-11.084-10.575-24-23.5zm94.557-95.723c-0.85618-1.2224-1.5567-2.8038-1.5567-3.5143 0-0.7105 9.7768-20.877 21.726-44.815 23.003-46.081 22.669-45.57 28.782-44.035 2.1451 0.53839 5.6201 6.8519 24 43.604 11.82 23.636 21.492 43.776 21.492 44.756 0 5.8899-8.0491 8.5595-11.677 3.8729-1.0024-1.2948-4.2812-7.3698-7.2863-13.5l-5.4637-11.146h-47.145l-5.4637 11.146c-3.005 6.1302-6.2839 12.205-7.2863 13.5-2.4592 3.1765-7.9381 3.2477-10.121 0.1316zm55.203-54.277c-4.5276-9.075-8.4701-16.5-8.7611-16.5-0.66925 0-15.999 30.669-15.999 32.008 0 0.61556 6.2571 0.99173 16.496 0.99173h16.496z"/>
</svg>
