<?xml version="1.0" encoding="UTF-8" standalone="no"?>
<!-- Svg Vector Icons : http://www.onlinewebfonts.com/icon -->

<svg
   xmlns:dc="http://purl.org/dc/elements/1.1/"
   xmlns:cc="http://creativecommons.org/ns#"
   xmlns:rdf="http://www.w3.org/1999/02/22-rdf-syntax-ns#"
   xmlns:svg="http://www.w3.org/2000/svg"
   xmlns="http://www.w3.org/2000/svg"
   xmlns:sodipodi="http://sodipodi.sourceforge.net/DTD/sodipodi-0.dtd"
   xmlns:inkscape="http://www.inkscape.org/namespaces/inkscape"
   version="1.1"
   x="0px"
   y="0px"
   viewBox="0 0 1000 1000"
   enable-background="new 0 0 1000 1000"
   xml:space="preserve"
   id="svg871"
   sodipodi:docname="sort-time-4.svg"
   inkscape:version="0.92.5 (2060ec1f9f, 2020-04-08)"><defs
   id="defs875" /><sodipodi:namedview
   pagecolor="#ffffff"
   bordercolor="#666666"
   borderopacity="1"
   objecttolerance="10"
   gridtolerance="10"
   guidetolerance="10"
   inkscape:pageopacity="0"
   inkscape:pageshadow="2"
   inkscape:window-width="1920"
   inkscape:window-height="989"
   id="namedview873"
   showgrid="false"
   inkscape:zoom="0.28956023"
   inkscape:cx="840.09157"
   inkscape:cy="458.33611"
   inkscape:window-x="0"
   inkscape:window-y="0"
   inkscape:window-maximized="1"
   inkscape:current-layer="svg871" />
<metadata
   id="metadata865"> Svg Vector Icons : http://www.onlinewebfonts.com/icon <rdf:RDF><cc:Work
     rdf:about=""><dc:format>image/svg+xml</dc:format><dc:type
       rdf:resource="http://purl.org/dc/dcmitype/StillImage" /><dc:title></dc:title></cc:Work></rdf:RDF></metadata>
<g
   id="g869"><path
     d="M990,500L856.3,633.7L722.7,500h89.1c0-196.8-159.5-356.3-356.3-356.3C258.7,143.7,99.1,303.2,99.1,500c0,196.8,159.5,356.3,356.3,356.3c73.8,0,142.4-22.5,199.3-60.9l53.5,71.4c-71.8,49.6-159,78.7-252.9,78.7C209.4,945.5,10,746,10,500C10,254,209.4,54.5,455.5,54.5C701.5,54.5,900.9,254,900.9,500H990z M410.9,277.3v267.3l195.4,99.2l27.3-36.9l-156.3-95.6V277.3H410.9z"
     id="path867" /></g>
</svg>