<?xml version="1.0" encoding="UTF-8"?>
<svg enable-background="new 0 0 1000 1000" version="1.1" viewBox="0 0 1e3 1e3" xml:space="preserve" xmlns="http://www.w3.org/2000/svg">

<path d="m235.49 753.38v20.16h56.7c31.25 0 56.7 0.5 56.7 1.26 0 1.01-28.22 36.54-63 79.38l-63 77.87v45.61h196.56v-40.32h-68.04c-37.29 0-68.04-0.76-68.04-2.02 0-1.01 29.48-38.05 65.52-82.4l65.52-80.64v-39.06h-178.92zm83.16-118.44v20.16h40.32v-40.32h-40.32zm0-161.27v20.16h40.32v-40.32h-40.32zm0-161.28v20.16h40.32v-40.32h-40.32zm315.75-264.09-45.86 33.26 9.07 12.85c15.12 20.92 12.85 20.66 33.77 5.54 10.58-7.56 21.92-15.62 25.7-18.14l6.8-4.28v849.72l-25.7-18.65-25.71-18.39-10.83 14.11c-5.8 7.81-10.84 15.37-10.84 16.88 0 2.02 42.08 33.77 84.67 63.25l8.06 5.54 47.38-34.02c26.21-18.9 48.64-35.03 49.9-36.29 1.76-1.76-17.39-32.76-20.66-32.76-0.5 0-13.11 8.57-27.97 18.9l-26.71 19.15-0.76-211.92c-0.25-116.42-0.25-306.93 0-423.09l0.76-211.42 25.95 18.9c14.36 10.33 27.47 18.14 29.23 17.64 3.53-1.51 22.93-28.98 21.42-30.49-8.82-7.56-95.25-68.04-98.03-68.54-2.02-0.51-24.45 14.11-49.64 32.25zm-323.06-32.76c-54.94 140.61-83.91 215.2-88.2 225.53l-5.29 13.36h52.17l9.83-27.21 9.83-26.96 49.39-0.75 49.39-0.5 21.16 55.44h26.71c24.19 0 26.46-0.5 24.95-4.54-1.01-2.27-22.93-57.2-48.89-121.97l-47.12-117.94h-25.95c-24.45 0-25.96 0.25-27.98 5.54zm44.6 97.27c8.57 23.18 15.62 43.09 15.62 44.1s-14.87 1.76-33.01 1.76c-25.45 0-32.76-0.76-32-3.28 17.39-49.14 30.74-84.92 32-84.92 1.01 0.01 8.83 19.16 17.39 42.34z" stroke-width=".1"/>
</svg>
