<?xml version="1.0" encoding="UTF-8"?>
<svg enable-background="new 0 0 1000 1000" version="1.1" viewBox="0 0 1e3 1e3" xml:space="preserve" xmlns="http://www.w3.org/2000/svg">

<path d="m429.6 575.1c16 19.2 38.5 31 63.3 33.2 2.9 0.3 5.7 0.4 8.5 0.4 47.8 0 88.7-37.4 93-85 2.2-24.8-5.3-49.1-21.3-68.3s-38.5-31-63.3-33.3c-8.2-0.7-16.5-0.3-25.3 1.4l-269.9-228.6 198.3 291.3c-2.5 7.3-4 14-4.6 20.6-2.3 24.8 5.2 49.1 21.3 68.3z"/><path d="m500 10h-44.2v233h88.4v-142.2c202.5 22 357.4 192.6 357.4 399.2 0 221.5-180.2 401.6-401.6 401.6s-401.6-180.1-401.6-401.6c0-90.6 29.5-176.2 85.1-247.3l15.6-19.8-69.6-54.5-15.5 19.8c-68 86.9-104 191.2-104 301.8 0 270.2 219.8 490 490 490s490-219.8 490-490-219.8-490-490-490z"/>
</svg>
