<svg xmlns="http://www.w3.org/2000/svg" width="48" height="48" viewBox="0 0 1000 1000">
  <path d="M429.6 575.1c16 19.2 38.5 31 63.3 33.2 2.9.3 5.7.4 8.5.4 47.8 0 88.7-37.4 93-85 2.2-24.8-5.3-49.1-21.3-68.3s-38.5-31-63.3-33.3c-8.2-.7-16.5-.3-25.3 1.4L214.6 194.9l198.3 291.3c-2.5 7.3-4 14-4.6 20.6-2.3 24.8 5.2 49.1 21.3 68.3z"/>
  <path d="M500 10h-44.2v233h88.4V100.8c202.5 22 357.4 192.6 357.4 399.2 0 221.5-180.2 401.6-401.6 401.6S98.4 721.5 98.4 500c0-90.6 29.5-176.2 85.1-247.3l15.6-19.8-69.6-54.5-15.5 19.8C46 285.1 10 389.4 10 500c0 270.2 219.8 490 490 490s490-219.8 490-490S770.2 10 500 10z"/>
</svg>
