<svg xmlns="http://www.w3.org/2000/svg" width="48" height="48">
  <g>
    <path d="M21.939.636c-.696.11-1.045.49-1.045 1.132.011.848.544 1.23 1.588 1.11l.697-.077v2.633h1.958l.022-.468c.01-.25.021-.827.033-1.273v-.816l.652.032c1.11.066 2.981.425 4.341.838 7.887 2.393 13.87 9.432 15.013 17.667.098.664.174 1.262.174 1.316 0 .066-.555.11-1.36.11h-1.36v2.284h2.753l-.077.947a23.437 23.437 0 01-.348 2.295c-1.164 5.831-4.753 10.846-10.03 14.012-2.654 1.6-6.277 2.753-8.78 2.796l-.978.022v-3.753h-2.013v3.807h-.403c-.696 0-2.513-.315-3.786-.642-3.59-.935-6.734-2.752-9.508-5.483C5.73 35.427 3.597 31.032 3 25.745l-.066-.62h2.513V22.84H2.944v-.304c0-.163.076-.805.163-1.436a20.968 20.968 0 014.025-9.845c.675-.893 2.013-2.372 2.09-2.296.021.022-.044 1.393-.142 3.046-.218 3.33-.207 3.416.457 3.742.707.338 1.49-.098 1.62-.891.022-.185.186-2.285.338-4.656.26-4.026.272-4.352.109-4.602-.37-.566-.381-.566-5.418-.87C.866 4.412.986 4.4.627 5.14c-.25.5-.185.86.229 1.273.336.326.25.315 4.558.555l2.306.13-.63.686c-3.221 3.437-5.31 7.81-6.06 12.662-.24 1.534-.273 5.026-.055 6.473.805 5.58 3.21 10.324 7.093 14.034 5.57 5.308 13.598 7.56 21.257 5.961 5.299-1.099 10.248-4.21 13.403-8.387 4.482-5.95 5.907-13.566 3.905-20.8C44.175 8.85 36.668 2.257 27.345.8 26.149.615 22.744.506 21.939.636z"/>
    <path d="M31.468 10.743c-.25.13-1.838 2.045-5.07 6.114l-4.698 5.93-5.592.053c-4.275.044-5.657.087-5.842.196-.294.163-.577.675-.577 1.023 0 .424.392.936.784 1.033.587.142 11.956.098 12.228-.054.13-.065 2.524-2.992 5.309-6.505 4.601-5.788 5.07-6.419 5.07-6.778 0-.5-.25-.859-.719-1.055-.457-.196-.457-.196-.893.043z"/>
  </g>
</svg>
