<?xml version="1.0" encoding="UTF-8"?>
<svg  viewBox="0 0 225 225" xmlns="http://www.w3.org/2000/svg">
	<g fill="#fff">
		<path d="m60.241 59.88c-7.1658 7.1088-12.292 12.967-12.033 13.75 0.32154 0.9707 2.8077 1.4484 8.6125 1.6549l8.1605 0.29029 0.51812 102.42h17l0.51816-102.5h7.5223c11.24 0 11.032-0.89254-3.6329-15.593-6.8076-6.824-12.783-12.407-13.28-12.407s-6.52 5.5734-13.387 12.385z"/>
		<path d="m112 168.97v9.0277l64.5-0.52771v-17l-64.5-0.52771zm0-38v9.0343l50.5-0.53434v-17l-50.5-0.53434zm0-37v9.0451l36.5-0.54512v-17l-36.5-0.54512zm0-37.967v9.0328l22.5-0.5655 0.30341-6.4692c0.53331-11.371 0.89817-11.031-11.822-11.031h-10.981z"/>
	</g>
</svg>
