<svg xmlns="http://www.w3.org/2000/svg" viewBox="0 0 12.7 12.7" height="48" width="48">
  <path d="M1.89 296.846a1.83 1.83 0 0 1-.37-.347c-.14-.19-.143-.265-.162-3.678l-.019-3.483.464.217c.87.408 2.074.33 2.895-.189a3.218 3.218 0 0 0 1.364-1.73c.171-.51.19-1.343.04-1.836a7.748 7.748 0 0 1-.103-.355c0-.011 1.353-.011 3.007 0 2.915.018 3.013.023 3.196.16.104.078.253.226.33.33.14.187.142.26.16 5.216.018 4.938.016 5.033-.12 5.3a.944.944 0 0 1-.41.411c-.263.134-.395.138-5.158.138H2.116zm9.348-1.766c.04-.066-1.542-2.224-1.964-2.677-.252-.271-.434-.247-.813.108-.4.374-.709.452-1.06.269-.188-.098-.423-.398-1.012-1.288-.422-.638-.798-1.17-.836-1.18a.198.198 0 0 0-.142.03c-.123.084-2.633 4.681-2.592 4.748.056.09 8.363.08 8.419-.01zm-1.125-5.086c.792-.418 1.002-1.49.424-2.166-.72-.84-1.965-.683-2.423.306-.323.697.023 1.612.726 1.923.336.15.926.12 1.273-.063zm-7.724-1.031c-.707-.231-1.204-.67-1.518-1.34-.149-.315-.179-.477-.179-.962 0-.52.025-.633.224-1.037.26-.528.63-.89 1.172-1.144.32-.15.48-.18.966-.18s.646.03.967.18a2.35 2.35 0 0 1 1.172 1.144c.2.404.223.516.223 1.037 0 .487-.03.646-.18.968-.397.847-1.153 1.362-2.064 1.405-.298.014-.609-.014-.783-.071zm.94-1.844v-.76l.308.304.309.303.17-.17.17-.171-.615-.614-.617-.613-.616.613-.616.614.17.17.171.17.309-.302.309-.303v.756c0 .415.014.77.032.788.017.017.14.019.274.004l.241-.029z" style="fill:#000;stroke-width:.06846356" transform="translate(0 -284.3)"/>
</svg>
