<svg xmlns="http://www.w3.org/2000/svg" viewBox="0 0 12.7 12.7" height="48" width="48">
  <path d="M396.093 432.768c-13.823-2.5-24.66-13.422-27.078-27.29-.562-3.223-.512-8.712.108-11.907 1.357-6.985 4.224-12.305 9.382-17.415 3.926-3.889 7.46-6.16 12.279-7.89 6.91-2.483 15.406-2.484 22.348-.005 9.423 3.366 17.045 10.987 20.41 20.41 2.897 8.11 2.328 18.264-1.446 25.785-2.237 4.458-6.225 9.284-10.026 12.132-4.002 3-9.39 5.315-14.392 6.186-2.895.504-8.785.5-11.585-.006zm9.951-9.963c.361-.515.412-2.454.412-15.742 0-8.335.09-15.155.201-15.155.111 0 2.223 2.024 4.694 4.498 3.077 3.08 4.674 4.498 5.07 4.498.851 0 5.194-4.232 5.075-4.944-.05-.297-4.32-4.843-9.488-10.101-7.289-7.416-9.543-9.561-10.046-9.561-.5 0-2.822 2.17-10.116 9.453-5.823 5.815-9.467 9.648-9.467 9.958 0 .798 3.88 5.46 4.544 5.46.372 0 2.26-1.688 5.629-5.028 2.788-2.765 5.211-5.027 5.385-5.027.242 0 .317 3.701.317 15.724 0 13.942.047 15.77.416 16.14.333.333 1.066.415 3.689.415 3.082 0 3.297-.034 3.685-.588z" style="fill:#0079bd;stroke-width:.26458335" transform="matrix(.07833 0 0 .07833 -21.402 -28.377)"/>
  <path d="M287.163 524.162c-5.994-.976-11.524-6.024-13.438-12.266-.466-1.52-.487-3.968-.487-57.679 0-53.7.021-56.16.487-57.679 1.576-5.143 5.542-9.01 10.89-10.617 1.493-.45 3.874-.483 39.886-.56 21.064-.045 38.297.011 38.295.124-.002.113-.305 1.152-.675 2.308-1.737 5.442-2.204 13.037-1.171 19.077 1.448 8.47 5.454 16.151 11.65 22.338 5.846 5.839 12.926 9.695 20.977 11.425 4.278.92 12.858.943 16.526.044l.605-.148-.087 35.287c-.082 32.947-.119 35.39-.56 36.856-1.809 6.015-6.698 10.673-12.085 11.515-2.164.338-108.732.313-110.813-.026zm105.443-21.532c.647-.089 1.396-.426 1.819-.818 1.259-1.167.94-2.107-3.32-9.804-2.077-3.754-4.252-7.72-4.835-8.814-.582-1.094-1.258-2.287-1.502-2.65-.245-.364-3.639-6.437-7.542-13.494-3.904-7.058-7.48-13.488-7.946-14.288-.466-.8-1.78-3.116-2.918-5.145-2.538-4.523-3.53-5.703-4.794-5.703-.686 0-1.157.24-1.94.992-.598.573-4.022 5.804-8.096 12.37-8.656 13.95-9.64 15.437-11.13 16.81-1.462 1.347-2.609 1.843-4.265 1.843-1.87 0-3.634-1.002-6.613-3.754-4.412-4.076-5.973-4.884-8.967-4.644-2.41.193-4.61 1.336-6.597 3.43-.868.913-5.921 7.721-11.228 15.128-5.308 7.408-10.335 14.227-11.171 15.153-.837.927-1.522 1.918-1.522 2.203 0 1.255.286 1.28 14.666 1.306 7.41.013 13.503.052 13.537.086.138.138 73.337-.066 74.364-.207zM318.68 441.93c7.774-1.988 13.34-8.715 13.87-16.76.363-5.533-1.685-10.731-5.818-14.77-4.88-4.77-12.788-6.311-19.23-3.749-7.07 2.814-11.906 9.87-11.906 17.374 0 7.145 4.384 13.858 11.013 16.864.945.428 2.396.943 3.224 1.144 2.287.555 6.467.506 8.847-.103z" style="fill:#344455;stroke-width:.26458335" transform="matrix(.07833 0 0 .07833 -21.402 -28.377)"/>
</svg>
