<?xml version="1.0" encoding="UTF-8" standalone="no"?>
<svg
   xmlns:dc="http://purl.org/dc/elements/1.1/"
   xmlns:cc="http://creativecommons.org/ns#"
   xmlns:rdf="http://www.w3.org/1999/02/22-rdf-syntax-ns#"
   xmlns:svg="http://www.w3.org/2000/svg"
   xmlns="http://www.w3.org/2000/svg"
   id="svg8"
   version="1.1"
   viewBox="0 0 12.699999 12.7"
   height="48"
   width="48">
  <defs
     id="defs2" />
  <metadata
     id="metadata5">
    <rdf:RDF>
      <cc:Work
         rdf:about="">
        <dc:format>image/svg+xml</dc:format>
        <dc:type
           rdf:resource="http://purl.org/dc/dcmitype/StillImage" />
        <dc:title></dc:title>
      </cc:Work>
    </rdf:RDF>
  </metadata>
  <g
     transform="translate(0,-284.29995)"
     id="layer1">
    <g
       transform="matrix(0.07832766,0,0,0.07832766,-21.402103,255.92271)"
       id="g941">
      <path
         id="path921"
         d="m 396.09333,432.76843 c -13.82331,-2.50129 -24.65999,-13.42274 -27.07825,-27.29005 -0.56219,-3.22386 -0.51224,-8.71266 0.10836,-11.90744 1.35679,-6.98454 4.22307,-12.30518 9.3817,-17.41517 3.92555,-3.88853 7.45997,-6.1599 12.27853,-7.89069 6.90972,-2.48193 15.40657,-2.48341 22.34866,-0.004 9.42271,3.36553 17.04437,10.98719 20.4099,20.4099 2.89698,8.11089 2.32744,18.26414 -1.44641,25.78528 -2.23663,4.45752 -6.22507,9.28381 -10.02594,12.1321 -4.00236,2.99927 -9.39047,5.31504 -14.39185,6.18549 -2.89468,0.50379 -8.78547,0.50098 -11.5847,-0.006 z m 9.95071,-9.96314 c 0.36114,-0.5156 0.41188,-2.45476 0.41188,-15.7427 0,-8.33507 0.0906,-15.15467 0.20135,-15.15467 0.11075,0 2.22279,2.02406 4.69344,4.49791 3.07694,3.08094 4.6744,4.49792 5.07084,4.49792 0.85057,0 5.19364,-4.23182 5.07403,-4.94406 -0.0499,-0.29706 -4.31938,-4.84257 -9.48775,-10.10115 -7.28871,-7.41592 -9.54257,-9.56104 -10.04564,-9.56104 -0.49966,0 -2.82251,2.17083 -10.11598,9.45392 -5.82298,5.8147 -9.46738,9.64787 -9.46738,9.95778 0,0.79823 3.88004,5.45913 4.54453,5.45913 0.37138,0 2.26006,-1.68693 5.62831,-5.02708 2.78815,-2.7649 5.21174,-5.02708 5.38576,-5.02708 0.24193,0 0.3164,3.70095 0.3164,15.72381 0,13.94159 0.0471,15.77093 0.41578,16.13958 0.33316,0.33317 1.06613,0.41577 3.68916,0.41577 3.08269,0 3.29739,-0.0343 3.68527,-0.58804 z"
         style="fill:#0079bd;stroke-width:0.26458335" />
      <path
         id="path917"
         d="m 287.16288,524.16153 c -5.9939,-0.97599 -11.52422,-6.0236 -13.43794,-12.26507 -0.46609,-1.52011 -0.48676,-3.96841 -0.48676,-57.67917 0,-53.69953 0.0208,-56.15937 0.4865,-57.67917 1.57597,-5.14267 5.542,-9.00924 10.89059,-10.61748 1.49273,-0.44884 3.87388,-0.48222 39.88594,-0.55917 21.06414,-0.045 38.29692,0.0105 38.29506,0.12345 -0.002,0.11291 -0.30558,1.15164 -0.67493,2.3083 -1.7378,5.44206 -2.20419,13.03639 -1.17156,19.07663 1.44799,8.46984 5.45393,16.15134 11.64948,22.3382 5.84679,5.83857 12.92654,9.6945 20.97748,11.42521 4.27873,0.91979 12.85864,0.94266 16.52661,0.044 l 0.60473,-0.14816 -0.0874,35.28678 c -0.0816,32.94744 -0.1187,35.3908 -0.55931,36.85588 -1.80889,6.0148 -6.69864,10.67369 -12.08559,11.51499 -2.16355,0.33789 -108.73181,0.31358 -110.81288,-0.0253 z m 105.44331,-21.53161 c 0.64664,-0.0888 1.39536,-0.42544 1.81839,-0.81749 1.25947,-1.16724 0.94126,-2.1073 -3.31872,-9.80445 -2.07741,-3.75356 -4.25335,-7.71982 -4.83543,-8.81392 -0.58208,-1.0941 -1.25835,-2.28692 -1.50282,-2.65072 -0.24447,-0.36381 -3.63834,-6.43599 -7.54193,-13.49376 -3.90359,-7.05776 -7.47911,-13.48713 -7.94559,-14.2875 -0.46647,-0.80036 -1.77966,-3.11571 -2.91819,-5.1452 -2.53743,-4.52314 -3.52903,-5.70271 -4.79391,-5.70271 -0.68593,0 -1.15652,0.24059 -1.9407,0.99219 -0.59738,0.57256 -4.02096,5.80389 -8.09489,12.36927 -8.65639,13.95023 -9.64076,15.43688 -11.13088,16.81043 -1.46144,1.3471 -2.60832,1.84269 -4.26434,1.84269 -1.86964,0 -3.63375,-1.00131 -6.61316,-3.75362 -4.41208,-4.07578 -5.97333,-4.88441 -8.96659,-4.64414 -2.41068,0.19351 -4.60976,1.33644 -6.59783,3.42911 -0.86808,0.91375 -5.92068,7.72197 -11.228,15.12939 -5.30731,7.40742 -10.33427,14.22612 -11.17102,15.15267 -0.83674,0.92655 -1.52135,1.91765 -1.52135,2.20243 0,1.25587 0.28604,1.28135 14.66528,1.30629 7.41106,0.0129 13.50307,0.0518 13.53779,0.0866 0.13769,0.13782 73.33704,-0.0665 74.36389,-0.20752 z m -73.92736,-60.69844 c 7.77389,-1.98823 13.34078,-8.7158 13.86925,-16.76095 0.36343,-5.53275 -1.68373,-10.7308 -5.81665,-14.76939 -4.8811,-4.76969 -12.78885,-6.31124 -19.2297,-3.74868 -7.07098,2.81326 -11.90625,9.869 -11.90625,17.37388 0,7.14487 4.3837,13.85772 11.01222,16.86324 0.94529,0.42861 2.39636,0.94363 3.22459,1.14448 2.2864,0.55446 6.46706,0.50599 8.84654,-0.10258 z"
         style="fill:#344455;stroke-width:0.26458335" />
    </g>
  </g>
</svg>
