<?xml version="1.0" encoding="UTF-8" standalone="no"?>
<svg
   xmlns:dc="http://purl.org/dc/elements/1.1/"
   xmlns:cc="http://creativecommons.org/ns#"
   xmlns:rdf="http://www.w3.org/1999/02/22-rdf-syntax-ns#"
   xmlns:svg="http://www.w3.org/2000/svg"
   xmlns="http://www.w3.org/2000/svg"
   id="svg8"
   version="1.1"
   viewBox="0 0 12.699999 12.7"
   height="48"
   width="48">
  <defs
     id="defs2" />
  <metadata
     id="metadata5">
    <rdf:RDF>
      <cc:Work
         rdf:about="">
        <dc:format>image/svg+xml</dc:format>
        <dc:type
           rdf:resource="http://purl.org/dc/dcmitype/StillImage" />
        <dc:title></dc:title>
      </cc:Work>
    </rdf:RDF>
  </metadata>
  <g
     transform="translate(0,-284.29995)"
     id="layer1">
    <path
       id="path1033"
       d="m 1.8898814,296.8459 c -0.1244848,-0.0847 -0.2907861,-0.241 -0.3695581,-0.34728 -0.1402935,-0.18928 -0.1436094,-0.26448 -0.1621486,-3.67716 l -0.018926,-3.48393 0.4639395,0.21761 c 0.8692626,0.40771 2.0740015,0.32901 2.8947883,-0.18914 0.6567051,-0.41455 1.1173752,-0.99898 1.3636294,-1.72999 0.1716712,-0.50959 0.1899195,-1.34263 0.040222,-1.83609 -0.056074,-0.18485 -0.1022875,-0.34472 -0.1026953,-0.35527 -4.14e-4,-0.0106 1.3526127,-0.0106 3.0067115,0 2.9151889,0.0186 3.0132489,0.0235 3.1964409,0.16034 0.103944,0.0776 0.25251,0.22622 0.330147,0.33019 0.139161,0.18636 0.141417,0.2601 0.159572,5.2163 0.01809,4.93761 0.01593,5.03213 -0.120733,5.30002 -0.09001,0.17642 -0.234566,0.32142 -0.409353,0.4106 -0.263338,0.13434 -0.394424,0.13785 -5.1579526,0.13785 h -4.887748 z m 9.3479636,-1.76615 c 0.04062,-0.0657 -1.5421144,-2.22351 -1.9635549,-2.67696 -0.2518391,-0.27097 -0.4339269,-0.24674 -0.8134087,0.10822 -0.4002304,0.37437 -0.7083876,0.45244 -1.0605713,0.26869 -0.1869986,-0.0976 -0.4224934,-0.39747 -1.0111218,-1.28767 -0.4220403,-0.63826 -0.798155,-1.16921 -0.8358101,-1.17989 -0.037654,-0.0107 -0.1018047,0.003 -0.1425555,0.0308 -0.1230631,0.0834 -2.63301,4.68009 -2.591862,4.74667 0.056216,0.0909 8.3625863,0.0812 8.4188843,-0.01 z m -1.125292,-5.08546 c 0.792392,-0.41833 1.002519,-1.49117 0.424358,-2.16662 -0.7192359,-0.84027 -1.9653735,-0.68279 -2.4232789,0.30624 -0.322519,0.69661 0.0229,1.61168 0.7259972,1.92329 0.3364682,0.14912 0.9265407,0.11996 1.2729237,-0.0629 z m -7.7231472,-1.03134 c -0.7076,-0.2312 -1.2046724,-0.66954 -1.5188589,-1.33939 -0.1481621,-0.31588 -0.1780815,-0.47768 -0.1780815,-0.96305 0,-0.52017 0.024179,-0.6325 0.2231696,-1.03671 0.2597302,-0.52758 0.6308849,-0.88966 1.172117,-1.14343 0.3211423,-0.15058 0.4809938,-0.18042 0.9667062,-0.18042 0.4857125,0 0.645564,0.0299 0.9667064,0.18042 0.541232,0.25377 0.9123872,0.61585 1.1721173,1.14343 0.1989892,0.40421 0.2231694,0.51654 0.2231694,1.03671 0,0.48727 -0.029724,0.64677 -0.1804134,0.96815 -0.3974575,0.84765 -1.1532018,1.36222 -2.0638328,1.40522 -0.2978783,0.0141 -0.6089385,-0.0141 -0.7827993,-0.0709 z m 0.9389068,-1.84351 v -0.75986 l 0.3087446,0.30301 0.3087448,0.30301 0.1704359,-0.17044 0.1704356,-0.17043 -0.6161077,-0.61325 -0.6161076,-0.61326 -0.6161078,0.61326 -0.6161073,0.61325 0.1704356,0.17043 0.1704358,0.17044 0.3087446,-0.30301 0.3087448,-0.30301 v 0.75595 c 0,0.41576 0.014462,0.7704 0.03214,0.78808 0.017676,0.0177 0.1409107,0.0194 0.2738541,0.004 l 0.2417152,-0.0282 z"
       style="fill:#000000;stroke-width:0.06846356" />
  </g>
</svg>
