<svg xmlns="http://www.w3.org/2000/svg" viewBox="0 0 153.75 102.969" width="60" height="40">
  <g transform="translate(.004 .473)">
    <path d="M2.275 1.668V21.41l29.513 10.863L52.02 20.785 47.47 1.668z" fill="#00ced1"/>
    <path d="M2.275 23.841v26.992l31.275-3.235.268-5.175-2.833-8.008z" fill="#b285c1"/>
    <path d="M53.136 22.793L33.282 34.058l2.499 7.027 16.328-.647 17.11-.67.223-.468-4.93-5.019z" fill="#226726"/>
    <path d="M49.812 1.668l4.573 19.117L66.23 32.786l4.93 4.975 11.644-4.15 6.692-2.408.29-29.535z" fill="#cc3c00"/>
    <path d="M68.304 42.089l-31.787 1.249-.446.022-.268 5.041 7.696 15.86 7.941 16.33 6.09-6.67z" fill="#ffe414"/>
    <path d="M90.567 33.255l-6.558 2.342-12.359 4.417-.669 1.316L60.14 73.34l12.336-.535 35.58-9.324 27.839-7.317-24.962-12.626z" fill="#14fff2"/>
    <path d="M92.084 1.668l-.29 29.646L112.562 41.8l27.036 13.674 11.867 3.48V1.668z" fill="#56ff14"/>
    <path d="M33.951 49.874c-10.559 1.088-21.117 2.165-31.676 3.257v47.224h38.458l9.123-17.779-8.142-16.775z" fill="#ff3514"/>
    <path d="M72.409 75.103l-13.362.558-6.96 7.584-.022.022-8.767 17.088h81.644l-11.399-5.488z" fill="#ee14ff"/>
    <path d="M139.085 57.704l-28.843 7.562-34.309 8.99 54.296 26.099h21.236V61.317z" fill="#ffb914"/>
    <circle r=".2" cx="34.174" cy="20.803"/>
    <circle r=".2" cx="25.374" cy="44.702"/>
    <circle r=".2" cx="43.974" cy="38.103"/>
    <circle r=".2" cx="70.174" cy="12.202"/>
    <circle r=".2" cx="44.274" cy="45.702"/>
    <circle r=".2" cx="87.374" cy="60.303"/>
    <circle r=".2" cx="111.475" cy="12.603"/>
    <circle r=".2" cx="26.374" cy="54.403"/>
    <circle r=".2" cx="88.474" cy="86.303"/>
    <circle r=".2" cx="92.174" cy="78.603"/>
  </g>
</svg>
