<svg xmlns="http://www.w3.org/2000/svg" viewBox="0 0 456.85 455.621" width="40" height="40">
  <path d="M.346-.614V102.55c1.606 9.947-5.487 25.8 9.394 26.857C38.27 113.07 66.804 96.72 95.334 80.382 105.398 59.588 84.601 25.387 82.676-.614z" fill="#00ced1"/>
  <path d="M.346 151.353v36.533c-.456 10.781-2.566 25.029 13.306 17.207 1.552-20.558-5.432-36.617-13.306-53.74z" fill="#b285c1"/>
  <path d="M107.57 106.74c-13.95.857-32.21 10.378-63.044 30.324-6.138 3.742-9.737 8.802-11.512 13.965l7.55 21.321c.439.195.876.39 1.345.549l24.844-.998c37.455-3.448 75.159-1.938 112.656-5.361l.075-.175c-9.181-9.438-16.478-17.532-23.074-24.937l-26.563-27.082c-7.06-5.36-13.896-8.12-22.277-7.606z" fill="#129914"/>
  <path d="M107.146-.614l18.44 77.704c24.073 24.59 48.113 49.224 72.238 73.764 25.255 6.298 57.568-18.367 85.52-24.214.253-42.411 1.17-84.854 1.021-127.254z" fill="#cc3c00"/>
  <path d="M178.138 191.003l-79.265 3.167c-28.221 3.435-66.907-12.335-62.52 19.65a78430.086 78430.086 0 0064.164 133.265c5.265 26.688 18.56-2.305 28.88-10.748 16.252-48.44 32.49-96.894 48.741-145.334z" fill="#ffe414"/>
  <path d="M294.432 148.086c-28.54 10.047-56.858 20.93-85.47 30.598-18.273 44.486-31.553 91.679-47.594 137.305-14.35 25.695 28.568 8.306 43.582 11.92l251.9-66.683v-30.373c-54.124-27.614-108.27-55.2-162.418-82.767z" fill="#14fff2"/>
  <path d="M308.461-.614l-1.246 128.401c49.878 25.403 99.783 50.778 149.635 76.233V-.614z" fill="#56ff14"/>
  <path d="M11.26 229.382c-3.667.277-7.274.94-10.914 1.421v225.433h48.217c18.933-16.866 27.214-51.106 42.186-74.438a86653.876 86653.876 0 00-41.19-85.535c-14.599-19.84-17.726-56.438-38.3-66.881z" fill="#ff3514"/>
  <path d="M192.043 352.397c-19.884 3.608-46.36-6.392-58.16 14.513-26.513 23.95-37.177 58.936-54.297 89.326h341.406c-54.656-26.519-109.318-53.007-163.987-79.5-21.713-7.8-40.98-26.45-64.962-24.34z" fill="#ee14ff"/>
  <path d="M456.85 286.338c-71.5 18.91-143.02 37.808-214.522 56.707 71.502 34.664 143.02 69.325 214.522 103.989z" fill="#ffb914"/>
</svg>
