<svg xmlns="http://www.w3.org/2000/svg" viewBox="0 0 1142.125 1082.1" width="100" height="95">
  <path d="M-238396.15-999971.31l-761602.79 631959.78L315.12 304.947l214.577-121.552z" fill="#00ced1" stroke="#000" stroke-width="2"/>
  <path d="M-999998.94-368011.53v471595.69L342.74 456.154l3.378-63.851-30.998-87.356z" fill="#b285c1" stroke="#000" stroke-width="2"/>
  <path d="M315.12 304.947l30.998 87.356 349.496-13.796 9.194-17.973-175.111-177.14z" fill="#226726" stroke="#000" stroke-width="2"/>
  <path d="M-238396.15-999971.31L529.697 183.395l175.11 177.139 197.856-70.751 9687.76-1000261.093z" fill="#cc3c00" stroke="#000" stroke-width="2"/>
  <path d="M346.118 392.303l-3.379 63.851 164.964 339.408 73.88-80.431 114.031-336.624z" fill="#ffe414" stroke="#000" stroke-width="2"/>
  <path d="M704.808 360.534l-9.194 17.973-114.03 336.624 141.026-5.967 664.922-174.405-484.869-244.976z" fill="#14fff2" stroke="#000" stroke-width="2"/>
  <path d="M902.663 289.783l484.87 244.976L1000001.1 292553.56 10590.423-999971.31z" fill="#56ff14" stroke="#000" stroke-width="2"/>
  <path d="M-999998.94 103584.16l487212.97 896444.54L507.703 795.562 342.739 456.154z" fill="#ff3514" stroke="#000" stroke-width="2"/>
  <path d="M722.61 709.164l-141.026 5.967-73.881 80.431L-512785.97 1000028.7 1000001.1 480881.92z" fill="#ee14ff" stroke="#000" stroke-width="2"/>
  <path d="M722.61 709.164L1000001.1 480881.92V292553.56L1387.532 534.759z" fill="#ffb914" stroke="#000" stroke-width="2"/>
  <circle cy="177.693" cx="338.063" r="2" stroke="#000" stroke-width="4"/>
  <circle cy="416.693" cx="250.063" r="2" stroke="#000" stroke-width="4"/>
  <circle cy="350.693" cx="436.063" r="2" stroke="#000" stroke-width="4"/>
  <circle cy="91.693" cx="698.063" r="2" stroke="#000" stroke-width="4"/>
  <circle cy="426.693" cx="439.063" r="2" stroke="#000" stroke-width="4"/>
  <circle cy="572.693" cx="870.063" r="2" stroke="#000" stroke-width="4"/>
  <circle cy="95.693" cx="1111.063" r="2" stroke="#000" stroke-width="4"/>
  <circle cy="513.693" cx="260.063" r="2" stroke="#000" stroke-width="4"/>
  <circle cy="832.693" cx="881.063" r="2" stroke="#000" stroke-width="4"/>
  <circle cy="755.693" cx="918.063" r="2" stroke="#000" stroke-width="4"/>
</svg>
