<svg xmlns="http://www.w3.org/2000/svg" width="23.959" height="20.917" viewBox="0 0 47.919 41.834">
  <path d="M3.106 39.583L23.961 3.46l20.857 36.122z" fill="#fcc21b"/>
  <path d="M47.75 39.949L25.05.632a1.253 1.253 0 00-2.176 0L.17 39.948a1.254 1.254 0 001.09 1.886h45.401a1.26 1.26 0 001.09-.626 1.27 1.27 0 000-1.26zm-44.31-.63L23.96 3.773l20.524 35.544z" fill="#2f2f2f"/>
  <path d="M22.12 27.606h3.68c.136 0 .245-.087.253-.2l1.003-14.436a.192.192 0 00-.067-.158.278.278 0 00-.185-.067h-5.688a.278.278 0 00-.186.067.204.204 0 00-.068.158l1.008 14.437c.004.108.113.2.249.2zm-1.136 7.585c0-.53.076-.98.23-1.346a2.24 2.24 0 01.633-.894c.272-.226.59-.393.959-.494a4.38 4.38 0 011.181-.155c.396 0 .773.053 1.131.155.358.103.671.268.94.494.27.226.486.52.645.894.158.366.237.815.237 1.346 0 .51-.079.947-.237 1.306a2.45 2.45 0 01-1.584 1.42 3.984 3.984 0 01-1.132.16c-.419 0-.812-.052-1.181-.162a2.497 2.497 0 01-.958-.517 2.344 2.344 0 01-.633-.9c-.155-.363-.231-.797-.231-1.307z" fill="#2f2f2f"/>
</svg>
