<svg height="2912.8" viewBox="0" width="12.094" xmlns="http://www.w3.org/2000/svg">
  -120.11)&quot; fill=&quot;#000000&quot; font-family=&quot;&apos;Ubuntu Mono&apos;&quot; font-size=&quot;10.583px&quot; letter-spacing=&quot;0px&quot; stroke-width=&quot;.26458&quot; word-spacing=&quot;0px&quot;&gt;
  
<text style="line-height:1.25" x=".621" y="11.256"><tspan stroke-width=".265" x=".621" y="11.256">█</tspan></text>
<text style="line-height:1.25" x=".621" y="11.256"><tspan stroke-width=".265" x=".621" y="24.256">!</tspan></text>
<text style="line-height:1.25" x=".621" y="11.256"><tspan stroke-width=".265" x=".621" y="37.256">&quot;</tspan></text>
<text style="line-height:1.25" x=".621" y="11.256"><tspan stroke-width=".265" x=".621" y="50.256">#</tspan></text>
<text style="line-height:1.25" x=".621" y="11.256"><tspan stroke-width=".265" x=".621" y="63.256">$</tspan></text>
<text style="line-height:1.25" x=".621" y="11.256"><tspan stroke-width=".265" x=".621" y="76.256">%</tspan></text>
<text style="line-height:1.25" x=".621" y="11.256"><tspan stroke-width=".265" x=".621" y="89.256">&amp;</tspan></text>
<text style="line-height:1.25" x=".621" y="11.256"><tspan stroke-width=".265" x=".621" y="102.256">&apos;</tspan></text>
<text style="line-height:1.25" x=".621" y="11.256"><tspan stroke-width=".265" x=".621" y="115.256">(</tspan></text>
<text style="line-height:1.25" x=".621" y="11.256"><tspan stroke-width=".265" x=".621" y="128.256">)</tspan></text>
<text style="line-height:1.25" x=".621" y="11.256"><tspan stroke-width=".265" x=".621" y="141.256">*</tspan></text>
<text style="line-height:1.25" x=".621" y="11.256"><tspan stroke-width=".265" x=".621" y="154.256">+</tspan></text>
<text style="line-height:1.25" x=".621" y="11.256"><tspan stroke-width=".265" x=".621" y="167.256">,</tspan></text>
<text style="line-height:1.25" x=".621" y="11.256"><tspan stroke-width=".265" x=".621" y="180.256">-</tspan></text>
<text style="line-height:1.25" x=".621" y="11.256"><tspan stroke-width=".265" x=".621" y="193.256">.</tspan></text>
<text style="line-height:1.25" x=".621" y="11.256"><tspan stroke-width=".265" x=".621" y="206.256">/</tspan></text>
<text style="line-height:1.25" x=".621" y="11.256"><tspan stroke-width=".265" x=".621" y="219.256">0</tspan></text>
<text style="line-height:1.25" x=".621" y="11.256"><tspan stroke-width=".265" x=".621" y="232.256">1</tspan></text>
<text style="line-height:1.25" x=".621" y="11.256"><tspan stroke-width=".265" x=".621" y="245.256">2</tspan></text>
<text style="line-height:1.25" x=".621" y="11.256"><tspan stroke-width=".265" x=".621" y="258.256">3</tspan></text>
<text style="line-height:1.25" x=".621" y="11.256"><tspan stroke-width=".265" x=".621" y="271.256">4</tspan></text>
<text style="line-height:1.25" x=".621" y="11.256"><tspan stroke-width=".265" x=".621" y="284.256">5</tspan></text>
<text style="line-height:1.25" x=".621" y="11.256"><tspan stroke-width=".265" x=".621" y="297.256">6</tspan></text>
<text style="line-height:1.25" x=".621" y="11.256"><tspan stroke-width=".265" x=".621" y="310.256">7</tspan></text>
<text style="line-height:1.25" x=".621" y="11.256"><tspan stroke-width=".265" x=".621" y="323.256">8</tspan></text>
<text style="line-height:1.25" x=".621" y="11.256"><tspan stroke-width=".265" x=".621" y="336.256">9</tspan></text>
<text style="line-height:1.25" x=".621" y="11.256"><tspan stroke-width=".265" x=".621" y="349.256">:</tspan></text>
<text style="line-height:1.25" x=".621" y="11.256"><tspan stroke-width=".265" x=".621" y="362.256">;</tspan></text>
<text style="line-height:1.25" x=".621" y="11.256"><tspan stroke-width=".265" x=".621" y="375.256">&lt;</tspan></text>
<text style="line-height:1.25" x=".621" y="11.256"><tspan stroke-width=".265" x=".621" y="388.256">=</tspan></text>
<text style="line-height:1.25" x=".621" y="11.256"><tspan stroke-width=".265" x=".621" y="401.256">&gt;</tspan></text>
<text style="line-height:1.25" x=".621" y="11.256"><tspan stroke-width=".265" x=".621" y="414.256">?</tspan></text>
<text style="line-height:1.25" x=".621" y="11.256"><tspan stroke-width=".265" x=".621" y="427.256">@</tspan></text>
<text style="line-height:1.25" x=".621" y="11.256"><tspan stroke-width=".265" x=".621" y="440.256">A</tspan></text>
<text style="line-height:1.25" x=".621" y="11.256"><tspan stroke-width=".265" x=".621" y="453.256">B</tspan></text>
<text style="line-height:1.25" x=".621" y="11.256"><tspan stroke-width=".265" x=".621" y="466.256">C</tspan></text>
<text style="line-height:1.25" x=".621" y="11.256"><tspan stroke-width=".265" x=".621" y="479.256">D</tspan></text>
<text style="line-height:1.25" x=".621" y="11.256"><tspan stroke-width=".265" x=".621" y="492.256">E</tspan></text>
<text style="line-height:1.25" x=".621" y="11.256"><tspan stroke-width=".265" x=".621" y="505.256">F</tspan></text>
<text style="line-height:1.25" x=".621" y="11.256"><tspan stroke-width=".265" x=".621" y="518.256">G</tspan></text>
<text style="line-height:1.25" x=".621" y="11.256"><tspan stroke-width=".265" x=".621" y="531.256">H</tspan></text>
<text style="line-height:1.25" x=".621" y="11.256"><tspan stroke-width=".265" x=".621" y="544.256">I</tspan></text>
<text style="line-height:1.25" x=".621" y="11.256"><tspan stroke-width=".265" x=".621" y="557.256">J</tspan></text>
<text style="line-height:1.25" x=".621" y="11.256"><tspan stroke-width=".265" x=".621" y="570.256">K</tspan></text>
<text style="line-height:1.25" x=".621" y="11.256"><tspan stroke-width=".265" x=".621" y="583.256">L</tspan></text>
<text style="line-height:1.25" x=".621" y="11.256"><tspan stroke-width=".265" x=".621" y="596.256">M</tspan></text>
<text style="line-height:1.25" x=".621" y="11.256"><tspan stroke-width=".265" x=".621" y="609.256">N</tspan></text>
<text style="line-height:1.25" x=".621" y="11.256"><tspan stroke-width=".265" x=".621" y="622.256">O</tspan></text>
<text style="line-height:1.25" x=".621" y="11.256"><tspan stroke-width=".265" x=".621" y="635.256">P</tspan></text>
<text style="line-height:1.25" x=".621" y="11.256"><tspan stroke-width=".265" x=".621" y="648.256">Q</tspan></text>
<text style="line-height:1.25" x=".621" y="11.256"><tspan stroke-width=".265" x=".621" y="661.256">R</tspan></text>
<text style="line-height:1.25" x=".621" y="11.256"><tspan stroke-width=".265" x=".621" y="674.256">S</tspan></text>
<text style="line-height:1.25" x=".621" y="11.256"><tspan stroke-width=".265" x=".621" y="687.256">T</tspan></text>
<text style="line-height:1.25" x=".621" y="11.256"><tspan stroke-width=".265" x=".621" y="700.256">U</tspan></text>
<text style="line-height:1.25" x=".621" y="11.256"><tspan stroke-width=".265" x=".621" y="713.256">V</tspan></text>
<text style="line-height:1.25" x=".621" y="11.256"><tspan stroke-width=".265" x=".621" y="726.256">W</tspan></text>
<text style="line-height:1.25" x=".621" y="11.256"><tspan stroke-width=".265" x=".621" y="739.256">X</tspan></text>
<text style="line-height:1.25" x=".621" y="11.256"><tspan stroke-width=".265" x=".621" y="752.256">Y</tspan></text>
<text style="line-height:1.25" x=".621" y="11.256"><tspan stroke-width=".265" x=".621" y="765.256">Z</tspan></text>
<text style="line-height:1.25" x=".621" y="11.256"><tspan stroke-width=".265" x=".621" y="778.256">[</tspan></text>
<text style="line-height:1.25" x=".621" y="11.256"><tspan stroke-width=".265" x=".621" y="791.256">\</tspan></text>
<text style="line-height:1.25" x=".621" y="11.256"><tspan stroke-width=".265" x=".621" y="804.256">]</tspan></text>
<text style="line-height:1.25" x=".621" y="11.256"><tspan stroke-width=".265" x=".621" y="817.256">^</tspan></text>
<text style="line-height:1.25" x=".621" y="11.256"><tspan stroke-width=".265" x=".621" y="830.256">_</tspan></text>
<text style="line-height:1.25" x=".621" y="11.256"><tspan stroke-width=".265" x=".621" y="843.256">`</tspan></text>
<text style="line-height:1.25" x=".621" y="11.256"><tspan stroke-width=".265" x=".621" y="856.256">a</tspan></text>
<text style="line-height:1.25" x=".621" y="11.256"><tspan stroke-width=".265" x=".621" y="869.256">b</tspan></text>
<text style="line-height:1.25" x=".621" y="11.256"><tspan stroke-width=".265" x=".621" y="882.256">c</tspan></text>
<text style="line-height:1.25" x=".621" y="11.256"><tspan stroke-width=".265" x=".621" y="895.256">d</tspan></text>
<text style="line-height:1.25" x=".621" y="11.256"><tspan stroke-width=".265" x=".621" y="908.256">e</tspan></text>
<text style="line-height:1.25" x=".621" y="11.256"><tspan stroke-width=".265" x=".621" y="921.256">f</tspan></text>
<text style="line-height:1.25" x=".621" y="11.256"><tspan stroke-width=".265" x=".621" y="934.256">g</tspan></text>
<text style="line-height:1.25" x=".621" y="11.256"><tspan stroke-width=".265" x=".621" y="947.256">h</tspan></text>
<text style="line-height:1.25" x=".621" y="11.256"><tspan stroke-width=".265" x=".621" y="960.256">i</tspan></text>
<text style="line-height:1.25" x=".621" y="11.256"><tspan stroke-width=".265" x=".621" y="973.256">j</tspan></text>
<text style="line-height:1.25" x=".621" y="11.256"><tspan stroke-width=".265" x=".621" y="986.256">k</tspan></text>
<text style="line-height:1.25" x=".621" y="11.256"><tspan stroke-width=".265" x=".621" y="999.256">l</tspan></text>
<text style="line-height:1.25" x=".621" y="11.256"><tspan stroke-width=".265" x=".621" y="1012.256">m</tspan></text>
<text style="line-height:1.25" x=".621" y="11.256"><tspan stroke-width=".265" x=".621" y="1025.256">n</tspan></text>
<text style="line-height:1.25" x=".621" y="11.256"><tspan stroke-width=".265" x=".621" y="1038.256">o</tspan></text>
<text style="line-height:1.25" x=".621" y="11.256"><tspan stroke-width=".265" x=".621" y="1051.256">p</tspan></text>
<text style="line-height:1.25" x=".621" y="11.256"><tspan stroke-width=".265" x=".621" y="1064.256">q</tspan></text>
<text style="line-height:1.25" x=".621" y="11.256"><tspan stroke-width=".265" x=".621" y="1077.256">r</tspan></text>
<text style="line-height:1.25" x=".621" y="11.256"><tspan stroke-width=".265" x=".621" y="1090.256">s</tspan></text>
<text style="line-height:1.25" x=".621" y="11.256"><tspan stroke-width=".265" x=".621" y="1103.256">t</tspan></text>
<text style="line-height:1.25" x=".621" y="11.256"><tspan stroke-width=".265" x=".621" y="1116.256">u</tspan></text>
<text style="line-height:1.25" x=".621" y="11.256"><tspan stroke-width=".265" x=".621" y="1129.256">v</tspan></text>
<text style="line-height:1.25" x=".621" y="11.256"><tspan stroke-width=".265" x=".621" y="1142.256">w</tspan></text>
<text style="line-height:1.25" x=".621" y="11.256"><tspan stroke-width=".265" x=".621" y="1155.256">x</tspan></text>
<text style="line-height:1.25" x=".621" y="11.256"><tspan stroke-width=".265" x=".621" y="1168.256">y</tspan></text>
<text style="line-height:1.25" x=".621" y="11.256"><tspan stroke-width=".265" x=".621" y="1181.256">z</tspan></text>
<text style="line-height:1.25" x=".621" y="11.256"><tspan stroke-width=".265" x=".621" y="1194.256">{</tspan></text>
<text style="line-height:1.25" x=".621" y="11.256"><tspan stroke-width=".265" x=".621" y="1207.256">|</tspan></text>
<text style="line-height:1.25" x=".621" y="11.256"><tspan stroke-width=".265" x=".621" y="1220.256">}</tspan></text>
<text style="line-height:1.25" x=".621" y="11.256"><tspan stroke-width=".265" x=".621" y="1233.256">~</tspan></text>
<text style="line-height:1.25" x=".621" y="11.256"><tspan stroke-width=".265" x=".621" y="1246.256"></tspan></text>
<text style="line-height:1.25" x=".621" y="11.256"><tspan stroke-width=".265" x=".621" y="1259.256"></tspan></text>
<text style="line-height:1.25" x=".621" y="11.256"><tspan stroke-width=".265" x=".621" y="1272.256"></tspan></text>
<text style="line-height:1.25" x=".621" y="11.256"><tspan stroke-width=".265" x=".621" y="1285.256"></tspan></text>
<text style="line-height:1.25" x=".621" y="11.256"><tspan stroke-width=".265" x=".621" y="1298.256"></tspan></text>
<text style="line-height:1.25" x=".621" y="11.256"><tspan stroke-width=".265" x=".621" y="1311.256"></tspan></text>
<text style="line-height:1.25" x=".621" y="11.256"><tspan stroke-width=".265" x=".621" y="1337.256"></tspan></text>
<text style="line-height:1.25" x=".621" y="11.256"><tspan stroke-width=".265" x=".621" y="1350.256"></tspan></text>
<text style="line-height:1.25" x=".621" y="11.256"><tspan stroke-width=".265" x=".621" y="1363.256"></tspan></text>
<text style="line-height:1.25" x=".621" y="11.256"><tspan stroke-width=".265" x=".621" y="1376.256"></tspan></text>
<text style="line-height:1.25" x=".621" y="11.256"><tspan stroke-width=".265" x=".621" y="1389.256"></tspan></text>
<text style="line-height:1.25" x=".621" y="11.256"><tspan stroke-width=".265" x=".621" y="1402.256"></tspan></text>
<text style="line-height:1.25" x=".621" y="11.256"><tspan stroke-width=".265" x=".621" y="1415.256"></tspan></text>
<text style="line-height:1.25" x=".621" y="11.256"><tspan stroke-width=".265" x=".621" y="1428.256"></tspan></text>
<text style="line-height:1.25" x=".621" y="11.256"><tspan stroke-width=".265" x=".621" y="1441.256"></tspan></text>
<text style="line-height:1.25" x=".621" y="11.256"><tspan stroke-width=".265" x=".621" y="1454.256"></tspan></text>
<text style="line-height:1.25" x=".621" y="11.256"><tspan stroke-width=".265" x=".621" y="1467.256"></tspan></text>
<text style="line-height:1.25" x=".621" y="11.256"><tspan stroke-width=".265" x=".621" y="1480.256"></tspan></text>
<text style="line-height:1.25" x=".621" y="11.256"><tspan stroke-width=".265" x=".621" y="1493.256"></tspan></text>
<text style="line-height:1.25" x=".621" y="11.256"><tspan stroke-width=".265" x=".621" y="1506.256"></tspan></text>
<text style="line-height:1.25" x=".621" y="11.256"><tspan stroke-width=".265" x=".621" y="1519.256"></tspan></text>
<text style="line-height:1.25" x=".621" y="11.256"><tspan stroke-width=".265" x=".621" y="1532.256"></tspan></text>
<text style="line-height:1.25" x=".621" y="11.256"><tspan stroke-width=".265" x=".621" y="1545.256"></tspan></text>
<text style="line-height:1.25" x=".621" y="11.256"><tspan stroke-width=".265" x=".621" y="1558.256"></tspan></text>
<text style="line-height:1.25" x=".621" y="11.256"><tspan stroke-width=".265" x=".621" y="1571.256"></tspan></text>
<text style="line-height:1.25" x=".621" y="11.256"><tspan stroke-width=".265" x=".621" y="1584.256"></tspan></text>
<text style="line-height:1.25" x=".621" y="11.256"><tspan stroke-width=".265" x=".621" y="1597.256"></tspan></text>
<text style="line-height:1.25" x=".621" y="11.256"><tspan stroke-width=".265" x=".621" y="1610.256"></tspan></text>
<text style="line-height:1.25" x=".621" y="11.256"><tspan stroke-width=".265" x=".621" y="1623.256"></tspan></text>
<text style="line-height:1.25" x=".621" y="11.256"><tspan stroke-width=".265" x=".621" y="1636.256"></tspan></text>
<text style="line-height:1.25" x=".621" y="11.256"><tspan stroke-width=".265" x=".621" y="1649.256"></tspan></text>
<text style="line-height:1.25" x=".621" y="11.256"><tspan stroke-width=".265" x=".621" y="1662.256"></tspan></text>
<text style="line-height:1.25" x=".621" y="11.256"><tspan stroke-width=".265" x=".621" y="1688.256">¡</tspan></text>
<text style="line-height:1.25" x=".621" y="11.256"><tspan stroke-width=".265" x=".621" y="1701.256">¢</tspan></text>
<text style="line-height:1.25" x=".621" y="11.256"><tspan stroke-width=".265" x=".621" y="1714.256">£</tspan></text>
<text style="line-height:1.25" x=".621" y="11.256"><tspan stroke-width=".265" x=".621" y="1727.256">¤</tspan></text>
<text style="line-height:1.25" x=".621" y="11.256"><tspan stroke-width=".265" x=".621" y="1740.256">¥</tspan></text>
<text style="line-height:1.25" x=".621" y="11.256"><tspan stroke-width=".265" x=".621" y="1753.256">¦</tspan></text>
<text style="line-height:1.25" x=".621" y="11.256"><tspan stroke-width=".265" x=".621" y="1766.256">§</tspan></text>
<text style="line-height:1.25" x=".621" y="11.256"><tspan stroke-width=".265" x=".621" y="1779.256">¨</tspan></text>
<text style="line-height:1.25" x=".621" y="11.256"><tspan stroke-width=".265" x=".621" y="1792.256">©</tspan></text>
<text style="line-height:1.25" x=".621" y="11.256"><tspan stroke-width=".265" x=".621" y="1805.256">ª</tspan></text>
<text style="line-height:1.25" x=".621" y="11.256"><tspan stroke-width=".265" x=".621" y="1818.256">«</tspan></text>
<text style="line-height:1.25" x=".621" y="11.256"><tspan stroke-width=".265" x=".621" y="1831.256">¬</tspan></text>
<text style="line-height:1.25" x=".621" y="11.256"><tspan stroke-width=".265" x=".621" y="1844.256">­</tspan></text>
<text style="line-height:1.25" x=".621" y="11.256"><tspan stroke-width=".265" x=".621" y="1857.256">®</tspan></text>
<text style="line-height:1.25" x=".621" y="11.256"><tspan stroke-width=".265" x=".621" y="1870.256">¯</tspan></text>
<text style="line-height:1.25" x=".621" y="11.256"><tspan stroke-width=".265" x=".621" y="1883.256">°</tspan></text>
<text style="line-height:1.25" x=".621" y="11.256"><tspan stroke-width=".265" x=".621" y="1896.256">±</tspan></text>
<text style="line-height:1.25" x=".621" y="11.256"><tspan stroke-width=".265" x=".621" y="1909.256">²</tspan></text>
<text style="line-height:1.25" x=".621" y="11.256"><tspan stroke-width=".265" x=".621" y="1922.256">³</tspan></text>
<text style="line-height:1.25" x=".621" y="11.256"><tspan stroke-width=".265" x=".621" y="1935.256">´</tspan></text>
<text style="line-height:1.25" x=".621" y="11.256"><tspan stroke-width=".265" x=".621" y="1948.256">µ</tspan></text>
<text style="line-height:1.25" x=".621" y="11.256"><tspan stroke-width=".265" x=".621" y="1961.256">¶</tspan></text>
<text style="line-height:1.25" x=".621" y="11.256"><tspan stroke-width=".265" x=".621" y="1974.256">·</tspan></text>
<text style="line-height:1.25" x=".621" y="11.256"><tspan stroke-width=".265" x=".621" y="1987.256">¸</tspan></text>
<text style="line-height:1.25" x=".621" y="11.256"><tspan stroke-width=".265" x=".621" y="2000.256">¹</tspan></text>
<text style="line-height:1.25" x=".621" y="11.256"><tspan stroke-width=".265" x=".621" y="2013.256">º</tspan></text>
<text style="line-height:1.25" x=".621" y="11.256"><tspan stroke-width=".265" x=".621" y="2026.256">»</tspan></text>
<text style="line-height:1.25" x=".621" y="11.256"><tspan stroke-width=".265" x=".621" y="2039.256">¼</tspan></text>
<text style="line-height:1.25" x=".621" y="11.256"><tspan stroke-width=".265" x=".621" y="2052.256">½</tspan></text>
<text style="line-height:1.25" x=".621" y="11.256"><tspan stroke-width=".265" x=".621" y="2065.256">¾</tspan></text>
<text style="line-height:1.25" x=".621" y="11.256"><tspan stroke-width=".265" x=".621" y="2078.256">¿</tspan></text>
<text style="line-height:1.25" x=".621" y="11.256"><tspan stroke-width=".265" x=".621" y="2091.256">À</tspan></text>
<text style="line-height:1.25" x=".621" y="11.256"><tspan stroke-width=".265" x=".621" y="2104.256">Á</tspan></text>
<text style="line-height:1.25" x=".621" y="11.256"><tspan stroke-width=".265" x=".621" y="2117.256">Â</tspan></text>
<text style="line-height:1.25" x=".621" y="11.256"><tspan stroke-width=".265" x=".621" y="2130.256">Ã</tspan></text>
<text style="line-height:1.25" x=".621" y="11.256"><tspan stroke-width=".265" x=".621" y="2143.256">Ä</tspan></text>
<text style="line-height:1.25" x=".621" y="11.256"><tspan stroke-width=".265" x=".621" y="2156.256">Å</tspan></text>
<text style="line-height:1.25" x=".621" y="11.256"><tspan stroke-width=".265" x=".621" y="2169.256">Æ</tspan></text>
<text style="line-height:1.25" x=".621" y="11.256"><tspan stroke-width=".265" x=".621" y="2182.256">Ç</tspan></text>
<text style="line-height:1.25" x=".621" y="11.256"><tspan stroke-width=".265" x=".621" y="2195.256">È</tspan></text>
<text style="line-height:1.25" x=".621" y="11.256"><tspan stroke-width=".265" x=".621" y="2208.256">É</tspan></text>
<text style="line-height:1.25" x=".621" y="11.256"><tspan stroke-width=".265" x=".621" y="2221.256">Ê</tspan></text>
<text style="line-height:1.25" x=".621" y="11.256"><tspan stroke-width=".265" x=".621" y="2234.256">Ë</tspan></text>
<text style="line-height:1.25" x=".621" y="11.256"><tspan stroke-width=".265" x=".621" y="2247.256">Ì</tspan></text>
<text style="line-height:1.25" x=".621" y="11.256"><tspan stroke-width=".265" x=".621" y="2260.256">Í</tspan></text>
<text style="line-height:1.25" x=".621" y="11.256"><tspan stroke-width=".265" x=".621" y="2273.256">Î</tspan></text>
<text style="line-height:1.25" x=".621" y="11.256"><tspan stroke-width=".265" x=".621" y="2286.256">Ï</tspan></text>
<text style="line-height:1.25" x=".621" y="11.256"><tspan stroke-width=".265" x=".621" y="2299.256">Ð</tspan></text>
<text style="line-height:1.25" x=".621" y="11.256"><tspan stroke-width=".265" x=".621" y="2312.256">Ñ</tspan></text>
<text style="line-height:1.25" x=".621" y="11.256"><tspan stroke-width=".265" x=".621" y="2325.256">Ò</tspan></text>
<text style="line-height:1.25" x=".621" y="11.256"><tspan stroke-width=".265" x=".621" y="2338.256">Ó</tspan></text>
<text style="line-height:1.25" x=".621" y="11.256"><tspan stroke-width=".265" x=".621" y="2351.256">Ô</tspan></text>
<text style="line-height:1.25" x=".621" y="11.256"><tspan stroke-width=".265" x=".621" y="2364.256">Õ</tspan></text>
<text style="line-height:1.25" x=".621" y="11.256"><tspan stroke-width=".265" x=".621" y="2377.256">Ö</tspan></text>
<text style="line-height:1.25" x=".621" y="11.256"><tspan stroke-width=".265" x=".621" y="2390.256">×</tspan></text>
<text style="line-height:1.25" x=".621" y="11.256"><tspan stroke-width=".265" x=".621" y="2403.256">Ø</tspan></text>
<text style="line-height:1.25" x=".621" y="11.256"><tspan stroke-width=".265" x=".621" y="2416.256">Ù</tspan></text>
<text style="line-height:1.25" x=".621" y="11.256"><tspan stroke-width=".265" x=".621" y="2429.256">Ú</tspan></text>
<text style="line-height:1.25" x=".621" y="11.256"><tspan stroke-width=".265" x=".621" y="2442.256">Û</tspan></text>
<text style="line-height:1.25" x=".621" y="11.256"><tspan stroke-width=".265" x=".621" y="2455.256">Ü</tspan></text>
<text style="line-height:1.25" x=".621" y="11.256"><tspan stroke-width=".265" x=".621" y="2468.256">Ý</tspan></text>
<text style="line-height:1.25" x=".621" y="11.256"><tspan stroke-width=".265" x=".621" y="2481.256">Þ</tspan></text>
<text style="line-height:1.25" x=".621" y="11.256"><tspan stroke-width=".265" x=".621" y="2494.256">ß</tspan></text>
<text style="line-height:1.25" x=".621" y="11.256"><tspan stroke-width=".265" x=".621" y="2507.256">à</tspan></text>
<text style="line-height:1.25" x=".621" y="11.256"><tspan stroke-width=".265" x=".621" y="2520.256">á</tspan></text>
<text style="line-height:1.25" x=".621" y="11.256"><tspan stroke-width=".265" x=".621" y="2533.256">â</tspan></text>
<text style="line-height:1.25" x=".621" y="11.256"><tspan stroke-width=".265" x=".621" y="2546.256">ã</tspan></text>
<text style="line-height:1.25" x=".621" y="11.256"><tspan stroke-width=".265" x=".621" y="2559.256">ä</tspan></text>
<text style="line-height:1.25" x=".621" y="11.256"><tspan stroke-width=".265" x=".621" y="2572.256">å</tspan></text>
<text style="line-height:1.25" x=".621" y="11.256"><tspan stroke-width=".265" x=".621" y="2585.256">æ</tspan></text>
<text style="line-height:1.25" x=".621" y="11.256"><tspan stroke-width=".265" x=".621" y="2598.256">ç</tspan></text>
<text style="line-height:1.25" x=".621" y="11.256"><tspan stroke-width=".265" x=".621" y="2611.256">è</tspan></text>
<text style="line-height:1.25" x=".621" y="11.256"><tspan stroke-width=".265" x=".621" y="2624.256">é</tspan></text>
<text style="line-height:1.25" x=".621" y="11.256"><tspan stroke-width=".265" x=".621" y="2637.256">ê</tspan></text>
<text style="line-height:1.25" x=".621" y="11.256"><tspan stroke-width=".265" x=".621" y="2650.256">ë</tspan></text>
<text style="line-height:1.25" x=".621" y="11.256"><tspan stroke-width=".265" x=".621" y="2663.256">ì</tspan></text>
<text style="line-height:1.25" x=".621" y="11.256"><tspan stroke-width=".265" x=".621" y="2676.256">í</tspan></text>
<text style="line-height:1.25" x=".621" y="11.256"><tspan stroke-width=".265" x=".621" y="2689.256">î</tspan></text>
<text style="line-height:1.25" x=".621" y="11.256"><tspan stroke-width=".265" x=".621" y="2702.256">ï</tspan></text>
<text style="line-height:1.25" x=".621" y="11.256"><tspan stroke-width=".265" x=".621" y="2715.256">ð</tspan></text>
<text style="line-height:1.25" x=".621" y="11.256"><tspan stroke-width=".265" x=".621" y="2728.256">ñ</tspan></text>
<text style="line-height:1.25" x=".621" y="11.256"><tspan stroke-width=".265" x=".621" y="2741.256">ò</tspan></text>
<text style="line-height:1.25" x=".621" y="11.256"><tspan stroke-width=".265" x=".621" y="2754.256">ó</tspan></text>
<text style="line-height:1.25" x=".621" y="11.256"><tspan stroke-width=".265" x=".621" y="2767.256">ô</tspan></text>
<text style="line-height:1.25" x=".621" y="11.256"><tspan stroke-width=".265" x=".621" y="2780.256">õ</tspan></text>
<text style="line-height:1.25" x=".621" y="11.256"><tspan stroke-width=".265" x=".621" y="2793.256">ö</tspan></text>
<text style="line-height:1.25" x=".621" y="11.256"><tspan stroke-width=".265" x=".621" y="2806.256">÷</tspan></text>
<text style="line-height:1.25" x=".621" y="11.256"><tspan stroke-width=".265" x=".621" y="2819.256">ø</tspan></text>
<text style="line-height:1.25" x=".621" y="11.256"><tspan stroke-width=".265" x=".621" y="2832.256">ù</tspan></text>
<text style="line-height:1.25" x=".621" y="11.256"><tspan stroke-width=".265" x=".621" y="2845.256">ú</tspan></text>
<text style="line-height:1.25" x=".621" y="11.256"><tspan stroke-width=".265" x=".621" y="2858.256">û</tspan></text>
<text style="line-height:1.25" x=".621" y="11.256"><tspan stroke-width=".265" x=".621" y="2871.256">ü</tspan></text>
<text style="line-height:1.25" x=".621" y="11.256"><tspan stroke-width=".265" x=".621" y="2884.256">ý</tspan></text>
<text style="line-height:1.25" x=".621" y="11.256"><tspan stroke-width=".265" x=".621" y="2897.256">þ</tspan></text>
<text style="line-height:1.25" x=".621" y="11.256"><tspan stroke-width=".265" x=".621" y="2910.256">ÿ</tspan></text></svg>
