<svg width="48" height="48" viewBox="0 0 510.28 510.28" xmlns="http://www.w3.org/2000/svg">
  <path d="M379.57 373.395c-2.397-.223-3.47-.977-26.74-18.805-11.356-8.7-20.23-16.044-20.506-16.971-.268-.899-.463-11.196-.433-22.884l.055-39.25h13.398l.02 36.739c.014 13.847.473 19.203 1.757 20.516.957.978 9.71 7.99 19.451 15.582 16.112 12.557 17.79 14.075 18.56 16.796.981 3.468-2.444 8.565-5.561 8.275zm-86.117-18.239c-6.14 4.747-9.99 6.76-18.267 9.555-6.7 2.262-11.938 2.91-13.213 1.637-.421-.422-.761-16.991-.755-36.821l.01-54.055 55.912.056-.175 30.034c-.307 21.09-8.213 37.767-23.512 49.594zm-48.56 11.559c-11.461-1.634-22.552-7.527-32.129-17.071-12.07-12.028-17.466-25.328-17.851-44.002l-.25-30.088 27.614-.05c15.188-.028 27.938.273 28.333.669 1.242 1.24.761 88.66-.498 89.919-.657.658-3.006.938-5.219.622zm75.757-135.21l-.035-22.559c-.021-6.18.556-11.155 1.391-11.996.785-.79 7.684-5.969 15.33-11.508 15.262-11.056 17.273-11.786 21.321-7.738 4.602 4.602 3.138 6.607-13.61 18.642l-10.95 7.868-.046 7.344c-.025 4.04-.208 19.506-.406 19.705zm-153.1 116.79a3355.57 3355.57 0 00-21.183 16.165c-12.126 9.341-14.639 10.239-18.33 6.548-2.536-2.537-2.39-6.315.351-9.056 1.164-1.164 9.106-7.491 17.649-14.06 22.778-17.515 20.406-13.4 20.428-35.432l.02-36.972h13.399l.016 40.61c.009 12.435-.5 23.056-1.13 23.6-.632.545-5.68 4.413-11.22 8.596zm89.257-122.4c-11.258.019-21.456-.173-27.74-.479-4.253-.228-7.38-.969-7.34-5.03-.388-3.734-.626-10.653-.726-11.77a14.83 14.83 0 01-.052-1.56c.094-5.608 2.968-13.557 7.528-19.22 2.701-3.355 3.794-5.49 3.427-6.7-1.16-3.834-10.873-15.543-19.215-23.165-13.754-12.567-29.584-21.912-47.267-27.904-9.51-3.222-12.59-5.523-12.404-9.264.151-3.02 3.776-6.837 6.275-6.604 3.242.3 18.662 5.993 26.74 9.87 23.087 11.082 42.563 27.507 55.462 46.774l3.46 5.168h21.913l6.225-8.667c11.93-16.612 30.989-32.458 50.814-42.249 9.718-4.799 28.717-11.624 31.339-11.258 3.057.427 5.826 3.686 5.676 6.68-.173 3.474-4.07 6.154-13.448 9.25-9.681 3.196-24.974 10.718-33.89 16.668-9.162 6.115-27.817 24.623-31.76 31.512l-2.575 4.497 4.27 5.33c4.618 5.766 7.16 12.015 7.38 18.143.038 1.059.098 9.29.1 12.967.356 5.072-3.65 6.274-6.495 6.57-4.849.467-13.241.417-27.696.441zm-78.98 5.612l-.048-19.712-.048-7.712-11.563-8.335c-10.662-7.686-11.61-8.556-12.153-11.171-.79-3.794 1.288-7.09 4.95-7.853 3.274-.682 13.121 7.108 19.373 11.166 4.387 2.847 12.69 9.226 12.69 9.226l.147 10.818c.08 5.95-.05 23.014-.29 23.255z"/>
  <path d="M425.64 445.195c-53.071 44.726-123.28 69.972-192.96 63.212-51.38-4.232-101.45-26.099-140.87-57.803-28.744-21.85-49.16-53.012-65.559-84.867-43.522-87.461-30.003-199.45 33.644-273.65 11.321-18.751 31.314-32.513 49.293-45.532 73.73-52.36 175.8-60.61 256.89-20.474 90.359 44.955 146.88 148.95 142.84 238.86-1.119 63.751-30.214 125.5-73.608 171.15a204.87 204.87 0 01-9.666 9.112zm-6.992-64.549c21.882-29.348 38.485-64.78 40.225-101.62l-407.61.452c5.022 61.21 43.035 117.79 94.678 150.36 79.061 51.068 192.96 38.124 256.94-31.493 5.513-5.66 10.909-11.459 15.767-17.699zm-145.04-330.93c-77.66-8.06-156.6 32.985-195.88 100.13-13.96 24.38-24.098 51.556-27.123 79.534 11.614 2.407 25.668.373 38.221 1.07l370.05.41c2.192-99.296-121.5-175.2-185.26-181.14z" fill="#f15113"/>
  <path d="M25.54 255.145h457.8m1.94 0a230.14 230.14 0 01-230.14 230.14A230.14 230.14 0 0125 255.145a230.14 230.14 0 01230.14-230.14 230.14 230.14 0 01230.14 230.14z" fill="none" stroke="#ef0000" stroke-width="50" paint-order="fill markers stroke"/>
</svg>
