<svg xmlns="http://www.w3.org/2000/svg" viewBox="0 0 511.963 511.963" width="512" height="512">
  <path d="M498.687 498.687c-17.401 17.701-45.899 17.701-63.6 0l-81.425-81.425 1.8-61.8 61.8-1.8 81.425 81.425c17.701 17.699 17.701 46.2 0 63.6z" fill="#47568c"/>
  <path d="M498.687 498.687c-17.401 17.701-45.899 17.701-63.6 0l-81.425-81.425 1.8-61.8 143.225 143.225z" fill="#2c3b73"/>
  <path d="M417.262 353.662l-63.6 63.6-65.099-65.099c-5.7-5.7-5.7-15.3 0-21l42.599-42.599c5.7-5.7 15.3-5.7 21 0l65.1 65.098z" fill="#fdbf00"/>
  <path d="M385.462 385.462l-31.8 31.8-65.099-65.099c-5.7-5.7-5.7-15.3 0-21l21.301-21.301 75.598 75.6z" fill="#ff9100"/>
  <path d="M332.664 57.262c-76.201-76.5-199.2-76.199-275.402 0-76.5 76.201-76.199 199.2 0 275.4 76.201 76.501 199.2 76.201 275.402 0 76.499-76.199 76.199-199.199 0-275.4z" fill="#47568c"/>
  <path d="M332.664 332.662c-76.201 76.201-199.2 76.501-275.402 0-76.199-76.199-76.5-199.199 0-275.4l275.402 275.4z" fill="#2c3b73"/>
  <path d="M311.663 311.663c-64.501 64.499-168.9 64.499-233.401 0-64.499-64.501-64.499-168.9 0-233.401 64.501-64.501 168.9-64.501 233.401 0 64.499 64.501 64.499 168.901 0 233.401z" fill="#edf5ff"/>
  <path d="M311.663 311.663c-64.501 64.499-168.9 64.499-233.401 0-64.499-64.501-64.499-168.9 0-233.401l233.401 233.401z" fill="#d7e9ff"/>
  <path d="M164.963 119.963c-24.814 0-45-20.186-45-45 0-8.291 6.709-15 15-15s15 6.709 15 15c0 8.276 6.724 15 15 15 8.291 0 15 6.709 15 15s-6.709 15-15 15zm60 0c-8.291 0-15-6.709-15-15s6.709-15 15-15c8.276 0 15-6.724 15-15 0-8.291 6.709-15 15-15s15 6.709 15 15c0 24.814-20.186 45-45 45z" fill="#47568c"/>
  <path d="M128.254 178.381L95.09 161.799c-2.329-1.195-5.127.504-5.127 3.164 0 8.291-6.709 15-15 15s-15-6.709-15-15c0-24.995 26.315-41.139 48.53-30l33.179 16.582c7.412 3.706 10.415 12.715 6.709 20.127-3.691 7.361-12.647 10.423-20.127 6.709z" fill="#2c3b73"/>
  <path d="M241.545 171.672c-3.706-7.412-.703-16.421 6.709-20.127l33.164-16.582c22.293-11.224 48.545 5.109 48.545 30 0 8.291-6.709 15-15 15s-15-6.709-15-15c0-2.519-2.552-4.341-5.142-3.164l-33.149 16.582a15.012 15.012 0 01-20.127-6.709z" fill="#47568c"/>
  <path d="M134.963 329.963c-8.291 0-15-6.709-15-15v-3.164c0-22.266 12.378-42.29 32.285-52.251 7.412-3.677 16.421-.703 20.127 6.709s.703 16.421-6.709 20.127c-9.683 4.834-15.703 14.575-15.703 25.415v3.164c0 8.291-6.709 15-15 15zm-60-60c-8.291 0-15-6.709-15-15 0-24.814 20.186-45 45-45h30c8.291 0 15 6.709 15 15s-6.709 15-15 15h-30c-8.276 0-15 6.724-15 15 0 8.291-6.709 15-15 15zm180 60c-8.291 0-15-6.709-15-15v-3.164c0-10.84-6.021-20.581-15.703-25.415-7.412-3.706-10.415-12.715-6.709-20.127 3.721-7.412 12.744-10.386 20.127-6.709 19.907 9.961 32.285 29.985 32.285 52.251v3.164c0 8.291-6.709 15-15 15z" fill="#2c3b73"/>
  <path d="M314.963 269.963c-8.291 0-15-6.709-15-15 0-8.276-6.724-15-15-15h-30c-8.291 0-15-6.709-15-15s6.709-15 15-15h30c24.814 0 45 20.186 45 45 0 8.291-6.709 15-15 15zm-45-120l-39.3 30h-71.4l-39.3-30 11.4-18.6 20.099-33.001c2.701-5.099 7.8-8.399 13.5-8.399h60c5.7 0 10.8 3.3 13.5 8.399l31.501 51.601z" fill="#47568c"/>
  <path fill="#2c3b73" d="M179.963 179.963h-20.7l-39.3-30 11.4-18.6z"/>
  <path d="M269.963 149.963v75c0 13.2-3.3 25.499-9 36-12.9 23.399-37.8 39-66 39-41.4 0-75-33.6-75-75v-75h150z" fill="#ff641a"/>
  <path d="M260.963 260.963c-12.9 23.399-37.8 39-66 39-41.4 0-75-33.6-75-75v-75h30l111 111z" fill="#f03800"/>
</svg>
