<svg xmlns="http://www.w3.org/2000/svg" width="48" height="48" viewBox="0 0 510.28 510.28">
  <path d="M259.5 426.738c-1.537-1.853-1.762-3.145-5.61-32.205-1.879-14.182-2.96-25.65-2.5-26.5.445-.825 7.59-8.245 15.875-16.488l27.792-27.715 4.737 4.737 4.737 4.737-25.965 25.992c-9.781 9.801-13.243 13.912-13.264 15.75-.015 1.368 1.216 12.515 2.735 24.772 2.514 20.272 2.627 22.53 1.247 25-1.758 3.146-7.784 4.329-9.784 1.92zm-47.997-73.791c-7.698-.986-11.845-2.284-19.673-6.16-6.337-3.139-10.5-6.384-10.5-8.186 0-.596 11.476-12.553 25.502-26.57l38.23-38.216 19.748 19.788 19.748 19.788-21.36 21.113c-15.13 14.696-32.514 20.898-51.695 18.443zm-42.51-26.164c-6.95-9.26-10.625-21.27-10.648-34.79-.03-17.04 5.56-30.26 18.491-43.737l21.099-21.451 19.561 19.49c10.76 10.72 19.562 19.948 19.562 20.507 0 1.756-62.155 63.23-63.935 63.23-.93 0-2.789-1.462-4.13-3.25zm149.176-42.04l15.927-15.976c4.355-4.385 8.28-7.495 9.466-7.499 1.114-.004 9.654 1.213 18.977 2.703 18.61 2.973 20.548 3.88 20.548 9.604 0 6.508-2.453 6.89-22.806 3.558l-13.306-2.179-5.225 5.16c-2.874 2.839-13.94 13.646-14.221 13.646zm-190.84-25.676a3374.92 3374.92 0 00-26.408-3.548c-15.18-1.97-17.591-3.111-17.591-8.331 0-3.587 2.775-6.155 6.651-6.155 1.647 0 11.737 1.141 22.422 2.537 28.491 3.722 23.904 4.954 39.499-10.61l26.157-26.128 4.737 4.737 4.737 4.737-28.704 28.727c-8.787 8.8-16.656 15.95-17.487 15.889-.832-.061-7.137-.896-14.012-1.855zm149.665-23.435c-7.974-7.948-15.05-15.294-19.277-19.954-2.846-3.17-4.533-5.904-1.634-8.747 2.367-2.915 7.091-7.976 7.811-8.836a14.83 14.83 0 011.066-1.14c4.032-3.9 11.685-7.488 18.913-8.268 4.283-.462 6.566-1.2 7.162-2.314 1.89-3.532 3.302-18.678 2.792-29.966-.839-18.612-5.425-36.414-13.691-53.155-4.446-9.004-4.998-12.808-2.22-15.322 2.242-2.03 7.504-2.164 9.106-.233 2.08 2.505 8.958 17.434 11.928 25.887 8.49 24.162 10.647 49.548 6.144 72.292l-1.208 6.1 7.748 7.749 7.747 7.747 10.53-1.727c20.183-3.31 44.864-1.038 65.806 6.057 10.265 3.478 28.525 12.087 30.12 14.2 1.86 2.463 1.514 6.725-.71 8.737-2.578 2.333-7.229 1.473-16.05-2.969-9.105-4.585-25.237-10.08-35.749-12.177-10.802-2.155-37.08-2.259-44.74-.177l-5 1.36-.75 6.789c-.811 7.341-3.433 13.558-7.61 18.046-.723.776-6.5 6.64-9.098 9.24-3.335 3.838-7.018 1.856-9.24.053-3.758-3.098-9.657-9.068-19.896-19.272zm-59.816-51.88l13.905-13.972 5.419-5.487-2.282-14.07c-2.105-12.975-2.159-14.259-.695-16.493 2.124-3.241 5.924-4.103 9.054-2.052 2.797 1.832 4.252 14.304 5.803 21.594 1.088 5.115 2.449 15.497 2.449 15.497l-7.545 7.753c-4.15 4.264-16.309 16.238-16.65 16.238z"/>
  <path d="M241.316 510.088c-69.152-5.9-136.651-37.696-181.14-91.745-33.34-39.324-53.283-90.192-58.734-140.48-4.875-35.776 2.723-72.247 13.653-106.368C46.165 78.877 134.912 9.248 232.385 1.785c21.265-5.255 45.132-.849 67.052 2.659 89.159 15.11 167.17 81.455 196.123 167.168 32.105 95.682-1.464 209.184-67.897 269.897-45.87 44.288-110.108 67.379-173.068 68.97a204.24 204.24 0 01-13.279-.391zm40.7-50.587c36.224-5.28 73.019-18.593 100.3-43.414L93.772 128.182C54.04 175.015 40.91 241.904 54.397 301.451c19.794 92.014 109.489 163.404 203.955 159.416 7.9-.103 15.817-.389 23.663-1.366zm131.443-336.557C364.244 62.33 279.4 35.534 204.149 55.237c-27.111 7.368-53.496 19.416-75.418 37.06 6.51 9.914 17.886 18.413 26.27 27.782l261.371 261.952c71.763-68.663 37.968-209.797-2.913-259.087z" fill="#f15113"/>
  <path d="M92.785 92.785l323.717 323.717m1.372 1.372a230.14 230.14 0 01-325.468 0 230.14 230.14 0 010-325.468 230.14 230.14 0 01325.468 0 230.14 230.14 0 010 325.468z" fill="none" stroke="#ef0000" stroke-width="50" paint-order="fill markers stroke"/>
</svg>
