<svg width="48" height="48" viewBox="0 0 40 40" xmlns="http://www.w3.org/2000/svg">
  <path d="M22.611 6.476c-.71-1.12-1.308-2.024-2.623-2.024s-2.058 1.067-2.624 2.024L2.75 31.026c-.613.953-1.046 2.083-.772 3.07.24.865 1.164 1.452 2.586 1.452H35.41c1.785 0 2.384-.842 2.554-1.29.391-1.023-.096-2.187-.74-3.233" fill="#ff0"/>
  <path d="M22.611 6.476c-.71-1.12-1.308-2.024-2.623-2.024s-2.058 1.067-2.624 2.024L2.75 31.026c-.613.953-1.046 2.083-.772 3.07.24.865 1.164 1.452 2.586 1.452H35.41c1.785 0 2.384-.842 2.554-1.29.391-1.023-.096-2.187-.74-3.233z" fill="none" stroke="#000" stroke-width="2"/>
  <path d="M18.377 13.697h3.234v12.598h-3.234zm1.617 13.992q.832 0 1.418.586.598.586.598 1.418 0 .82-.598 1.418-.586.586-1.418.586t-1.418-.586q-.586-.586-.586-1.418t.586-1.418q.586-.586 1.418-.586z" aria-label="!"/>
</svg>
