<?xml version="1.0" encoding="UTF-8" standalone="no"?>
<svg
   xmlns:dc="http://purl.org/dc/elements/1.1/"
   xmlns:cc="http://creativecommons.org/ns#"
   xmlns:rdf="http://www.w3.org/1999/02/22-rdf-syntax-ns#"
   xmlns:svg="http://www.w3.org/2000/svg"
   xmlns="http://www.w3.org/2000/svg"
   xmlns:sodipodi="http://sodipodi.sourceforge.net/DTD/sodipodi-0.dtd"
   xmlns:inkscape="http://www.inkscape.org/namespaces/inkscape"
   width="48"
   height="48"
   version="1.0"
   viewBox="0 0 4.8 4.8"
   id="svg24"
   sodipodi:docname="info.svg">
  <metadata
     id="metadata28">
    <rdf:RDF>
      <cc:Work
         rdf:about="">
        <dc:format>image/svg+xml</dc:format>
        <dc:type
           rdf:resource="http://purl.org/dc/dcmitype/StillImage" />
      </cc:Work>
    </rdf:RDF>
  </metadata>
  <sodipodi:namedview
     pagecolor="#ffffff"
     bordercolor="#666666"
     borderopacity="1"
     objecttolerance="10"
     gridtolerance="10"
     guidetolerance="10"
     inkscape:pageopacity="0"
     inkscape:pageshadow="2"
     inkscape:window-width="640"
     inkscape:window-height="480"
     id="namedview26"
     showgrid="false"
     inkscape:zoom="4.9166667"
     inkscape:cx="24"
     inkscape:cy="24"
     inkscape:window-x="0"
     inkscape:window-y="0"
     inkscape:window-maximized="0"
     inkscape:current-layer="svg24" />
  <defs
     id="defs12">
    <linearGradient
       id="a"
       x1="42.986"
       x2="22.014"
       y1="7.013"
       y2="51.987"
       gradientTransform="matrix(0.08246,0,0,0.08246,-0.157,-0.157)"
       gradientUnits="userSpaceOnUse">
      <stop
         offset="0"
         stop-color="#BCD6FE"
         id="stop2" />
      <stop
         offset="1"
         stop-color="#6787D3"
         id="stop4" />
    </linearGradient>
    <linearGradient
       id="b"
       x1="55.454"
       x2="9.547"
       y1="42.753"
       y2="16.249"
       gradientTransform="matrix(0.08246,0,0,0.08246,-0.157,-0.157)"
       gradientUnits="userSpaceOnUse">
      <stop
         offset="0"
         stop-color="#3057A7"
         id="stop7" />
      <stop
         offset="1"
         stop-color="#5A7AC6"
         id="stop9" />
    </linearGradient>
    <linearGradient
       gradientUnits="userSpaceOnUse"
       gradientTransform="matrix(0.08246,0,0,0.08246,-0.157,-0.157)"
       y2="51.987"
       y1="7.013"
       x2="22.014"
       x1="42.986"
       id="a-772">
      <stop
         id="stop2042"
         stop-color="#7bfb4e"
         offset="0" />
      <stop
         id="stop2044"
         stop-color="#409b2e"
         offset="1" />
    </linearGradient>
    <linearGradient
       gradientUnits="userSpaceOnUse"
       gradientTransform="matrix(0.08246,0,0,0.08246,-0.157,-0.157)"
       y2="16.249"
       y1="42.753"
       x2="9.547"
       x1="55.454"
       id="b-958">
      <stop
         id="stop2047"
         stop-color="#224f17"
         offset="0" />
      <stop
         id="stop2049"
         stop-color="#3b812e"
         offset="1" />
    </linearGradient>
  </defs>
  <circle
     cx="2.3999999"
     cy="2.3999999"
     r="2.1270001"
     id="circle14"
     style="fill:url(#a-772);stroke:url(#b-958);stroke-width:0.16500001;opacity:1" />
  <g
     style="fill:#ffffff"
     id="g20"
     transform="matrix(0.08246,0,0,0.08246,-0.157,-0.157)">
    <path
       inkscape:connector-curvature="0"
       id="path16"
       d="m 23,25 h 12 v 19 h 4 v 4 H 23 v -4 h 4 V 28 h -4 z" />
    <circle
       id="circle18"
       r="4"
       cy="17"
       cx="31" />
  </g>
  <g
     aria-label="X"
     style="font-style:normal;font-variant:normal;font-weight:normal;font-stretch:normal;font-size:4px;line-height:1.25;font-family:jsMath-eusb10;-inkscape-font-specification:jsMath-eusb10;letter-spacing:0px;word-spacing:0px;fill:#ffffff;fill-opacity:1;stroke:none;stroke-width:0.1"
     id="text2067">
    <path
       d="m -8.9906443,-0.4039999 0.396,-0.012 h 0.032 l 0.028,0.056 q 0.18,0.356 0.552,0.956 l 0.036,0.056 0.4,-0.492 0.4,-0.496 0.224,-0.032 0.228,-0.032 v 0.056 0.056 l -0.092,0.084 q -0.624,0.568 -0.9,0.888 -0.12,0.128 -0.132,0.164 -0.004,0.008 0.028,0.06 0.224,0.38 0.464,0.704 0.34,0.464 0.6,0.608 l 0.032,0.016 v 0.036 0.036 l -0.336,0.072 -0.336,0.072 -0.008,-0.008 q -0.172,-0.216 -0.708,-1.08 -0.068,-0.104 -0.068,-0.096 -0.012,0 -0.14,0.148 -0.184,0.216 -0.588,0.768 -0.1,0.136 -0.104,0.14 l -0.2,0.04 q -0.208,0.036 -0.212,0.04 h -0.008 v -0.052 l 0.004,-0.052 0.556,-0.624 q 0.552,-0.624 0.552,-0.632 0,-0.032 -0.608,-0.964 -0.116,-0.18 -0.128,-0.192 -0.076,-0.08 -0.308,-0.136 l -0.068,-0.016 v -0.064 -0.064 h 0.02 q 0.088,0 0.392,-0.012 z"
       style="font-style:normal;font-variant:normal;font-weight:normal;font-stretch:normal;font-family:jsMath-eurb10;-inkscape-font-specification:jsMath-eurb10;stroke-width:0.1;fill:#ffffff"
       id="path2069" />
  </g>
</svg>
