<?xml version="1.0" encoding="UTF-8"?>
<svg width="48" height="48" version="1.0" viewBox="0 0 4.8 4.8" xmlns="http://www.w3.org/2000/svg">
 <defs>
  <linearGradient id="a-388" x1="42.986" x2="22.014" y1="7.013" y2="51.987" gradientTransform="matrix(.08246 0 0 .08246 -.157 -.157)" gradientUnits="userSpaceOnUse">
   <stop stop-color="#c2f497" offset="0"/>
   <stop stop-color="#78b655" offset="1"/>
  </linearGradient>
  <linearGradient id="b-718" x1="55.454" x2="9.547" y1="42.753" y2="16.249" gradientTransform="matrix(.08246 0 0 .08246 -.157 -.157)" gradientUnits="userSpaceOnUse">
   <stop stop-color="#4d7632" offset="0"/>
   <stop stop-color="#6da150" offset="1"/>
  </linearGradient>
 </defs>
 <circle cx="2.4" cy="2.4" r="2.127" fill="url(#a-388)" stroke="url(#b-718)" stroke-width=".165"/>
 <path d="m3.0216 2.9387h-0.31409q-0.041879-0.071194-0.087946-0.17589t-0.046067-0.19683q0-0.1382 0.092134-0.23033 0.092134-0.092134 0.22196-0.2094 0.15076-0.14239 0.22615-0.25965 0.075382-0.12145 0.075382-0.26384 0-0.12982-0.071194-0.21358-0.067006-0.087946-0.17589-0.087946-0.067006 0-0.11726 0.029315-0.050255 0.029315-0.07957 0.062819-0.029315 0.029315-0.041879 0.067006-0.012564 0.033503-0.016752 0.087946l-0.046067 0.36016h-0.32666q-0.046067-0.14239-0.07957-0.30572t-0.041879-0.31828q0.12564-0.1047 0.31409-0.17589 0.18846-0.071194 0.40623-0.071194 0.37691 0 0.60725 0.2094 0.23033 0.20521 0.23033 0.50674 0 0.23871-0.14239 0.40204-0.14239 0.16333-0.36854 0.31828-0.11726 0.083758-0.14239 0.11307t-0.041879 0.12564zm0.15076 0.52768q0 0.12145-0.083758 0.19683-0.083758 0.075382-0.22196 0.075382-0.14239 0-0.22615-0.075382-0.07957-0.075382-0.07957-0.19683 0-0.12564 0.07957-0.20102 0.083758-0.075382 0.22615-0.075382 0.1382 0 0.22196 0.075382t0.083758 0.20102zm-1.9264-2.0395v-0.32247h0.60306v0.32247l-0.1382 1.5118h-0.32666zm0.60725 2.0395q0 0.12145-0.083758 0.19683-0.083758 0.075382-0.22196 0.075382t-0.22196-0.075382-0.083758-0.19683q0-0.12564 0.083758-0.20102 0.083758-0.075382 0.22196-0.075382t0.22196 0.075382 0.083758 0.20102z" fill="#fff" stroke-width=".053375"/>
</svg>
