<?xml version="1.0" encoding="UTF-8" standalone="no"?>
<svg
   xmlns:dc="http://purl.org/dc/elements/1.1/"
   xmlns:cc="http://creativecommons.org/ns#"
   xmlns:rdf="http://www.w3.org/1999/02/22-rdf-syntax-ns#"
   xmlns:svg="http://www.w3.org/2000/svg"
   xmlns="http://www.w3.org/2000/svg"
   xmlns:sodipodi="http://sodipodi.sourceforge.net/DTD/sodipodi-0.dtd"
   xmlns:inkscape="http://www.inkscape.org/namespaces/inkscape"
   width="23.959461"
   height="20.917067"
   viewBox="0 0 47.918922 41.834133"
   version="1.1"
   id="svg80"
   sodipodi:docname="warn.svg"
   inkscape:version="0.92.4 5da689c313, 2019-01-14">
  <metadata
     id="metadata86">
    <rdf:RDF>
      <cc:Work
         rdf:about="">
        <dc:format>image/svg+xml</dc:format>
        <dc:type
           rdf:resource="http://purl.org/dc/dcmitype/StillImage" />
      </cc:Work>
    </rdf:RDF>
  </metadata>
  <defs
     id="defs84" />
  <sodipodi:namedview
     pagecolor="#ffffff"
     bordercolor="#666666"
     borderopacity="1"
     objecttolerance="10"
     gridtolerance="10"
     guidetolerance="10"
     inkscape:pageopacity="0"
     inkscape:pageshadow="2"
     inkscape:window-width="1920"
     inkscape:window-height="982"
     id="namedview82"
     showgrid="false"
     inkscape:zoom="27.528083"
     inkscape:cx="10.868971"
     inkscape:cy="7.2259947"
     inkscape:window-x="0"
     inkscape:window-y="0"
     inkscape:window-maximized="1"
     inkscape:current-layer="svg80" />
  <g
     id="g93"
     transform="matrix(1.0140893,0,0,1.0140893,-0.37930421,-3.4201836)">
    <path
       style="fill:#fcc21b;stroke-width:1.05798018"
       inkscape:connector-curvature="0"
       id="path72"
       d="M 3.4369234,42.406096 24.001942,6.7839038 44.569077,42.40398 Z" />
    <path
       d="M 47.46135,42.766221 25.076433,3.9960276 a 1.2357407,1.2357407 0 0 0 -2.14667,0 L 0.5427633,42.76518 a 1.2367818,1.2367818 0 0 0 1.0743761,1.860378 H 46.388015 c 0.442451,0 0.851589,-0.234239 1.074376,-0.61735 a 1.2523977,1.2523977 0 0 0 0,-1.241987 z M 3.7658916,42.144707 24.002057,7.0942284 44.240304,42.144707 Z"
       id="path74"
       inkscape:connector-curvature="0"
       style="fill:#2f2f2f;stroke-width:1.04106212" />
    <path
       d="m 22.186444,30.595164 h 3.630184 c 0.134297,0 0.241526,-0.08537 0.249855,-0.197802 L 27.055492,16.16292 a 0.1894733,0.1894733 0 0 0 -0.06663,-0.156159 0.27379933,0.27379933 0 0 0 -0.182186,-0.06663 h -5.609243 a 0.27379933,0.27379933 0 0 0 -0.183227,0.06663 0.20092499,0.20092499 0 0 0 -0.06663,0.156159 l 0.993174,14.235484 c 0.0042,0.107229 0.111393,0.197801 0.24569,0.197801 z m -1.120182,7.480031 c 0,-0.523654 0.07496,-0.967146 0.226951,-1.327354 0.148872,-0.364371 0.357084,-0.658992 0.624637,-0.881779 0.267553,-0.222788 0.580913,-0.387275 0.945285,-0.487217 a 4.3193667,4.3193667 0 0 1 1.164948,-0.153037 c 0.390399,0 0.762058,0.05205 1.114978,0.153037 0.35292,0.100983 0.662115,0.264429 0.926545,0.487217 0.267553,0.222787 0.47993,0.513243 0.636089,0.881779 0.156159,0.360208 0.234239,0.8037 0.234239,1.327354 0,0.502833 -0.07808,0.933833 -0.234239,1.287794 a 2.4163051,2.4163051 0 0 1 -1.561593,1.399188 c -0.35292,0.104106 -0.72562,0.159282 -1.116019,0.159282 -0.413301,0 -0.800577,-0.05205 -1.164948,-0.160323 -0.364372,-0.108271 -0.676691,-0.274841 -0.944244,-0.510121 -0.267553,-0.23528 -0.479929,-0.527818 -0.624637,-0.888026 -0.153036,-0.357084 -0.227992,-0.784961 -0.227992,-1.287794 z"
       id="path76"
       inkscape:connector-curvature="0"
       style="fill:#2f2f2f;stroke-width:1.04106212" />
  </g>
</svg>
