<svg xmlns="http://www.w3.org/2000/svg" width="48" height="48">
  <defs/>
  <path fill="#fcc21b" d="M4.564 41.43L24.002 7.76l19.44 33.668z"/>
  <g fill="#2f2f2f">
    <path d="M46.536 42.026L25.034 4.785a1.187 1.187 0 00-2.062 0L1.468 42.025A1.188 1.188 0 002.5 43.812h43.005c.425 0 .818-.225 1.032-.593a1.203 1.203 0 000-1.193zm-41.972-.597L24.002 7.761l19.44 33.668z"/>
    <path d="M22.258 30.335h3.487c.129 0 .232-.082.24-.19l.95-13.673a.182.182 0 00-.064-.15.263.263 0 00-.175-.064h-5.388a.263.263 0 00-.176.064.193.193 0 00-.064.15l.954 13.674c.004.103.107.19.236.19zm-1.076 7.185c0-.503.072-.929.218-1.275.143-.35.343-.633.6-.847s.558-.372.908-.468a4.149 4.149 0 011.119-.147c.375 0 .732.05 1.071.147s.636.254.89.468c.257.214.461.493.611.847.15.346.225.772.225 1.275 0 .483-.075.897-.225 1.237a2.321 2.321 0 01-1.5 1.344c-.339.1-.697.153-1.072.153-.397 0-.769-.05-1.119-.154s-.65-.264-.907-.49-.461-.507-.6-.853c-.147-.343-.219-.754-.219-1.237z"/>
  </g>
</svg>
