<?xml version="1.0" encoding="utf-8"?>
<svg width="89" height="1296" shape-rendering="crispEdges" xmlns="http://www.w3.org/2000/svg">
  <path d="M0 34h1v1H0zM1 34h1v1H1zM2 34h1v1H2zM3 34h1v1H3zM4 34h1v1H4zM5 34h1v1H5zM6 34h1v1H6zM7 34h1v1H7zM8 34h1v1H8zM9 34h1v1H9zM10 34h1v1h-1zM11 34h1v1h-1zM12 34h1v1h-1zM13 34h1v1h-1zM14 34h1v1h-1zM15 34h1v1h-1zM16 34h1v1h-1zM17 34h1v1h-1zM18 34h1v1h-1zM19 34h1v1h-1zM20 34h1v1h-1zM21 34h1v1h-1zM22 34h1v1h-1zM23 34h1v1h-1zM24 34h1v1h-1zM25 34h1v1h-1zM26 34h1v1h-1zM27 34h1v1h-1zM28 34h1v1h-1zM29 34h1v1h-1zM30 34h1v1h-1zM31 34h1v1h-1zM32 34h1v1h-1zM33 34h1v1h-1zM34 34h1v1h-1zM35 34h1v1h-1zM36 34h1v1h-1zM37 34h1v1h-1zM38 34h1v1h-1zM39 34h1v1h-1zM40 34h1v1h-1zM41 34h1v1h-1zM42 34h1v1h-1zM43 34h1v1h-1zM44 34h1v1h-1zM45 34h1v1h-1zM46 34h1v1h-1zM47 34h1v1h-1zM48 34h1v1h-1zM49 34h1v1h-1zM50 34h1v1h-1zM51 34h1v1h-1zM52 34h1v1h-1zM53 34h1v1h-1zM0 35h1v1H0zM1 35h1v1H1zM2 35h1v1H2zM3 35h1v1H3zM4 35h1v1H4zM5 35h1v1H5zM6 35h1v1H6zM7 35h1v1H7zM8 35h1v1H8zM9 35h1v1H9zM10 35h1v1h-1zM11 35h1v1h-1zM12 35h1v1h-1zM13 35h1v1h-1zM14 35h1v1h-1zM15 35h1v1h-1zM16 35h1v1h-1zM17 35h1v1h-1zM18 35h1v1h-1zM19 35h1v1h-1zM20 35h1v1h-1zM21 35h1v1h-1zM22 35h1v1h-1zM23 35h1v1h-1zM24 35h1v1h-1zM25 35h1v1h-1zM26 35h1v1h-1zM27 35h1v1h-1zM28 35h1v1h-1zM29 35h1v1h-1zM30 35h1v1h-1zM31 35h1v1h-1zM32 35h1v1h-1zM33 35h1v1h-1zM34 35h1v1h-1zM35 35h1v1h-1zM36 35h1v1h-1zM37 35h1v1h-1zM38 35h1v1h-1zM39 35h1v1h-1zM40 35h1v1h-1zM41 35h1v1h-1zM42 35h1v1h-1zM43 35h1v1h-1zM44 35h1v1h-1zM45 35h1v1h-1zM46 35h1v1h-1zM47 35h1v1h-1zM48 35h1v1h-1zM49 35h1v1h-1zM50 35h1v1h-1zM51 35h1v1h-1zM52 35h1v1h-1zM53 35h1v1h-1zM0 70h1v1H0zM1 70h1v1H1zM2 70h1v1H2zM3 70h1v1H3zM4 70h1v1H4zM5 70h1v1H5zM6 70h1v1H6zM7 70h1v1H7zM8 70h1v1H8zM9 70h1v1H9zM10 70h1v1h-1zM11 70h1v1h-1zM12 70h1v1h-1zM13 70h1v1h-1zM14 70h1v1h-1zM15 70h1v1h-1zM16 70h1v1h-1zM17 70h1v1h-1zM18 70h1v1h-1zM19 70h1v1h-1zM20 70h1v1h-1zM21 70h1v1h-1zM22 70h1v1h-1zM23 70h1v1h-1zM24 70h1v1h-1zM25 70h1v1h-1zM26 70h1v1h-1zM27 70h1v1h-1zM28 70h1v1h-1zM29 70h1v1h-1zM30 70h1v1h-1zM31 70h1v1h-1zM32 70h1v1h-1zM33 70h1v1h-1zM34 70h1v1h-1zM35 70h1v1h-1zM36 70h1v1h-1zM37 70h1v1h-1zM38 70h1v1h-1zM39 70h1v1h-1zM40 70h1v1h-1zM41 70h1v1h-1zM42 70h1v1h-1zM43 70h1v1h-1zM44 70h1v1h-1zM45 70h1v1h-1zM46 70h1v1h-1zM47 70h1v1h-1zM48 70h1v1h-1zM49 70h1v1h-1zM50 70h1v1h-1zM51 70h1v1h-1zM52 70h1v1h-1zM53 70h1v1h-1zM54 70h1v1h-1zM55 70h1v1h-1zM56 70h1v1h-1zM57 70h1v1h-1zM58 70h1v1h-1zM59 70h1v1h-1zM60 70h1v1h-1zM61 70h1v1h-1zM62 70h1v1h-1zM63 70h1v1h-1zM64 70h1v1h-1zM65 70h1v1h-1zM66 70h1v1h-1zM67 70h1v1h-1zM68 70h1v1h-1zM69 70h1v1h-1zM70 70h1v1h-1zM71 70h1v1h-1zM72 70h1v1h-1zM73 70h1v1h-1zM74 70h1v1h-1zM75 70h1v1h-1zM76 70h1v1h-1zM77 70h1v1h-1zM78 70h1v1h-1zM79 70h1v1h-1zM80 70h1v1h-1zM81 70h1v1h-1zM82 70h1v1h-1zM83 70h1v1h-1zM84 70h1v1h-1zM85 70h1v1h-1zM86 70h1v1h-1zM87 70h1v1h-1zM88 70h1v1h-1zM0 71h1v1H0zM1 71h1v1H1zM2 71h1v1H2zM3 71h1v1H3zM4 71h1v1H4zM5 71h1v1H5zM6 71h1v1H6zM7 71h1v1H7zM8 71h1v1H8zM9 71h1v1H9zM10 71h1v1h-1zM11 71h1v1h-1zM12 71h1v1h-1zM13 71h1v1h-1zM14 71h1v1h-1zM15 71h1v1h-1zM16 71h1v1h-1zM17 71h1v1h-1zM18 71h1v1h-1zM19 71h1v1h-1zM20 71h1v1h-1zM21 71h1v1h-1zM22 71h1v1h-1zM23 71h1v1h-1zM24 71h1v1h-1zM25 71h1v1h-1zM26 71h1v1h-1zM27 71h1v1h-1zM28 71h1v1h-1zM29 71h1v1h-1zM30 71h1v1h-1zM31 71h1v1h-1zM32 71h1v1h-1zM33 71h1v1h-1zM34 71h1v1h-1zM35 71h1v1h-1zM36 71h1v1h-1zM37 71h1v1h-1zM38 71h1v1h-1zM39 71h1v1h-1zM40 71h1v1h-1zM41 71h1v1h-1zM42 71h1v1h-1zM43 71h1v1h-1zM44 71h1v1h-1zM45 71h1v1h-1zM46 71h1v1h-1zM47 71h1v1h-1zM48 71h1v1h-1zM49 71h1v1h-1zM50 71h1v1h-1zM51 71h1v1h-1zM52 71h1v1h-1zM53 71h1v1h-1zM54 71h1v1h-1zM55 71h1v1h-1zM56 71h1v1h-1zM57 71h1v1h-1zM58 71h1v1h-1zM59 71h1v1h-1zM60 71h1v1h-1zM61 71h1v1h-1zM62 71h1v1h-1zM63 71h1v1h-1zM64 71h1v1h-1zM65 71h1v1h-1zM66 71h1v1h-1zM67 71h1v1h-1zM68 71h1v1h-1zM69 71h1v1h-1zM70 71h1v1h-1zM71 71h1v1h-1zM72 71h1v1h-1zM73 71h1v1h-1zM74 71h1v1h-1zM75 71h1v1h-1zM76 71h1v1h-1zM77 71h1v1h-1zM78 71h1v1h-1zM79 71h1v1h-1zM80 71h1v1h-1zM81 71h1v1h-1zM82 71h1v1h-1zM83 71h1v1h-1zM84 71h1v1h-1zM85 71h1v1h-1zM86 71h1v1h-1zM87 71h1v1h-1zM88 71h1v1h-1zM0 106h1v1H0zM1 106h1v1H1zM2 106h1v1H2zM3 106h1v1H3zM4 106h1v1H4zM5 106h1v1H5zM6 106h1v1H6zM7 106h1v1H7zM8 106h1v1H8zM9 106h1v1H9zM10 106h1v1h-1zM11 106h1v1h-1zM12 106h1v1h-1zM13 106h1v1h-1zM14 106h1v1h-1zM15 106h1v1h-1zM16 106h1v1h-1zM17 106h1v1h-1zM18 106h1v1h-1zM19 106h1v1h-1zM20 106h1v1h-1zM21 106h1v1h-1zM22 106h1v1h-1zM23 106h1v1h-1zM24 106h1v1h-1zM25 106h1v1h-1zM26 106h1v1h-1zM27 106h1v1h-1zM28 106h1v1h-1zM29 106h1v1h-1zM30 106h1v1h-1zM31 106h1v1h-1zM32 106h1v1h-1zM33 106h1v1h-1zM34 106h1v1h-1zM35 106h1v1h-1zM36 106h1v1h-1zM37 106h1v1h-1zM38 106h1v1h-1zM39 106h1v1h-1zM40 106h1v1h-1zM41 106h1v1h-1zM42 106h1v1h-1zM43 106h1v1h-1zM44 106h1v1h-1zM45 106h1v1h-1zM46 106h1v1h-1zM47 106h1v1h-1zM48 106h1v1h-1zM49 106h1v1h-1zM50 106h1v1h-1zM51 106h1v1h-1zM52 106h1v1h-1zM53 106h1v1h-1zM0 107h1v1H0zM1 107h1v1H1zM2 107h1v1H2zM3 107h1v1H3zM4 107h1v1H4zM5 107h1v1H5zM6 107h1v1H6zM7 107h1v1H7zM8 107h1v1H8zM9 107h1v1H9zM10 107h1v1h-1zM11 107h1v1h-1zM12 107h1v1h-1zM13 107h1v1h-1zM14 107h1v1h-1zM15 107h1v1h-1zM16 107h1v1h-1zM17 107h1v1h-1zM18 107h1v1h-1zM19 107h1v1h-1zM20 107h1v1h-1zM21 107h1v1h-1zM22 107h1v1h-1zM23 107h1v1h-1zM24 107h1v1h-1zM25 107h1v1h-1zM26 107h1v1h-1zM27 107h1v1h-1zM28 107h1v1h-1zM29 107h1v1h-1zM30 107h1v1h-1zM31 107h1v1h-1zM32 107h1v1h-1zM33 107h1v1h-1zM34 107h1v1h-1zM35 107h1v1h-1zM36 107h1v1h-1zM37 107h1v1h-1zM38 107h1v1h-1zM39 107h1v1h-1zM40 107h1v1h-1zM41 107h1v1h-1zM42 107h1v1h-1zM43 107h1v1h-1zM44 107h1v1h-1zM45 107h1v1h-1zM46 107h1v1h-1zM47 107h1v1h-1zM48 107h1v1h-1zM49 107h1v1h-1zM50 107h1v1h-1zM51 107h1v1h-1zM52 107h1v1h-1zM53 107h1v1h-1zM0 142h1v1H0zM1 142h1v1H1zM2 142h1v1H2zM3 142h1v1H3zM4 142h1v1H4zM5 142h1v1H5zM6 142h1v1H6zM7 142h1v1H7zM8 142h1v1H8zM9 142h1v1H9zM10 142h1v1h-1zM11 142h1v1h-1zM12 142h1v1h-1zM13 142h1v1h-1zM14 142h1v1h-1zM15 142h1v1h-1zM16 142h1v1h-1zM17 142h1v1h-1zM18 142h1v1h-1zM19 142h1v1h-1zM20 142h1v1h-1zM21 142h1v1h-1zM22 142h1v1h-1zM23 142h1v1h-1zM24 142h1v1h-1zM25 142h1v1h-1zM26 142h1v1h-1zM27 142h1v1h-1zM28 142h1v1h-1zM29 142h1v1h-1zM30 142h1v1h-1zM31 142h1v1h-1zM32 142h1v1h-1zM33 142h1v1h-1zM34 142h1v1h-1zM35 142h1v1h-1zM36 142h1v1h-1zM37 142h1v1h-1zM38 142h1v1h-1zM39 142h1v1h-1zM40 142h1v1h-1zM41 142h1v1h-1zM42 142h1v1h-1zM43 142h1v1h-1zM44 142h1v1h-1zM45 142h1v1h-1zM46 142h1v1h-1zM47 142h1v1h-1zM48 142h1v1h-1zM49 142h1v1h-1zM50 142h1v1h-1zM51 142h1v1h-1zM52 142h1v1h-1zM53 142h1v1h-1zM54 142h1v1h-1zM55 142h1v1h-1zM56 142h1v1h-1zM57 142h1v1h-1zM58 142h1v1h-1zM59 142h1v1h-1zM60 142h1v1h-1zM61 142h1v1h-1zM62 142h1v1h-1zM63 142h1v1h-1zM64 142h1v1h-1zM65 142h1v1h-1zM66 142h1v1h-1zM67 142h1v1h-1zM68 142h1v1h-1zM69 142h1v1h-1zM70 142h1v1h-1zM71 142h1v1h-1zM72 142h1v1h-1zM73 142h1v1h-1zM74 142h1v1h-1zM75 142h1v1h-1zM76 142h1v1h-1zM77 142h1v1h-1zM78 142h1v1h-1zM79 142h1v1h-1zM80 142h1v1h-1zM81 142h1v1h-1zM82 142h1v1h-1zM83 142h1v1h-1zM84 142h1v1h-1zM85 142h1v1h-1zM86 142h1v1h-1zM87 142h1v1h-1zM88 142h1v1h-1zM0 143h1v1H0zM1 143h1v1H1zM2 143h1v1H2zM3 143h1v1H3zM4 143h1v1H4zM5 143h1v1H5zM6 143h1v1H6zM7 143h1v1H7zM8 143h1v1H8zM9 143h1v1H9zM10 143h1v1h-1zM11 143h1v1h-1zM12 143h1v1h-1zM13 143h1v1h-1zM14 143h1v1h-1zM15 143h1v1h-1zM16 143h1v1h-1zM17 143h1v1h-1zM18 143h1v1h-1zM19 143h1v1h-1zM20 143h1v1h-1zM21 143h1v1h-1zM22 143h1v1h-1zM23 143h1v1h-1zM24 143h1v1h-1zM25 143h1v1h-1zM26 143h1v1h-1zM27 143h1v1h-1zM28 143h1v1h-1zM29 143h1v1h-1zM30 143h1v1h-1zM31 143h1v1h-1zM32 143h1v1h-1zM33 143h1v1h-1zM34 143h1v1h-1zM35 143h1v1h-1zM36 143h1v1h-1zM37 143h1v1h-1zM38 143h1v1h-1zM39 143h1v1h-1zM40 143h1v1h-1zM41 143h1v1h-1zM42 143h1v1h-1zM43 143h1v1h-1zM44 143h1v1h-1zM45 143h1v1h-1zM46 143h1v1h-1zM47 143h1v1h-1zM48 143h1v1h-1zM49 143h1v1h-1zM50 143h1v1h-1zM51 143h1v1h-1zM52 143h1v1h-1zM53 143h1v1h-1zM54 143h1v1h-1zM55 143h1v1h-1zM56 143h1v1h-1zM57 143h1v1h-1zM58 143h1v1h-1zM59 143h1v1h-1zM60 143h1v1h-1zM61 143h1v1h-1zM62 143h1v1h-1zM63 143h1v1h-1zM64 143h1v1h-1zM65 143h1v1h-1zM66 143h1v1h-1zM67 143h1v1h-1zM68 143h1v1h-1zM69 143h1v1h-1zM70 143h1v1h-1zM71 143h1v1h-1zM72 143h1v1h-1zM73 143h1v1h-1zM74 143h1v1h-1zM75 143h1v1h-1zM76 143h1v1h-1zM77 143h1v1h-1zM78 143h1v1h-1zM79 143h1v1h-1zM80 143h1v1h-1zM81 143h1v1h-1zM82 143h1v1h-1zM83 143h1v1h-1zM84 143h1v1h-1zM85 143h1v1h-1zM86 143h1v1h-1zM87 143h1v1h-1zM88 143h1v1h-1zM0 178h1v1H0zM1 178h1v1H1zM2 178h1v1H2zM3 178h1v1H3zM4 178h1v1H4zM5 178h1v1H5zM6 178h1v1H6zM7 178h1v1H7zM8 178h1v1H8zM9 178h1v1H9zM10 178h1v1h-1zM11 178h1v1h-1zM12 178h1v1h-1zM13 178h1v1h-1zM14 178h1v1h-1zM15 178h1v1h-1zM16 178h1v1h-1zM17 178h1v1h-1zM18 178h1v1h-1zM19 178h1v1h-1zM20 178h1v1h-1zM21 178h1v1h-1zM22 178h1v1h-1zM23 178h1v1h-1zM24 178h1v1h-1zM25 178h1v1h-1zM26 178h1v1h-1zM27 178h1v1h-1zM28 178h1v1h-1zM29 178h1v1h-1zM30 178h1v1h-1zM31 178h1v1h-1zM32 178h1v1h-1zM33 178h1v1h-1zM34 178h1v1h-1zM35 178h1v1h-1zM36 178h1v1h-1zM37 178h1v1h-1zM38 178h1v1h-1zM39 178h1v1h-1zM40 178h1v1h-1zM41 178h1v1h-1zM42 178h1v1h-1zM43 178h1v1h-1zM44 178h1v1h-1zM45 178h1v1h-1zM46 178h1v1h-1zM47 178h1v1h-1zM48 178h1v1h-1zM49 178h1v1h-1zM50 178h1v1h-1zM51 178h1v1h-1zM52 178h1v1h-1zM53 178h1v1h-1zM0 179h1v1H0zM1 179h1v1H1zM2 179h1v1H2zM3 179h1v1H3zM4 179h1v1H4zM5 179h1v1H5zM6 179h1v1H6zM7 179h1v1H7zM8 179h1v1H8zM9 179h1v1H9zM10 179h1v1h-1zM11 179h1v1h-1zM12 179h1v1h-1zM13 179h1v1h-1zM14 179h1v1h-1zM15 179h1v1h-1zM16 179h1v1h-1zM17 179h1v1h-1zM18 179h1v1h-1zM19 179h1v1h-1zM20 179h1v1h-1zM21 179h1v1h-1zM22 179h1v1h-1zM23 179h1v1h-1zM24 179h1v1h-1zM25 179h1v1h-1zM26 179h1v1h-1zM27 179h1v1h-1zM28 179h1v1h-1zM29 179h1v1h-1zM30 179h1v1h-1zM31 179h1v1h-1zM32 179h1v1h-1zM33 179h1v1h-1zM34 179h1v1h-1zM35 179h1v1h-1zM36 179h1v1h-1zM37 179h1v1h-1zM38 179h1v1h-1zM39 179h1v1h-1zM40 179h1v1h-1zM41 179h1v1h-1zM42 179h1v1h-1zM43 179h1v1h-1zM44 179h1v1h-1zM45 179h1v1h-1zM46 179h1v1h-1zM47 179h1v1h-1zM48 179h1v1h-1zM49 179h1v1h-1zM50 179h1v1h-1zM51 179h1v1h-1zM52 179h1v1h-1zM53 179h1v1h-1zM0 214h1v1H0zM1 214h1v1H1zM2 214h1v1H2zM3 214h1v1H3zM4 214h1v1H4zM5 214h1v1H5zM6 214h1v1H6zM7 214h1v1H7zM8 214h1v1H8zM9 214h1v1H9zM10 214h1v1h-1zM11 214h1v1h-1zM12 214h1v1h-1zM13 214h1v1h-1zM14 214h1v1h-1zM15 214h1v1h-1zM16 214h1v1h-1zM17 214h1v1h-1zM18 214h1v1h-1zM19 214h1v1h-1zM20 214h1v1h-1zM21 214h1v1h-1zM22 214h1v1h-1zM23 214h1v1h-1zM24 214h1v1h-1zM25 214h1v1h-1zM26 214h1v1h-1zM27 214h1v1h-1zM28 214h1v1h-1zM29 214h1v1h-1zM30 214h1v1h-1zM31 214h1v1h-1zM32 214h1v1h-1zM33 214h1v1h-1zM34 214h1v1h-1zM35 214h1v1h-1zM36 214h1v1h-1zM37 214h1v1h-1zM38 214h1v1h-1zM39 214h1v1h-1zM40 214h1v1h-1zM41 214h1v1h-1zM42 214h1v1h-1zM43 214h1v1h-1zM44 214h1v1h-1zM45 214h1v1h-1zM46 214h1v1h-1zM47 214h1v1h-1zM48 214h1v1h-1zM49 214h1v1h-1zM50 214h1v1h-1zM51 214h1v1h-1zM52 214h1v1h-1zM53 214h1v1h-1zM54 214h1v1h-1zM55 214h1v1h-1zM56 214h1v1h-1zM57 214h1v1h-1zM58 214h1v1h-1zM59 214h1v1h-1zM60 214h1v1h-1zM61 214h1v1h-1zM62 214h1v1h-1zM63 214h1v1h-1zM64 214h1v1h-1zM65 214h1v1h-1zM66 214h1v1h-1zM67 214h1v1h-1zM68 214h1v1h-1zM69 214h1v1h-1zM70 214h1v1h-1zM71 214h1v1h-1zM72 214h1v1h-1zM73 214h1v1h-1zM74 214h1v1h-1zM75 214h1v1h-1zM76 214h1v1h-1zM77 214h1v1h-1zM78 214h1v1h-1zM79 214h1v1h-1zM80 214h1v1h-1zM81 214h1v1h-1zM82 214h1v1h-1zM83 214h1v1h-1zM84 214h1v1h-1zM85 214h1v1h-1zM86 214h1v1h-1zM87 214h1v1h-1zM88 214h1v1h-1zM0 215h1v1H0zM1 215h1v1H1zM2 215h1v1H2zM3 215h1v1H3zM4 215h1v1H4zM5 215h1v1H5zM6 215h1v1H6zM7 215h1v1H7zM8 215h1v1H8zM9 215h1v1H9zM10 215h1v1h-1zM11 215h1v1h-1zM12 215h1v1h-1zM13 215h1v1h-1zM14 215h1v1h-1zM15 215h1v1h-1zM16 215h1v1h-1zM17 215h1v1h-1zM18 215h1v1h-1zM19 215h1v1h-1zM20 215h1v1h-1zM21 215h1v1h-1zM22 215h1v1h-1zM23 215h1v1h-1zM24 215h1v1h-1zM25 215h1v1h-1zM26 215h1v1h-1zM27 215h1v1h-1zM28 215h1v1h-1zM29 215h1v1h-1zM30 215h1v1h-1zM31 215h1v1h-1zM32 215h1v1h-1zM33 215h1v1h-1zM34 215h1v1h-1zM35 215h1v1h-1zM36 215h1v1h-1zM37 215h1v1h-1zM38 215h1v1h-1zM39 215h1v1h-1zM40 215h1v1h-1zM41 215h1v1h-1zM42 215h1v1h-1zM43 215h1v1h-1zM44 215h1v1h-1zM45 215h1v1h-1zM46 215h1v1h-1zM47 215h1v1h-1zM48 215h1v1h-1zM49 215h1v1h-1zM50 215h1v1h-1zM51 215h1v1h-1zM52 215h1v1h-1zM53 215h1v1h-1zM54 215h1v1h-1zM55 215h1v1h-1zM56 215h1v1h-1zM57 215h1v1h-1zM58 215h1v1h-1zM59 215h1v1h-1zM60 215h1v1h-1zM61 215h1v1h-1zM62 215h1v1h-1zM63 215h1v1h-1zM64 215h1v1h-1zM65 215h1v1h-1zM66 215h1v1h-1zM67 215h1v1h-1zM68 215h1v1h-1zM69 215h1v1h-1zM70 215h1v1h-1zM71 215h1v1h-1zM72 215h1v1h-1zM73 215h1v1h-1zM74 215h1v1h-1zM75 215h1v1h-1zM76 215h1v1h-1zM77 215h1v1h-1zM78 215h1v1h-1zM79 215h1v1h-1zM80 215h1v1h-1zM81 215h1v1h-1zM82 215h1v1h-1zM83 215h1v1h-1zM84 215h1v1h-1zM85 215h1v1h-1zM86 215h1v1h-1zM87 215h1v1h-1zM88 215h1v1h-1zM0 250h1v1H0zM1 250h1v1H1zM2 250h1v1H2zM3 250h1v1H3zM4 250h1v1H4zM5 250h1v1H5zM6 250h1v1H6zM7 250h1v1H7zM8 250h1v1H8zM9 250h1v1H9zM10 250h1v1h-1zM11 250h1v1h-1zM12 250h1v1h-1zM13 250h1v1h-1zM14 250h1v1h-1zM15 250h1v1h-1zM16 250h1v1h-1zM17 250h1v1h-1zM18 250h1v1h-1zM19 250h1v1h-1zM20 250h1v1h-1zM21 250h1v1h-1zM22 250h1v1h-1zM23 250h1v1h-1zM24 250h1v1h-1zM25 250h1v1h-1zM26 250h1v1h-1zM27 250h1v1h-1zM28 250h1v1h-1zM29 250h1v1h-1zM30 250h1v1h-1zM31 250h1v1h-1zM32 250h1v1h-1zM33 250h1v1h-1zM34 250h1v1h-1zM35 250h1v1h-1zM36 250h1v1h-1zM37 250h1v1h-1zM38 250h1v1h-1zM39 250h1v1h-1zM40 250h1v1h-1zM41 250h1v1h-1zM42 250h1v1h-1zM43 250h1v1h-1zM44 250h1v1h-1zM45 250h1v1h-1zM46 250h1v1h-1zM47 250h1v1h-1zM48 250h1v1h-1zM49 250h1v1h-1zM50 250h1v1h-1zM51 250h1v1h-1zM52 250h1v1h-1zM53 250h1v1h-1zM0 251h1v1H0zM1 251h1v1H1zM2 251h1v1H2zM3 251h1v1H3zM4 251h1v1H4zM5 251h1v1H5zM6 251h1v1H6zM7 251h1v1H7zM8 251h1v1H8zM9 251h1v1H9zM10 251h1v1h-1zM11 251h1v1h-1zM12 251h1v1h-1zM13 251h1v1h-1zM14 251h1v1h-1zM15 251h1v1h-1zM16 251h1v1h-1zM17 251h1v1h-1zM18 251h1v1h-1zM19 251h1v1h-1zM20 251h1v1h-1zM21 251h1v1h-1zM22 251h1v1h-1zM23 251h1v1h-1zM24 251h1v1h-1zM25 251h1v1h-1zM26 251h1v1h-1zM27 251h1v1h-1zM28 251h1v1h-1zM29 251h1v1h-1zM30 251h1v1h-1zM31 251h1v1h-1zM32 251h1v1h-1zM33 251h1v1h-1zM34 251h1v1h-1zM35 251h1v1h-1zM36 251h1v1h-1zM37 251h1v1h-1zM38 251h1v1h-1zM39 251h1v1h-1zM40 251h1v1h-1zM41 251h1v1h-1zM42 251h1v1h-1zM43 251h1v1h-1zM44 251h1v1h-1zM45 251h1v1h-1zM46 251h1v1h-1zM47 251h1v1h-1zM48 251h1v1h-1zM49 251h1v1h-1zM50 251h1v1h-1zM51 251h1v1h-1zM52 251h1v1h-1zM53 251h1v1h-1zM0 286h1v1H0zM1 286h1v1H1zM2 286h1v1H2zM3 286h1v1H3zM4 286h1v1H4zM5 286h1v1H5zM6 286h1v1H6zM7 286h1v1H7zM8 286h1v1H8zM9 286h1v1H9zM10 286h1v1h-1zM11 286h1v1h-1zM12 286h1v1h-1zM13 286h1v1h-1zM14 286h1v1h-1zM15 286h1v1h-1zM16 286h1v1h-1zM17 286h1v1h-1zM18 286h1v1h-1zM19 286h1v1h-1zM20 286h1v1h-1zM21 286h1v1h-1zM22 286h1v1h-1zM23 286h1v1h-1zM24 286h1v1h-1zM25 286h1v1h-1zM26 286h1v1h-1zM27 286h1v1h-1zM28 286h1v1h-1zM29 286h1v1h-1zM30 286h1v1h-1zM31 286h1v1h-1zM32 286h1v1h-1zM33 286h1v1h-1zM34 286h1v1h-1zM35 286h1v1h-1zM36 286h1v1h-1zM37 286h1v1h-1zM38 286h1v1h-1zM39 286h1v1h-1zM40 286h1v1h-1zM41 286h1v1h-1zM42 286h1v1h-1zM43 286h1v1h-1zM44 286h1v1h-1zM45 286h1v1h-1zM46 286h1v1h-1zM47 286h1v1h-1zM48 286h1v1h-1zM49 286h1v1h-1zM50 286h1v1h-1zM51 286h1v1h-1zM52 286h1v1h-1zM53 286h1v1h-1zM54 286h1v1h-1zM55 286h1v1h-1zM56 286h1v1h-1zM57 286h1v1h-1zM58 286h1v1h-1zM59 286h1v1h-1zM60 286h1v1h-1zM61 286h1v1h-1zM62 286h1v1h-1zM63 286h1v1h-1zM64 286h1v1h-1zM65 286h1v1h-1zM66 286h1v1h-1zM67 286h1v1h-1zM68 286h1v1h-1zM69 286h1v1h-1zM70 286h1v1h-1zM71 286h1v1h-1zM72 286h1v1h-1zM73 286h1v1h-1zM74 286h1v1h-1zM75 286h1v1h-1zM76 286h1v1h-1zM77 286h1v1h-1zM78 286h1v1h-1zM79 286h1v1h-1zM80 286h1v1h-1zM81 286h1v1h-1zM82 286h1v1h-1zM83 286h1v1h-1zM84 286h1v1h-1zM85 286h1v1h-1zM86 286h1v1h-1zM87 286h1v1h-1zM88 286h1v1h-1zM0 287h1v1H0zM1 287h1v1H1zM2 287h1v1H2zM3 287h1v1H3zM4 287h1v1H4zM5 287h1v1H5zM6 287h1v1H6zM7 287h1v1H7zM8 287h1v1H8zM9 287h1v1H9zM10 287h1v1h-1zM11 287h1v1h-1zM12 287h1v1h-1zM13 287h1v1h-1zM14 287h1v1h-1zM15 287h1v1h-1zM16 287h1v1h-1zM17 287h1v1h-1zM18 287h1v1h-1zM19 287h1v1h-1zM20 287h1v1h-1zM21 287h1v1h-1zM22 287h1v1h-1zM23 287h1v1h-1zM24 287h1v1h-1zM25 287h1v1h-1zM26 287h1v1h-1zM27 287h1v1h-1zM28 287h1v1h-1zM29 287h1v1h-1zM30 287h1v1h-1zM31 287h1v1h-1zM32 287h1v1h-1zM33 287h1v1h-1zM34 287h1v1h-1zM35 287h1v1h-1zM36 287h1v1h-1zM37 287h1v1h-1zM38 287h1v1h-1zM39 287h1v1h-1zM40 287h1v1h-1zM41 287h1v1h-1zM42 287h1v1h-1zM43 287h1v1h-1zM44 287h1v1h-1zM45 287h1v1h-1zM46 287h1v1h-1zM47 287h1v1h-1zM48 287h1v1h-1zM49 287h1v1h-1zM50 287h1v1h-1zM51 287h1v1h-1zM52 287h1v1h-1zM53 287h1v1h-1zM54 287h1v1h-1zM55 287h1v1h-1zM56 287h1v1h-1zM57 287h1v1h-1zM58 287h1v1h-1zM59 287h1v1h-1zM60 287h1v1h-1zM61 287h1v1h-1zM62 287h1v1h-1zM63 287h1v1h-1zM64 287h1v1h-1zM65 287h1v1h-1zM66 287h1v1h-1zM67 287h1v1h-1zM68 287h1v1h-1zM69 287h1v1h-1zM70 287h1v1h-1zM71 287h1v1h-1zM72 287h1v1h-1zM73 287h1v1h-1zM74 287h1v1h-1zM75 287h1v1h-1zM76 287h1v1h-1zM77 287h1v1h-1zM78 287h1v1h-1zM79 287h1v1h-1zM80 287h1v1h-1zM81 287h1v1h-1zM82 287h1v1h-1zM83 287h1v1h-1zM84 287h1v1h-1zM85 287h1v1h-1zM86 287h1v1h-1zM87 287h1v1h-1zM88 287h1v1h-1zM0 322h1v1H0zM1 322h1v1H1zM2 322h1v1H2zM3 322h1v1H3zM4 322h1v1H4zM5 322h1v1H5zM6 322h1v1H6zM7 322h1v1H7zM8 322h1v1H8zM9 322h1v1H9zM10 322h1v1h-1zM11 322h1v1h-1zM12 322h1v1h-1zM13 322h1v1h-1zM14 322h1v1h-1zM15 322h1v1h-1zM16 322h1v1h-1zM17 322h1v1h-1zM18 322h1v1h-1zM19 322h1v1h-1zM20 322h1v1h-1zM21 322h1v1h-1zM22 322h1v1h-1zM23 322h1v1h-1zM24 322h1v1h-1zM25 322h1v1h-1zM26 322h1v1h-1zM27 322h1v1h-1zM28 322h1v1h-1zM29 322h1v1h-1zM30 322h1v1h-1zM31 322h1v1h-1zM32 322h1v1h-1zM33 322h1v1h-1zM34 322h1v1h-1zM35 322h1v1h-1zM36 322h1v1h-1zM37 322h1v1h-1zM38 322h1v1h-1zM39 322h1v1h-1zM40 322h1v1h-1zM41 322h1v1h-1zM42 322h1v1h-1zM43 322h1v1h-1zM44 322h1v1h-1zM45 322h1v1h-1zM46 322h1v1h-1zM47 322h1v1h-1zM48 322h1v1h-1zM49 322h1v1h-1zM50 322h1v1h-1zM51 322h1v1h-1zM52 322h1v1h-1zM53 322h1v1h-1zM0 323h1v1H0zM1 323h1v1H1zM2 323h1v1H2zM3 323h1v1H3zM4 323h1v1H4zM5 323h1v1H5zM6 323h1v1H6zM7 323h1v1H7zM8 323h1v1H8zM9 323h1v1H9zM10 323h1v1h-1zM11 323h1v1h-1zM12 323h1v1h-1zM13 323h1v1h-1zM14 323h1v1h-1zM15 323h1v1h-1zM16 323h1v1h-1zM17 323h1v1h-1zM18 323h1v1h-1zM19 323h1v1h-1zM20 323h1v1h-1zM21 323h1v1h-1zM22 323h1v1h-1zM23 323h1v1h-1zM24 323h1v1h-1zM25 323h1v1h-1zM26 323h1v1h-1zM27 323h1v1h-1zM28 323h1v1h-1zM29 323h1v1h-1zM30 323h1v1h-1zM31 323h1v1h-1zM32 323h1v1h-1zM33 323h1v1h-1zM34 323h1v1h-1zM35 323h1v1h-1zM36 323h1v1h-1zM37 323h1v1h-1zM38 323h1v1h-1zM39 323h1v1h-1zM40 323h1v1h-1zM41 323h1v1h-1zM42 323h1v1h-1zM43 323h1v1h-1zM44 323h1v1h-1zM45 323h1v1h-1zM46 323h1v1h-1zM47 323h1v1h-1zM48 323h1v1h-1zM49 323h1v1h-1zM50 323h1v1h-1zM51 323h1v1h-1zM52 323h1v1h-1zM53 323h1v1h-1zM0 358h1v1H0zM1 358h1v1H1zM2 358h1v1H2zM3 358h1v1H3zM4 358h1v1H4zM5 358h1v1H5zM6 358h1v1H6zM7 358h1v1H7zM8 358h1v1H8zM9 358h1v1H9zM10 358h1v1h-1zM11 358h1v1h-1zM12 358h1v1h-1zM13 358h1v1h-1zM14 358h1v1h-1zM15 358h1v1h-1zM16 358h1v1h-1zM17 358h1v1h-1zM18 358h1v1h-1zM19 358h1v1h-1zM20 358h1v1h-1zM21 358h1v1h-1zM22 358h1v1h-1zM23 358h1v1h-1zM24 358h1v1h-1zM25 358h1v1h-1zM26 358h1v1h-1zM27 358h1v1h-1zM28 358h1v1h-1zM29 358h1v1h-1zM30 358h1v1h-1zM31 358h1v1h-1zM32 358h1v1h-1zM33 358h1v1h-1zM34 358h1v1h-1zM35 358h1v1h-1zM36 358h1v1h-1zM37 358h1v1h-1zM38 358h1v1h-1zM39 358h1v1h-1zM40 358h1v1h-1zM41 358h1v1h-1zM42 358h1v1h-1zM43 358h1v1h-1zM44 358h1v1h-1zM45 358h1v1h-1zM46 358h1v1h-1zM47 358h1v1h-1zM48 358h1v1h-1zM49 358h1v1h-1zM50 358h1v1h-1zM51 358h1v1h-1zM52 358h1v1h-1zM53 358h1v1h-1zM54 358h1v1h-1zM55 358h1v1h-1zM56 358h1v1h-1zM57 358h1v1h-1zM58 358h1v1h-1zM59 358h1v1h-1zM60 358h1v1h-1zM61 358h1v1h-1zM62 358h1v1h-1zM63 358h1v1h-1zM64 358h1v1h-1zM65 358h1v1h-1zM66 358h1v1h-1zM67 358h1v1h-1zM68 358h1v1h-1zM69 358h1v1h-1zM70 358h1v1h-1zM71 358h1v1h-1zM72 358h1v1h-1zM73 358h1v1h-1zM74 358h1v1h-1zM75 358h1v1h-1zM76 358h1v1h-1zM77 358h1v1h-1zM78 358h1v1h-1zM79 358h1v1h-1zM80 358h1v1h-1zM81 358h1v1h-1zM82 358h1v1h-1zM83 358h1v1h-1zM84 358h1v1h-1zM85 358h1v1h-1zM86 358h1v1h-1zM87 358h1v1h-1zM88 358h1v1h-1zM0 359h1v1H0zM1 359h1v1H1zM2 359h1v1H2zM3 359h1v1H3zM4 359h1v1H4zM5 359h1v1H5zM6 359h1v1H6zM7 359h1v1H7zM8 359h1v1H8zM9 359h1v1H9zM10 359h1v1h-1zM11 359h1v1h-1zM12 359h1v1h-1zM13 359h1v1h-1zM14 359h1v1h-1zM15 359h1v1h-1zM16 359h1v1h-1zM17 359h1v1h-1zM18 359h1v1h-1zM19 359h1v1h-1zM20 359h1v1h-1zM21 359h1v1h-1zM22 359h1v1h-1zM23 359h1v1h-1zM24 359h1v1h-1zM25 359h1v1h-1zM26 359h1v1h-1zM27 359h1v1h-1zM28 359h1v1h-1zM29 359h1v1h-1zM30 359h1v1h-1zM31 359h1v1h-1zM32 359h1v1h-1zM33 359h1v1h-1zM34 359h1v1h-1zM35 359h1v1h-1zM36 359h1v1h-1zM37 359h1v1h-1zM38 359h1v1h-1zM39 359h1v1h-1zM40 359h1v1h-1zM41 359h1v1h-1zM42 359h1v1h-1zM43 359h1v1h-1zM44 359h1v1h-1zM45 359h1v1h-1zM46 359h1v1h-1zM47 359h1v1h-1zM48 359h1v1h-1zM49 359h1v1h-1zM50 359h1v1h-1zM51 359h1v1h-1zM52 359h1v1h-1zM53 359h1v1h-1zM54 359h1v1h-1zM55 359h1v1h-1zM56 359h1v1h-1zM57 359h1v1h-1zM58 359h1v1h-1zM59 359h1v1h-1zM60 359h1v1h-1zM61 359h1v1h-1zM62 359h1v1h-1zM63 359h1v1h-1zM64 359h1v1h-1zM65 359h1v1h-1zM66 359h1v1h-1zM67 359h1v1h-1zM68 359h1v1h-1zM69 359h1v1h-1zM70 359h1v1h-1zM71 359h1v1h-1zM72 359h1v1h-1zM73 359h1v1h-1zM74 359h1v1h-1zM75 359h1v1h-1zM76 359h1v1h-1zM77 359h1v1h-1zM78 359h1v1h-1zM79 359h1v1h-1zM80 359h1v1h-1zM81 359h1v1h-1zM82 359h1v1h-1zM83 359h1v1h-1zM84 359h1v1h-1zM85 359h1v1h-1zM86 359h1v1h-1zM87 359h1v1h-1zM88 359h1v1h-1zM0 394h1v1H0zM1 394h1v1H1zM2 394h1v1H2zM3 394h1v1H3zM4 394h1v1H4zM5 394h1v1H5zM6 394h1v1H6zM7 394h1v1H7zM8 394h1v1H8zM9 394h1v1H9zM10 394h1v1h-1zM11 394h1v1h-1zM12 394h1v1h-1zM13 394h1v1h-1zM14 394h1v1h-1zM15 394h1v1h-1zM16 394h1v1h-1zM17 394h1v1h-1zM18 394h1v1h-1zM19 394h1v1h-1zM20 394h1v1h-1zM21 394h1v1h-1zM22 394h1v1h-1zM23 394h1v1h-1zM24 394h1v1h-1zM25 394h1v1h-1zM26 394h1v1h-1zM27 394h1v1h-1zM28 394h1v1h-1zM29 394h1v1h-1zM30 394h1v1h-1zM31 394h1v1h-1zM32 394h1v1h-1zM33 394h1v1h-1zM34 394h1v1h-1zM35 394h1v1h-1zM36 394h1v1h-1zM37 394h1v1h-1zM38 394h1v1h-1zM39 394h1v1h-1zM40 394h1v1h-1zM41 394h1v1h-1zM42 394h1v1h-1zM43 394h1v1h-1zM44 394h1v1h-1zM45 394h1v1h-1zM46 394h1v1h-1zM47 394h1v1h-1zM48 394h1v1h-1zM49 394h1v1h-1zM50 394h1v1h-1zM51 394h1v1h-1zM52 394h1v1h-1zM53 394h1v1h-1zM0 395h1v1H0zM1 395h1v1H1zM2 395h1v1H2zM3 395h1v1H3zM4 395h1v1H4zM5 395h1v1H5zM6 395h1v1H6zM7 395h1v1H7zM8 395h1v1H8zM9 395h1v1H9zM10 395h1v1h-1zM11 395h1v1h-1zM12 395h1v1h-1zM13 395h1v1h-1zM14 395h1v1h-1zM15 395h1v1h-1zM16 395h1v1h-1zM17 395h1v1h-1zM18 395h1v1h-1zM19 395h1v1h-1zM20 395h1v1h-1zM21 395h1v1h-1zM22 395h1v1h-1zM23 395h1v1h-1zM24 395h1v1h-1zM25 395h1v1h-1zM26 395h1v1h-1zM27 395h1v1h-1zM28 395h1v1h-1zM29 395h1v1h-1zM30 395h1v1h-1zM31 395h1v1h-1zM32 395h1v1h-1zM33 395h1v1h-1zM34 395h1v1h-1zM35 395h1v1h-1zM36 395h1v1h-1zM37 395h1v1h-1zM38 395h1v1h-1zM39 395h1v1h-1zM40 395h1v1h-1zM41 395h1v1h-1zM42 395h1v1h-1zM43 395h1v1h-1zM44 395h1v1h-1zM45 395h1v1h-1zM46 395h1v1h-1zM47 395h1v1h-1zM48 395h1v1h-1zM49 395h1v1h-1zM50 395h1v1h-1zM51 395h1v1h-1zM52 395h1v1h-1zM53 395h1v1h-1zM0 430h1v1H0zM1 430h1v1H1zM2 430h1v1H2zM3 430h1v1H3zM4 430h1v1H4zM5 430h1v1H5zM6 430h1v1H6zM7 430h1v1H7zM8 430h1v1H8zM9 430h1v1H9zM10 430h1v1h-1zM11 430h1v1h-1zM12 430h1v1h-1zM13 430h1v1h-1zM14 430h1v1h-1zM15 430h1v1h-1zM16 430h1v1h-1zM17 430h1v1h-1zM18 430h1v1h-1zM19 430h1v1h-1zM20 430h1v1h-1zM21 430h1v1h-1zM22 430h1v1h-1zM23 430h1v1h-1zM24 430h1v1h-1zM25 430h1v1h-1zM26 430h1v1h-1zM27 430h1v1h-1zM28 430h1v1h-1zM29 430h1v1h-1zM30 430h1v1h-1zM31 430h1v1h-1zM32 430h1v1h-1zM33 430h1v1h-1zM34 430h1v1h-1zM35 430h1v1h-1zM36 430h1v1h-1zM37 430h1v1h-1zM38 430h1v1h-1zM39 430h1v1h-1zM40 430h1v1h-1zM41 430h1v1h-1zM42 430h1v1h-1zM43 430h1v1h-1zM44 430h1v1h-1zM45 430h1v1h-1zM46 430h1v1h-1zM47 430h1v1h-1zM48 430h1v1h-1zM49 430h1v1h-1zM50 430h1v1h-1zM51 430h1v1h-1zM52 430h1v1h-1zM53 430h1v1h-1zM54 430h1v1h-1zM55 430h1v1h-1zM56 430h1v1h-1zM57 430h1v1h-1zM58 430h1v1h-1zM59 430h1v1h-1zM60 430h1v1h-1zM61 430h1v1h-1zM62 430h1v1h-1zM63 430h1v1h-1zM64 430h1v1h-1zM65 430h1v1h-1zM66 430h1v1h-1zM67 430h1v1h-1zM68 430h1v1h-1zM69 430h1v1h-1zM70 430h1v1h-1zM71 430h1v1h-1zM72 430h1v1h-1zM73 430h1v1h-1zM74 430h1v1h-1zM75 430h1v1h-1zM76 430h1v1h-1zM77 430h1v1h-1zM78 430h1v1h-1zM79 430h1v1h-1zM80 430h1v1h-1zM81 430h1v1h-1zM82 430h1v1h-1zM83 430h1v1h-1zM84 430h1v1h-1zM85 430h1v1h-1zM86 430h1v1h-1zM87 430h1v1h-1zM88 430h1v1h-1zM0 431h1v1H0zM1 431h1v1H1zM2 431h1v1H2zM3 431h1v1H3zM4 431h1v1H4zM5 431h1v1H5zM6 431h1v1H6zM7 431h1v1H7zM8 431h1v1H8zM9 431h1v1H9zM10 431h1v1h-1zM11 431h1v1h-1zM12 431h1v1h-1zM13 431h1v1h-1zM14 431h1v1h-1zM15 431h1v1h-1zM16 431h1v1h-1zM17 431h1v1h-1zM18 431h1v1h-1zM19 431h1v1h-1zM20 431h1v1h-1zM21 431h1v1h-1zM22 431h1v1h-1zM23 431h1v1h-1zM24 431h1v1h-1zM25 431h1v1h-1zM26 431h1v1h-1zM27 431h1v1h-1zM28 431h1v1h-1zM29 431h1v1h-1zM30 431h1v1h-1zM31 431h1v1h-1zM32 431h1v1h-1zM33 431h1v1h-1zM34 431h1v1h-1zM35 431h1v1h-1zM36 431h1v1h-1zM37 431h1v1h-1zM38 431h1v1h-1zM39 431h1v1h-1zM40 431h1v1h-1zM41 431h1v1h-1zM42 431h1v1h-1zM43 431h1v1h-1zM44 431h1v1h-1zM45 431h1v1h-1zM46 431h1v1h-1zM47 431h1v1h-1zM48 431h1v1h-1zM49 431h1v1h-1zM50 431h1v1h-1zM51 431h1v1h-1zM52 431h1v1h-1zM53 431h1v1h-1zM54 431h1v1h-1zM55 431h1v1h-1zM56 431h1v1h-1zM57 431h1v1h-1zM58 431h1v1h-1zM59 431h1v1h-1zM60 431h1v1h-1zM61 431h1v1h-1zM62 431h1v1h-1zM63 431h1v1h-1zM64 431h1v1h-1zM65 431h1v1h-1zM66 431h1v1h-1zM67 431h1v1h-1zM68 431h1v1h-1zM69 431h1v1h-1zM70 431h1v1h-1zM71 431h1v1h-1zM72 431h1v1h-1zM73 431h1v1h-1zM74 431h1v1h-1zM75 431h1v1h-1zM76 431h1v1h-1zM77 431h1v1h-1zM78 431h1v1h-1zM79 431h1v1h-1zM80 431h1v1h-1zM81 431h1v1h-1zM82 431h1v1h-1zM83 431h1v1h-1zM84 431h1v1h-1zM85 431h1v1h-1zM86 431h1v1h-1zM87 431h1v1h-1zM88 431h1v1h-1zM0 466h1v1H0zM1 466h1v1H1zM2 466h1v1H2zM3 466h1v1H3zM4 466h1v1H4zM5 466h1v1H5zM6 466h1v1H6zM7 466h1v1H7zM8 466h1v1H8zM9 466h1v1H9zM10 466h1v1h-1zM11 466h1v1h-1zM12 466h1v1h-1zM13 466h1v1h-1zM14 466h1v1h-1zM15 466h1v1h-1zM16 466h1v1h-1zM17 466h1v1h-1zM18 466h1v1h-1zM19 466h1v1h-1zM20 466h1v1h-1zM21 466h1v1h-1zM22 466h1v1h-1zM23 466h1v1h-1zM24 466h1v1h-1zM25 466h1v1h-1zM26 466h1v1h-1zM27 466h1v1h-1zM28 466h1v1h-1zM29 466h1v1h-1zM30 466h1v1h-1zM31 466h1v1h-1zM32 466h1v1h-1zM33 466h1v1h-1zM34 466h1v1h-1zM35 466h1v1h-1zM36 466h1v1h-1zM37 466h1v1h-1zM38 466h1v1h-1zM39 466h1v1h-1zM40 466h1v1h-1zM41 466h1v1h-1zM42 466h1v1h-1zM43 466h1v1h-1zM44 466h1v1h-1zM45 466h1v1h-1zM46 466h1v1h-1zM47 466h1v1h-1zM48 466h1v1h-1zM49 466h1v1h-1zM50 466h1v1h-1zM51 466h1v1h-1zM52 466h1v1h-1zM53 466h1v1h-1zM0 467h1v1H0zM1 467h1v1H1zM2 467h1v1H2zM3 467h1v1H3zM4 467h1v1H4zM5 467h1v1H5zM6 467h1v1H6zM7 467h1v1H7zM8 467h1v1H8zM9 467h1v1H9zM10 467h1v1h-1zM11 467h1v1h-1zM12 467h1v1h-1zM13 467h1v1h-1zM14 467h1v1h-1zM15 467h1v1h-1zM16 467h1v1h-1zM17 467h1v1h-1zM18 467h1v1h-1zM19 467h1v1h-1zM20 467h1v1h-1zM21 467h1v1h-1zM22 467h1v1h-1zM23 467h1v1h-1zM24 467h1v1h-1zM25 467h1v1h-1zM26 467h1v1h-1zM27 467h1v1h-1zM28 467h1v1h-1zM29 467h1v1h-1zM30 467h1v1h-1zM31 467h1v1h-1zM32 467h1v1h-1zM33 467h1v1h-1zM34 467h1v1h-1zM35 467h1v1h-1zM36 467h1v1h-1zM37 467h1v1h-1zM38 467h1v1h-1zM39 467h1v1h-1zM40 467h1v1h-1zM41 467h1v1h-1zM42 467h1v1h-1zM43 467h1v1h-1zM44 467h1v1h-1zM45 467h1v1h-1zM46 467h1v1h-1zM47 467h1v1h-1zM48 467h1v1h-1zM49 467h1v1h-1zM50 467h1v1h-1zM51 467h1v1h-1zM52 467h1v1h-1zM53 467h1v1h-1zM0 502h1v1H0zM1 502h1v1H1zM2 502h1v1H2zM3 502h1v1H3zM4 502h1v1H4zM5 502h1v1H5zM6 502h1v1H6zM7 502h1v1H7zM8 502h1v1H8zM9 502h1v1H9zM10 502h1v1h-1zM11 502h1v1h-1zM12 502h1v1h-1zM13 502h1v1h-1zM14 502h1v1h-1zM15 502h1v1h-1zM16 502h1v1h-1zM17 502h1v1h-1zM18 502h1v1h-1zM19 502h1v1h-1zM20 502h1v1h-1zM21 502h1v1h-1zM22 502h1v1h-1zM23 502h1v1h-1zM24 502h1v1h-1zM25 502h1v1h-1zM26 502h1v1h-1zM27 502h1v1h-1zM28 502h1v1h-1zM29 502h1v1h-1zM30 502h1v1h-1zM31 502h1v1h-1zM32 502h1v1h-1zM33 502h1v1h-1zM34 502h1v1h-1zM35 502h1v1h-1zM36 502h1v1h-1zM37 502h1v1h-1zM38 502h1v1h-1zM39 502h1v1h-1zM40 502h1v1h-1zM41 502h1v1h-1zM42 502h1v1h-1zM43 502h1v1h-1zM44 502h1v1h-1zM45 502h1v1h-1zM46 502h1v1h-1zM47 502h1v1h-1zM48 502h1v1h-1zM49 502h1v1h-1zM50 502h1v1h-1zM51 502h1v1h-1zM52 502h1v1h-1zM53 502h1v1h-1zM54 502h1v1h-1zM55 502h1v1h-1zM56 502h1v1h-1zM57 502h1v1h-1zM58 502h1v1h-1zM59 502h1v1h-1zM60 502h1v1h-1zM61 502h1v1h-1zM62 502h1v1h-1zM63 502h1v1h-1zM64 502h1v1h-1zM65 502h1v1h-1zM66 502h1v1h-1zM67 502h1v1h-1zM68 502h1v1h-1zM69 502h1v1h-1zM70 502h1v1h-1zM71 502h1v1h-1zM72 502h1v1h-1zM73 502h1v1h-1zM74 502h1v1h-1zM75 502h1v1h-1zM76 502h1v1h-1zM77 502h1v1h-1zM78 502h1v1h-1zM79 502h1v1h-1zM80 502h1v1h-1zM81 502h1v1h-1zM82 502h1v1h-1zM83 502h1v1h-1zM84 502h1v1h-1zM85 502h1v1h-1zM86 502h1v1h-1zM87 502h1v1h-1zM88 502h1v1h-1zM0 503h1v1H0zM1 503h1v1H1zM2 503h1v1H2zM3 503h1v1H3zM4 503h1v1H4zM5 503h1v1H5zM6 503h1v1H6zM7 503h1v1H7zM8 503h1v1H8zM9 503h1v1H9zM10 503h1v1h-1zM11 503h1v1h-1zM12 503h1v1h-1zM13 503h1v1h-1zM14 503h1v1h-1zM15 503h1v1h-1zM16 503h1v1h-1zM17 503h1v1h-1zM18 503h1v1h-1zM19 503h1v1h-1zM20 503h1v1h-1zM21 503h1v1h-1zM22 503h1v1h-1zM23 503h1v1h-1zM24 503h1v1h-1zM25 503h1v1h-1zM26 503h1v1h-1zM27 503h1v1h-1zM28 503h1v1h-1zM29 503h1v1h-1zM30 503h1v1h-1zM31 503h1v1h-1zM32 503h1v1h-1zM33 503h1v1h-1zM34 503h1v1h-1zM35 503h1v1h-1zM36 503h1v1h-1zM37 503h1v1h-1zM38 503h1v1h-1zM39 503h1v1h-1zM40 503h1v1h-1zM41 503h1v1h-1zM42 503h1v1h-1zM43 503h1v1h-1zM44 503h1v1h-1zM45 503h1v1h-1zM46 503h1v1h-1zM47 503h1v1h-1zM48 503h1v1h-1zM49 503h1v1h-1zM50 503h1v1h-1zM51 503h1v1h-1zM52 503h1v1h-1zM53 503h1v1h-1zM54 503h1v1h-1zM55 503h1v1h-1zM56 503h1v1h-1zM57 503h1v1h-1zM58 503h1v1h-1zM59 503h1v1h-1zM60 503h1v1h-1zM61 503h1v1h-1zM62 503h1v1h-1zM63 503h1v1h-1zM64 503h1v1h-1zM65 503h1v1h-1zM66 503h1v1h-1zM67 503h1v1h-1zM68 503h1v1h-1zM69 503h1v1h-1zM70 503h1v1h-1zM71 503h1v1h-1zM72 503h1v1h-1zM73 503h1v1h-1zM74 503h1v1h-1zM75 503h1v1h-1zM76 503h1v1h-1zM77 503h1v1h-1zM78 503h1v1h-1zM79 503h1v1h-1zM80 503h1v1h-1zM81 503h1v1h-1zM82 503h1v1h-1zM83 503h1v1h-1zM84 503h1v1h-1zM85 503h1v1h-1zM86 503h1v1h-1zM87 503h1v1h-1zM88 503h1v1h-1zM0 538h1v1H0zM1 538h1v1H1zM2 538h1v1H2zM3 538h1v1H3zM4 538h1v1H4zM5 538h1v1H5zM6 538h1v1H6zM7 538h1v1H7zM8 538h1v1H8zM9 538h1v1H9zM10 538h1v1h-1zM11 538h1v1h-1zM12 538h1v1h-1zM13 538h1v1h-1zM14 538h1v1h-1zM15 538h1v1h-1zM16 538h1v1h-1zM17 538h1v1h-1zM18 538h1v1h-1zM19 538h1v1h-1zM20 538h1v1h-1zM21 538h1v1h-1zM22 538h1v1h-1zM23 538h1v1h-1zM24 538h1v1h-1zM25 538h1v1h-1zM26 538h1v1h-1zM27 538h1v1h-1zM28 538h1v1h-1zM29 538h1v1h-1zM30 538h1v1h-1zM31 538h1v1h-1zM32 538h1v1h-1zM33 538h1v1h-1zM34 538h1v1h-1zM35 538h1v1h-1zM36 538h1v1h-1zM37 538h1v1h-1zM38 538h1v1h-1zM39 538h1v1h-1zM40 538h1v1h-1zM41 538h1v1h-1zM42 538h1v1h-1zM43 538h1v1h-1zM44 538h1v1h-1zM45 538h1v1h-1zM46 538h1v1h-1zM47 538h1v1h-1zM48 538h1v1h-1zM49 538h1v1h-1zM50 538h1v1h-1zM51 538h1v1h-1zM52 538h1v1h-1zM53 538h1v1h-1zM0 539h1v1H0zM1 539h1v1H1zM2 539h1v1H2zM3 539h1v1H3zM4 539h1v1H4zM5 539h1v1H5zM6 539h1v1H6zM7 539h1v1H7zM8 539h1v1H8zM9 539h1v1H9zM10 539h1v1h-1zM11 539h1v1h-1zM12 539h1v1h-1zM13 539h1v1h-1zM14 539h1v1h-1zM15 539h1v1h-1zM16 539h1v1h-1zM17 539h1v1h-1zM18 539h1v1h-1zM19 539h1v1h-1zM20 539h1v1h-1zM21 539h1v1h-1zM22 539h1v1h-1zM23 539h1v1h-1zM24 539h1v1h-1zM25 539h1v1h-1zM26 539h1v1h-1zM27 539h1v1h-1zM28 539h1v1h-1zM29 539h1v1h-1zM30 539h1v1h-1zM31 539h1v1h-1zM32 539h1v1h-1zM33 539h1v1h-1zM34 539h1v1h-1zM35 539h1v1h-1zM36 539h1v1h-1zM37 539h1v1h-1zM38 539h1v1h-1zM39 539h1v1h-1zM40 539h1v1h-1zM41 539h1v1h-1zM42 539h1v1h-1zM43 539h1v1h-1zM44 539h1v1h-1zM45 539h1v1h-1zM46 539h1v1h-1zM47 539h1v1h-1zM48 539h1v1h-1zM49 539h1v1h-1zM50 539h1v1h-1zM51 539h1v1h-1zM52 539h1v1h-1zM53 539h1v1h-1zM0 574h1v1H0zM1 574h1v1H1zM2 574h1v1H2zM3 574h1v1H3zM4 574h1v1H4zM5 574h1v1H5zM6 574h1v1H6zM7 574h1v1H7zM8 574h1v1H8zM9 574h1v1H9zM10 574h1v1h-1zM11 574h1v1h-1zM12 574h1v1h-1zM13 574h1v1h-1zM14 574h1v1h-1zM15 574h1v1h-1zM16 574h1v1h-1zM17 574h1v1h-1zM18 574h1v1h-1zM19 574h1v1h-1zM20 574h1v1h-1zM21 574h1v1h-1zM22 574h1v1h-1zM23 574h1v1h-1zM24 574h1v1h-1zM25 574h1v1h-1zM26 574h1v1h-1zM27 574h1v1h-1zM28 574h1v1h-1zM29 574h1v1h-1zM30 574h1v1h-1zM31 574h1v1h-1zM32 574h1v1h-1zM33 574h1v1h-1zM34 574h1v1h-1zM35 574h1v1h-1zM36 574h1v1h-1zM37 574h1v1h-1zM38 574h1v1h-1zM39 574h1v1h-1zM40 574h1v1h-1zM41 574h1v1h-1zM42 574h1v1h-1zM43 574h1v1h-1zM44 574h1v1h-1zM45 574h1v1h-1zM46 574h1v1h-1zM47 574h1v1h-1zM48 574h1v1h-1zM49 574h1v1h-1zM50 574h1v1h-1zM51 574h1v1h-1zM52 574h1v1h-1zM53 574h1v1h-1zM54 574h1v1h-1zM55 574h1v1h-1zM56 574h1v1h-1zM57 574h1v1h-1zM58 574h1v1h-1zM59 574h1v1h-1zM60 574h1v1h-1zM61 574h1v1h-1zM62 574h1v1h-1zM63 574h1v1h-1zM64 574h1v1h-1zM65 574h1v1h-1zM66 574h1v1h-1zM67 574h1v1h-1zM68 574h1v1h-1zM69 574h1v1h-1zM70 574h1v1h-1zM71 574h1v1h-1zM72 574h1v1h-1zM73 574h1v1h-1zM74 574h1v1h-1zM75 574h1v1h-1zM76 574h1v1h-1zM77 574h1v1h-1zM78 574h1v1h-1zM79 574h1v1h-1zM80 574h1v1h-1zM81 574h1v1h-1zM82 574h1v1h-1zM83 574h1v1h-1zM84 574h1v1h-1zM85 574h1v1h-1zM86 574h1v1h-1zM87 574h1v1h-1zM88 574h1v1h-1zM0 575h1v1H0zM1 575h1v1H1zM2 575h1v1H2zM3 575h1v1H3zM4 575h1v1H4zM5 575h1v1H5zM6 575h1v1H6zM7 575h1v1H7zM8 575h1v1H8zM9 575h1v1H9zM10 575h1v1h-1zM11 575h1v1h-1zM12 575h1v1h-1zM13 575h1v1h-1zM14 575h1v1h-1zM15 575h1v1h-1zM16 575h1v1h-1zM17 575h1v1h-1zM18 575h1v1h-1zM19 575h1v1h-1zM20 575h1v1h-1zM21 575h1v1h-1zM22 575h1v1h-1zM23 575h1v1h-1zM24 575h1v1h-1zM25 575h1v1h-1zM26 575h1v1h-1zM27 575h1v1h-1zM28 575h1v1h-1zM29 575h1v1h-1zM30 575h1v1h-1zM31 575h1v1h-1zM32 575h1v1h-1zM33 575h1v1h-1zM34 575h1v1h-1zM35 575h1v1h-1zM36 575h1v1h-1zM37 575h1v1h-1zM38 575h1v1h-1zM39 575h1v1h-1zM40 575h1v1h-1zM41 575h1v1h-1zM42 575h1v1h-1zM43 575h1v1h-1zM44 575h1v1h-1zM45 575h1v1h-1zM46 575h1v1h-1zM47 575h1v1h-1zM48 575h1v1h-1zM49 575h1v1h-1zM50 575h1v1h-1zM51 575h1v1h-1zM52 575h1v1h-1zM53 575h1v1h-1zM54 575h1v1h-1zM55 575h1v1h-1zM56 575h1v1h-1zM57 575h1v1h-1zM58 575h1v1h-1zM59 575h1v1h-1zM60 575h1v1h-1zM61 575h1v1h-1zM62 575h1v1h-1zM63 575h1v1h-1zM64 575h1v1h-1zM65 575h1v1h-1zM66 575h1v1h-1zM67 575h1v1h-1zM68 575h1v1h-1zM69 575h1v1h-1zM70 575h1v1h-1zM71 575h1v1h-1zM72 575h1v1h-1zM73 575h1v1h-1zM74 575h1v1h-1zM75 575h1v1h-1zM76 575h1v1h-1zM77 575h1v1h-1zM78 575h1v1h-1zM79 575h1v1h-1zM80 575h1v1h-1zM81 575h1v1h-1zM82 575h1v1h-1zM83 575h1v1h-1zM84 575h1v1h-1zM85 575h1v1h-1zM86 575h1v1h-1zM87 575h1v1h-1zM88 575h1v1h-1zM0 610h1v1H0zM1 610h1v1H1zM2 610h1v1H2zM3 610h1v1H3zM4 610h1v1H4zM5 610h1v1H5zM6 610h1v1H6zM7 610h1v1H7zM8 610h1v1H8zM9 610h1v1H9zM10 610h1v1h-1zM11 610h1v1h-1zM12 610h1v1h-1zM13 610h1v1h-1zM14 610h1v1h-1zM15 610h1v1h-1zM16 610h1v1h-1zM17 610h1v1h-1zM18 610h1v1h-1zM19 610h1v1h-1zM20 610h1v1h-1zM21 610h1v1h-1zM22 610h1v1h-1zM23 610h1v1h-1zM24 610h1v1h-1zM25 610h1v1h-1zM26 610h1v1h-1zM27 610h1v1h-1zM28 610h1v1h-1zM29 610h1v1h-1zM30 610h1v1h-1zM31 610h1v1h-1zM32 610h1v1h-1zM33 610h1v1h-1zM34 610h1v1h-1zM35 610h1v1h-1zM36 610h1v1h-1zM37 610h1v1h-1zM38 610h1v1h-1zM39 610h1v1h-1zM40 610h1v1h-1zM41 610h1v1h-1zM42 610h1v1h-1zM43 610h1v1h-1zM44 610h1v1h-1zM45 610h1v1h-1zM46 610h1v1h-1zM47 610h1v1h-1zM48 610h1v1h-1zM49 610h1v1h-1zM50 610h1v1h-1zM51 610h1v1h-1zM52 610h1v1h-1zM53 610h1v1h-1zM0 611h1v1H0zM1 611h1v1H1zM2 611h1v1H2zM3 611h1v1H3zM4 611h1v1H4zM5 611h1v1H5zM6 611h1v1H6zM7 611h1v1H7zM8 611h1v1H8zM9 611h1v1H9zM10 611h1v1h-1zM11 611h1v1h-1zM12 611h1v1h-1zM13 611h1v1h-1zM14 611h1v1h-1zM15 611h1v1h-1zM16 611h1v1h-1zM17 611h1v1h-1zM18 611h1v1h-1zM19 611h1v1h-1zM20 611h1v1h-1zM21 611h1v1h-1zM22 611h1v1h-1zM23 611h1v1h-1zM24 611h1v1h-1zM25 611h1v1h-1zM26 611h1v1h-1zM27 611h1v1h-1zM28 611h1v1h-1zM29 611h1v1h-1zM30 611h1v1h-1zM31 611h1v1h-1zM32 611h1v1h-1zM33 611h1v1h-1zM34 611h1v1h-1zM35 611h1v1h-1zM36 611h1v1h-1zM37 611h1v1h-1zM38 611h1v1h-1zM39 611h1v1h-1zM40 611h1v1h-1zM41 611h1v1h-1zM42 611h1v1h-1zM43 611h1v1h-1zM44 611h1v1h-1zM45 611h1v1h-1zM46 611h1v1h-1zM47 611h1v1h-1zM48 611h1v1h-1zM49 611h1v1h-1zM50 611h1v1h-1zM51 611h1v1h-1zM52 611h1v1h-1zM53 611h1v1h-1zM0 646h1v1H0zM1 646h1v1H1zM2 646h1v1H2zM3 646h1v1H3zM4 646h1v1H4zM5 646h1v1H5zM6 646h1v1H6zM7 646h1v1H7zM8 646h1v1H8zM9 646h1v1H9zM10 646h1v1h-1zM11 646h1v1h-1zM12 646h1v1h-1zM13 646h1v1h-1zM14 646h1v1h-1zM15 646h1v1h-1zM16 646h1v1h-1zM17 646h1v1h-1zM18 646h1v1h-1zM19 646h1v1h-1zM20 646h1v1h-1zM21 646h1v1h-1zM22 646h1v1h-1zM23 646h1v1h-1zM24 646h1v1h-1zM25 646h1v1h-1zM26 646h1v1h-1zM27 646h1v1h-1zM28 646h1v1h-1zM29 646h1v1h-1zM30 646h1v1h-1zM31 646h1v1h-1zM32 646h1v1h-1zM33 646h1v1h-1zM34 646h1v1h-1zM35 646h1v1h-1zM36 646h1v1h-1zM37 646h1v1h-1zM38 646h1v1h-1zM39 646h1v1h-1zM40 646h1v1h-1zM41 646h1v1h-1zM42 646h1v1h-1zM43 646h1v1h-1zM44 646h1v1h-1zM45 646h1v1h-1zM46 646h1v1h-1zM47 646h1v1h-1zM48 646h1v1h-1zM49 646h1v1h-1zM50 646h1v1h-1zM51 646h1v1h-1zM52 646h1v1h-1zM53 646h1v1h-1zM54 646h1v1h-1zM55 646h1v1h-1zM56 646h1v1h-1zM57 646h1v1h-1zM58 646h1v1h-1zM59 646h1v1h-1zM60 646h1v1h-1zM61 646h1v1h-1zM62 646h1v1h-1zM63 646h1v1h-1zM64 646h1v1h-1zM65 646h1v1h-1zM66 646h1v1h-1zM67 646h1v1h-1zM68 646h1v1h-1zM69 646h1v1h-1zM70 646h1v1h-1zM71 646h1v1h-1zM72 646h1v1h-1zM73 646h1v1h-1zM74 646h1v1h-1zM75 646h1v1h-1zM76 646h1v1h-1zM77 646h1v1h-1zM78 646h1v1h-1zM79 646h1v1h-1zM80 646h1v1h-1zM81 646h1v1h-1zM82 646h1v1h-1zM83 646h1v1h-1zM84 646h1v1h-1zM85 646h1v1h-1zM86 646h1v1h-1zM87 646h1v1h-1zM88 646h1v1h-1zM0 647h1v1H0zM1 647h1v1H1zM2 647h1v1H2zM3 647h1v1H3zM4 647h1v1H4zM5 647h1v1H5zM6 647h1v1H6zM7 647h1v1H7zM8 647h1v1H8zM9 647h1v1H9zM10 647h1v1h-1zM11 647h1v1h-1zM12 647h1v1h-1zM13 647h1v1h-1zM14 647h1v1h-1zM15 647h1v1h-1zM16 647h1v1h-1zM17 647h1v1h-1zM18 647h1v1h-1zM19 647h1v1h-1zM20 647h1v1h-1zM21 647h1v1h-1zM22 647h1v1h-1zM23 647h1v1h-1zM24 647h1v1h-1zM25 647h1v1h-1zM26 647h1v1h-1zM27 647h1v1h-1zM28 647h1v1h-1zM29 647h1v1h-1zM30 647h1v1h-1zM31 647h1v1h-1zM32 647h1v1h-1zM33 647h1v1h-1zM34 647h1v1h-1zM35 647h1v1h-1zM36 647h1v1h-1zM37 647h1v1h-1zM38 647h1v1h-1zM39 647h1v1h-1zM40 647h1v1h-1zM41 647h1v1h-1zM42 647h1v1h-1zM43 647h1v1h-1zM44 647h1v1h-1zM45 647h1v1h-1zM46 647h1v1h-1zM47 647h1v1h-1zM48 647h1v1h-1zM49 647h1v1h-1zM50 647h1v1h-1zM51 647h1v1h-1zM52 647h1v1h-1zM53 647h1v1h-1zM54 647h1v1h-1zM55 647h1v1h-1zM56 647h1v1h-1zM57 647h1v1h-1zM58 647h1v1h-1zM59 647h1v1h-1zM60 647h1v1h-1zM61 647h1v1h-1zM62 647h1v1h-1zM63 647h1v1h-1zM64 647h1v1h-1zM65 647h1v1h-1zM66 647h1v1h-1zM67 647h1v1h-1zM68 647h1v1h-1zM69 647h1v1h-1zM70 647h1v1h-1zM71 647h1v1h-1zM72 647h1v1h-1zM73 647h1v1h-1zM74 647h1v1h-1zM75 647h1v1h-1zM76 647h1v1h-1zM77 647h1v1h-1zM78 647h1v1h-1zM79 647h1v1h-1zM80 647h1v1h-1zM81 647h1v1h-1zM82 647h1v1h-1zM83 647h1v1h-1zM84 647h1v1h-1zM85 647h1v1h-1zM86 647h1v1h-1zM87 647h1v1h-1zM88 647h1v1h-1zM0 682h1v1H0zM1 682h1v1H1zM2 682h1v1H2zM3 682h1v1H3zM4 682h1v1H4zM5 682h1v1H5zM6 682h1v1H6zM7 682h1v1H7zM8 682h1v1H8zM9 682h1v1H9zM10 682h1v1h-1zM11 682h1v1h-1zM12 682h1v1h-1zM13 682h1v1h-1zM14 682h1v1h-1zM15 682h1v1h-1zM16 682h1v1h-1zM17 682h1v1h-1zM18 682h1v1h-1zM19 682h1v1h-1zM20 682h1v1h-1zM21 682h1v1h-1zM22 682h1v1h-1zM23 682h1v1h-1zM24 682h1v1h-1zM25 682h1v1h-1zM26 682h1v1h-1zM27 682h1v1h-1zM28 682h1v1h-1zM29 682h1v1h-1zM30 682h1v1h-1zM31 682h1v1h-1zM32 682h1v1h-1zM33 682h1v1h-1zM34 682h1v1h-1zM35 682h1v1h-1zM36 682h1v1h-1zM37 682h1v1h-1zM38 682h1v1h-1zM39 682h1v1h-1zM40 682h1v1h-1zM41 682h1v1h-1zM42 682h1v1h-1zM43 682h1v1h-1zM44 682h1v1h-1zM45 682h1v1h-1zM46 682h1v1h-1zM47 682h1v1h-1zM48 682h1v1h-1zM49 682h1v1h-1zM50 682h1v1h-1zM51 682h1v1h-1zM52 682h1v1h-1zM53 682h1v1h-1zM0 683h1v1H0zM1 683h1v1H1zM2 683h1v1H2zM3 683h1v1H3zM4 683h1v1H4zM5 683h1v1H5zM6 683h1v1H6zM7 683h1v1H7zM8 683h1v1H8zM9 683h1v1H9zM10 683h1v1h-1zM11 683h1v1h-1zM12 683h1v1h-1zM13 683h1v1h-1zM14 683h1v1h-1zM15 683h1v1h-1zM16 683h1v1h-1zM17 683h1v1h-1zM18 683h1v1h-1zM19 683h1v1h-1zM20 683h1v1h-1zM21 683h1v1h-1zM22 683h1v1h-1zM23 683h1v1h-1zM24 683h1v1h-1zM25 683h1v1h-1zM26 683h1v1h-1zM27 683h1v1h-1zM28 683h1v1h-1zM29 683h1v1h-1zM30 683h1v1h-1zM31 683h1v1h-1zM32 683h1v1h-1zM33 683h1v1h-1zM34 683h1v1h-1zM35 683h1v1h-1zM36 683h1v1h-1zM37 683h1v1h-1zM38 683h1v1h-1zM39 683h1v1h-1zM40 683h1v1h-1zM41 683h1v1h-1zM42 683h1v1h-1zM43 683h1v1h-1zM44 683h1v1h-1zM45 683h1v1h-1zM46 683h1v1h-1zM47 683h1v1h-1zM48 683h1v1h-1zM49 683h1v1h-1zM50 683h1v1h-1zM51 683h1v1h-1zM52 683h1v1h-1zM53 683h1v1h-1zM0 718h1v1H0zM1 718h1v1H1zM2 718h1v1H2zM3 718h1v1H3zM4 718h1v1H4zM5 718h1v1H5zM6 718h1v1H6zM7 718h1v1H7zM8 718h1v1H8zM9 718h1v1H9zM10 718h1v1h-1zM11 718h1v1h-1zM12 718h1v1h-1zM13 718h1v1h-1zM14 718h1v1h-1zM15 718h1v1h-1zM16 718h1v1h-1zM17 718h1v1h-1zM18 718h1v1h-1zM19 718h1v1h-1zM20 718h1v1h-1zM21 718h1v1h-1zM22 718h1v1h-1zM23 718h1v1h-1zM24 718h1v1h-1zM25 718h1v1h-1zM26 718h1v1h-1zM27 718h1v1h-1zM28 718h1v1h-1zM29 718h1v1h-1zM30 718h1v1h-1zM31 718h1v1h-1zM32 718h1v1h-1zM33 718h1v1h-1zM34 718h1v1h-1zM35 718h1v1h-1zM36 718h1v1h-1zM37 718h1v1h-1zM38 718h1v1h-1zM39 718h1v1h-1zM40 718h1v1h-1zM41 718h1v1h-1zM42 718h1v1h-1zM43 718h1v1h-1zM44 718h1v1h-1zM45 718h1v1h-1zM46 718h1v1h-1zM47 718h1v1h-1zM48 718h1v1h-1zM49 718h1v1h-1zM50 718h1v1h-1zM51 718h1v1h-1zM52 718h1v1h-1zM53 718h1v1h-1zM54 718h1v1h-1zM55 718h1v1h-1zM56 718h1v1h-1zM57 718h1v1h-1zM58 718h1v1h-1zM59 718h1v1h-1zM60 718h1v1h-1zM61 718h1v1h-1zM62 718h1v1h-1zM63 718h1v1h-1zM64 718h1v1h-1zM65 718h1v1h-1zM66 718h1v1h-1zM67 718h1v1h-1zM68 718h1v1h-1zM69 718h1v1h-1zM70 718h1v1h-1zM71 718h1v1h-1zM72 718h1v1h-1zM73 718h1v1h-1zM74 718h1v1h-1zM75 718h1v1h-1zM76 718h1v1h-1zM77 718h1v1h-1zM78 718h1v1h-1zM79 718h1v1h-1zM80 718h1v1h-1zM81 718h1v1h-1zM82 718h1v1h-1zM83 718h1v1h-1zM84 718h1v1h-1zM85 718h1v1h-1zM86 718h1v1h-1zM87 718h1v1h-1zM88 718h1v1h-1zM0 719h1v1H0zM1 719h1v1H1zM2 719h1v1H2zM3 719h1v1H3zM4 719h1v1H4zM5 719h1v1H5zM6 719h1v1H6zM7 719h1v1H7zM8 719h1v1H8zM9 719h1v1H9zM10 719h1v1h-1zM11 719h1v1h-1zM12 719h1v1h-1zM13 719h1v1h-1zM14 719h1v1h-1zM15 719h1v1h-1zM16 719h1v1h-1zM17 719h1v1h-1zM18 719h1v1h-1zM19 719h1v1h-1zM20 719h1v1h-1zM21 719h1v1h-1zM22 719h1v1h-1zM23 719h1v1h-1zM24 719h1v1h-1zM25 719h1v1h-1zM26 719h1v1h-1zM27 719h1v1h-1zM28 719h1v1h-1zM29 719h1v1h-1zM30 719h1v1h-1zM31 719h1v1h-1zM32 719h1v1h-1zM33 719h1v1h-1zM34 719h1v1h-1zM35 719h1v1h-1zM36 719h1v1h-1zM37 719h1v1h-1zM38 719h1v1h-1zM39 719h1v1h-1zM40 719h1v1h-1zM41 719h1v1h-1zM42 719h1v1h-1zM43 719h1v1h-1zM44 719h1v1h-1zM45 719h1v1h-1zM46 719h1v1h-1zM47 719h1v1h-1zM48 719h1v1h-1zM49 719h1v1h-1zM50 719h1v1h-1zM51 719h1v1h-1zM52 719h1v1h-1zM53 719h1v1h-1zM54 719h1v1h-1zM55 719h1v1h-1zM56 719h1v1h-1zM57 719h1v1h-1zM58 719h1v1h-1zM59 719h1v1h-1zM60 719h1v1h-1zM61 719h1v1h-1zM62 719h1v1h-1zM63 719h1v1h-1zM64 719h1v1h-1zM65 719h1v1h-1zM66 719h1v1h-1zM67 719h1v1h-1zM68 719h1v1h-1zM69 719h1v1h-1zM70 719h1v1h-1zM71 719h1v1h-1zM72 719h1v1h-1zM73 719h1v1h-1zM74 719h1v1h-1zM75 719h1v1h-1zM76 719h1v1h-1zM77 719h1v1h-1zM78 719h1v1h-1zM79 719h1v1h-1zM80 719h1v1h-1zM81 719h1v1h-1zM82 719h1v1h-1zM83 719h1v1h-1zM84 719h1v1h-1zM85 719h1v1h-1zM86 719h1v1h-1zM87 719h1v1h-1zM88 719h1v1h-1zM0 754h1v1H0zM1 754h1v1H1zM2 754h1v1H2zM3 754h1v1H3zM4 754h1v1H4zM5 754h1v1H5zM6 754h1v1H6zM7 754h1v1H7zM8 754h1v1H8zM9 754h1v1H9zM10 754h1v1h-1zM11 754h1v1h-1zM12 754h1v1h-1zM13 754h1v1h-1zM14 754h1v1h-1zM15 754h1v1h-1zM16 754h1v1h-1zM17 754h1v1h-1zM18 754h1v1h-1zM19 754h1v1h-1zM20 754h1v1h-1zM21 754h1v1h-1zM22 754h1v1h-1zM23 754h1v1h-1zM24 754h1v1h-1zM25 754h1v1h-1zM26 754h1v1h-1zM27 754h1v1h-1zM28 754h1v1h-1zM29 754h1v1h-1zM30 754h1v1h-1zM31 754h1v1h-1zM32 754h1v1h-1zM33 754h1v1h-1zM34 754h1v1h-1zM35 754h1v1h-1zM36 754h1v1h-1zM37 754h1v1h-1zM38 754h1v1h-1zM39 754h1v1h-1zM40 754h1v1h-1zM41 754h1v1h-1zM42 754h1v1h-1zM43 754h1v1h-1zM44 754h1v1h-1zM45 754h1v1h-1zM46 754h1v1h-1zM47 754h1v1h-1zM48 754h1v1h-1zM49 754h1v1h-1zM50 754h1v1h-1zM51 754h1v1h-1zM52 754h1v1h-1zM53 754h1v1h-1zM0 755h1v1H0zM1 755h1v1H1zM2 755h1v1H2zM3 755h1v1H3zM4 755h1v1H4zM5 755h1v1H5zM6 755h1v1H6zM7 755h1v1H7zM8 755h1v1H8zM9 755h1v1H9zM10 755h1v1h-1zM11 755h1v1h-1zM12 755h1v1h-1zM13 755h1v1h-1zM14 755h1v1h-1zM15 755h1v1h-1zM16 755h1v1h-1zM17 755h1v1h-1zM18 755h1v1h-1zM19 755h1v1h-1zM20 755h1v1h-1zM21 755h1v1h-1zM22 755h1v1h-1zM23 755h1v1h-1zM24 755h1v1h-1zM25 755h1v1h-1zM26 755h1v1h-1zM27 755h1v1h-1zM28 755h1v1h-1zM29 755h1v1h-1zM30 755h1v1h-1zM31 755h1v1h-1zM32 755h1v1h-1zM33 755h1v1h-1zM34 755h1v1h-1zM35 755h1v1h-1zM36 755h1v1h-1zM37 755h1v1h-1zM38 755h1v1h-1zM39 755h1v1h-1zM40 755h1v1h-1zM41 755h1v1h-1zM42 755h1v1h-1zM43 755h1v1h-1zM44 755h1v1h-1zM45 755h1v1h-1zM46 755h1v1h-1zM47 755h1v1h-1zM48 755h1v1h-1zM49 755h1v1h-1zM50 755h1v1h-1zM51 755h1v1h-1zM52 755h1v1h-1zM53 755h1v1h-1zM0 790h1v1H0zM1 790h1v1H1zM2 790h1v1H2zM3 790h1v1H3zM4 790h1v1H4zM5 790h1v1H5zM6 790h1v1H6zM7 790h1v1H7zM8 790h1v1H8zM9 790h1v1H9zM10 790h1v1h-1zM11 790h1v1h-1zM12 790h1v1h-1zM13 790h1v1h-1zM14 790h1v1h-1zM15 790h1v1h-1zM16 790h1v1h-1zM17 790h1v1h-1zM18 790h1v1h-1zM19 790h1v1h-1zM20 790h1v1h-1zM21 790h1v1h-1zM22 790h1v1h-1zM23 790h1v1h-1zM24 790h1v1h-1zM25 790h1v1h-1zM26 790h1v1h-1zM27 790h1v1h-1zM28 790h1v1h-1zM29 790h1v1h-1zM30 790h1v1h-1zM31 790h1v1h-1zM32 790h1v1h-1zM33 790h1v1h-1zM34 790h1v1h-1zM35 790h1v1h-1zM36 790h1v1h-1zM37 790h1v1h-1zM38 790h1v1h-1zM39 790h1v1h-1zM40 790h1v1h-1zM41 790h1v1h-1zM42 790h1v1h-1zM43 790h1v1h-1zM44 790h1v1h-1zM45 790h1v1h-1zM46 790h1v1h-1zM47 790h1v1h-1zM48 790h1v1h-1zM49 790h1v1h-1zM50 790h1v1h-1zM51 790h1v1h-1zM52 790h1v1h-1zM53 790h1v1h-1zM54 790h1v1h-1zM55 790h1v1h-1zM56 790h1v1h-1zM57 790h1v1h-1zM58 790h1v1h-1zM59 790h1v1h-1zM60 790h1v1h-1zM61 790h1v1h-1zM62 790h1v1h-1zM63 790h1v1h-1zM64 790h1v1h-1zM65 790h1v1h-1zM66 790h1v1h-1zM67 790h1v1h-1zM68 790h1v1h-1zM69 790h1v1h-1zM70 790h1v1h-1zM71 790h1v1h-1zM72 790h1v1h-1zM73 790h1v1h-1zM74 790h1v1h-1zM75 790h1v1h-1zM76 790h1v1h-1zM77 790h1v1h-1zM78 790h1v1h-1zM79 790h1v1h-1zM80 790h1v1h-1zM81 790h1v1h-1zM82 790h1v1h-1zM83 790h1v1h-1zM84 790h1v1h-1zM85 790h1v1h-1zM86 790h1v1h-1zM87 790h1v1h-1zM88 790h1v1h-1zM0 791h1v1H0zM1 791h1v1H1zM2 791h1v1H2zM3 791h1v1H3zM4 791h1v1H4zM5 791h1v1H5zM6 791h1v1H6zM7 791h1v1H7zM8 791h1v1H8zM9 791h1v1H9zM10 791h1v1h-1zM11 791h1v1h-1zM12 791h1v1h-1zM13 791h1v1h-1zM14 791h1v1h-1zM15 791h1v1h-1zM16 791h1v1h-1zM17 791h1v1h-1zM18 791h1v1h-1zM19 791h1v1h-1zM20 791h1v1h-1zM21 791h1v1h-1zM22 791h1v1h-1zM23 791h1v1h-1zM24 791h1v1h-1zM25 791h1v1h-1zM26 791h1v1h-1zM27 791h1v1h-1zM28 791h1v1h-1zM29 791h1v1h-1zM30 791h1v1h-1zM31 791h1v1h-1zM32 791h1v1h-1zM33 791h1v1h-1zM34 791h1v1h-1zM35 791h1v1h-1zM36 791h1v1h-1zM37 791h1v1h-1zM38 791h1v1h-1zM39 791h1v1h-1zM40 791h1v1h-1zM41 791h1v1h-1zM42 791h1v1h-1zM43 791h1v1h-1zM44 791h1v1h-1zM45 791h1v1h-1zM46 791h1v1h-1zM47 791h1v1h-1zM48 791h1v1h-1zM49 791h1v1h-1zM50 791h1v1h-1zM51 791h1v1h-1zM52 791h1v1h-1zM53 791h1v1h-1zM54 791h1v1h-1zM55 791h1v1h-1zM56 791h1v1h-1zM57 791h1v1h-1zM58 791h1v1h-1zM59 791h1v1h-1zM60 791h1v1h-1zM61 791h1v1h-1zM62 791h1v1h-1zM63 791h1v1h-1zM64 791h1v1h-1zM65 791h1v1h-1zM66 791h1v1h-1zM67 791h1v1h-1zM68 791h1v1h-1zM69 791h1v1h-1zM70 791h1v1h-1zM71 791h1v1h-1zM72 791h1v1h-1zM73 791h1v1h-1zM74 791h1v1h-1zM75 791h1v1h-1zM76 791h1v1h-1zM77 791h1v1h-1zM78 791h1v1h-1zM79 791h1v1h-1zM80 791h1v1h-1zM81 791h1v1h-1zM82 791h1v1h-1zM83 791h1v1h-1zM84 791h1v1h-1zM85 791h1v1h-1zM86 791h1v1h-1zM87 791h1v1h-1zM88 791h1v1h-1zM0 826h1v1H0zM1 826h1v1H1zM2 826h1v1H2zM3 826h1v1H3zM4 826h1v1H4zM5 826h1v1H5zM6 826h1v1H6zM7 826h1v1H7zM8 826h1v1H8zM9 826h1v1H9zM10 826h1v1h-1zM11 826h1v1h-1zM12 826h1v1h-1zM13 826h1v1h-1zM14 826h1v1h-1zM15 826h1v1h-1zM16 826h1v1h-1zM17 826h1v1h-1zM18 826h1v1h-1zM19 826h1v1h-1zM20 826h1v1h-1zM21 826h1v1h-1zM22 826h1v1h-1zM23 826h1v1h-1zM24 826h1v1h-1zM25 826h1v1h-1zM26 826h1v1h-1zM27 826h1v1h-1zM28 826h1v1h-1zM29 826h1v1h-1zM30 826h1v1h-1zM31 826h1v1h-1zM32 826h1v1h-1zM33 826h1v1h-1zM34 826h1v1h-1zM35 826h1v1h-1zM36 826h1v1h-1zM37 826h1v1h-1zM38 826h1v1h-1zM39 826h1v1h-1zM40 826h1v1h-1zM41 826h1v1h-1zM42 826h1v1h-1zM43 826h1v1h-1zM44 826h1v1h-1zM45 826h1v1h-1zM46 826h1v1h-1zM47 826h1v1h-1zM48 826h1v1h-1zM49 826h1v1h-1zM50 826h1v1h-1zM51 826h1v1h-1zM52 826h1v1h-1zM53 826h1v1h-1zM0 827h1v1H0zM1 827h1v1H1zM2 827h1v1H2zM3 827h1v1H3zM4 827h1v1H4zM5 827h1v1H5zM6 827h1v1H6zM7 827h1v1H7zM8 827h1v1H8zM9 827h1v1H9zM10 827h1v1h-1zM11 827h1v1h-1zM12 827h1v1h-1zM13 827h1v1h-1zM14 827h1v1h-1zM15 827h1v1h-1zM16 827h1v1h-1zM17 827h1v1h-1zM18 827h1v1h-1zM19 827h1v1h-1zM20 827h1v1h-1zM21 827h1v1h-1zM22 827h1v1h-1zM23 827h1v1h-1zM24 827h1v1h-1zM25 827h1v1h-1zM26 827h1v1h-1zM27 827h1v1h-1zM28 827h1v1h-1zM29 827h1v1h-1zM30 827h1v1h-1zM31 827h1v1h-1zM32 827h1v1h-1zM33 827h1v1h-1zM34 827h1v1h-1zM35 827h1v1h-1zM36 827h1v1h-1zM37 827h1v1h-1zM38 827h1v1h-1zM39 827h1v1h-1zM40 827h1v1h-1zM41 827h1v1h-1zM42 827h1v1h-1zM43 827h1v1h-1zM44 827h1v1h-1zM45 827h1v1h-1zM46 827h1v1h-1zM47 827h1v1h-1zM48 827h1v1h-1zM49 827h1v1h-1zM50 827h1v1h-1zM51 827h1v1h-1zM52 827h1v1h-1zM53 827h1v1h-1zM0 862h1v1H0zM1 862h1v1H1zM2 862h1v1H2zM3 862h1v1H3zM4 862h1v1H4zM5 862h1v1H5zM6 862h1v1H6zM7 862h1v1H7zM8 862h1v1H8zM9 862h1v1H9zM10 862h1v1h-1zM11 862h1v1h-1zM12 862h1v1h-1zM13 862h1v1h-1zM14 862h1v1h-1zM15 862h1v1h-1zM16 862h1v1h-1zM17 862h1v1h-1zM18 862h1v1h-1zM19 862h1v1h-1zM20 862h1v1h-1zM21 862h1v1h-1zM22 862h1v1h-1zM23 862h1v1h-1zM24 862h1v1h-1zM25 862h1v1h-1zM26 862h1v1h-1zM27 862h1v1h-1zM28 862h1v1h-1zM29 862h1v1h-1zM30 862h1v1h-1zM31 862h1v1h-1zM32 862h1v1h-1zM33 862h1v1h-1zM34 862h1v1h-1zM35 862h1v1h-1zM36 862h1v1h-1zM37 862h1v1h-1zM38 862h1v1h-1zM39 862h1v1h-1zM40 862h1v1h-1zM41 862h1v1h-1zM42 862h1v1h-1zM43 862h1v1h-1zM44 862h1v1h-1zM45 862h1v1h-1zM46 862h1v1h-1zM47 862h1v1h-1zM48 862h1v1h-1zM49 862h1v1h-1zM50 862h1v1h-1zM51 862h1v1h-1zM52 862h1v1h-1zM53 862h1v1h-1zM54 862h1v1h-1zM55 862h1v1h-1zM56 862h1v1h-1zM57 862h1v1h-1zM58 862h1v1h-1zM59 862h1v1h-1zM60 862h1v1h-1zM61 862h1v1h-1zM62 862h1v1h-1zM63 862h1v1h-1zM64 862h1v1h-1zM65 862h1v1h-1zM66 862h1v1h-1zM67 862h1v1h-1zM68 862h1v1h-1zM69 862h1v1h-1zM70 862h1v1h-1zM71 862h1v1h-1zM72 862h1v1h-1zM73 862h1v1h-1zM74 862h1v1h-1zM75 862h1v1h-1zM76 862h1v1h-1zM77 862h1v1h-1zM78 862h1v1h-1zM79 862h1v1h-1zM80 862h1v1h-1zM81 862h1v1h-1zM82 862h1v1h-1zM83 862h1v1h-1zM84 862h1v1h-1zM85 862h1v1h-1zM86 862h1v1h-1zM87 862h1v1h-1zM88 862h1v1h-1zM0 863h1v1H0zM1 863h1v1H1zM2 863h1v1H2zM3 863h1v1H3zM4 863h1v1H4zM5 863h1v1H5zM6 863h1v1H6zM7 863h1v1H7zM8 863h1v1H8zM9 863h1v1H9zM10 863h1v1h-1zM11 863h1v1h-1zM12 863h1v1h-1zM13 863h1v1h-1zM14 863h1v1h-1zM15 863h1v1h-1zM16 863h1v1h-1zM17 863h1v1h-1zM18 863h1v1h-1zM19 863h1v1h-1zM20 863h1v1h-1zM21 863h1v1h-1zM22 863h1v1h-1zM23 863h1v1h-1zM24 863h1v1h-1zM25 863h1v1h-1zM26 863h1v1h-1zM27 863h1v1h-1zM28 863h1v1h-1zM29 863h1v1h-1zM30 863h1v1h-1zM31 863h1v1h-1zM32 863h1v1h-1zM33 863h1v1h-1zM34 863h1v1h-1zM35 863h1v1h-1zM36 863h1v1h-1zM37 863h1v1h-1zM38 863h1v1h-1zM39 863h1v1h-1zM40 863h1v1h-1zM41 863h1v1h-1zM42 863h1v1h-1zM43 863h1v1h-1zM44 863h1v1h-1zM45 863h1v1h-1zM46 863h1v1h-1zM47 863h1v1h-1zM48 863h1v1h-1zM49 863h1v1h-1zM50 863h1v1h-1zM51 863h1v1h-1zM52 863h1v1h-1zM53 863h1v1h-1zM54 863h1v1h-1zM55 863h1v1h-1zM56 863h1v1h-1zM57 863h1v1h-1zM58 863h1v1h-1zM59 863h1v1h-1zM60 863h1v1h-1zM61 863h1v1h-1zM62 863h1v1h-1zM63 863h1v1h-1zM64 863h1v1h-1zM65 863h1v1h-1zM66 863h1v1h-1zM67 863h1v1h-1zM68 863h1v1h-1zM69 863h1v1h-1zM70 863h1v1h-1zM71 863h1v1h-1zM72 863h1v1h-1zM73 863h1v1h-1zM74 863h1v1h-1zM75 863h1v1h-1zM76 863h1v1h-1zM77 863h1v1h-1zM78 863h1v1h-1zM79 863h1v1h-1zM80 863h1v1h-1zM81 863h1v1h-1zM82 863h1v1h-1zM83 863h1v1h-1zM84 863h1v1h-1zM85 863h1v1h-1zM86 863h1v1h-1zM87 863h1v1h-1zM88 863h1v1h-1zM0 898h1v1H0zM1 898h1v1H1zM2 898h1v1H2zM3 898h1v1H3zM4 898h1v1H4zM5 898h1v1H5zM6 898h1v1H6zM7 898h1v1H7zM8 898h1v1H8zM9 898h1v1H9zM10 898h1v1h-1zM11 898h1v1h-1zM12 898h1v1h-1zM13 898h1v1h-1zM14 898h1v1h-1zM15 898h1v1h-1zM16 898h1v1h-1zM17 898h1v1h-1zM18 898h1v1h-1zM19 898h1v1h-1zM20 898h1v1h-1zM21 898h1v1h-1zM22 898h1v1h-1zM23 898h1v1h-1zM24 898h1v1h-1zM25 898h1v1h-1zM26 898h1v1h-1zM27 898h1v1h-1zM28 898h1v1h-1zM29 898h1v1h-1zM30 898h1v1h-1zM31 898h1v1h-1zM32 898h1v1h-1zM33 898h1v1h-1zM34 898h1v1h-1zM35 898h1v1h-1zM36 898h1v1h-1zM37 898h1v1h-1zM38 898h1v1h-1zM39 898h1v1h-1zM40 898h1v1h-1zM41 898h1v1h-1zM42 898h1v1h-1zM43 898h1v1h-1zM44 898h1v1h-1zM45 898h1v1h-1zM46 898h1v1h-1zM47 898h1v1h-1zM48 898h1v1h-1zM49 898h1v1h-1zM50 898h1v1h-1zM51 898h1v1h-1zM52 898h1v1h-1zM53 898h1v1h-1zM0 899h1v1H0zM1 899h1v1H1zM2 899h1v1H2zM3 899h1v1H3zM4 899h1v1H4zM5 899h1v1H5zM6 899h1v1H6zM7 899h1v1H7zM8 899h1v1H8zM9 899h1v1H9zM10 899h1v1h-1zM11 899h1v1h-1zM12 899h1v1h-1zM13 899h1v1h-1zM14 899h1v1h-1zM15 899h1v1h-1zM16 899h1v1h-1zM17 899h1v1h-1zM18 899h1v1h-1zM19 899h1v1h-1zM20 899h1v1h-1zM21 899h1v1h-1zM22 899h1v1h-1zM23 899h1v1h-1zM24 899h1v1h-1zM25 899h1v1h-1zM26 899h1v1h-1zM27 899h1v1h-1zM28 899h1v1h-1zM29 899h1v1h-1zM30 899h1v1h-1zM31 899h1v1h-1zM32 899h1v1h-1zM33 899h1v1h-1zM34 899h1v1h-1zM35 899h1v1h-1zM36 899h1v1h-1zM37 899h1v1h-1zM38 899h1v1h-1zM39 899h1v1h-1zM40 899h1v1h-1zM41 899h1v1h-1zM42 899h1v1h-1zM43 899h1v1h-1zM44 899h1v1h-1zM45 899h1v1h-1zM46 899h1v1h-1zM47 899h1v1h-1zM48 899h1v1h-1zM49 899h1v1h-1zM50 899h1v1h-1zM51 899h1v1h-1zM52 899h1v1h-1zM53 899h1v1h-1zM0 934h1v1H0zM1 934h1v1H1zM2 934h1v1H2zM3 934h1v1H3zM4 934h1v1H4zM5 934h1v1H5zM6 934h1v1H6zM7 934h1v1H7zM8 934h1v1H8zM9 934h1v1H9zM10 934h1v1h-1zM11 934h1v1h-1zM12 934h1v1h-1zM13 934h1v1h-1zM14 934h1v1h-1zM15 934h1v1h-1zM16 934h1v1h-1zM17 934h1v1h-1zM18 934h1v1h-1zM19 934h1v1h-1zM20 934h1v1h-1zM21 934h1v1h-1zM22 934h1v1h-1zM23 934h1v1h-1zM24 934h1v1h-1zM25 934h1v1h-1zM26 934h1v1h-1zM27 934h1v1h-1zM28 934h1v1h-1zM29 934h1v1h-1zM30 934h1v1h-1zM31 934h1v1h-1zM32 934h1v1h-1zM33 934h1v1h-1zM34 934h1v1h-1zM35 934h1v1h-1zM36 934h1v1h-1zM37 934h1v1h-1zM38 934h1v1h-1zM39 934h1v1h-1zM40 934h1v1h-1zM41 934h1v1h-1zM42 934h1v1h-1zM43 934h1v1h-1zM44 934h1v1h-1zM45 934h1v1h-1zM46 934h1v1h-1zM47 934h1v1h-1zM48 934h1v1h-1zM49 934h1v1h-1zM50 934h1v1h-1zM51 934h1v1h-1zM52 934h1v1h-1zM53 934h1v1h-1zM54 934h1v1h-1zM55 934h1v1h-1zM56 934h1v1h-1zM57 934h1v1h-1zM58 934h1v1h-1zM59 934h1v1h-1zM60 934h1v1h-1zM61 934h1v1h-1zM62 934h1v1h-1zM63 934h1v1h-1zM64 934h1v1h-1zM65 934h1v1h-1zM66 934h1v1h-1zM67 934h1v1h-1zM68 934h1v1h-1zM69 934h1v1h-1zM70 934h1v1h-1zM71 934h1v1h-1zM72 934h1v1h-1zM73 934h1v1h-1zM74 934h1v1h-1zM75 934h1v1h-1zM76 934h1v1h-1zM77 934h1v1h-1zM78 934h1v1h-1zM79 934h1v1h-1zM80 934h1v1h-1zM81 934h1v1h-1zM82 934h1v1h-1zM83 934h1v1h-1zM84 934h1v1h-1zM85 934h1v1h-1zM86 934h1v1h-1zM87 934h1v1h-1zM88 934h1v1h-1zM0 935h1v1H0zM1 935h1v1H1zM2 935h1v1H2zM3 935h1v1H3zM4 935h1v1H4zM5 935h1v1H5zM6 935h1v1H6zM7 935h1v1H7zM8 935h1v1H8zM9 935h1v1H9zM10 935h1v1h-1zM11 935h1v1h-1zM12 935h1v1h-1zM13 935h1v1h-1zM14 935h1v1h-1zM15 935h1v1h-1zM16 935h1v1h-1zM17 935h1v1h-1zM18 935h1v1h-1zM19 935h1v1h-1zM20 935h1v1h-1zM21 935h1v1h-1zM22 935h1v1h-1zM23 935h1v1h-1zM24 935h1v1h-1zM25 935h1v1h-1zM26 935h1v1h-1zM27 935h1v1h-1zM28 935h1v1h-1zM29 935h1v1h-1zM30 935h1v1h-1zM31 935h1v1h-1zM32 935h1v1h-1zM33 935h1v1h-1zM34 935h1v1h-1zM35 935h1v1h-1zM36 935h1v1h-1zM37 935h1v1h-1zM38 935h1v1h-1zM39 935h1v1h-1zM40 935h1v1h-1zM41 935h1v1h-1zM42 935h1v1h-1zM43 935h1v1h-1zM44 935h1v1h-1zM45 935h1v1h-1zM46 935h1v1h-1zM47 935h1v1h-1zM48 935h1v1h-1zM49 935h1v1h-1zM50 935h1v1h-1zM51 935h1v1h-1zM52 935h1v1h-1zM53 935h1v1h-1zM54 935h1v1h-1zM55 935h1v1h-1zM56 935h1v1h-1zM57 935h1v1h-1zM58 935h1v1h-1zM59 935h1v1h-1zM60 935h1v1h-1zM61 935h1v1h-1zM62 935h1v1h-1zM63 935h1v1h-1zM64 935h1v1h-1zM65 935h1v1h-1zM66 935h1v1h-1zM67 935h1v1h-1zM68 935h1v1h-1zM69 935h1v1h-1zM70 935h1v1h-1zM71 935h1v1h-1zM72 935h1v1h-1zM73 935h1v1h-1zM74 935h1v1h-1zM75 935h1v1h-1zM76 935h1v1h-1zM77 935h1v1h-1zM78 935h1v1h-1zM79 935h1v1h-1zM80 935h1v1h-1zM81 935h1v1h-1zM82 935h1v1h-1zM83 935h1v1h-1zM84 935h1v1h-1zM85 935h1v1h-1zM86 935h1v1h-1zM87 935h1v1h-1zM88 935h1v1h-1zM0 970h1v1H0zM1 970h1v1H1zM2 970h1v1H2zM3 970h1v1H3zM4 970h1v1H4zM5 970h1v1H5zM6 970h1v1H6zM7 970h1v1H7zM8 970h1v1H8zM9 970h1v1H9zM10 970h1v1h-1zM11 970h1v1h-1zM12 970h1v1h-1zM13 970h1v1h-1zM14 970h1v1h-1zM15 970h1v1h-1zM16 970h1v1h-1zM17 970h1v1h-1zM18 970h1v1h-1zM19 970h1v1h-1zM20 970h1v1h-1zM21 970h1v1h-1zM22 970h1v1h-1zM23 970h1v1h-1zM24 970h1v1h-1zM25 970h1v1h-1zM26 970h1v1h-1zM27 970h1v1h-1zM28 970h1v1h-1zM29 970h1v1h-1zM30 970h1v1h-1zM31 970h1v1h-1zM32 970h1v1h-1zM33 970h1v1h-1zM34 970h1v1h-1zM35 970h1v1h-1zM36 970h1v1h-1zM37 970h1v1h-1zM38 970h1v1h-1zM39 970h1v1h-1zM40 970h1v1h-1zM41 970h1v1h-1zM42 970h1v1h-1zM43 970h1v1h-1zM44 970h1v1h-1zM45 970h1v1h-1zM46 970h1v1h-1zM47 970h1v1h-1zM48 970h1v1h-1zM49 970h1v1h-1zM50 970h1v1h-1zM51 970h1v1h-1zM52 970h1v1h-1zM53 970h1v1h-1zM0 971h1v1H0zM1 971h1v1H1zM2 971h1v1H2zM3 971h1v1H3zM4 971h1v1H4zM5 971h1v1H5zM6 971h1v1H6zM7 971h1v1H7zM8 971h1v1H8zM9 971h1v1H9zM10 971h1v1h-1zM11 971h1v1h-1zM12 971h1v1h-1zM13 971h1v1h-1zM14 971h1v1h-1zM15 971h1v1h-1zM16 971h1v1h-1zM17 971h1v1h-1zM18 971h1v1h-1zM19 971h1v1h-1zM20 971h1v1h-1zM21 971h1v1h-1zM22 971h1v1h-1zM23 971h1v1h-1zM24 971h1v1h-1zM25 971h1v1h-1zM26 971h1v1h-1zM27 971h1v1h-1zM28 971h1v1h-1zM29 971h1v1h-1zM30 971h1v1h-1zM31 971h1v1h-1zM32 971h1v1h-1zM33 971h1v1h-1zM34 971h1v1h-1zM35 971h1v1h-1zM36 971h1v1h-1zM37 971h1v1h-1zM38 971h1v1h-1zM39 971h1v1h-1zM40 971h1v1h-1zM41 971h1v1h-1zM42 971h1v1h-1zM43 971h1v1h-1zM44 971h1v1h-1zM45 971h1v1h-1zM46 971h1v1h-1zM47 971h1v1h-1zM48 971h1v1h-1zM49 971h1v1h-1zM50 971h1v1h-1zM51 971h1v1h-1zM52 971h1v1h-1zM53 971h1v1h-1zM0 1006h1v1H0zM1 1006h1v1H1zM2 1006h1v1H2zM3 1006h1v1H3zM4 1006h1v1H4zM5 1006h1v1H5zM6 1006h1v1H6zM7 1006h1v1H7zM8 1006h1v1H8zM9 1006h1v1H9zM10 1006h1v1h-1zM11 1006h1v1h-1zM12 1006h1v1h-1zM13 1006h1v1h-1zM14 1006h1v1h-1zM15 1006h1v1h-1zM16 1006h1v1h-1zM17 1006h1v1h-1zM18 1006h1v1h-1zM19 1006h1v1h-1zM20 1006h1v1h-1zM21 1006h1v1h-1zM22 1006h1v1h-1zM23 1006h1v1h-1zM24 1006h1v1h-1zM25 1006h1v1h-1zM26 1006h1v1h-1zM27 1006h1v1h-1zM28 1006h1v1h-1zM29 1006h1v1h-1zM30 1006h1v1h-1zM31 1006h1v1h-1zM32 1006h1v1h-1zM33 1006h1v1h-1zM34 1006h1v1h-1zM35 1006h1v1h-1zM36 1006h1v1h-1zM37 1006h1v1h-1zM38 1006h1v1h-1zM39 1006h1v1h-1zM40 1006h1v1h-1zM41 1006h1v1h-1zM42 1006h1v1h-1zM43 1006h1v1h-1zM44 1006h1v1h-1zM45 1006h1v1h-1zM46 1006h1v1h-1zM47 1006h1v1h-1zM48 1006h1v1h-1zM49 1006h1v1h-1zM50 1006h1v1h-1zM51 1006h1v1h-1zM52 1006h1v1h-1zM53 1006h1v1h-1zM54 1006h1v1h-1zM55 1006h1v1h-1zM56 1006h1v1h-1zM57 1006h1v1h-1zM58 1006h1v1h-1zM59 1006h1v1h-1zM60 1006h1v1h-1zM61 1006h1v1h-1zM62 1006h1v1h-1zM63 1006h1v1h-1zM64 1006h1v1h-1zM65 1006h1v1h-1zM66 1006h1v1h-1zM67 1006h1v1h-1zM68 1006h1v1h-1zM69 1006h1v1h-1zM70 1006h1v1h-1zM71 1006h1v1h-1zM72 1006h1v1h-1zM73 1006h1v1h-1zM74 1006h1v1h-1zM75 1006h1v1h-1zM76 1006h1v1h-1zM77 1006h1v1h-1zM78 1006h1v1h-1zM79 1006h1v1h-1zM80 1006h1v1h-1zM81 1006h1v1h-1zM82 1006h1v1h-1zM83 1006h1v1h-1zM84 1006h1v1h-1zM85 1006h1v1h-1zM86 1006h1v1h-1zM87 1006h1v1h-1zM88 1006h1v1h-1zM0 1007h1v1H0zM1 1007h1v1H1zM2 1007h1v1H2zM3 1007h1v1H3zM4 1007h1v1H4zM5 1007h1v1H5zM6 1007h1v1H6zM7 1007h1v1H7zM8 1007h1v1H8zM9 1007h1v1H9zM10 1007h1v1h-1zM11 1007h1v1h-1zM12 1007h1v1h-1zM13 1007h1v1h-1zM14 1007h1v1h-1zM15 1007h1v1h-1zM16 1007h1v1h-1zM17 1007h1v1h-1zM18 1007h1v1h-1zM19 1007h1v1h-1zM20 1007h1v1h-1zM21 1007h1v1h-1zM22 1007h1v1h-1zM23 1007h1v1h-1zM24 1007h1v1h-1zM25 1007h1v1h-1zM26 1007h1v1h-1zM27 1007h1v1h-1zM28 1007h1v1h-1zM29 1007h1v1h-1zM30 1007h1v1h-1zM31 1007h1v1h-1zM32 1007h1v1h-1zM33 1007h1v1h-1zM34 1007h1v1h-1zM35 1007h1v1h-1zM36 1007h1v1h-1zM37 1007h1v1h-1zM38 1007h1v1h-1zM39 1007h1v1h-1zM40 1007h1v1h-1zM41 1007h1v1h-1zM42 1007h1v1h-1zM43 1007h1v1h-1zM44 1007h1v1h-1zM45 1007h1v1h-1zM46 1007h1v1h-1zM47 1007h1v1h-1zM48 1007h1v1h-1zM49 1007h1v1h-1zM50 1007h1v1h-1zM51 1007h1v1h-1zM52 1007h1v1h-1zM53 1007h1v1h-1zM54 1007h1v1h-1zM55 1007h1v1h-1zM56 1007h1v1h-1zM57 1007h1v1h-1zM58 1007h1v1h-1zM59 1007h1v1h-1zM60 1007h1v1h-1zM61 1007h1v1h-1zM62 1007h1v1h-1zM63 1007h1v1h-1zM64 1007h1v1h-1zM65 1007h1v1h-1zM66 1007h1v1h-1zM67 1007h1v1h-1zM68 1007h1v1h-1zM69 1007h1v1h-1zM70 1007h1v1h-1zM71 1007h1v1h-1zM72 1007h1v1h-1zM73 1007h1v1h-1zM74 1007h1v1h-1zM75 1007h1v1h-1zM76 1007h1v1h-1zM77 1007h1v1h-1zM78 1007h1v1h-1zM79 1007h1v1h-1zM80 1007h1v1h-1zM81 1007h1v1h-1zM82 1007h1v1h-1zM83 1007h1v1h-1zM84 1007h1v1h-1zM85 1007h1v1h-1zM86 1007h1v1h-1zM87 1007h1v1h-1zM88 1007h1v1h-1zM0 1042h1v1H0zM1 1042h1v1H1zM2 1042h1v1H2zM3 1042h1v1H3zM4 1042h1v1H4zM5 1042h1v1H5zM6 1042h1v1H6zM7 1042h1v1H7zM8 1042h1v1H8zM9 1042h1v1H9zM10 1042h1v1h-1zM11 1042h1v1h-1zM12 1042h1v1h-1zM13 1042h1v1h-1zM14 1042h1v1h-1zM15 1042h1v1h-1zM16 1042h1v1h-1zM17 1042h1v1h-1zM18 1042h1v1h-1zM19 1042h1v1h-1zM20 1042h1v1h-1zM21 1042h1v1h-1zM22 1042h1v1h-1zM23 1042h1v1h-1zM24 1042h1v1h-1zM25 1042h1v1h-1zM26 1042h1v1h-1zM27 1042h1v1h-1zM28 1042h1v1h-1zM29 1042h1v1h-1zM30 1042h1v1h-1zM31 1042h1v1h-1zM32 1042h1v1h-1zM33 1042h1v1h-1zM34 1042h1v1h-1zM35 1042h1v1h-1zM36 1042h1v1h-1zM37 1042h1v1h-1zM38 1042h1v1h-1zM39 1042h1v1h-1zM40 1042h1v1h-1zM41 1042h1v1h-1zM42 1042h1v1h-1zM43 1042h1v1h-1zM44 1042h1v1h-1zM45 1042h1v1h-1zM46 1042h1v1h-1zM47 1042h1v1h-1zM48 1042h1v1h-1zM49 1042h1v1h-1zM50 1042h1v1h-1zM51 1042h1v1h-1zM52 1042h1v1h-1zM53 1042h1v1h-1zM0 1043h1v1H0zM1 1043h1v1H1zM2 1043h1v1H2zM3 1043h1v1H3zM4 1043h1v1H4zM5 1043h1v1H5zM6 1043h1v1H6zM7 1043h1v1H7zM8 1043h1v1H8zM9 1043h1v1H9zM10 1043h1v1h-1zM11 1043h1v1h-1zM12 1043h1v1h-1zM13 1043h1v1h-1zM14 1043h1v1h-1zM15 1043h1v1h-1zM16 1043h1v1h-1zM17 1043h1v1h-1zM18 1043h1v1h-1zM19 1043h1v1h-1zM20 1043h1v1h-1zM21 1043h1v1h-1zM22 1043h1v1h-1zM23 1043h1v1h-1zM24 1043h1v1h-1zM25 1043h1v1h-1zM26 1043h1v1h-1zM27 1043h1v1h-1zM28 1043h1v1h-1zM29 1043h1v1h-1zM30 1043h1v1h-1zM31 1043h1v1h-1zM32 1043h1v1h-1zM33 1043h1v1h-1zM34 1043h1v1h-1zM35 1043h1v1h-1zM36 1043h1v1h-1zM37 1043h1v1h-1zM38 1043h1v1h-1zM39 1043h1v1h-1zM40 1043h1v1h-1zM41 1043h1v1h-1zM42 1043h1v1h-1zM43 1043h1v1h-1zM44 1043h1v1h-1zM45 1043h1v1h-1zM46 1043h1v1h-1zM47 1043h1v1h-1zM48 1043h1v1h-1zM49 1043h1v1h-1zM50 1043h1v1h-1zM51 1043h1v1h-1zM52 1043h1v1h-1zM53 1043h1v1h-1zM0 1078h1v1H0zM1 1078h1v1H1zM2 1078h1v1H2zM3 1078h1v1H3zM4 1078h1v1H4zM5 1078h1v1H5zM6 1078h1v1H6zM7 1078h1v1H7zM8 1078h1v1H8zM9 1078h1v1H9zM10 1078h1v1h-1zM11 1078h1v1h-1zM12 1078h1v1h-1zM13 1078h1v1h-1zM14 1078h1v1h-1zM15 1078h1v1h-1zM16 1078h1v1h-1zM17 1078h1v1h-1zM18 1078h1v1h-1zM19 1078h1v1h-1zM20 1078h1v1h-1zM21 1078h1v1h-1zM22 1078h1v1h-1zM23 1078h1v1h-1zM24 1078h1v1h-1zM25 1078h1v1h-1zM26 1078h1v1h-1zM27 1078h1v1h-1zM28 1078h1v1h-1zM29 1078h1v1h-1zM30 1078h1v1h-1zM31 1078h1v1h-1zM32 1078h1v1h-1zM33 1078h1v1h-1zM34 1078h1v1h-1zM35 1078h1v1h-1zM36 1078h1v1h-1zM37 1078h1v1h-1zM38 1078h1v1h-1zM39 1078h1v1h-1zM40 1078h1v1h-1zM41 1078h1v1h-1zM42 1078h1v1h-1zM43 1078h1v1h-1zM44 1078h1v1h-1zM45 1078h1v1h-1zM46 1078h1v1h-1zM47 1078h1v1h-1zM48 1078h1v1h-1zM49 1078h1v1h-1zM50 1078h1v1h-1zM51 1078h1v1h-1zM52 1078h1v1h-1zM53 1078h1v1h-1zM54 1078h1v1h-1zM55 1078h1v1h-1zM56 1078h1v1h-1zM57 1078h1v1h-1zM58 1078h1v1h-1zM59 1078h1v1h-1zM60 1078h1v1h-1zM61 1078h1v1h-1zM62 1078h1v1h-1zM63 1078h1v1h-1zM64 1078h1v1h-1zM65 1078h1v1h-1zM66 1078h1v1h-1zM67 1078h1v1h-1zM68 1078h1v1h-1zM69 1078h1v1h-1zM70 1078h1v1h-1zM71 1078h1v1h-1zM72 1078h1v1h-1zM73 1078h1v1h-1zM74 1078h1v1h-1zM75 1078h1v1h-1zM76 1078h1v1h-1zM77 1078h1v1h-1zM78 1078h1v1h-1zM79 1078h1v1h-1zM80 1078h1v1h-1zM81 1078h1v1h-1zM82 1078h1v1h-1zM83 1078h1v1h-1zM84 1078h1v1h-1zM85 1078h1v1h-1zM86 1078h1v1h-1zM87 1078h1v1h-1zM88 1078h1v1h-1zM0 1079h1v1H0zM1 1079h1v1H1zM2 1079h1v1H2zM3 1079h1v1H3zM4 1079h1v1H4zM5 1079h1v1H5zM6 1079h1v1H6zM7 1079h1v1H7zM8 1079h1v1H8zM9 1079h1v1H9zM10 1079h1v1h-1zM11 1079h1v1h-1zM12 1079h1v1h-1zM13 1079h1v1h-1zM14 1079h1v1h-1zM15 1079h1v1h-1zM16 1079h1v1h-1zM17 1079h1v1h-1zM18 1079h1v1h-1zM19 1079h1v1h-1zM20 1079h1v1h-1zM21 1079h1v1h-1zM22 1079h1v1h-1zM23 1079h1v1h-1zM24 1079h1v1h-1zM25 1079h1v1h-1zM26 1079h1v1h-1zM27 1079h1v1h-1zM28 1079h1v1h-1zM29 1079h1v1h-1zM30 1079h1v1h-1zM31 1079h1v1h-1zM32 1079h1v1h-1zM33 1079h1v1h-1zM34 1079h1v1h-1zM35 1079h1v1h-1zM36 1079h1v1h-1zM37 1079h1v1h-1zM38 1079h1v1h-1zM39 1079h1v1h-1zM40 1079h1v1h-1zM41 1079h1v1h-1zM42 1079h1v1h-1zM43 1079h1v1h-1zM44 1079h1v1h-1zM45 1079h1v1h-1zM46 1079h1v1h-1zM47 1079h1v1h-1zM48 1079h1v1h-1zM49 1079h1v1h-1zM50 1079h1v1h-1zM51 1079h1v1h-1zM52 1079h1v1h-1zM53 1079h1v1h-1zM54 1079h1v1h-1zM55 1079h1v1h-1zM56 1079h1v1h-1zM57 1079h1v1h-1zM58 1079h1v1h-1zM59 1079h1v1h-1zM60 1079h1v1h-1zM61 1079h1v1h-1zM62 1079h1v1h-1zM63 1079h1v1h-1zM64 1079h1v1h-1zM65 1079h1v1h-1zM66 1079h1v1h-1zM67 1079h1v1h-1zM68 1079h1v1h-1zM69 1079h1v1h-1zM70 1079h1v1h-1zM71 1079h1v1h-1zM72 1079h1v1h-1zM73 1079h1v1h-1zM74 1079h1v1h-1zM75 1079h1v1h-1zM76 1079h1v1h-1zM77 1079h1v1h-1zM78 1079h1v1h-1zM79 1079h1v1h-1zM80 1079h1v1h-1zM81 1079h1v1h-1zM82 1079h1v1h-1zM83 1079h1v1h-1zM84 1079h1v1h-1zM85 1079h1v1h-1zM86 1079h1v1h-1zM87 1079h1v1h-1zM88 1079h1v1h-1zM0 1114h1v1H0zM1 1114h1v1H1zM2 1114h1v1H2zM3 1114h1v1H3zM4 1114h1v1H4zM5 1114h1v1H5zM6 1114h1v1H6zM7 1114h1v1H7zM8 1114h1v1H8zM9 1114h1v1H9zM10 1114h1v1h-1zM11 1114h1v1h-1zM12 1114h1v1h-1zM13 1114h1v1h-1zM14 1114h1v1h-1zM15 1114h1v1h-1zM16 1114h1v1h-1zM17 1114h1v1h-1zM18 1114h1v1h-1zM19 1114h1v1h-1zM20 1114h1v1h-1zM21 1114h1v1h-1zM22 1114h1v1h-1zM23 1114h1v1h-1zM24 1114h1v1h-1zM25 1114h1v1h-1zM26 1114h1v1h-1zM27 1114h1v1h-1zM28 1114h1v1h-1zM29 1114h1v1h-1zM30 1114h1v1h-1zM31 1114h1v1h-1zM32 1114h1v1h-1zM33 1114h1v1h-1zM34 1114h1v1h-1zM35 1114h1v1h-1zM36 1114h1v1h-1zM37 1114h1v1h-1zM38 1114h1v1h-1zM39 1114h1v1h-1zM40 1114h1v1h-1zM41 1114h1v1h-1zM42 1114h1v1h-1zM43 1114h1v1h-1zM44 1114h1v1h-1zM45 1114h1v1h-1zM46 1114h1v1h-1zM47 1114h1v1h-1zM48 1114h1v1h-1zM49 1114h1v1h-1zM50 1114h1v1h-1zM51 1114h1v1h-1zM52 1114h1v1h-1zM53 1114h1v1h-1zM0 1115h1v1H0zM1 1115h1v1H1zM2 1115h1v1H2zM3 1115h1v1H3zM4 1115h1v1H4zM5 1115h1v1H5zM6 1115h1v1H6zM7 1115h1v1H7zM8 1115h1v1H8zM9 1115h1v1H9zM10 1115h1v1h-1zM11 1115h1v1h-1zM12 1115h1v1h-1zM13 1115h1v1h-1zM14 1115h1v1h-1zM15 1115h1v1h-1zM16 1115h1v1h-1zM17 1115h1v1h-1zM18 1115h1v1h-1zM19 1115h1v1h-1zM20 1115h1v1h-1zM21 1115h1v1h-1zM22 1115h1v1h-1zM23 1115h1v1h-1zM24 1115h1v1h-1zM25 1115h1v1h-1zM26 1115h1v1h-1zM27 1115h1v1h-1zM28 1115h1v1h-1zM29 1115h1v1h-1zM30 1115h1v1h-1zM31 1115h1v1h-1zM32 1115h1v1h-1zM33 1115h1v1h-1zM34 1115h1v1h-1zM35 1115h1v1h-1zM36 1115h1v1h-1zM37 1115h1v1h-1zM38 1115h1v1h-1zM39 1115h1v1h-1zM40 1115h1v1h-1zM41 1115h1v1h-1zM42 1115h1v1h-1zM43 1115h1v1h-1zM44 1115h1v1h-1zM45 1115h1v1h-1zM46 1115h1v1h-1zM47 1115h1v1h-1zM48 1115h1v1h-1zM49 1115h1v1h-1zM50 1115h1v1h-1zM51 1115h1v1h-1zM52 1115h1v1h-1zM53 1115h1v1h-1zM0 1150h1v1H0zM1 1150h1v1H1zM2 1150h1v1H2zM3 1150h1v1H3zM4 1150h1v1H4zM5 1150h1v1H5zM6 1150h1v1H6zM7 1150h1v1H7zM8 1150h1v1H8zM9 1150h1v1H9zM10 1150h1v1h-1zM11 1150h1v1h-1zM12 1150h1v1h-1zM13 1150h1v1h-1zM14 1150h1v1h-1zM15 1150h1v1h-1zM16 1150h1v1h-1zM17 1150h1v1h-1zM18 1150h1v1h-1zM19 1150h1v1h-1zM20 1150h1v1h-1zM21 1150h1v1h-1zM22 1150h1v1h-1zM23 1150h1v1h-1zM24 1150h1v1h-1zM25 1150h1v1h-1zM26 1150h1v1h-1zM27 1150h1v1h-1zM28 1150h1v1h-1zM29 1150h1v1h-1zM30 1150h1v1h-1zM31 1150h1v1h-1zM32 1150h1v1h-1zM33 1150h1v1h-1zM34 1150h1v1h-1zM35 1150h1v1h-1zM36 1150h1v1h-1zM37 1150h1v1h-1zM38 1150h1v1h-1zM39 1150h1v1h-1zM40 1150h1v1h-1zM41 1150h1v1h-1zM42 1150h1v1h-1zM43 1150h1v1h-1zM44 1150h1v1h-1zM45 1150h1v1h-1zM46 1150h1v1h-1zM47 1150h1v1h-1zM48 1150h1v1h-1zM49 1150h1v1h-1zM50 1150h1v1h-1zM51 1150h1v1h-1zM52 1150h1v1h-1zM53 1150h1v1h-1zM54 1150h1v1h-1zM55 1150h1v1h-1zM56 1150h1v1h-1zM57 1150h1v1h-1zM58 1150h1v1h-1zM59 1150h1v1h-1zM60 1150h1v1h-1zM61 1150h1v1h-1zM62 1150h1v1h-1zM63 1150h1v1h-1zM64 1150h1v1h-1zM65 1150h1v1h-1zM66 1150h1v1h-1zM67 1150h1v1h-1zM68 1150h1v1h-1zM69 1150h1v1h-1zM70 1150h1v1h-1zM71 1150h1v1h-1zM72 1150h1v1h-1zM73 1150h1v1h-1zM74 1150h1v1h-1zM75 1150h1v1h-1zM76 1150h1v1h-1zM77 1150h1v1h-1zM78 1150h1v1h-1zM79 1150h1v1h-1zM80 1150h1v1h-1zM81 1150h1v1h-1zM82 1150h1v1h-1zM83 1150h1v1h-1zM84 1150h1v1h-1zM85 1150h1v1h-1zM86 1150h1v1h-1zM87 1150h1v1h-1zM88 1150h1v1h-1zM0 1151h1v1H0zM1 1151h1v1H1zM2 1151h1v1H2zM3 1151h1v1H3zM4 1151h1v1H4zM5 1151h1v1H5zM6 1151h1v1H6zM7 1151h1v1H7zM8 1151h1v1H8zM9 1151h1v1H9zM10 1151h1v1h-1zM11 1151h1v1h-1zM12 1151h1v1h-1zM13 1151h1v1h-1zM14 1151h1v1h-1zM15 1151h1v1h-1zM16 1151h1v1h-1zM17 1151h1v1h-1zM18 1151h1v1h-1zM19 1151h1v1h-1zM20 1151h1v1h-1zM21 1151h1v1h-1zM22 1151h1v1h-1zM23 1151h1v1h-1zM24 1151h1v1h-1zM25 1151h1v1h-1zM26 1151h1v1h-1zM27 1151h1v1h-1zM28 1151h1v1h-1zM29 1151h1v1h-1zM30 1151h1v1h-1zM31 1151h1v1h-1zM32 1151h1v1h-1zM33 1151h1v1h-1zM34 1151h1v1h-1zM35 1151h1v1h-1zM36 1151h1v1h-1zM37 1151h1v1h-1zM38 1151h1v1h-1zM39 1151h1v1h-1zM40 1151h1v1h-1zM41 1151h1v1h-1zM42 1151h1v1h-1zM43 1151h1v1h-1zM44 1151h1v1h-1zM45 1151h1v1h-1zM46 1151h1v1h-1zM47 1151h1v1h-1zM48 1151h1v1h-1zM49 1151h1v1h-1zM50 1151h1v1h-1zM51 1151h1v1h-1zM52 1151h1v1h-1zM53 1151h1v1h-1zM54 1151h1v1h-1zM55 1151h1v1h-1zM56 1151h1v1h-1zM57 1151h1v1h-1zM58 1151h1v1h-1zM59 1151h1v1h-1zM60 1151h1v1h-1zM61 1151h1v1h-1zM62 1151h1v1h-1zM63 1151h1v1h-1zM64 1151h1v1h-1zM65 1151h1v1h-1zM66 1151h1v1h-1zM67 1151h1v1h-1zM68 1151h1v1h-1zM69 1151h1v1h-1zM70 1151h1v1h-1zM71 1151h1v1h-1zM72 1151h1v1h-1zM73 1151h1v1h-1zM74 1151h1v1h-1zM75 1151h1v1h-1zM76 1151h1v1h-1zM77 1151h1v1h-1zM78 1151h1v1h-1zM79 1151h1v1h-1zM80 1151h1v1h-1zM81 1151h1v1h-1zM82 1151h1v1h-1zM83 1151h1v1h-1zM84 1151h1v1h-1zM85 1151h1v1h-1zM86 1151h1v1h-1zM87 1151h1v1h-1zM88 1151h1v1h-1zM0 1186h1v1H0zM1 1186h1v1H1zM2 1186h1v1H2zM3 1186h1v1H3zM4 1186h1v1H4zM5 1186h1v1H5zM6 1186h1v1H6zM7 1186h1v1H7zM8 1186h1v1H8zM9 1186h1v1H9zM10 1186h1v1h-1zM11 1186h1v1h-1zM12 1186h1v1h-1zM13 1186h1v1h-1zM14 1186h1v1h-1zM15 1186h1v1h-1zM16 1186h1v1h-1zM17 1186h1v1h-1zM18 1186h1v1h-1zM19 1186h1v1h-1zM20 1186h1v1h-1zM21 1186h1v1h-1zM22 1186h1v1h-1zM23 1186h1v1h-1zM24 1186h1v1h-1zM25 1186h1v1h-1zM26 1186h1v1h-1zM27 1186h1v1h-1zM28 1186h1v1h-1zM29 1186h1v1h-1zM30 1186h1v1h-1zM31 1186h1v1h-1zM32 1186h1v1h-1zM33 1186h1v1h-1zM34 1186h1v1h-1zM35 1186h1v1h-1zM36 1186h1v1h-1zM37 1186h1v1h-1zM38 1186h1v1h-1zM39 1186h1v1h-1zM40 1186h1v1h-1zM41 1186h1v1h-1zM42 1186h1v1h-1zM43 1186h1v1h-1zM44 1186h1v1h-1zM45 1186h1v1h-1zM46 1186h1v1h-1zM47 1186h1v1h-1zM48 1186h1v1h-1zM49 1186h1v1h-1zM50 1186h1v1h-1zM51 1186h1v1h-1zM52 1186h1v1h-1zM53 1186h1v1h-1zM0 1187h1v1H0zM1 1187h1v1H1zM2 1187h1v1H2zM3 1187h1v1H3zM4 1187h1v1H4zM5 1187h1v1H5zM6 1187h1v1H6zM7 1187h1v1H7zM8 1187h1v1H8zM9 1187h1v1H9zM10 1187h1v1h-1zM11 1187h1v1h-1zM12 1187h1v1h-1zM13 1187h1v1h-1zM14 1187h1v1h-1zM15 1187h1v1h-1zM16 1187h1v1h-1zM17 1187h1v1h-1zM18 1187h1v1h-1zM19 1187h1v1h-1zM20 1187h1v1h-1zM21 1187h1v1h-1zM22 1187h1v1h-1zM23 1187h1v1h-1zM24 1187h1v1h-1zM25 1187h1v1h-1zM26 1187h1v1h-1zM27 1187h1v1h-1zM28 1187h1v1h-1zM29 1187h1v1h-1zM30 1187h1v1h-1zM31 1187h1v1h-1zM32 1187h1v1h-1zM33 1187h1v1h-1zM34 1187h1v1h-1zM35 1187h1v1h-1zM36 1187h1v1h-1zM37 1187h1v1h-1zM38 1187h1v1h-1zM39 1187h1v1h-1zM40 1187h1v1h-1zM41 1187h1v1h-1zM42 1187h1v1h-1zM43 1187h1v1h-1zM44 1187h1v1h-1zM45 1187h1v1h-1zM46 1187h1v1h-1zM47 1187h1v1h-1zM48 1187h1v1h-1zM49 1187h1v1h-1zM50 1187h1v1h-1zM51 1187h1v1h-1zM52 1187h1v1h-1zM53 1187h1v1h-1zM0 1222h1v1H0zM1 1222h1v1H1zM2 1222h1v1H2zM3 1222h1v1H3zM4 1222h1v1H4zM5 1222h1v1H5zM6 1222h1v1H6zM7 1222h1v1H7zM8 1222h1v1H8zM9 1222h1v1H9zM10 1222h1v1h-1zM11 1222h1v1h-1zM12 1222h1v1h-1zM13 1222h1v1h-1zM14 1222h1v1h-1zM15 1222h1v1h-1zM16 1222h1v1h-1zM17 1222h1v1h-1zM18 1222h1v1h-1zM19 1222h1v1h-1zM20 1222h1v1h-1zM21 1222h1v1h-1zM22 1222h1v1h-1zM23 1222h1v1h-1zM24 1222h1v1h-1zM25 1222h1v1h-1zM26 1222h1v1h-1zM27 1222h1v1h-1zM28 1222h1v1h-1zM29 1222h1v1h-1zM30 1222h1v1h-1zM31 1222h1v1h-1zM32 1222h1v1h-1zM33 1222h1v1h-1zM34 1222h1v1h-1zM35 1222h1v1h-1zM36 1222h1v1h-1zM37 1222h1v1h-1zM38 1222h1v1h-1zM39 1222h1v1h-1zM40 1222h1v1h-1zM41 1222h1v1h-1zM42 1222h1v1h-1zM43 1222h1v1h-1zM44 1222h1v1h-1zM45 1222h1v1h-1zM46 1222h1v1h-1zM47 1222h1v1h-1zM48 1222h1v1h-1zM49 1222h1v1h-1zM50 1222h1v1h-1zM51 1222h1v1h-1zM52 1222h1v1h-1zM53 1222h1v1h-1zM54 1222h1v1h-1zM55 1222h1v1h-1zM56 1222h1v1h-1zM57 1222h1v1h-1zM58 1222h1v1h-1zM59 1222h1v1h-1zM60 1222h1v1h-1zM61 1222h1v1h-1zM62 1222h1v1h-1zM63 1222h1v1h-1zM64 1222h1v1h-1zM65 1222h1v1h-1zM66 1222h1v1h-1zM67 1222h1v1h-1zM68 1222h1v1h-1zM69 1222h1v1h-1zM70 1222h1v1h-1zM71 1222h1v1h-1zM72 1222h1v1h-1zM73 1222h1v1h-1zM74 1222h1v1h-1zM75 1222h1v1h-1zM76 1222h1v1h-1zM77 1222h1v1h-1zM78 1222h1v1h-1zM79 1222h1v1h-1zM80 1222h1v1h-1zM81 1222h1v1h-1zM82 1222h1v1h-1zM83 1222h1v1h-1zM84 1222h1v1h-1zM85 1222h1v1h-1zM86 1222h1v1h-1zM87 1222h1v1h-1zM88 1222h1v1h-1zM0 1223h1v1H0zM1 1223h1v1H1zM2 1223h1v1H2zM3 1223h1v1H3zM4 1223h1v1H4zM5 1223h1v1H5zM6 1223h1v1H6zM7 1223h1v1H7zM8 1223h1v1H8zM9 1223h1v1H9zM10 1223h1v1h-1zM11 1223h1v1h-1zM12 1223h1v1h-1zM13 1223h1v1h-1zM14 1223h1v1h-1zM15 1223h1v1h-1zM16 1223h1v1h-1zM17 1223h1v1h-1zM18 1223h1v1h-1zM19 1223h1v1h-1zM20 1223h1v1h-1zM21 1223h1v1h-1zM22 1223h1v1h-1zM23 1223h1v1h-1zM24 1223h1v1h-1zM25 1223h1v1h-1zM26 1223h1v1h-1zM27 1223h1v1h-1zM28 1223h1v1h-1zM29 1223h1v1h-1zM30 1223h1v1h-1zM31 1223h1v1h-1zM32 1223h1v1h-1zM33 1223h1v1h-1zM34 1223h1v1h-1zM35 1223h1v1h-1zM36 1223h1v1h-1zM37 1223h1v1h-1zM38 1223h1v1h-1zM39 1223h1v1h-1zM40 1223h1v1h-1zM41 1223h1v1h-1zM42 1223h1v1h-1zM43 1223h1v1h-1zM44 1223h1v1h-1zM45 1223h1v1h-1zM46 1223h1v1h-1zM47 1223h1v1h-1zM48 1223h1v1h-1zM49 1223h1v1h-1zM50 1223h1v1h-1zM51 1223h1v1h-1zM52 1223h1v1h-1zM53 1223h1v1h-1zM54 1223h1v1h-1zM55 1223h1v1h-1zM56 1223h1v1h-1zM57 1223h1v1h-1zM58 1223h1v1h-1zM59 1223h1v1h-1zM60 1223h1v1h-1zM61 1223h1v1h-1zM62 1223h1v1h-1zM63 1223h1v1h-1zM64 1223h1v1h-1zM65 1223h1v1h-1zM66 1223h1v1h-1zM67 1223h1v1h-1zM68 1223h1v1h-1zM69 1223h1v1h-1zM70 1223h1v1h-1zM71 1223h1v1h-1zM72 1223h1v1h-1zM73 1223h1v1h-1zM74 1223h1v1h-1zM75 1223h1v1h-1zM76 1223h1v1h-1zM77 1223h1v1h-1zM78 1223h1v1h-1zM79 1223h1v1h-1zM80 1223h1v1h-1zM81 1223h1v1h-1zM82 1223h1v1h-1zM83 1223h1v1h-1zM84 1223h1v1h-1zM85 1223h1v1h-1zM86 1223h1v1h-1zM87 1223h1v1h-1zM88 1223h1v1h-1zM0 1258h1v1H0zM1 1258h1v1H1zM2 1258h1v1H2zM3 1258h1v1H3zM4 1258h1v1H4zM5 1258h1v1H5zM6 1258h1v1H6zM7 1258h1v1H7zM8 1258h1v1H8zM9 1258h1v1H9zM10 1258h1v1h-1zM11 1258h1v1h-1zM12 1258h1v1h-1zM13 1258h1v1h-1zM14 1258h1v1h-1zM15 1258h1v1h-1zM16 1258h1v1h-1zM17 1258h1v1h-1zM18 1258h1v1h-1zM19 1258h1v1h-1zM20 1258h1v1h-1zM21 1258h1v1h-1zM22 1258h1v1h-1zM23 1258h1v1h-1zM24 1258h1v1h-1zM25 1258h1v1h-1zM26 1258h1v1h-1zM27 1258h1v1h-1zM28 1258h1v1h-1zM29 1258h1v1h-1zM30 1258h1v1h-1zM31 1258h1v1h-1zM32 1258h1v1h-1zM33 1258h1v1h-1zM34 1258h1v1h-1zM35 1258h1v1h-1zM36 1258h1v1h-1zM37 1258h1v1h-1zM38 1258h1v1h-1zM39 1258h1v1h-1zM40 1258h1v1h-1zM41 1258h1v1h-1zM42 1258h1v1h-1zM43 1258h1v1h-1zM44 1258h1v1h-1zM45 1258h1v1h-1zM46 1258h1v1h-1zM47 1258h1v1h-1zM48 1258h1v1h-1zM49 1258h1v1h-1zM50 1258h1v1h-1zM51 1258h1v1h-1zM52 1258h1v1h-1zM53 1258h1v1h-1zM0 1259h1v1H0zM1 1259h1v1H1zM2 1259h1v1H2zM3 1259h1v1H3zM4 1259h1v1H4zM5 1259h1v1H5zM6 1259h1v1H6zM7 1259h1v1H7zM8 1259h1v1H8zM9 1259h1v1H9zM10 1259h1v1h-1zM11 1259h1v1h-1zM12 1259h1v1h-1zM13 1259h1v1h-1zM14 1259h1v1h-1zM15 1259h1v1h-1zM16 1259h1v1h-1zM17 1259h1v1h-1zM18 1259h1v1h-1zM19 1259h1v1h-1zM20 1259h1v1h-1zM21 1259h1v1h-1zM22 1259h1v1h-1zM23 1259h1v1h-1zM24 1259h1v1h-1zM25 1259h1v1h-1zM26 1259h1v1h-1zM27 1259h1v1h-1zM28 1259h1v1h-1zM29 1259h1v1h-1zM30 1259h1v1h-1zM31 1259h1v1h-1zM32 1259h1v1h-1zM33 1259h1v1h-1zM34 1259h1v1h-1zM35 1259h1v1h-1zM36 1259h1v1h-1zM37 1259h1v1h-1zM38 1259h1v1h-1zM39 1259h1v1h-1zM40 1259h1v1h-1zM41 1259h1v1h-1zM42 1259h1v1h-1zM43 1259h1v1h-1zM44 1259h1v1h-1zM45 1259h1v1h-1zM46 1259h1v1h-1zM47 1259h1v1h-1zM48 1259h1v1h-1zM49 1259h1v1h-1zM50 1259h1v1h-1zM51 1259h1v1h-1zM52 1259h1v1h-1zM53 1259h1v1h-1zM0 1294h1v1H0zM1 1294h1v1H1zM2 1294h1v1H2zM3 1294h1v1H3zM4 1294h1v1H4zM5 1294h1v1H5zM6 1294h1v1H6zM7 1294h1v1H7zM8 1294h1v1H8zM9 1294h1v1H9zM10 1294h1v1h-1zM11 1294h1v1h-1zM12 1294h1v1h-1zM13 1294h1v1h-1zM14 1294h1v1h-1zM15 1294h1v1h-1zM16 1294h1v1h-1zM17 1294h1v1h-1zM18 1294h1v1h-1zM19 1294h1v1h-1zM20 1294h1v1h-1zM21 1294h1v1h-1zM22 1294h1v1h-1zM23 1294h1v1h-1zM24 1294h1v1h-1zM25 1294h1v1h-1zM26 1294h1v1h-1zM27 1294h1v1h-1zM28 1294h1v1h-1zM29 1294h1v1h-1zM30 1294h1v1h-1zM31 1294h1v1h-1zM32 1294h1v1h-1zM33 1294h1v1h-1zM34 1294h1v1h-1zM35 1294h1v1h-1zM36 1294h1v1h-1zM37 1294h1v1h-1zM38 1294h1v1h-1zM39 1294h1v1h-1zM40 1294h1v1h-1zM41 1294h1v1h-1zM42 1294h1v1h-1zM43 1294h1v1h-1zM44 1294h1v1h-1zM45 1294h1v1h-1zM46 1294h1v1h-1zM47 1294h1v1h-1zM48 1294h1v1h-1zM49 1294h1v1h-1zM50 1294h1v1h-1zM51 1294h1v1h-1zM52 1294h1v1h-1zM53 1294h1v1h-1zM54 1294h1v1h-1zM55 1294h1v1h-1zM56 1294h1v1h-1zM57 1294h1v1h-1zM58 1294h1v1h-1zM59 1294h1v1h-1zM60 1294h1v1h-1zM61 1294h1v1h-1zM62 1294h1v1h-1zM63 1294h1v1h-1zM64 1294h1v1h-1zM65 1294h1v1h-1zM66 1294h1v1h-1zM67 1294h1v1h-1zM68 1294h1v1h-1zM69 1294h1v1h-1zM70 1294h1v1h-1zM71 1294h1v1h-1zM72 1294h1v1h-1zM73 1294h1v1h-1zM74 1294h1v1h-1zM75 1294h1v1h-1zM76 1294h1v1h-1zM77 1294h1v1h-1zM78 1294h1v1h-1zM79 1294h1v1h-1zM80 1294h1v1h-1zM81 1294h1v1h-1zM82 1294h1v1h-1zM83 1294h1v1h-1zM84 1294h1v1h-1zM85 1294h1v1h-1zM86 1294h1v1h-1zM87 1294h1v1h-1zM88 1294h1v1h-1zM0 1295h1v1H0zM1 1295h1v1H1zM2 1295h1v1H2zM3 1295h1v1H3zM4 1295h1v1H4zM5 1295h1v1H5zM6 1295h1v1H6zM7 1295h1v1H7zM8 1295h1v1H8zM9 1295h1v1H9zM10 1295h1v1h-1zM11 1295h1v1h-1zM12 1295h1v1h-1zM13 1295h1v1h-1zM14 1295h1v1h-1zM15 1295h1v1h-1zM16 1295h1v1h-1zM17 1295h1v1h-1zM18 1295h1v1h-1zM19 1295h1v1h-1zM20 1295h1v1h-1zM21 1295h1v1h-1zM22 1295h1v1h-1zM23 1295h1v1h-1zM24 1295h1v1h-1zM25 1295h1v1h-1zM26 1295h1v1h-1zM27 1295h1v1h-1zM28 1295h1v1h-1zM29 1295h1v1h-1zM30 1295h1v1h-1zM31 1295h1v1h-1zM32 1295h1v1h-1zM33 1295h1v1h-1zM34 1295h1v1h-1zM35 1295h1v1h-1zM36 1295h1v1h-1zM37 1295h1v1h-1zM38 1295h1v1h-1zM39 1295h1v1h-1zM40 1295h1v1h-1zM41 1295h1v1h-1zM42 1295h1v1h-1zM43 1295h1v1h-1zM44 1295h1v1h-1zM45 1295h1v1h-1zM46 1295h1v1h-1zM47 1295h1v1h-1zM48 1295h1v1h-1zM49 1295h1v1h-1zM50 1295h1v1h-1zM51 1295h1v1h-1zM52 1295h1v1h-1zM53 1295h1v1h-1zM54 1295h1v1h-1zM55 1295h1v1h-1zM56 1295h1v1h-1zM57 1295h1v1h-1zM58 1295h1v1h-1zM59 1295h1v1h-1zM60 1295h1v1h-1zM61 1295h1v1h-1zM62 1295h1v1h-1zM63 1295h1v1h-1zM64 1295h1v1h-1zM65 1295h1v1h-1zM66 1295h1v1h-1zM67 1295h1v1h-1zM68 1295h1v1h-1zM69 1295h1v1h-1zM70 1295h1v1h-1zM71 1295h1v1h-1zM72 1295h1v1h-1zM73 1295h1v1h-1zM74 1295h1v1h-1zM75 1295h1v1h-1zM76 1295h1v1h-1zM77 1295h1v1h-1zM78 1295h1v1h-1zM79 1295h1v1h-1zM80 1295h1v1h-1zM81 1295h1v1h-1zM82 1295h1v1h-1zM83 1295h1v1h-1zM84 1295h1v1h-1zM85 1295h1v1h-1zM86 1295h1v1h-1zM87 1295h1v1h-1zM88 1295h1v1h-1z" />
</svg>
