<?xml version="1.0" encoding="utf-8"?>
<svg width="1224" height="89" shape-rendering="crispEdges" xmlns="http://www.w3.org/2000/svg">
  <path d="M0 0h1v1H0zM1 0h1v1H1zM36 0h1v1h-1zM37 0h1v1h-1zM72 0h1v1h-1zM73 0h1v1h-1zM108 0h1v1h-1zM109 0h1v1h-1zM144 0h1v1h-1zM145 0h1v1h-1zM180 0h1v1h-1zM181 0h1v1h-1zM216 0h1v1h-1zM217 0h1v1h-1zM252 0h1v1h-1zM253 0h1v1h-1zM288 0h1v1h-1zM289 0h1v1h-1zM324 0h1v1h-1zM325 0h1v1h-1zM360 0h1v1h-1zM361 0h1v1h-1zM396 0h1v1h-1zM397 0h1v1h-1zM432 0h1v1h-1zM433 0h1v1h-1zM468 0h1v1h-1zM469 0h1v1h-1zM504 0h1v1h-1zM505 0h1v1h-1zM540 0h1v1h-1zM541 0h1v1h-1zM576 0h1v1h-1zM577 0h1v1h-1zM612 0h1v1h-1zM613 0h1v1h-1zM648 0h1v1h-1zM649 0h1v1h-1zM684 0h1v1h-1zM685 0h1v1h-1zM720 0h1v1h-1zM721 0h1v1h-1zM756 0h1v1h-1zM757 0h1v1h-1zM792 0h1v1h-1zM793 0h1v1h-1zM828 0h1v1h-1zM829 0h1v1h-1zM864 0h1v1h-1zM865 0h1v1h-1zM900 0h1v1h-1zM901 0h1v1h-1zM936 0h1v1h-1zM937 0h1v1h-1zM972 0h1v1h-1zM973 0h1v1h-1zM1008 0h1v1h-1zM1009 0h1v1h-1zM1044 0h1v1h-1zM1045 0h1v1h-1zM1080 0h1v1h-1zM1081 0h1v1h-1zM1116 0h1v1h-1zM1117 0h1v1h-1zM1152 0h1v1h-1zM1153 0h1v1h-1zM1188 0h1v1h-1zM1189 0h1v1h-1zM0 1h1v1H0zM1 1h1v1H1zM36 1h1v1h-1zM37 1h1v1h-1zM72 1h1v1h-1zM73 1h1v1h-1zM108 1h1v1h-1zM109 1h1v1h-1zM144 1h1v1h-1zM145 1h1v1h-1zM180 1h1v1h-1zM181 1h1v1h-1zM216 1h1v1h-1zM217 1h1v1h-1zM252 1h1v1h-1zM253 1h1v1h-1zM288 1h1v1h-1zM289 1h1v1h-1zM324 1h1v1h-1zM325 1h1v1h-1zM360 1h1v1h-1zM361 1h1v1h-1zM396 1h1v1h-1zM397 1h1v1h-1zM432 1h1v1h-1zM433 1h1v1h-1zM468 1h1v1h-1zM469 1h1v1h-1zM504 1h1v1h-1zM505 1h1v1h-1zM540 1h1v1h-1zM541 1h1v1h-1zM576 1h1v1h-1zM577 1h1v1h-1zM612 1h1v1h-1zM613 1h1v1h-1zM648 1h1v1h-1zM649 1h1v1h-1zM684 1h1v1h-1zM685 1h1v1h-1zM720 1h1v1h-1zM721 1h1v1h-1zM756 1h1v1h-1zM757 1h1v1h-1zM792 1h1v1h-1zM793 1h1v1h-1zM828 1h1v1h-1zM829 1h1v1h-1zM864 1h1v1h-1zM865 1h1v1h-1zM900 1h1v1h-1zM901 1h1v1h-1zM936 1h1v1h-1zM937 1h1v1h-1zM972 1h1v1h-1zM973 1h1v1h-1zM1008 1h1v1h-1zM1009 1h1v1h-1zM1044 1h1v1h-1zM1045 1h1v1h-1zM1080 1h1v1h-1zM1081 1h1v1h-1zM1116 1h1v1h-1zM1117 1h1v1h-1zM1152 1h1v1h-1zM1153 1h1v1h-1zM1188 1h1v1h-1zM1189 1h1v1h-1zM0 2h1v1H0zM1 2h1v1H1zM36 2h1v1h-1zM37 2h1v1h-1zM72 2h1v1h-1zM73 2h1v1h-1zM108 2h1v1h-1zM109 2h1v1h-1zM144 2h1v1h-1zM145 2h1v1h-1zM180 2h1v1h-1zM181 2h1v1h-1zM216 2h1v1h-1zM217 2h1v1h-1zM252 2h1v1h-1zM253 2h1v1h-1zM288 2h1v1h-1zM289 2h1v1h-1zM324 2h1v1h-1zM325 2h1v1h-1zM360 2h1v1h-1zM361 2h1v1h-1zM396 2h1v1h-1zM397 2h1v1h-1zM432 2h1v1h-1zM433 2h1v1h-1zM468 2h1v1h-1zM469 2h1v1h-1zM504 2h1v1h-1zM505 2h1v1h-1zM540 2h1v1h-1zM541 2h1v1h-1zM576 2h1v1h-1zM577 2h1v1h-1zM612 2h1v1h-1zM613 2h1v1h-1zM648 2h1v1h-1zM649 2h1v1h-1zM684 2h1v1h-1zM685 2h1v1h-1zM720 2h1v1h-1zM721 2h1v1h-1zM756 2h1v1h-1zM757 2h1v1h-1zM792 2h1v1h-1zM793 2h1v1h-1zM828 2h1v1h-1zM829 2h1v1h-1zM864 2h1v1h-1zM865 2h1v1h-1zM900 2h1v1h-1zM901 2h1v1h-1zM936 2h1v1h-1zM937 2h1v1h-1zM972 2h1v1h-1zM973 2h1v1h-1zM1008 2h1v1h-1zM1009 2h1v1h-1zM1044 2h1v1h-1zM1045 2h1v1h-1zM1080 2h1v1h-1zM1081 2h1v1h-1zM1116 2h1v1h-1zM1117 2h1v1h-1zM1152 2h1v1h-1zM1153 2h1v1h-1zM1188 2h1v1h-1zM1189 2h1v1h-1zM0 3h1v1H0zM1 3h1v1H1zM36 3h1v1h-1zM37 3h1v1h-1zM72 3h1v1h-1zM73 3h1v1h-1zM108 3h1v1h-1zM109 3h1v1h-1zM144 3h1v1h-1zM145 3h1v1h-1zM180 3h1v1h-1zM181 3h1v1h-1zM216 3h1v1h-1zM217 3h1v1h-1zM252 3h1v1h-1zM253 3h1v1h-1zM288 3h1v1h-1zM289 3h1v1h-1zM324 3h1v1h-1zM325 3h1v1h-1zM360 3h1v1h-1zM361 3h1v1h-1zM396 3h1v1h-1zM397 3h1v1h-1zM432 3h1v1h-1zM433 3h1v1h-1zM468 3h1v1h-1zM469 3h1v1h-1zM504 3h1v1h-1zM505 3h1v1h-1zM540 3h1v1h-1zM541 3h1v1h-1zM576 3h1v1h-1zM577 3h1v1h-1zM612 3h1v1h-1zM613 3h1v1h-1zM648 3h1v1h-1zM649 3h1v1h-1zM684 3h1v1h-1zM685 3h1v1h-1zM720 3h1v1h-1zM721 3h1v1h-1zM756 3h1v1h-1zM757 3h1v1h-1zM792 3h1v1h-1zM793 3h1v1h-1zM828 3h1v1h-1zM829 3h1v1h-1zM864 3h1v1h-1zM865 3h1v1h-1zM900 3h1v1h-1zM901 3h1v1h-1zM936 3h1v1h-1zM937 3h1v1h-1zM972 3h1v1h-1zM973 3h1v1h-1zM1008 3h1v1h-1zM1009 3h1v1h-1zM1044 3h1v1h-1zM1045 3h1v1h-1zM1080 3h1v1h-1zM1081 3h1v1h-1zM1116 3h1v1h-1zM1117 3h1v1h-1zM1152 3h1v1h-1zM1153 3h1v1h-1zM1188 3h1v1h-1zM1189 3h1v1h-1zM0 4h1v1H0zM1 4h1v1H1zM36 4h1v1h-1zM37 4h1v1h-1zM72 4h1v1h-1zM73 4h1v1h-1zM108 4h1v1h-1zM109 4h1v1h-1zM144 4h1v1h-1zM145 4h1v1h-1zM180 4h1v1h-1zM181 4h1v1h-1zM216 4h1v1h-1zM217 4h1v1h-1zM252 4h1v1h-1zM253 4h1v1h-1zM288 4h1v1h-1zM289 4h1v1h-1zM324 4h1v1h-1zM325 4h1v1h-1zM360 4h1v1h-1zM361 4h1v1h-1zM396 4h1v1h-1zM397 4h1v1h-1zM432 4h1v1h-1zM433 4h1v1h-1zM468 4h1v1h-1zM469 4h1v1h-1zM504 4h1v1h-1zM505 4h1v1h-1zM540 4h1v1h-1zM541 4h1v1h-1zM576 4h1v1h-1zM577 4h1v1h-1zM612 4h1v1h-1zM613 4h1v1h-1zM648 4h1v1h-1zM649 4h1v1h-1zM684 4h1v1h-1zM685 4h1v1h-1zM720 4h1v1h-1zM721 4h1v1h-1zM756 4h1v1h-1zM757 4h1v1h-1zM792 4h1v1h-1zM793 4h1v1h-1zM828 4h1v1h-1zM829 4h1v1h-1zM864 4h1v1h-1zM865 4h1v1h-1zM900 4h1v1h-1zM901 4h1v1h-1zM936 4h1v1h-1zM937 4h1v1h-1zM972 4h1v1h-1zM973 4h1v1h-1zM1008 4h1v1h-1zM1009 4h1v1h-1zM1044 4h1v1h-1zM1045 4h1v1h-1zM1080 4h1v1h-1zM1081 4h1v1h-1zM1116 4h1v1h-1zM1117 4h1v1h-1zM1152 4h1v1h-1zM1153 4h1v1h-1zM1188 4h1v1h-1zM1189 4h1v1h-1zM0 5h1v1H0zM1 5h1v1H1zM36 5h1v1h-1zM37 5h1v1h-1zM72 5h1v1h-1zM73 5h1v1h-1zM108 5h1v1h-1zM109 5h1v1h-1zM144 5h1v1h-1zM145 5h1v1h-1zM180 5h1v1h-1zM181 5h1v1h-1zM216 5h1v1h-1zM217 5h1v1h-1zM252 5h1v1h-1zM253 5h1v1h-1zM288 5h1v1h-1zM289 5h1v1h-1zM324 5h1v1h-1zM325 5h1v1h-1zM360 5h1v1h-1zM361 5h1v1h-1zM396 5h1v1h-1zM397 5h1v1h-1zM432 5h1v1h-1zM433 5h1v1h-1zM468 5h1v1h-1zM469 5h1v1h-1zM504 5h1v1h-1zM505 5h1v1h-1zM540 5h1v1h-1zM541 5h1v1h-1zM576 5h1v1h-1zM577 5h1v1h-1zM612 5h1v1h-1zM613 5h1v1h-1zM648 5h1v1h-1zM649 5h1v1h-1zM684 5h1v1h-1zM685 5h1v1h-1zM720 5h1v1h-1zM721 5h1v1h-1zM756 5h1v1h-1zM757 5h1v1h-1zM792 5h1v1h-1zM793 5h1v1h-1zM828 5h1v1h-1zM829 5h1v1h-1zM864 5h1v1h-1zM865 5h1v1h-1zM900 5h1v1h-1zM901 5h1v1h-1zM936 5h1v1h-1zM937 5h1v1h-1zM972 5h1v1h-1zM973 5h1v1h-1zM1008 5h1v1h-1zM1009 5h1v1h-1zM1044 5h1v1h-1zM1045 5h1v1h-1zM1080 5h1v1h-1zM1081 5h1v1h-1zM1116 5h1v1h-1zM1117 5h1v1h-1zM1152 5h1v1h-1zM1153 5h1v1h-1zM1188 5h1v1h-1zM1189 5h1v1h-1zM0 6h1v1H0zM1 6h1v1H1zM36 6h1v1h-1zM37 6h1v1h-1zM72 6h1v1h-1zM73 6h1v1h-1zM108 6h1v1h-1zM109 6h1v1h-1zM144 6h1v1h-1zM145 6h1v1h-1zM180 6h1v1h-1zM181 6h1v1h-1zM216 6h1v1h-1zM217 6h1v1h-1zM252 6h1v1h-1zM253 6h1v1h-1zM288 6h1v1h-1zM289 6h1v1h-1zM324 6h1v1h-1zM325 6h1v1h-1zM360 6h1v1h-1zM361 6h1v1h-1zM396 6h1v1h-1zM397 6h1v1h-1zM432 6h1v1h-1zM433 6h1v1h-1zM468 6h1v1h-1zM469 6h1v1h-1zM504 6h1v1h-1zM505 6h1v1h-1zM540 6h1v1h-1zM541 6h1v1h-1zM576 6h1v1h-1zM577 6h1v1h-1zM612 6h1v1h-1zM613 6h1v1h-1zM648 6h1v1h-1zM649 6h1v1h-1zM684 6h1v1h-1zM685 6h1v1h-1zM720 6h1v1h-1zM721 6h1v1h-1zM756 6h1v1h-1zM757 6h1v1h-1zM792 6h1v1h-1zM793 6h1v1h-1zM828 6h1v1h-1zM829 6h1v1h-1zM864 6h1v1h-1zM865 6h1v1h-1zM900 6h1v1h-1zM901 6h1v1h-1zM936 6h1v1h-1zM937 6h1v1h-1zM972 6h1v1h-1zM973 6h1v1h-1zM1008 6h1v1h-1zM1009 6h1v1h-1zM1044 6h1v1h-1zM1045 6h1v1h-1zM1080 6h1v1h-1zM1081 6h1v1h-1zM1116 6h1v1h-1zM1117 6h1v1h-1zM1152 6h1v1h-1zM1153 6h1v1h-1zM1188 6h1v1h-1zM1189 6h1v1h-1zM0 7h1v1H0zM1 7h1v1H1zM36 7h1v1h-1zM37 7h1v1h-1zM72 7h1v1h-1zM73 7h1v1h-1zM108 7h1v1h-1zM109 7h1v1h-1zM144 7h1v1h-1zM145 7h1v1h-1zM180 7h1v1h-1zM181 7h1v1h-1zM216 7h1v1h-1zM217 7h1v1h-1zM252 7h1v1h-1zM253 7h1v1h-1zM288 7h1v1h-1zM289 7h1v1h-1zM324 7h1v1h-1zM325 7h1v1h-1zM360 7h1v1h-1zM361 7h1v1h-1zM396 7h1v1h-1zM397 7h1v1h-1zM432 7h1v1h-1zM433 7h1v1h-1zM468 7h1v1h-1zM469 7h1v1h-1zM504 7h1v1h-1zM505 7h1v1h-1zM540 7h1v1h-1zM541 7h1v1h-1zM576 7h1v1h-1zM577 7h1v1h-1zM612 7h1v1h-1zM613 7h1v1h-1zM648 7h1v1h-1zM649 7h1v1h-1zM684 7h1v1h-1zM685 7h1v1h-1zM720 7h1v1h-1zM721 7h1v1h-1zM756 7h1v1h-1zM757 7h1v1h-1zM792 7h1v1h-1zM793 7h1v1h-1zM828 7h1v1h-1zM829 7h1v1h-1zM864 7h1v1h-1zM865 7h1v1h-1zM900 7h1v1h-1zM901 7h1v1h-1zM936 7h1v1h-1zM937 7h1v1h-1zM972 7h1v1h-1zM973 7h1v1h-1zM1008 7h1v1h-1zM1009 7h1v1h-1zM1044 7h1v1h-1zM1045 7h1v1h-1zM1080 7h1v1h-1zM1081 7h1v1h-1zM1116 7h1v1h-1zM1117 7h1v1h-1zM1152 7h1v1h-1zM1153 7h1v1h-1zM1188 7h1v1h-1zM1189 7h1v1h-1zM0 8h1v1H0zM1 8h1v1H1zM36 8h1v1h-1zM37 8h1v1h-1zM72 8h1v1h-1zM73 8h1v1h-1zM108 8h1v1h-1zM109 8h1v1h-1zM144 8h1v1h-1zM145 8h1v1h-1zM180 8h1v1h-1zM181 8h1v1h-1zM216 8h1v1h-1zM217 8h1v1h-1zM252 8h1v1h-1zM253 8h1v1h-1zM288 8h1v1h-1zM289 8h1v1h-1zM324 8h1v1h-1zM325 8h1v1h-1zM360 8h1v1h-1zM361 8h1v1h-1zM396 8h1v1h-1zM397 8h1v1h-1zM432 8h1v1h-1zM433 8h1v1h-1zM468 8h1v1h-1zM469 8h1v1h-1zM504 8h1v1h-1zM505 8h1v1h-1zM540 8h1v1h-1zM541 8h1v1h-1zM576 8h1v1h-1zM577 8h1v1h-1zM612 8h1v1h-1zM613 8h1v1h-1zM648 8h1v1h-1zM649 8h1v1h-1zM684 8h1v1h-1zM685 8h1v1h-1zM720 8h1v1h-1zM721 8h1v1h-1zM756 8h1v1h-1zM757 8h1v1h-1zM792 8h1v1h-1zM793 8h1v1h-1zM828 8h1v1h-1zM829 8h1v1h-1zM864 8h1v1h-1zM865 8h1v1h-1zM900 8h1v1h-1zM901 8h1v1h-1zM936 8h1v1h-1zM937 8h1v1h-1zM972 8h1v1h-1zM973 8h1v1h-1zM1008 8h1v1h-1zM1009 8h1v1h-1zM1044 8h1v1h-1zM1045 8h1v1h-1zM1080 8h1v1h-1zM1081 8h1v1h-1zM1116 8h1v1h-1zM1117 8h1v1h-1zM1152 8h1v1h-1zM1153 8h1v1h-1zM1188 8h1v1h-1zM1189 8h1v1h-1zM0 9h1v1H0zM1 9h1v1H1zM36 9h1v1h-1zM37 9h1v1h-1zM72 9h1v1h-1zM73 9h1v1h-1zM108 9h1v1h-1zM109 9h1v1h-1zM144 9h1v1h-1zM145 9h1v1h-1zM180 9h1v1h-1zM181 9h1v1h-1zM216 9h1v1h-1zM217 9h1v1h-1zM252 9h1v1h-1zM253 9h1v1h-1zM288 9h1v1h-1zM289 9h1v1h-1zM324 9h1v1h-1zM325 9h1v1h-1zM360 9h1v1h-1zM361 9h1v1h-1zM396 9h1v1h-1zM397 9h1v1h-1zM432 9h1v1h-1zM433 9h1v1h-1zM468 9h1v1h-1zM469 9h1v1h-1zM504 9h1v1h-1zM505 9h1v1h-1zM540 9h1v1h-1zM541 9h1v1h-1zM576 9h1v1h-1zM577 9h1v1h-1zM612 9h1v1h-1zM613 9h1v1h-1zM648 9h1v1h-1zM649 9h1v1h-1zM684 9h1v1h-1zM685 9h1v1h-1zM720 9h1v1h-1zM721 9h1v1h-1zM756 9h1v1h-1zM757 9h1v1h-1zM792 9h1v1h-1zM793 9h1v1h-1zM828 9h1v1h-1zM829 9h1v1h-1zM864 9h1v1h-1zM865 9h1v1h-1zM900 9h1v1h-1zM901 9h1v1h-1zM936 9h1v1h-1zM937 9h1v1h-1zM972 9h1v1h-1zM973 9h1v1h-1zM1008 9h1v1h-1zM1009 9h1v1h-1zM1044 9h1v1h-1zM1045 9h1v1h-1zM1080 9h1v1h-1zM1081 9h1v1h-1zM1116 9h1v1h-1zM1117 9h1v1h-1zM1152 9h1v1h-1zM1153 9h1v1h-1zM1188 9h1v1h-1zM1189 9h1v1h-1zM0 10h1v1H0zM1 10h1v1H1zM36 10h1v1h-1zM37 10h1v1h-1zM72 10h1v1h-1zM73 10h1v1h-1zM108 10h1v1h-1zM109 10h1v1h-1zM144 10h1v1h-1zM145 10h1v1h-1zM180 10h1v1h-1zM181 10h1v1h-1zM216 10h1v1h-1zM217 10h1v1h-1zM252 10h1v1h-1zM253 10h1v1h-1zM288 10h1v1h-1zM289 10h1v1h-1zM324 10h1v1h-1zM325 10h1v1h-1zM360 10h1v1h-1zM361 10h1v1h-1zM396 10h1v1h-1zM397 10h1v1h-1zM432 10h1v1h-1zM433 10h1v1h-1zM468 10h1v1h-1zM469 10h1v1h-1zM504 10h1v1h-1zM505 10h1v1h-1zM540 10h1v1h-1zM541 10h1v1h-1zM576 10h1v1h-1zM577 10h1v1h-1zM612 10h1v1h-1zM613 10h1v1h-1zM648 10h1v1h-1zM649 10h1v1h-1zM684 10h1v1h-1zM685 10h1v1h-1zM720 10h1v1h-1zM721 10h1v1h-1zM756 10h1v1h-1zM757 10h1v1h-1zM792 10h1v1h-1zM793 10h1v1h-1zM828 10h1v1h-1zM829 10h1v1h-1zM864 10h1v1h-1zM865 10h1v1h-1zM900 10h1v1h-1zM901 10h1v1h-1zM936 10h1v1h-1zM937 10h1v1h-1zM972 10h1v1h-1zM973 10h1v1h-1zM1008 10h1v1h-1zM1009 10h1v1h-1zM1044 10h1v1h-1zM1045 10h1v1h-1zM1080 10h1v1h-1zM1081 10h1v1h-1zM1116 10h1v1h-1zM1117 10h1v1h-1zM1152 10h1v1h-1zM1153 10h1v1h-1zM1188 10h1v1h-1zM1189 10h1v1h-1zM0 11h1v1H0zM1 11h1v1H1zM36 11h1v1h-1zM37 11h1v1h-1zM72 11h1v1h-1zM73 11h1v1h-1zM108 11h1v1h-1zM109 11h1v1h-1zM144 11h1v1h-1zM145 11h1v1h-1zM180 11h1v1h-1zM181 11h1v1h-1zM216 11h1v1h-1zM217 11h1v1h-1zM252 11h1v1h-1zM253 11h1v1h-1zM288 11h1v1h-1zM289 11h1v1h-1zM324 11h1v1h-1zM325 11h1v1h-1zM360 11h1v1h-1zM361 11h1v1h-1zM396 11h1v1h-1zM397 11h1v1h-1zM432 11h1v1h-1zM433 11h1v1h-1zM468 11h1v1h-1zM469 11h1v1h-1zM504 11h1v1h-1zM505 11h1v1h-1zM540 11h1v1h-1zM541 11h1v1h-1zM576 11h1v1h-1zM577 11h1v1h-1zM612 11h1v1h-1zM613 11h1v1h-1zM648 11h1v1h-1zM649 11h1v1h-1zM684 11h1v1h-1zM685 11h1v1h-1zM720 11h1v1h-1zM721 11h1v1h-1zM756 11h1v1h-1zM757 11h1v1h-1zM792 11h1v1h-1zM793 11h1v1h-1zM828 11h1v1h-1zM829 11h1v1h-1zM864 11h1v1h-1zM865 11h1v1h-1zM900 11h1v1h-1zM901 11h1v1h-1zM936 11h1v1h-1zM937 11h1v1h-1zM972 11h1v1h-1zM973 11h1v1h-1zM1008 11h1v1h-1zM1009 11h1v1h-1zM1044 11h1v1h-1zM1045 11h1v1h-1zM1080 11h1v1h-1zM1081 11h1v1h-1zM1116 11h1v1h-1zM1117 11h1v1h-1zM1152 11h1v1h-1zM1153 11h1v1h-1zM1188 11h1v1h-1zM1189 11h1v1h-1zM0 12h1v1H0zM1 12h1v1H1zM36 12h1v1h-1zM37 12h1v1h-1zM72 12h1v1h-1zM73 12h1v1h-1zM108 12h1v1h-1zM109 12h1v1h-1zM144 12h1v1h-1zM145 12h1v1h-1zM180 12h1v1h-1zM181 12h1v1h-1zM216 12h1v1h-1zM217 12h1v1h-1zM252 12h1v1h-1zM253 12h1v1h-1zM288 12h1v1h-1zM289 12h1v1h-1zM324 12h1v1h-1zM325 12h1v1h-1zM360 12h1v1h-1zM361 12h1v1h-1zM396 12h1v1h-1zM397 12h1v1h-1zM432 12h1v1h-1zM433 12h1v1h-1zM468 12h1v1h-1zM469 12h1v1h-1zM504 12h1v1h-1zM505 12h1v1h-1zM540 12h1v1h-1zM541 12h1v1h-1zM576 12h1v1h-1zM577 12h1v1h-1zM612 12h1v1h-1zM613 12h1v1h-1zM648 12h1v1h-1zM649 12h1v1h-1zM684 12h1v1h-1zM685 12h1v1h-1zM720 12h1v1h-1zM721 12h1v1h-1zM756 12h1v1h-1zM757 12h1v1h-1zM792 12h1v1h-1zM793 12h1v1h-1zM828 12h1v1h-1zM829 12h1v1h-1zM864 12h1v1h-1zM865 12h1v1h-1zM900 12h1v1h-1zM901 12h1v1h-1zM936 12h1v1h-1zM937 12h1v1h-1zM972 12h1v1h-1zM973 12h1v1h-1zM1008 12h1v1h-1zM1009 12h1v1h-1zM1044 12h1v1h-1zM1045 12h1v1h-1zM1080 12h1v1h-1zM1081 12h1v1h-1zM1116 12h1v1h-1zM1117 12h1v1h-1zM1152 12h1v1h-1zM1153 12h1v1h-1zM1188 12h1v1h-1zM1189 12h1v1h-1zM0 13h1v1H0zM1 13h1v1H1zM36 13h1v1h-1zM37 13h1v1h-1zM72 13h1v1h-1zM73 13h1v1h-1zM108 13h1v1h-1zM109 13h1v1h-1zM144 13h1v1h-1zM145 13h1v1h-1zM180 13h1v1h-1zM181 13h1v1h-1zM216 13h1v1h-1zM217 13h1v1h-1zM252 13h1v1h-1zM253 13h1v1h-1zM288 13h1v1h-1zM289 13h1v1h-1zM324 13h1v1h-1zM325 13h1v1h-1zM360 13h1v1h-1zM361 13h1v1h-1zM396 13h1v1h-1zM397 13h1v1h-1zM432 13h1v1h-1zM433 13h1v1h-1zM468 13h1v1h-1zM469 13h1v1h-1zM504 13h1v1h-1zM505 13h1v1h-1zM540 13h1v1h-1zM541 13h1v1h-1zM576 13h1v1h-1zM577 13h1v1h-1zM612 13h1v1h-1zM613 13h1v1h-1zM648 13h1v1h-1zM649 13h1v1h-1zM684 13h1v1h-1zM685 13h1v1h-1zM720 13h1v1h-1zM721 13h1v1h-1zM756 13h1v1h-1zM757 13h1v1h-1zM792 13h1v1h-1zM793 13h1v1h-1zM828 13h1v1h-1zM829 13h1v1h-1zM864 13h1v1h-1zM865 13h1v1h-1zM900 13h1v1h-1zM901 13h1v1h-1zM936 13h1v1h-1zM937 13h1v1h-1zM972 13h1v1h-1zM973 13h1v1h-1zM1008 13h1v1h-1zM1009 13h1v1h-1zM1044 13h1v1h-1zM1045 13h1v1h-1zM1080 13h1v1h-1zM1081 13h1v1h-1zM1116 13h1v1h-1zM1117 13h1v1h-1zM1152 13h1v1h-1zM1153 13h1v1h-1zM1188 13h1v1h-1zM1189 13h1v1h-1zM0 14h1v1H0zM1 14h1v1H1zM36 14h1v1h-1zM37 14h1v1h-1zM72 14h1v1h-1zM73 14h1v1h-1zM108 14h1v1h-1zM109 14h1v1h-1zM144 14h1v1h-1zM145 14h1v1h-1zM180 14h1v1h-1zM181 14h1v1h-1zM216 14h1v1h-1zM217 14h1v1h-1zM252 14h1v1h-1zM253 14h1v1h-1zM288 14h1v1h-1zM289 14h1v1h-1zM324 14h1v1h-1zM325 14h1v1h-1zM360 14h1v1h-1zM361 14h1v1h-1zM396 14h1v1h-1zM397 14h1v1h-1zM432 14h1v1h-1zM433 14h1v1h-1zM468 14h1v1h-1zM469 14h1v1h-1zM504 14h1v1h-1zM505 14h1v1h-1zM540 14h1v1h-1zM541 14h1v1h-1zM576 14h1v1h-1zM577 14h1v1h-1zM612 14h1v1h-1zM613 14h1v1h-1zM648 14h1v1h-1zM649 14h1v1h-1zM684 14h1v1h-1zM685 14h1v1h-1zM720 14h1v1h-1zM721 14h1v1h-1zM756 14h1v1h-1zM757 14h1v1h-1zM792 14h1v1h-1zM793 14h1v1h-1zM828 14h1v1h-1zM829 14h1v1h-1zM864 14h1v1h-1zM865 14h1v1h-1zM900 14h1v1h-1zM901 14h1v1h-1zM936 14h1v1h-1zM937 14h1v1h-1zM972 14h1v1h-1zM973 14h1v1h-1zM1008 14h1v1h-1zM1009 14h1v1h-1zM1044 14h1v1h-1zM1045 14h1v1h-1zM1080 14h1v1h-1zM1081 14h1v1h-1zM1116 14h1v1h-1zM1117 14h1v1h-1zM1152 14h1v1h-1zM1153 14h1v1h-1zM1188 14h1v1h-1zM1189 14h1v1h-1zM0 15h1v1H0zM1 15h1v1H1zM36 15h1v1h-1zM37 15h1v1h-1zM72 15h1v1h-1zM73 15h1v1h-1zM108 15h1v1h-1zM109 15h1v1h-1zM144 15h1v1h-1zM145 15h1v1h-1zM180 15h1v1h-1zM181 15h1v1h-1zM216 15h1v1h-1zM217 15h1v1h-1zM252 15h1v1h-1zM253 15h1v1h-1zM288 15h1v1h-1zM289 15h1v1h-1zM324 15h1v1h-1zM325 15h1v1h-1zM360 15h1v1h-1zM361 15h1v1h-1zM396 15h1v1h-1zM397 15h1v1h-1zM432 15h1v1h-1zM433 15h1v1h-1zM468 15h1v1h-1zM469 15h1v1h-1zM504 15h1v1h-1zM505 15h1v1h-1zM540 15h1v1h-1zM541 15h1v1h-1zM576 15h1v1h-1zM577 15h1v1h-1zM612 15h1v1h-1zM613 15h1v1h-1zM648 15h1v1h-1zM649 15h1v1h-1zM684 15h1v1h-1zM685 15h1v1h-1zM720 15h1v1h-1zM721 15h1v1h-1zM756 15h1v1h-1zM757 15h1v1h-1zM792 15h1v1h-1zM793 15h1v1h-1zM828 15h1v1h-1zM829 15h1v1h-1zM864 15h1v1h-1zM865 15h1v1h-1zM900 15h1v1h-1zM901 15h1v1h-1zM936 15h1v1h-1zM937 15h1v1h-1zM972 15h1v1h-1zM973 15h1v1h-1zM1008 15h1v1h-1zM1009 15h1v1h-1zM1044 15h1v1h-1zM1045 15h1v1h-1zM1080 15h1v1h-1zM1081 15h1v1h-1zM1116 15h1v1h-1zM1117 15h1v1h-1zM1152 15h1v1h-1zM1153 15h1v1h-1zM1188 15h1v1h-1zM1189 15h1v1h-1zM0 16h1v1H0zM1 16h1v1H1zM36 16h1v1h-1zM37 16h1v1h-1zM72 16h1v1h-1zM73 16h1v1h-1zM108 16h1v1h-1zM109 16h1v1h-1zM144 16h1v1h-1zM145 16h1v1h-1zM180 16h1v1h-1zM181 16h1v1h-1zM216 16h1v1h-1zM217 16h1v1h-1zM252 16h1v1h-1zM253 16h1v1h-1zM288 16h1v1h-1zM289 16h1v1h-1zM324 16h1v1h-1zM325 16h1v1h-1zM360 16h1v1h-1zM361 16h1v1h-1zM396 16h1v1h-1zM397 16h1v1h-1zM432 16h1v1h-1zM433 16h1v1h-1zM468 16h1v1h-1zM469 16h1v1h-1zM504 16h1v1h-1zM505 16h1v1h-1zM540 16h1v1h-1zM541 16h1v1h-1zM576 16h1v1h-1zM577 16h1v1h-1zM612 16h1v1h-1zM613 16h1v1h-1zM648 16h1v1h-1zM649 16h1v1h-1zM684 16h1v1h-1zM685 16h1v1h-1zM720 16h1v1h-1zM721 16h1v1h-1zM756 16h1v1h-1zM757 16h1v1h-1zM792 16h1v1h-1zM793 16h1v1h-1zM828 16h1v1h-1zM829 16h1v1h-1zM864 16h1v1h-1zM865 16h1v1h-1zM900 16h1v1h-1zM901 16h1v1h-1zM936 16h1v1h-1zM937 16h1v1h-1zM972 16h1v1h-1zM973 16h1v1h-1zM1008 16h1v1h-1zM1009 16h1v1h-1zM1044 16h1v1h-1zM1045 16h1v1h-1zM1080 16h1v1h-1zM1081 16h1v1h-1zM1116 16h1v1h-1zM1117 16h1v1h-1zM1152 16h1v1h-1zM1153 16h1v1h-1zM1188 16h1v1h-1zM1189 16h1v1h-1zM0 17h1v1H0zM1 17h1v1H1zM36 17h1v1h-1zM37 17h1v1h-1zM72 17h1v1h-1zM73 17h1v1h-1zM108 17h1v1h-1zM109 17h1v1h-1zM144 17h1v1h-1zM145 17h1v1h-1zM180 17h1v1h-1zM181 17h1v1h-1zM216 17h1v1h-1zM217 17h1v1h-1zM252 17h1v1h-1zM253 17h1v1h-1zM288 17h1v1h-1zM289 17h1v1h-1zM324 17h1v1h-1zM325 17h1v1h-1zM360 17h1v1h-1zM361 17h1v1h-1zM396 17h1v1h-1zM397 17h1v1h-1zM432 17h1v1h-1zM433 17h1v1h-1zM468 17h1v1h-1zM469 17h1v1h-1zM504 17h1v1h-1zM505 17h1v1h-1zM540 17h1v1h-1zM541 17h1v1h-1zM576 17h1v1h-1zM577 17h1v1h-1zM612 17h1v1h-1zM613 17h1v1h-1zM648 17h1v1h-1zM649 17h1v1h-1zM684 17h1v1h-1zM685 17h1v1h-1zM720 17h1v1h-1zM721 17h1v1h-1zM756 17h1v1h-1zM757 17h1v1h-1zM792 17h1v1h-1zM793 17h1v1h-1zM828 17h1v1h-1zM829 17h1v1h-1zM864 17h1v1h-1zM865 17h1v1h-1zM900 17h1v1h-1zM901 17h1v1h-1zM936 17h1v1h-1zM937 17h1v1h-1zM972 17h1v1h-1zM973 17h1v1h-1zM1008 17h1v1h-1zM1009 17h1v1h-1zM1044 17h1v1h-1zM1045 17h1v1h-1zM1080 17h1v1h-1zM1081 17h1v1h-1zM1116 17h1v1h-1zM1117 17h1v1h-1zM1152 17h1v1h-1zM1153 17h1v1h-1zM1188 17h1v1h-1zM1189 17h1v1h-1zM0 18h1v1H0zM1 18h1v1H1zM36 18h1v1h-1zM37 18h1v1h-1zM72 18h1v1h-1zM73 18h1v1h-1zM108 18h1v1h-1zM109 18h1v1h-1zM144 18h1v1h-1zM145 18h1v1h-1zM180 18h1v1h-1zM181 18h1v1h-1zM216 18h1v1h-1zM217 18h1v1h-1zM252 18h1v1h-1zM253 18h1v1h-1zM288 18h1v1h-1zM289 18h1v1h-1zM324 18h1v1h-1zM325 18h1v1h-1zM360 18h1v1h-1zM361 18h1v1h-1zM396 18h1v1h-1zM397 18h1v1h-1zM432 18h1v1h-1zM433 18h1v1h-1zM468 18h1v1h-1zM469 18h1v1h-1zM504 18h1v1h-1zM505 18h1v1h-1zM540 18h1v1h-1zM541 18h1v1h-1zM576 18h1v1h-1zM577 18h1v1h-1zM612 18h1v1h-1zM613 18h1v1h-1zM648 18h1v1h-1zM649 18h1v1h-1zM684 18h1v1h-1zM685 18h1v1h-1zM720 18h1v1h-1zM721 18h1v1h-1zM756 18h1v1h-1zM757 18h1v1h-1zM792 18h1v1h-1zM793 18h1v1h-1zM828 18h1v1h-1zM829 18h1v1h-1zM864 18h1v1h-1zM865 18h1v1h-1zM900 18h1v1h-1zM901 18h1v1h-1zM936 18h1v1h-1zM937 18h1v1h-1zM972 18h1v1h-1zM973 18h1v1h-1zM1008 18h1v1h-1zM1009 18h1v1h-1zM1044 18h1v1h-1zM1045 18h1v1h-1zM1080 18h1v1h-1zM1081 18h1v1h-1zM1116 18h1v1h-1zM1117 18h1v1h-1zM1152 18h1v1h-1zM1153 18h1v1h-1zM1188 18h1v1h-1zM1189 18h1v1h-1zM0 19h1v1H0zM1 19h1v1H1zM36 19h1v1h-1zM37 19h1v1h-1zM72 19h1v1h-1zM73 19h1v1h-1zM108 19h1v1h-1zM109 19h1v1h-1zM144 19h1v1h-1zM145 19h1v1h-1zM180 19h1v1h-1zM181 19h1v1h-1zM216 19h1v1h-1zM217 19h1v1h-1zM252 19h1v1h-1zM253 19h1v1h-1zM288 19h1v1h-1zM289 19h1v1h-1zM324 19h1v1h-1zM325 19h1v1h-1zM360 19h1v1h-1zM361 19h1v1h-1zM396 19h1v1h-1zM397 19h1v1h-1zM432 19h1v1h-1zM433 19h1v1h-1zM468 19h1v1h-1zM469 19h1v1h-1zM504 19h1v1h-1zM505 19h1v1h-1zM540 19h1v1h-1zM541 19h1v1h-1zM576 19h1v1h-1zM577 19h1v1h-1zM612 19h1v1h-1zM613 19h1v1h-1zM648 19h1v1h-1zM649 19h1v1h-1zM684 19h1v1h-1zM685 19h1v1h-1zM720 19h1v1h-1zM721 19h1v1h-1zM756 19h1v1h-1zM757 19h1v1h-1zM792 19h1v1h-1zM793 19h1v1h-1zM828 19h1v1h-1zM829 19h1v1h-1zM864 19h1v1h-1zM865 19h1v1h-1zM900 19h1v1h-1zM901 19h1v1h-1zM936 19h1v1h-1zM937 19h1v1h-1zM972 19h1v1h-1zM973 19h1v1h-1zM1008 19h1v1h-1zM1009 19h1v1h-1zM1044 19h1v1h-1zM1045 19h1v1h-1zM1080 19h1v1h-1zM1081 19h1v1h-1zM1116 19h1v1h-1zM1117 19h1v1h-1zM1152 19h1v1h-1zM1153 19h1v1h-1zM1188 19h1v1h-1zM1189 19h1v1h-1zM0 20h1v1H0zM1 20h1v1H1zM36 20h1v1h-1zM37 20h1v1h-1zM72 20h1v1h-1zM73 20h1v1h-1zM108 20h1v1h-1zM109 20h1v1h-1zM144 20h1v1h-1zM145 20h1v1h-1zM180 20h1v1h-1zM181 20h1v1h-1zM216 20h1v1h-1zM217 20h1v1h-1zM252 20h1v1h-1zM253 20h1v1h-1zM288 20h1v1h-1zM289 20h1v1h-1zM324 20h1v1h-1zM325 20h1v1h-1zM360 20h1v1h-1zM361 20h1v1h-1zM396 20h1v1h-1zM397 20h1v1h-1zM432 20h1v1h-1zM433 20h1v1h-1zM468 20h1v1h-1zM469 20h1v1h-1zM504 20h1v1h-1zM505 20h1v1h-1zM540 20h1v1h-1zM541 20h1v1h-1zM576 20h1v1h-1zM577 20h1v1h-1zM612 20h1v1h-1zM613 20h1v1h-1zM648 20h1v1h-1zM649 20h1v1h-1zM684 20h1v1h-1zM685 20h1v1h-1zM720 20h1v1h-1zM721 20h1v1h-1zM756 20h1v1h-1zM757 20h1v1h-1zM792 20h1v1h-1zM793 20h1v1h-1zM828 20h1v1h-1zM829 20h1v1h-1zM864 20h1v1h-1zM865 20h1v1h-1zM900 20h1v1h-1zM901 20h1v1h-1zM936 20h1v1h-1zM937 20h1v1h-1zM972 20h1v1h-1zM973 20h1v1h-1zM1008 20h1v1h-1zM1009 20h1v1h-1zM1044 20h1v1h-1zM1045 20h1v1h-1zM1080 20h1v1h-1zM1081 20h1v1h-1zM1116 20h1v1h-1zM1117 20h1v1h-1zM1152 20h1v1h-1zM1153 20h1v1h-1zM1188 20h1v1h-1zM1189 20h1v1h-1zM0 21h1v1H0zM1 21h1v1H1zM36 21h1v1h-1zM37 21h1v1h-1zM72 21h1v1h-1zM73 21h1v1h-1zM108 21h1v1h-1zM109 21h1v1h-1zM144 21h1v1h-1zM145 21h1v1h-1zM180 21h1v1h-1zM181 21h1v1h-1zM216 21h1v1h-1zM217 21h1v1h-1zM252 21h1v1h-1zM253 21h1v1h-1zM288 21h1v1h-1zM289 21h1v1h-1zM324 21h1v1h-1zM325 21h1v1h-1zM360 21h1v1h-1zM361 21h1v1h-1zM396 21h1v1h-1zM397 21h1v1h-1zM432 21h1v1h-1zM433 21h1v1h-1zM468 21h1v1h-1zM469 21h1v1h-1zM504 21h1v1h-1zM505 21h1v1h-1zM540 21h1v1h-1zM541 21h1v1h-1zM576 21h1v1h-1zM577 21h1v1h-1zM612 21h1v1h-1zM613 21h1v1h-1zM648 21h1v1h-1zM649 21h1v1h-1zM684 21h1v1h-1zM685 21h1v1h-1zM720 21h1v1h-1zM721 21h1v1h-1zM756 21h1v1h-1zM757 21h1v1h-1zM792 21h1v1h-1zM793 21h1v1h-1zM828 21h1v1h-1zM829 21h1v1h-1zM864 21h1v1h-1zM865 21h1v1h-1zM900 21h1v1h-1zM901 21h1v1h-1zM936 21h1v1h-1zM937 21h1v1h-1zM972 21h1v1h-1zM973 21h1v1h-1zM1008 21h1v1h-1zM1009 21h1v1h-1zM1044 21h1v1h-1zM1045 21h1v1h-1zM1080 21h1v1h-1zM1081 21h1v1h-1zM1116 21h1v1h-1zM1117 21h1v1h-1zM1152 21h1v1h-1zM1153 21h1v1h-1zM1188 21h1v1h-1zM1189 21h1v1h-1zM0 22h1v1H0zM1 22h1v1H1zM36 22h1v1h-1zM37 22h1v1h-1zM72 22h1v1h-1zM73 22h1v1h-1zM108 22h1v1h-1zM109 22h1v1h-1zM144 22h1v1h-1zM145 22h1v1h-1zM180 22h1v1h-1zM181 22h1v1h-1zM216 22h1v1h-1zM217 22h1v1h-1zM252 22h1v1h-1zM253 22h1v1h-1zM288 22h1v1h-1zM289 22h1v1h-1zM324 22h1v1h-1zM325 22h1v1h-1zM360 22h1v1h-1zM361 22h1v1h-1zM396 22h1v1h-1zM397 22h1v1h-1zM432 22h1v1h-1zM433 22h1v1h-1zM468 22h1v1h-1zM469 22h1v1h-1zM504 22h1v1h-1zM505 22h1v1h-1zM540 22h1v1h-1zM541 22h1v1h-1zM576 22h1v1h-1zM577 22h1v1h-1zM612 22h1v1h-1zM613 22h1v1h-1zM648 22h1v1h-1zM649 22h1v1h-1zM684 22h1v1h-1zM685 22h1v1h-1zM720 22h1v1h-1zM721 22h1v1h-1zM756 22h1v1h-1zM757 22h1v1h-1zM792 22h1v1h-1zM793 22h1v1h-1zM828 22h1v1h-1zM829 22h1v1h-1zM864 22h1v1h-1zM865 22h1v1h-1zM900 22h1v1h-1zM901 22h1v1h-1zM936 22h1v1h-1zM937 22h1v1h-1zM972 22h1v1h-1zM973 22h1v1h-1zM1008 22h1v1h-1zM1009 22h1v1h-1zM1044 22h1v1h-1zM1045 22h1v1h-1zM1080 22h1v1h-1zM1081 22h1v1h-1zM1116 22h1v1h-1zM1117 22h1v1h-1zM1152 22h1v1h-1zM1153 22h1v1h-1zM1188 22h1v1h-1zM1189 22h1v1h-1zM0 23h1v1H0zM1 23h1v1H1zM36 23h1v1h-1zM37 23h1v1h-1zM72 23h1v1h-1zM73 23h1v1h-1zM108 23h1v1h-1zM109 23h1v1h-1zM144 23h1v1h-1zM145 23h1v1h-1zM180 23h1v1h-1zM181 23h1v1h-1zM216 23h1v1h-1zM217 23h1v1h-1zM252 23h1v1h-1zM253 23h1v1h-1zM288 23h1v1h-1zM289 23h1v1h-1zM324 23h1v1h-1zM325 23h1v1h-1zM360 23h1v1h-1zM361 23h1v1h-1zM396 23h1v1h-1zM397 23h1v1h-1zM432 23h1v1h-1zM433 23h1v1h-1zM468 23h1v1h-1zM469 23h1v1h-1zM504 23h1v1h-1zM505 23h1v1h-1zM540 23h1v1h-1zM541 23h1v1h-1zM576 23h1v1h-1zM577 23h1v1h-1zM612 23h1v1h-1zM613 23h1v1h-1zM648 23h1v1h-1zM649 23h1v1h-1zM684 23h1v1h-1zM685 23h1v1h-1zM720 23h1v1h-1zM721 23h1v1h-1zM756 23h1v1h-1zM757 23h1v1h-1zM792 23h1v1h-1zM793 23h1v1h-1zM828 23h1v1h-1zM829 23h1v1h-1zM864 23h1v1h-1zM865 23h1v1h-1zM900 23h1v1h-1zM901 23h1v1h-1zM936 23h1v1h-1zM937 23h1v1h-1zM972 23h1v1h-1zM973 23h1v1h-1zM1008 23h1v1h-1zM1009 23h1v1h-1zM1044 23h1v1h-1zM1045 23h1v1h-1zM1080 23h1v1h-1zM1081 23h1v1h-1zM1116 23h1v1h-1zM1117 23h1v1h-1zM1152 23h1v1h-1zM1153 23h1v1h-1zM1188 23h1v1h-1zM1189 23h1v1h-1zM0 24h1v1H0zM1 24h1v1H1zM36 24h1v1h-1zM37 24h1v1h-1zM72 24h1v1h-1zM73 24h1v1h-1zM108 24h1v1h-1zM109 24h1v1h-1zM144 24h1v1h-1zM145 24h1v1h-1zM180 24h1v1h-1zM181 24h1v1h-1zM216 24h1v1h-1zM217 24h1v1h-1zM252 24h1v1h-1zM253 24h1v1h-1zM288 24h1v1h-1zM289 24h1v1h-1zM324 24h1v1h-1zM325 24h1v1h-1zM360 24h1v1h-1zM361 24h1v1h-1zM396 24h1v1h-1zM397 24h1v1h-1zM432 24h1v1h-1zM433 24h1v1h-1zM468 24h1v1h-1zM469 24h1v1h-1zM504 24h1v1h-1zM505 24h1v1h-1zM540 24h1v1h-1zM541 24h1v1h-1zM576 24h1v1h-1zM577 24h1v1h-1zM612 24h1v1h-1zM613 24h1v1h-1zM648 24h1v1h-1zM649 24h1v1h-1zM684 24h1v1h-1zM685 24h1v1h-1zM720 24h1v1h-1zM721 24h1v1h-1zM756 24h1v1h-1zM757 24h1v1h-1zM792 24h1v1h-1zM793 24h1v1h-1zM828 24h1v1h-1zM829 24h1v1h-1zM864 24h1v1h-1zM865 24h1v1h-1zM900 24h1v1h-1zM901 24h1v1h-1zM936 24h1v1h-1zM937 24h1v1h-1zM972 24h1v1h-1zM973 24h1v1h-1zM1008 24h1v1h-1zM1009 24h1v1h-1zM1044 24h1v1h-1zM1045 24h1v1h-1zM1080 24h1v1h-1zM1081 24h1v1h-1zM1116 24h1v1h-1zM1117 24h1v1h-1zM1152 24h1v1h-1zM1153 24h1v1h-1zM1188 24h1v1h-1zM1189 24h1v1h-1zM0 25h1v1H0zM1 25h1v1H1zM36 25h1v1h-1zM37 25h1v1h-1zM72 25h1v1h-1zM73 25h1v1h-1zM108 25h1v1h-1zM109 25h1v1h-1zM144 25h1v1h-1zM145 25h1v1h-1zM180 25h1v1h-1zM181 25h1v1h-1zM216 25h1v1h-1zM217 25h1v1h-1zM252 25h1v1h-1zM253 25h1v1h-1zM288 25h1v1h-1zM289 25h1v1h-1zM324 25h1v1h-1zM325 25h1v1h-1zM360 25h1v1h-1zM361 25h1v1h-1zM396 25h1v1h-1zM397 25h1v1h-1zM432 25h1v1h-1zM433 25h1v1h-1zM468 25h1v1h-1zM469 25h1v1h-1zM504 25h1v1h-1zM505 25h1v1h-1zM540 25h1v1h-1zM541 25h1v1h-1zM576 25h1v1h-1zM577 25h1v1h-1zM612 25h1v1h-1zM613 25h1v1h-1zM648 25h1v1h-1zM649 25h1v1h-1zM684 25h1v1h-1zM685 25h1v1h-1zM720 25h1v1h-1zM721 25h1v1h-1zM756 25h1v1h-1zM757 25h1v1h-1zM792 25h1v1h-1zM793 25h1v1h-1zM828 25h1v1h-1zM829 25h1v1h-1zM864 25h1v1h-1zM865 25h1v1h-1zM900 25h1v1h-1zM901 25h1v1h-1zM936 25h1v1h-1zM937 25h1v1h-1zM972 25h1v1h-1zM973 25h1v1h-1zM1008 25h1v1h-1zM1009 25h1v1h-1zM1044 25h1v1h-1zM1045 25h1v1h-1zM1080 25h1v1h-1zM1081 25h1v1h-1zM1116 25h1v1h-1zM1117 25h1v1h-1zM1152 25h1v1h-1zM1153 25h1v1h-1zM1188 25h1v1h-1zM1189 25h1v1h-1zM0 26h1v1H0zM1 26h1v1H1zM36 26h1v1h-1zM37 26h1v1h-1zM72 26h1v1h-1zM73 26h1v1h-1zM108 26h1v1h-1zM109 26h1v1h-1zM144 26h1v1h-1zM145 26h1v1h-1zM180 26h1v1h-1zM181 26h1v1h-1zM216 26h1v1h-1zM217 26h1v1h-1zM252 26h1v1h-1zM253 26h1v1h-1zM288 26h1v1h-1zM289 26h1v1h-1zM324 26h1v1h-1zM325 26h1v1h-1zM360 26h1v1h-1zM361 26h1v1h-1zM396 26h1v1h-1zM397 26h1v1h-1zM432 26h1v1h-1zM433 26h1v1h-1zM468 26h1v1h-1zM469 26h1v1h-1zM504 26h1v1h-1zM505 26h1v1h-1zM540 26h1v1h-1zM541 26h1v1h-1zM576 26h1v1h-1zM577 26h1v1h-1zM612 26h1v1h-1zM613 26h1v1h-1zM648 26h1v1h-1zM649 26h1v1h-1zM684 26h1v1h-1zM685 26h1v1h-1zM720 26h1v1h-1zM721 26h1v1h-1zM756 26h1v1h-1zM757 26h1v1h-1zM792 26h1v1h-1zM793 26h1v1h-1zM828 26h1v1h-1zM829 26h1v1h-1zM864 26h1v1h-1zM865 26h1v1h-1zM900 26h1v1h-1zM901 26h1v1h-1zM936 26h1v1h-1zM937 26h1v1h-1zM972 26h1v1h-1zM973 26h1v1h-1zM1008 26h1v1h-1zM1009 26h1v1h-1zM1044 26h1v1h-1zM1045 26h1v1h-1zM1080 26h1v1h-1zM1081 26h1v1h-1zM1116 26h1v1h-1zM1117 26h1v1h-1zM1152 26h1v1h-1zM1153 26h1v1h-1zM1188 26h1v1h-1zM1189 26h1v1h-1zM0 27h1v1H0zM1 27h1v1H1zM36 27h1v1h-1zM37 27h1v1h-1zM72 27h1v1h-1zM73 27h1v1h-1zM108 27h1v1h-1zM109 27h1v1h-1zM144 27h1v1h-1zM145 27h1v1h-1zM180 27h1v1h-1zM181 27h1v1h-1zM216 27h1v1h-1zM217 27h1v1h-1zM252 27h1v1h-1zM253 27h1v1h-1zM288 27h1v1h-1zM289 27h1v1h-1zM324 27h1v1h-1zM325 27h1v1h-1zM360 27h1v1h-1zM361 27h1v1h-1zM396 27h1v1h-1zM397 27h1v1h-1zM432 27h1v1h-1zM433 27h1v1h-1zM468 27h1v1h-1zM469 27h1v1h-1zM504 27h1v1h-1zM505 27h1v1h-1zM540 27h1v1h-1zM541 27h1v1h-1zM576 27h1v1h-1zM577 27h1v1h-1zM612 27h1v1h-1zM613 27h1v1h-1zM648 27h1v1h-1zM649 27h1v1h-1zM684 27h1v1h-1zM685 27h1v1h-1zM720 27h1v1h-1zM721 27h1v1h-1zM756 27h1v1h-1zM757 27h1v1h-1zM792 27h1v1h-1zM793 27h1v1h-1zM828 27h1v1h-1zM829 27h1v1h-1zM864 27h1v1h-1zM865 27h1v1h-1zM900 27h1v1h-1zM901 27h1v1h-1zM936 27h1v1h-1zM937 27h1v1h-1zM972 27h1v1h-1zM973 27h1v1h-1zM1008 27h1v1h-1zM1009 27h1v1h-1zM1044 27h1v1h-1zM1045 27h1v1h-1zM1080 27h1v1h-1zM1081 27h1v1h-1zM1116 27h1v1h-1zM1117 27h1v1h-1zM1152 27h1v1h-1zM1153 27h1v1h-1zM1188 27h1v1h-1zM1189 27h1v1h-1zM0 28h1v1H0zM1 28h1v1H1zM36 28h1v1h-1zM37 28h1v1h-1zM72 28h1v1h-1zM73 28h1v1h-1zM108 28h1v1h-1zM109 28h1v1h-1zM144 28h1v1h-1zM145 28h1v1h-1zM180 28h1v1h-1zM181 28h1v1h-1zM216 28h1v1h-1zM217 28h1v1h-1zM252 28h1v1h-1zM253 28h1v1h-1zM288 28h1v1h-1zM289 28h1v1h-1zM324 28h1v1h-1zM325 28h1v1h-1zM360 28h1v1h-1zM361 28h1v1h-1zM396 28h1v1h-1zM397 28h1v1h-1zM432 28h1v1h-1zM433 28h1v1h-1zM468 28h1v1h-1zM469 28h1v1h-1zM504 28h1v1h-1zM505 28h1v1h-1zM540 28h1v1h-1zM541 28h1v1h-1zM576 28h1v1h-1zM577 28h1v1h-1zM612 28h1v1h-1zM613 28h1v1h-1zM648 28h1v1h-1zM649 28h1v1h-1zM684 28h1v1h-1zM685 28h1v1h-1zM720 28h1v1h-1zM721 28h1v1h-1zM756 28h1v1h-1zM757 28h1v1h-1zM792 28h1v1h-1zM793 28h1v1h-1zM828 28h1v1h-1zM829 28h1v1h-1zM864 28h1v1h-1zM865 28h1v1h-1zM900 28h1v1h-1zM901 28h1v1h-1zM936 28h1v1h-1zM937 28h1v1h-1zM972 28h1v1h-1zM973 28h1v1h-1zM1008 28h1v1h-1zM1009 28h1v1h-1zM1044 28h1v1h-1zM1045 28h1v1h-1zM1080 28h1v1h-1zM1081 28h1v1h-1zM1116 28h1v1h-1zM1117 28h1v1h-1zM1152 28h1v1h-1zM1153 28h1v1h-1zM1188 28h1v1h-1zM1189 28h1v1h-1zM0 29h1v1H0zM1 29h1v1H1zM36 29h1v1h-1zM37 29h1v1h-1zM72 29h1v1h-1zM73 29h1v1h-1zM108 29h1v1h-1zM109 29h1v1h-1zM144 29h1v1h-1zM145 29h1v1h-1zM180 29h1v1h-1zM181 29h1v1h-1zM216 29h1v1h-1zM217 29h1v1h-1zM252 29h1v1h-1zM253 29h1v1h-1zM288 29h1v1h-1zM289 29h1v1h-1zM324 29h1v1h-1zM325 29h1v1h-1zM360 29h1v1h-1zM361 29h1v1h-1zM396 29h1v1h-1zM397 29h1v1h-1zM432 29h1v1h-1zM433 29h1v1h-1zM468 29h1v1h-1zM469 29h1v1h-1zM504 29h1v1h-1zM505 29h1v1h-1zM540 29h1v1h-1zM541 29h1v1h-1zM576 29h1v1h-1zM577 29h1v1h-1zM612 29h1v1h-1zM613 29h1v1h-1zM648 29h1v1h-1zM649 29h1v1h-1zM684 29h1v1h-1zM685 29h1v1h-1zM720 29h1v1h-1zM721 29h1v1h-1zM756 29h1v1h-1zM757 29h1v1h-1zM792 29h1v1h-1zM793 29h1v1h-1zM828 29h1v1h-1zM829 29h1v1h-1zM864 29h1v1h-1zM865 29h1v1h-1zM900 29h1v1h-1zM901 29h1v1h-1zM936 29h1v1h-1zM937 29h1v1h-1zM972 29h1v1h-1zM973 29h1v1h-1zM1008 29h1v1h-1zM1009 29h1v1h-1zM1044 29h1v1h-1zM1045 29h1v1h-1zM1080 29h1v1h-1zM1081 29h1v1h-1zM1116 29h1v1h-1zM1117 29h1v1h-1zM1152 29h1v1h-1zM1153 29h1v1h-1zM1188 29h1v1h-1zM1189 29h1v1h-1zM0 30h1v1H0zM1 30h1v1H1zM36 30h1v1h-1zM37 30h1v1h-1zM72 30h1v1h-1zM73 30h1v1h-1zM108 30h1v1h-1zM109 30h1v1h-1zM144 30h1v1h-1zM145 30h1v1h-1zM180 30h1v1h-1zM181 30h1v1h-1zM216 30h1v1h-1zM217 30h1v1h-1zM252 30h1v1h-1zM253 30h1v1h-1zM288 30h1v1h-1zM289 30h1v1h-1zM324 30h1v1h-1zM325 30h1v1h-1zM360 30h1v1h-1zM361 30h1v1h-1zM396 30h1v1h-1zM397 30h1v1h-1zM432 30h1v1h-1zM433 30h1v1h-1zM468 30h1v1h-1zM469 30h1v1h-1zM504 30h1v1h-1zM505 30h1v1h-1zM540 30h1v1h-1zM541 30h1v1h-1zM576 30h1v1h-1zM577 30h1v1h-1zM612 30h1v1h-1zM613 30h1v1h-1zM648 30h1v1h-1zM649 30h1v1h-1zM684 30h1v1h-1zM685 30h1v1h-1zM720 30h1v1h-1zM721 30h1v1h-1zM756 30h1v1h-1zM757 30h1v1h-1zM792 30h1v1h-1zM793 30h1v1h-1zM828 30h1v1h-1zM829 30h1v1h-1zM864 30h1v1h-1zM865 30h1v1h-1zM900 30h1v1h-1zM901 30h1v1h-1zM936 30h1v1h-1zM937 30h1v1h-1zM972 30h1v1h-1zM973 30h1v1h-1zM1008 30h1v1h-1zM1009 30h1v1h-1zM1044 30h1v1h-1zM1045 30h1v1h-1zM1080 30h1v1h-1zM1081 30h1v1h-1zM1116 30h1v1h-1zM1117 30h1v1h-1zM1152 30h1v1h-1zM1153 30h1v1h-1zM1188 30h1v1h-1zM1189 30h1v1h-1zM0 31h1v1H0zM1 31h1v1H1zM36 31h1v1h-1zM37 31h1v1h-1zM72 31h1v1h-1zM73 31h1v1h-1zM108 31h1v1h-1zM109 31h1v1h-1zM144 31h1v1h-1zM145 31h1v1h-1zM180 31h1v1h-1zM181 31h1v1h-1zM216 31h1v1h-1zM217 31h1v1h-1zM252 31h1v1h-1zM253 31h1v1h-1zM288 31h1v1h-1zM289 31h1v1h-1zM324 31h1v1h-1zM325 31h1v1h-1zM360 31h1v1h-1zM361 31h1v1h-1zM396 31h1v1h-1zM397 31h1v1h-1zM432 31h1v1h-1zM433 31h1v1h-1zM468 31h1v1h-1zM469 31h1v1h-1zM504 31h1v1h-1zM505 31h1v1h-1zM540 31h1v1h-1zM541 31h1v1h-1zM576 31h1v1h-1zM577 31h1v1h-1zM612 31h1v1h-1zM613 31h1v1h-1zM648 31h1v1h-1zM649 31h1v1h-1zM684 31h1v1h-1zM685 31h1v1h-1zM720 31h1v1h-1zM721 31h1v1h-1zM756 31h1v1h-1zM757 31h1v1h-1zM792 31h1v1h-1zM793 31h1v1h-1zM828 31h1v1h-1zM829 31h1v1h-1zM864 31h1v1h-1zM865 31h1v1h-1zM900 31h1v1h-1zM901 31h1v1h-1zM936 31h1v1h-1zM937 31h1v1h-1zM972 31h1v1h-1zM973 31h1v1h-1zM1008 31h1v1h-1zM1009 31h1v1h-1zM1044 31h1v1h-1zM1045 31h1v1h-1zM1080 31h1v1h-1zM1081 31h1v1h-1zM1116 31h1v1h-1zM1117 31h1v1h-1zM1152 31h1v1h-1zM1153 31h1v1h-1zM1188 31h1v1h-1zM1189 31h1v1h-1zM0 32h1v1H0zM1 32h1v1H1zM36 32h1v1h-1zM37 32h1v1h-1zM72 32h1v1h-1zM73 32h1v1h-1zM108 32h1v1h-1zM109 32h1v1h-1zM144 32h1v1h-1zM145 32h1v1h-1zM180 32h1v1h-1zM181 32h1v1h-1zM216 32h1v1h-1zM217 32h1v1h-1zM252 32h1v1h-1zM253 32h1v1h-1zM288 32h1v1h-1zM289 32h1v1h-1zM324 32h1v1h-1zM325 32h1v1h-1zM360 32h1v1h-1zM361 32h1v1h-1zM396 32h1v1h-1zM397 32h1v1h-1zM432 32h1v1h-1zM433 32h1v1h-1zM468 32h1v1h-1zM469 32h1v1h-1zM504 32h1v1h-1zM505 32h1v1h-1zM540 32h1v1h-1zM541 32h1v1h-1zM576 32h1v1h-1zM577 32h1v1h-1zM612 32h1v1h-1zM613 32h1v1h-1zM648 32h1v1h-1zM649 32h1v1h-1zM684 32h1v1h-1zM685 32h1v1h-1zM720 32h1v1h-1zM721 32h1v1h-1zM756 32h1v1h-1zM757 32h1v1h-1zM792 32h1v1h-1zM793 32h1v1h-1zM828 32h1v1h-1zM829 32h1v1h-1zM864 32h1v1h-1zM865 32h1v1h-1zM900 32h1v1h-1zM901 32h1v1h-1zM936 32h1v1h-1zM937 32h1v1h-1zM972 32h1v1h-1zM973 32h1v1h-1zM1008 32h1v1h-1zM1009 32h1v1h-1zM1044 32h1v1h-1zM1045 32h1v1h-1zM1080 32h1v1h-1zM1081 32h1v1h-1zM1116 32h1v1h-1zM1117 32h1v1h-1zM1152 32h1v1h-1zM1153 32h1v1h-1zM1188 32h1v1h-1zM1189 32h1v1h-1zM0 33h1v1H0zM1 33h1v1H1zM36 33h1v1h-1zM37 33h1v1h-1zM72 33h1v1h-1zM73 33h1v1h-1zM108 33h1v1h-1zM109 33h1v1h-1zM144 33h1v1h-1zM145 33h1v1h-1zM180 33h1v1h-1zM181 33h1v1h-1zM216 33h1v1h-1zM217 33h1v1h-1zM252 33h1v1h-1zM253 33h1v1h-1zM288 33h1v1h-1zM289 33h1v1h-1zM324 33h1v1h-1zM325 33h1v1h-1zM360 33h1v1h-1zM361 33h1v1h-1zM396 33h1v1h-1zM397 33h1v1h-1zM432 33h1v1h-1zM433 33h1v1h-1zM468 33h1v1h-1zM469 33h1v1h-1zM504 33h1v1h-1zM505 33h1v1h-1zM540 33h1v1h-1zM541 33h1v1h-1zM576 33h1v1h-1zM577 33h1v1h-1zM612 33h1v1h-1zM613 33h1v1h-1zM648 33h1v1h-1zM649 33h1v1h-1zM684 33h1v1h-1zM685 33h1v1h-1zM720 33h1v1h-1zM721 33h1v1h-1zM756 33h1v1h-1zM757 33h1v1h-1zM792 33h1v1h-1zM793 33h1v1h-1zM828 33h1v1h-1zM829 33h1v1h-1zM864 33h1v1h-1zM865 33h1v1h-1zM900 33h1v1h-1zM901 33h1v1h-1zM936 33h1v1h-1zM937 33h1v1h-1zM972 33h1v1h-1zM973 33h1v1h-1zM1008 33h1v1h-1zM1009 33h1v1h-1zM1044 33h1v1h-1zM1045 33h1v1h-1zM1080 33h1v1h-1zM1081 33h1v1h-1zM1116 33h1v1h-1zM1117 33h1v1h-1zM1152 33h1v1h-1zM1153 33h1v1h-1zM1188 33h1v1h-1zM1189 33h1v1h-1zM0 34h1v1H0zM1 34h1v1H1zM36 34h1v1h-1zM37 34h1v1h-1zM72 34h1v1h-1zM73 34h1v1h-1zM108 34h1v1h-1zM109 34h1v1h-1zM144 34h1v1h-1zM145 34h1v1h-1zM180 34h1v1h-1zM181 34h1v1h-1zM216 34h1v1h-1zM217 34h1v1h-1zM252 34h1v1h-1zM253 34h1v1h-1zM288 34h1v1h-1zM289 34h1v1h-1zM324 34h1v1h-1zM325 34h1v1h-1zM360 34h1v1h-1zM361 34h1v1h-1zM396 34h1v1h-1zM397 34h1v1h-1zM432 34h1v1h-1zM433 34h1v1h-1zM468 34h1v1h-1zM469 34h1v1h-1zM504 34h1v1h-1zM505 34h1v1h-1zM540 34h1v1h-1zM541 34h1v1h-1zM576 34h1v1h-1zM577 34h1v1h-1zM612 34h1v1h-1zM613 34h1v1h-1zM648 34h1v1h-1zM649 34h1v1h-1zM684 34h1v1h-1zM685 34h1v1h-1zM720 34h1v1h-1zM721 34h1v1h-1zM756 34h1v1h-1zM757 34h1v1h-1zM792 34h1v1h-1zM793 34h1v1h-1zM828 34h1v1h-1zM829 34h1v1h-1zM864 34h1v1h-1zM865 34h1v1h-1zM900 34h1v1h-1zM901 34h1v1h-1zM936 34h1v1h-1zM937 34h1v1h-1zM972 34h1v1h-1zM973 34h1v1h-1zM1008 34h1v1h-1zM1009 34h1v1h-1zM1044 34h1v1h-1zM1045 34h1v1h-1zM1080 34h1v1h-1zM1081 34h1v1h-1zM1116 34h1v1h-1zM1117 34h1v1h-1zM1152 34h1v1h-1zM1153 34h1v1h-1zM1188 34h1v1h-1zM1189 34h1v1h-1zM0 35h1v1H0zM1 35h1v1H1zM36 35h1v1h-1zM37 35h1v1h-1zM72 35h1v1h-1zM73 35h1v1h-1zM108 35h1v1h-1zM109 35h1v1h-1zM144 35h1v1h-1zM145 35h1v1h-1zM180 35h1v1h-1zM181 35h1v1h-1zM216 35h1v1h-1zM217 35h1v1h-1zM252 35h1v1h-1zM253 35h1v1h-1zM288 35h1v1h-1zM289 35h1v1h-1zM324 35h1v1h-1zM325 35h1v1h-1zM360 35h1v1h-1zM361 35h1v1h-1zM396 35h1v1h-1zM397 35h1v1h-1zM432 35h1v1h-1zM433 35h1v1h-1zM468 35h1v1h-1zM469 35h1v1h-1zM504 35h1v1h-1zM505 35h1v1h-1zM540 35h1v1h-1zM541 35h1v1h-1zM576 35h1v1h-1zM577 35h1v1h-1zM612 35h1v1h-1zM613 35h1v1h-1zM648 35h1v1h-1zM649 35h1v1h-1zM684 35h1v1h-1zM685 35h1v1h-1zM720 35h1v1h-1zM721 35h1v1h-1zM756 35h1v1h-1zM757 35h1v1h-1zM792 35h1v1h-1zM793 35h1v1h-1zM828 35h1v1h-1zM829 35h1v1h-1zM864 35h1v1h-1zM865 35h1v1h-1zM900 35h1v1h-1zM901 35h1v1h-1zM936 35h1v1h-1zM937 35h1v1h-1zM972 35h1v1h-1zM973 35h1v1h-1zM1008 35h1v1h-1zM1009 35h1v1h-1zM1044 35h1v1h-1zM1045 35h1v1h-1zM1080 35h1v1h-1zM1081 35h1v1h-1zM1116 35h1v1h-1zM1117 35h1v1h-1zM1152 35h1v1h-1zM1153 35h1v1h-1zM1188 35h1v1h-1zM1189 35h1v1h-1zM0 36h1v1H0zM1 36h1v1H1zM36 36h1v1h-1zM37 36h1v1h-1zM72 36h1v1h-1zM73 36h1v1h-1zM108 36h1v1h-1zM109 36h1v1h-1zM144 36h1v1h-1zM145 36h1v1h-1zM180 36h1v1h-1zM181 36h1v1h-1zM216 36h1v1h-1zM217 36h1v1h-1zM252 36h1v1h-1zM253 36h1v1h-1zM288 36h1v1h-1zM289 36h1v1h-1zM324 36h1v1h-1zM325 36h1v1h-1zM360 36h1v1h-1zM361 36h1v1h-1zM396 36h1v1h-1zM397 36h1v1h-1zM432 36h1v1h-1zM433 36h1v1h-1zM468 36h1v1h-1zM469 36h1v1h-1zM504 36h1v1h-1zM505 36h1v1h-1zM540 36h1v1h-1zM541 36h1v1h-1zM576 36h1v1h-1zM577 36h1v1h-1zM612 36h1v1h-1zM613 36h1v1h-1zM648 36h1v1h-1zM649 36h1v1h-1zM684 36h1v1h-1zM685 36h1v1h-1zM720 36h1v1h-1zM721 36h1v1h-1zM756 36h1v1h-1zM757 36h1v1h-1zM792 36h1v1h-1zM793 36h1v1h-1zM828 36h1v1h-1zM829 36h1v1h-1zM864 36h1v1h-1zM865 36h1v1h-1zM900 36h1v1h-1zM901 36h1v1h-1zM936 36h1v1h-1zM937 36h1v1h-1zM972 36h1v1h-1zM973 36h1v1h-1zM1008 36h1v1h-1zM1009 36h1v1h-1zM1044 36h1v1h-1zM1045 36h1v1h-1zM1080 36h1v1h-1zM1081 36h1v1h-1zM1116 36h1v1h-1zM1117 36h1v1h-1zM1152 36h1v1h-1zM1153 36h1v1h-1zM1188 36h1v1h-1zM1189 36h1v1h-1zM0 37h1v1H0zM1 37h1v1H1zM36 37h1v1h-1zM37 37h1v1h-1zM72 37h1v1h-1zM73 37h1v1h-1zM108 37h1v1h-1zM109 37h1v1h-1zM144 37h1v1h-1zM145 37h1v1h-1zM180 37h1v1h-1zM181 37h1v1h-1zM216 37h1v1h-1zM217 37h1v1h-1zM252 37h1v1h-1zM253 37h1v1h-1zM288 37h1v1h-1zM289 37h1v1h-1zM324 37h1v1h-1zM325 37h1v1h-1zM360 37h1v1h-1zM361 37h1v1h-1zM396 37h1v1h-1zM397 37h1v1h-1zM432 37h1v1h-1zM433 37h1v1h-1zM468 37h1v1h-1zM469 37h1v1h-1zM504 37h1v1h-1zM505 37h1v1h-1zM540 37h1v1h-1zM541 37h1v1h-1zM576 37h1v1h-1zM577 37h1v1h-1zM612 37h1v1h-1zM613 37h1v1h-1zM648 37h1v1h-1zM649 37h1v1h-1zM684 37h1v1h-1zM685 37h1v1h-1zM720 37h1v1h-1zM721 37h1v1h-1zM756 37h1v1h-1zM757 37h1v1h-1zM792 37h1v1h-1zM793 37h1v1h-1zM828 37h1v1h-1zM829 37h1v1h-1zM864 37h1v1h-1zM865 37h1v1h-1zM900 37h1v1h-1zM901 37h1v1h-1zM936 37h1v1h-1zM937 37h1v1h-1zM972 37h1v1h-1zM973 37h1v1h-1zM1008 37h1v1h-1zM1009 37h1v1h-1zM1044 37h1v1h-1zM1045 37h1v1h-1zM1080 37h1v1h-1zM1081 37h1v1h-1zM1116 37h1v1h-1zM1117 37h1v1h-1zM1152 37h1v1h-1zM1153 37h1v1h-1zM1188 37h1v1h-1zM1189 37h1v1h-1zM0 38h1v1H0zM1 38h1v1H1zM36 38h1v1h-1zM37 38h1v1h-1zM72 38h1v1h-1zM73 38h1v1h-1zM108 38h1v1h-1zM109 38h1v1h-1zM144 38h1v1h-1zM145 38h1v1h-1zM180 38h1v1h-1zM181 38h1v1h-1zM216 38h1v1h-1zM217 38h1v1h-1zM252 38h1v1h-1zM253 38h1v1h-1zM288 38h1v1h-1zM289 38h1v1h-1zM324 38h1v1h-1zM325 38h1v1h-1zM360 38h1v1h-1zM361 38h1v1h-1zM396 38h1v1h-1zM397 38h1v1h-1zM432 38h1v1h-1zM433 38h1v1h-1zM468 38h1v1h-1zM469 38h1v1h-1zM504 38h1v1h-1zM505 38h1v1h-1zM540 38h1v1h-1zM541 38h1v1h-1zM576 38h1v1h-1zM577 38h1v1h-1zM612 38h1v1h-1zM613 38h1v1h-1zM648 38h1v1h-1zM649 38h1v1h-1zM684 38h1v1h-1zM685 38h1v1h-1zM720 38h1v1h-1zM721 38h1v1h-1zM756 38h1v1h-1zM757 38h1v1h-1zM792 38h1v1h-1zM793 38h1v1h-1zM828 38h1v1h-1zM829 38h1v1h-1zM864 38h1v1h-1zM865 38h1v1h-1zM900 38h1v1h-1zM901 38h1v1h-1zM936 38h1v1h-1zM937 38h1v1h-1zM972 38h1v1h-1zM973 38h1v1h-1zM1008 38h1v1h-1zM1009 38h1v1h-1zM1044 38h1v1h-1zM1045 38h1v1h-1zM1080 38h1v1h-1zM1081 38h1v1h-1zM1116 38h1v1h-1zM1117 38h1v1h-1zM1152 38h1v1h-1zM1153 38h1v1h-1zM1188 38h1v1h-1zM1189 38h1v1h-1zM0 39h1v1H0zM1 39h1v1H1zM36 39h1v1h-1zM37 39h1v1h-1zM72 39h1v1h-1zM73 39h1v1h-1zM108 39h1v1h-1zM109 39h1v1h-1zM144 39h1v1h-1zM145 39h1v1h-1zM180 39h1v1h-1zM181 39h1v1h-1zM216 39h1v1h-1zM217 39h1v1h-1zM252 39h1v1h-1zM253 39h1v1h-1zM288 39h1v1h-1zM289 39h1v1h-1zM324 39h1v1h-1zM325 39h1v1h-1zM360 39h1v1h-1zM361 39h1v1h-1zM396 39h1v1h-1zM397 39h1v1h-1zM432 39h1v1h-1zM433 39h1v1h-1zM468 39h1v1h-1zM469 39h1v1h-1zM504 39h1v1h-1zM505 39h1v1h-1zM540 39h1v1h-1zM541 39h1v1h-1zM576 39h1v1h-1zM577 39h1v1h-1zM612 39h1v1h-1zM613 39h1v1h-1zM648 39h1v1h-1zM649 39h1v1h-1zM684 39h1v1h-1zM685 39h1v1h-1zM720 39h1v1h-1zM721 39h1v1h-1zM756 39h1v1h-1zM757 39h1v1h-1zM792 39h1v1h-1zM793 39h1v1h-1zM828 39h1v1h-1zM829 39h1v1h-1zM864 39h1v1h-1zM865 39h1v1h-1zM900 39h1v1h-1zM901 39h1v1h-1zM936 39h1v1h-1zM937 39h1v1h-1zM972 39h1v1h-1zM973 39h1v1h-1zM1008 39h1v1h-1zM1009 39h1v1h-1zM1044 39h1v1h-1zM1045 39h1v1h-1zM1080 39h1v1h-1zM1081 39h1v1h-1zM1116 39h1v1h-1zM1117 39h1v1h-1zM1152 39h1v1h-1zM1153 39h1v1h-1zM1188 39h1v1h-1zM1189 39h1v1h-1zM0 40h1v1H0zM1 40h1v1H1zM36 40h1v1h-1zM37 40h1v1h-1zM72 40h1v1h-1zM73 40h1v1h-1zM108 40h1v1h-1zM109 40h1v1h-1zM144 40h1v1h-1zM145 40h1v1h-1zM180 40h1v1h-1zM181 40h1v1h-1zM216 40h1v1h-1zM217 40h1v1h-1zM252 40h1v1h-1zM253 40h1v1h-1zM288 40h1v1h-1zM289 40h1v1h-1zM324 40h1v1h-1zM325 40h1v1h-1zM360 40h1v1h-1zM361 40h1v1h-1zM396 40h1v1h-1zM397 40h1v1h-1zM432 40h1v1h-1zM433 40h1v1h-1zM468 40h1v1h-1zM469 40h1v1h-1zM504 40h1v1h-1zM505 40h1v1h-1zM540 40h1v1h-1zM541 40h1v1h-1zM576 40h1v1h-1zM577 40h1v1h-1zM612 40h1v1h-1zM613 40h1v1h-1zM648 40h1v1h-1zM649 40h1v1h-1zM684 40h1v1h-1zM685 40h1v1h-1zM720 40h1v1h-1zM721 40h1v1h-1zM756 40h1v1h-1zM757 40h1v1h-1zM792 40h1v1h-1zM793 40h1v1h-1zM828 40h1v1h-1zM829 40h1v1h-1zM864 40h1v1h-1zM865 40h1v1h-1zM900 40h1v1h-1zM901 40h1v1h-1zM936 40h1v1h-1zM937 40h1v1h-1zM972 40h1v1h-1zM973 40h1v1h-1zM1008 40h1v1h-1zM1009 40h1v1h-1zM1044 40h1v1h-1zM1045 40h1v1h-1zM1080 40h1v1h-1zM1081 40h1v1h-1zM1116 40h1v1h-1zM1117 40h1v1h-1zM1152 40h1v1h-1zM1153 40h1v1h-1zM1188 40h1v1h-1zM1189 40h1v1h-1zM0 41h1v1H0zM1 41h1v1H1zM36 41h1v1h-1zM37 41h1v1h-1zM72 41h1v1h-1zM73 41h1v1h-1zM108 41h1v1h-1zM109 41h1v1h-1zM144 41h1v1h-1zM145 41h1v1h-1zM180 41h1v1h-1zM181 41h1v1h-1zM216 41h1v1h-1zM217 41h1v1h-1zM252 41h1v1h-1zM253 41h1v1h-1zM288 41h1v1h-1zM289 41h1v1h-1zM324 41h1v1h-1zM325 41h1v1h-1zM360 41h1v1h-1zM361 41h1v1h-1zM396 41h1v1h-1zM397 41h1v1h-1zM432 41h1v1h-1zM433 41h1v1h-1zM468 41h1v1h-1zM469 41h1v1h-1zM504 41h1v1h-1zM505 41h1v1h-1zM540 41h1v1h-1zM541 41h1v1h-1zM576 41h1v1h-1zM577 41h1v1h-1zM612 41h1v1h-1zM613 41h1v1h-1zM648 41h1v1h-1zM649 41h1v1h-1zM684 41h1v1h-1zM685 41h1v1h-1zM720 41h1v1h-1zM721 41h1v1h-1zM756 41h1v1h-1zM757 41h1v1h-1zM792 41h1v1h-1zM793 41h1v1h-1zM828 41h1v1h-1zM829 41h1v1h-1zM864 41h1v1h-1zM865 41h1v1h-1zM900 41h1v1h-1zM901 41h1v1h-1zM936 41h1v1h-1zM937 41h1v1h-1zM972 41h1v1h-1zM973 41h1v1h-1zM1008 41h1v1h-1zM1009 41h1v1h-1zM1044 41h1v1h-1zM1045 41h1v1h-1zM1080 41h1v1h-1zM1081 41h1v1h-1zM1116 41h1v1h-1zM1117 41h1v1h-1zM1152 41h1v1h-1zM1153 41h1v1h-1zM1188 41h1v1h-1zM1189 41h1v1h-1zM0 42h1v1H0zM1 42h1v1H1zM36 42h1v1h-1zM37 42h1v1h-1zM72 42h1v1h-1zM73 42h1v1h-1zM108 42h1v1h-1zM109 42h1v1h-1zM144 42h1v1h-1zM145 42h1v1h-1zM180 42h1v1h-1zM181 42h1v1h-1zM216 42h1v1h-1zM217 42h1v1h-1zM252 42h1v1h-1zM253 42h1v1h-1zM288 42h1v1h-1zM289 42h1v1h-1zM324 42h1v1h-1zM325 42h1v1h-1zM360 42h1v1h-1zM361 42h1v1h-1zM396 42h1v1h-1zM397 42h1v1h-1zM432 42h1v1h-1zM433 42h1v1h-1zM468 42h1v1h-1zM469 42h1v1h-1zM504 42h1v1h-1zM505 42h1v1h-1zM540 42h1v1h-1zM541 42h1v1h-1zM576 42h1v1h-1zM577 42h1v1h-1zM612 42h1v1h-1zM613 42h1v1h-1zM648 42h1v1h-1zM649 42h1v1h-1zM684 42h1v1h-1zM685 42h1v1h-1zM720 42h1v1h-1zM721 42h1v1h-1zM756 42h1v1h-1zM757 42h1v1h-1zM792 42h1v1h-1zM793 42h1v1h-1zM828 42h1v1h-1zM829 42h1v1h-1zM864 42h1v1h-1zM865 42h1v1h-1zM900 42h1v1h-1zM901 42h1v1h-1zM936 42h1v1h-1zM937 42h1v1h-1zM972 42h1v1h-1zM973 42h1v1h-1zM1008 42h1v1h-1zM1009 42h1v1h-1zM1044 42h1v1h-1zM1045 42h1v1h-1zM1080 42h1v1h-1zM1081 42h1v1h-1zM1116 42h1v1h-1zM1117 42h1v1h-1zM1152 42h1v1h-1zM1153 42h1v1h-1zM1188 42h1v1h-1zM1189 42h1v1h-1zM0 43h1v1H0zM1 43h1v1H1zM36 43h1v1h-1zM37 43h1v1h-1zM72 43h1v1h-1zM73 43h1v1h-1zM108 43h1v1h-1zM109 43h1v1h-1zM144 43h1v1h-1zM145 43h1v1h-1zM180 43h1v1h-1zM181 43h1v1h-1zM216 43h1v1h-1zM217 43h1v1h-1zM252 43h1v1h-1zM253 43h1v1h-1zM288 43h1v1h-1zM289 43h1v1h-1zM324 43h1v1h-1zM325 43h1v1h-1zM360 43h1v1h-1zM361 43h1v1h-1zM396 43h1v1h-1zM397 43h1v1h-1zM432 43h1v1h-1zM433 43h1v1h-1zM468 43h1v1h-1zM469 43h1v1h-1zM504 43h1v1h-1zM505 43h1v1h-1zM540 43h1v1h-1zM541 43h1v1h-1zM576 43h1v1h-1zM577 43h1v1h-1zM612 43h1v1h-1zM613 43h1v1h-1zM648 43h1v1h-1zM649 43h1v1h-1zM684 43h1v1h-1zM685 43h1v1h-1zM720 43h1v1h-1zM721 43h1v1h-1zM756 43h1v1h-1zM757 43h1v1h-1zM792 43h1v1h-1zM793 43h1v1h-1zM828 43h1v1h-1zM829 43h1v1h-1zM864 43h1v1h-1zM865 43h1v1h-1zM900 43h1v1h-1zM901 43h1v1h-1zM936 43h1v1h-1zM937 43h1v1h-1zM972 43h1v1h-1zM973 43h1v1h-1zM1008 43h1v1h-1zM1009 43h1v1h-1zM1044 43h1v1h-1zM1045 43h1v1h-1zM1080 43h1v1h-1zM1081 43h1v1h-1zM1116 43h1v1h-1zM1117 43h1v1h-1zM1152 43h1v1h-1zM1153 43h1v1h-1zM1188 43h1v1h-1zM1189 43h1v1h-1zM0 44h1v1H0zM1 44h1v1H1zM36 44h1v1h-1zM37 44h1v1h-1zM72 44h1v1h-1zM73 44h1v1h-1zM108 44h1v1h-1zM109 44h1v1h-1zM144 44h1v1h-1zM145 44h1v1h-1zM180 44h1v1h-1zM181 44h1v1h-1zM216 44h1v1h-1zM217 44h1v1h-1zM252 44h1v1h-1zM253 44h1v1h-1zM288 44h1v1h-1zM289 44h1v1h-1zM324 44h1v1h-1zM325 44h1v1h-1zM360 44h1v1h-1zM361 44h1v1h-1zM396 44h1v1h-1zM397 44h1v1h-1zM432 44h1v1h-1zM433 44h1v1h-1zM468 44h1v1h-1zM469 44h1v1h-1zM504 44h1v1h-1zM505 44h1v1h-1zM540 44h1v1h-1zM541 44h1v1h-1zM576 44h1v1h-1zM577 44h1v1h-1zM612 44h1v1h-1zM613 44h1v1h-1zM648 44h1v1h-1zM649 44h1v1h-1zM684 44h1v1h-1zM685 44h1v1h-1zM720 44h1v1h-1zM721 44h1v1h-1zM756 44h1v1h-1zM757 44h1v1h-1zM792 44h1v1h-1zM793 44h1v1h-1zM828 44h1v1h-1zM829 44h1v1h-1zM864 44h1v1h-1zM865 44h1v1h-1zM900 44h1v1h-1zM901 44h1v1h-1zM936 44h1v1h-1zM937 44h1v1h-1zM972 44h1v1h-1zM973 44h1v1h-1zM1008 44h1v1h-1zM1009 44h1v1h-1zM1044 44h1v1h-1zM1045 44h1v1h-1zM1080 44h1v1h-1zM1081 44h1v1h-1zM1116 44h1v1h-1zM1117 44h1v1h-1zM1152 44h1v1h-1zM1153 44h1v1h-1zM1188 44h1v1h-1zM1189 44h1v1h-1zM0 45h1v1H0zM1 45h1v1H1zM36 45h1v1h-1zM37 45h1v1h-1zM72 45h1v1h-1zM73 45h1v1h-1zM108 45h1v1h-1zM109 45h1v1h-1zM144 45h1v1h-1zM145 45h1v1h-1zM180 45h1v1h-1zM181 45h1v1h-1zM216 45h1v1h-1zM217 45h1v1h-1zM252 45h1v1h-1zM253 45h1v1h-1zM288 45h1v1h-1zM289 45h1v1h-1zM324 45h1v1h-1zM325 45h1v1h-1zM360 45h1v1h-1zM361 45h1v1h-1zM396 45h1v1h-1zM397 45h1v1h-1zM432 45h1v1h-1zM433 45h1v1h-1zM468 45h1v1h-1zM469 45h1v1h-1zM504 45h1v1h-1zM505 45h1v1h-1zM540 45h1v1h-1zM541 45h1v1h-1zM576 45h1v1h-1zM577 45h1v1h-1zM612 45h1v1h-1zM613 45h1v1h-1zM648 45h1v1h-1zM649 45h1v1h-1zM684 45h1v1h-1zM685 45h1v1h-1zM720 45h1v1h-1zM721 45h1v1h-1zM756 45h1v1h-1zM757 45h1v1h-1zM792 45h1v1h-1zM793 45h1v1h-1zM828 45h1v1h-1zM829 45h1v1h-1zM864 45h1v1h-1zM865 45h1v1h-1zM900 45h1v1h-1zM901 45h1v1h-1zM936 45h1v1h-1zM937 45h1v1h-1zM972 45h1v1h-1zM973 45h1v1h-1zM1008 45h1v1h-1zM1009 45h1v1h-1zM1044 45h1v1h-1zM1045 45h1v1h-1zM1080 45h1v1h-1zM1081 45h1v1h-1zM1116 45h1v1h-1zM1117 45h1v1h-1zM1152 45h1v1h-1zM1153 45h1v1h-1zM1188 45h1v1h-1zM1189 45h1v1h-1zM0 46h1v1H0zM1 46h1v1H1zM36 46h1v1h-1zM37 46h1v1h-1zM72 46h1v1h-1zM73 46h1v1h-1zM108 46h1v1h-1zM109 46h1v1h-1zM144 46h1v1h-1zM145 46h1v1h-1zM180 46h1v1h-1zM181 46h1v1h-1zM216 46h1v1h-1zM217 46h1v1h-1zM252 46h1v1h-1zM253 46h1v1h-1zM288 46h1v1h-1zM289 46h1v1h-1zM324 46h1v1h-1zM325 46h1v1h-1zM360 46h1v1h-1zM361 46h1v1h-1zM396 46h1v1h-1zM397 46h1v1h-1zM432 46h1v1h-1zM433 46h1v1h-1zM468 46h1v1h-1zM469 46h1v1h-1zM504 46h1v1h-1zM505 46h1v1h-1zM540 46h1v1h-1zM541 46h1v1h-1zM576 46h1v1h-1zM577 46h1v1h-1zM612 46h1v1h-1zM613 46h1v1h-1zM648 46h1v1h-1zM649 46h1v1h-1zM684 46h1v1h-1zM685 46h1v1h-1zM720 46h1v1h-1zM721 46h1v1h-1zM756 46h1v1h-1zM757 46h1v1h-1zM792 46h1v1h-1zM793 46h1v1h-1zM828 46h1v1h-1zM829 46h1v1h-1zM864 46h1v1h-1zM865 46h1v1h-1zM900 46h1v1h-1zM901 46h1v1h-1zM936 46h1v1h-1zM937 46h1v1h-1zM972 46h1v1h-1zM973 46h1v1h-1zM1008 46h1v1h-1zM1009 46h1v1h-1zM1044 46h1v1h-1zM1045 46h1v1h-1zM1080 46h1v1h-1zM1081 46h1v1h-1zM1116 46h1v1h-1zM1117 46h1v1h-1zM1152 46h1v1h-1zM1153 46h1v1h-1zM1188 46h1v1h-1zM1189 46h1v1h-1zM0 47h1v1H0zM1 47h1v1H1zM36 47h1v1h-1zM37 47h1v1h-1zM72 47h1v1h-1zM73 47h1v1h-1zM108 47h1v1h-1zM109 47h1v1h-1zM144 47h1v1h-1zM145 47h1v1h-1zM180 47h1v1h-1zM181 47h1v1h-1zM216 47h1v1h-1zM217 47h1v1h-1zM252 47h1v1h-1zM253 47h1v1h-1zM288 47h1v1h-1zM289 47h1v1h-1zM324 47h1v1h-1zM325 47h1v1h-1zM360 47h1v1h-1zM361 47h1v1h-1zM396 47h1v1h-1zM397 47h1v1h-1zM432 47h1v1h-1zM433 47h1v1h-1zM468 47h1v1h-1zM469 47h1v1h-1zM504 47h1v1h-1zM505 47h1v1h-1zM540 47h1v1h-1zM541 47h1v1h-1zM576 47h1v1h-1zM577 47h1v1h-1zM612 47h1v1h-1zM613 47h1v1h-1zM648 47h1v1h-1zM649 47h1v1h-1zM684 47h1v1h-1zM685 47h1v1h-1zM720 47h1v1h-1zM721 47h1v1h-1zM756 47h1v1h-1zM757 47h1v1h-1zM792 47h1v1h-1zM793 47h1v1h-1zM828 47h1v1h-1zM829 47h1v1h-1zM864 47h1v1h-1zM865 47h1v1h-1zM900 47h1v1h-1zM901 47h1v1h-1zM936 47h1v1h-1zM937 47h1v1h-1zM972 47h1v1h-1zM973 47h1v1h-1zM1008 47h1v1h-1zM1009 47h1v1h-1zM1044 47h1v1h-1zM1045 47h1v1h-1zM1080 47h1v1h-1zM1081 47h1v1h-1zM1116 47h1v1h-1zM1117 47h1v1h-1zM1152 47h1v1h-1zM1153 47h1v1h-1zM1188 47h1v1h-1zM1189 47h1v1h-1zM0 48h1v1H0zM1 48h1v1H1zM36 48h1v1h-1zM37 48h1v1h-1zM72 48h1v1h-1zM73 48h1v1h-1zM108 48h1v1h-1zM109 48h1v1h-1zM144 48h1v1h-1zM145 48h1v1h-1zM180 48h1v1h-1zM181 48h1v1h-1zM216 48h1v1h-1zM217 48h1v1h-1zM252 48h1v1h-1zM253 48h1v1h-1zM288 48h1v1h-1zM289 48h1v1h-1zM324 48h1v1h-1zM325 48h1v1h-1zM360 48h1v1h-1zM361 48h1v1h-1zM396 48h1v1h-1zM397 48h1v1h-1zM432 48h1v1h-1zM433 48h1v1h-1zM468 48h1v1h-1zM469 48h1v1h-1zM504 48h1v1h-1zM505 48h1v1h-1zM540 48h1v1h-1zM541 48h1v1h-1zM576 48h1v1h-1zM577 48h1v1h-1zM612 48h1v1h-1zM613 48h1v1h-1zM648 48h1v1h-1zM649 48h1v1h-1zM684 48h1v1h-1zM685 48h1v1h-1zM720 48h1v1h-1zM721 48h1v1h-1zM756 48h1v1h-1zM757 48h1v1h-1zM792 48h1v1h-1zM793 48h1v1h-1zM828 48h1v1h-1zM829 48h1v1h-1zM864 48h1v1h-1zM865 48h1v1h-1zM900 48h1v1h-1zM901 48h1v1h-1zM936 48h1v1h-1zM937 48h1v1h-1zM972 48h1v1h-1zM973 48h1v1h-1zM1008 48h1v1h-1zM1009 48h1v1h-1zM1044 48h1v1h-1zM1045 48h1v1h-1zM1080 48h1v1h-1zM1081 48h1v1h-1zM1116 48h1v1h-1zM1117 48h1v1h-1zM1152 48h1v1h-1zM1153 48h1v1h-1zM1188 48h1v1h-1zM1189 48h1v1h-1zM0 49h1v1H0zM1 49h1v1H1zM36 49h1v1h-1zM37 49h1v1h-1zM72 49h1v1h-1zM73 49h1v1h-1zM108 49h1v1h-1zM109 49h1v1h-1zM144 49h1v1h-1zM145 49h1v1h-1zM180 49h1v1h-1zM181 49h1v1h-1zM216 49h1v1h-1zM217 49h1v1h-1zM252 49h1v1h-1zM253 49h1v1h-1zM288 49h1v1h-1zM289 49h1v1h-1zM324 49h1v1h-1zM325 49h1v1h-1zM360 49h1v1h-1zM361 49h1v1h-1zM396 49h1v1h-1zM397 49h1v1h-1zM432 49h1v1h-1zM433 49h1v1h-1zM468 49h1v1h-1zM469 49h1v1h-1zM504 49h1v1h-1zM505 49h1v1h-1zM540 49h1v1h-1zM541 49h1v1h-1zM576 49h1v1h-1zM577 49h1v1h-1zM612 49h1v1h-1zM613 49h1v1h-1zM648 49h1v1h-1zM649 49h1v1h-1zM684 49h1v1h-1zM685 49h1v1h-1zM720 49h1v1h-1zM721 49h1v1h-1zM756 49h1v1h-1zM757 49h1v1h-1zM792 49h1v1h-1zM793 49h1v1h-1zM828 49h1v1h-1zM829 49h1v1h-1zM864 49h1v1h-1zM865 49h1v1h-1zM900 49h1v1h-1zM901 49h1v1h-1zM936 49h1v1h-1zM937 49h1v1h-1zM972 49h1v1h-1zM973 49h1v1h-1zM1008 49h1v1h-1zM1009 49h1v1h-1zM1044 49h1v1h-1zM1045 49h1v1h-1zM1080 49h1v1h-1zM1081 49h1v1h-1zM1116 49h1v1h-1zM1117 49h1v1h-1zM1152 49h1v1h-1zM1153 49h1v1h-1zM1188 49h1v1h-1zM1189 49h1v1h-1zM0 50h1v1H0zM1 50h1v1H1zM36 50h1v1h-1zM37 50h1v1h-1zM72 50h1v1h-1zM73 50h1v1h-1zM108 50h1v1h-1zM109 50h1v1h-1zM144 50h1v1h-1zM145 50h1v1h-1zM180 50h1v1h-1zM181 50h1v1h-1zM216 50h1v1h-1zM217 50h1v1h-1zM252 50h1v1h-1zM253 50h1v1h-1zM288 50h1v1h-1zM289 50h1v1h-1zM324 50h1v1h-1zM325 50h1v1h-1zM360 50h1v1h-1zM361 50h1v1h-1zM396 50h1v1h-1zM397 50h1v1h-1zM432 50h1v1h-1zM433 50h1v1h-1zM468 50h1v1h-1zM469 50h1v1h-1zM504 50h1v1h-1zM505 50h1v1h-1zM540 50h1v1h-1zM541 50h1v1h-1zM576 50h1v1h-1zM577 50h1v1h-1zM612 50h1v1h-1zM613 50h1v1h-1zM648 50h1v1h-1zM649 50h1v1h-1zM684 50h1v1h-1zM685 50h1v1h-1zM720 50h1v1h-1zM721 50h1v1h-1zM756 50h1v1h-1zM757 50h1v1h-1zM792 50h1v1h-1zM793 50h1v1h-1zM828 50h1v1h-1zM829 50h1v1h-1zM864 50h1v1h-1zM865 50h1v1h-1zM900 50h1v1h-1zM901 50h1v1h-1zM936 50h1v1h-1zM937 50h1v1h-1zM972 50h1v1h-1zM973 50h1v1h-1zM1008 50h1v1h-1zM1009 50h1v1h-1zM1044 50h1v1h-1zM1045 50h1v1h-1zM1080 50h1v1h-1zM1081 50h1v1h-1zM1116 50h1v1h-1zM1117 50h1v1h-1zM1152 50h1v1h-1zM1153 50h1v1h-1zM1188 50h1v1h-1zM1189 50h1v1h-1zM0 51h1v1H0zM1 51h1v1H1zM36 51h1v1h-1zM37 51h1v1h-1zM72 51h1v1h-1zM73 51h1v1h-1zM108 51h1v1h-1zM109 51h1v1h-1zM144 51h1v1h-1zM145 51h1v1h-1zM180 51h1v1h-1zM181 51h1v1h-1zM216 51h1v1h-1zM217 51h1v1h-1zM252 51h1v1h-1zM253 51h1v1h-1zM288 51h1v1h-1zM289 51h1v1h-1zM324 51h1v1h-1zM325 51h1v1h-1zM360 51h1v1h-1zM361 51h1v1h-1zM396 51h1v1h-1zM397 51h1v1h-1zM432 51h1v1h-1zM433 51h1v1h-1zM468 51h1v1h-1zM469 51h1v1h-1zM504 51h1v1h-1zM505 51h1v1h-1zM540 51h1v1h-1zM541 51h1v1h-1zM576 51h1v1h-1zM577 51h1v1h-1zM612 51h1v1h-1zM613 51h1v1h-1zM648 51h1v1h-1zM649 51h1v1h-1zM684 51h1v1h-1zM685 51h1v1h-1zM720 51h1v1h-1zM721 51h1v1h-1zM756 51h1v1h-1zM757 51h1v1h-1zM792 51h1v1h-1zM793 51h1v1h-1zM828 51h1v1h-1zM829 51h1v1h-1zM864 51h1v1h-1zM865 51h1v1h-1zM900 51h1v1h-1zM901 51h1v1h-1zM936 51h1v1h-1zM937 51h1v1h-1zM972 51h1v1h-1zM973 51h1v1h-1zM1008 51h1v1h-1zM1009 51h1v1h-1zM1044 51h1v1h-1zM1045 51h1v1h-1zM1080 51h1v1h-1zM1081 51h1v1h-1zM1116 51h1v1h-1zM1117 51h1v1h-1zM1152 51h1v1h-1zM1153 51h1v1h-1zM1188 51h1v1h-1zM1189 51h1v1h-1zM0 52h1v1H0zM1 52h1v1H1zM36 52h1v1h-1zM37 52h1v1h-1zM72 52h1v1h-1zM73 52h1v1h-1zM108 52h1v1h-1zM109 52h1v1h-1zM144 52h1v1h-1zM145 52h1v1h-1zM180 52h1v1h-1zM181 52h1v1h-1zM216 52h1v1h-1zM217 52h1v1h-1zM252 52h1v1h-1zM253 52h1v1h-1zM288 52h1v1h-1zM289 52h1v1h-1zM324 52h1v1h-1zM325 52h1v1h-1zM360 52h1v1h-1zM361 52h1v1h-1zM396 52h1v1h-1zM397 52h1v1h-1zM432 52h1v1h-1zM433 52h1v1h-1zM468 52h1v1h-1zM469 52h1v1h-1zM504 52h1v1h-1zM505 52h1v1h-1zM540 52h1v1h-1zM541 52h1v1h-1zM576 52h1v1h-1zM577 52h1v1h-1zM612 52h1v1h-1zM613 52h1v1h-1zM648 52h1v1h-1zM649 52h1v1h-1zM684 52h1v1h-1zM685 52h1v1h-1zM720 52h1v1h-1zM721 52h1v1h-1zM756 52h1v1h-1zM757 52h1v1h-1zM792 52h1v1h-1zM793 52h1v1h-1zM828 52h1v1h-1zM829 52h1v1h-1zM864 52h1v1h-1zM865 52h1v1h-1zM900 52h1v1h-1zM901 52h1v1h-1zM936 52h1v1h-1zM937 52h1v1h-1zM972 52h1v1h-1zM973 52h1v1h-1zM1008 52h1v1h-1zM1009 52h1v1h-1zM1044 52h1v1h-1zM1045 52h1v1h-1zM1080 52h1v1h-1zM1081 52h1v1h-1zM1116 52h1v1h-1zM1117 52h1v1h-1zM1152 52h1v1h-1zM1153 52h1v1h-1zM1188 52h1v1h-1zM1189 52h1v1h-1zM0 53h1v1H0zM1 53h1v1H1zM36 53h1v1h-1zM37 53h1v1h-1zM72 53h1v1h-1zM73 53h1v1h-1zM108 53h1v1h-1zM109 53h1v1h-1zM144 53h1v1h-1zM145 53h1v1h-1zM180 53h1v1h-1zM181 53h1v1h-1zM216 53h1v1h-1zM217 53h1v1h-1zM252 53h1v1h-1zM253 53h1v1h-1zM288 53h1v1h-1zM289 53h1v1h-1zM324 53h1v1h-1zM325 53h1v1h-1zM360 53h1v1h-1zM361 53h1v1h-1zM396 53h1v1h-1zM397 53h1v1h-1zM432 53h1v1h-1zM433 53h1v1h-1zM468 53h1v1h-1zM469 53h1v1h-1zM504 53h1v1h-1zM505 53h1v1h-1zM540 53h1v1h-1zM541 53h1v1h-1zM576 53h1v1h-1zM577 53h1v1h-1zM612 53h1v1h-1zM613 53h1v1h-1zM648 53h1v1h-1zM649 53h1v1h-1zM684 53h1v1h-1zM685 53h1v1h-1zM720 53h1v1h-1zM721 53h1v1h-1zM756 53h1v1h-1zM757 53h1v1h-1zM792 53h1v1h-1zM793 53h1v1h-1zM828 53h1v1h-1zM829 53h1v1h-1zM864 53h1v1h-1zM865 53h1v1h-1zM900 53h1v1h-1zM901 53h1v1h-1zM936 53h1v1h-1zM937 53h1v1h-1zM972 53h1v1h-1zM973 53h1v1h-1zM1008 53h1v1h-1zM1009 53h1v1h-1zM1044 53h1v1h-1zM1045 53h1v1h-1zM1080 53h1v1h-1zM1081 53h1v1h-1zM1116 53h1v1h-1zM1117 53h1v1h-1zM1152 53h1v1h-1zM1153 53h1v1h-1zM1188 53h1v1h-1zM1189 53h1v1h-1zM0 54h1v1H0zM1 54h1v1H1zM72 54h1v1h-1zM73 54h1v1h-1zM144 54h1v1h-1zM145 54h1v1h-1zM216 54h1v1h-1zM217 54h1v1h-1zM288 54h1v1h-1zM289 54h1v1h-1zM360 54h1v1h-1zM361 54h1v1h-1zM432 54h1v1h-1zM433 54h1v1h-1zM504 54h1v1h-1zM505 54h1v1h-1zM576 54h1v1h-1zM577 54h1v1h-1zM648 54h1v1h-1zM649 54h1v1h-1zM720 54h1v1h-1zM721 54h1v1h-1zM792 54h1v1h-1zM793 54h1v1h-1zM864 54h1v1h-1zM865 54h1v1h-1zM936 54h1v1h-1zM937 54h1v1h-1zM1008 54h1v1h-1zM1009 54h1v1h-1zM1080 54h1v1h-1zM1081 54h1v1h-1zM1152 54h1v1h-1zM1153 54h1v1h-1zM0 55h1v1H0zM1 55h1v1H1zM72 55h1v1h-1zM73 55h1v1h-1zM144 55h1v1h-1zM145 55h1v1h-1zM216 55h1v1h-1zM217 55h1v1h-1zM288 55h1v1h-1zM289 55h1v1h-1zM360 55h1v1h-1zM361 55h1v1h-1zM432 55h1v1h-1zM433 55h1v1h-1zM504 55h1v1h-1zM505 55h1v1h-1zM576 55h1v1h-1zM577 55h1v1h-1zM648 55h1v1h-1zM649 55h1v1h-1zM720 55h1v1h-1zM721 55h1v1h-1zM792 55h1v1h-1zM793 55h1v1h-1zM864 55h1v1h-1zM865 55h1v1h-1zM936 55h1v1h-1zM937 55h1v1h-1zM1008 55h1v1h-1zM1009 55h1v1h-1zM1080 55h1v1h-1zM1081 55h1v1h-1zM1152 55h1v1h-1zM1153 55h1v1h-1zM0 56h1v1H0zM1 56h1v1H1zM72 56h1v1h-1zM73 56h1v1h-1zM144 56h1v1h-1zM145 56h1v1h-1zM216 56h1v1h-1zM217 56h1v1h-1zM288 56h1v1h-1zM289 56h1v1h-1zM360 56h1v1h-1zM361 56h1v1h-1zM432 56h1v1h-1zM433 56h1v1h-1zM504 56h1v1h-1zM505 56h1v1h-1zM576 56h1v1h-1zM577 56h1v1h-1zM648 56h1v1h-1zM649 56h1v1h-1zM720 56h1v1h-1zM721 56h1v1h-1zM792 56h1v1h-1zM793 56h1v1h-1zM864 56h1v1h-1zM865 56h1v1h-1zM936 56h1v1h-1zM937 56h1v1h-1zM1008 56h1v1h-1zM1009 56h1v1h-1zM1080 56h1v1h-1zM1081 56h1v1h-1zM1152 56h1v1h-1zM1153 56h1v1h-1zM0 57h1v1H0zM1 57h1v1H1zM72 57h1v1h-1zM73 57h1v1h-1zM144 57h1v1h-1zM145 57h1v1h-1zM216 57h1v1h-1zM217 57h1v1h-1zM288 57h1v1h-1zM289 57h1v1h-1zM360 57h1v1h-1zM361 57h1v1h-1zM432 57h1v1h-1zM433 57h1v1h-1zM504 57h1v1h-1zM505 57h1v1h-1zM576 57h1v1h-1zM577 57h1v1h-1zM648 57h1v1h-1zM649 57h1v1h-1zM720 57h1v1h-1zM721 57h1v1h-1zM792 57h1v1h-1zM793 57h1v1h-1zM864 57h1v1h-1zM865 57h1v1h-1zM936 57h1v1h-1zM937 57h1v1h-1zM1008 57h1v1h-1zM1009 57h1v1h-1zM1080 57h1v1h-1zM1081 57h1v1h-1zM1152 57h1v1h-1zM1153 57h1v1h-1zM0 58h1v1H0zM1 58h1v1H1zM72 58h1v1h-1zM73 58h1v1h-1zM144 58h1v1h-1zM145 58h1v1h-1zM216 58h1v1h-1zM217 58h1v1h-1zM288 58h1v1h-1zM289 58h1v1h-1zM360 58h1v1h-1zM361 58h1v1h-1zM432 58h1v1h-1zM433 58h1v1h-1zM504 58h1v1h-1zM505 58h1v1h-1zM576 58h1v1h-1zM577 58h1v1h-1zM648 58h1v1h-1zM649 58h1v1h-1zM720 58h1v1h-1zM721 58h1v1h-1zM792 58h1v1h-1zM793 58h1v1h-1zM864 58h1v1h-1zM865 58h1v1h-1zM936 58h1v1h-1zM937 58h1v1h-1zM1008 58h1v1h-1zM1009 58h1v1h-1zM1080 58h1v1h-1zM1081 58h1v1h-1zM1152 58h1v1h-1zM1153 58h1v1h-1zM0 59h1v1H0zM1 59h1v1H1zM72 59h1v1h-1zM73 59h1v1h-1zM144 59h1v1h-1zM145 59h1v1h-1zM216 59h1v1h-1zM217 59h1v1h-1zM288 59h1v1h-1zM289 59h1v1h-1zM360 59h1v1h-1zM361 59h1v1h-1zM432 59h1v1h-1zM433 59h1v1h-1zM504 59h1v1h-1zM505 59h1v1h-1zM576 59h1v1h-1zM577 59h1v1h-1zM648 59h1v1h-1zM649 59h1v1h-1zM720 59h1v1h-1zM721 59h1v1h-1zM792 59h1v1h-1zM793 59h1v1h-1zM864 59h1v1h-1zM865 59h1v1h-1zM936 59h1v1h-1zM937 59h1v1h-1zM1008 59h1v1h-1zM1009 59h1v1h-1zM1080 59h1v1h-1zM1081 59h1v1h-1zM1152 59h1v1h-1zM1153 59h1v1h-1zM0 60h1v1H0zM1 60h1v1H1zM72 60h1v1h-1zM73 60h1v1h-1zM144 60h1v1h-1zM145 60h1v1h-1zM216 60h1v1h-1zM217 60h1v1h-1zM288 60h1v1h-1zM289 60h1v1h-1zM360 60h1v1h-1zM361 60h1v1h-1zM432 60h1v1h-1zM433 60h1v1h-1zM504 60h1v1h-1zM505 60h1v1h-1zM576 60h1v1h-1zM577 60h1v1h-1zM648 60h1v1h-1zM649 60h1v1h-1zM720 60h1v1h-1zM721 60h1v1h-1zM792 60h1v1h-1zM793 60h1v1h-1zM864 60h1v1h-1zM865 60h1v1h-1zM936 60h1v1h-1zM937 60h1v1h-1zM1008 60h1v1h-1zM1009 60h1v1h-1zM1080 60h1v1h-1zM1081 60h1v1h-1zM1152 60h1v1h-1zM1153 60h1v1h-1zM0 61h1v1H0zM1 61h1v1H1zM72 61h1v1h-1zM73 61h1v1h-1zM144 61h1v1h-1zM145 61h1v1h-1zM216 61h1v1h-1zM217 61h1v1h-1zM288 61h1v1h-1zM289 61h1v1h-1zM360 61h1v1h-1zM361 61h1v1h-1zM432 61h1v1h-1zM433 61h1v1h-1zM504 61h1v1h-1zM505 61h1v1h-1zM576 61h1v1h-1zM577 61h1v1h-1zM648 61h1v1h-1zM649 61h1v1h-1zM720 61h1v1h-1zM721 61h1v1h-1zM792 61h1v1h-1zM793 61h1v1h-1zM864 61h1v1h-1zM865 61h1v1h-1zM936 61h1v1h-1zM937 61h1v1h-1zM1008 61h1v1h-1zM1009 61h1v1h-1zM1080 61h1v1h-1zM1081 61h1v1h-1zM1152 61h1v1h-1zM1153 61h1v1h-1zM0 62h1v1H0zM1 62h1v1H1zM72 62h1v1h-1zM73 62h1v1h-1zM144 62h1v1h-1zM145 62h1v1h-1zM216 62h1v1h-1zM217 62h1v1h-1zM288 62h1v1h-1zM289 62h1v1h-1zM360 62h1v1h-1zM361 62h1v1h-1zM432 62h1v1h-1zM433 62h1v1h-1zM504 62h1v1h-1zM505 62h1v1h-1zM576 62h1v1h-1zM577 62h1v1h-1zM648 62h1v1h-1zM649 62h1v1h-1zM720 62h1v1h-1zM721 62h1v1h-1zM792 62h1v1h-1zM793 62h1v1h-1zM864 62h1v1h-1zM865 62h1v1h-1zM936 62h1v1h-1zM937 62h1v1h-1zM1008 62h1v1h-1zM1009 62h1v1h-1zM1080 62h1v1h-1zM1081 62h1v1h-1zM1152 62h1v1h-1zM1153 62h1v1h-1zM0 63h1v1H0zM1 63h1v1H1zM72 63h1v1h-1zM73 63h1v1h-1zM144 63h1v1h-1zM145 63h1v1h-1zM216 63h1v1h-1zM217 63h1v1h-1zM288 63h1v1h-1zM289 63h1v1h-1zM360 63h1v1h-1zM361 63h1v1h-1zM432 63h1v1h-1zM433 63h1v1h-1zM504 63h1v1h-1zM505 63h1v1h-1zM576 63h1v1h-1zM577 63h1v1h-1zM648 63h1v1h-1zM649 63h1v1h-1zM720 63h1v1h-1zM721 63h1v1h-1zM792 63h1v1h-1zM793 63h1v1h-1zM864 63h1v1h-1zM865 63h1v1h-1zM936 63h1v1h-1zM937 63h1v1h-1zM1008 63h1v1h-1zM1009 63h1v1h-1zM1080 63h1v1h-1zM1081 63h1v1h-1zM1152 63h1v1h-1zM1153 63h1v1h-1zM0 64h1v1H0zM1 64h1v1H1zM72 64h1v1h-1zM73 64h1v1h-1zM144 64h1v1h-1zM145 64h1v1h-1zM216 64h1v1h-1zM217 64h1v1h-1zM288 64h1v1h-1zM289 64h1v1h-1zM360 64h1v1h-1zM361 64h1v1h-1zM432 64h1v1h-1zM433 64h1v1h-1zM504 64h1v1h-1zM505 64h1v1h-1zM576 64h1v1h-1zM577 64h1v1h-1zM648 64h1v1h-1zM649 64h1v1h-1zM720 64h1v1h-1zM721 64h1v1h-1zM792 64h1v1h-1zM793 64h1v1h-1zM864 64h1v1h-1zM865 64h1v1h-1zM936 64h1v1h-1zM937 64h1v1h-1zM1008 64h1v1h-1zM1009 64h1v1h-1zM1080 64h1v1h-1zM1081 64h1v1h-1zM1152 64h1v1h-1zM1153 64h1v1h-1zM0 65h1v1H0zM1 65h1v1H1zM72 65h1v1h-1zM73 65h1v1h-1zM144 65h1v1h-1zM145 65h1v1h-1zM216 65h1v1h-1zM217 65h1v1h-1zM288 65h1v1h-1zM289 65h1v1h-1zM360 65h1v1h-1zM361 65h1v1h-1zM432 65h1v1h-1zM433 65h1v1h-1zM504 65h1v1h-1zM505 65h1v1h-1zM576 65h1v1h-1zM577 65h1v1h-1zM648 65h1v1h-1zM649 65h1v1h-1zM720 65h1v1h-1zM721 65h1v1h-1zM792 65h1v1h-1zM793 65h1v1h-1zM864 65h1v1h-1zM865 65h1v1h-1zM936 65h1v1h-1zM937 65h1v1h-1zM1008 65h1v1h-1zM1009 65h1v1h-1zM1080 65h1v1h-1zM1081 65h1v1h-1zM1152 65h1v1h-1zM1153 65h1v1h-1zM0 66h1v1H0zM1 66h1v1H1zM72 66h1v1h-1zM73 66h1v1h-1zM144 66h1v1h-1zM145 66h1v1h-1zM216 66h1v1h-1zM217 66h1v1h-1zM288 66h1v1h-1zM289 66h1v1h-1zM360 66h1v1h-1zM361 66h1v1h-1zM432 66h1v1h-1zM433 66h1v1h-1zM504 66h1v1h-1zM505 66h1v1h-1zM576 66h1v1h-1zM577 66h1v1h-1zM648 66h1v1h-1zM649 66h1v1h-1zM720 66h1v1h-1zM721 66h1v1h-1zM792 66h1v1h-1zM793 66h1v1h-1zM864 66h1v1h-1zM865 66h1v1h-1zM936 66h1v1h-1zM937 66h1v1h-1zM1008 66h1v1h-1zM1009 66h1v1h-1zM1080 66h1v1h-1zM1081 66h1v1h-1zM1152 66h1v1h-1zM1153 66h1v1h-1zM0 67h1v1H0zM1 67h1v1H1zM72 67h1v1h-1zM73 67h1v1h-1zM144 67h1v1h-1zM145 67h1v1h-1zM216 67h1v1h-1zM217 67h1v1h-1zM288 67h1v1h-1zM289 67h1v1h-1zM360 67h1v1h-1zM361 67h1v1h-1zM432 67h1v1h-1zM433 67h1v1h-1zM504 67h1v1h-1zM505 67h1v1h-1zM576 67h1v1h-1zM577 67h1v1h-1zM648 67h1v1h-1zM649 67h1v1h-1zM720 67h1v1h-1zM721 67h1v1h-1zM792 67h1v1h-1zM793 67h1v1h-1zM864 67h1v1h-1zM865 67h1v1h-1zM936 67h1v1h-1zM937 67h1v1h-1zM1008 67h1v1h-1zM1009 67h1v1h-1zM1080 67h1v1h-1zM1081 67h1v1h-1zM1152 67h1v1h-1zM1153 67h1v1h-1zM0 68h1v1H0zM1 68h1v1H1zM72 68h1v1h-1zM73 68h1v1h-1zM144 68h1v1h-1zM145 68h1v1h-1zM216 68h1v1h-1zM217 68h1v1h-1zM288 68h1v1h-1zM289 68h1v1h-1zM360 68h1v1h-1zM361 68h1v1h-1zM432 68h1v1h-1zM433 68h1v1h-1zM504 68h1v1h-1zM505 68h1v1h-1zM576 68h1v1h-1zM577 68h1v1h-1zM648 68h1v1h-1zM649 68h1v1h-1zM720 68h1v1h-1zM721 68h1v1h-1zM792 68h1v1h-1zM793 68h1v1h-1zM864 68h1v1h-1zM865 68h1v1h-1zM936 68h1v1h-1zM937 68h1v1h-1zM1008 68h1v1h-1zM1009 68h1v1h-1zM1080 68h1v1h-1zM1081 68h1v1h-1zM1152 68h1v1h-1zM1153 68h1v1h-1zM0 69h1v1H0zM1 69h1v1H1zM72 69h1v1h-1zM73 69h1v1h-1zM144 69h1v1h-1zM145 69h1v1h-1zM216 69h1v1h-1zM217 69h1v1h-1zM288 69h1v1h-1zM289 69h1v1h-1zM360 69h1v1h-1zM361 69h1v1h-1zM432 69h1v1h-1zM433 69h1v1h-1zM504 69h1v1h-1zM505 69h1v1h-1zM576 69h1v1h-1zM577 69h1v1h-1zM648 69h1v1h-1zM649 69h1v1h-1zM720 69h1v1h-1zM721 69h1v1h-1zM792 69h1v1h-1zM793 69h1v1h-1zM864 69h1v1h-1zM865 69h1v1h-1zM936 69h1v1h-1zM937 69h1v1h-1zM1008 69h1v1h-1zM1009 69h1v1h-1zM1080 69h1v1h-1zM1081 69h1v1h-1zM1152 69h1v1h-1zM1153 69h1v1h-1zM0 70h1v1H0zM1 70h1v1H1zM72 70h1v1h-1zM73 70h1v1h-1zM144 70h1v1h-1zM145 70h1v1h-1zM216 70h1v1h-1zM217 70h1v1h-1zM288 70h1v1h-1zM289 70h1v1h-1zM360 70h1v1h-1zM361 70h1v1h-1zM432 70h1v1h-1zM433 70h1v1h-1zM504 70h1v1h-1zM505 70h1v1h-1zM576 70h1v1h-1zM577 70h1v1h-1zM648 70h1v1h-1zM649 70h1v1h-1zM720 70h1v1h-1zM721 70h1v1h-1zM792 70h1v1h-1zM793 70h1v1h-1zM864 70h1v1h-1zM865 70h1v1h-1zM936 70h1v1h-1zM937 70h1v1h-1zM1008 70h1v1h-1zM1009 70h1v1h-1zM1080 70h1v1h-1zM1081 70h1v1h-1zM1152 70h1v1h-1zM1153 70h1v1h-1zM0 71h1v1H0zM1 71h1v1H1zM72 71h1v1h-1zM73 71h1v1h-1zM144 71h1v1h-1zM145 71h1v1h-1zM216 71h1v1h-1zM217 71h1v1h-1zM288 71h1v1h-1zM289 71h1v1h-1zM360 71h1v1h-1zM361 71h1v1h-1zM432 71h1v1h-1zM433 71h1v1h-1zM504 71h1v1h-1zM505 71h1v1h-1zM576 71h1v1h-1zM577 71h1v1h-1zM648 71h1v1h-1zM649 71h1v1h-1zM720 71h1v1h-1zM721 71h1v1h-1zM792 71h1v1h-1zM793 71h1v1h-1zM864 71h1v1h-1zM865 71h1v1h-1zM936 71h1v1h-1zM937 71h1v1h-1zM1008 71h1v1h-1zM1009 71h1v1h-1zM1080 71h1v1h-1zM1081 71h1v1h-1zM1152 71h1v1h-1zM1153 71h1v1h-1zM0 72h1v1H0zM1 72h1v1H1zM72 72h1v1h-1zM73 72h1v1h-1zM144 72h1v1h-1zM145 72h1v1h-1zM216 72h1v1h-1zM217 72h1v1h-1zM288 72h1v1h-1zM289 72h1v1h-1zM360 72h1v1h-1zM361 72h1v1h-1zM432 72h1v1h-1zM433 72h1v1h-1zM504 72h1v1h-1zM505 72h1v1h-1zM576 72h1v1h-1zM577 72h1v1h-1zM648 72h1v1h-1zM649 72h1v1h-1zM720 72h1v1h-1zM721 72h1v1h-1zM792 72h1v1h-1zM793 72h1v1h-1zM864 72h1v1h-1zM865 72h1v1h-1zM936 72h1v1h-1zM937 72h1v1h-1zM1008 72h1v1h-1zM1009 72h1v1h-1zM1080 72h1v1h-1zM1081 72h1v1h-1zM1152 72h1v1h-1zM1153 72h1v1h-1zM0 73h1v1H0zM1 73h1v1H1zM72 73h1v1h-1zM73 73h1v1h-1zM144 73h1v1h-1zM145 73h1v1h-1zM216 73h1v1h-1zM217 73h1v1h-1zM288 73h1v1h-1zM289 73h1v1h-1zM360 73h1v1h-1zM361 73h1v1h-1zM432 73h1v1h-1zM433 73h1v1h-1zM504 73h1v1h-1zM505 73h1v1h-1zM576 73h1v1h-1zM577 73h1v1h-1zM648 73h1v1h-1zM649 73h1v1h-1zM720 73h1v1h-1zM721 73h1v1h-1zM792 73h1v1h-1zM793 73h1v1h-1zM864 73h1v1h-1zM865 73h1v1h-1zM936 73h1v1h-1zM937 73h1v1h-1zM1008 73h1v1h-1zM1009 73h1v1h-1zM1080 73h1v1h-1zM1081 73h1v1h-1zM1152 73h1v1h-1zM1153 73h1v1h-1zM0 74h1v1H0zM1 74h1v1H1zM72 74h1v1h-1zM73 74h1v1h-1zM144 74h1v1h-1zM145 74h1v1h-1zM216 74h1v1h-1zM217 74h1v1h-1zM288 74h1v1h-1zM289 74h1v1h-1zM360 74h1v1h-1zM361 74h1v1h-1zM432 74h1v1h-1zM433 74h1v1h-1zM504 74h1v1h-1zM505 74h1v1h-1zM576 74h1v1h-1zM577 74h1v1h-1zM648 74h1v1h-1zM649 74h1v1h-1zM720 74h1v1h-1zM721 74h1v1h-1zM792 74h1v1h-1zM793 74h1v1h-1zM864 74h1v1h-1zM865 74h1v1h-1zM936 74h1v1h-1zM937 74h1v1h-1zM1008 74h1v1h-1zM1009 74h1v1h-1zM1080 74h1v1h-1zM1081 74h1v1h-1zM1152 74h1v1h-1zM1153 74h1v1h-1zM0 75h1v1H0zM1 75h1v1H1zM72 75h1v1h-1zM73 75h1v1h-1zM144 75h1v1h-1zM145 75h1v1h-1zM216 75h1v1h-1zM217 75h1v1h-1zM288 75h1v1h-1zM289 75h1v1h-1zM360 75h1v1h-1zM361 75h1v1h-1zM432 75h1v1h-1zM433 75h1v1h-1zM504 75h1v1h-1zM505 75h1v1h-1zM576 75h1v1h-1zM577 75h1v1h-1zM648 75h1v1h-1zM649 75h1v1h-1zM720 75h1v1h-1zM721 75h1v1h-1zM792 75h1v1h-1zM793 75h1v1h-1zM864 75h1v1h-1zM865 75h1v1h-1zM936 75h1v1h-1zM937 75h1v1h-1zM1008 75h1v1h-1zM1009 75h1v1h-1zM1080 75h1v1h-1zM1081 75h1v1h-1zM1152 75h1v1h-1zM1153 75h1v1h-1zM0 76h1v1H0zM1 76h1v1H1zM72 76h1v1h-1zM73 76h1v1h-1zM144 76h1v1h-1zM145 76h1v1h-1zM216 76h1v1h-1zM217 76h1v1h-1zM288 76h1v1h-1zM289 76h1v1h-1zM360 76h1v1h-1zM361 76h1v1h-1zM432 76h1v1h-1zM433 76h1v1h-1zM504 76h1v1h-1zM505 76h1v1h-1zM576 76h1v1h-1zM577 76h1v1h-1zM648 76h1v1h-1zM649 76h1v1h-1zM720 76h1v1h-1zM721 76h1v1h-1zM792 76h1v1h-1zM793 76h1v1h-1zM864 76h1v1h-1zM865 76h1v1h-1zM936 76h1v1h-1zM937 76h1v1h-1zM1008 76h1v1h-1zM1009 76h1v1h-1zM1080 76h1v1h-1zM1081 76h1v1h-1zM1152 76h1v1h-1zM1153 76h1v1h-1zM0 77h1v1H0zM1 77h1v1H1zM72 77h1v1h-1zM73 77h1v1h-1zM144 77h1v1h-1zM145 77h1v1h-1zM216 77h1v1h-1zM217 77h1v1h-1zM288 77h1v1h-1zM289 77h1v1h-1zM360 77h1v1h-1zM361 77h1v1h-1zM432 77h1v1h-1zM433 77h1v1h-1zM504 77h1v1h-1zM505 77h1v1h-1zM576 77h1v1h-1zM577 77h1v1h-1zM648 77h1v1h-1zM649 77h1v1h-1zM720 77h1v1h-1zM721 77h1v1h-1zM792 77h1v1h-1zM793 77h1v1h-1zM864 77h1v1h-1zM865 77h1v1h-1zM936 77h1v1h-1zM937 77h1v1h-1zM1008 77h1v1h-1zM1009 77h1v1h-1zM1080 77h1v1h-1zM1081 77h1v1h-1zM1152 77h1v1h-1zM1153 77h1v1h-1zM0 78h1v1H0zM1 78h1v1H1zM72 78h1v1h-1zM73 78h1v1h-1zM144 78h1v1h-1zM145 78h1v1h-1zM216 78h1v1h-1zM217 78h1v1h-1zM288 78h1v1h-1zM289 78h1v1h-1zM360 78h1v1h-1zM361 78h1v1h-1zM432 78h1v1h-1zM433 78h1v1h-1zM504 78h1v1h-1zM505 78h1v1h-1zM576 78h1v1h-1zM577 78h1v1h-1zM648 78h1v1h-1zM649 78h1v1h-1zM720 78h1v1h-1zM721 78h1v1h-1zM792 78h1v1h-1zM793 78h1v1h-1zM864 78h1v1h-1zM865 78h1v1h-1zM936 78h1v1h-1zM937 78h1v1h-1zM1008 78h1v1h-1zM1009 78h1v1h-1zM1080 78h1v1h-1zM1081 78h1v1h-1zM1152 78h1v1h-1zM1153 78h1v1h-1zM0 79h1v1H0zM1 79h1v1H1zM72 79h1v1h-1zM73 79h1v1h-1zM144 79h1v1h-1zM145 79h1v1h-1zM216 79h1v1h-1zM217 79h1v1h-1zM288 79h1v1h-1zM289 79h1v1h-1zM360 79h1v1h-1zM361 79h1v1h-1zM432 79h1v1h-1zM433 79h1v1h-1zM504 79h1v1h-1zM505 79h1v1h-1zM576 79h1v1h-1zM577 79h1v1h-1zM648 79h1v1h-1zM649 79h1v1h-1zM720 79h1v1h-1zM721 79h1v1h-1zM792 79h1v1h-1zM793 79h1v1h-1zM864 79h1v1h-1zM865 79h1v1h-1zM936 79h1v1h-1zM937 79h1v1h-1zM1008 79h1v1h-1zM1009 79h1v1h-1zM1080 79h1v1h-1zM1081 79h1v1h-1zM1152 79h1v1h-1zM1153 79h1v1h-1zM0 80h1v1H0zM1 80h1v1H1zM72 80h1v1h-1zM73 80h1v1h-1zM144 80h1v1h-1zM145 80h1v1h-1zM216 80h1v1h-1zM217 80h1v1h-1zM288 80h1v1h-1zM289 80h1v1h-1zM360 80h1v1h-1zM361 80h1v1h-1zM432 80h1v1h-1zM433 80h1v1h-1zM504 80h1v1h-1zM505 80h1v1h-1zM576 80h1v1h-1zM577 80h1v1h-1zM648 80h1v1h-1zM649 80h1v1h-1zM720 80h1v1h-1zM721 80h1v1h-1zM792 80h1v1h-1zM793 80h1v1h-1zM864 80h1v1h-1zM865 80h1v1h-1zM936 80h1v1h-1zM937 80h1v1h-1zM1008 80h1v1h-1zM1009 80h1v1h-1zM1080 80h1v1h-1zM1081 80h1v1h-1zM1152 80h1v1h-1zM1153 80h1v1h-1zM0 81h1v1H0zM1 81h1v1H1zM72 81h1v1h-1zM73 81h1v1h-1zM144 81h1v1h-1zM145 81h1v1h-1zM216 81h1v1h-1zM217 81h1v1h-1zM288 81h1v1h-1zM289 81h1v1h-1zM360 81h1v1h-1zM361 81h1v1h-1zM432 81h1v1h-1zM433 81h1v1h-1zM504 81h1v1h-1zM505 81h1v1h-1zM576 81h1v1h-1zM577 81h1v1h-1zM648 81h1v1h-1zM649 81h1v1h-1zM720 81h1v1h-1zM721 81h1v1h-1zM792 81h1v1h-1zM793 81h1v1h-1zM864 81h1v1h-1zM865 81h1v1h-1zM936 81h1v1h-1zM937 81h1v1h-1zM1008 81h1v1h-1zM1009 81h1v1h-1zM1080 81h1v1h-1zM1081 81h1v1h-1zM1152 81h1v1h-1zM1153 81h1v1h-1zM0 82h1v1H0zM1 82h1v1H1zM72 82h1v1h-1zM73 82h1v1h-1zM144 82h1v1h-1zM145 82h1v1h-1zM216 82h1v1h-1zM217 82h1v1h-1zM288 82h1v1h-1zM289 82h1v1h-1zM360 82h1v1h-1zM361 82h1v1h-1zM432 82h1v1h-1zM433 82h1v1h-1zM504 82h1v1h-1zM505 82h1v1h-1zM576 82h1v1h-1zM577 82h1v1h-1zM648 82h1v1h-1zM649 82h1v1h-1zM720 82h1v1h-1zM721 82h1v1h-1zM792 82h1v1h-1zM793 82h1v1h-1zM864 82h1v1h-1zM865 82h1v1h-1zM936 82h1v1h-1zM937 82h1v1h-1zM1008 82h1v1h-1zM1009 82h1v1h-1zM1080 82h1v1h-1zM1081 82h1v1h-1zM1152 82h1v1h-1zM1153 82h1v1h-1zM0 83h1v1H0zM1 83h1v1H1zM72 83h1v1h-1zM73 83h1v1h-1zM144 83h1v1h-1zM145 83h1v1h-1zM216 83h1v1h-1zM217 83h1v1h-1zM288 83h1v1h-1zM289 83h1v1h-1zM360 83h1v1h-1zM361 83h1v1h-1zM432 83h1v1h-1zM433 83h1v1h-1zM504 83h1v1h-1zM505 83h1v1h-1zM576 83h1v1h-1zM577 83h1v1h-1zM648 83h1v1h-1zM649 83h1v1h-1zM720 83h1v1h-1zM721 83h1v1h-1zM792 83h1v1h-1zM793 83h1v1h-1zM864 83h1v1h-1zM865 83h1v1h-1zM936 83h1v1h-1zM937 83h1v1h-1zM1008 83h1v1h-1zM1009 83h1v1h-1zM1080 83h1v1h-1zM1081 83h1v1h-1zM1152 83h1v1h-1zM1153 83h1v1h-1zM0 84h1v1H0zM1 84h1v1H1zM72 84h1v1h-1zM73 84h1v1h-1zM144 84h1v1h-1zM145 84h1v1h-1zM216 84h1v1h-1zM217 84h1v1h-1zM288 84h1v1h-1zM289 84h1v1h-1zM360 84h1v1h-1zM361 84h1v1h-1zM432 84h1v1h-1zM433 84h1v1h-1zM504 84h1v1h-1zM505 84h1v1h-1zM576 84h1v1h-1zM577 84h1v1h-1zM648 84h1v1h-1zM649 84h1v1h-1zM720 84h1v1h-1zM721 84h1v1h-1zM792 84h1v1h-1zM793 84h1v1h-1zM864 84h1v1h-1zM865 84h1v1h-1zM936 84h1v1h-1zM937 84h1v1h-1zM1008 84h1v1h-1zM1009 84h1v1h-1zM1080 84h1v1h-1zM1081 84h1v1h-1zM1152 84h1v1h-1zM1153 84h1v1h-1zM0 85h1v1H0zM1 85h1v1H1zM72 85h1v1h-1zM73 85h1v1h-1zM144 85h1v1h-1zM145 85h1v1h-1zM216 85h1v1h-1zM217 85h1v1h-1zM288 85h1v1h-1zM289 85h1v1h-1zM360 85h1v1h-1zM361 85h1v1h-1zM432 85h1v1h-1zM433 85h1v1h-1zM504 85h1v1h-1zM505 85h1v1h-1zM576 85h1v1h-1zM577 85h1v1h-1zM648 85h1v1h-1zM649 85h1v1h-1zM720 85h1v1h-1zM721 85h1v1h-1zM792 85h1v1h-1zM793 85h1v1h-1zM864 85h1v1h-1zM865 85h1v1h-1zM936 85h1v1h-1zM937 85h1v1h-1zM1008 85h1v1h-1zM1009 85h1v1h-1zM1080 85h1v1h-1zM1081 85h1v1h-1zM1152 85h1v1h-1zM1153 85h1v1h-1zM0 86h1v1H0zM1 86h1v1H1zM72 86h1v1h-1zM73 86h1v1h-1zM144 86h1v1h-1zM145 86h1v1h-1zM216 86h1v1h-1zM217 86h1v1h-1zM288 86h1v1h-1zM289 86h1v1h-1zM360 86h1v1h-1zM361 86h1v1h-1zM432 86h1v1h-1zM433 86h1v1h-1zM504 86h1v1h-1zM505 86h1v1h-1zM576 86h1v1h-1zM577 86h1v1h-1zM648 86h1v1h-1zM649 86h1v1h-1zM720 86h1v1h-1zM721 86h1v1h-1zM792 86h1v1h-1zM793 86h1v1h-1zM864 86h1v1h-1zM865 86h1v1h-1zM936 86h1v1h-1zM937 86h1v1h-1zM1008 86h1v1h-1zM1009 86h1v1h-1zM1080 86h1v1h-1zM1081 86h1v1h-1zM1152 86h1v1h-1zM1153 86h1v1h-1zM0 87h1v1H0zM1 87h1v1H1zM72 87h1v1h-1zM73 87h1v1h-1zM144 87h1v1h-1zM145 87h1v1h-1zM216 87h1v1h-1zM217 87h1v1h-1zM288 87h1v1h-1zM289 87h1v1h-1zM360 87h1v1h-1zM361 87h1v1h-1zM432 87h1v1h-1zM433 87h1v1h-1zM504 87h1v1h-1zM505 87h1v1h-1zM576 87h1v1h-1zM577 87h1v1h-1zM648 87h1v1h-1zM649 87h1v1h-1zM720 87h1v1h-1zM721 87h1v1h-1zM792 87h1v1h-1zM793 87h1v1h-1zM864 87h1v1h-1zM865 87h1v1h-1zM936 87h1v1h-1zM937 87h1v1h-1zM1008 87h1v1h-1zM1009 87h1v1h-1zM1080 87h1v1h-1zM1081 87h1v1h-1zM1152 87h1v1h-1zM1153 87h1v1h-1zM0 88h1v1H0zM1 88h1v1H1zM72 88h1v1h-1zM73 88h1v1h-1zM144 88h1v1h-1zM145 88h1v1h-1zM216 88h1v1h-1zM217 88h1v1h-1zM288 88h1v1h-1zM289 88h1v1h-1zM360 88h1v1h-1zM361 88h1v1h-1zM432 88h1v1h-1zM433 88h1v1h-1zM504 88h1v1h-1zM505 88h1v1h-1zM576 88h1v1h-1zM577 88h1v1h-1zM648 88h1v1h-1zM649 88h1v1h-1zM720 88h1v1h-1zM721 88h1v1h-1zM792 88h1v1h-1zM793 88h1v1h-1zM864 88h1v1h-1zM865 88h1v1h-1zM936 88h1v1h-1zM937 88h1v1h-1zM1008 88h1v1h-1zM1009 88h1v1h-1zM1080 88h1v1h-1zM1081 88h1v1h-1zM1152 88h1v1h-1zM1153 88h1v1h-1z" />
</svg>
